<svg width="49" height="58" viewBox="0 0 49 58" fill="none" xmlns="http://www.w3.org/2000/svg">
<path d="M9.15118 9.00198V39.3278L24.5342 46.3395L39.6945 39.2221L39.9165 9.21321L24.5897 4.35254L9.15118 9.00198Z" fill="url(#paint0_linear_687_4424)"/>
<path d="M15.329 42.1065L9.50973 39.2931L9.22071 30.7596C9.22071 30.7596 5.25678 28.1757 3.64198 31.2252C3.64198 31.2252 5.20829 28.8974 8.53549 33.0874L8.24201 32.9939C8.24201 32.9939 5.50177 31.8771 4.52307 32.2491C3.54437 32.6212 2.07632 35.0412 1 33.6452C1 33.6452 2.76154 37.8333 5.3059 36.5314C7.85027 35.2294 8.33962 35.6937 8.33962 35.6937C8.33962 35.6937 5.3059 36.8112 5.11004 38.9526C4.91417 41.094 4.81655 41.8388 3.15263 42.118C3.15263 42.118 6.21506 44.1137 7.54212 42.7505C7.55679 42.7723 7.56508 42.7935 7.5804 42.8154C7.5804 42.8154 7.56572 42.7887 7.54722 42.7438C7.62472 42.6664 7.69357 42.5816 7.75266 42.4907C8.05012 42.0216 8.30109 41.5272 8.50231 41.0139C8.97635 40.7796 9.65073 40.5732 10.6218 40.4391L10.4521 40.589C10.4521 40.589 8.69754 41.8934 8.60184 42.6363C8.50614 43.3793 9.64371 45.1644 8.2956 45.3325C8.2956 45.3325 11.8117 45.7429 11.8302 43.6894C11.8487 41.636 12.3444 41.4995 12.3444 41.4995C12.3444 41.4995 12.0222 43.7902 13.4252 44.6825C14.8281 45.5747 15.3047 45.9031 14.899 47.04C14.899 47.04 17.6679 45.7107 16.8092 44.3086C15.9504 42.9064 15.2046 42.7565 15.329 42.1065ZM5.3059 22.2881C7.85027 20.9843 8.33962 21.4498 8.33962 21.4498C8.33962 21.4498 5.3059 22.5673 5.11004 24.7087C4.91417 26.8501 4.81655 27.5955 3.15263 27.8747C3.15263 27.8747 6.57809 30.1089 7.75266 28.2467C8.92723 26.3845 8.63374 25.4546 9.51419 25.1742L9.22071 16.5157C9.22071 16.5157 5.40352 13.9057 6.77396 10.1843C6.77396 10.1843 4.03053 13.2568 7.36092 17.4468L8.24201 18.75C8.24201 18.75 5.50177 17.6325 4.52307 18.0052C3.54437 18.3779 2.07632 20.7973 1 19.4013C1 19.4019 2.76154 23.5937 5.3059 22.2881ZM44.475 32.2504C43.4963 31.8783 40.7561 32.9951 40.7561 32.9951L40.4626 33.0886C43.7898 28.9005 45.3561 31.2264 45.3561 31.2264C43.7413 28.1769 39.7774 30.7608 39.7774 30.7608L39.4884 39.2943L33.6691 42.1065C33.7935 42.7553 33.0477 42.9077 32.1889 44.3086C31.3302 45.7095 34.0991 47.04 34.0991 47.04C33.6933 45.9031 34.1706 45.5747 35.5729 44.6825C36.9753 43.7902 36.6537 41.4995 36.6537 41.4995C36.6537 41.4995 37.1494 41.6367 37.1679 43.6901C37.1864 45.7435 40.7044 45.3331 40.7044 45.3331C39.3563 45.165 40.4939 43.3805 40.3982 42.6369C40.3025 41.8934 38.5479 40.5896 38.5479 40.5896L38.3782 40.4403C39.3493 40.5744 40.0236 40.7808 40.4977 41.0151C40.6989 41.5286 40.9498 42.0232 41.2473 42.4925C41.3064 42.5834 41.3753 42.6682 41.4528 42.7456C41.4343 42.7905 41.4196 42.8172 41.4196 42.8172C41.4349 42.7954 41.4432 42.7741 41.4579 42.7523C42.7824 44.1155 45.8474 42.1198 45.8474 42.1198C44.1834 41.8406 44.0852 41.0958 43.89 38.9544C43.6947 36.813 40.6604 35.6956 40.6604 35.6956C40.6604 35.6956 41.1497 35.23 43.6941 36.5332C46.2385 37.8364 48 33.647 48 33.647C46.9218 35.0437 45.4537 32.623 44.475 32.2504ZM41.2454 28.2443C42.42 30.1065 45.8455 27.8722 45.8455 27.8722C44.1815 27.593 44.0833 26.8477 43.8881 24.7062C43.6928 22.5648 40.6585 21.4474 40.6585 21.4474C40.6585 21.4474 41.151 20.9837 43.6922 22.2881C46.2334 23.5924 47.9981 19.4019 47.9981 19.4019C46.9218 20.7979 45.4537 18.3773 44.475 18.0058C43.4963 17.6344 40.7561 18.7506 40.7561 18.7506L41.6372 17.4474C44.9644 13.2593 42.2241 10.1849 42.2241 10.1849C43.5946 13.9087 39.7774 16.5163 39.7774 16.5163L39.4839 25.1718C40.3643 25.4534 40.0709 26.3857 41.2454 28.2467V28.2443Z" fill="#231F20" stroke="url(#paint1_linear_687_4424)" stroke-width="0.30001" stroke-miterlimit="10"/>
<path d="M24.5358 46.7632L8.74896 39.5675V8.72213L24.5919 3.95068L40.3213 8.9376L40.0936 39.4594L24.5358 46.7632ZM9.55157 39.0861L24.5307 45.914L39.2942 38.983L39.5123 9.48692L24.583 4.7525L9.55157 9.28055V39.0861Z" fill="url(#paint2_linear_687_4424)"/>
<path d="M24.5288 28.4517V29.0143L25.8475 30.2283L26.1442 30.0583L26.1142 29.8762L24.5288 28.4517ZM37.2027 19.5352C37.6143 18.6199 37.8184 17.6602 37.7482 16.7595C37.6283 15.2165 35.8833 13.0314 35.0131 12.7395C34.7292 12.6436 34.5665 12.751 34.4957 12.8232C34.3974 12.9222 34.3273 13.083 34.3834 13.426L34.5187 13.9546L34.5238 13.9413C34.5876 14.1185 34.6616 14.3164 34.7687 14.5568C36.0601 17.4496 32.8305 19.5273 31.8097 20.0948L31.728 20.1403L31.6304 20.4541C31.6196 20.5355 31.3918 22.4572 33.4213 23.1388L33.7314 23.2402L33.8264 23.1892C35.0456 22.5306 36.0779 21.5018 36.7791 20.3412L36.8238 39.1776L33.1948 40.8012V33.5357H33.117C33.6395 33.1333 34.1869 32.7988 34.7458 32.5852L34.8983 32.5245V31.4307L33.1967 29.7397L32.8464 24.7625L32.655 24.4675C32.2084 24.266 29.9977 23.1279 30.1126 20.5039C30.1126 20.4359 30.1222 20.3698 30.126 20.3024C28.2809 18.6672 24.5281 18.6271 24.5281 18.6271C24.5281 18.6271 20.7754 18.6672 18.9302 20.3024C18.9341 20.3698 18.9405 20.4359 18.9436 20.5039C19.0585 23.1279 16.8452 24.2672 16.4006 24.4675L16.2092 24.7625L15.8582 29.7397L14.1624 31.4307V32.5269L14.3143 32.5876C14.8738 32.8013 15.4212 33.1339 15.9431 33.5381H15.8653V40.8036L12.2363 39.18L12.2809 20.3437C12.9828 21.5042 14.0144 22.533 15.2343 23.1916L15.3293 23.2426L15.6394 23.1412C17.6689 22.4596 17.4405 20.5379 17.4214 20.4171L17.332 20.1428L17.251 20.0972C16.2302 19.5297 13 17.452 14.2913 14.5592C14.3991 14.3164 14.4751 14.121 14.5369 13.9437L14.5414 13.9571L14.6728 13.426C14.7296 13.083 14.6588 12.9222 14.5612 12.8232C14.4891 12.751 14.3277 12.6411 14.0438 12.7395C13.1735 13.0326 11.4279 15.2135 11.3086 16.7595C11.2384 17.6608 11.7935 19.5352 11.7935 19.5352L11.7463 39.4707L24.338 45.1041L37.3099 39.4707L37.2634 19.5352H37.2027ZM11.7935 16.7947C11.9141 15.2433 13.7401 13.3015 14.209 13.1716C14.2192 13.2718 14.1988 13.5777 13.8415 14.3771C12.4277 17.5431 15.7383 19.7749 16.9231 20.4469L16.9448 20.5076C16.9524 20.564 17.0826 21.6972 16.1077 22.3819C15.9884 22.3012 15.8704 22.2162 15.753 22.1312C16.0184 21.9558 16.3699 21.6529 16.5339 21.1983L16.0764 21.0526C15.9284 21.4629 15.5539 21.7203 15.3555 21.8314C15.2477 21.747 15.1418 21.6608 15.0365 21.5734C15.2585 21.4629 15.5354 21.2438 15.6968 20.7977L15.2368 20.6484C15.0512 21.1643 14.6626 21.2232 14.6473 21.225V21.239C14.5299 21.1334 14.4132 21.0271 14.2996 20.9185C13.7369 20.3722 13.215 19.7774 12.8264 19.1109C12.4379 18.4444 12.1846 17.6991 12.2644 16.9313C12.3352 16.1671 12.607 15.4181 12.9955 14.7364C12.5674 15.3986 12.2516 16.1355 12.1348 16.9161C12.0021 17.7051 12.2267 18.5191 12.6019 19.2226C12.9732 19.9346 13.4785 20.5707 14.0291 21.1588C14.5331 21.6881 15.0798 22.179 15.6643 22.6271C15.6005 22.6532 15.5424 22.6805 15.4729 22.703L15.3746 22.7352C13.1601 21.4927 11.6251 18.9567 11.7935 16.7947ZM20.0831 42.6901L16.3476 41.0185V33.8677C18.2144 35.4683 19.6863 37.8258 20.0831 38.4923V42.6901ZM14.6448 32.2174V31.6164L15.9546 30.3139L15.9508 30.4055L15.3217 31.4835C15.3217 31.4835 19.5919 34.1688 20.9782 37.5666L21.6443 37.654L21.6309 38.3369H20.5495C20.0959 37.5533 17.6019 33.4556 14.6448 32.2174ZM28.4895 42.9074L24.7712 44.5699V33.6868C25.2371 33.7057 25.6985 33.7812 26.1442 33.9114V31.8301L29.1785 29.364C29.9397 28.757 30.3155 27.858 30.1202 26.9822C29.8746 25.8848 28.7645 25.6377 25.473 25.9977L24.5288 24.9385V25.676L25.5802 26.6471L25.6465 27.0526L24.5275 26.0456V26.4456L25.7288 27.5527L25.7965 27.9624L24.5275 26.8207V27.2456L25.8845 28.496L25.9592 28.9488L25.9521 28.9057L24.5275 27.6238V28.0729L26.0459 29.472L26.1429 30.0614L25.607 30.3679L24.5275 29.3967V29.9594L25.2146 30.5925L24.9658 30.7345L24.5275 30.34V30.9852L22.9114 30.0614L23.5826 25.9995C20.2918 25.6395 19.1803 25.8866 18.936 26.984C18.7408 27.8599 19.1159 28.7582 19.877 29.3658L22.9114 31.8319V33.9114C23.3572 33.7819 23.8186 33.707 24.2844 33.6887V44.5699L20.568 42.9074V38.7988H22.1477V37.7354L22.1426 37.7226H22.1496L22.1439 31.9473L19.2537 29.6407C18.3899 28.9518 17.9643 27.9333 18.1857 26.9397C18.4887 25.5819 19.9511 24.1373 24.5275 24.9397C29.1039 24.1373 30.5656 25.5819 30.8686 26.9397C31.0906 27.9333 30.6645 28.9518 29.8012 29.6407L26.9104 31.9473V37.7226L26.9053 37.7348V38.8012H28.4857L28.4895 42.9074ZM27.4272 38.3369L27.4145 37.6546L28.0805 37.5666C28.7977 34.7175 33.7352 31.4835 33.7352 31.4835L33.1067 30.4055L33.1029 30.3139L34.4127 31.6164V32.2174C31.4556 33.4556 28.9642 37.5533 28.508 38.3369H27.4272ZM32.7105 41.0185L28.975 42.6901V38.4923C29.3719 37.8246 30.8444 35.4683 32.7105 33.8677V41.0185ZM33.6822 22.7352L33.584 22.703C33.5163 22.6805 33.4564 22.6532 33.3926 22.6271C33.9763 22.1791 34.5222 21.6881 35.0252 21.1588C35.5758 20.5707 36.0818 19.9346 36.4531 19.2226C36.8276 18.5209 37.0528 17.7051 36.9201 16.9161C36.8027 16.1337 36.4856 15.3986 36.0594 14.7346C36.448 15.4162 36.7198 16.1652 36.7906 16.9294C36.8729 17.6973 36.6228 18.4469 36.2291 19.1091C35.8355 19.7713 35.3193 20.3698 34.7566 20.9167C34.6431 21.0253 34.5263 21.1315 34.4089 21.2371V21.2232C34.3923 21.2232 34.0051 21.1625 33.8194 20.6466L33.3664 20.8007C33.5272 21.2469 33.8047 21.4684 34.0267 21.5764C33.9208 21.6645 33.8149 21.75 33.7077 21.835C33.51 21.7239 33.1335 21.4708 32.9868 21.0557L32.5274 21.205C32.6914 21.6596 33.0429 21.9625 33.3084 22.1379C33.1903 22.2229 33.0723 22.3079 32.953 22.3886C31.9781 21.7051 32.107 20.5768 32.107 20.5537L32.1408 20.4511C33.3275 19.7743 36.6324 17.5431 35.2192 14.3813C34.8625 13.582 34.8421 13.276 34.8523 13.1759C35.3213 13.3058 37.1492 15.2475 37.2678 16.7989C37.4318 18.9567 35.8974 21.4927 33.681 22.7352H33.6822ZM15.7172 23.3567C15.6617 23.3755 15.6094 23.3919 15.5552 23.4095L15.4659 23.7069L16.0401 24.1397L16.0662 24.099L16.1402 24.0705C16.2391 24.0317 18.5704 23.0915 18.4575 20.5209C18.4575 20.4845 18.4524 20.4493 18.4505 20.4129L18.0141 20.2417L17.653 20.3716L17.6574 20.3856C17.6715 20.445 17.9407 22.6101 15.7172 23.3567ZM31.4026 20.3716L31.0422 20.2417L30.6058 20.4129C30.6058 20.4493 30.6 20.4845 30.5981 20.5209C30.4858 23.0915 32.8165 24.0317 32.916 24.0705L32.99 24.099L33.0161 24.1397L33.5904 23.7069L33.5017 23.4095C33.4474 23.3919 33.3951 23.3755 33.3396 23.3567C31.1162 22.6101 31.386 20.4432 31.3975 20.3856L31.4026 20.3716Z" fill="url(#paint3_linear_687_4424)"/>
<path d="M29.4115 16.7347L30.0055 17.8879L30.6001 16.7347L31.8761 16.5969L30.9657 15.6597L31.1616 14.5034L30.0042 14.9951L28.8475 14.5034L29.0427 15.6597L28.1355 16.5993L29.4115 16.7347ZM17.1835 16.5969L18.4595 16.7347L19.0535 17.8879L19.65 16.7347L20.926 16.5969L20.0156 15.6597L20.2114 14.5034L19.0541 14.9951L17.8974 14.5034L18.0926 15.6597L17.1835 16.5969Z" fill="#010101"/>
<path d="M19.0535 18.1831L18.3734 16.8562L16.906 16.6978L17.9517 15.621L17.7271 14.2942L19.0554 14.8581L20.3838 14.2942L20.1598 15.621L21.2049 16.6978L19.7375 16.8562L19.0535 18.1831ZM17.4585 16.5012L18.547 16.6189L19.0529 17.6034L19.5595 16.6189L20.6441 16.5012L19.8727 15.703L20.0393 14.7185L19.0535 15.1373L18.0685 14.7185L18.235 15.703L17.4585 16.5012ZM30.003 18.1831L29.3216 16.8562L27.8542 16.6978L28.9005 15.621L28.6759 14.2942L30.0043 14.8581L31.3326 14.2942L31.1087 15.621L32.1544 16.6978L30.6869 16.8562L30.003 18.1831ZM28.408 16.5012L29.4964 16.6189L30.0024 17.6034L30.5089 16.6189L31.5935 16.5012L30.8228 15.703L30.9894 14.7185L30.0036 15.1373L29.0186 14.7185L29.1844 15.703L28.408 16.5012Z" fill="url(#paint4_linear_687_4424)"/>
<path d="M25.8376 2.65186H23.4291V9.7814H25.8376V2.65186Z" fill="url(#paint5_linear_687_4424)"/>
<path d="M26.7738 18.3122C25.3243 17.9653 23.8071 17.9653 22.3575 18.3122C23.6074 14.3104 23.2003 12.8579 22.4915 12.3286C22.2095 12.1186 21.4828 11.7575 21.5549 11.4376C21.6041 11.2179 22.0098 11.1116 22.3575 11.0558C23.4357 10.7196 24.5825 10.6322 25.7032 10.8009C26.0668 10.8581 26.4248 10.9434 26.7738 11.0558C27.0411 11.1438 27.3786 11.2986 27.4425 11.565C27.5235 11.9025 27.1234 12.2503 27.0411 12.3286C26.5748 12.7729 26.2513 14.1878 26.7738 18.3122Z" fill="url(#paint6_linear_687_4424)"/>
<path d="M19.3266 13.4566C19.5817 13.5251 19.8526 13.5181 20.1034 13.4365C20.3542 13.3548 20.5728 13.2024 20.7302 12.9995C20.9746 12.6863 21.3134 12.3519 21.7306 12.1753L22.2512 12.8666L22.2174 18.4259C22.978 18.274 23.751 18.1852 24.5277 18.1607H24.5978L24.6278 13.819C25.0323 13.4621 25.9734 12.1328 26.6005 12.0909L26.1941 12.6141C26.1536 12.6655 26.1313 12.7278 26.1303 12.792L26.0965 18.2966C26.2988 18.3258 26.5119 18.361 26.7345 18.4035L26.7575 14.6074V14.1607L26.7645 13.0433L27.2494 12.2839L27.2296 12.2967L27.2934 12.2105C27.2934 12.2105 27.5531 12.2748 27.985 12.7124C28.0061 12.7331 28.0252 12.7531 28.045 12.7731C28.14 12.8739 28.2402 12.9856 28.3506 13.1252L28.6536 13.3741C28.8047 13.4648 28.9739 13.5249 29.1506 13.5504C29.3273 13.5759 29.5076 13.5662 29.6802 13.5222C29.6802 13.5222 28.9414 12.8599 29.2668 11.9015C29.5921 10.9431 30.1013 10.9383 30.1274 10.5425C30.1389 10.3641 29.7842 9.99623 29.5998 10.0333C29.2368 10.1 29.3778 10.5377 28.424 10.883C27.1983 11.3304 25.8241 10.3094 25.8241 10.3094L25.8515 9.60716L25.9223 9.62901L25.9632 8.56923L25.9026 8.60079L25.9096 8.41262L25.9798 8.44419L26.0174 7.38684L25.9479 7.34435L25.9613 6.99351L26.034 6.96074L26.0799 5.78624L26.0097 5.74314L26.0212 5.45119L26.0946 5.40566L26.1584 3.73041L26.085 3.77593L26.094 3.54224L26.413 2.47639C26.7575 1.32678 25.8847 0.134678 24.6265 0.118896H24.5781C23.3212 0.118896 22.4305 1.29825 22.7585 2.45211L23.0622 3.52221L23.2293 10.3003C23.2293 10.3003 21.8397 11.3024 20.6211 10.8393C19.6731 10.4788 19.8198 10.0436 19.4581 9.97195C19.2743 9.93553 18.9138 10.2955 18.9234 10.4739C18.9432 10.8703 19.4517 10.8818 19.7637 11.8445C20.0756 12.8071 19.3266 13.4566 19.3266 13.4566ZM24.4351 3.67699C24.8606 3.68282 25.2841 3.73227 25.6984 3.82449L25.6907 4.02418L24.4568 4.7914L25.6333 5.5131L25.6257 5.69823L24.4466 6.4266L25.5708 7.11309V7.17379L24.3688 7.72007L25.5293 8.24146L25.5108 8.72036L24.2348 9.11368L25.4815 9.4979L25.4636 9.94767L23.6134 9.93553L23.5987 9.31095L24.2367 9.11368L23.5885 8.91399L23.5687 8.08425L24.3713 7.72007L23.5509 7.35163L23.5419 6.9923L24.4511 6.42963L23.5151 5.85786L23.5037 5.38806L24.4607 4.79262L23.4743 4.18564L23.4647 3.78686C23.7815 3.70868 24.1079 3.67172 24.4351 3.67699ZM23.3582 10.8314L24.0523 11.1076C24.3564 11.2288 24.6985 11.231 25.0042 11.1137L25.6958 10.8466C25.6958 10.8466 26.9125 11.6126 28.163 11.4445L27.2858 11.7237L26.3102 11.5659C26.1403 11.5385 25.9662 11.5448 25.7988 11.5844C25.6315 11.6239 25.4746 11.696 25.3379 11.7959L25.2894 11.8317C25.0682 11.9933 24.7967 12.0801 24.5178 12.0782C24.2389 12.0763 23.9687 11.986 23.7499 11.8214L23.7021 11.785C23.5669 11.6832 23.4112 11.6091 23.2445 11.5673C23.0778 11.5255 22.9039 11.517 22.7336 11.5422L21.7555 11.6879L21.7479 11.6952L20.8827 11.3965C22.13 11.5816 23.3582 10.8314 23.3582 10.8314Z" fill="url(#paint7_linear_687_4424)"/>
<path d="M22.0843 18.5856L22.1187 12.9104L21.6887 12.3398C21.3946 12.4879 21.1024 12.7417 20.8389 13.0785C20.666 13.3035 20.4246 13.4724 20.1474 13.5626C19.8702 13.6527 19.5706 13.6596 19.2892 13.5823L19.0588 13.5216L19.2349 13.3674C19.263 13.3432 19.9169 12.755 19.635 11.884C19.4672 11.3656 19.247 11.1459 19.0697 10.9693C18.9249 10.8248 18.8004 10.7004 18.789 10.4837C18.7807 10.3229 18.9351 10.1232 19.0914 9.99812C19.1915 9.91679 19.3421 9.82513 19.485 9.85305C19.6828 9.89251 19.7696 10.0127 19.8614 10.1395C19.9859 10.3119 20.1409 10.5256 20.6704 10.7271C21.6727 11.1083 22.8307 10.4133 23.0949 10.2415L22.9341 3.54899L22.6349 2.49407C22.5492 2.19681 22.5374 1.88467 22.6004 1.58233C22.6635 1.27999 22.7995 0.995738 22.9979 0.752044C23.1827 0.518801 23.4218 0.329497 23.6964 0.199007C23.9711 0.0685181 24.2738 0.000398081 24.5808 0H24.6337C24.9411 0.00392147 25.2433 0.0757678 25.5164 0.209865C25.7896 0.343963 26.0262 0.53664 26.2077 0.772681C26.4022 1.01902 26.534 1.30498 26.5925 1.60801C26.6511 1.91105 26.6349 2.22289 26.5452 2.51895L26.2396 3.53746L26.3034 3.4974L26.2262 5.48464L26.1535 5.52956L26.1471 5.68373L26.2173 5.72622L26.1656 7.05003L26.0928 7.08342L26.0852 7.28433L26.1554 7.32682L26.0584 9.81542L25.9876 9.79357L25.9697 10.2603C26.23 10.4351 27.3772 11.1447 28.3852 10.7781C28.9179 10.5839 29.0755 10.3714 29.2025 10.2015C29.2963 10.0752 29.385 9.95867 29.5853 9.91982C29.7295 9.89311 29.8775 9.98659 29.977 10.0697C30.1314 10.199 30.2826 10.4012 30.2718 10.562C30.2578 10.7805 30.1308 10.9031 29.984 11.0476C29.8041 11.2218 29.5808 11.4385 29.4054 11.9544C29.1106 12.8218 29.7556 13.4184 29.7831 13.4433L29.956 13.5993L29.7263 13.66C29.5358 13.708 29.3371 13.7183 29.1423 13.6902C28.9474 13.6621 28.7608 13.5963 28.5938 13.4967L28.5772 13.4846L28.2544 13.2163C28.1606 13.0949 28.0688 12.9917 27.9565 12.8728L27.8997 12.8121C27.7434 12.6435 27.5604 12.4991 27.3574 12.3841L26.9057 13.0913L26.8725 18.5705L26.713 18.5401C26.5025 18.4994 26.2906 18.4642 26.0826 18.4345L25.9678 18.4181L26.0023 12.803C26.0031 12.7117 26.0343 12.6231 26.0916 12.5498L26.1834 12.4315C25.8453 12.6816 25.4663 13.1113 25.185 13.4306C25.0223 13.6127 24.8794 13.7765 24.7658 13.8846L24.7358 18.3028L24.5291 18.2979C23.7618 18.3215 22.9981 18.4076 22.2463 18.5553L22.0843 18.5856ZM21.7767 12.0187L22.3867 12.8291L22.3535 18.2724C23.0505 18.1428 23.7569 18.0643 24.4666 18.0375L24.4953 13.7674L24.538 13.7298C24.6925 13.5802 24.8388 13.4232 24.9763 13.2594C25.4702 12.6992 26.0852 12.0024 26.5924 11.9678L26.8821 11.9483L26.3034 12.6943C26.2797 12.724 26.267 12.7602 26.267 12.7975L26.2339 18.1911C26.3563 18.2093 26.4801 18.2299 26.6033 18.2518L26.6358 13.0099L26.8215 12.7192L26.6626 12.8218L27.2476 12.0679L27.3248 12.0873L27.6872 11.8536L27.4958 12.1571C27.7186 12.2845 27.9198 12.4433 28.0924 12.6281C28.1121 12.6476 28.1306 12.6676 28.1504 12.6888C28.2672 12.8102 28.3642 12.9231 28.4586 13.0421L28.7425 13.2758C28.9499 13.3971 29.1918 13.4542 29.4347 13.4391C29.2561 13.2191 29.1367 12.961 29.0869 12.687C29.0372 12.4131 29.0587 12.1318 29.1495 11.8676C29.3409 11.2946 29.6025 11.0439 29.7914 10.8606C29.9292 10.7271 29.9955 10.6579 30.0032 10.5395C30.0032 10.5086 29.9553 10.3987 29.8303 10.2828C29.7301 10.1893 29.6529 10.1614 29.6338 10.1614C29.5451 10.1778 29.5062 10.2251 29.4213 10.3398C29.2893 10.5171 29.0902 10.7854 28.4822 11.0075C27.2004 11.4749 25.8102 10.4612 25.7515 10.4157L25.6979 10.3757L25.7343 9.4397L25.8051 9.46155L25.8325 8.752L25.7598 8.77385L25.7815 8.21179L25.8523 8.24335L25.8829 7.45428L25.8128 7.41179L25.8325 6.91104L25.9053 6.87826L25.9448 5.85308L25.8747 5.81059L25.8912 5.38024L25.9646 5.33472L26.0176 3.97084L25.9442 4.01636L25.9678 3.5065L26.2868 2.44065C26.3652 2.18226 26.3794 1.91005 26.3283 1.64554C26.2771 1.38103 26.162 1.13146 25.992 0.916535C25.8347 0.712513 25.6297 0.54602 25.3932 0.430162C25.1567 0.314304 24.8952 0.252242 24.6293 0.248861H24.5808C24.3148 0.249142 24.0525 0.308169 23.8146 0.421291C23.5767 0.534414 23.3696 0.698544 23.2097 0.900753C23.0363 1.11331 22.9171 1.36133 22.8618 1.62521C22.8064 1.8891 22.8163 2.16161 22.8907 2.42123L23.1989 3.52168L23.3641 10.3611L23.3092 10.4005C23.2505 10.443 21.8456 11.4409 20.5709 10.9559C19.9661 10.7265 19.7708 10.4558 19.6413 10.2767C19.5571 10.1608 19.5195 10.1128 19.4308 10.0946C19.4104 10.0946 19.3344 10.1195 19.233 10.2118C19.1054 10.3259 19.055 10.4351 19.0563 10.4661C19.0627 10.5845 19.1277 10.6549 19.2636 10.7902C19.4493 10.9723 19.7045 11.2297 19.8908 11.8057C19.9775 12.0713 19.9946 12.353 19.9408 12.6263C19.887 12.8997 19.7638 13.1564 19.582 13.3741C19.7816 13.3911 19.9825 13.3587 20.1651 13.28C20.3476 13.2013 20.5057 13.079 20.6239 12.925C20.9486 12.5098 21.3027 12.219 21.6772 12.06L21.7767 12.0187ZM24.5259 12.2063H24.5163C24.2086 12.2032 23.9106 12.1031 23.6691 11.9216L23.6212 11.8858C23.5005 11.795 23.3613 11.7288 23.2125 11.6914C23.0636 11.654 22.9082 11.6462 22.7561 11.6685L21.8188 11.8069L21.7901 11.836L21.6995 11.8154L20.8363 11.5143L20.9001 11.2685C22.0811 11.4439 23.2709 10.7295 23.2824 10.7222L23.3418 10.6864L24.0978 10.9899C24.2321 11.044 24.3763 11.0723 24.5221 11.0732C24.668 11.0742 24.8126 11.0477 24.9476 10.9954L25.7081 10.704L25.7668 10.7411C25.7783 10.7483 26.958 11.4791 28.1409 11.3189L28.2047 11.5653L27.2955 11.8555L26.2849 11.6922C26.1331 11.6679 25.9776 11.6736 25.8282 11.709C25.6788 11.7444 25.5387 11.8087 25.4166 11.898L25.3681 11.9332C25.1264 12.1096 24.8305 12.2055 24.5259 12.2063ZM22.9239 11.4014C23.2364 11.4017 23.5398 11.5019 23.7852 11.6861L23.833 11.7225C24.0283 11.8696 24.2696 11.9504 24.5186 11.9519C24.7677 11.9535 25.0101 11.8757 25.2073 11.731L25.2558 11.6958C25.4073 11.5855 25.581 11.5059 25.7661 11.462C25.9513 11.4182 26.1439 11.411 26.3321 11.4409L27.2744 11.5939L27.3555 11.5678C26.7634 11.4805 26.1949 11.284 25.682 10.9893L25.0503 11.2321C24.8829 11.2968 24.7036 11.3294 24.5229 11.3281C24.3422 11.3269 24.1635 11.2918 23.997 11.2248L23.3686 10.9741C22.8457 11.265 22.2677 11.4547 21.6676 11.5326L21.7474 11.5599L22.7121 11.4172C22.7821 11.4068 22.8529 11.4016 22.9239 11.4014ZM25.5882 10.0746L23.4777 10.0606L23.4579 9.21755L23.7986 9.11254L23.4528 9.00632L23.4285 8.00359L24.0551 7.71953L23.4171 7.43182L23.4049 6.92257L24.2024 6.4291L23.3769 5.93016L23.3622 5.32319L24.2095 4.79633L23.3367 4.26037L23.3226 3.69467L23.4241 3.66857C23.7537 3.58564 24.0937 3.54582 24.4347 3.55021C24.8702 3.55541 25.3039 3.60589 25.7279 3.70074L25.8351 3.72441L25.8211 4.09527L24.7014 4.79087L25.7681 5.44458L25.7553 5.76871L24.6899 6.42788L25.7049 7.047L25.6967 7.2558L24.6758 7.71832L25.6616 8.1608L25.636 8.8133L24.6637 9.11254L25.6131 9.4051L25.5882 10.0746ZM23.738 9.80814L25.333 9.81845L25.3419 9.58841L24.2331 9.24668L23.7303 9.40146L23.738 9.80814ZM23.7144 8.81998L24.2311 8.97901L25.3796 8.62575L25.391 8.32226L24.3702 7.86278L23.7029 8.16626L23.7144 8.81998ZM23.6774 7.26855L24.3651 7.5781L25.3496 7.13198L24.4462 6.57963L23.6691 7.05914L23.6774 7.26855ZM23.6416 5.78631L24.4449 6.27675L25.4931 5.62667V5.57994L24.4538 4.94261L23.6308 5.45368L23.6416 5.78631ZM23.6014 4.11591L24.4551 4.63973L25.5582 3.95385V3.92593C25.1888 3.85041 24.8125 3.81014 24.4347 3.80574C24.1531 3.80281 23.8721 3.83009 23.597 3.88708L23.6014 4.11591Z" fill="url(#paint8_linear_687_4424)"/>
<path d="M13.1796 51.7305C13.2179 51.7317 13.2546 51.7459 13.2829 51.7705C13.3182 51.7992 13.348 51.8335 13.371 51.8719C13.3952 51.9118 13.4137 51.9547 13.4258 51.9994C13.4377 52.0388 13.4412 52.08 13.436 52.1208L13.3665 52.5396C13.3608 52.564 13.349 52.5867 13.332 52.6057C13.3108 52.6324 13.2876 52.6576 13.2625 52.681C13.237 52.7059 13.2115 52.7289 13.1853 52.7508C13.1655 52.7686 13.1441 52.7848 13.1215 52.7994C13.1375 52.8153 13.1524 52.8321 13.1662 52.8497C13.1853 52.8734 13.2038 52.8977 13.2217 52.9238C13.2382 52.948 13.2531 52.9731 13.2663 52.9991C13.2771 53.0176 13.282 53.0387 13.2804 53.0597L13.2115 53.4786C13.2034 53.5219 13.186 53.5633 13.1604 53.6C13.1312 53.6449 13.0977 53.6872 13.0602 53.7262C13.0247 53.7643 12.9844 53.7981 12.9403 53.827C12.9068 53.8513 12.8663 53.8654 12.8242 53.8676H10.3551L10.6403 52.1499C10.6262 52.1286 10.6104 52.1083 10.5931 52.0892C10.5676 52.0582 10.5395 52.0224 10.5095 51.9824C10.4796 51.9421 10.4523 51.9002 10.4278 51.8567C10.406 51.8189 10.391 51.7778 10.3832 51.7353L13.1796 51.7305ZM12.3769 53.0992H11.5329L11.6343 52.4977H12.4701C12.4833 52.4936 12.4947 52.4855 12.5026 52.4746C12.5128 52.463 12.521 52.4498 12.5269 52.4358L12.5352 52.4012C12.5377 52.3849 12.5341 52.3684 12.525 52.3544C12.522 52.3479 12.5172 52.3423 12.5112 52.3383C12.5051 52.3342 12.4979 52.3318 12.4905 52.3314H11.4697L11.3153 53.2619H12.3361C12.3443 53.2611 12.3521 53.2586 12.3592 53.2546C12.3662 53.2506 12.3723 53.2452 12.3769 53.2388C12.3891 53.2255 12.3975 53.2094 12.4012 53.1921L12.4095 53.1569C12.4104 53.1453 12.4078 53.1337 12.4021 53.1235C12.3963 53.1133 12.3876 53.1048 12.3769 53.0992Z" fill="white"/>
<path d="M15.5928 53.6066H14.5656L14.3946 53.8628H13.4733L14.6307 52.1529C14.6191 52.1324 14.6047 52.1134 14.5879 52.0965C14.5624 52.0667 14.5337 52.0309 14.5024 51.9878C14.471 51.9453 14.4418 51.9014 14.415 51.8561C14.3904 51.8179 14.3749 51.775 14.3697 51.7305H15.8288L16.5626 53.8628H15.6821L15.5928 53.6066ZM14.9612 53.01H15.3969L15.2546 52.5717L14.9612 53.01Z" fill="white"/>
<path d="M19.2488 51.7305H20.1044L19.7497 53.8628H18.9266L17.9913 52.8157L17.8159 53.8628H17.812C17.7941 53.8885 17.7714 53.9109 17.7451 53.9289C17.7055 53.9599 17.6564 53.9939 17.5983 54.0315C17.5403 54.0691 17.4745 54.1086 17.4024 54.1499C17.3304 54.1912 17.2614 54.2288 17.1945 54.2622C17.1336 54.2932 17.071 54.321 17.0069 54.3453C16.9653 54.3638 16.9206 54.3751 16.8748 54.3787L17.315 51.7305H18.1342L19.0759 52.7769L19.2488 51.7305Z" fill="white"/>
<path d="M22.1066 53.8631H20.4969C20.4583 53.862 20.4213 53.8475 20.393 53.8225C20.3579 53.7939 20.3283 53.7598 20.3055 53.7217C20.2811 53.6823 20.2626 53.6398 20.2507 53.5954C20.2382 53.5561 20.2347 53.5147 20.2405 53.4741L20.4644 52.1168C20.4729 52.0736 20.4903 52.0324 20.5154 51.9955C20.5442 51.95 20.5776 51.9073 20.615 51.868C20.6509 51.8298 20.6913 51.7958 20.7356 51.7666C20.7692 51.7426 20.8097 51.7287 20.8517 51.7266H23.3176L23.2193 52.3275H21.3449C21.3363 52.3284 21.328 52.3312 21.3206 52.3355C21.3132 52.3398 21.3069 52.3455 21.3021 52.3524C21.2893 52.3649 21.28 52.3803 21.2753 52.3973L21.1407 53.1863C21.1382 53.2026 21.1418 53.2191 21.1509 53.2331C21.1545 53.24 21.1601 53.2457 21.167 53.2498C21.1738 53.2539 21.1817 53.2561 21.1898 53.2561H22.1519C22.1601 53.2553 22.1679 53.2528 22.175 53.2488C22.182 53.2448 22.1881 53.2395 22.1928 53.2331C22.205 53.2198 22.2133 53.2037 22.217 53.1863L22.233 53.0892H21.4916L21.593 52.492H23.1912L22.9628 53.8571C22.9447 53.8829 22.9218 53.9053 22.8952 53.9232C22.8477 53.96 22.798 53.9942 22.7466 54.0258C22.6872 54.0634 22.619 54.1029 22.5494 54.1442C22.4799 54.1854 22.4071 54.2231 22.3389 54.2564C22.2706 54.2898 22.2113 54.3171 22.1519 54.3396C22.1108 54.358 22.0665 54.3693 22.0211 54.373L22.1066 53.8631Z" fill="white"/>
<path d="M25.4798 53.6066H24.4526L24.2816 53.8628H23.3604L24.5183 52.1529C24.5063 52.1327 24.4919 52.1138 24.4756 52.0965C24.4494 52.0667 24.4207 52.0309 24.3895 51.9878C24.3582 51.9447 24.3295 51.9016 24.302 51.8561C24.2775 51.8179 24.2622 51.775 24.2574 51.7305H25.7165L26.4502 53.8628H25.5698L25.4798 53.6066ZM24.8482 53.01H25.2846L25.1417 52.5717L24.8482 53.01Z" fill="white"/>
<path d="M27.8082 53.2619H29.3248L29.2227 53.8628H26.8506L27.1358 52.145C27.122 52.1237 27.1064 52.1034 27.0892 52.0843C27.063 52.0534 27.0356 52.0176 27.0056 51.9775C26.9757 51.9373 26.9485 51.8953 26.924 51.8519C26.9019 51.8141 26.8868 51.7731 26.8793 51.7305H28.0615L27.8082 53.2619Z" fill="white"/>
<path d="M29.9703 53.8631C29.9315 53.8621 29.8946 53.8476 29.8663 53.8225C29.8312 53.7938 29.8014 53.7597 29.7782 53.7217C29.754 53.6821 29.7356 53.6397 29.7234 53.5954C29.7115 53.556 29.7081 53.5148 29.7131 53.4741L29.9377 52.1168C29.9462 52.0737 29.9634 52.0325 29.9881 51.9955C30.0171 51.95 30.0507 51.9073 30.0883 51.868C30.124 51.8298 30.1642 51.7958 30.2082 51.7666C30.242 51.7427 30.2824 51.7288 30.3244 51.7266H32.4751C32.5136 51.7278 32.5505 51.742 32.5791 51.7666C32.6141 51.7954 32.6437 51.8297 32.6665 51.868C32.691 51.9078 32.7095 51.9507 32.7213 51.9955C32.7339 52.0347 32.7374 52.0762 32.7316 52.1168L32.5076 53.4741C32.4998 53.5175 32.4824 53.5589 32.4566 53.5954C32.4276 53.6404 32.3943 53.6827 32.357 53.7217C32.3211 53.7597 32.2807 53.7935 32.2365 53.8225C32.2029 53.8468 32.1625 53.861 32.1203 53.8631H29.9703ZM31.8288 52.4015C31.8313 52.3853 31.8277 52.3687 31.8186 52.3548C31.8156 52.3482 31.8107 52.3425 31.8045 52.3385C31.7983 52.3344 31.791 52.332 31.7835 52.3317H30.8163C30.8077 52.3329 30.7996 52.3357 30.7922 52.34C30.7849 52.3443 30.7785 52.3499 30.7735 52.3566C30.761 52.3693 30.7521 52.3847 30.7474 52.4015L30.6127 53.1906C30.6103 53.2068 30.6139 53.2234 30.6229 53.2373C30.6266 53.2442 30.6321 53.25 30.639 53.2541C30.6459 53.2581 30.6538 53.2603 30.6619 53.2604H31.6278C31.6359 53.2596 31.6436 53.2571 31.6506 53.2531C31.6575 53.2491 31.6635 53.2437 31.668 53.2373C31.6806 53.2242 31.6892 53.208 31.6929 53.1906L31.8288 52.4015Z" fill="white"/>
<path d="M33.2181 51.7305H35.6878C35.7264 51.7318 35.7632 51.746 35.7918 51.7705C35.8269 51.7993 35.8565 51.8336 35.8792 51.8719C35.9035 51.9118 35.922 51.9547 35.9341 51.9994C35.9463 52.0387 35.9498 52.0801 35.9443 52.1208L35.8346 52.7799C35.8234 52.8536 35.8057 52.9263 35.7816 52.9972C35.7623 53.0552 35.7296 53.1083 35.6859 53.1526C35.6395 53.1962 35.5829 53.2287 35.5207 53.2473C35.4379 53.2713 35.352 53.2838 35.2655 53.2843H35.2246L35.7708 53.8658H34.7665L34.0411 53.1059L34.1049 52.7223H34.9343C34.9726 52.7223 34.9981 52.6986 35.0039 52.6519L35.0441 52.4042C35.0469 52.388 35.0433 52.3713 35.0339 52.3575C35.031 52.3509 35.0262 52.3453 35.0201 52.3412C35.014 52.3371 35.0069 52.3348 34.9994 52.3344H33.9786L33.7234 53.8658C33.7068 53.8915 33.6851 53.914 33.6596 53.932C33.612 53.9686 33.5623 54.0028 33.5109 54.0346C33.451 54.0722 33.3833 54.1116 33.3132 54.1529C33.243 54.1942 33.1709 54.2318 33.1033 54.2652C33.0356 54.2986 32.9757 54.3259 32.9157 54.3484C32.8756 54.3666 32.8324 54.3779 32.7881 54.3817L33.2181 51.7305Z" fill="white"/>
<path d="M36.434 51.7305H39.0307L38.9324 52.3314H37.2002L37.1722 52.4977H38.4801L38.3786 53.0925H37.0682L37.0439 53.2594H38.778L38.6759 53.8604H36.0799L36.434 51.7305Z" fill="white"/>
<path d="M7.56725 55.3489C7.60594 55.35 7.64289 55.3645 7.67125 55.3895C7.7063 55.4181 7.73587 55.4522 7.75865 55.4903C7.78326 55.5304 7.80194 55.5735 7.81416 55.6184C7.82615 55.6578 7.82962 55.6991 7.82437 55.7398L7.75483 56.158C7.74917 56.1824 7.73734 56.2051 7.72037 56.2241C7.69917 56.251 7.67593 56.2764 7.65083 56.3C7.62531 56.3243 7.59915 56.3474 7.57363 56.3698C7.55338 56.387 7.53208 56.403 7.50983 56.4178C7.52068 56.4287 7.53535 56.4451 7.55449 56.4687C7.57363 56.4924 7.5915 56.5161 7.60936 56.5422C7.62602 56.5647 7.64115 56.5882 7.65466 56.6126C7.66556 56.6311 7.67044 56.6522 7.66869 56.6733L7.59915 57.0921C7.59138 57.1356 7.57398 57.1769 7.54811 57.2135C7.51935 57.2586 7.48602 57.3009 7.44858 57.3398C7.41268 57.3777 7.37221 57.4116 7.328 57.4405C7.29449 57.4649 7.25401 57.4791 7.21188 57.4812H4.7428L5.02799 55.7634C5.01418 55.7421 4.99861 55.7218 4.98141 55.7027C4.95525 55.6718 4.92782 55.636 4.89783 55.5959C4.86793 55.5557 4.84066 55.5137 4.81617 55.4703C4.7941 55.4325 4.779 55.3915 4.77151 55.3489H7.56725ZM6.76464 56.7176H5.92056L6.02264 56.1167H6.85843C6.87171 56.1124 6.88315 56.1041 6.89096 56.093C6.90126 56.0815 6.90945 56.0683 6.91521 56.0542L6.9235 56.0196C6.92604 56.0033 6.92242 55.9868 6.9133 55.9729C6.91019 55.9663 6.90529 55.9608 6.89911 55.9567C6.89293 55.9526 6.8857 55.9502 6.8782 55.9498H5.85739L5.70236 56.8803H6.72317C6.73131 56.8794 6.73917 56.8769 6.74621 56.873C6.75325 56.869 6.75932 56.8636 6.764 56.8572C6.77633 56.844 6.7847 56.8278 6.78825 56.8105L6.79654 56.7759C6.79728 56.7643 6.79471 56.7528 6.78909 56.7425C6.78347 56.7323 6.77502 56.7236 6.76464 56.7176Z" fill="url(#paint9_linear_687_4424)"/>
<path d="M8.48485 55.7634C8.47074 55.7421 8.45496 55.7218 8.43764 55.7027C8.41212 55.6718 8.38405 55.636 8.35406 55.5959C8.32437 55.5557 8.29731 55.5137 8.27303 55.4703C8.25079 55.4325 8.23547 55.3915 8.22773 55.3489H11.1504L11.0522 55.9498H9.31426L9.28619 56.1167H10.5941L10.4927 56.7134H9.18666L9.16241 56.8803H10.894L10.7925 57.4812H8.19647L8.48485 55.7634Z" fill="white"/>
<path d="M11.5709 55.3489H14.0406C14.0793 55.3501 14.1162 55.3646 14.1446 55.3895C14.1797 55.4181 14.2092 55.4522 14.232 55.4903C14.2564 55.5304 14.2749 55.5735 14.2869 55.6184C14.2992 55.6577 14.3026 55.6991 14.2971 55.7398L14.1874 56.3989C14.1761 56.4725 14.1584 56.5449 14.1344 56.6156C14.115 56.6735 14.0823 56.7266 14.0387 56.771C13.9923 56.8147 13.9357 56.8471 13.8735 56.8657C13.7908 56.8901 13.7048 56.9026 13.6183 56.9027H13.5774L14.1236 57.4842H13.1193L12.3939 56.7243L12.4577 56.3407H13.2871C13.3254 56.3407 13.3509 56.317 13.356 56.2709L13.3969 56.0226C13.3997 56.0064 13.3961 55.9897 13.3867 55.9759C13.3836 55.9695 13.3788 55.9639 13.3727 55.9599C13.3667 55.9558 13.3596 55.9534 13.3522 55.9528H12.3314L12.0762 57.4842C12.0588 57.5104 12.036 57.5329 12.0092 57.5504C11.9697 57.5813 11.9199 57.6153 11.8606 57.653C11.8012 57.6906 11.733 57.73 11.6628 57.7713C11.5926 57.8126 11.5205 57.8502 11.4529 57.8836C11.3852 57.917 11.3253 57.9443 11.2653 57.9674C11.2251 57.9853 11.1819 57.9963 11.1377 58.0002L11.5709 55.3489Z" fill="white"/>
<path d="M14.6498 57.4409C14.6147 57.4123 14.5851 57.3783 14.5624 57.3401C14.5382 57.3006 14.5197 57.2581 14.5075 57.2139C14.4954 57.1745 14.4919 57.1332 14.4973 57.0925L14.5611 56.7319H15.4166L15.4007 56.8132C15.3979 56.8295 15.4015 56.8462 15.4109 56.86C15.4138 56.8665 15.4185 56.8722 15.4246 56.8762C15.4307 56.8803 15.4379 56.8827 15.4454 56.8831H16.3137L14.7889 56.3872C14.7549 56.3653 14.7242 56.3392 14.6976 56.3095C14.6697 56.2803 14.6519 56.2436 14.6466 56.2045L14.7238 55.7359C14.7323 55.6926 14.7497 55.6514 14.7748 55.6145C14.8037 55.5687 14.8372 55.5258 14.875 55.4864C14.9105 55.4483 14.9508 55.4145 14.9949 55.3856C15.0285 55.3613 15.0689 55.3472 15.111 55.345H17.1546C17.1933 55.3461 17.2302 55.3606 17.2586 55.3856C17.2936 55.4142 17.3232 55.4482 17.346 55.4864C17.3706 55.5264 17.3891 55.5695 17.4008 55.6145C17.4134 55.6538 17.4169 55.6952 17.4111 55.7359L17.3543 56.0964H16.4981L16.5108 56.0145C16.5134 55.9984 16.5098 55.982 16.5006 55.9683C16.4976 55.9617 16.4928 55.9561 16.4866 55.952C16.4804 55.9479 16.4731 55.9456 16.4655 55.9453H15.5978L17.122 56.4412C17.157 56.4648 17.1891 56.4921 17.2177 56.5225C17.2435 56.5512 17.2597 56.5864 17.2643 56.6239L17.1871 57.0925C17.1791 57.1358 17.1617 57.1772 17.1361 57.2139C17.1069 57.2587 17.0736 57.3009 17.0365 57.3401C17.0006 57.3781 16.9602 57.4119 16.916 57.4409C16.8825 57.4652 16.842 57.4794 16.7998 57.4815H14.7538C14.7151 57.4803 14.6782 57.4658 14.6498 57.4409Z" fill="white"/>
<path d="M18.0693 55.7634C18.0555 55.7421 18.04 55.7218 18.0228 55.7027C17.9966 55.6718 17.9692 55.636 17.9392 55.5959C17.9093 55.5557 17.882 55.5137 17.8575 55.4703C17.8354 55.4325 17.8203 55.3915 17.8129 55.3489H20.7356L20.6379 55.9498H18.9051L18.8764 56.1167H20.185L20.0829 56.7134H18.775L18.7501 56.8803H20.4804L20.3789 57.4812H17.7822L18.0693 55.7634Z" fill="white"/>
<path d="M21.1587 55.3489H23.6284C23.6672 55.3499 23.7041 55.3644 23.7324 55.3895C23.7677 55.418 23.7975 55.4521 23.8205 55.4903C23.8449 55.5304 23.8634 55.5735 23.8753 55.6184C23.8873 55.6578 23.8908 55.6991 23.8856 55.7398L23.7752 56.3989C23.7639 56.4725 23.7462 56.5449 23.7222 56.6156C23.7031 56.6736 23.6704 56.7268 23.6265 56.771C23.5803 56.8148 23.5236 56.8473 23.4613 56.8657C23.3787 56.8902 23.2926 56.9027 23.2061 56.9027H23.1659L23.712 57.4842H22.7078L21.9824 56.7243L22.0462 56.3407H22.8756C22.9132 56.3407 22.9394 56.317 22.9445 56.2709L22.9853 56.0226C22.9879 56.0064 22.9842 55.9898 22.9751 55.9759C22.9721 55.9695 22.9673 55.9639 22.9612 55.9599C22.9551 55.9558 22.9481 55.9534 22.9407 55.9528H21.9199L21.6647 57.4842C21.6468 57.51 21.6241 57.5325 21.5977 57.5504C21.5498 57.587 21.5 57.6212 21.4484 57.653C21.389 57.6906 21.3208 57.73 21.2512 57.7713C21.1817 57.8126 21.109 57.8502 21.0413 57.8836C20.9737 57.917 20.9105 57.9443 20.8538 57.9674C20.8125 57.9855 20.7682 57.9965 20.723 58.0002L21.1587 55.3489Z" fill="white"/>
<path d="M26.1025 57.4812L25.5398 56.7134H25.238L25.1104 57.4812H24.2561L24.5413 55.7634C24.5272 55.7421 24.5114 55.7218 24.4941 55.7027C24.4686 55.6718 24.4405 55.636 24.4105 55.5959C24.3808 55.5557 24.3537 55.5137 24.3295 55.4703C24.3071 55.4326 24.292 55.3915 24.2848 55.3489H25.4664L25.3388 56.1167H25.5997L26.4151 55.3489H27.4174L26.2926 56.4147L27.0627 57.4812H26.1025Z" fill="white"/>
<path d="M27.9868 55.7634C27.9727 55.7421 27.9569 55.7218 27.9396 55.7027C27.9141 55.6718 27.886 55.636 27.856 55.5959C27.8261 55.5557 27.7989 55.5137 27.7744 55.4703C27.7526 55.4324 27.7375 55.3914 27.7297 55.3489H30.6518L30.5542 55.9498H28.822L28.7933 56.1167H30.1018L29.9997 56.7134H28.6918L28.6669 56.8803H30.3991L30.2977 57.4812H27.701L27.9868 55.7634Z" fill="white"/>
<path d="M31.0757 55.3489H33.5454C33.5843 55.35 33.6214 55.3645 33.65 55.3895C33.6849 55.4182 33.7145 55.4523 33.7374 55.4903C33.7618 55.5304 33.7803 55.5735 33.7923 55.6184C33.8046 55.6577 33.808 55.6991 33.8025 55.7398L33.6921 56.3989C33.6811 56.4724 33.6636 56.5449 33.6398 56.6156C33.6202 56.6736 33.5873 56.7267 33.5435 56.771C33.4974 56.8146 33.4409 56.8471 33.3789 56.8657C33.2962 56.8901 33.2102 56.9026 33.1237 56.9027H33.0828L33.629 57.4842H32.6248L31.9 56.7213L31.9638 56.3376H32.7932C32.8308 56.3376 32.8538 56.314 32.8621 56.2678L32.9029 56.0196C32.9055 56.0033 32.9018 55.9868 32.8927 55.9729C32.8897 55.9664 32.8849 55.9609 32.8788 55.9568C32.8727 55.9528 32.8657 55.9504 32.8583 55.9498H31.8362L31.581 57.4812C31.5632 57.507 31.5405 57.5295 31.514 57.5473C31.4744 57.5783 31.4247 57.6123 31.3653 57.6499C31.306 57.6876 31.2377 57.727 31.1676 57.7683C31.0974 57.8096 31.0253 57.8472 30.9576 57.8806C30.89 57.914 30.83 57.9413 30.7701 57.9643C30.7288 57.9824 30.6846 57.9935 30.6393 57.9971L31.0757 55.3489Z" fill="white"/>
<path d="M34.1547 57.4406C34.1202 57.4124 34.0911 57.3787 34.0685 57.3411C34.0441 57.3017 34.0256 57.2592 34.0137 57.2148C34.0012 57.1755 33.9977 57.1341 34.0035 57.0934L34.0641 56.7329H34.9203L34.9037 56.8142C34.9012 56.8305 34.9048 56.847 34.9139 56.861C34.9169 56.8676 34.9218 56.8732 34.928 56.8773C34.9342 56.8814 34.9415 56.8837 34.949 56.884H35.8167L34.2925 56.3881C34.2585 56.3661 34.2276 56.34 34.2006 56.3104C34.1731 56.281 34.1556 56.2444 34.1502 56.2054L34.2274 55.7368C34.2357 55.6935 34.253 55.6522 34.2784 55.6154C34.3073 55.5699 34.3406 55.527 34.378 55.4874C34.4139 55.4494 34.4544 55.4156 34.4986 55.3866C34.5321 55.3622 34.5725 55.3481 34.6147 55.3459H36.6608C36.6994 55.3472 36.7363 55.3616 36.7648 55.3866C36.7998 55.4151 36.8294 55.4492 36.8522 55.4874C36.8766 55.5275 36.895 55.5706 36.907 55.6154C36.9193 55.6548 36.9228 55.6961 36.9172 55.7368L36.8605 56.0974H36.003L36.0151 56.0154C36.018 55.9994 36.0143 55.9829 36.0049 55.9693C36.002 55.9628 35.9972 55.9572 35.9911 55.9531C35.985 55.9491 35.9779 55.9467 35.9704 55.9462H35.1021L36.6269 56.4421C36.6619 56.4658 36.694 56.4931 36.7227 56.5235C36.7484 56.5521 36.7646 56.5874 36.7692 56.6248L36.692 57.0934C36.684 57.1368 36.6666 57.1781 36.641 57.2148C36.6118 57.2598 36.5783 57.3021 36.5408 57.3411C36.5053 57.3792 36.465 57.413 36.4209 57.4418C36.3873 57.4662 36.3469 57.4803 36.3048 57.4825H34.2599C34.2206 57.4813 34.1832 57.4664 34.1547 57.4406Z" fill="white"/>
<path d="M39.3301 57.4812C39.3122 57.5072 39.2893 57.5296 39.2625 57.5473C39.2149 57.5841 39.1653 57.6184 39.1138 57.6499C39.0545 57.6876 38.9862 57.727 38.916 57.7683C38.8459 57.8096 38.7744 57.8472 38.7061 57.8806C38.6379 57.914 38.5785 57.9413 38.5192 57.9643C38.4789 57.9821 38.4358 57.9932 38.3916 57.9971L38.8318 55.3489H41.4279L41.3303 55.9498H39.5949L39.5662 56.1167H40.8747L40.7726 56.7134H39.4641L39.3365 57.4812H39.3301Z" fill="white"/>
<path d="M43.9635 57.4815H41.8153C41.7766 57.4804 41.7397 57.4659 41.7113 57.4409C41.6763 57.4123 41.6467 57.3783 41.6239 57.3401C41.5995 57.3007 41.581 57.2582 41.569 57.2139C41.5566 57.1745 41.5531 57.1332 41.5588 57.0925L41.7828 55.7359C41.791 55.6925 41.8084 55.6513 41.8338 55.6145C41.8626 55.5689 41.896 55.526 41.9333 55.4864C41.9692 55.4484 42.0097 55.4146 42.0539 55.3856C42.0874 55.3613 42.1279 55.3471 42.17 55.345H44.3176C44.3563 55.346 44.3933 55.3605 44.4216 55.3856C44.4566 55.4143 44.4864 55.4484 44.5096 55.4864C44.534 55.5265 44.5525 55.5696 44.5645 55.6145C44.5765 55.6539 44.5799 55.6952 44.5747 55.7359L44.5051 56.1662H43.6496L43.6738 56.0187C43.6764 56.0025 43.6727 55.9859 43.6636 55.972C43.6606 55.9656 43.6558 55.96 43.6497 55.956C43.6436 55.9519 43.6365 55.9495 43.6292 55.9489H42.6632C42.6546 55.9499 42.6464 55.9526 42.639 55.9569C42.6316 55.9612 42.6253 55.967 42.6205 55.9738C42.608 55.9866 42.5988 56.002 42.5937 56.0187L42.4591 56.8078C42.4565 56.824 42.4601 56.8406 42.4693 56.8545C42.4729 56.8614 42.4785 56.8672 42.4853 56.8713C42.4922 56.8753 42.5001 56.8775 42.5082 56.8776H43.4741C43.4823 56.8768 43.4901 56.8743 43.4972 56.8703C43.5042 56.8663 43.5103 56.8609 43.515 56.8545C43.5273 56.8413 43.5357 56.8251 43.5392 56.8078L43.5641 56.6603H44.4196L44.3507 57.0906C44.3424 57.1339 44.325 57.1752 44.2997 57.212C44.2705 57.257 44.237 57.2993 44.1995 57.3383C44.164 57.3764 44.1237 57.4102 44.0796 57.439C44.0463 57.464 44.0058 57.4788 43.9635 57.4815Z" fill="white"/>
<defs>
<linearGradient id="paint0_linear_687_4424" x1="35.1295" y1="41.7296" x2="15.298" y2="5.62517" gradientUnits="userSpaceOnUse">
<stop offset="0.01" stop-color="#424343"/>
<stop offset="0.29" stop-color="#182D25"/>
<stop offset="0.43" stop-color="#0E1A15"/>
<stop offset="0.6" stop-color="#040706"/>
<stop offset="0.73" stop-color="#010101"/>
<stop offset="0.86" stop-color="#010101"/>
<stop offset="1" stop-color="#181818"/>
</linearGradient>
<linearGradient id="paint1_linear_687_4424" x1="0.75373" y1="28.5284" x2="48.2444" y2="28.5284" gradientUnits="userSpaceOnUse">
<stop offset="0.02" stop-color="#8C8C8C"/>
<stop offset="0.05" stop-color="#9B9B9B"/>
<stop offset="0.1" stop-color="#B9BAB9"/>
<stop offset="0.16" stop-color="#CFCFCF"/>
<stop offset="0.22" stop-color="#DCDDDC"/>
<stop offset="0.27" stop-color="#E0E1E0"/>
<stop offset="0.4" stop-color="#BBBCBB"/>
<stop offset="0.54" stop-color="#939393"/>
<stop offset="0.58" stop-color="#878888"/>
<stop offset="0.67" stop-color="#747575"/>
<stop offset="0.73" stop-color="#6D6E6E"/>
<stop offset="0.9" stop-color="#6F7070"/>
<stop offset="0.96" stop-color="#767676"/>
<stop offset="1" stop-color="#7E7E7E"/>
</linearGradient>
<linearGradient id="paint2_linear_687_4424" x1="8.74896" y1="25.3569" x2="40.3194" y2="25.3569" gradientUnits="userSpaceOnUse">
<stop offset="0.02" stop-color="#8C8C8C"/>
<stop offset="0.05" stop-color="#9B9B9B"/>
<stop offset="0.1" stop-color="#B9BAB9"/>
<stop offset="0.16" stop-color="#CFCFCF"/>
<stop offset="0.22" stop-color="#DCDDDC"/>
<stop offset="0.27" stop-color="#E0E1E0"/>
<stop offset="0.4" stop-color="#BBBCBB"/>
<stop offset="0.54" stop-color="#939393"/>
<stop offset="0.58" stop-color="#878888"/>
<stop offset="0.67" stop-color="#747575"/>
<stop offset="0.73" stop-color="#6D6E6E"/>
<stop offset="0.9" stop-color="#6F7070"/>
<stop offset="0.96" stop-color="#767676"/>
<stop offset="1" stop-color="#7E7E7E"/>
</linearGradient>
<linearGradient id="paint3_linear_687_4424" x1="24.5326" y1="12.7018" x2="24.5326" y2="45.1041" gradientUnits="userSpaceOnUse">
<stop offset="0.02" stop-color="#8C8C8C"/>
<stop offset="0.05" stop-color="#9B9B9B"/>
<stop offset="0.1" stop-color="#B9BAB9"/>
<stop offset="0.16" stop-color="#CFCFCF"/>
<stop offset="0.22" stop-color="#DCDDDC"/>
<stop offset="0.27" stop-color="#E0E1E0"/>
<stop offset="0.4" stop-color="#BBBCBB"/>
<stop offset="0.54" stop-color="#939393"/>
<stop offset="0.58" stop-color="#878888"/>
<stop offset="0.67" stop-color="#747575"/>
<stop offset="0.73" stop-color="#6D6E6E"/>
<stop offset="0.9" stop-color="#6F7070"/>
<stop offset="0.96" stop-color="#767676"/>
<stop offset="1" stop-color="#7E7E7E"/>
</linearGradient>
<linearGradient id="paint4_linear_687_4424" x1="16.9041" y1="16.2389" x2="32.1531" y2="16.2389" gradientUnits="userSpaceOnUse">
<stop offset="0.02" stop-color="#8C8C8C"/>
<stop offset="0.05" stop-color="#9B9B9B"/>
<stop offset="0.1" stop-color="#B9BAB9"/>
<stop offset="0.16" stop-color="#CFCFCF"/>
<stop offset="0.22" stop-color="#DCDDDC"/>
<stop offset="0.27" stop-color="#E0E1E0"/>
<stop offset="0.4" stop-color="#BBBCBB"/>
<stop offset="0.54" stop-color="#939393"/>
<stop offset="0.58" stop-color="#878888"/>
<stop offset="0.67" stop-color="#747575"/>
<stop offset="0.73" stop-color="#6D6E6E"/>
<stop offset="0.9" stop-color="#6F7070"/>
<stop offset="0.96" stop-color="#767676"/>
<stop offset="1" stop-color="#7E7E7E"/>
</linearGradient>
<linearGradient id="paint5_linear_687_4424" x1="23.4291" y1="6.21663" x2="25.8376" y2="6.21663" gradientUnits="userSpaceOnUse">
<stop offset="0.01" stop-color="#424343"/>
<stop offset="0.29" stop-color="#182D25"/>
<stop offset="0.43" stop-color="#0E1A15"/>
<stop offset="0.6" stop-color="#040706"/>
<stop offset="0.73" stop-color="#010101"/>
<stop offset="0.86" stop-color="#010101"/>
<stop offset="1" stop-color="#181818"/>
</linearGradient>
<linearGradient id="paint6_linear_687_4424" x1="21.5498" y1="14.5125" x2="27.4533" y2="14.5125" gradientUnits="userSpaceOnUse">
<stop offset="0.01" stop-color="#424343"/>
<stop offset="0.29" stop-color="#182D25"/>
<stop offset="0.43" stop-color="#0E1A15"/>
<stop offset="0.6" stop-color="#040706"/>
<stop offset="0.73" stop-color="#010101"/>
<stop offset="0.86" stop-color="#010101"/>
<stop offset="1" stop-color="#181818"/>
</linearGradient>
<linearGradient id="paint7_linear_687_4424" x1="24.5296" y1="18.4283" x2="24.5296" y2="0.120717" gradientUnits="userSpaceOnUse">
<stop offset="0.01" stop-color="#424343"/>
<stop offset="0.29" stop-color="#182D25"/>
<stop offset="0.43" stop-color="#0E1A15"/>
<stop offset="0.6" stop-color="#040706"/>
<stop offset="0.73" stop-color="#010101"/>
<stop offset="0.86" stop-color="#010101"/>
<stop offset="1" stop-color="#181818"/>
</linearGradient>
<linearGradient id="paint8_linear_687_4424" x1="18.789" y1="9.28917" x2="30.2692" y2="9.28917" gradientUnits="userSpaceOnUse">
<stop offset="0.02" stop-color="#8C8C8C"/>
<stop offset="0.05" stop-color="#9B9B9B"/>
<stop offset="0.1" stop-color="#B9BAB9"/>
<stop offset="0.16" stop-color="#CFCFCF"/>
<stop offset="0.22" stop-color="#DCDDDC"/>
<stop offset="0.27" stop-color="#E0E1E0"/>
<stop offset="0.4" stop-color="#BBBCBB"/>
<stop offset="0.54" stop-color="#939393"/>
<stop offset="0.58" stop-color="#878888"/>
<stop offset="0.67" stop-color="#747575"/>
<stop offset="0.73" stop-color="#6D6E6E"/>
<stop offset="0.9" stop-color="#6F7070"/>
<stop offset="0.96" stop-color="#767676"/>
<stop offset="1" stop-color="#7E7E7E"/>
</linearGradient>
<linearGradient id="paint9_linear_687_4424" x1="36.6087" y1="48.0658" x2="17.8296" y2="62.2499" gradientUnits="userSpaceOnUse">
<stop offset="0.01" stop-color="white"/>
<stop offset="0.29" stop-color="white"/>
<stop offset="0.43" stop-color="white"/>
<stop offset="0.6" stop-color="white"/>
<stop offset="0.73" stop-color="white"/>
<stop offset="0.86" stop-color="white"/>
<stop offset="1" stop-color="white"/>
</linearGradient>
</defs>
</svg>
