<svg width="114" height="114" viewBox="0 0 114 114" fill="none" xmlns="http://www.w3.org/2000/svg">
<path d="M31.3433 22.0451V74.3439L56.582 86.4362L81.4553 74.1618L81.8196 22.4094L56.673 14.0269L31.3433 22.0451Z" fill="url(#paint0_linear_2162_12665)"/>
<path d="M41.4801 79.1363L31.9325 74.2845L31.4583 59.5679C31.4583 59.5679 24.9548 55.1118 22.3054 60.3708C22.3054 60.3708 24.8752 56.3564 30.3341 63.5823L29.8526 63.4211C29.8526 63.4211 25.3567 61.495 23.751 62.1367C22.1452 62.7784 19.7366 66.9518 17.9707 64.5443C17.9707 64.5443 20.8608 71.767 25.0354 69.5217C29.2099 67.2763 30.0128 68.0771 30.0128 68.0771C30.0128 68.0771 25.0354 70.0042 24.714 73.6972C24.3926 77.3902 24.2325 78.6746 21.5025 79.1561C21.5025 79.1561 26.527 82.5979 28.7043 80.2469C28.7284 80.2846 28.742 80.3212 28.7671 80.3589C28.7671 80.3589 28.743 80.3128 28.7127 80.2354C28.8398 80.1019 28.9528 79.9556 29.0497 79.7989C29.5378 78.9899 29.9495 78.1373 30.2797 77.2521C31.0574 76.848 32.1639 76.4921 33.7571 76.2608L33.4786 76.5193C33.4786 76.5193 30.6 78.7688 30.443 80.0501C30.286 81.3313 32.1524 84.4099 29.9405 84.6998C29.9405 84.6998 35.7093 85.4075 35.7396 81.8662C35.77 78.325 36.5833 78.0895 36.5833 78.0895C36.5833 78.0895 36.0547 82.04 38.3566 83.5788C40.6584 85.1175 41.4404 85.6838 40.7746 87.6444C40.7746 87.6444 45.3176 85.352 43.9086 82.9339C42.4997 80.5159 41.276 80.2573 41.4801 79.1363ZM25.0354 44.9581C29.2099 42.7097 30.0128 43.5125 30.0128 43.5125C30.0128 43.5125 25.0354 45.4396 24.714 49.1327C24.3926 52.8257 24.2325 54.1111 21.5025 54.5926C21.5025 54.5926 27.1226 58.4458 29.0497 55.2343C30.9768 52.0228 30.4953 50.4191 31.9399 49.9355L31.4583 35.0033C31.4583 35.0033 25.1955 30.5022 27.444 24.0845C27.444 24.0845 22.9429 29.3832 28.407 36.6091L29.8526 38.8565C29.8526 38.8565 25.3567 36.9294 23.751 37.5721C22.1452 38.2148 19.7366 42.3873 17.9707 39.9797C17.9707 39.9807 20.8608 47.2097 25.0354 44.9581ZM89.2998 62.1388C87.694 61.4971 83.1981 63.4232 83.1981 63.4232L82.7166 63.5844C88.1755 56.3617 90.7453 60.3729 90.7453 60.3729C88.096 55.1139 81.5924 59.57 81.5924 59.57L81.1182 74.2866L71.5706 79.1363C71.7747 80.2553 70.5511 80.518 69.1421 82.9339C67.7331 85.3499 72.2761 87.6444 72.2761 87.6444C71.6104 85.6838 72.3934 85.1175 74.6942 83.5788C76.995 82.04 76.4674 78.0895 76.4674 78.0895C76.4674 78.0895 77.2807 78.3261 77.3111 81.8673C77.3414 85.4085 83.1133 84.7009 83.1133 84.7009C80.9015 84.4109 82.7679 81.3334 82.6109 80.0511C82.4539 78.7688 79.5753 76.5204 79.5753 76.5204L79.2968 76.2629C80.89 76.4942 81.9964 76.8501 82.7742 77.2542C83.1043 78.1397 83.516 78.9927 84.0042 79.802C84.1011 79.9588 84.2141 80.1051 84.3412 80.2385C84.3109 80.316 84.2868 80.362 84.2868 80.362C84.3119 80.3243 84.3255 80.2877 84.3496 80.25C86.5227 82.6011 91.5514 79.1593 91.5514 79.1593C88.8214 78.6778 88.6602 77.3934 88.3399 73.7004C88.0196 70.0074 83.0411 68.0803 83.0411 68.0803C83.0411 68.0803 83.844 67.2774 88.0185 69.5248C92.193 71.7722 95.0832 64.5474 95.0832 64.5474C93.3141 66.956 90.9055 62.7815 89.2998 62.1388ZM84.001 55.2301C85.9281 58.4416 91.5482 54.5884 91.5482 54.5884C88.8182 54.1069 88.657 52.8215 88.3367 49.1285C88.0164 45.4355 83.038 43.5084 83.038 43.5084C83.038 43.5084 83.8461 42.7086 88.0154 44.9581C92.1847 47.2076 95.08 39.9807 95.08 39.9807C93.3141 42.3883 90.9055 38.2138 89.2998 37.5732C87.694 36.9325 83.1981 38.8576 83.1981 38.8576L84.6437 36.6101C90.1026 29.3874 85.6068 24.0855 85.6068 24.0855C87.8552 30.5075 81.5924 35.0044 81.5924 35.0044L81.1109 49.9313C82.5554 50.417 82.0739 52.0249 84.001 55.2343V55.2301Z" fill="#231F20" stroke="url(#paint1_linear_2162_12665)" stroke-width="0.263873" stroke-miterlimit="10"/>
<path d="M56.5861 87.1679L30.6848 74.7584V21.5636L56.6782 13.335L82.4853 21.9352L82.1116 74.5721L56.5861 87.1679ZM32.0017 73.9283L56.5777 85.7035L80.8 73.7504L81.158 22.8826L56.6636 14.7177L32.0017 22.5267V73.9283Z" fill="url(#paint2_linear_2162_12665)"/>
<path d="M56.5757 55.5893V56.5597L58.7394 58.6532L59.2261 58.3601L59.1769 58.0461L56.5757 55.5893ZM77.3698 40.2123C78.045 38.6337 78.3799 36.9788 78.2648 35.4254C78.068 32.7645 75.2051 28.9961 73.7773 28.4926C73.3115 28.3272 73.0445 28.5125 72.9283 28.6371C72.7671 28.8077 72.652 29.0851 72.7441 29.6765L72.966 30.5882L72.9744 30.5652C73.0791 30.8709 73.2005 31.2121 73.3764 31.6266C75.495 36.6155 70.1963 40.1986 68.5214 41.1774L68.3875 41.2559L68.2273 41.7971C68.2095 41.9373 67.8358 45.2514 71.1656 46.4269L71.6743 46.6017L71.8303 46.5138C73.8307 45.3781 75.5243 43.6038 76.6747 41.6024L76.748 74.0868L70.794 76.8869V64.3571H70.6663C71.5236 63.6631 72.4217 63.0863 73.3387 62.7178L73.5889 62.6131V60.7269L70.7971 57.8106L70.2224 49.227L69.9084 48.7183C69.1757 48.3708 65.5486 46.4081 65.737 41.8829C65.737 41.7657 65.7527 41.6516 65.759 41.5354C62.7318 38.7154 56.5746 38.6463 56.5746 38.6463C56.5746 38.6463 50.4175 38.7154 47.3903 41.5354C47.3966 41.6516 47.407 41.7657 47.4123 41.8829C47.6007 46.4081 43.9694 48.3729 43.2398 48.7183L42.9258 49.227L42.3501 57.8106L39.5678 60.7269V62.6173L39.8169 62.722C40.7349 63.0905 41.633 63.6641 42.4893 64.3613H42.3616V76.8911L36.4076 74.091L36.4808 41.6066C37.6323 43.608 39.3249 45.3823 41.3263 46.518L41.4823 46.6059L41.991 46.4311C45.3208 45.2556 44.9461 41.9415 44.9147 41.7332L44.7681 41.2601L44.6352 41.1816C42.9603 40.2028 37.6605 36.6197 39.7792 31.6308C39.9561 31.2121 40.0807 30.8751 40.1822 30.5694L40.1895 30.5924L40.4052 29.6765C40.4983 29.0851 40.3821 28.8077 40.222 28.6371C40.1037 28.5125 39.8389 28.323 39.3731 28.4926C37.9453 28.9982 35.0813 32.7592 34.8856 35.4254C34.7704 36.9798 35.6811 40.2123 35.6811 40.2123L35.6036 74.5924L56.2627 84.3075L77.5457 74.5924L77.4692 40.2123H77.3698ZM35.6811 35.4861C35.8789 32.8105 38.8748 29.4619 39.6442 29.2379C39.6609 29.4106 39.6274 29.9382 39.0412 31.3168C36.7216 36.7768 42.1533 40.6257 44.0971 41.7845L44.1327 41.8892C44.1453 41.9865 44.3588 43.9408 42.7594 45.1216C42.5636 44.9824 42.37 44.8358 42.1774 44.6893C42.6128 44.3868 43.1896 43.8644 43.4586 43.0804L42.7081 42.8292C42.4652 43.5368 41.8508 43.9806 41.5252 44.1722C41.3483 44.0267 41.1746 43.878 41.0018 43.7273C41.3661 43.5368 41.8204 43.1589 42.0852 42.3895L41.3305 42.132C41.0259 43.0218 40.3884 43.1233 40.3633 43.1265V43.1505C40.1707 42.9684 39.9791 42.7852 39.7928 42.5978C38.8696 41.6557 38.0133 40.6299 37.3758 39.4806C36.7383 38.3312 36.3228 37.0458 36.4536 35.7216C36.5698 34.4037 37.0157 33.112 37.6532 31.9365C36.9508 33.0785 36.4327 34.3493 36.2411 35.6954C36.0234 37.0562 36.3919 38.46 37.0074 39.6732C37.6166 40.901 38.4456 41.998 39.349 43.0124C40.1759 43.925 41.073 44.7716 42.0319 45.5445C41.9272 45.5895 41.8319 45.6366 41.7178 45.6753L41.5566 45.7308C37.9233 43.5881 35.4048 39.2147 35.6811 35.4861ZM49.2818 80.1445L43.153 77.2617V64.9297C46.2158 67.69 48.6307 71.7556 49.2818 72.905V80.1445ZM40.3591 62.0835V61.0472L42.5081 58.8008L42.5019 58.9589L41.4697 60.8179C41.4697 60.8179 48.4758 65.4488 50.7504 71.3087L51.8432 71.4594L51.8213 72.637H50.047C49.3027 71.2856 45.2109 64.2189 40.3591 62.0835ZM63.074 80.5192L56.9735 83.3863V64.6177C57.7378 64.6503 58.4948 64.7804 59.2261 65.005V61.4156L64.2046 57.1626C65.4534 56.1158 66.0699 54.5656 65.7496 53.0551C65.3466 51.1625 63.5252 50.7365 58.1249 51.3572L56.5757 49.5306V50.8024L58.3008 52.4773L58.4096 53.1765L56.5736 51.4399V52.1297L58.5447 54.039L58.6556 54.7456L56.5736 52.7766V53.5094L58.8001 55.6657L58.9226 56.4466L58.911 56.3723L56.5736 54.1615V54.9361L59.0649 57.3489L59.224 58.3654L58.3447 58.894L56.5736 57.2191V58.1895L57.701 59.2813L57.2927 59.5262L56.5736 58.8458V59.9585L53.9221 58.3654L55.0233 51.3604C49.6241 50.7396 47.8006 51.1657 47.3997 53.0582C47.0794 54.5687 47.6949 56.1179 48.9437 57.1657L53.9221 61.4188V65.005C54.6536 64.7816 55.4106 64.6525 56.1748 64.6209V83.3863L50.0773 80.5192V73.4336H52.6691V71.5997L52.6608 71.5777H52.6723L52.6629 61.6177L47.921 57.6399C46.5037 56.4519 45.8055 54.6954 46.1687 52.9818C46.6659 50.6402 49.0651 48.1489 56.5736 49.5327C64.0821 48.1489 66.4802 50.6402 66.9775 52.9818C67.3417 54.6954 66.6425 56.4519 65.2262 57.6399L60.4833 61.6177V71.5777L60.4749 71.5986V73.4378H63.0678L63.074 80.5192ZM61.3312 72.637L61.3102 71.4604L62.4031 71.3087C63.5796 66.3951 71.6806 60.8179 71.6806 60.8179L70.6495 58.9589L70.6432 58.8008L72.7923 61.0472V62.0835C67.9405 64.2189 63.8528 71.2856 63.1044 72.637H61.3312ZM69.9995 77.2617L63.8706 80.1445V72.905C64.5217 71.7535 66.9377 67.69 69.9995 64.9297V77.2617ZM71.5937 45.7308L71.4325 45.6753C71.3216 45.6366 71.2232 45.5895 71.1185 45.5445C72.0762 44.7718 72.9718 43.9251 73.7972 43.0124C74.7005 41.998 75.5306 40.901 76.1398 39.6732C76.7543 38.4631 77.1238 37.0562 76.9061 35.6954C76.7135 34.3461 76.1932 33.0785 75.494 31.9333C76.1315 33.1089 76.5774 34.4006 76.6936 35.7185C76.8286 37.0426 76.4183 38.3354 75.7724 39.4774C75.1266 40.6194 74.2797 41.6516 73.3565 42.5947C73.1701 42.7821 72.9786 42.9653 72.786 43.1474V43.1233C72.7588 43.1233 72.1234 43.0186 71.8188 42.1289L71.0756 42.3948C71.3393 43.1641 71.7947 43.5462 72.159 43.7325C71.9852 43.8843 71.8114 44.0319 71.6356 44.1785C71.3111 43.9869 70.6935 43.5504 70.4527 42.8344L69.6991 43.0919C69.9681 43.8759 70.5449 44.3983 70.9803 44.7008C70.7867 44.8474 70.593 44.9939 70.3973 45.1331C68.7978 43.9545 69.0092 42.0085 69.0092 41.9687L69.0647 41.7918C71.0117 40.6247 76.434 36.7767 74.1154 31.3241C73.5302 29.9455 73.4967 29.418 73.5135 29.2452C74.2829 29.4692 77.2819 32.8179 77.4766 35.4934C77.7456 39.2147 75.2281 43.5881 71.5916 45.7308H71.5937ZM42.1187 46.8027C42.0277 46.8352 41.9418 46.8634 41.8529 46.8938L41.7063 47.4067L42.6484 48.1531L42.6913 48.0829L42.8128 48.0337C42.975 47.9667 46.7999 46.3453 46.6146 41.9122C46.6146 41.8494 46.6062 41.7887 46.6031 41.7259L45.8871 41.4307L45.2946 41.6547L45.302 41.6788C45.325 41.7814 45.7667 45.5152 42.1187 46.8027ZM67.8536 41.6547L67.2622 41.4307L66.5462 41.7259C66.5462 41.7887 66.5368 41.8494 66.5336 41.9122C66.3494 46.3453 70.1732 47.9667 70.3365 48.0337L70.458 48.0829L70.5009 48.1531L71.443 47.4067L71.2975 46.8938C71.2085 46.8634 71.1227 46.8352 71.0316 46.8027C67.3836 45.5152 67.8264 41.7782 67.8452 41.6788L67.8536 41.6547Z" fill="url(#paint3_linear_2162_12665)"/>
<path d="M64.5854 35.3811L65.5599 37.37L66.5355 35.3811L68.629 35.1435L67.1353 33.5273L67.4566 31.5332L65.5578 32.3811L63.66 31.5332L63.9803 33.5273L62.4918 35.1477L64.5854 35.3811ZM44.5229 35.1435L46.6165 35.3811L47.591 37.37L48.5698 35.3811L50.6633 35.1435L49.1696 33.5273L49.4909 31.5332L47.5921 32.3811L45.6943 31.5332L46.0146 33.5273L44.5229 35.1435Z" fill="#010101"/>
<path d="M47.592 37.879L46.4762 35.5908L44.0686 35.3176L45.7843 33.4606L45.4158 31.1724L47.5952 32.1448L49.7746 31.1724L49.4071 33.4606L51.1217 35.3176L48.7142 35.5908L47.592 37.879ZM44.9751 34.9784L46.7609 35.1815L47.591 36.8794L48.4221 35.1815L50.2016 34.9784L48.9361 33.6019L49.2093 31.9041L47.592 32.6263L45.9758 31.9041L46.249 33.6019L44.9751 34.9784ZM65.5567 37.879L64.4388 35.5908L62.0312 35.3176L63.7479 33.4606L63.3794 31.1724L65.5588 32.1448L67.7382 31.1724L67.3708 33.4606L69.0864 35.3176L66.6789 35.5908L65.5567 37.879ZM62.9398 34.9784L64.7256 35.1815L65.5557 36.8794L66.3868 35.1815L68.1663 34.9784L66.9018 33.6019L67.175 31.9041L65.5578 32.6263L63.9415 31.9041L64.2137 33.6019L62.9398 34.9784Z" fill="url(#paint4_linear_2162_12665)"/>
<path d="M58.7204 11.0955H54.7688V23.3908H58.7204V11.0955Z" fill="url(#paint5_linear_2162_12665)"/>
<path d="M60.2583 38.1026C57.8801 37.5043 55.3907 37.5043 53.0125 38.1026C55.0632 31.2012 54.3953 28.6963 53.2324 27.7835C52.7697 27.4213 51.5774 26.7985 51.6957 26.2468C51.7763 25.8679 52.4421 25.6847 53.0125 25.5884C54.7815 25.0086 56.6631 24.8579 58.5018 25.1488C59.0982 25.2476 59.6857 25.3946 60.2583 25.5884C60.6969 25.7402 61.2506 26.0071 61.3553 26.4666C61.4882 27.0487 60.8319 27.6485 60.6969 27.7835C59.9317 28.5497 59.401 30.9897 60.2583 38.1026Z" fill="url(#paint6_linear_2162_12665)"/>
<path d="M48.0398 29.7283C48.4583 29.8465 48.9028 29.8344 49.3143 29.6936C49.7257 29.5528 50.0844 29.2899 50.3427 28.9401C50.7436 28.4 51.2994 27.8232 51.984 27.5186L52.8382 28.7108L52.7827 38.2982C54.0305 38.0361 55.2988 37.8831 56.5731 37.8408H56.6882L56.7374 30.3532C57.4011 29.7377 58.9451 27.4453 59.974 27.3731L59.3072 28.2754C59.2408 28.364 59.2041 28.4714 59.2026 28.5821L59.1471 38.0753C59.4789 38.1255 59.8285 38.1862 60.1939 38.2595L60.2315 31.713V30.9426L60.2431 29.0155L61.0386 27.7059L61.0061 27.7279L61.1108 27.5793C61.1108 27.5793 61.5369 27.6902 62.2455 28.445C62.2801 28.4806 62.3115 28.5151 62.3439 28.5496C62.4999 28.7234 62.6642 28.916 62.8453 29.1568L63.3425 29.5859C63.5904 29.7425 63.868 29.846 64.1579 29.89C64.4478 29.934 64.7436 29.9174 65.0268 29.8414C65.0268 29.8414 63.8146 28.6993 64.3485 27.0465C64.8823 25.3936 65.7177 25.3853 65.7606 24.7028C65.7794 24.395 65.1974 23.7607 64.8949 23.8245C64.2993 23.9397 64.5306 24.6944 62.9657 25.29C60.9549 26.0615 58.7001 24.3008 58.7001 24.3008L58.7451 23.0897L58.8613 23.1274L58.9283 21.2997L58.8289 21.3541L58.8404 21.0296L58.9555 21.0841L59.0173 19.2606L58.9032 19.1873L58.9252 18.5823L59.0445 18.5258L59.1199 16.5003L59.0047 16.4259L59.0236 15.9224L59.1439 15.8439L59.2486 12.9548L59.1282 13.0334L59.1429 12.6304L59.6663 10.7922C60.2315 8.80964 58.7996 6.75378 56.7353 6.72656H56.6558C54.5936 6.72656 53.1323 8.76044 53.6704 10.7503L54.1686 12.5958L54.4429 24.2851C54.4429 24.2851 52.163 26.0133 50.1637 25.2146C48.6082 24.5928 48.849 23.8423 48.2554 23.7188C47.954 23.656 47.3625 24.2767 47.3782 24.5845C47.4107 25.268 48.245 25.2879 48.7568 26.9481C49.2687 28.6083 48.0398 29.7283 48.0398 29.7283ZM56.4213 12.8627C57.1193 12.8728 57.8142 12.9581 58.4939 13.1171L58.4813 13.4615L56.4569 14.7846L58.3871 16.0292L58.3746 16.3485L56.4401 17.6046L58.2845 18.7885V18.8932L56.3124 19.8353L58.2165 20.7345L58.1861 21.5604L56.0926 22.2387L58.138 22.9013L58.1087 23.6769L55.0731 23.656L55.049 22.5789L56.0957 22.2387L55.0322 21.8943L54.9998 20.4633L56.3166 19.8353L54.9705 19.1999L54.9558 18.5802L56.4475 17.6098L54.9119 16.6238L54.893 15.8136L56.4632 14.7867L54.8449 13.7399L54.8292 13.0522C55.3489 12.9174 55.8845 12.8536 56.4213 12.8627ZM54.6543 25.201L55.7932 25.6773C56.2921 25.8863 56.8534 25.8901 57.355 25.6878L58.4897 25.2272C58.4897 25.2272 60.4859 26.5482 62.5376 26.2583L61.0983 26.7398L59.4978 26.4676C59.2189 26.4204 58.9332 26.4312 58.6587 26.4995C58.3842 26.5678 58.1268 26.692 57.9025 26.8643L57.8229 26.9261C57.46 27.2048 57.0145 27.3544 56.5569 27.3511C56.0994 27.3479 55.656 27.1921 55.2971 26.9083L55.2186 26.8455C54.9968 26.67 54.7412 26.5422 54.4678 26.4701C54.1944 26.3981 53.909 26.3833 53.6296 26.4268L52.0249 26.678L52.0123 26.6906L50.5929 26.1756C52.6393 26.4948 54.6543 25.201 54.6543 25.201Z" fill="url(#paint7_linear_2162_12665)"/>
<path d="M52.5648 38.5736L52.6213 28.7863L51.9158 27.8023C51.4332 28.0577 50.9538 28.4953 50.5215 29.0763C50.2378 29.4642 49.8418 29.7556 49.387 29.911C48.9322 30.0664 48.4407 30.0783 47.9789 29.9451L47.601 29.8404L47.8899 29.5745C47.936 29.5326 49.0089 28.5183 48.5463 27.0162C48.271 26.1223 47.9098 25.7433 47.6188 25.4387C47.3812 25.1896 47.1771 24.975 47.1582 24.6013C47.1446 24.3239 47.3979 23.9795 47.6544 23.7639C47.8188 23.6236 48.0658 23.4656 48.3003 23.5137C48.6248 23.5818 48.7671 23.789 48.9179 24.0078C49.122 24.3051 49.3763 24.6735 50.2452 25.0211C51.8896 25.6784 53.7895 24.4799 54.2229 24.1836L53.9591 12.642L53.4682 10.8227C53.3277 10.31 53.3083 9.77172 53.4117 9.25031C53.5151 8.72891 53.7383 8.2387 54.0638 7.81843C54.3669 7.41619 54.7592 7.08972 55.2099 6.86469C55.6605 6.63965 56.1571 6.52217 56.6608 6.52148H56.7477C57.252 6.52825 57.7478 6.65215 58.1959 6.88341C58.6441 7.11467 59.0324 7.44695 59.3301 7.85402C59.6493 8.27885 59.8654 8.772 59.9615 9.29461C60.0576 9.81722 60.031 10.355 59.8838 10.8656L59.3824 12.6221L59.4871 12.553L59.3604 15.9801L59.2411 16.0576L59.2306 16.3234L59.3458 16.3967L59.261 18.6797L59.1417 18.7373L59.1291 19.0838L59.2443 19.1571L59.0851 23.4488L58.969 23.4111L58.9396 24.2161C59.3667 24.5176 61.2488 25.7412 62.9027 25.109C63.7768 24.774 64.0353 24.4077 64.2436 24.1146C64.3975 23.8968 64.543 23.6959 64.8717 23.6289C65.1083 23.5828 65.3511 23.744 65.5144 23.8874C65.7677 24.1104 66.0158 24.4589 65.998 24.7363C65.975 25.1132 65.7667 25.3246 65.5259 25.5738C65.2307 25.8742 64.8644 26.2479 64.5765 27.1376C64.0929 28.6335 65.1512 29.6624 65.1962 29.7054L65.4799 29.9744L65.103 30.0791C64.7906 30.1619 64.4644 30.1796 64.1448 30.1311C63.8252 30.0827 63.5189 29.9691 63.245 29.7975L63.2178 29.7765L62.6881 29.3139C62.5343 29.1045 62.3835 28.9266 62.1993 28.7214L62.1061 28.6167C61.8496 28.326 61.5495 28.0771 61.2164 27.8787L60.4753 29.0982L60.4208 38.5474L60.1591 38.4951C59.8137 38.425 59.4662 38.3643 59.1249 38.313L58.9365 38.2847L58.993 28.601C58.9944 28.4437 59.0457 28.2908 59.1396 28.1645L59.2903 27.9604C58.7355 28.3917 58.1137 29.1328 57.6521 29.6834C57.3852 29.9974 57.1507 30.28 56.9644 30.4664L56.9152 38.0858L56.576 38.0774C55.3172 38.1181 54.0642 38.2666 52.8307 38.5213L52.5648 38.5736ZM52.0603 27.2486L53.061 28.646L53.0065 38.0335C54.1501 37.81 55.3092 37.6746 56.4735 37.6284L56.5206 30.2643L56.5907 30.1994C56.8441 29.9415 57.0841 29.6707 57.3098 29.3882C58.12 28.422 59.1291 27.2203 59.9613 27.1607L60.4365 27.1272L59.4871 28.4136C59.4483 28.4649 59.4274 28.5274 59.4274 28.5916L59.373 37.8932C59.574 37.9246 59.7771 37.9602 59.9791 37.9979L60.0325 28.958L60.3371 28.4566L60.0764 28.6335L61.0363 27.3334L61.163 27.3669L61.7576 26.9639L61.4435 27.4873C61.8091 27.7068 62.1391 27.9807 62.4223 28.2996C62.4547 28.333 62.4851 28.3676 62.5175 28.4042C62.7091 28.6136 62.8682 28.8083 63.0231 29.0135L63.4889 29.4165C63.8292 29.6257 64.226 29.7241 64.6247 29.698C64.3315 29.3187 64.1356 28.8735 64.0541 28.4011C63.9725 27.9287 64.0078 27.4436 64.1568 26.9879C64.4708 25.9998 64.9 25.5675 65.2098 25.2514C65.4359 25.0211 65.5448 24.9017 65.5573 24.6976C65.5573 24.6442 65.4788 24.4548 65.2737 24.2548C65.1093 24.0936 64.9827 24.0455 64.9512 24.0455C64.8057 24.0737 64.7419 24.1554 64.6027 24.3532C64.386 24.6589 64.0594 25.1216 63.0618 25.5047C60.9589 26.3107 58.678 24.5626 58.5816 24.4841L58.4937 24.415L58.5534 22.8009L58.6696 22.8385L58.7146 21.6149L58.5953 21.6526L58.6308 20.6832L58.747 20.7377L58.7973 19.3769L58.6821 19.3036L58.7146 18.44L58.8339 18.3835L58.8988 16.6155L58.7837 16.5422L58.8109 15.8001L58.9313 15.7216L59.0182 13.3695L58.8978 13.448L58.9365 12.5687L59.4599 10.7306C59.5886 10.2849 59.6118 9.81549 59.5279 9.35933C59.444 8.90316 59.2551 8.47275 58.9763 8.10211C58.7181 7.75026 58.3818 7.46313 57.9938 7.26333C57.6058 7.06352 57.1767 6.95649 56.7404 6.95066H56.6608C56.2244 6.95115 55.7941 7.05294 55.4038 7.24803C55.0134 7.44312 54.6737 7.72617 54.4113 8.07489C54.1267 8.44146 53.9313 8.86919 53.8405 9.32427C53.7497 9.77935 53.7659 10.2493 53.8879 10.6971L54.3935 12.5948L54.6646 24.3899L54.5746 24.4579C54.4783 24.5312 52.1733 26.2521 50.0819 25.4157C49.0895 25.02 48.7692 24.5532 48.5567 24.2444C48.4186 24.0444 48.3568 23.9617 48.2113 23.9303C48.1778 23.9303 48.0532 23.9732 47.8868 24.1324C47.6774 24.3291 47.5947 24.5176 47.5968 24.571C47.6073 24.7751 47.7141 24.8965 47.937 25.1299C48.2416 25.444 48.6604 25.8878 48.966 26.8812C49.1082 27.3392 49.1364 27.825 49.0481 28.2964C48.9598 28.7678 48.7577 29.2105 48.4594 29.586C48.7869 29.6153 49.1165 29.5594 49.416 29.4237C49.7155 29.2879 49.9748 29.077 50.1688 28.8114C50.7016 28.0954 51.2825 27.594 51.897 27.3198L52.0603 27.2486ZM56.5708 27.572H56.5551C56.0502 27.5667 55.5613 27.394 55.165 27.0811L55.0865 27.0194C54.8884 26.8627 54.6601 26.7485 54.4158 26.684C54.1716 26.6196 53.9167 26.6061 53.6671 26.6446L52.1294 26.8833L52.0822 26.9335L51.9336 26.8979L50.5173 26.3787L50.622 25.9548C52.5596 26.2573 54.5118 25.0253 54.5306 25.0127L54.628 24.9509L55.8684 25.4743C56.0888 25.5676 56.3254 25.6164 56.5646 25.618C56.8039 25.6196 57.0411 25.574 57.2627 25.4837L58.5105 24.9813L58.6068 25.0451C58.6256 25.0577 60.5611 26.318 62.5018 26.0417L62.6065 26.4667L61.1148 26.967L59.4567 26.6854C59.2076 26.6435 58.9526 26.6534 58.7075 26.7144C58.4623 26.7755 58.2324 26.8864 58.0321 27.0403L57.9525 27.101C57.556 27.4052 57.0706 27.5707 56.5708 27.572ZM53.9424 26.184C54.4552 26.1844 54.9529 26.3573 55.3555 26.675L55.434 26.7378C55.7543 26.9915 56.1503 27.1307 56.5589 27.1334C56.9675 27.136 57.3652 27.0019 57.6888 26.7524L57.7683 26.6917C58.0168 26.5014 58.3018 26.3641 58.6056 26.2885C58.9094 26.2129 59.2254 26.2005 59.5342 26.2521L61.0803 26.5159L61.2132 26.4708C60.2418 26.3203 59.3091 25.9815 58.4675 25.4733L57.4312 25.892C57.1565 26.0035 56.8624 26.0598 56.5659 26.0576C56.2694 26.0554 55.9762 25.9949 55.703 25.8794L54.672 25.4471C53.8142 25.9486 52.8658 26.2759 51.8813 26.4101L52.0121 26.4572L53.5948 26.2112C53.7098 26.1933 53.826 26.1842 53.9424 26.184ZM58.3137 23.8958L54.851 23.8717L54.8185 22.4177L55.3775 22.2367L54.8101 22.0535L54.7704 20.3242L55.7983 19.8343L54.7515 19.3381L54.7316 18.4599L56.0401 17.6089L54.6856 16.7484L54.6615 15.7017L56.0516 14.7931L54.6196 13.8688L54.5966 12.8932L54.763 12.8482C55.3039 12.7052 55.8617 12.6365 56.4211 12.644C57.1357 12.653 57.8472 12.7401 58.5429 12.9036L58.7188 12.9445L58.6957 13.584L56.8587 14.7836L58.6089 15.911L58.5879 16.47L56.8398 17.6068L58.5052 18.6745L58.4916 19.0346L56.8168 19.8322L58.4341 20.5953L58.3922 21.7206L56.7969 22.2367L58.3545 22.7412L58.3137 23.8958ZM55.278 23.4363L57.895 23.454L57.9096 23.0573L56.0903 22.468L55.2655 22.7349L55.278 23.4363ZM55.2393 21.7321L56.0872 22.0064L57.9714 21.3971L57.9902 20.8738L56.3154 20.0814L55.2205 20.6047L55.2393 21.7321ZM55.1786 19.0566L56.307 19.5904L57.9222 18.821L56.44 17.8685L55.165 18.6954L55.1786 19.0566ZM55.12 16.5004L56.4379 17.3461L58.1577 16.225V16.1444L56.4525 15.0453L55.1022 15.9267L55.12 16.5004ZM55.054 13.6196L56.4546 14.523L58.2645 13.3401V13.292C57.6584 13.1618 57.0409 13.0923 56.4211 13.0847C55.9592 13.0797 55.4981 13.1267 55.0467 13.225L55.054 13.6196Z" fill="url(#paint8_linear_2162_12665)"/>
<path d="M37.9539 95.7339C38.0168 95.736 38.0769 95.7605 38.1235 95.803C38.1813 95.8525 38.2302 95.9116 38.2679 95.9778C38.3078 96.0466 38.338 96.1206 38.3579 96.1976C38.3774 96.2656 38.3831 96.3368 38.3747 96.407L38.2606 97.1292C38.2513 97.1713 38.2319 97.2105 38.2041 97.2433C38.1693 97.2893 38.1311 97.3327 38.09 97.3731C38.0481 97.416 38.0062 97.4558 37.9633 97.4935C37.9307 97.5242 37.8957 97.5522 37.8586 97.5772C37.8848 97.6047 37.9093 97.6337 37.9319 97.6641C37.9633 97.705 37.9937 97.7468 38.023 97.7918C38.0501 97.8335 38.0746 97.8769 38.0962 97.9216C38.1139 97.9536 38.1219 97.9899 38.1193 98.0263L38.0062 98.7486C37.993 98.8234 37.9645 98.8947 37.9225 98.9579C37.8746 99.0355 37.8196 99.1084 37.7581 99.1757C37.6998 99.2414 37.6338 99.2997 37.5613 99.3494C37.5063 99.3914 37.4399 99.4158 37.3708 99.4196H33.3198L33.7877 96.4572C33.7646 96.4204 33.7387 96.3854 33.7103 96.3525C33.6684 96.2991 33.6223 96.2374 33.5731 96.1683C33.5241 96.0989 33.4793 96.0265 33.4392 95.9516C33.4034 95.8863 33.3787 95.8156 33.3659 95.7423L37.9539 95.7339ZM36.637 98.0944H35.2522L35.4186 97.057H36.7899C36.8115 97.0499 36.8303 97.0359 36.8433 97.0172C36.8599 96.9971 36.8733 96.9745 36.883 96.9502L36.8966 96.8906C36.9008 96.8626 36.8949 96.834 36.8799 96.81C36.8751 96.7988 36.8672 96.7891 36.8573 96.7821C36.8473 96.7751 36.8355 96.7709 36.8234 96.7702H35.1485L34.8952 98.3749H36.57C36.5834 98.3735 36.5963 98.3692 36.6079 98.3623C36.6195 98.3555 36.6294 98.3462 36.637 98.3351C36.6571 98.3121 36.6708 98.2844 36.6768 98.2545L36.6904 98.1938C36.692 98.1739 36.6877 98.1539 36.6783 98.1363C36.6688 98.1186 36.6545 98.1041 36.637 98.0944Z" fill="black"/>
<path d="M41.9127 98.9695H40.2274L39.9468 99.4112H38.4353L40.3341 96.4624C40.3152 96.427 40.2916 96.3943 40.264 96.3651C40.2221 96.3138 40.175 96.252 40.1237 96.1777C40.0722 96.1044 40.0243 96.0286 39.9803 95.9506C39.9399 95.8847 39.9145 95.8107 39.906 95.7339H42.3L43.5038 99.4112H42.0592L41.9127 98.9695ZM40.8764 97.9405H41.5913L41.3579 97.1847L40.8764 97.9405Z" fill="black"/>
<path d="M47.9121 95.7339H49.3158L48.7338 99.4112H47.3835L45.8489 97.6055L45.5611 99.4112H45.5548C45.5253 99.4555 45.4881 99.4941 45.4449 99.5253C45.38 99.5787 45.2994 99.6373 45.2041 99.7022C45.1089 99.7671 45.0011 99.8351 44.8828 99.9063C44.7645 99.9775 44.6514 100.042 44.5415 100.1C44.4417 100.154 44.339 100.201 44.2338 100.243C44.1655 100.275 44.0922 100.295 44.0171 100.301L44.7394 95.7339H46.0834L47.6284 97.5385L47.9121 95.7339Z" fill="black"/>
<path d="M52.5994 99.4114H49.9584C49.8949 99.4095 49.8343 99.3845 49.7878 99.3413C49.7303 99.2921 49.6817 99.2333 49.6444 99.1675C49.6042 99.0996 49.5739 99.0263 49.5543 98.9498C49.5339 98.882 49.5282 98.8106 49.5376 98.7405L49.905 96.3999C49.919 96.3253 49.9474 96.2542 49.9888 96.1905C50.036 96.1122 50.0907 96.0386 50.152 95.9707C50.2109 95.9049 50.2773 95.8462 50.3499 95.7959C50.4051 95.7545 50.4715 95.7305 50.5404 95.7268H54.5862L54.425 96.7631H51.3496C51.3355 96.7648 51.3219 96.7695 51.3098 96.7769C51.2977 96.7843 51.2873 96.7942 51.2794 96.806C51.2583 96.8276 51.2432 96.8543 51.2355 96.8835L51.0146 98.2443C51.0105 98.2723 51.0165 98.3008 51.0313 98.3249C51.0373 98.3367 51.0464 98.3467 51.0577 98.3538C51.0689 98.3608 51.0819 98.3645 51.0952 98.3647H52.6737C52.6871 98.3632 52.7 98.3589 52.7115 98.352C52.7231 98.3452 52.733 98.3359 52.7407 98.3249C52.7607 98.3019 52.7744 98.2741 52.7805 98.2443L52.8067 98.0768H51.5903L51.7567 97.0468H54.3789L54.0042 99.401C53.9745 99.4455 53.9369 99.4842 53.8932 99.5151C53.8152 99.5785 53.7338 99.6375 53.6493 99.692C53.552 99.7569 53.44 99.8249 53.3259 99.8961C53.2118 99.9673 53.0924 100.032 52.9804 100.09C52.8684 100.147 52.7711 100.194 52.6737 100.233C52.6062 100.265 52.5335 100.284 52.4591 100.291L52.5994 99.4114Z" fill="black"/>
<path d="M58.1368 98.9695H56.4515L56.171 99.4112H54.6594L56.5593 96.4624C56.5395 96.4276 56.516 96.3949 56.4892 96.3651C56.4463 96.3138 56.3992 96.252 56.3479 96.1777C56.2966 96.1034 56.2495 96.0291 56.2045 95.9506C56.1641 95.8847 56.1391 95.8107 56.1312 95.7339H58.5251L59.7289 99.4112H58.2844L58.1368 98.9695ZM57.1005 97.9405H57.8165L57.582 97.1847L57.1005 97.9405Z" fill="black"/>
<path d="M61.9552 98.3749H64.4434L64.2759 99.4112H60.384L60.8519 96.4488C60.8293 96.412 60.8037 96.377 60.7755 96.3442C60.7326 96.2908 60.6876 96.229 60.6384 96.1599C60.5893 96.0905 60.5446 96.0181 60.5044 95.9432C60.4682 95.8782 60.4434 95.8073 60.4311 95.7339H62.3708L61.9552 98.3749Z" fill="black"/>
<path d="M65.5003 99.4114C65.4368 99.4096 65.3761 99.3847 65.3297 99.3413C65.2721 99.2919 65.2233 99.2332 65.1852 99.1675C65.1455 99.0993 65.1153 99.0261 65.0952 98.9498C65.0758 98.8818 65.0701 98.8107 65.0784 98.7405L65.4469 96.3999C65.4609 96.3255 65.4889 96.2544 65.5296 96.1905C65.5772 96.1122 65.6322 96.0385 65.6939 95.9707C65.7525 95.9049 65.8185 95.8463 65.8907 95.7959C65.9461 95.7547 66.0123 95.7306 66.0812 95.7268H69.6099C69.6732 95.7289 69.7336 95.7534 69.7805 95.7959C69.838 95.8455 69.8866 95.9046 69.9239 95.9707C69.9642 96.0393 69.9945 96.1133 70.014 96.1905C70.0345 96.2583 70.0403 96.3297 70.0307 96.3999L69.6633 98.7405C69.6505 98.8154 69.622 98.8868 69.5795 98.9498C69.532 99.0273 69.4773 99.1002 69.4162 99.1675C69.3574 99.233 69.2909 99.2914 69.2184 99.3413C69.1634 99.3834 69.097 99.4078 69.0279 99.4114H65.5003ZM68.5495 96.8908C68.5537 96.8628 68.5477 96.8342 68.5328 96.8102C68.5279 96.7989 68.5199 96.7891 68.5097 96.7821C68.4995 96.775 68.4876 96.771 68.4752 96.7704H66.8883C66.8743 96.7725 66.8609 96.7773 66.8488 96.7847C66.8368 96.7921 66.8264 96.8018 66.8182 96.8134C66.7977 96.8353 66.783 96.8619 66.7752 96.8908L66.5544 98.2516C66.5503 98.2796 66.5562 98.3082 66.5711 98.3322C66.5771 98.3441 66.5862 98.3541 66.5975 98.3611C66.6087 98.3681 66.6217 98.3719 66.635 98.372H68.2198C68.233 98.3706 68.2458 98.3663 68.2572 98.3594C68.2686 98.3526 68.2783 98.3433 68.2857 98.3322C68.3064 98.3096 68.3205 98.2817 68.3266 98.2516L68.5495 96.8908Z" fill="black"/>
<path d="M70.831 95.7339H74.8831C74.9463 95.7361 75.0067 95.7606 75.0537 95.803C75.1112 95.8525 75.1597 95.9117 75.1971 95.9778C75.2369 96.0466 75.2672 96.1206 75.2871 96.1976C75.3072 96.2655 75.3129 96.3368 75.3039 96.407L75.1238 97.5438C75.1054 97.6709 75.0764 97.7962 75.0369 97.9185C75.0053 98.0184 74.9516 98.11 74.8799 98.1865C74.8038 98.2617 74.7109 98.3177 74.6088 98.3498C74.4731 98.3912 74.332 98.4127 74.1901 98.4136H74.1231L75.0191 99.4164H73.3715L72.1813 98.1059L72.286 97.4443H73.6468C73.7096 97.4443 73.7515 97.4035 73.7609 97.3229L73.8269 96.8958C73.8315 96.8678 73.8255 96.839 73.8101 96.8152C73.8054 96.8039 73.7976 96.7942 73.7876 96.7872C73.7776 96.7801 73.7658 96.7761 73.7536 96.7754H72.0788L71.6601 99.4164C71.6328 99.4608 71.5972 99.4995 71.5554 99.5305C71.4772 99.5937 71.3958 99.6527 71.3115 99.7074C71.2131 99.7723 71.1021 99.8404 70.987 99.9115C70.8718 99.9827 70.7536 100.048 70.6426 100.105C70.5316 100.163 70.4332 100.21 70.3348 100.249C70.269 100.28 70.1981 100.3 70.1255 100.306L70.831 95.7339Z" fill="black"/>
<path d="M76.1063 95.7339H80.3667L80.2055 96.7702H77.3635L77.3175 97.057H79.4633L79.2969 98.0828H77.1468L77.1071 98.3707H79.9522L79.7847 99.407H75.5254L76.1063 95.7339Z" fill="black"/>
<path d="M28.7471 101.975C28.8106 101.977 28.8712 102.002 28.9177 102.045C28.9752 102.094 29.0237 102.153 29.0611 102.219C29.1015 102.288 29.1321 102.362 29.1522 102.439C29.1719 102.507 29.1776 102.579 29.1689 102.649L29.0548 103.37C29.0456 103.412 29.0262 103.451 28.9983 103.484C28.9635 103.53 28.9254 103.574 28.8842 103.615C28.8423 103.657 28.7994 103.697 28.7576 103.735C28.7243 103.765 28.6894 103.792 28.6529 103.818C28.6707 103.837 28.6948 103.865 28.7262 103.906C28.7576 103.947 28.7869 103.988 28.8162 104.033C28.8435 104.071 28.8683 104.112 28.8905 104.154C28.9084 104.186 28.9164 104.222 28.9135 104.259L28.7994 104.981C28.7867 105.056 28.7581 105.127 28.7157 105.19C28.6685 105.268 28.6138 105.341 28.5524 105.408C28.4935 105.474 28.4271 105.532 28.3546 105.582C28.2996 105.624 28.2332 105.648 28.164 105.652H24.113L24.5809 102.69C24.5583 102.653 24.5327 102.618 24.5045 102.585C24.4616 102.531 24.4166 102.47 24.3674 102.401C24.3183 102.331 24.2736 102.259 24.2334 102.184C24.1972 102.119 24.1724 102.048 24.1601 101.975H28.7471ZM27.4303 104.335H26.0454L26.2129 103.299H27.5841C27.6059 103.291 27.6247 103.277 27.6375 103.258C27.6544 103.238 27.6678 103.215 27.6773 103.191L27.6909 103.131C27.6951 103.103 27.6891 103.075 27.6742 103.051C27.6691 103.039 27.661 103.03 27.6509 103.023C27.6407 103.016 27.6289 103.012 27.6166 103.011H25.9417L25.6874 104.616H27.3622C27.3756 104.614 27.3885 104.61 27.4 104.603C27.4116 104.596 27.4215 104.587 27.4292 104.576C27.4494 104.553 27.4632 104.525 27.469 104.495L27.4826 104.436C27.4838 104.416 27.4796 104.396 27.4704 104.378C27.4611 104.36 27.4473 104.345 27.4303 104.335Z" fill="black"/>
<path d="M30.2517 102.688C30.2286 102.652 30.2027 102.617 30.1742 102.584C30.1324 102.53 30.0863 102.469 30.0371 102.399C29.9884 102.33 29.944 102.258 29.9042 102.183C29.8677 102.118 29.8426 102.047 29.8299 101.973H34.6251L34.4639 103.01H31.6125L31.5664 103.298H33.7123L33.5459 104.327H31.4032L31.3634 104.614H34.2043L34.0379 105.651H29.7786L30.2517 102.688Z" fill="black"/>
<path d="M35.316 101.975H39.368C39.4315 101.977 39.492 102.002 39.5387 102.045C39.5962 102.094 39.6447 102.153 39.6821 102.219C39.7221 102.288 39.7524 102.362 39.7721 102.439C39.7922 102.507 39.7979 102.579 39.7888 102.649L39.6088 103.786C39.5903 103.912 39.5612 104.037 39.5219 104.159C39.4901 104.259 39.4365 104.351 39.3649 104.427C39.2888 104.502 39.1959 104.558 39.0938 104.59C38.9582 104.633 38.817 104.654 38.6751 104.654H38.6081L39.5041 105.657H37.8565L36.6663 104.347L36.771 103.685H38.1318C38.1946 103.685 38.2365 103.644 38.2448 103.565L38.3118 103.137C38.3165 103.109 38.3105 103.08 38.2951 103.056C38.2901 103.045 38.2822 103.035 38.2723 103.028C38.2623 103.021 38.2507 103.017 38.2386 103.016H36.5637L36.145 105.657C36.1165 105.702 36.0791 105.741 36.0351 105.771C35.9702 105.825 35.8886 105.883 35.7912 105.948C35.6939 106.013 35.5819 106.081 35.4667 106.152C35.3516 106.223 35.2333 106.288 35.1223 106.346C35.0114 106.403 34.913 106.451 34.8146 106.49C34.7486 106.521 34.6778 106.54 34.6052 106.547L35.316 101.975Z" fill="black"/>
<path d="M40.3675 105.582C40.31 105.533 40.2615 105.474 40.2241 105.408C40.1844 105.34 40.1542 105.267 40.1341 105.191C40.1142 105.123 40.1085 105.051 40.1173 104.981L40.222 104.359H41.6257L41.5996 104.5C41.5949 104.528 41.6009 104.556 41.6163 104.58C41.621 104.592 41.6288 104.601 41.6388 104.608C41.6488 104.615 41.6606 104.619 41.6728 104.62H43.0975L40.5957 103.765C40.54 103.727 40.4896 103.682 40.446 103.631C40.4002 103.581 40.371 103.517 40.3623 103.45L40.4889 102.642C40.503 102.567 40.5314 102.496 40.5727 102.432C40.62 102.353 40.6751 102.279 40.737 102.211C40.7953 102.146 40.8614 102.087 40.9338 102.038C40.9889 101.996 41.0552 101.971 41.1243 101.968H44.4771C44.5406 101.97 44.6012 101.994 44.6478 102.038C44.7053 102.087 44.7538 102.146 44.7912 102.211C44.8316 102.28 44.862 102.355 44.8812 102.432C44.9018 102.5 44.9076 102.571 44.8979 102.642L44.8048 103.263H43.4L43.4209 103.122C43.4251 103.094 43.4192 103.066 43.4042 103.043C43.3993 103.031 43.3913 103.021 43.3811 103.014C43.3709 103.007 43.359 103.003 43.3466 103.003H41.923L44.4237 103.858C44.4812 103.899 44.5338 103.946 44.5808 103.998C44.623 104.048 44.6496 104.109 44.6572 104.173L44.5305 104.981C44.5173 105.056 44.4888 105.127 44.4468 105.191C44.3989 105.268 44.3443 105.341 44.2835 105.408C44.2246 105.474 44.1582 105.532 44.0856 105.582C44.0307 105.624 43.9642 105.649 43.8951 105.652H40.5381C40.4747 105.65 40.4141 105.625 40.3675 105.582Z" fill="black"/>
<path d="M45.9752 102.688C45.9525 102.651 45.927 102.616 45.8988 102.584C45.8559 102.53 45.8109 102.469 45.7617 102.399C45.7126 102.33 45.6679 102.258 45.6277 102.183C45.5915 102.118 45.5667 102.047 45.5544 101.973H50.3497L50.1895 103.01H47.3465L47.2994 103.298H49.4463L49.2788 104.327H47.1329L47.0921 104.614H49.9309L49.7645 105.651H45.5042L45.9752 102.688Z" fill="black"/>
<path d="M51.0445 101.975H55.0966C55.1601 101.976 55.2208 102.001 55.2672 102.045C55.325 102.094 55.3739 102.153 55.4117 102.219C55.4517 102.288 55.482 102.362 55.5017 102.439C55.5214 102.507 55.5271 102.579 55.5184 102.649L55.3373 103.786C55.3188 103.912 55.2898 104.037 55.2505 104.159C55.219 104.259 55.1654 104.351 55.0934 104.427C55.0175 104.503 54.9245 104.559 54.8223 104.59C54.6868 104.633 54.5456 104.654 54.4036 104.654H54.3377L55.2337 105.657H53.5861L52.3959 104.347L52.5006 103.685H53.8614C53.9232 103.685 53.9661 103.644 53.9744 103.565L54.0414 103.137C54.0456 103.109 54.0397 103.08 54.0247 103.056C54.0197 103.045 54.0118 103.035 54.0019 103.028C53.9919 103.021 53.9803 103.017 53.9682 103.016H52.2933L51.8746 105.657C51.8454 105.702 51.8081 105.74 51.7647 105.771C51.6861 105.834 51.6044 105.893 51.5198 105.948C51.4224 106.013 51.3104 106.081 51.1963 106.152C51.0822 106.223 50.9629 106.288 50.8519 106.346C50.741 106.403 50.6373 106.451 50.5442 106.49C50.4765 106.522 50.4039 106.541 50.3296 106.547L51.0445 101.975Z" fill="black"/>
<path d="M59.1568 105.652L58.2335 104.328H57.7384L57.5291 105.652H56.1274L56.5953 102.69C56.5722 102.653 56.5463 102.618 56.5179 102.585C56.476 102.531 56.43 102.47 56.3808 102.401C56.332 102.331 56.2876 102.259 56.2478 102.184C56.2112 102.119 56.1864 102.048 56.1745 101.975H58.1132L57.9038 103.299H58.3319L59.6697 101.975H61.3142L59.4687 103.813L60.7322 105.652H59.1568Z" fill="black"/>
<path d="M62.2473 102.688C62.2241 102.652 62.1982 102.617 62.1698 102.584C62.1279 102.53 62.0819 102.469 62.0327 102.399C61.9836 102.33 61.9389 102.258 61.8987 102.183C61.863 102.117 61.8382 102.047 61.8254 101.973H66.6196L66.4595 103.01H63.6175L63.5704 103.298H65.7173L65.5498 104.327H63.404L63.3631 104.614H66.2051L66.0387 105.651H61.7783L62.2473 102.688Z" fill="black"/>
<path d="M67.3156 101.975H71.3676C71.4314 101.977 71.4924 102.002 71.5393 102.045C71.5965 102.094 71.645 102.153 71.6827 102.219C71.7228 102.288 71.7531 102.362 71.7727 102.439C71.7929 102.507 71.7986 102.579 71.7895 102.649L71.6084 103.786C71.5902 103.912 71.5615 104.037 71.5226 104.159C71.4904 104.259 71.4364 104.351 71.3645 104.427C71.2888 104.502 71.1962 104.558 71.0944 104.59C70.9588 104.633 70.8177 104.654 70.6757 104.654H70.6087L71.5048 105.657H69.8572L68.668 104.341L68.7727 103.68H70.1335C70.1953 103.68 70.233 103.639 70.2466 103.559L70.3136 103.131C70.3177 103.103 70.3118 103.075 70.2968 103.051C70.2918 103.04 70.2839 103.03 70.274 103.023C70.264 103.016 70.2524 103.012 70.2403 103.011H68.5634L68.1446 105.652C68.1154 105.696 68.0782 105.735 68.0347 105.766C67.9698 105.819 67.8882 105.878 67.7908 105.943C67.6935 106.008 67.5815 106.076 67.4663 106.147C67.3512 106.218 67.2329 106.283 67.1219 106.341C67.011 106.398 66.9126 106.445 66.8142 106.485C66.7465 106.516 66.6739 106.535 66.5996 106.542L67.3156 101.975Z" fill="black"/>
<path d="M72.3684 105.582C72.3119 105.533 72.2641 105.475 72.2271 105.41C72.187 105.342 72.1567 105.269 72.1371 105.193C72.1167 105.125 72.111 105.054 72.1204 104.983L72.2198 104.362H73.6246L73.5974 104.502C73.5932 104.53 73.5991 104.558 73.6141 104.582C73.619 104.594 73.627 104.604 73.6372 104.611C73.6474 104.618 73.6593 104.622 73.6717 104.622H75.0953L72.5945 103.767C72.5387 103.729 72.488 103.684 72.4438 103.633C72.3987 103.582 72.3699 103.519 72.3611 103.452L72.4878 102.644C72.5013 102.569 72.5298 102.498 72.5715 102.434C72.6188 102.356 72.6735 102.282 72.7348 102.214C72.7937 102.148 72.8601 102.09 72.9327 102.04C72.9876 101.998 73.054 101.973 73.1232 101.97H76.4802C76.5436 101.972 76.6042 101.997 76.6508 102.04C76.7083 102.089 76.7568 102.148 76.7942 102.214C76.8342 102.283 76.8645 102.357 76.8842 102.434C76.9043 102.502 76.91 102.574 76.901 102.644L76.8078 103.266H75.4009L75.4208 103.124C75.4255 103.097 75.4195 103.068 75.4041 103.045C75.3993 103.034 75.3914 103.024 75.3814 103.017C75.3715 103.01 75.3597 103.006 75.3476 103.005H73.9229L76.4247 103.86C76.4821 103.901 76.5348 103.948 76.5817 104C76.6239 104.05 76.6505 104.111 76.6581 104.175L76.5314 104.983C76.5182 105.058 76.4897 105.129 76.4477 105.193C76.3998 105.27 76.3448 105.343 76.2834 105.41C76.2251 105.476 76.159 105.535 76.0866 105.584C76.0315 105.626 75.9652 105.651 75.8961 105.654H72.5412C72.4767 105.652 72.4152 105.627 72.3684 105.582Z" fill="black"/>
<path d="M80.8586 105.652C80.8293 105.697 80.7916 105.735 80.7477 105.766C80.6697 105.829 80.5883 105.888 80.5038 105.943C80.4064 106.008 80.2944 106.076 80.1793 106.147C80.0641 106.218 79.9469 106.283 79.8349 106.341C79.7229 106.398 79.6256 106.445 79.5282 106.485C79.4621 106.516 79.3913 106.535 79.3188 106.542L80.0411 101.975H84.3004L84.1403 103.011H81.2931L81.2459 103.299H83.3929L83.2254 104.328H81.0785L80.8691 105.652H80.8586Z" fill="black"/>
<path d="M88.4624 105.652H84.9379C84.8744 105.65 84.8138 105.625 84.7673 105.582C84.7098 105.533 84.6612 105.474 84.6239 105.408C84.5837 105.34 84.5534 105.267 84.5338 105.191C84.5134 105.123 84.5077 105.051 84.5171 104.981L84.8845 102.642C84.898 102.567 84.9265 102.496 84.9682 102.432C85.0156 102.354 85.0702 102.28 85.1315 102.211C85.1904 102.146 85.2568 102.088 85.3294 102.038C85.3844 101.996 85.4508 101.971 85.5199 101.968H89.0433C89.1068 101.969 89.1675 101.994 89.214 102.038C89.2715 102.087 89.3203 102.146 89.3584 102.211C89.3984 102.281 89.4287 102.355 89.4484 102.432C89.4681 102.5 89.4738 102.571 89.4652 102.642L89.3511 103.384H87.9474L87.9871 103.129C87.9913 103.101 87.9854 103.073 87.9704 103.049C87.9654 103.038 87.9575 103.028 87.9475 103.021C87.9376 103.014 87.926 103.01 87.9139 103.009H86.329C86.315 103.011 86.3014 103.015 86.2893 103.023C86.2772 103.03 86.2668 103.04 86.2589 103.052C86.2384 103.074 86.2234 103.101 86.2149 103.129L85.9941 104.49C85.9899 104.518 85.9959 104.547 86.0108 104.571C86.0168 104.583 86.0259 104.593 86.0372 104.6C86.0484 104.607 86.0614 104.611 86.0747 104.611H87.6595C87.6729 104.609 87.6858 104.605 87.6973 104.598C87.7089 104.591 87.7189 104.582 87.7265 104.571C87.7467 104.548 87.7604 104.52 87.7663 104.49L87.8071 104.236H89.2108L89.0978 104.978C89.084 105.053 89.0556 105.124 89.014 105.187C88.9661 105.265 88.9111 105.338 88.8497 105.405C88.7914 105.471 88.7253 105.529 88.6529 105.579C88.5982 105.622 88.5318 105.647 88.4624 105.652Z" fill="black"/>
<defs>
<linearGradient id="paint0_linear_2162_12665" x1="73.9657" y1="78.486" x2="38.8695" y2="17.6989" gradientUnits="userSpaceOnUse">
<stop offset="0.01" stop-color="#424343"/>
<stop offset="0.29" stop-color="#182D25"/>
<stop offset="0.43" stop-color="#0E1A15"/>
<stop offset="0.6" stop-color="#040706"/>
<stop offset="0.73" stop-color="#010101"/>
<stop offset="0.86" stop-color="#010101"/>
<stop offset="1" stop-color="#181818"/>
</linearGradient>
<linearGradient id="paint1_linear_2162_12665" x1="17.5666" y1="55.72" x2="95.4841" y2="55.72" gradientUnits="userSpaceOnUse">
<stop offset="0.02" stop-color="#8C8C8C"/>
<stop offset="0.05" stop-color="#9B9B9B"/>
<stop offset="0.1" stop-color="#B9BAB9"/>
<stop offset="0.16" stop-color="#CFCFCF"/>
<stop offset="0.22" stop-color="#DCDDDC"/>
<stop offset="0.27" stop-color="#E0E1E0"/>
<stop offset="0.4" stop-color="#BBBCBB"/>
<stop offset="0.54" stop-color="#939393"/>
<stop offset="0.58" stop-color="#878888"/>
<stop offset="0.67" stop-color="#747575"/>
<stop offset="0.73" stop-color="#6D6E6E"/>
<stop offset="0.9" stop-color="#6F7070"/>
<stop offset="0.96" stop-color="#767676"/>
<stop offset="1" stop-color="#7E7E7E"/>
</linearGradient>
<linearGradient id="paint2_linear_2162_12665" x1="30.6848" y1="50.2514" x2="82.4822" y2="50.2514" gradientUnits="userSpaceOnUse">
<stop offset="0.02" stop-color="#8C8C8C"/>
<stop offset="0.05" stop-color="#9B9B9B"/>
<stop offset="0.1" stop-color="#B9BAB9"/>
<stop offset="0.16" stop-color="#CFCFCF"/>
<stop offset="0.22" stop-color="#DCDDDC"/>
<stop offset="0.27" stop-color="#E0E1E0"/>
<stop offset="0.4" stop-color="#BBBCBB"/>
<stop offset="0.54" stop-color="#939393"/>
<stop offset="0.58" stop-color="#878888"/>
<stop offset="0.67" stop-color="#747575"/>
<stop offset="0.73" stop-color="#6D6E6E"/>
<stop offset="0.9" stop-color="#6F7070"/>
<stop offset="0.96" stop-color="#767676"/>
<stop offset="1" stop-color="#7E7E7E"/>
</linearGradient>
<linearGradient id="paint3_linear_2162_12665" x1="56.582" y1="28.4277" x2="56.582" y2="84.3075" gradientUnits="userSpaceOnUse">
<stop offset="0.02" stop-color="#8C8C8C"/>
<stop offset="0.05" stop-color="#9B9B9B"/>
<stop offset="0.1" stop-color="#B9BAB9"/>
<stop offset="0.16" stop-color="#CFCFCF"/>
<stop offset="0.22" stop-color="#DCDDDC"/>
<stop offset="0.27" stop-color="#E0E1E0"/>
<stop offset="0.4" stop-color="#BBBCBB"/>
<stop offset="0.54" stop-color="#939393"/>
<stop offset="0.58" stop-color="#878888"/>
<stop offset="0.67" stop-color="#747575"/>
<stop offset="0.73" stop-color="#6D6E6E"/>
<stop offset="0.9" stop-color="#6F7070"/>
<stop offset="0.96" stop-color="#767676"/>
<stop offset="1" stop-color="#7E7E7E"/>
</linearGradient>
<linearGradient id="paint4_linear_2162_12665" x1="44.0655" y1="34.5262" x2="69.0843" y2="34.5262" gradientUnits="userSpaceOnUse">
<stop offset="0.02" stop-color="#8C8C8C"/>
<stop offset="0.05" stop-color="#9B9B9B"/>
<stop offset="0.1" stop-color="#B9BAB9"/>
<stop offset="0.16" stop-color="#CFCFCF"/>
<stop offset="0.22" stop-color="#DCDDDC"/>
<stop offset="0.27" stop-color="#E0E1E0"/>
<stop offset="0.4" stop-color="#BBBCBB"/>
<stop offset="0.54" stop-color="#939393"/>
<stop offset="0.58" stop-color="#878888"/>
<stop offset="0.67" stop-color="#747575"/>
<stop offset="0.73" stop-color="#6D6E6E"/>
<stop offset="0.9" stop-color="#6F7070"/>
<stop offset="0.96" stop-color="#767676"/>
<stop offset="1" stop-color="#7E7E7E"/>
</linearGradient>
<linearGradient id="paint5_linear_2162_12665" x1="54.7688" y1="17.2431" x2="58.7204" y2="17.2431" gradientUnits="userSpaceOnUse">
<stop offset="0.01" stop-color="#424343"/>
<stop offset="0.29" stop-color="#182D25"/>
<stop offset="0.43" stop-color="#0E1A15"/>
<stop offset="0.6" stop-color="#040706"/>
<stop offset="0.73" stop-color="#010101"/>
<stop offset="0.86" stop-color="#010101"/>
<stop offset="1" stop-color="#181818"/>
</linearGradient>
<linearGradient id="paint6_linear_2162_12665" x1="51.6873" y1="31.5498" x2="61.3731" y2="31.5498" gradientUnits="userSpaceOnUse">
<stop offset="0.01" stop-color="#424343"/>
<stop offset="0.29" stop-color="#182D25"/>
<stop offset="0.43" stop-color="#0E1A15"/>
<stop offset="0.6" stop-color="#040706"/>
<stop offset="0.73" stop-color="#010101"/>
<stop offset="0.86" stop-color="#010101"/>
<stop offset="1" stop-color="#181818"/>
</linearGradient>
<linearGradient id="paint7_linear_2162_12665" x1="56.5762" y1="38.3024" x2="56.5762" y2="6.7297" gradientUnits="userSpaceOnUse">
<stop offset="0.01" stop-color="#424343"/>
<stop offset="0.29" stop-color="#182D25"/>
<stop offset="0.43" stop-color="#0E1A15"/>
<stop offset="0.6" stop-color="#040706"/>
<stop offset="0.73" stop-color="#010101"/>
<stop offset="0.86" stop-color="#010101"/>
<stop offset="1" stop-color="#181818"/>
</linearGradient>
<linearGradient id="paint8_linear_2162_12665" x1="47.1582" y1="22.5413" x2="65.9938" y2="22.5413" gradientUnits="userSpaceOnUse">
<stop offset="0.02" stop-color="#8C8C8C"/>
<stop offset="0.05" stop-color="#9B9B9B"/>
<stop offset="0.1" stop-color="#B9BAB9"/>
<stop offset="0.16" stop-color="#CFCFCF"/>
<stop offset="0.22" stop-color="#DCDDDC"/>
<stop offset="0.27" stop-color="#E0E1E0"/>
<stop offset="0.4" stop-color="#BBBCBB"/>
<stop offset="0.54" stop-color="#939393"/>
<stop offset="0.58" stop-color="#878888"/>
<stop offset="0.67" stop-color="#747575"/>
<stop offset="0.73" stop-color="#6D6E6E"/>
<stop offset="0.9" stop-color="#6F7070"/>
<stop offset="0.96" stop-color="#767676"/>
<stop offset="1" stop-color="#7E7E7E"/>
</linearGradient>
</defs>
</svg>
