<svg width="37" height="58" viewBox="0 0 37 58" fill="none" xmlns="http://www.w3.org/2000/svg">
<path d="M33.1444 2.53978L34.2112 3.1609C34.2764 3.19893 34.3547 3.21049 34.4288 3.19302C34.5029 3.17555 34.5668 3.1305 34.6063 3.06776C34.6459 3.00503 34.6579 2.92975 34.6397 2.8585C34.6216 2.78724 34.5747 2.72584 34.5095 2.68781L33.4427 2.06669C33.3774 2.02865 33.2992 2.0171 33.2251 2.03457C33.1509 2.05203 33.0871 2.09709 33.0475 2.15983C33.008 2.22256 32.996 2.29784 33.0141 2.36909C33.0323 2.44035 33.0792 2.50174 33.1444 2.53978Z" fill="url(#paint0_linear_687_4269)"/>
<path d="M34.36 3.24719C34.2985 3.24709 34.2382 3.23088 34.1855 3.20031L33.1194 2.57857C33.0815 2.55654 33.0484 2.52755 33.0222 2.49324C32.9959 2.45894 32.977 2.42 32.9664 2.37864C32.9557 2.33729 32.9537 2.29434 32.9604 2.25223C32.967 2.21012 32.9823 2.16969 33.0052 2.13324C33.0281 2.09679 33.0582 2.06504 33.0939 2.03979C33.1296 2.01455 33.1701 1.99631 33.2131 1.98611C33.2561 1.97592 33.3008 1.97397 33.3446 1.98037C33.3884 1.98678 33.4304 2.00142 33.4683 2.02345L34.537 2.64642C34.5999 2.68306 34.6486 2.73847 34.6757 2.8042C34.7027 2.86994 34.7067 2.94238 34.6869 3.01046C34.6671 3.07855 34.6247 3.13855 34.5661 3.18129C34.5076 3.22403 34.4361 3.24718 34.3626 3.24719H34.36ZM33.2945 2.07526C33.275 2.07541 33.2557 2.07769 33.2368 2.08205C33.191 2.09313 33.1497 2.11702 33.118 2.15068C33.0864 2.18434 33.0658 2.22627 33.059 2.27116C33.0521 2.31605 33.0592 2.36189 33.0795 2.40288C33.0997 2.44388 33.1321 2.47819 33.1726 2.50147L34.2387 3.12259C34.2656 3.13823 34.2954 3.14863 34.3264 3.1532C34.3574 3.15777 34.389 3.15642 34.4195 3.14923C34.45 3.14204 34.4786 3.12915 34.5039 3.1113C34.5292 3.09345 34.5506 3.07098 34.5669 3.04518C34.5831 3.01939 34.5939 2.99076 34.5987 2.96094C34.6034 2.93113 34.602 2.9007 34.5946 2.87141C34.5871 2.84211 34.5737 2.81451 34.5551 2.7902C34.5366 2.76588 34.5132 2.74532 34.4864 2.72969L33.4177 2.10795C33.3808 2.08526 33.3382 2.07287 33.2945 2.07218V2.07526Z" fill="url(#paint1_linear_687_4269)"/>
<path d="M33.8146 0.0531292L33.3296 1.71171L33.7312 1.90046C34.0112 2.03174 34.2783 2.1872 34.5292 2.36491L34.8884 2.62027L36.1932 1.43909C35.9891 1.00377 35.6525 0.638219 35.2278 0.390758C34.8031 0.143296 34.3103 0.025567 33.8146 0.0531292Z" fill="url(#paint2_linear_687_4269)"/>
<path d="M34.8917 2.681L34.4991 2.40282C34.2508 2.22673 33.9865 2.07252 33.7094 1.94207L33.2713 1.73791L33.7761 0.0108556H33.8108C34.3162 -0.015422 34.8181 0.105424 35.251 0.357619C35.684 0.609814 36.0277 0.981643 36.2375 1.42457L36.2516 1.45479L34.8917 2.681ZM33.3874 1.68671L33.7524 1.85757C34.0349 1.99042 34.3044 2.14752 34.5575 2.32695L34.884 2.55826L36.1336 1.4295C35.9306 1.01713 35.606 0.671222 35.2002 0.434785C34.7944 0.198349 34.3253 0.0818163 33.8512 0.0996755L33.3874 1.68671Z" fill="url(#paint3_linear_687_4269)"/>
<path d="M31.8754 4.54979L32.9421 5.17152C33.0074 5.20774 33.0848 5.21792 33.1578 5.1999C33.2308 5.18187 33.2935 5.13707 33.3325 5.0751C33.3715 5.01313 33.3837 4.93892 33.3665 4.8684C33.3493 4.79787 33.3041 4.73663 33.2404 4.69782L32.1736 4.0767C32.1413 4.05786 32.1055 4.04534 32.0682 4.03982C32.0308 4.03431 31.9927 4.03593 31.956 4.04457C31.9193 4.05322 31.8848 4.06874 31.8543 4.09023C31.8238 4.11172 31.7981 4.13877 31.7785 4.16983C31.7589 4.2009 31.7459 4.23537 31.7401 4.27127C31.7344 4.30718 31.7361 4.34382 31.7451 4.3791C31.7541 4.41438 31.7702 4.44761 31.7926 4.4769C31.8149 4.50619 31.8431 4.53095 31.8754 4.54979Z" fill="url(#paint4_linear_687_4269)"/>
<path d="M33.0939 5.2586C33.0324 5.25849 32.9721 5.24229 32.9194 5.21172L31.8533 4.5906C31.7767 4.5461 31.7217 4.47419 31.7002 4.39067C31.6788 4.30715 31.6928 4.21888 31.7391 4.14527C31.7853 4.07165 31.8601 4.01873 31.947 3.99814C32.0339 3.97755 32.1257 3.99098 32.2022 4.03547L33.269 4.6566C33.3319 4.69326 33.3806 4.74873 33.4077 4.81452C33.4347 4.88032 33.4386 4.95282 33.4188 5.02094C33.3989 5.08906 33.3564 5.14905 33.2977 5.19175C33.2391 5.23444 33.1675 5.25749 33.0939 5.25736V5.2586ZM32.0284 4.08173C31.976 4.08138 31.925 4.09757 31.8832 4.12782C31.8414 4.15808 31.8111 4.20071 31.7969 4.24916C31.7828 4.29761 31.7856 4.34918 31.8049 4.39595C31.8243 4.44271 31.859 4.48206 31.9039 4.50795L32.9707 5.1303C32.9975 5.14729 33.0276 5.1589 33.0592 5.16444C33.0908 5.16998 33.1232 5.16934 33.1545 5.16254C33.1859 5.15575 33.2154 5.14295 33.2415 5.12491C33.2675 5.10686 33.2895 5.08395 33.3062 5.05754C33.3228 5.03113 33.3337 5.00176 33.3383 4.9712C33.3428 4.94064 33.3409 4.90951 33.3326 4.87967C33.3244 4.84984 33.3099 4.82192 33.2902 4.79758C33.2704 4.77324 33.2458 4.75298 33.2177 4.73801L32.1515 4.11628C32.1145 4.09425 32.0719 4.08232 32.0284 4.08173Z" fill="url(#paint5_linear_687_4269)"/>
<path d="M31.4582 5.22105L32.5243 5.84279C32.5896 5.879 32.667 5.88919 32.7399 5.87116C32.8129 5.85314 32.8756 5.80833 32.9147 5.74636C32.9537 5.68439 32.9659 5.61019 32.9487 5.53966C32.9315 5.46913 32.8862 5.4079 32.8226 5.36908L31.7532 4.74796C31.7209 4.72913 31.6851 4.7166 31.6477 4.71109C31.6104 4.70558 31.5723 4.70719 31.5356 4.71584C31.4989 4.72449 31.4643 4.74 31.4339 4.76149C31.4034 4.78299 31.3777 4.81004 31.3581 4.8411C31.3385 4.87216 31.3255 4.90663 31.3197 4.94254C31.314 4.97844 31.3157 5.01508 31.3247 5.05036C31.3337 5.08565 31.3498 5.11888 31.3722 5.14816C31.3945 5.17745 31.4226 5.20222 31.455 5.22105H31.4582Z" fill="url(#paint6_linear_687_4269)"/>
<path d="M32.6701 5.93157C32.6087 5.93145 32.5486 5.91524 32.4962 5.88469L31.4294 5.26357C31.3529 5.21908 31.2978 5.14716 31.2764 5.06364C31.255 4.98013 31.269 4.89185 31.3152 4.81824C31.3615 4.74462 31.4363 4.6917 31.5232 4.67111C31.61 4.65052 31.7018 4.66395 31.7784 4.70845L32.8452 5.32957C32.9081 5.36623 32.9568 5.4217 32.9839 5.48749C33.0109 5.55329 33.0148 5.62579 32.9949 5.69391C32.9751 5.76203 32.9326 5.82202 32.8739 5.86472C32.8152 5.90741 32.7436 5.93046 32.6701 5.93034V5.93157ZM31.4801 5.18277L32.5488 5.80081C32.6029 5.83174 32.6675 5.84087 32.7285 5.82624C32.7896 5.8116 32.8422 5.77437 32.8748 5.72265C32.9074 5.67093 32.9175 5.60891 32.9028 5.55008C32.8882 5.49125 32.8499 5.44037 32.7964 5.40852L31.7277 4.78678C31.6735 4.75521 31.6085 4.74563 31.547 4.76015C31.4854 4.77466 31.4324 4.81209 31.3996 4.86419C31.3668 4.91629 31.3568 4.9788 31.3719 5.03797C31.387 5.09714 31.4259 5.14811 31.4801 5.17969V5.18277Z" fill="url(#paint7_linear_687_4269)"/>
<path d="M3.43156 5.36908C3.36795 5.4079 3.32268 5.46913 3.30547 5.53966C3.28826 5.61019 3.30047 5.68439 3.33949 5.74637C3.37852 5.80834 3.44124 5.85314 3.51421 5.87116C3.58719 5.88919 3.6646 5.879 3.72985 5.84279L4.79664 5.22105C4.86189 5.18302 4.90874 5.12162 4.92691 5.05036C4.94508 4.97911 4.93306 4.90384 4.8935 4.8411C4.85395 4.77836 4.79009 4.73331 4.71599 4.71584C4.64188 4.69837 4.56359 4.70993 4.49835 4.74796L3.43156 5.36908Z" fill="url(#paint8_linear_687_4269)"/>
<path d="M3.582 5.93189C3.50843 5.93201 3.43683 5.90896 3.37816 5.86627C3.3195 5.82357 3.27698 5.76358 3.25713 5.69546C3.23727 5.62734 3.24116 5.55484 3.2682 5.48904C3.29525 5.42325 3.34395 5.36778 3.40688 5.33112L4.47366 4.71C4.55022 4.66558 4.642 4.65223 4.72879 4.67288C4.81559 4.69353 4.8903 4.74648 4.93649 4.8201C4.98268 4.89371 4.99657 4.98195 4.9751 5.06541C4.95362 5.14887 4.89855 5.22071 4.82199 5.26512L3.75585 5.88624C3.70326 5.9163 3.64318 5.93208 3.582 5.93189ZM3.45756 5.41192C3.43068 5.42742 3.40727 5.44788 3.38866 5.47212C3.37005 5.49636 3.35662 5.52391 3.34915 5.55317C3.33775 5.59733 3.34027 5.64375 3.35639 5.68654C3.3725 5.72932 3.40148 5.76653 3.43964 5.79344C3.4778 5.82034 3.52342 5.83573 3.5707 5.83765C3.61798 5.83957 3.66479 5.82793 3.70517 5.80421L4.77195 5.18C4.81245 5.15672 4.84487 5.12241 4.86509 5.08141C4.88532 5.04042 4.89245 4.99458 4.88558 4.94969C4.87872 4.90479 4.85816 4.86287 4.82652 4.82921C4.79488 4.79555 4.75356 4.77166 4.70781 4.76057C4.67743 4.75328 4.64585 4.75187 4.6149 4.75643C4.58396 4.76098 4.55426 4.7714 4.52755 4.7871L3.45756 5.41192Z" fill="url(#paint9_linear_687_4269)"/>
<path d="M3.00969 4.69831C2.94607 4.73712 2.9008 4.79836 2.88359 4.86888C2.86638 4.93941 2.8786 5.01362 2.91762 5.07559C2.95664 5.13756 3.01936 5.18236 3.09234 5.20038C3.16531 5.21841 3.24272 5.20822 3.30798 5.17201L4.37412 4.55027C4.40643 4.53144 4.43456 4.50667 4.45691 4.47739C4.47927 4.4481 4.4954 4.41487 4.50439 4.37959C4.51339 4.34431 4.51507 4.30767 4.50934 4.27176C4.5036 4.23585 4.49057 4.20139 4.47099 4.17032C4.4514 4.13926 4.42564 4.11221 4.39519 4.09072C4.36473 4.06922 4.33016 4.05371 4.29347 4.04506C4.25678 4.03642 4.21867 4.0348 4.18133 4.04031C4.14399 4.04582 4.10814 4.05835 4.07583 4.07718L3.00969 4.69831Z" fill="url(#paint10_linear_687_4269)"/>
<path d="M3.15915 5.25894C3.08557 5.25906 3.01398 5.23601 2.95531 5.19332C2.89664 5.15062 2.85413 5.09063 2.83427 5.02251C2.81442 4.95439 2.81831 4.88189 2.84535 4.81609C2.87239 4.7503 2.9211 4.69483 2.98403 4.65817L4.05081 4.03705C4.08856 4.01462 4.13055 3.99959 4.17436 3.99282C4.21817 3.98604 4.26294 3.98766 4.3061 3.99758C4.34925 4.00749 4.38995 4.02551 4.42584 4.0506C4.46173 4.07568 4.49212 4.10734 4.51525 4.14375C4.56151 4.21721 4.57555 4.30532 4.55425 4.38872C4.53296 4.47212 4.47809 4.54397 4.4017 4.58847L3.33492 5.20959C3.28219 5.24133 3.22135 5.25841 3.15915 5.25894ZM3.0347 4.73897C3.00762 4.75446 2.98399 4.77496 2.96518 4.79928C2.94638 4.8236 2.93277 4.85126 2.92515 4.88066C2.91752 4.91007 2.91603 4.94063 2.92076 4.97059C2.92549 5.00055 2.93634 5.02932 2.95269 5.05522C2.96904 5.08113 2.99057 5.10366 3.01603 5.12153C3.04149 5.13939 3.07038 5.15223 3.10102 5.1593C3.13167 5.16636 3.16347 5.16753 3.19459 5.16271C3.2257 5.1579 3.25552 5.14721 3.28232 5.13126L4.3491 4.51014C4.38933 4.48667 4.42147 4.45232 4.4415 4.41138C4.46153 4.37044 4.46857 4.32473 4.46172 4.27996C4.45487 4.2352 4.43445 4.19337 4.40301 4.15971C4.37157 4.12605 4.33051 4.10205 4.28495 4.09071C4.25447 4.08343 4.2228 4.08203 4.19175 4.08659C4.1607 4.09114 4.1309 4.10155 4.10405 4.11723L3.0347 4.73897Z" fill="url(#paint11_linear_687_4269)"/>
<path d="M32.722 3.20909L33.7882 3.83083C33.8534 3.86704 33.9309 3.87722 34.0038 3.8592C34.0768 3.84117 34.1395 3.79637 34.1785 3.7344C34.2176 3.67243 34.2298 3.59823 34.2126 3.5277C34.1954 3.45717 34.1501 3.39593 34.0865 3.35712L33.0203 2.736C32.9551 2.69797 32.8768 2.68641 32.8027 2.70388C32.7286 2.72134 32.6647 2.7664 32.6252 2.82914C32.5856 2.89187 32.5736 2.96715 32.5918 3.0384C32.6099 3.10966 32.6568 3.17105 32.722 3.20909Z" fill="url(#paint12_linear_687_4269)"/>
<path d="M33.9362 3.91796C33.8749 3.91784 33.8147 3.90164 33.7623 3.87109L32.6955 3.24935C32.6576 3.22732 32.6246 3.19832 32.5983 3.16402C32.5721 3.12971 32.5531 3.09077 32.5425 3.04942C32.5319 3.00807 32.5299 2.96511 32.5366 2.92301C32.5432 2.8809 32.5584 2.84047 32.5814 2.80402C32.6043 2.76757 32.6344 2.73581 32.6701 2.71057C32.7058 2.68532 32.7463 2.66708 32.7893 2.65689C32.8323 2.64669 32.877 2.64474 32.9207 2.65115C32.9645 2.65756 33.0066 2.67219 33.0445 2.69423L34.1113 3.31535C34.1742 3.35201 34.2229 3.40748 34.25 3.47327C34.277 3.53907 34.2809 3.61157 34.261 3.67969C34.2412 3.74781 34.1987 3.8078 34.14 3.8505C34.0813 3.89319 34.0097 3.91624 33.9362 3.91611V3.91796ZM32.7462 3.16916L33.813 3.79029C33.8671 3.82186 33.932 3.83147 33.9935 3.81701C34.055 3.80255 34.108 3.7652 34.1408 3.71319C34.1735 3.66103 34.1834 3.59856 34.1684 3.5394C34.1534 3.48024 34.1146 3.42919 34.0606 3.39738L32.9964 2.77626C32.9422 2.74469 32.8772 2.73511 32.8157 2.74962C32.7541 2.76414 32.7011 2.80157 32.6683 2.85367C32.6354 2.90577 32.6255 2.96828 32.6406 3.02745C32.6557 3.08662 32.6946 3.13759 32.7488 3.16916H32.7462Z" fill="url(#paint13_linear_687_4269)"/>
<path d="M32.2992 3.88005L33.366 4.50179C33.4312 4.538 33.5086 4.54818 33.5816 4.53016C33.6546 4.51213 33.7173 4.46733 33.7563 4.40536C33.7954 4.34339 33.8076 4.26919 33.7904 4.19866C33.7731 4.12813 33.7279 4.06689 33.6643 4.02808L32.5975 3.40696C32.5652 3.38813 32.5293 3.3756 32.492 3.37008C32.4546 3.36457 32.4165 3.36619 32.3798 3.37484C32.3431 3.38348 32.3086 3.399 32.2781 3.42049C32.2477 3.44198 32.2219 3.46903 32.2023 3.5001C32.1827 3.53116 32.1697 3.56563 32.164 3.60153C32.1582 3.63744 32.1599 3.67408 32.1689 3.70936C32.1779 3.74464 32.194 3.77788 32.2164 3.80716C32.2387 3.83645 32.2669 3.86121 32.2992 3.88005Z" fill="url(#paint14_linear_687_4269)"/>
<path d="M33.5151 4.58819C33.4538 4.5881 33.3937 4.57189 33.3413 4.54131L32.2751 3.91958C32.2372 3.89754 32.2042 3.86855 32.1779 3.83424C32.1517 3.79994 32.1327 3.761 32.1221 3.71965C32.1115 3.6783 32.1095 3.63534 32.1161 3.59323C32.1228 3.55113 32.138 3.51069 32.1609 3.47424C32.1839 3.43779 32.214 3.40604 32.2497 3.3808C32.2854 3.35555 32.3259 3.33731 32.3689 3.32712C32.4119 3.31692 32.4566 3.31497 32.5003 3.32138C32.5441 3.32778 32.5862 3.34242 32.6241 3.36445L33.6902 3.98557C33.7472 4.01876 33.7927 4.06745 33.8209 4.12549C33.8491 4.18353 33.8588 4.24831 33.8487 4.31163C33.8386 4.37496 33.8092 4.43398 33.7642 4.48123C33.7192 4.52848 33.6607 4.56184 33.5959 4.57709C33.5695 4.58383 33.5424 4.58756 33.5151 4.58819ZM32.4496 3.41318C32.4304 3.41327 32.4112 3.41554 32.3925 3.41996C32.3468 3.43105 32.3054 3.45494 32.2738 3.4886C32.2422 3.52226 32.2216 3.56418 32.2147 3.60908C32.2079 3.65397 32.215 3.69981 32.2352 3.7408C32.2555 3.7818 32.2879 3.81611 32.3284 3.83939L33.3945 4.46051C33.4488 4.49195 33.5137 4.50148 33.5753 4.48704C33.6368 4.4726 33.6899 4.43535 33.723 4.38341C33.7555 4.33117 33.7655 4.26869 33.7505 4.20947C33.7431 4.18021 33.7296 4.15267 33.711 4.12843C33.6924 4.10418 33.669 4.08372 33.6421 4.06823L32.5728 3.44649C32.5357 3.42458 32.4931 3.41304 32.4496 3.41318Z" fill="url(#paint15_linear_687_4269)"/>
<path d="M2.58781 4.02808C2.5242 4.06689 2.47893 4.12813 2.46172 4.19866C2.44451 4.26919 2.45672 4.34339 2.49574 4.40536C2.53477 4.46733 2.59749 4.51213 2.67046 4.53016C2.74344 4.54818 2.82085 4.538 2.8861 4.50179L3.95289 3.88005C4.01814 3.84201 4.06499 3.78062 4.08316 3.70936C4.10133 3.63811 4.08931 3.56283 4.04975 3.5001C4.0102 3.43736 3.94634 3.3923 3.87224 3.37484C3.79813 3.35737 3.71985 3.36893 3.6546 3.40696L2.58781 4.02808Z" fill="url(#paint16_linear_687_4269)"/>
<path d="M2.7377 4.58811C2.71068 4.58808 2.68377 4.58497 2.65751 4.57886C2.5928 4.56361 2.53424 4.53026 2.48925 4.483C2.44426 4.43575 2.41486 4.37673 2.40477 4.31341C2.39467 4.25008 2.40434 4.1853 2.43254 4.12726C2.46075 4.06922 2.50622 4.02053 2.56321 3.98735L3.62936 3.36622C3.70592 3.32173 3.79772 3.3083 3.88458 3.32889C3.97144 3.34948 4.04623 3.4024 4.09251 3.47601C4.13879 3.54963 4.15275 3.6379 4.13134 3.72142C4.10992 3.80494 4.05488 3.87685 3.97832 3.92135L2.91282 4.54123C2.85995 4.57185 2.79941 4.58806 2.7377 4.58811ZM3.80384 3.4131C3.7602 3.41323 3.71741 3.42474 3.68004 3.44641L2.61389 4.06815C2.57333 4.09132 2.54084 4.12557 2.52056 4.16653C2.50028 4.2075 2.49312 4.25334 2.5 4.29822C2.50687 4.34311 2.52747 4.38502 2.55917 4.41862C2.59087 4.45223 2.63225 4.47601 2.67804 4.48696C2.7084 4.49435 2.74 4.49582 2.77096 4.49126C2.80193 4.48671 2.83162 4.47622 2.8583 4.46043L3.92508 3.83931C3.96991 3.81345 4.00467 3.77415 4.02402 3.72745C4.04336 3.68076 4.04622 3.62924 4.03216 3.58083C4.0181 3.53241 3.98789 3.48978 3.94617 3.45947C3.90446 3.42917 3.85356 3.41288 3.80128 3.4131H3.80384Z" fill="url(#paint17_linear_687_4269)"/>
<path d="M6.54287 10.9579L4.34066 7.46373C4.31965 7.43037 4.28822 7.40425 4.25085 7.38909L3.87366 7.23613C4.21172 7.07206 5.1284 7.48778 5.45299 7.55378L7.34857 10.5403C7.44351 10.4762 7.53824 10.4053 7.63275 10.3275C7.91771 10.0888 8.16075 9.80742 8.35249 9.49424L6.36967 6.35163L6.41457 5.83598C6.6872 5.80452 6.97074 5.87916 7.19847 5.97044C7.34575 6.02984 7.50838 6.04459 7.66462 6.01274C7.82086 5.98089 7.96326 5.90394 8.07281 5.79219C8.07281 5.79219 7.47495 5.67376 7.3242 5.07855C7.17345 4.48333 7.43197 4.32666 7.31393 4.11325C7.26069 4.01764 6.95855 3.93623 6.87516 4.00963C6.71094 4.15457 6.9284 4.33838 6.55442 4.80715C6.07459 5.41039 5.03218 5.3006 5.03218 5.3006C5.00075 5.25125 3.66133 6.03151 3.69212 6.08147C3.69212 6.08147 3.31301 7.02148 2.53745 7.15101C1.93189 7.25216 1.86261 6.982 1.65413 7.05479C1.54764 7.09179 1.48221 7.38724 1.54636 7.47668C1.68749 7.67591 1.95242 7.52787 2.43097 7.93188C2.90951 8.33589 2.74273 8.90088 2.74273 8.90088C2.89643 8.85918 3.03322 8.77334 3.13479 8.65484C3.23636 8.53635 3.29787 8.39085 3.31108 8.23782C3.33289 8.00158 3.39512 7.72587 3.55035 7.50752L4.04686 7.70798L6.17274 11.0819C6.29843 11.0473 6.422 11.0059 6.54287 10.9579ZM3.3996 7.24476L2.85563 7.35887C3.55292 7.07637 3.93781 6.31585 3.93781 6.31585L4.68963 6.20298L5.13867 5.61455C5.13867 5.61455 6.01621 5.64292 6.60061 5.176L6.25035 5.58864H6.24394L5.38628 5.92048L5.16497 6.48239L4.7217 6.74022L4.10139 6.66928L3.3996 7.24476Z" fill="url(#paint18_linear_687_4269)"/>
<path d="M6.14151 11.1526L4.00281 7.75582L3.57686 7.58373C3.45959 7.78561 3.39139 8.0104 3.37736 8.24124C3.36203 8.40677 3.29494 8.56396 3.1849 8.69212C3.07486 8.82027 2.92704 8.91339 2.7609 8.9592L2.64928 8.98942L2.68071 8.88148C2.72217 8.71939 2.71691 8.54951 2.66548 8.39008C2.61405 8.23065 2.51841 8.08771 2.38884 7.97663C2.22118 7.82446 2.01437 7.718 1.78969 7.66823C1.67102 7.63862 1.56774 7.6121 1.49333 7.50724C1.4388 7.43076 1.45163 7.2852 1.4882 7.1754C1.51129 7.10571 1.55555 7.0175 1.63253 6.99036C1.74158 6.95274 1.82497 6.98728 1.90901 7.02429C2.02512 7.07363 2.1842 7.14148 2.52676 7.08597C3.19711 6.97433 3.56596 6.21072 3.62626 6.07564C3.62626 6.02445 3.7289 5.93439 4.30944 5.59639C4.88998 5.25838 5.01828 5.21273 5.06575 5.23679C5.21842 5.24789 6.09212 5.28737 6.50587 4.7674C6.71692 4.50218 6.72847 4.33564 6.73681 4.21228C6.74258 4.12161 6.74836 4.03587 6.83367 3.96062C6.89397 3.90758 6.99597 3.91128 7.07102 3.92362C7.18905 3.94274 7.32761 3.99887 7.37444 4.0809C7.43859 4.19378 7.41357 4.2937 7.38599 4.40904C7.32718 4.62288 7.32873 4.84793 7.39048 5.061C7.52904 5.60872 8.06596 5.72345 8.08906 5.72838L8.2026 5.7512L8.12305 5.83262C8.00394 5.95294 7.84975 6.03577 7.68075 6.07023C7.51175 6.10469 7.33587 6.08916 7.17622 6.02568C6.95721 5.92976 6.7182 5.88354 6.47765 5.8906L6.43916 6.33408L8.42776 9.4915L8.40723 9.52358C8.21176 9.84265 7.96419 10.1294 7.67402 10.3729C7.58293 10.4482 7.48542 10.5209 7.38471 10.5894L7.32761 10.6283L5.41022 7.60593C5.31592 7.58373 5.18763 7.54055 5.04137 7.49182C4.7604 7.39745 4.3691 7.26669 4.10352 7.25806L4.27672 7.32775C4.32692 7.34793 4.36916 7.38292 4.39732 7.42768L6.64251 10.9854L6.57131 11.0132C6.44734 11.0608 6.32079 11.102 6.19219 11.1365L6.14151 11.1526ZM3.52555 7.42768L4.09069 7.65589L4.1016 7.67316L6.20181 11.0039C6.26596 10.9854 6.34935 10.9595 6.4475 10.9243L4.2857 7.49306C4.27175 7.47133 4.25113 7.45431 4.22669 7.44433L3.71671 7.23832L3.84501 7.17664C4.1125 7.04711 4.65199 7.22783 5.08627 7.3734C5.21097 7.41817 5.33793 7.45687 5.46667 7.48936L5.49426 7.49491L7.36803 10.4463C7.44501 10.392 7.52006 10.3353 7.59062 10.2767C7.86009 10.0504 8.09143 9.78534 8.27637 9.49088L6.30381 6.36369L6.35513 5.77711L6.40773 5.77094C6.65021 5.74319 6.92476 5.79006 7.22434 5.90972C7.34213 5.95778 7.47118 5.97455 7.59801 5.95828C7.72484 5.942 7.8448 5.89328 7.94536 5.8172C7.77769 5.76079 7.62732 5.66501 7.50791 5.53856C7.38849 5.4121 7.30381 5.25898 7.26154 5.09307C7.19525 4.86091 7.1937 4.61606 7.25705 4.38313C7.28399 4.26902 7.29554 4.21105 7.25705 4.14258C7.19924 4.09047 7.12541 4.05779 7.04665 4.04944C7.00437 4.03765 6.9592 4.03982 6.91835 4.05561C6.87345 4.09509 6.86895 4.13518 6.86318 4.22276C6.8542 4.35291 6.84137 4.54967 6.60659 4.84512C6.11008 5.46933 5.06703 5.3657 5.02533 5.36077C4.87074 5.40394 3.87066 5.98806 3.75648 6.10093C3.74044 6.14102 3.35427 7.0761 2.54921 7.21118C2.16753 7.27286 1.98021 7.19514 1.85641 7.14271C1.77302 7.10694 1.73388 7.09214 1.67679 7.11187C1.66396 7.11619 1.6351 7.14888 1.61264 7.21796C1.58321 7.28868 1.57915 7.36682 1.6011 7.44001C1.646 7.50169 1.70502 7.52081 1.82305 7.55104C2.06695 7.60475 2.29178 7.71943 2.4748 7.88349C2.60892 7.99619 2.71154 8.13941 2.77328 8.30006C2.83503 8.46071 2.85393 8.63367 2.82825 8.80315C2.94501 8.75258 3.04548 8.67277 3.11917 8.57208C3.19286 8.47138 3.23706 8.3535 3.24714 8.23076C3.27537 7.92235 3.3594 7.66453 3.49732 7.47085L3.52555 7.42768ZM2.86931 7.41966L2.83018 7.30062C3.4986 7.03107 3.87387 6.29523 3.87708 6.28782L3.89247 6.25822L4.65135 6.14473L5.1068 5.55074H5.14144C5.15042 5.55074 6.00167 5.57171 6.55976 5.12638L6.65213 5.21458L6.2743 5.6593L6.248 5.6519L5.43845 5.96585L5.21842 6.52098L4.73731 6.801L4.12277 6.73377L3.42868 7.30247L2.86931 7.41966ZM3.97907 6.37109C3.80006 6.6973 3.55127 6.98339 3.24907 7.21056L3.36902 7.18527L4.08171 6.60116L4.70844 6.67209L5.11322 6.43647L5.33709 5.86963L6.21721 5.52854L6.29419 5.43725C5.94279 5.59263 5.56092 5.67401 5.17416 5.67595L4.72512 6.25883L3.97907 6.37109Z" fill="url(#paint19_linear_687_4269)"/>
<path d="M34.6012 7.05301C34.3921 6.98023 34.3234 7.25039 33.7179 7.14924C32.9398 7.01971 32.56 6.0797 32.56 6.0797C32.5914 6.02974 31.2514 5.24948 31.2206 5.29883C31.2206 5.29883 30.1782 5.41047 29.6983 4.80538C29.325 4.33661 29.5418 4.1528 29.3776 4.00786C29.2942 3.93446 28.9927 4.01587 28.9382 4.11148C28.8201 4.32489 29.0793 4.48156 28.9286 5.07678C28.7778 5.67199 28.1793 5.79042 28.1793 5.79042C28.2889 5.90217 28.4313 5.97912 28.5875 6.01097C28.7437 6.04282 28.9064 6.02807 29.0537 5.96867C29.282 5.87739 29.5668 5.80275 29.8382 5.83421L29.8831 6.34986L27.9028 9.49247C28.0946 9.80547 28.3374 10.0868 28.6219 10.3258C28.7162 10.4035 28.8144 10.4744 28.9068 10.5386L30.8023 7.55201C31.1269 7.48601 32.0436 7.07029 32.381 7.23436L32.0019 7.38732C31.9643 7.4021 31.9328 7.42832 31.9121 7.46196L29.7099 10.9561C29.8314 11.004 29.9556 11.0452 30.0819 11.0795L32.2078 7.70559L32.7043 7.50513C32.8589 7.72348 32.9218 7.99857 32.943 8.23543C32.9563 8.38841 33.0177 8.53386 33.1191 8.65242C33.2206 8.77099 33.3571 8.85703 33.5107 8.89911C33.5107 8.89911 33.3432 8.33412 33.8224 7.93011C34.3016 7.5261 34.5653 7.67414 34.707 7.47491C34.7712 7.38547 34.7058 7.09002 34.6012 7.05301ZM32.8551 7.24484L32.1494 6.66813L31.5291 6.73906L31.0859 6.48124L30.8639 5.91933L30.0069 5.58749H30.0005L29.6502 5.17485C30.2346 5.64177 31.1122 5.6134 31.1122 5.6134L31.5612 6.20183L32.313 6.3147C32.313 6.3147 32.6934 7.07522 33.3939 7.35772L32.8551 7.24484Z" fill="url(#paint20_linear_687_4269)"/>
<path d="M30.1115 11.153L30.064 11.1407C29.9354 11.1062 29.8089 11.065 29.6849 11.0173L29.6137 10.9895L31.8589 7.43182C31.8871 7.38706 31.9293 7.35207 31.9795 7.3319L32.1527 7.2622C31.8871 7.27084 31.4958 7.4016 31.2148 7.49597C31.068 7.5447 30.9397 7.58787 30.846 7.61008L28.9286 10.6324L28.8715 10.5936C28.7708 10.5251 28.6733 10.4523 28.5822 10.3771C28.2923 10.1337 28.045 9.84715 27.8496 9.52834L27.8291 9.49626L29.8177 6.33884L29.7786 5.89536C29.5381 5.88878 29.2992 5.93498 29.08 6.03044C28.9203 6.09383 28.7445 6.10932 28.5755 6.07486C28.4065 6.04041 28.2523 5.95763 28.1332 5.83738L28.0536 5.75597L28.1678 5.73314C28.1903 5.72821 28.7278 5.61348 28.8664 5.06576C28.9281 4.85269 28.9296 4.62764 28.8709 4.4138C28.8433 4.29846 28.8196 4.19854 28.8824 4.08566C28.9273 4.00424 29.0672 3.9475 29.1858 3.92838C29.2603 3.91604 29.3629 3.91234 29.4232 3.96538C29.5079 4.04063 29.5136 4.12637 29.5201 4.21704C29.5284 4.3404 29.5393 4.5057 29.7503 4.77216C30.1647 5.29275 31.0384 5.25265 31.1911 5.24155C31.2379 5.21811 31.3675 5.26376 31.9417 5.59745C32.5273 5.93854 32.6312 6.02921 32.6306 6.0804C32.6909 6.21548 33.0598 6.97909 33.7301 7.09073C34.0727 7.14809 34.2317 7.08024 34.3478 7.02905C34.4338 6.99204 34.5153 6.9575 34.6243 6.99512C34.7013 7.02226 34.7449 7.11047 34.7687 7.18017C34.8052 7.28996 34.8181 7.43491 34.7635 7.51201C34.6885 7.61686 34.5858 7.64339 34.4672 7.67299C34.2425 7.72265 34.0356 7.82912 33.868 7.98139C33.739 8.09194 33.6436 8.23411 33.5921 8.39272C33.5406 8.55134 33.5349 8.72042 33.5755 8.88193L33.6069 8.98987L33.4953 8.95964C33.3292 8.91383 33.1814 8.82072 33.0713 8.69256C32.9613 8.56441 32.8942 8.40722 32.8789 8.24168C32.8644 8.01068 32.7955 7.78585 32.6774 7.58417L32.2515 7.75626L30.1115 11.153ZM29.8055 10.9285C29.9037 10.9636 29.9871 10.9902 30.0512 11.008L32.1642 7.65942L32.7294 7.4312L32.7589 7.47376C32.9089 7.7022 32.9953 7.96388 33.0097 8.23367C33.0198 8.35633 33.0639 8.47414 33.1375 8.57482C33.2111 8.67549 33.3114 8.75535 33.428 8.80606C33.4026 8.63654 33.4217 8.46361 33.4836 8.303C33.5454 8.14239 33.648 7.99918 33.7821 7.88641C33.9651 7.72234 34.1899 7.60766 34.4338 7.55395C34.5518 7.52372 34.6102 7.50645 34.6558 7.44292C34.6777 7.36953 34.6736 7.29119 34.6442 7.22026C34.6353 7.17933 34.6128 7.14231 34.5801 7.11478C34.523 7.09505 34.4838 7.10985 34.4005 7.14562C34.2766 7.19805 34.0893 7.27762 33.7077 7.21409C32.9026 7.08024 32.5164 6.14517 32.5004 6.10384C32.3888 5.9922 31.3868 5.40809 31.2322 5.36368C31.1885 5.36861 30.1474 5.47224 29.6509 4.84803C29.4155 4.55258 29.4027 4.35459 29.3943 4.22568C29.3885 4.13809 29.3841 4.098 29.3392 4.05852C29.2983 4.04278 29.2531 4.04061 29.2109 4.05235C29.1304 4.05882 29.0546 4.09095 28.9953 4.14364C28.9575 4.21211 28.969 4.267 28.9953 4.38419C29.0587 4.61712 29.0571 4.86197 28.9908 5.09414C28.9489 5.26058 28.8643 5.41428 28.7448 5.5412C28.6252 5.66813 28.4745 5.76423 28.3064 5.82073C28.407 5.89675 28.5269 5.94543 28.6537 5.9617C28.7806 5.97798 28.9096 5.96125 29.0274 5.91325C29.3276 5.79359 29.6047 5.74671 29.8446 5.77447L29.8972 5.78064L29.9486 6.36722L29.9377 6.38511L27.9779 9.49503C28.1629 9.78949 28.3942 10.0546 28.6637 10.2808C28.7342 10.3392 28.8084 10.3958 28.8863 10.4505L30.76 7.49905L30.787 7.4935C30.916 7.46111 31.0431 7.42241 31.168 7.37754C31.6023 7.23198 32.1418 7.05125 32.4093 7.18078L32.5376 7.24246L32.0276 7.44848C32.0032 7.45845 31.9825 7.47548 31.9686 7.4972L29.8055 10.9285ZM33.3831 7.4201L32.823 7.30291L32.1302 6.73422L31.5157 6.80392L31.034 6.52389L30.8146 5.96876L30.005 5.65481L29.9851 5.66036L29.9511 5.63014L29.5983 5.21626L29.6907 5.12806C30.2494 5.57401 31.1019 5.5518 31.109 5.55242H31.143L31.5991 6.1464L32.358 6.25989L32.3727 6.2895C32.3766 6.2969 32.7518 7.02967 33.4203 7.30229L33.3831 7.4201ZM32.8833 7.18695L33.0033 7.21224C32.701 6.98504 32.452 6.69897 32.2727 6.37277L31.5279 6.26113L31.0789 5.67825C30.6923 5.6761 30.3106 5.5945 29.9595 5.43893L30.0364 5.53022L30.9166 5.87069L31.1404 6.43753L31.5446 6.67315L32.1713 6.6016L32.8833 7.18695Z" fill="url(#paint21_linear_687_4269)"/>
<path d="M2.1635 3.35712C2.09988 3.39593 2.05461 3.45717 2.0374 3.5277C2.02019 3.59823 2.03241 3.67243 2.07143 3.7344C2.11045 3.79637 2.17317 3.84117 2.24615 3.8592C2.31912 3.87722 2.39653 3.86704 2.46179 3.83082L3.52857 3.20909C3.56088 3.19025 3.58901 3.16549 3.61136 3.1362C3.63372 3.10692 3.64985 3.07368 3.65884 3.0384C3.66784 3.00312 3.66952 2.96648 3.66379 2.93057C3.65805 2.89467 3.64502 2.8602 3.62544 2.82914C3.60585 2.79807 3.58009 2.77102 3.54964 2.74953C3.51918 2.72804 3.48462 2.71253 3.44792 2.70388C3.41123 2.69523 3.37312 2.69361 3.33578 2.69913C3.29844 2.70464 3.26259 2.71717 3.23028 2.736L2.1635 3.35712Z" fill="url(#paint22_linear_687_4269)"/>
<path d="M2.31513 3.91774C2.28791 3.91771 2.26078 3.9146 2.23431 3.90849C2.16977 3.89292 2.11147 3.85931 2.06677 3.81191C2.02208 3.76451 1.99299 3.70544 1.98318 3.64216C1.97336 3.57888 1.98326 3.51422 2.01163 3.45634C2.04 3.39847 2.08557 3.34997 2.14257 3.31697L3.20872 2.69585C3.28528 2.65127 3.37712 2.63777 3.46404 2.6583C3.55096 2.67883 3.62583 2.73172 3.67219 2.80533C3.71855 2.87895 3.7326 2.96726 3.71125 3.05083C3.68989 3.1344 3.63489 3.2064 3.55833 3.25097L2.48898 3.87086C2.43656 3.90144 2.37644 3.91765 2.31513 3.91774ZM3.38064 2.74581C3.33719 2.74593 3.29461 2.75744 3.25747 2.77912L2.19069 3.39716C2.13676 3.42873 2.09805 3.47956 2.08302 3.53852C2.06799 3.59748 2.07787 3.65976 2.1105 3.71173C2.14334 3.76375 2.19632 3.80109 2.25779 3.81555C2.31927 3.83001 2.38419 3.8204 2.4383 3.78883L3.50444 3.16771C3.54927 3.14185 3.58403 3.10255 3.60338 3.05585C3.62272 3.00915 3.62558 2.95763 3.61152 2.90922C3.59746 2.8608 3.56725 2.81817 3.52554 2.78787C3.48382 2.75757 3.43291 2.74127 3.38064 2.74149V2.74581Z" fill="url(#paint23_linear_687_4269)"/>
<path d="M2.80918 2.06545L1.74304 2.68658C1.71073 2.70541 1.6826 2.73017 1.66025 2.75946C1.63789 2.78875 1.62176 2.82198 1.61277 2.85726C1.60377 2.89254 1.60209 2.92918 1.60782 2.96509C1.61355 3.001 1.62659 3.03546 1.64617 3.06653C1.66576 3.09759 1.69151 3.12464 1.72197 3.14613C1.75243 3.16762 1.78699 3.18314 1.82369 3.19179C1.86038 3.20044 1.89849 3.20205 1.93583 3.19654C1.97317 3.19103 2.00902 3.1785 2.04133 3.15966L3.1049 2.53978C3.17015 2.50174 3.21701 2.44035 3.23518 2.36909C3.25334 2.29784 3.24132 2.22256 3.20177 2.15983C3.16221 2.09709 3.09836 2.05203 3.02425 2.03457C2.95015 2.0171 2.87186 2.02865 2.80661 2.06669L2.80918 2.06545Z" fill="url(#paint24_linear_687_4269)"/>
<path d="M1.89157 3.24745C1.818 3.24758 1.7464 3.22453 1.68773 3.18183C1.62906 3.13914 1.58655 3.07915 1.5667 3.01102C1.54684 2.9429 1.55073 2.8704 1.57777 2.80461C1.60481 2.73882 1.65352 2.68335 1.71645 2.64668L2.78323 2.02556C2.82117 2.00302 2.86345 1.98808 2.90754 1.98161C2.95163 1.97515 2.99662 1.9773 3.03983 1.98794C3.10457 2.00304 3.16319 2.0363 3.20824 2.0835C3.25328 2.13069 3.28273 2.18969 3.29283 2.25301C3.30294 2.31633 3.29325 2.38111 3.26499 2.43912C3.23673 2.49713 3.19118 2.54576 3.13412 2.57884L2.06734 3.20057C2.01435 3.23145 1.95353 3.24767 1.89157 3.24745ZM2.95707 2.07552C2.91361 2.07548 2.87098 2.08701 2.83391 2.10883L1.76712 2.72502C1.71268 2.75643 1.67345 2.80734 1.65805 2.86657C1.64265 2.92579 1.65235 2.98847 1.68502 3.04082C1.71768 3.09317 1.77063 3.1309 1.83223 3.1457C1.89382 3.16051 1.95901 3.15118 2.01345 3.11977L3.08024 2.49865C3.12047 2.47518 3.15261 2.44083 3.17264 2.39989C3.19267 2.35895 3.1997 2.31324 3.19286 2.26848C3.18601 2.22372 3.16559 2.18189 3.13415 2.14823C3.10271 2.11456 3.06165 2.09056 3.01609 2.07922C2.99676 2.07477 2.97695 2.0725 2.95707 2.07244V2.07552Z" fill="url(#paint25_linear_687_4269)"/>
<path d="M2.5206 1.90042L2.92217 1.71168L2.43785 0.0530937C1.94203 0.025664 1.4492 0.143441 1.02443 0.390879C0.599654 0.638318 0.262893 1.00379 0.0585938 1.43905L1.36401 2.62023L1.72324 2.36487C1.97395 2.1873 2.24082 2.03185 2.5206 1.90042Z" fill="url(#paint26_linear_687_4269)"/>
<path d="M1.36058 2.68109L0 1.44748L0.0147538 1.41726C0.224347 0.974327 0.567995 0.602471 1.00081 0.350263C1.43363 0.0980554 1.93549 -0.0227793 2.44084 0.00354251H2.47612L2.98097 1.73059L2.54284 1.93599C2.26561 2.06656 2.00112 2.22076 1.75253 2.39674L1.36058 2.68109ZM0.118033 1.42959L1.36828 2.56019L1.6948 2.32889C1.94798 2.14955 2.21742 1.99245 2.49986 1.85951L2.86486 1.68865L2.39914 0.0979139C1.9251 0.0808632 1.45628 0.197954 1.05079 0.434671C0.645307 0.671389 0.320985 1.01732 0.118033 1.42959Z" fill="url(#paint27_linear_687_4269)"/>
<path d="M3.14551 10.6997V40.5475L18.1254 47.4483L32.8891 40.4432C32.961 30.5986 33.033 20.7534 33.1053 10.9076L18.1787 6.12366L3.14551 10.6997Z" fill="url(#paint28_linear_687_4269)"/>
<path d="M18.1303 48.0058L2.625 40.8626V10.3308L18.1854 5.59497L33.6317 10.5454L33.4104 40.7553L18.1303 48.0058ZM3.66869 40.2304L18.1239 46.8875L32.3712 40.128L32.5822 11.2665L18.1803 6.65094L3.66869 11.0666V40.2304Z" fill="url(#paint29_linear_687_4269)"/>
<path d="M18.1273 46.4957L4.07178 39.8959V11.5371L18.1773 7.15784L32.1803 11.7339L31.9788 39.7954L18.1273 46.4957ZM4.59202 39.5807L18.1215 45.9338L31.4573 39.487L31.6543 12.0966L18.1728 7.6889L4.59395 11.9023L4.59202 39.5807Z" fill="url(#paint30_linear_687_4269)"/>
<path d="M32.809 25.2227L35.4346 24.313C35.0715 23.5317 34.6935 22.7942 34.3004 22.1005L32.496 23.0393L33.8431 21.3215C33.2797 20.3996 32.6512 19.5159 31.9622 18.6766L30.8525 19.4593L31.5645 18.2066C31.2652 17.8612 30.9596 17.5335 30.6478 17.2234L28.3424 19.4587L30.0782 16.6769C29.0756 15.7483 27.9591 14.9405 26.7534 14.2714L25.5987 15.2879L26.0048 13.8853C25.3589 13.571 24.6915 13.2994 24.0072 13.0723L22.6242 16.7207V12.6763C21.3443 12.3731 20.0335 12.2063 18.7156 12.1792L18.1569 15.7394L16.5108 13.1044V14.8993L15.4062 13.1797L15.727 17.2506L13.9116 12.5937C12.9238 12.7815 11.9478 13.0229 10.9883 13.3166L11.3007 14.9857L10.3577 13.5189C9.92025 13.6638 9.51162 13.81 9.13187 13.9537L11.1776 17.625L8.19723 14.3275C7.52432 14.6043 6.86716 14.9152 6.22852 15.2589L11.1776 20.6997L17.4423 23.8596L29.3219 26.8271L36.6245 27.1934C36.3744 26.5063 36.1113 25.8519 35.8419 25.2227H32.809Z" fill="url(#paint31_linear_687_4269)"/>
<path d="M36.9998 27.4638L29.2564 27.0697L17.3447 24.0955L11.0107 20.9004L5.82178 15.1962L6.09377 15.0426C6.74108 14.6934 7.40747 14.378 8.09006 14.0977L8.26583 14.0237L9.84708 15.7729L8.76105 13.8238L9.03368 13.7208C9.43717 13.5672 9.85286 13.4198 10.2705 13.2817L10.4674 13.22L10.7978 13.7332L10.6906 13.1491L10.9087 13.0824C11.8774 12.7863 12.8625 12.5427 13.8596 12.3528L14.0764 12.3121L15.3266 15.5151L15.0623 12.1745L16.2484 14.0194V12.1986L18.0048 15.013L18.4885 11.9229L18.7188 11.9284C20.056 11.9563 21.3859 12.1257 22.6844 12.4336L22.882 12.4811V15.2992L23.8442 12.7543L24.0867 12.8351C24.7818 13.0663 25.4598 13.3423 26.1164 13.661L26.3088 13.7541L26.0907 14.5134L26.7142 13.9639L26.8797 14.0551C28.1035 14.7341 29.2369 15.5535 30.2552 16.4952L30.406 16.6334L29.6727 17.809L30.6472 16.8641L30.8326 17.0491C31.143 17.3575 31.4554 17.6937 31.7614 18.0446L31.8762 18.1766L31.6421 18.5868L32.0065 18.3302L32.1623 18.5196C32.8581 19.3684 33.4934 20.2615 34.0637 21.1928L34.1522 21.3371L33.4216 22.2697L34.4082 21.7596L34.5326 21.9792C34.9214 22.6663 35.3063 23.417 35.6725 24.2102L35.7867 24.4569L34.301 24.972H36.017L36.0812 25.1274C36.3692 25.7979 36.6264 26.4467 36.8683 27.111L36.9998 27.4638ZM29.3623 26.5781L36.2479 26.9235C36.0664 26.4406 35.8746 25.9625 35.6706 25.474H31.3169L35.0804 24.1683C34.7931 23.5613 34.4961 22.9815 34.1952 22.4412L31.5651 23.808L33.5261 21.3051C33.0344 20.5145 32.4946 19.7524 31.9096 19.0229L30.0551 20.3311L31.2476 18.2377C31.0468 18.0113 30.8441 17.793 30.642 17.5845L27.0093 21.1058L29.7465 16.7185C28.8444 15.9042 27.8523 15.1874 26.788 14.5807L25.1067 16.061L25.6943 14.0144C25.1954 13.78 24.6841 13.5711 24.1624 13.3884L22.3624 18.1378V12.874C21.2383 12.6214 20.0912 12.4749 18.9375 12.4367L18.307 16.4693L16.7725 14.0126V15.7828L15.7462 14.1884L16.1259 18.9853L13.7447 12.8844C12.9268 13.0461 12.1019 13.2502 11.2853 13.492L11.7985 16.2454L10.2422 13.8226C9.99206 13.9071 9.74316 13.9947 9.49812 14.0854L12.5022 19.4768L8.12662 14.6294C7.44216 14.9224 6.93026 15.1753 6.63774 15.3258L11.3417 20.497L17.5372 23.6242L29.3623 26.5781Z" fill="url(#paint32_linear_687_4269)"/>
<path d="M12.7143 25.3616L10.5923 20.9576C10.5923 20.9576 20.5423 16.2304 25.7518 20.9576C25.7518 20.9576 28.446 23.4705 29.3223 26.829L27.673 27.6524L12.7143 25.3616Z" fill="url(#paint33_linear_687_4269)"/>
<path d="M20.316 20.5656C23.349 20.3744 25.1573 21.6395 26.2331 23.298C26.4739 23.5017 26.6979 23.7232 26.9028 23.9605C26.7232 23.5961 26.5148 23.2455 26.2793 22.9119C24.9322 21.0208 22.9217 20.1462 20.2994 20.3121C20.25 20.3152 15.3259 20.6705 11.7939 23.8143L11.9748 23.9993C15.4344 20.9203 20.2679 20.5687 20.316 20.5656Z" fill="url(#paint34_linear_687_4269)"/>
<path d="M27.7255 27.959L27.6254 27.9436L12.5044 25.6256L10.188 20.8183L10.4561 20.6949C10.6396 20.6073 14.9946 18.5632 19.5055 18.5632C22.194 18.5632 24.3654 19.2972 25.9608 20.7449C26.0762 20.8528 28.73 23.3583 29.6172 26.7581L29.6762 26.9838L27.7255 27.959ZM12.9233 25.0933L27.6228 27.3465L28.9629 26.6742C28.0597 23.5519 25.563 21.1908 25.5374 21.1674C24.062 19.8295 22.0323 19.1492 19.5074 19.1492C15.7657 19.1492 12.0213 20.6554 11.0007 21.0989L12.9233 25.0933Z" fill="url(#paint35_linear_687_4269)"/>
<path d="M29.03 30.6924C29.03 30.6924 29.4387 21.1246 21.4214 21.6316C21.4214 21.6316 14.5152 22.0819 11.1782 27.2032L17.967 31.5356L27.273 32.0426L29.03 30.6924Z" fill="url(#paint36_linear_687_4269)"/>
<path d="M26.214 23.0177C27.6002 25.2752 26.9016 27.9595 26.9016 27.9595C23.4909 28.9162 20.6793 28.292 18.8356 27.5382C16.3056 26.3663 17.6008 24.6794 18.0588 24.1884C19.2285 23.0392 20.6542 22.1602 22.2284 21.6175C21.9686 21.6114 21.7024 21.6145 21.4234 21.6317C21.4234 21.6317 14.5172 22.082 11.1802 27.2033L17.969 31.5358L27.275 32.0428L29.032 30.6926C29.032 30.6926 29.2437 25.5657 26.214 23.0177Z" fill="url(#paint37_linear_687_4269)"/>
<path d="M27.3726 32.3428L27.2558 32.3361L17.8658 31.826L17.7972 31.7809L10.7607 27.29L10.9185 27.0463C14.2985 21.8572 21.1117 21.3563 21.3997 21.3378C23.6501 21.1966 25.4725 21.8103 26.8171 23.158C29.5113 25.8553 29.3439 30.5072 29.3349 30.704L29.3291 30.8378L27.3726 32.3428ZM18.0666 31.2462L27.1756 31.7396L28.728 30.5467C28.7338 29.7776 28.6472 25.8356 26.3764 23.562C25.2743 22.4629 23.8117 21.9078 22.0277 21.9078C21.8353 21.9078 21.6429 21.9145 21.4434 21.9275C21.3792 21.9318 14.8726 22.4148 11.6024 27.1204L18.0666 31.2462Z" fill="url(#paint38_linear_687_4269)"/>
<path d="M8.66211 23.0383C8.66211 23.0383 10.2049 29.7356 9.51913 38.9081L10.8258 36.6574V34.0125L13.1666 31.7612C13.1666 31.7612 14.6908 31.874 15.1 32.8868C15.1 32.8868 12.647 34.6885 11.4436 35.2504C11.4436 35.2504 13.0511 42.3979 12.817 47.4631L20.6354 38.7958C20.6354 38.7958 15.959 32.9979 22.7574 33.2242L29.3223 33.7306L29.0298 30.6922C29.0298 30.6922 20.8362 30.242 16.0366 27.9906C16.0366 27.9906 10.185 25.1768 8.66211 23.0383Z" fill="url(#paint39_linear_687_4269)"/>
<path d="M29.1132 31.5621L29.0291 30.6918C29.0291 30.6918 20.8355 30.2415 16.0359 27.9902C15.5073 27.7315 14.9727 27.4562 14.4322 27.1643C12.5524 26.1474 10.7536 24.9979 9.05078 23.725C9.27787 25.0258 9.4639 26.4525 9.57231 27.9908C9.71126 29.9545 9.71126 31.925 9.57231 33.8887C9.44401 36.9246 9.7006 37.6043 9.96425 37.6512C10.2279 37.6981 10.5788 37.1688 10.7469 36.7728C11.1959 35.7243 10.548 34.9964 11.0079 34.1379C11.1882 33.8196 11.4602 33.5581 11.7912 33.3847C12.1671 32.33 13.1633 31.7613 13.9812 31.942C14.6869 32.0975 15.039 32.7636 15.1 32.8839C15.1 32.8839 14.9402 33.0017 14.683 33.1849L15.4695 32.9838C15.4695 32.9838 15.6388 34.2174 13.0318 36.0863C13.0318 36.0863 13.9511 40.5051 13.6444 44.9233C13.6444 44.9233 14.6901 41.9676 14.2526 36.7735C14.2526 36.7735 16.8826 34.7997 19.3479 36.5724C18.7346 34.9638 18.8385 33.0924 22.758 33.2219L29.3229 33.7283L29.201 32.4663C27.0142 32.5607 23.3905 32.5897 20.1061 32.0401C20.1029 32.042 25.3778 32.0549 29.1132 31.5621Z" fill="url(#paint40_linear_687_4269)"/>
<path d="M29.3112 30.4122L29.0475 30.3981C28.9712 30.3937 21.6705 29.9712 16.9184 28.0505C16.6618 27.9473 16.4138 27.8396 16.1743 27.7273C16.1172 27.7002 10.3772 24.9227 8.91718 22.8724L8.02295 21.6179L8.3655 23.1025C8.3809 23.1685 9.88966 29.8676 9.21867 38.8871L9.11989 40.2083L11.1367 36.7339V35.2634L11.1476 35.3121C11.1636 35.3837 12.7436 42.4813 12.5146 47.449L12.4748 48.294L21.0322 38.8082L20.8783 38.6176C20.2952 37.8941 18.916 35.7525 19.5311 34.5467C19.8795 33.8645 20.8385 33.5185 22.3819 33.5185C22.4999 33.5185 22.6212 33.5185 22.7334 33.524L29.6614 34.0582L29.3112 30.4122ZM11.1354 35.0679V34.134L13.2812 32.0715C13.5917 32.1177 14.3602 32.2818 14.713 32.7999C14.1029 33.2391 12.2753 34.5344 11.3131 34.9852L11.1354 35.0679ZM22.7694 32.93C22.6359 32.9257 22.5076 32.9239 22.3845 32.9239C20.5883 32.9239 19.4426 33.3803 18.9846 34.2808C18.2026 35.8154 19.7416 38.0976 20.247 38.7792L13.1478 46.6484C13.1875 42.2037 12.0438 36.5858 11.7936 35.4102C12.3889 35.1018 13.1785 34.5899 13.8572 34.1285L14.5327 35.2776V33.661C14.9567 33.363 15.2531 33.1453 15.2877 33.12L15.4706 32.9862L15.3872 32.7795C14.9125 31.6076 13.2639 31.4725 13.1933 31.4676L13.0535 31.4571L10.5228 33.8904V36.5809L9.91083 37.6363C10.254 31.2394 9.54262 26.1637 9.17056 24.0462C11.3035 26.0323 15.6893 28.1541 15.9061 28.2571L15.9459 28.2756C16.2769 29.1046 16.8805 30.9896 16.9216 33.7831C16.9216 33.7831 17.6728 32.2627 17.055 28.7413C21.4171 30.3993 27.4086 30.8816 28.7525 30.9711L28.9879 33.4105L22.7694 32.93Z" fill="url(#paint41_linear_687_4269)"/>
<path d="M10.522 53.821H8.37365C8.33518 53.8196 8.29853 53.805 8.27038 53.7797C8.23529 53.7508 8.20557 53.7164 8.18249 53.6779C8.15831 53.6379 8.13976 53.595 8.12732 53.5503C8.11539 53.5102 8.1119 53.4683 8.11706 53.4269L8.34158 52.0551C8.35055 52.0125 8.36774 51.972 8.39226 51.9355C8.42122 51.8895 8.45473 51.8463 8.49233 51.8066C8.52798 51.768 8.56824 51.7336 8.61228 51.7042C8.64597 51.6799 8.68636 51.6657 8.72839 51.6635H10.8767C10.9153 51.6647 10.9521 51.6791 10.9806 51.7042C11.0159 51.7331 11.0456 51.7678 11.0685 51.8066C11.0927 51.847 11.1112 51.8904 11.1237 51.9355C11.1354 51.9743 11.1386 52.015 11.1333 52.0551L11.064 52.4906H10.2083L10.2327 52.3413C10.2352 52.325 10.2316 52.3084 10.2224 52.2944C10.2195 52.2878 10.2147 52.2822 10.2085 52.278C10.2024 52.2739 10.1952 52.2714 10.1878 52.271H9.22169C9.21312 52.2722 9.2049 52.2751 9.19751 52.2794C9.19013 52.2838 9.18373 52.2895 9.17871 52.2963C9.16633 52.3091 9.15731 52.3245 9.15241 52.3413L9.01834 53.1432C9.01565 53.1594 9.01906 53.176 9.02797 53.19C9.03162 53.197 9.0372 53.2029 9.04411 53.207C9.05101 53.2112 9.05896 53.2134 9.0671 53.2135H10.0319C10.04 53.2126 10.0478 53.2101 10.0548 53.2061C10.0618 53.202 10.0678 53.1965 10.0723 53.19C10.0845 53.1767 10.0929 53.1606 10.0967 53.1432L10.1217 52.9939H10.9774L10.9082 53.4257C10.9 53.4697 10.8825 53.5117 10.8568 53.549C10.8278 53.5944 10.7945 53.6371 10.7574 53.6767C10.7215 53.7151 10.681 53.7492 10.6368 53.7785C10.6037 53.8032 10.5638 53.818 10.522 53.821Z" fill="white"/>
<path d="M11.5254 53.821L11.8102 52.0847C11.7966 52.0628 11.7809 52.0422 11.7634 52.023C11.7377 51.9916 11.7101 51.9558 11.68 51.9151C11.6498 51.8746 11.6225 51.8322 11.5985 51.788C11.5765 51.7496 11.5613 51.7079 11.5536 51.6647H12.7359L12.6076 52.4369H13.6885L13.8168 51.6647H14.6725L14.3171 53.821H13.4614L13.5897 53.0488H12.5075L12.3792 53.821H11.5254Z" fill="white"/>
<path d="M15.2635 52.0847C15.2493 52.063 15.2334 52.0424 15.216 52.023C15.1904 51.9916 15.1628 51.9558 15.1326 51.9151C15.1026 51.8745 15.0754 51.832 15.0512 51.788C15.0291 51.7496 15.0139 51.7079 15.0063 51.6647H17.9288L17.8313 52.2722H16.0993L16.0711 52.4406H17.3791L17.2777 53.0445H15.9691L15.9447 53.2128H17.6767L17.5748 53.8204H14.978L15.2635 52.0847Z" fill="white"/>
<path d="M20.2864 51.6652H21.1427L20.788 53.8209H19.9643L19.031 52.7625L18.8558 53.8209H18.8514C18.8344 53.8467 18.8127 53.8693 18.7872 53.8875C18.7474 53.9183 18.6987 53.9535 18.6403 53.9911C18.5819 54.0288 18.5165 54.0688 18.4479 54.1108C18.3792 54.1527 18.3067 54.1904 18.24 54.2243C18.1791 54.2558 18.1163 54.284 18.0521 54.3088C18.0104 54.3272 17.9656 54.3384 17.9199 54.3421L18.36 51.6652H19.1798L20.1112 52.723L20.2864 51.6652Z" fill="white"/>
<path d="M23.4966 51.6652H24.3523L23.9976 53.8209H23.1746L22.2412 52.7625L22.0654 53.8209H22.0616C22.0448 53.8468 22.023 53.8694 21.9974 53.8875C21.9503 53.9244 21.9013 53.959 21.8505 53.9911C21.7922 54.0288 21.7274 54.0688 21.6549 54.1108C21.5824 54.1527 21.5138 54.1904 21.4471 54.2243C21.3863 54.2557 21.3237 54.2839 21.2597 54.3088C21.2178 54.3271 21.1729 54.3384 21.127 54.3421L21.5677 51.6652H22.3868L23.324 52.723L23.4966 51.6652Z" fill="white"/>
<path d="M26.5178 53.5616H25.4914L25.3201 53.8207H24.4009L25.5555 52.0936C25.5434 52.0731 25.529 52.0539 25.5126 52.0363C25.4869 52.0067 25.458 51.9697 25.4266 51.9265C25.3952 51.8833 25.3663 51.8395 25.3394 51.7933C25.3144 51.7548 25.299 51.7113 25.2945 51.6662H26.7538L27.4877 53.8219H26.6069L26.5178 53.5616ZM25.8859 52.9584H26.3221L26.1797 52.5155L25.8859 52.9584Z" fill="white"/>
<path d="M28.2428 51.6652H29.0992L28.7445 53.8209C28.7263 53.8468 28.7035 53.8693 28.6771 53.8875C28.6294 53.9245 28.5797 53.9591 28.5283 53.9911C28.4686 54.0288 28.4 54.0688 28.3307 54.1108C28.2614 54.1527 28.1889 54.1904 28.1209 54.2243C28.0529 54.2582 27.9926 54.286 27.933 54.3088C27.8926 54.327 27.8491 54.3382 27.8047 54.3421L28.2428 51.6652Z" fill="white"/>
<path d="M6.77051 57.4788L7.12525 55.32H7.9797L7.85141 56.0922H8.93166L9.05996 55.32H9.91634L9.5616 57.4788H8.7065L8.8348 56.7066H7.75262L7.62432 57.4788H6.77051Z" fill="white"/>
<path d="M10.5081 55.7423C10.4943 55.7206 10.4786 55.7 10.4613 55.6806C10.4357 55.6492 10.4074 55.6134 10.3779 55.5733C10.3478 55.5325 10.3206 55.4899 10.2965 55.4456C10.2738 55.4075 10.2586 55.3657 10.2516 55.3223H13.1754L13.0773 55.9298H11.3453L11.3164 56.0982H12.625L12.523 56.7021H11.2144L11.19 56.8704H12.922L12.82 57.478H10.2246L10.5081 55.7423Z" fill="white"/>
<path d="M13.5976 55.323H16.0673C16.106 55.3242 16.143 55.3389 16.1712 55.3643C16.2067 55.3929 16.2364 55.4274 16.2591 55.4661C16.2837 55.5066 16.3022 55.5502 16.3143 55.5956C16.3258 55.6345 16.3293 55.6751 16.3246 55.7153L16.2142 56.3814C16.2028 56.4559 16.185 56.5294 16.161 56.601C16.1431 56.6607 16.1098 56.7151 16.0643 56.7592C16.0188 56.8033 15.9625 56.8356 15.9005 56.8533C15.8187 56.8779 15.7335 56.8905 15.6478 56.8909H15.6067L16.1533 57.4787H15.1462L14.4206 56.7108L14.4848 56.3228H15.3123C15.3502 56.3228 15.3765 56.2988 15.3816 56.2519L15.422 56.0009C15.4249 55.9846 15.4212 55.9678 15.4117 55.954C15.4088 55.9473 15.4041 55.9416 15.3979 55.9375C15.3918 55.9333 15.3846 55.9309 15.3771 55.9305H14.3507L14.0941 57.4787C14.0773 57.5046 14.0555 57.5272 14.03 57.5453C13.9825 57.5827 13.9329 57.6173 13.8812 57.649C13.8215 57.6866 13.7561 57.7267 13.6836 57.7686C13.6111 57.8106 13.5418 57.8482 13.4738 57.8821C13.4058 57.916 13.3455 57.9438 13.2865 57.9666C13.2461 57.9848 13.2027 57.9961 13.1582 57.9999L13.5976 55.323Z" fill="white"/>
<path d="M16.7815 57.4787C16.7427 57.4777 16.7057 57.463 16.6776 57.4374C16.6422 57.4088 16.6124 57.3743 16.5897 57.3356C16.5656 57.2957 16.5471 57.253 16.5345 57.2085C16.5226 57.1685 16.5191 57.1265 16.5243 57.0852L16.7488 55.714C16.7575 55.6714 16.7747 55.6307 16.7995 55.5943C16.8282 55.5481 16.8618 55.5047 16.8995 55.4648C16.935 55.4263 16.9753 55.3921 17.0195 55.363C17.053 55.3384 17.0934 55.324 17.1356 55.3217H19.2839C19.3226 55.3229 19.3595 55.3376 19.3878 55.363C19.4232 55.3916 19.453 55.4261 19.4757 55.4648C19.5 55.5055 19.5185 55.549 19.5309 55.5943C19.5426 55.6332 19.5459 55.6739 19.5405 55.714L19.3166 57.0852C19.3085 57.1291 19.2913 57.1711 19.266 57.2085C19.2363 57.2534 19.2028 57.2959 19.1659 57.3356C19.1303 57.3743 19.0898 57.4085 19.0453 57.4374C19.0118 57.4621 18.9713 57.4765 18.9292 57.4787H16.7815ZM18.6418 55.9984C18.6423 55.9828 18.6373 55.9676 18.6277 55.9552C18.6246 55.9486 18.6198 55.943 18.6137 55.9389C18.6076 55.9348 18.6005 55.9323 18.593 55.9317H17.6289C17.6203 55.9329 17.6121 55.9358 17.6047 55.9402C17.5973 55.9445 17.5909 55.9502 17.5859 55.957C17.5738 55.97 17.5648 55.9853 17.5596 56.0021L17.4255 56.8039C17.4228 56.8201 17.4262 56.8368 17.4352 56.8508C17.4388 56.8578 17.4444 56.8636 17.4513 56.8678C17.4582 56.8719 17.4662 56.8741 17.4743 56.8742H18.4404C18.4485 56.8734 18.4563 56.8709 18.4633 56.8668C18.4703 56.8628 18.4762 56.8573 18.4808 56.8508C18.4931 56.8375 18.5016 56.8214 18.5052 56.8039L18.6418 55.9984Z" fill="white"/>
<path d="M19.8937 57.4356C19.8585 57.407 19.829 57.3725 19.8065 57.3339C19.7824 57.294 19.7639 57.2513 19.7513 57.2068C19.7394 57.1667 19.7359 57.1248 19.7411 57.0834L19.802 56.7195H20.6584L20.6417 56.8016C20.6391 56.8179 20.6427 56.8345 20.652 56.8484C20.655 56.855 20.6599 56.8606 20.666 56.8647C20.672 56.8688 20.6792 56.8713 20.6866 56.8719H21.5552L20.0304 56.3704C19.9964 56.3483 19.9655 56.3219 19.9386 56.2921C19.911 56.2624 19.8933 56.2255 19.888 56.186L19.9649 55.7123C19.974 55.6696 19.9914 55.629 20.0162 55.5926C20.0448 55.5462 20.0784 55.5028 20.1163 55.4631C20.1517 55.4244 20.192 55.3902 20.2363 55.3613C20.2698 55.3367 20.3102 55.3223 20.3524 55.32H22.3987C22.4374 55.3212 22.4744 55.3359 22.5026 55.3613C22.538 55.3899 22.5678 55.4244 22.5905 55.4631C22.6148 55.5036 22.6332 55.5472 22.645 55.5926C22.6569 55.6314 22.6604 55.6722 22.6553 55.7123L22.5982 56.0762H21.7425L21.7547 55.9942C21.7573 55.9779 21.7536 55.9612 21.7444 55.9473C21.7415 55.9406 21.7367 55.9348 21.7306 55.9306C21.7245 55.9263 21.7173 55.9238 21.7098 55.9232H20.8418L22.366 56.4253C22.4013 56.449 22.4336 56.4765 22.4622 56.5074C22.4878 56.5364 22.5041 56.572 22.509 56.6097L22.4314 57.0834C22.4233 57.1275 22.4059 57.1695 22.3801 57.2068C22.3509 57.2519 22.3176 57.2944 22.2807 57.3339C22.245 57.3724 22.2045 57.4066 22.1601 57.4356C22.1266 57.4604 22.0861 57.4748 22.044 57.477H19.9976C19.9589 57.4758 19.922 57.4611 19.8937 57.4356Z" fill="white"/>
<path d="M25.0694 57.4787C25.0525 57.5046 25.0307 57.5271 25.0052 57.5453C24.9575 57.5825 24.9076 57.6171 24.8558 57.649C24.7961 57.6866 24.7307 57.7267 24.6582 57.7686C24.5857 57.8106 24.5164 57.8482 24.4484 57.8821C24.3804 57.916 24.3201 57.9438 24.2611 57.9666C24.2207 57.9848 24.1773 57.9961 24.1328 57.9999L24.5735 55.323H27.1696L27.0721 55.9305H25.3401L25.3119 56.0989H26.6198L26.5185 56.7028H25.2041L25.0758 57.4787H25.0694Z" fill="white"/>
<path d="M29.7041 57.4787H27.5557C27.5172 57.4776 27.4805 57.4628 27.4525 57.4374C27.4169 57.4089 27.3871 57.3744 27.3646 57.3356C27.3405 57.2957 27.322 57.253 27.3094 57.2085C27.2975 57.1685 27.294 57.1265 27.2992 57.0852L27.5237 55.714C27.5324 55.6714 27.5496 55.6307 27.5744 55.5943C27.6031 55.5481 27.6367 55.5047 27.6744 55.4648C27.7099 55.4263 27.7502 55.3921 27.7944 55.363C27.8279 55.3384 27.8684 55.324 27.9105 55.3217H30.0588C30.0975 55.3229 30.1345 55.3376 30.1627 55.363C30.1979 55.3918 30.2277 55.4263 30.2506 55.4648C30.2749 55.5054 30.2933 55.5489 30.3051 55.5943C30.3173 55.6331 30.3208 55.6739 30.3154 55.714L30.2461 56.1458H29.3904L29.4148 55.9965C29.4164 55.9822 29.4132 55.9677 29.4058 55.9552C29.4027 55.9486 29.3979 55.943 29.3918 55.9389C29.3857 55.9348 29.3786 55.9323 29.3711 55.9317H28.4038C28.3952 55.9329 28.387 55.9358 28.3796 55.9402C28.3722 55.9445 28.3658 55.9502 28.3608 55.957C28.3484 55.9698 28.3394 55.9852 28.3345 56.0021L28.1998 56.8039C28.1972 56.8202 28.2009 56.8368 28.2101 56.8508C28.2137 56.8578 28.2193 56.8636 28.2262 56.8678C28.2331 56.8719 28.2411 56.8741 28.2492 56.8742H29.2133C29.2215 56.8734 29.2293 56.8709 29.2363 56.8668C29.2432 56.8628 29.2492 56.8573 29.2538 56.8508C29.2661 56.8375 29.2745 56.8214 29.2781 56.8039L29.3032 56.6546H30.1589L30.0896 57.0895C30.0815 57.1336 30.064 57.1755 30.0383 57.2128C30.0091 57.2579 29.9758 57.3004 29.9389 57.3399C29.9031 57.3784 29.8626 57.4126 29.8183 57.4417C29.7848 57.4645 29.7451 57.4774 29.7041 57.4787Z" fill="white"/>
<defs>
<linearGradient id="paint0_linear_687_4269" x1="33.3176" y1="2.89567" x2="34.3159" y2="2.29613" gradientUnits="userSpaceOnUse">
<stop stop-color="#180F29"/>
<stop offset="0.14" stop-color="#1D1330"/>
<stop offset="0.35" stop-color="#291E44"/>
<stop offset="0.6" stop-color="#3E3164"/>
<stop offset="0.88" stop-color="#5B4A90"/>
<stop offset="1" stop-color="#6956A5"/>
</linearGradient>
<linearGradient id="paint1_linear_687_4269" x1="32.9571" y1="2.6125" x2="34.6968" y2="2.6125" gradientUnits="userSpaceOnUse">
<stop stop-color="#BB9531"/>
<stop offset="0.37" stop-color="#F7EF8A"/>
<stop offset="0.63" stop-color="#DDC05B"/>
<stop offset="0.77" stop-color="#D1AB46"/>
<stop offset="0.79" stop-color="#D4AE49"/>
<stop offset="0.92" stop-color="#E5C05F"/>
<stop offset="1" stop-color="#EBC767"/>
</linearGradient>
<linearGradient id="paint2_linear_687_4269" x1="33.4162" y1="1.85543" x2="35.6517" y2="0.513161" gradientUnits="userSpaceOnUse">
<stop stop-color="#180F29"/>
<stop offset="0.14" stop-color="#1D1330"/>
<stop offset="0.35" stop-color="#291E44"/>
<stop offset="0.6" stop-color="#3E3164"/>
<stop offset="0.88" stop-color="#5B4A90"/>
<stop offset="1" stop-color="#6956A5"/>
</linearGradient>
<linearGradient id="paint3_linear_687_4269" x1="33.2713" y1="1.3413" x2="36.2516" y2="1.3413" gradientUnits="userSpaceOnUse">
<stop stop-color="#BB9531"/>
<stop offset="0.37" stop-color="#F7EF8A"/>
<stop offset="0.63" stop-color="#DDC05B"/>
<stop offset="0.77" stop-color="#D1AB46"/>
<stop offset="0.79" stop-color="#D4AE49"/>
<stop offset="0.92" stop-color="#E5C05F"/>
<stop offset="1" stop-color="#EBC767"/>
</linearGradient>
<linearGradient id="paint4_linear_687_4269" x1="32.0486" y1="4.90691" x2="33.0469" y2="4.30738" gradientUnits="userSpaceOnUse">
<stop stop-color="#180F29"/>
<stop offset="0.14" stop-color="#1D1330"/>
<stop offset="0.35" stop-color="#291E44"/>
<stop offset="0.6" stop-color="#3E3164"/>
<stop offset="0.88" stop-color="#5B4A90"/>
<stop offset="1" stop-color="#6956A5"/>
</linearGradient>
<linearGradient id="paint5_linear_687_4269" x1="31.691" y1="4.6239" x2="33.4307" y2="4.6239" gradientUnits="userSpaceOnUse">
<stop stop-color="#BB9531"/>
<stop offset="0.37" stop-color="#F7EF8A"/>
<stop offset="0.63" stop-color="#DDC05B"/>
<stop offset="0.77" stop-color="#D1AB46"/>
<stop offset="0.79" stop-color="#D4AE49"/>
<stop offset="0.92" stop-color="#E5C05F"/>
<stop offset="1" stop-color="#EBC767"/>
</linearGradient>
<linearGradient id="paint6_linear_687_4269" x1="31.6282" y1="5.57818" x2="32.6258" y2="4.97865" gradientUnits="userSpaceOnUse">
<stop stop-color="#180F29"/>
<stop offset="0.14" stop-color="#1D1330"/>
<stop offset="0.35" stop-color="#291E44"/>
<stop offset="0.6" stop-color="#3E3164"/>
<stop offset="0.88" stop-color="#5B4A90"/>
<stop offset="1" stop-color="#6956A5"/>
</linearGradient>
<linearGradient id="paint7_linear_687_4269" x1="31.2671" y1="5.29379" x2="33.0075" y2="5.29379" gradientUnits="userSpaceOnUse">
<stop stop-color="#BB9531"/>
<stop offset="0.37" stop-color="#F7EF8A"/>
<stop offset="0.63" stop-color="#DDC05B"/>
<stop offset="0.77" stop-color="#D1AB46"/>
<stop offset="0.79" stop-color="#D4AE49"/>
<stop offset="0.92" stop-color="#E5C05F"/>
<stop offset="1" stop-color="#EBC767"/>
</linearGradient>
<linearGradient id="paint8_linear_687_4269" x1="3.60476" y1="5.01257" x2="4.60306" y2="5.61211" gradientUnits="userSpaceOnUse">
<stop stop-color="#180F29"/>
<stop offset="0.14" stop-color="#1D1330"/>
<stop offset="0.35" stop-color="#291E44"/>
<stop offset="0.6" stop-color="#3E3164"/>
<stop offset="0.88" stop-color="#5B4A90"/>
<stop offset="1" stop-color="#6956A5"/>
</linearGradient>
<linearGradient id="paint9_linear_687_4269" x1="3.24458" y1="5.29411" x2="4.98493" y2="5.29411" gradientUnits="userSpaceOnUse">
<stop stop-color="#BB9531"/>
<stop offset="0.37" stop-color="#F7EF8A"/>
<stop offset="0.63" stop-color="#DDC05B"/>
<stop offset="0.77" stop-color="#D1AB46"/>
<stop offset="0.79" stop-color="#D4AE49"/>
<stop offset="0.92" stop-color="#E5C05F"/>
<stop offset="1" stop-color="#EBC767"/>
</linearGradient>
<linearGradient id="paint10_linear_687_4269" x1="3.18289" y1="4.34118" x2="4.18054" y2="4.9407" gradientUnits="userSpaceOnUse">
<stop stop-color="#180F29"/>
<stop offset="0.14" stop-color="#1D1330"/>
<stop offset="0.35" stop-color="#291E44"/>
<stop offset="0.6" stop-color="#3E3164"/>
<stop offset="0.88" stop-color="#5B4A90"/>
<stop offset="1" stop-color="#6956A5"/>
</linearGradient>
<linearGradient id="paint11_linear_687_4269" x1="2.82173" y1="4.62424" x2="4.56207" y2="4.62424" gradientUnits="userSpaceOnUse">
<stop stop-color="#BB9531"/>
<stop offset="0.37" stop-color="#F7EF8A"/>
<stop offset="0.63" stop-color="#DDC05B"/>
<stop offset="0.77" stop-color="#D1AB46"/>
<stop offset="0.79" stop-color="#D4AE49"/>
<stop offset="0.92" stop-color="#E5C05F"/>
<stop offset="1" stop-color="#EBC767"/>
</linearGradient>
<linearGradient id="paint12_linear_687_4269" x1="32.8952" y1="3.56622" x2="33.8929" y2="2.96669" gradientUnits="userSpaceOnUse">
<stop stop-color="#180F29"/>
<stop offset="0.14" stop-color="#1D1330"/>
<stop offset="0.35" stop-color="#291E44"/>
<stop offset="0.6" stop-color="#3E3164"/>
<stop offset="0.88" stop-color="#5B4A90"/>
<stop offset="1" stop-color="#6956A5"/>
</linearGradient>
<linearGradient id="paint13_linear_687_4269" x1="32.5332" y1="3.28327" x2="34.2736" y2="3.28327" gradientUnits="userSpaceOnUse">
<stop stop-color="#BB9531"/>
<stop offset="0.37" stop-color="#F7EF8A"/>
<stop offset="0.63" stop-color="#DDC05B"/>
<stop offset="0.77" stop-color="#D1AB46"/>
<stop offset="0.79" stop-color="#D4AE49"/>
<stop offset="0.92" stop-color="#E5C05F"/>
<stop offset="1" stop-color="#EBC767"/>
</linearGradient>
<linearGradient id="paint14_linear_687_4269" x1="32.4724" y1="4.23718" x2="33.4707" y2="3.63764" gradientUnits="userSpaceOnUse">
<stop stop-color="#180F29"/>
<stop offset="0.14" stop-color="#1D1330"/>
<stop offset="0.35" stop-color="#291E44"/>
<stop offset="0.6" stop-color="#3E3164"/>
<stop offset="0.88" stop-color="#5B4A90"/>
<stop offset="1" stop-color="#6956A5"/>
</linearGradient>
<linearGradient id="paint15_linear_687_4269" x1="32.1122" y1="3.9535" x2="33.8525" y2="3.9535" gradientUnits="userSpaceOnUse">
<stop stop-color="#BB9531"/>
<stop offset="0.37" stop-color="#F7EF8A"/>
<stop offset="0.63" stop-color="#DDC05B"/>
<stop offset="0.77" stop-color="#D1AB46"/>
<stop offset="0.79" stop-color="#D4AE49"/>
<stop offset="0.92" stop-color="#E5C05F"/>
<stop offset="1" stop-color="#EBC767"/>
</linearGradient>
<linearGradient id="paint16_linear_687_4269" x1="2.76101" y1="3.67157" x2="3.75931" y2="4.27111" gradientUnits="userSpaceOnUse">
<stop stop-color="#180F29"/>
<stop offset="0.14" stop-color="#1D1330"/>
<stop offset="0.35" stop-color="#291E44"/>
<stop offset="0.6" stop-color="#3E3164"/>
<stop offset="0.88" stop-color="#5B4A90"/>
<stop offset="1" stop-color="#6956A5"/>
</linearGradient>
<linearGradient id="paint17_linear_687_4269" x1="2.40092" y1="3.95342" x2="4.14062" y2="3.95342" gradientUnits="userSpaceOnUse">
<stop stop-color="#BB9531"/>
<stop offset="0.37" stop-color="#F7EF8A"/>
<stop offset="0.63" stop-color="#DDC05B"/>
<stop offset="0.77" stop-color="#D1AB46"/>
<stop offset="0.79" stop-color="#D4AE49"/>
<stop offset="0.92" stop-color="#E5C05F"/>
<stop offset="1" stop-color="#EBC767"/>
</linearGradient>
<linearGradient id="paint18_linear_687_4269" x1="1.51878" y1="7.53034" x2="8.34993" y2="7.53034" gradientUnits="userSpaceOnUse">
<stop stop-color="#180F29"/>
<stop offset="0.14" stop-color="#1D1330"/>
<stop offset="0.35" stop-color="#291E44"/>
<stop offset="0.6" stop-color="#3E3164"/>
<stop offset="0.88" stop-color="#5B4A90"/>
<stop offset="1" stop-color="#6956A5"/>
</linearGradient>
<linearGradient id="paint19_linear_687_4269" x1="1.4542" y1="7.53562" x2="8.42712" y2="7.53562" gradientUnits="userSpaceOnUse">
<stop stop-color="#BB9531"/>
<stop offset="0.37" stop-color="#F7EF8A"/>
<stop offset="0.63" stop-color="#DDC05B"/>
<stop offset="0.77" stop-color="#D1AB46"/>
<stop offset="0.79" stop-color="#D4AE49"/>
<stop offset="0.92" stop-color="#E5C05F"/>
<stop offset="1" stop-color="#EBC767"/>
</linearGradient>
<linearGradient id="paint20_linear_687_4269" x1="27.9015" y1="7.53042" x2="34.7321" y2="7.53042" gradientUnits="userSpaceOnUse">
<stop stop-color="#180F29"/>
<stop offset="0.14" stop-color="#1D1330"/>
<stop offset="0.35" stop-color="#291E44"/>
<stop offset="0.6" stop-color="#3E3164"/>
<stop offset="0.88" stop-color="#5B4A90"/>
<stop offset="1" stop-color="#6956A5"/>
</linearGradient>
<linearGradient id="paint21_linear_687_4269" x1="27.8259" y1="7.53606" x2="34.7982" y2="7.53606" gradientUnits="userSpaceOnUse">
<stop stop-color="#BB9531"/>
<stop offset="0.37" stop-color="#F7EF8A"/>
<stop offset="0.63" stop-color="#DDC05B"/>
<stop offset="0.77" stop-color="#D1AB46"/>
<stop offset="0.79" stop-color="#D4AE49"/>
<stop offset="0.92" stop-color="#E5C05F"/>
<stop offset="1" stop-color="#EBC767"/>
</linearGradient>
<linearGradient id="paint22_linear_687_4269" x1="2.3367" y1="3.00061" x2="3.335" y2="3.60015" gradientUnits="userSpaceOnUse">
<stop stop-color="#180F29"/>
<stop offset="0.14" stop-color="#1D1330"/>
<stop offset="0.35" stop-color="#291E44"/>
<stop offset="0.6" stop-color="#3E3164"/>
<stop offset="0.88" stop-color="#5B4A90"/>
<stop offset="1" stop-color="#6956A5"/>
</linearGradient>
<linearGradient id="paint23_linear_687_4269" x1="1.97771" y1="3.28305" x2="3.71742" y2="3.28305" gradientUnits="userSpaceOnUse">
<stop stop-color="#BB9531"/>
<stop offset="0.37" stop-color="#F7EF8A"/>
<stop offset="0.63" stop-color="#DDC05B"/>
<stop offset="0.77" stop-color="#D1AB46"/>
<stop offset="0.79" stop-color="#D4AE49"/>
<stop offset="0.92" stop-color="#E5C05F"/>
<stop offset="1" stop-color="#EBC767"/>
</linearGradient>
<linearGradient id="paint24_linear_687_4269" x1="1.91624" y1="2.33006" x2="2.91392" y2="2.92896" gradientUnits="userSpaceOnUse">
<stop stop-color="#180F29"/>
<stop offset="0.14" stop-color="#1D1330"/>
<stop offset="0.35" stop-color="#291E44"/>
<stop offset="0.6" stop-color="#3E3164"/>
<stop offset="0.88" stop-color="#5B4A90"/>
<stop offset="1" stop-color="#6956A5"/>
</linearGradient>
<linearGradient id="paint25_linear_687_4269" x1="1.55479" y1="2.61276" x2="3.29449" y2="2.61276" gradientUnits="userSpaceOnUse">
<stop stop-color="#BB9531"/>
<stop offset="0.37" stop-color="#F7EF8A"/>
<stop offset="0.63" stop-color="#DDC05B"/>
<stop offset="0.77" stop-color="#D1AB46"/>
<stop offset="0.79" stop-color="#D4AE49"/>
<stop offset="0.92" stop-color="#E5C05F"/>
<stop offset="1" stop-color="#EBC767"/>
</linearGradient>
<linearGradient id="paint26_linear_687_4269" x1="0.555101" y1="0.589096" x2="2.7906" y2="1.93136" gradientUnits="userSpaceOnUse">
<stop stop-color="#180F29"/>
<stop offset="0.14" stop-color="#1D1330"/>
<stop offset="0.35" stop-color="#291E44"/>
<stop offset="0.6" stop-color="#3E3164"/>
<stop offset="0.88" stop-color="#5B4A90"/>
<stop offset="1" stop-color="#6956A5"/>
</linearGradient>
<linearGradient id="paint27_linear_687_4269" x1="0" y1="1.34139" x2="2.98097" y2="1.34139" gradientUnits="userSpaceOnUse">
<stop stop-color="#BB9531"/>
<stop offset="0.37" stop-color="#F7EF8A"/>
<stop offset="0.63" stop-color="#DDC05B"/>
<stop offset="0.77" stop-color="#D1AB46"/>
<stop offset="0.79" stop-color="#D4AE49"/>
<stop offset="0.92" stop-color="#E5C05F"/>
<stop offset="1" stop-color="#EBC767"/>
</linearGradient>
<linearGradient id="paint28_linear_687_4269" x1="28.393" y1="8.29172" x2="8.75712" y2="43.6629" gradientUnits="userSpaceOnUse">
<stop stop-color="#180F29"/>
<stop offset="0.14" stop-color="#1D1330"/>
<stop offset="0.35" stop-color="#291E44"/>
<stop offset="0.6" stop-color="#3E3164"/>
<stop offset="0.88" stop-color="#5B4A90"/>
<stop offset="1" stop-color="#6956A5"/>
</linearGradient>
<linearGradient id="paint29_linear_687_4269" x1="2.625" y1="26.8007" x2="33.6317" y2="26.8007" gradientUnits="userSpaceOnUse">
<stop stop-color="#BB9531"/>
<stop offset="0.37" stop-color="#F7EF8A"/>
<stop offset="0.63" stop-color="#DDC05B"/>
<stop offset="0.77" stop-color="#D1AB46"/>
<stop offset="0.79" stop-color="#D4AE49"/>
<stop offset="0.92" stop-color="#E5C05F"/>
<stop offset="1" stop-color="#EBC767"/>
</linearGradient>
<linearGradient id="paint30_linear_687_4269" x1="4.07178" y1="26.8277" x2="32.1803" y2="26.8277" gradientUnits="userSpaceOnUse">
<stop stop-color="#BB9531"/>
<stop offset="0.37" stop-color="#F7EF8A"/>
<stop offset="0.63" stop-color="#DDC05B"/>
<stop offset="0.77" stop-color="#D1AB46"/>
<stop offset="0.79" stop-color="#D4AE49"/>
<stop offset="0.92" stop-color="#E5C05F"/>
<stop offset="1" stop-color="#EBC767"/>
</linearGradient>
<linearGradient id="paint31_linear_687_4269" x1="6.22852" y1="19.6863" x2="36.6245" y2="19.6863" gradientUnits="userSpaceOnUse">
<stop stop-color="#180F29"/>
<stop offset="0.14" stop-color="#1D1330"/>
<stop offset="0.35" stop-color="#291E44"/>
<stop offset="0.6" stop-color="#3E3164"/>
<stop offset="0.88" stop-color="#5B4A90"/>
<stop offset="1" stop-color="#6956A5"/>
</linearGradient>
<linearGradient id="paint32_linear_687_4269" x1="5.82434" y1="19.6933" x2="36.9998" y2="19.6933" gradientUnits="userSpaceOnUse">
<stop stop-color="#BB9531"/>
<stop offset="0.37" stop-color="#F7EF8A"/>
<stop offset="0.63" stop-color="#DDC05B"/>
<stop offset="0.77" stop-color="#D1AB46"/>
<stop offset="0.79" stop-color="#D4AE49"/>
<stop offset="0.92" stop-color="#E5C05F"/>
<stop offset="1" stop-color="#EBC767"/>
</linearGradient>
<linearGradient id="paint33_linear_687_4269" x1="10.5923" y1="23.2533" x2="29.3223" y2="23.2533" gradientUnits="userSpaceOnUse">
<stop stop-color="#180F29"/>
<stop offset="0.14" stop-color="#1D1330"/>
<stop offset="0.35" stop-color="#291E44"/>
<stop offset="0.6" stop-color="#3E3164"/>
<stop offset="0.88" stop-color="#5B4A90"/>
<stop offset="1" stop-color="#6956A5"/>
</linearGradient>
<linearGradient id="paint34_linear_687_4269" x1="11.7927" y1="22.1446" x2="26.9015" y2="22.1446" gradientUnits="userSpaceOnUse">
<stop stop-color="#BB9531"/>
<stop offset="0.37" stop-color="#F7EF8A"/>
<stop offset="0.63" stop-color="#DDC05B"/>
<stop offset="0.77" stop-color="#D1AB46"/>
<stop offset="0.79" stop-color="#D4AE49"/>
<stop offset="0.92" stop-color="#E5C05F"/>
<stop offset="1" stop-color="#EBC767"/>
</linearGradient>
<linearGradient id="paint35_linear_687_4269" x1="10.188" y1="23.2596" x2="29.6775" y2="23.2596" gradientUnits="userSpaceOnUse">
<stop stop-color="#BB9531"/>
<stop offset="0.37" stop-color="#F7EF8A"/>
<stop offset="0.63" stop-color="#DDC05B"/>
<stop offset="0.77" stop-color="#D1AB46"/>
<stop offset="0.79" stop-color="#D4AE49"/>
<stop offset="0.92" stop-color="#E5C05F"/>
<stop offset="1" stop-color="#EBC767"/>
</linearGradient>
<linearGradient id="paint36_linear_687_4269" x1="11.1782" y1="26.8275" x2="29.0333" y2="26.8275" gradientUnits="userSpaceOnUse">
<stop stop-color="#180F29"/>
<stop offset="0.14" stop-color="#1D1330"/>
<stop offset="0.35" stop-color="#291E44"/>
<stop offset="0.6" stop-color="#3E3164"/>
<stop offset="0.88" stop-color="#5B4A90"/>
<stop offset="1" stop-color="#6956A5"/>
</linearGradient>
<linearGradient id="paint37_linear_687_4269" x1="11.1776" y1="26.8283" x2="29.0326" y2="26.8283" gradientUnits="userSpaceOnUse">
<stop stop-color="#180F29"/>
<stop offset="0.14" stop-color="#1D1330"/>
<stop offset="0.35" stop-color="#291E44"/>
<stop offset="0.6" stop-color="#3E3164"/>
<stop offset="0.88" stop-color="#5B4A90"/>
<stop offset="1" stop-color="#6956A5"/>
</linearGradient>
<linearGradient id="paint38_linear_687_4269" x1="10.7607" y1="26.8305" x2="29.34" y2="26.8305" gradientUnits="userSpaceOnUse">
<stop stop-color="#BB9531"/>
<stop offset="0.37" stop-color="#F7EF8A"/>
<stop offset="0.63" stop-color="#DDC05B"/>
<stop offset="0.77" stop-color="#D1AB46"/>
<stop offset="0.79" stop-color="#D4AE49"/>
<stop offset="0.92" stop-color="#E5C05F"/>
<stop offset="1" stop-color="#EBC767"/>
</linearGradient>
<linearGradient id="paint39_linear_687_4269" x1="5.9852" y1="40.8917" x2="22.1515" y2="24.0786" gradientUnits="userSpaceOnUse">
<stop stop-color="#180F29"/>
<stop offset="0.14" stop-color="#1D1330"/>
<stop offset="0.35" stop-color="#291E44"/>
<stop offset="0.6" stop-color="#3E3164"/>
<stop offset="0.88" stop-color="#5B4A90"/>
<stop offset="1" stop-color="#6956A5"/>
</linearGradient>
<linearGradient id="paint40_linear_687_4269" x1="9.05014" y1="34.3248" x2="29.3216" y2="34.3248" gradientUnits="userSpaceOnUse">
<stop stop-color="#180F29"/>
<stop offset="0.14" stop-color="#1D1330"/>
<stop offset="0.35" stop-color="#291E44"/>
<stop offset="0.6" stop-color="#3E3164"/>
<stop offset="0.88" stop-color="#5B4A90"/>
<stop offset="1" stop-color="#6956A5"/>
</linearGradient>
<linearGradient id="paint41_linear_687_4269" x1="8.02295" y1="34.9562" x2="29.6614" y2="34.9562" gradientUnits="userSpaceOnUse">
<stop stop-color="#BB9531"/>
<stop offset="0.37" stop-color="#F7EF8A"/>
<stop offset="0.63" stop-color="#DDC05B"/>
<stop offset="0.77" stop-color="#D1AB46"/>
<stop offset="0.79" stop-color="#D4AE49"/>
<stop offset="0.92" stop-color="#E5C05F"/>
<stop offset="1" stop-color="#EBC767"/>
</linearGradient>
</defs>
</svg>
