<svg width="61" height="99" viewBox="0 0 61 99" fill="none" xmlns="http://www.w3.org/2000/svg">
<path d="M52.1225 7.73739L53.8668 8.79467C53.9735 8.85625 54.1001 8.87358 54.2194 8.84292C54.3387 8.81227 54.4413 8.73609 54.5051 8.6307C54.5689 8.52532 54.5889 8.39913 54.5607 8.2792C54.5326 8.15926 54.4586 8.05513 54.3546 7.98913L52.6103 6.9329C52.5574 6.90087 52.4988 6.87956 52.4378 6.87019C52.3767 6.86082 52.3144 6.86356 52.2544 6.87827C52.1944 6.89298 52.1379 6.91936 52.0881 6.95591C52.0383 6.99246 51.9962 7.03845 51.9641 7.09128C51.9321 7.1441 51.9108 7.20272 51.9014 7.26378C51.8921 7.32483 51.8948 7.38714 51.9095 7.44714C51.9242 7.50714 51.9506 7.56365 51.9872 7.61345C52.0237 7.66325 52.0697 7.70537 52.1225 7.73739Z" fill="url(#paint0_linear_2232_9487)"/>
<path d="M54.1102 8.94243C54.0096 8.94226 53.911 8.9147 53.8249 8.86272L52.0817 7.80649C51.9565 7.73082 51.8665 7.60852 51.8315 7.4665C51.7965 7.32448 51.8193 7.17437 51.895 7.04919C51.9706 6.92401 52.0929 6.83401 52.2349 6.79899C52.377 6.76398 52.5271 6.78682 52.6523 6.86249L54.3966 7.91872C54.4994 7.98106 54.5791 8.07539 54.6233 8.18727C54.6675 8.29916 54.6739 8.42245 54.6414 8.53829C54.6089 8.65413 54.5394 8.75615 54.4435 8.82875C54.3476 8.90136 54.2305 8.94055 54.1102 8.94033V8.94243ZM52.368 6.94115C52.2824 6.94054 52.199 6.96808 52.1307 7.01953C52.0623 7.07097 52.0127 7.14347 51.9896 7.22586C51.9664 7.30825 51.971 7.39596 52.0026 7.47547C52.0343 7.55499 52.0911 7.62192 52.1645 7.66593L53.9088 8.72426C53.9527 8.75315 54.0019 8.7729 54.0535 8.78232C54.1052 8.79174 54.1582 8.79065 54.2094 8.77909C54.2606 8.76754 54.309 8.74577 54.3516 8.71509C54.3942 8.68441 54.4301 8.64544 54.4573 8.60053C54.4845 8.55562 54.5024 8.50568 54.5098 8.45371C54.5172 8.40174 54.5141 8.3488 54.5006 8.29807C54.4871 8.24733 54.4635 8.19985 54.4312 8.15846C54.3989 8.11706 54.3586 8.08261 54.3126 8.05717L52.5694 6.99989C52.5088 6.96244 52.4392 6.94214 52.368 6.94115Z" fill="url(#paint1_linear_2232_9487)"/>
<path d="M51.4373 8.87778L53.1806 9.93505C53.2873 9.99663 53.4139 10.014 53.5332 9.9833C53.6525 9.95265 53.7551 9.87647 53.8189 9.77108C53.8827 9.6657 53.9027 9.53951 53.8745 9.41958C53.8464 9.29964 53.7724 9.19551 53.6683 9.12951L51.9198 8.07328C51.867 8.04125 51.8084 8.01994 51.7473 8.01057C51.6863 8.0012 51.624 8.00395 51.564 8.01865C51.504 8.03336 51.4475 8.05974 51.3977 8.09629C51.3479 8.13284 51.3057 8.17884 51.2737 8.23166C51.2417 8.28448 51.2204 8.3431 51.211 8.40416C51.2016 8.46521 51.2044 8.52752 51.2191 8.58752C51.2338 8.64752 51.2602 8.70403 51.2967 8.75383C51.3333 8.80363 51.3793 8.84575 51.4321 8.87778H51.4373Z" fill="url(#paint2_linear_2232_9487)"/>
<path d="M53.4186 10.0879C53.3183 10.0877 53.22 10.0602 53.1343 10.0082L51.39 8.95199C51.2648 8.87633 51.1748 8.75403 51.1398 8.61201C51.1048 8.46999 51.1276 8.31988 51.2033 8.1947C51.279 8.06951 51.4013 7.97952 51.5433 7.9445C51.6853 7.90949 51.8354 7.93233 51.9606 8.00799L53.7049 9.06423C53.8078 9.12657 53.8874 9.2209 53.9317 9.33278C53.9759 9.44467 53.9822 9.56795 53.9498 9.68379C53.9173 9.79964 53.8478 9.90166 53.7519 9.97426C53.6559 10.0469 53.5389 10.0861 53.4186 10.0858V10.0879ZM51.4729 8.81459L53.2203 9.86558C53.3087 9.91817 53.4144 9.93371 53.5142 9.90882C53.614 9.88393 53.7 9.82062 53.7533 9.73267C53.8067 9.64472 53.8232 9.53924 53.7992 9.4392C53.7752 9.33916 53.7127 9.25264 53.6252 9.19848L51.8777 8.1412C51.7891 8.08751 51.6828 8.07122 51.5822 8.09591C51.4816 8.12059 51.3949 8.18424 51.3412 8.27284C51.2875 8.36144 51.2713 8.46774 51.2959 8.56835C51.3206 8.66897 51.3843 8.75566 51.4729 8.80934V8.81459Z" fill="url(#paint3_linear_2232_9487)"/>
<path d="M5.61219 9.12951C5.50817 9.19551 5.43415 9.29965 5.40601 9.41958C5.37787 9.53952 5.39784 9.6657 5.46164 9.77109C5.52545 9.87647 5.62801 9.95265 5.74733 9.98331C5.86665 10.014 5.99322 9.99664 6.09992 9.93506L7.84423 8.87778C7.95091 8.8131 8.02753 8.70869 8.05723 8.58752C8.08693 8.46635 8.06728 8.33834 8.00261 8.23166C7.93793 8.12498 7.83352 8.04836 7.71235 8.01865C7.59118 7.98895 7.46317 8.0086 7.35649 8.07328L5.61219 9.12951Z" fill="url(#paint4_linear_2232_9487)"/>
<path d="M5.85779 10.0883C5.73749 10.0885 5.62042 10.0493 5.52449 9.97667C5.42857 9.90407 5.35905 9.80205 5.32659 9.68621C5.29412 9.57037 5.30048 9.44708 5.3447 9.33519C5.38891 9.22331 5.46856 9.12898 5.57145 9.06664L7.31575 8.01041C7.44093 7.93488 7.59099 7.91218 7.73291 7.94729C7.87483 7.9824 7.997 8.07245 8.07252 8.19763C8.14805 8.32282 8.17075 8.47287 8.13564 8.6148C8.10053 8.75672 8.01048 8.87888 7.8853 8.95441L6.14204 10.0106C6.05606 10.0618 5.95782 10.0886 5.85779 10.0883ZM5.65431 9.20404C5.61037 9.2304 5.57208 9.26519 5.54166 9.30641C5.51123 9.34764 5.48928 9.39448 5.47705 9.44424C5.45842 9.51934 5.46254 9.59828 5.48889 9.67103C5.51523 9.74379 5.56262 9.80706 5.62501 9.85282C5.68741 9.89858 5.762 9.92475 5.83931 9.92801C5.91662 9.93127 5.99315 9.91148 6.05918 9.87114L7.80348 8.80966C7.86971 8.77006 7.9227 8.71172 7.95577 8.64201C7.98885 8.57229 8.00051 8.49434 7.98928 8.418C7.97805 8.34166 7.94444 8.27037 7.8927 8.21313C7.84096 8.15589 7.77341 8.11527 7.69859 8.09642C7.64893 8.08401 7.59729 8.08162 7.54669 8.08936C7.49609 8.0971 7.44754 8.11483 7.40386 8.14152L5.65431 9.20404Z" fill="url(#paint5_linear_2232_9487)"/>
<path d="M4.92225 7.9901C4.81823 8.05611 4.74421 8.16024 4.71607 8.28017C4.68793 8.40011 4.7079 8.5263 4.7717 8.63168C4.83551 8.73706 4.93807 8.81325 5.05739 8.8439C5.1767 8.87455 5.30328 8.85723 5.40998 8.79565L7.15323 7.73837C7.20606 7.70635 7.25206 7.66423 7.28861 7.61443C7.32515 7.56462 7.35153 7.50811 7.36624 7.44811C7.38095 7.38812 7.38369 7.32581 7.37432 7.26475C7.36495 7.20369 7.34364 7.14508 7.31162 7.09226C7.27959 7.03943 7.23748 6.99343 7.18767 6.95688C7.13787 6.92034 7.08136 6.89396 7.02136 6.87925C6.96136 6.86454 6.89906 6.8618 6.838 6.87117C6.77694 6.88054 6.71833 6.90185 6.6655 6.93387L4.92225 7.9901Z" fill="url(#paint6_linear_2232_9487)"/>
<path d="M5.16687 8.94277C5.04657 8.94298 4.9295 8.90379 4.83358 8.83118C4.73765 8.75858 4.66814 8.65656 4.63567 8.54072C4.6032 8.42488 4.60956 8.30159 4.65378 8.1897C4.698 8.07782 4.77764 7.98349 4.88053 7.92115L6.62483 6.86492C6.68656 6.82678 6.75521 6.80122 6.82684 6.7897C6.89848 6.77818 6.97168 6.78093 7.04225 6.79779C7.11281 6.81466 7.17935 6.8453 7.23804 6.88796C7.29673 6.93062 7.34641 6.98445 7.38423 7.04637C7.45988 7.17128 7.48283 7.32112 7.44801 7.46295C7.41319 7.60477 7.32347 7.72695 7.19857 7.80262L5.45427 8.85885C5.36806 8.91283 5.26858 8.94187 5.16687 8.94277ZM4.96339 8.05855C4.9191 8.0849 4.88047 8.11975 4.84972 8.16111C4.81897 8.20246 4.79672 8.2495 4.78426 8.2995C4.77179 8.3495 4.76935 8.40148 4.77708 8.45243C4.78481 8.50338 4.80255 8.55229 4.82929 8.59635C4.85603 8.6404 4.89123 8.67872 4.93286 8.7091C4.97449 8.73948 5.02172 8.7613 5.07183 8.77333C5.12194 8.78535 5.17393 8.78732 5.22481 8.77914C5.27569 8.77096 5.32445 8.75277 5.36826 8.72565L7.11256 7.66941C7.17834 7.62951 7.2309 7.57109 7.26365 7.50147C7.2964 7.43185 7.3079 7.35412 7.29671 7.278C7.28551 7.20188 7.25213 7.13075 7.20072 7.07351C7.14931 7.01626 7.08216 6.97545 7.00768 6.95617C6.95784 6.9438 6.90604 6.94142 6.85528 6.94916C6.80451 6.9569 6.75578 6.97461 6.71189 7.00127L4.96339 8.05855Z" fill="url(#paint7_linear_2232_9487)"/>
<path d="M54.1948 4.31918L55.9391 5.37541C56.0458 5.44009 56.1738 5.45974 56.295 5.43004C56.4161 5.40034 56.5205 5.32371 56.5852 5.21703C56.6499 5.11035 56.6695 4.98234 56.6398 4.86117C56.6101 4.74 56.5335 4.63559 56.4268 4.57092L54.6825 3.51469C54.5758 3.45001 54.4478 3.43036 54.3267 3.46006C54.2055 3.48976 54.1011 3.56638 54.0364 3.67307C53.9717 3.77975 53.9521 3.90776 53.9818 4.02893C54.0115 4.1501 54.0881 4.25451 54.1948 4.31918Z" fill="url(#paint8_linear_2232_9487)"/>
<path d="M56.1825 5.52209C56.0819 5.52192 55.9833 5.49436 55.8972 5.44238L54.1539 4.3851C54.0919 4.34763 54.0379 4.29832 53.995 4.23999C53.9521 4.18165 53.9211 4.11544 53.9037 4.04511C53.8864 3.97479 53.8831 3.90175 53.894 3.83014C53.9049 3.75854 53.9298 3.68978 53.9672 3.6278C54.0047 3.56581 54.054 3.51182 54.1123 3.46889C54.1707 3.42596 54.2369 3.39494 54.3072 3.37761C54.3775 3.36027 54.4506 3.35695 54.5222 3.36785C54.5938 3.37874 54.6625 3.40363 54.7245 3.4411L56.472 4.50047C56.5748 4.56277 56.6544 4.65701 56.6986 4.76879C56.7429 4.88057 56.7493 5.00375 56.717 5.11954C56.6846 5.23532 56.6153 5.33735 56.5195 5.41003C56.4238 5.48272 56.3069 5.52208 56.1867 5.52209H56.1825ZM54.4403 3.5292C54.4085 3.52946 54.3768 3.53333 54.3459 3.54074C54.271 3.5596 54.2035 3.60021 54.1518 3.65745C54.1 3.71469 54.0664 3.78599 54.0552 3.86233C54.044 3.93867 54.0556 4.01662 54.0887 4.08633C54.1218 4.15605 54.1748 4.21439 54.241 4.25399L55.9842 5.31022C56.0281 5.3368 56.0768 5.35448 56.1275 5.36226C56.1782 5.37003 56.2299 5.36774 56.2797 5.35551C56.3296 5.34329 56.3765 5.32137 56.4178 5.29102C56.4592 5.26066 56.4942 5.22245 56.5207 5.17858C56.5473 5.13471 56.565 5.08603 56.5728 5.03533C56.5806 4.98462 56.5783 4.93288 56.566 4.88307C56.5538 4.83325 56.5319 4.78632 56.5015 4.74497C56.4712 4.70362 56.433 4.66866 56.3891 4.64207L54.6417 3.58479C54.5815 3.54621 54.5117 3.52514 54.4403 3.52396V3.5292Z" fill="url(#paint9_linear_2232_9487)"/>
<path d="M53.5049 5.45737L55.2481 6.51465C55.3548 6.57623 55.4814 6.59355 55.6007 6.5629C55.72 6.53224 55.8226 6.45606 55.8864 6.35068C55.9502 6.24529 55.9702 6.11911 55.942 5.99917C55.9139 5.87924 55.8399 5.7751 55.7358 5.7091L53.9926 4.65287C53.8859 4.58819 53.7579 4.56854 53.6367 4.59824C53.5156 4.62795 53.4112 4.70457 53.3465 4.81125C53.2818 4.91793 53.2621 5.04594 53.2918 5.16711C53.3215 5.28828 53.3982 5.39269 53.5049 5.45737Z" fill="url(#paint10_linear_2232_9487)"/>
<path d="M55.4911 6.66223C55.3908 6.66202 55.2925 6.63446 55.2068 6.58251L53.4625 5.52523C53.4005 5.48777 53.3465 5.43846 53.3036 5.38013C53.2607 5.32179 53.2297 5.25557 53.2123 5.18525C53.195 5.11493 53.1917 5.04188 53.2026 4.97028C53.2135 4.89868 53.2383 4.82992 53.2758 4.76794C53.3133 4.70595 53.3626 4.65195 53.4209 4.60903C53.4793 4.5661 53.5455 4.53508 53.6158 4.51774C53.6861 4.50041 53.7592 4.49709 53.8308 4.50798C53.9024 4.51888 53.9711 4.54377 54.0331 4.58123L55.7774 5.63746C55.8803 5.69981 55.9599 5.79414 56.0042 5.90602C56.0484 6.01791 56.0547 6.14119 56.0223 6.25703C55.9898 6.37288 55.9203 6.4749 55.8244 6.5475C55.7284 6.6201 55.6114 6.65929 55.4911 6.65908V6.66223ZM53.5454 5.38888L55.2897 6.44511C55.3781 6.49879 55.4843 6.51514 55.5848 6.49055C55.6853 6.46597 55.772 6.40246 55.8257 6.314C55.8791 6.2253 55.8953 6.11907 55.8708 6.01846C55.8462 5.91786 55.7829 5.83105 55.6946 5.77697L53.9544 4.72074C53.8658 4.66705 53.7595 4.65075 53.6589 4.67544C53.5583 4.70013 53.4716 4.76377 53.4179 4.85237C53.3642 4.94097 53.348 5.04727 53.3726 5.14789C53.3973 5.2485 53.461 5.33519 53.5496 5.38888H53.5454Z" fill="url(#paint11_linear_2232_9487)"/>
<path d="M52.8134 6.59701L54.5577 7.65429C54.6644 7.71587 54.791 7.73319 54.9103 7.70254C55.0297 7.67189 55.1322 7.5957 55.196 7.49032C55.2598 7.38494 55.2798 7.25875 55.2517 7.13882C55.2235 7.01888 55.1495 6.91475 55.0455 6.84875L53.3012 5.79252C53.2484 5.76049 53.1897 5.73918 53.1287 5.72981C53.0676 5.72044 53.0053 5.72318 52.9453 5.73789C52.8853 5.7526 52.8288 5.77898 52.779 5.81553C52.7292 5.85207 52.6871 5.89807 52.6551 5.9509C52.623 6.00372 52.6017 6.06234 52.5924 6.12339C52.583 6.18445 52.5857 6.24676 52.6004 6.30676C52.6151 6.36675 52.6415 6.42327 52.6781 6.47307C52.7146 6.52287 52.7606 6.56499 52.8134 6.59701Z" fill="url(#paint12_linear_2232_9487)"/>
<path d="M54.8006 7.80261C54.7003 7.80246 54.602 7.77489 54.5163 7.72289L52.7731 6.66561C52.7111 6.62815 52.6571 6.57884 52.6142 6.52051C52.5712 6.46217 52.5402 6.39595 52.5229 6.32563C52.5055 6.25531 52.5022 6.18226 52.5131 6.11066C52.524 6.03906 52.5489 5.9703 52.5864 5.90832C52.6238 5.84633 52.6731 5.79233 52.7315 5.74941C52.7898 5.70648 52.856 5.67546 52.9263 5.65812C52.9967 5.64079 53.0697 5.63747 53.1413 5.64836C53.2129 5.65926 53.2817 5.68415 53.3437 5.72161L55.0869 6.77785C55.1801 6.83427 55.2545 6.91708 55.3006 7.01578C55.3467 7.11447 55.3625 7.22463 55.346 7.33232C55.3295 7.44 55.2814 7.54037 55.2078 7.62072C55.1343 7.70108 55.0385 7.7578 54.9327 7.78373C54.8896 7.79519 54.8452 7.80153 54.8006 7.80261ZM53.0584 5.80448C53.0269 5.80462 52.9956 5.8085 52.965 5.81601C52.8902 5.83487 52.8226 5.87549 52.7709 5.93273C52.7192 5.98997 52.6856 6.06126 52.6743 6.1376C52.6631 6.21394 52.6748 6.29189 52.7078 6.3616C52.7409 6.43132 52.7939 6.48966 52.8601 6.52926L54.6034 7.58549C54.6921 7.63895 54.7983 7.65516 54.8989 7.6306C54.9995 7.60604 55.0863 7.54269 55.1404 7.45438C55.1937 7.36554 55.2099 7.25929 55.1855 7.15859C55.1733 7.10884 55.1513 7.06199 55.1209 7.02077C55.0905 6.97954 55.0522 6.94475 55.0082 6.9184L53.2597 5.86112C53.1992 5.82385 53.1295 5.80424 53.0584 5.80448Z" fill="url(#paint13_linear_2232_9487)"/>
<path d="M4.23084 6.84875C4.12682 6.91475 4.0528 7.01888 4.02466 7.13882C3.99652 7.25876 4.01649 7.38494 4.0803 7.49032C4.1441 7.59571 4.24666 7.67189 4.36598 7.70254C4.4853 7.7332 4.61188 7.71588 4.71857 7.6543L6.46288 6.59701C6.56956 6.53234 6.64618 6.42793 6.67588 6.30676C6.70558 6.18559 6.68594 6.05758 6.62126 5.9509C6.55658 5.84422 6.45217 5.7676 6.331 5.73789C6.20983 5.70819 6.08183 5.72784 5.97514 5.79252L4.23084 6.84875Z" fill="url(#paint14_linear_2232_9487)"/>
<path d="M4.47554 7.80264C4.43137 7.80258 4.38736 7.7973 4.34443 7.78691C4.23861 7.76098 4.14287 7.70425 4.06931 7.6239C3.99574 7.54354 3.94767 7.44318 3.93116 7.33549C3.91466 7.22781 3.93046 7.11765 3.97658 7.01895C4.02269 6.92025 4.09705 6.83745 4.19024 6.78102L5.93349 5.72479C6.05868 5.64912 6.20879 5.62629 6.35081 5.6613C6.49283 5.69631 6.61513 5.78631 6.69079 5.91149C6.76646 6.03667 6.78929 6.18679 6.75428 6.32881C6.71927 6.47083 6.62927 6.59312 6.50409 6.66879L4.76188 7.72292C4.67544 7.77499 4.57645 7.80255 4.47554 7.80264ZM6.21879 5.80451C6.14743 5.80472 6.07747 5.8243 6.01635 5.86115L4.2731 6.91843C4.20677 6.95783 4.15365 7.01607 4.1205 7.08573C4.08734 7.1554 4.07563 7.23334 4.08688 7.30967C4.09812 7.386 4.13179 7.45727 4.18363 7.51441C4.23546 7.57156 4.30312 7.61201 4.37799 7.63062C4.42764 7.6432 4.4793 7.64569 4.52993 7.63794C4.58056 7.6302 4.62911 7.61237 4.67273 7.58552L6.41703 6.52929C6.49033 6.48532 6.54717 6.41849 6.5788 6.33907C6.61043 6.25966 6.61511 6.17205 6.59211 6.08972C6.56912 6.00739 6.51972 5.93489 6.45152 5.88336C6.38331 5.83184 6.30008 5.80413 6.2146 5.80451H6.21879Z" fill="url(#paint15_linear_2232_9487)"/>
<path d="M55.29 0.0899433L54.4971 2.91041L55.1537 3.23137C55.6116 3.45462 56.0483 3.71898 56.4585 4.02118L57.0459 4.45542L59.1793 2.4468C58.8457 1.70652 58.2953 1.0849 57.6009 0.664088C56.9064 0.243274 56.1007 0.0430731 55.29 0.0899433Z" fill="url(#paint16_linear_2232_9487)"/>
<path d="M57.0521 4.55934L56.4102 4.08629C56.0042 3.78684 55.572 3.5246 55.119 3.30277L54.4026 2.95559L55.2281 0.0187005H55.2847C56.1111 -0.0259852 56.9318 0.179516 57.6397 0.60838C58.3475 1.03724 58.9096 1.66955 59.2527 2.42275L59.2757 2.47415L57.0521 4.55934ZM54.5924 2.86853L55.1893 3.15908C55.6512 3.385 56.0917 3.65215 56.5056 3.95728L57.0395 4.35061L59.0827 2.43115C58.7508 1.72989 58.2201 1.14167 57.5566 0.739603C56.8931 0.337538 56.126 0.139371 55.3508 0.169741L54.5924 2.86853Z" fill="url(#paint17_linear_2232_9487)"/>
<path d="M10.6996 18.6342L7.09872 12.6923C7.06437 12.6356 7.01297 12.5911 6.95188 12.5654L6.33513 12.3052C6.88789 12.0262 8.38675 12.7332 8.91749 12.8454L12.017 17.9241C12.1722 17.815 12.3271 17.6944 12.4816 17.5623C12.9476 17.1563 13.3449 16.6778 13.6585 16.1452L10.4164 10.8011L10.4898 9.92426C10.9356 9.87076 11.3992 9.99768 11.7715 10.1529C12.0123 10.2539 12.2783 10.279 12.5337 10.2248C12.7892 10.1707 13.022 10.0398 13.2012 9.84978C13.2012 9.84978 12.2236 9.6484 11.9771 8.63622C11.7306 7.62404 12.1533 7.35762 11.9603 6.99471C11.8733 6.83213 11.3792 6.69368 11.2429 6.8185C10.9744 7.06498 11.3299 7.37755 10.7184 8.17471C9.93387 9.20052 8.22942 9.01382 8.22942 9.01382C8.17803 8.92991 5.98795 10.2568 6.03829 10.3417C6.03829 10.3417 5.4184 11.9402 4.15029 12.1605C3.16014 12.3325 3.04686 11.8731 2.70597 11.9969C2.53185 12.0598 2.42487 12.5622 2.52976 12.7143C2.76051 13.0531 3.19371 12.8014 3.97618 13.4884C4.75865 14.1754 4.48594 15.1362 4.48594 15.1362C4.73725 15.0653 4.96092 14.9193 5.127 14.7178C5.29308 14.5163 5.39365 14.2689 5.41525 14.0086C5.45092 13.6069 5.55266 13.1381 5.80649 12.7667L6.61833 13.1076L10.0943 18.8451C10.2999 18.7862 10.5019 18.7158 10.6996 18.6342ZM5.56 12.3199L4.67054 12.514C5.81068 12.0336 6.44002 10.7403 6.44002 10.7403L7.66931 10.5483L8.40354 9.54771C8.40354 9.54771 9.83842 9.59595 10.794 8.80195L10.2213 9.50365H10.2108L8.80841 10.068L8.44654 11.0235L7.72176 11.4619L6.70748 11.3413L5.56 12.3199Z" fill="url(#paint18_linear_2232_9487)"/>
<path d="M10.0417 18.9658L6.54475 13.1895L5.84829 12.8969C5.65654 13.2402 5.54501 13.6225 5.52208 14.015C5.49702 14.2965 5.38731 14.5638 5.20738 14.7818C5.02746 14.9997 4.78576 15.158 4.5141 15.2359L4.33159 15.2873L4.38299 15.1038C4.45078 14.8281 4.44217 14.5392 4.35808 14.2681C4.27399 13.997 4.11761 13.7539 3.90574 13.565C3.6316 13.3063 3.29344 13.1252 2.92608 13.0406C2.73204 12.9903 2.56317 12.9452 2.4415 12.7668C2.35234 12.6368 2.37332 12.3892 2.4331 12.2025C2.47086 12.084 2.54324 11.934 2.6691 11.8879C2.84741 11.8239 2.98377 11.8826 3.12117 11.9456C3.31102 12.0295 3.57115 12.1449 4.13126 12.0505C5.22734 11.8606 5.83046 10.5621 5.92905 10.3324C5.92905 10.2453 6.09687 10.0922 7.04612 9.51739C7.99536 8.94259 8.20514 8.86498 8.28276 8.90588C8.5324 8.92476 9.96098 8.99189 10.6375 8.10768C10.9826 7.65666 11.0015 7.37346 11.0151 7.16368C11.0246 7.00949 11.034 6.8637 11.1735 6.73573C11.2721 6.64553 11.4389 6.65182 11.5616 6.6728C11.7546 6.70531 11.9811 6.80076 12.0577 6.94027C12.1626 7.13221 12.1217 7.30213 12.0766 7.49827C11.9804 7.86191 11.983 8.24462 12.0839 8.60695C12.3105 9.53836 13.1884 9.73346 13.2262 9.74185L13.4118 9.78066L13.2818 9.91911C13.087 10.1237 12.8349 10.2646 12.5586 10.3232C12.2822 10.3818 11.9946 10.3554 11.7336 10.2474C11.3755 10.0843 10.9847 10.0057 10.5914 10.0177L10.5284 10.7719L13.78 16.1411L13.7464 16.1957C13.4268 16.7383 13.022 17.2259 12.5475 17.64C12.3986 17.7679 12.2392 17.8917 12.0745 18.0081L11.9811 18.0742L8.84601 12.9347C8.69183 12.8969 8.48205 12.8235 8.2429 12.7406C7.78349 12.5801 7.14367 12.3578 6.70943 12.3431L6.99262 12.4616C7.07471 12.4959 7.14376 12.5554 7.18982 12.6315L10.8609 18.6815L10.7445 18.7287C10.5418 18.8098 10.3349 18.8798 10.1246 18.9385L10.0417 18.9658ZM5.76438 12.6315L6.68845 13.0196L6.70628 13.049L10.1403 18.713C10.2452 18.6815 10.3816 18.6375 10.5421 18.5777L7.00731 12.7427C6.9845 12.7058 6.95078 12.6768 6.91081 12.6599L6.07695 12.3095L6.28672 12.2046C6.72411 11.9844 7.60623 12.2917 8.31633 12.5392C8.52021 12.6154 8.72781 12.6812 8.93832 12.7364L8.98342 12.7459L12.0472 17.7648C12.1731 17.6725 12.2958 17.576 12.4112 17.4764C12.8518 17.0916 13.2301 16.6408 13.5324 16.1401L10.3071 10.8222L10.391 9.82471L10.477 9.81422C10.8735 9.76702 11.3224 9.84674 11.8123 10.0502C12.0049 10.1319 12.2159 10.1605 12.4233 10.1328C12.6306 10.1051 12.8268 10.0223 12.9912 9.89289C12.7171 9.79696 12.4712 9.63408 12.2759 9.41904C12.0807 9.20401 11.9422 8.94361 11.8731 8.66149C11.7647 8.26669 11.7622 7.85031 11.8658 7.45422C11.9098 7.26018 11.9287 7.16158 11.8658 7.04515C11.7712 6.95654 11.6505 6.90096 11.5217 6.88677C11.4526 6.86672 11.3787 6.87042 11.312 6.89726C11.2385 6.96439 11.2312 7.03257 11.2217 7.18151C11.2071 7.40282 11.1861 7.73742 10.8022 8.23984C9.99035 9.30131 8.28486 9.1251 8.21668 9.11671C7.9639 9.19013 6.32868 10.1834 6.14198 10.3754C6.11575 10.4436 5.48432 12.0337 4.16797 12.2634C3.54388 12.3683 3.2376 12.2361 3.03517 12.147C2.89881 12.0861 2.83483 12.0609 2.74148 12.0945C2.7205 12.1018 2.6733 12.1574 2.63659 12.2749C2.58846 12.3952 2.58182 12.5281 2.61771 12.6525C2.69113 12.7574 2.78763 12.7899 2.98062 12.8413C3.37943 12.9326 3.74705 13.1277 4.0463 13.4067C4.2656 13.5983 4.4334 13.8419 4.53435 14.115C4.63531 14.3882 4.66621 14.6824 4.62423 14.9706C4.81514 14.8846 4.97942 14.7489 5.09992 14.5776C5.22041 14.4064 5.29268 14.2059 5.30916 13.9972C5.35531 13.4727 5.49271 13.0343 5.71823 12.705L5.76438 12.6315ZM4.69136 12.6179L4.62738 12.4155C5.72032 11.9571 6.33392 10.7058 6.33917 10.6932L6.36434 10.6428L7.60518 10.4498L8.34989 9.43977H8.40653C8.42121 9.43977 9.81309 9.47543 10.7256 8.71813L10.8767 8.86812L10.2589 9.62437L10.2159 9.61179L8.89216 10.1457L8.5324 11.0897L7.74573 11.5659L6.74089 11.4515L5.60599 12.4186L4.69136 12.6179ZM6.50594 10.8348C6.21323 11.3895 5.80644 11.876 5.31231 12.2623L5.50845 12.2193L6.67376 11.226L7.69853 11.3466L8.36038 10.946L8.72644 9.98204L10.1655 9.40201L10.2914 9.24677C9.71681 9.51099 9.09242 9.64939 8.46002 9.65269L7.7258 10.6439L6.50594 10.8348Z" fill="url(#paint19_linear_2232_9487)"/>
<path d="M56.5775 11.9937C56.2356 11.8699 56.1233 12.3293 55.1332 12.1573C53.8609 11.937 53.2399 10.3385 53.2399 10.3385C53.2913 10.2536 51.1002 8.92674 51.0499 9.01065C51.0499 9.01065 49.3454 9.2005 48.5608 8.17153C47.9504 7.37438 48.3049 7.06181 48.0364 6.81532C47.9 6.6905 47.4071 6.82896 47.3179 6.99153C47.1249 7.35445 47.5487 7.62087 47.3022 8.63305C47.0557 9.64523 46.0771 9.84661 46.0771 9.84661C46.2562 10.0367 46.489 10.1675 46.7445 10.2217C47 10.2758 47.2659 10.2507 47.5067 10.1497C47.8801 9.9945 48.3458 9.86759 48.7895 9.92108L48.8629 10.798L45.625 16.142C45.9385 16.6743 46.3355 17.1527 46.8008 17.5591C46.955 17.6913 47.1155 17.8119 47.2665 17.921L50.366 12.8422C50.8967 12.73 52.3956 12.0231 52.9473 12.3021L52.3274 12.5622C52.2659 12.5873 52.2143 12.6319 52.1806 12.6891L48.5797 18.6311C48.7784 18.7124 48.9815 18.7824 49.1881 18.8408L52.6641 13.1034L53.4759 12.7625C53.7287 13.1338 53.8315 13.6016 53.8661 14.0044C53.8879 14.2646 53.9884 14.5119 54.1542 14.7135C54.32 14.9151 54.5433 15.0615 54.7944 15.133C54.7944 15.133 54.5206 14.1722 55.3041 13.4852C56.0877 12.7982 56.5188 13.0499 56.7506 12.7111C56.8555 12.559 56.7485 12.0566 56.5775 11.9937ZM53.7224 12.3199L52.5686 11.3392L51.5544 11.4598L50.8296 11.0214L50.4667 10.0658L49.0654 9.50153H49.0549L48.4822 8.79982C49.4377 9.59383 50.8726 9.54558 50.8726 9.54558L51.6068 10.5462L52.8361 10.7382C52.8361 10.7382 53.4581 12.0314 54.6035 12.5118L53.7224 12.3199Z" fill="url(#paint20_linear_2232_9487)"/>
<path d="M49.2346 18.9658L49.157 18.9448C48.9468 18.8861 48.7398 18.8161 48.5371 18.735L48.4207 18.6878L52.0918 12.6378C52.1379 12.5617 52.2069 12.5022 52.289 12.4679L52.5722 12.3494C52.138 12.3641 51.4981 12.5864 51.0387 12.7469C50.7985 12.8298 50.5888 12.9032 50.4356 12.9409L47.3005 18.0805L47.2071 18.0144C47.0425 17.898 46.883 17.7742 46.7341 17.6463C46.2601 17.2324 45.8556 16.7451 45.5363 16.203L45.5027 16.1484L48.7542 10.7792L48.6903 10.025C48.297 10.0138 47.9064 10.0924 47.548 10.2547C47.287 10.3625 46.9994 10.3889 46.7231 10.3303C46.4468 10.2717 46.1947 10.1309 45.9999 9.92644L45.8698 9.78798L46.0565 9.74917C46.0932 9.74078 46.9722 9.54569 47.1987 8.61427C47.2997 8.25193 47.3022 7.86925 47.2061 7.5056C47.161 7.30946 47.1222 7.13954 47.225 6.94759C47.2984 6.80914 47.527 6.71264 47.7211 6.68012C47.8428 6.65914 48.0106 6.65285 48.1092 6.74306C48.2476 6.87102 48.2571 7.01682 48.2676 7.171C48.2812 7.38078 48.299 7.66188 48.6441 8.115C49.3217 9.00027 50.7503 8.93209 50.9999 8.91321C51.0765 8.87335 51.2884 8.95097 52.2271 9.51842C53.1848 10.0985 53.3547 10.2526 53.3536 10.3397C53.4522 10.5694 54.0553 11.8679 55.1514 12.0578C55.7115 12.1553 55.9716 12.0399 56.1615 11.9529C56.302 11.89 56.4353 11.8312 56.6136 11.8952C56.7394 11.9414 56.8108 12.0913 56.8496 12.2099C56.9094 12.3966 56.9303 12.6431 56.8412 12.7742C56.7185 12.9525 56.5506 12.9976 56.3566 13.0479C55.9892 13.1324 55.6509 13.3134 55.3769 13.5724C55.166 13.7604 55.01 14.0021 54.9258 14.2719C54.8415 14.5416 54.8322 14.8291 54.8986 15.1038L54.95 15.2873L54.7675 15.2359C54.4959 15.158 54.2542 14.9997 54.0742 14.7817C53.8943 14.5638 53.7846 14.2965 53.7595 14.015C53.7358 13.6222 53.6232 13.2399 53.4302 12.8969L52.7337 13.1895L49.2346 18.9658ZM48.7343 18.584C48.8948 18.6438 49.0311 18.6889 49.136 18.7193L52.5911 13.0249L53.5152 12.6368L53.5634 12.7091C53.8086 13.0976 53.9499 13.5426 53.9735 14.0014C53.99 14.21 54.0622 14.4103 54.1824 14.5815C54.3027 14.7527 54.4668 14.8885 54.6574 14.9747C54.6159 14.6865 54.6472 14.3924 54.7483 14.1193C54.8494 13.8461 55.0172 13.6026 55.2364 13.4108C55.5356 13.1318 55.9032 12.9368 56.302 12.8455C56.495 12.7941 56.5905 12.7647 56.665 12.6567C56.7009 12.5319 56.6942 12.3987 56.6461 12.278C56.6315 12.2085 56.5947 12.1455 56.5412 12.0987C56.4478 12.0651 56.3839 12.0903 56.2475 12.1511C56.0451 12.2403 55.7388 12.3756 55.1147 12.2676C53.7984 12.0399 53.1669 10.4498 53.1407 10.3796C52.9582 10.1897 51.3198 9.19641 51.067 9.12089C50.9957 9.12928 49.2934 9.30549 48.4815 8.24402C48.0966 7.7416 48.0756 7.40491 48.062 7.18569C48.0525 7.03675 48.0452 6.96857 47.9718 6.90144C47.905 6.87467 47.8311 6.87098 47.762 6.89095C47.6305 6.90194 47.5064 6.95658 47.4096 7.04619C47.3477 7.16261 47.3666 7.25596 47.4096 7.45525C47.5131 7.85134 47.5106 8.26772 47.4022 8.66252C47.3337 8.94557 47.1954 9.20694 46.9999 9.42277C46.8044 9.63861 46.558 9.80203 46.2831 9.89812C46.4475 10.0274 46.6437 10.1102 46.851 10.1378C47.0584 10.1655 47.2694 10.1371 47.462 10.0554C47.9529 9.85196 48.406 9.77225 48.7983 9.81945L48.8843 9.82994L48.9682 10.8274L48.9504 10.8578L45.746 16.1463C46.0484 16.6471 46.4267 17.0979 46.8673 17.4826C46.9827 17.5819 47.104 17.6781 47.2313 17.7711L50.2951 12.7521L50.3391 12.7427C50.55 12.6876 50.758 12.6218 50.9622 12.5455C51.6722 12.298 52.5544 11.9906 52.9918 12.2109L53.2015 12.3158L52.3677 12.6661C52.3277 12.6831 52.294 12.7121 52.2712 12.749L48.7343 18.584ZM54.584 12.6179L53.6683 12.4186L52.5355 11.4515L51.5307 11.57L50.7429 11.0938L50.3842 10.1498L49.0605 9.61596L49.028 9.6254L48.9724 9.57401L48.3955 8.8702L48.5466 8.72021C49.4601 9.47856 50.8541 9.4408 50.8657 9.44185H50.9213L51.667 10.4519L52.9078 10.6449L52.932 10.6953C52.9383 10.7079 53.5519 11.9539 54.6448 12.4175L54.584 12.6179ZM53.7669 12.2214L53.963 12.2644C53.4687 11.8781 53.0615 11.3916 52.7683 10.8369L51.5506 10.647L50.8164 9.65582C50.1842 9.65217 49.5602 9.51341 48.986 9.24885L49.1119 9.40409L50.551 9.98307L50.9171 10.947L51.5779 11.3477L52.6026 11.226L53.7669 12.2214Z" fill="url(#paint21_linear_2232_9487)"/>
<path d="M3.53944 5.7091C3.43542 5.7751 3.3614 5.87923 3.33326 5.99917C3.30511 6.1191 3.32509 6.24529 3.38889 6.35067C3.4527 6.45606 3.55525 6.53224 3.67457 6.56289C3.79389 6.59355 3.92047 6.57622 4.02717 6.51464L5.77147 5.45736C5.8243 5.42534 5.8703 5.38322 5.90684 5.33342C5.94339 5.28362 5.96977 5.22711 5.98448 5.16711C5.99918 5.10711 6.00193 5.0448 5.99256 4.98375C5.98319 4.92269 5.96188 4.86407 5.92985 4.81125C5.89783 4.75843 5.85571 4.71243 5.80591 4.67588C5.75611 4.63933 5.6996 4.61295 5.6396 4.59824C5.5796 4.58354 5.51729 4.58079 5.45623 4.59016C5.39518 4.59953 5.33656 4.62084 5.28374 4.65287L3.53944 5.7091Z" fill="url(#paint22_linear_2232_9487)"/>
<path d="M3.78514 6.66253C3.74062 6.66248 3.69626 6.6572 3.65298 6.6468C3.54744 6.62032 3.45212 6.56317 3.37904 6.48256C3.30596 6.40196 3.2584 6.30151 3.24235 6.1939C3.2263 6.08629 3.2425 5.97634 3.28888 5.87792C3.33527 5.7795 3.40977 5.69703 3.50298 5.64091L5.24624 4.58468C5.37142 4.50888 5.52159 4.4859 5.66371 4.52082C5.80583 4.55573 5.92826 4.64568 6.00406 4.77086C6.07987 4.89604 6.10284 5.04621 6.06792 5.18833C6.03301 5.33045 5.94307 5.45288 5.81788 5.52868L4.06938 6.58281C3.98368 6.63481 3.88538 6.66238 3.78514 6.66253ZM5.52734 4.66964C5.45631 4.66984 5.38668 4.68942 5.32595 4.72628L3.58165 5.77727C3.49348 5.83095 3.43018 5.91739 3.4056 6.01765C3.38103 6.11791 3.39719 6.22383 3.45054 6.3122C3.50423 6.40066 3.59087 6.46417 3.69138 6.48876C3.7919 6.51334 3.89806 6.497 3.98652 6.44331L5.72978 5.38708C5.80308 5.34311 5.85991 5.27628 5.89154 5.19686C5.92318 5.11745 5.92786 5.02985 5.90486 4.94752C5.88187 4.86519 5.83247 4.79269 5.76426 4.74116C5.69606 4.68963 5.61282 4.66192 5.52734 4.6623V4.66964Z" fill="url(#paint23_linear_2232_9487)"/>
<path d="M4.59332 3.51259L2.85007 4.56882C2.79724 4.60084 2.75125 4.64296 2.7147 4.69276C2.67815 4.74256 2.65177 4.79908 2.63706 4.85907C2.62236 4.91907 2.61961 4.98138 2.62898 5.04244C2.63835 5.1035 2.65966 5.16211 2.69169 5.21493C2.72371 5.26776 2.76583 5.31376 2.81563 5.35031C2.86543 5.38685 2.92195 5.41323 2.98194 5.42794C3.04194 5.44265 3.10424 5.44539 3.1653 5.43602C3.22636 5.42665 3.28498 5.40534 3.3378 5.37332L5.07686 4.31918C5.18354 4.25451 5.26016 4.1501 5.28987 4.02893C5.31957 3.90776 5.29992 3.77975 5.23524 3.67307C5.17057 3.56638 5.06616 3.48976 4.94499 3.46006C4.82382 3.43036 4.69581 3.45001 4.58913 3.51469L4.59332 3.51259Z" fill="url(#paint24_linear_2232_9487)"/>
<path d="M3.09412 5.52231C2.97382 5.52253 2.85675 5.48333 2.76082 5.41073C2.66489 5.33813 2.59538 5.23611 2.56292 5.12026C2.53045 5.00442 2.53681 4.88114 2.58102 4.76925C2.62524 4.65737 2.70488 4.56304 2.80777 4.5007L4.55208 3.44446C4.61411 3.40614 4.68324 3.38072 4.75533 3.36972C4.82742 3.35873 4.90099 3.36239 4.97163 3.38048C5.0775 3.40616 5.17334 3.46272 5.247 3.54298C5.32066 3.62324 5.3688 3.72357 5.38533 3.83125C5.40185 3.93892 5.386 4.04908 5.3398 4.14773C5.29359 4.24638 5.21911 4.32908 5.12582 4.38532L3.38151 5.4426C3.29487 5.4951 3.19543 5.52268 3.09412 5.52231ZM4.83632 3.52942C4.76525 3.52935 4.69555 3.54896 4.63494 3.58606L2.89064 4.6339C2.80162 4.68732 2.73746 4.7739 2.71228 4.87461C2.68711 4.97533 2.70297 5.08192 2.75638 5.17094C2.80979 5.25995 2.89637 5.32411 2.99709 5.34929C3.0978 5.37447 3.20439 5.3586 3.29341 5.30519L5.03771 4.24896C5.10349 4.20905 5.15604 4.15064 5.1888 4.08102C5.22155 4.0114 5.23305 3.93367 5.22185 3.85755C5.21066 3.78143 5.17727 3.7103 5.12586 3.65305C5.07445 3.59581 5.00731 3.555 4.93282 3.53572C4.90121 3.52815 4.86883 3.52427 4.83632 3.52418V3.52942Z" fill="url(#paint25_linear_2232_9487)"/>
<path d="M4.12183 3.23131L4.77843 2.91035L3.98652 0.0898828C3.17579 0.0432381 2.36998 0.24352 1.67543 0.664295C0.980879 1.08507 0.430242 1.70656 0.0961914 2.44674L2.23068 4.45536L2.81806 4.02112C3.228 3.71915 3.66436 3.45481 4.12183 3.23131Z" fill="url(#paint26_linear_2232_9487)"/>
<path d="M2.22469 4.55925L0 2.46147L0.024124 2.41008C0.366831 1.65687 0.92873 1.02452 1.63643 0.59563C2.34413 0.166745 3.16472 -0.0387368 3.99102 0.00602412H4.04871L4.87419 2.94291L4.15779 3.29219C3.70451 3.51424 3.27204 3.77646 2.86557 4.07571L2.22469 4.55925ZM0.192995 2.43106L2.23728 4.35367L2.77116 3.96034C3.18514 3.65535 3.6257 3.38821 4.08752 3.16213L4.68434 2.87159L3.92284 0.166505C3.14774 0.13751 2.38117 0.336625 1.71815 0.739169C1.05514 1.14171 0.524844 1.72998 0.192995 2.43106Z" fill="url(#paint27_linear_2232_9487)"/>
<path d="M5.14453 18.1948V68.9516L29.6382 80.6866L53.7784 68.7743C53.8958 52.0334 54.0137 35.2913 54.1318 18.5483L29.7252 10.4131L5.14453 18.1948Z" fill="url(#paint28_linear_2232_9487)"/>
<path d="M29.6437 81.636L4.29102 69.4888V17.5688L29.7339 9.51538L54.9901 17.9338L54.6283 69.3063L29.6437 81.636ZM5.99756 68.4137L29.6332 79.7343L52.929 68.2395L53.2741 19.1599L29.7255 11.3111L5.99756 18.8201V68.4137Z" fill="url(#paint29_linear_2232_9487)"/>
<path d="M29.6414 79.0661L6.65918 67.843V19.6183L29.7232 12.1711L52.6194 19.9528L52.2901 67.6721L29.6414 79.0661ZM7.50983 67.307L29.6319 78.1106L51.4373 67.1476L51.7593 20.5696L29.7159 13.0742L7.51298 20.2392L7.50983 67.307Z" fill="url(#paint30_linear_2232_9487)"/>
<path d="M53.6478 42.8923L57.9409 41.3452C57.3472 40.0166 56.7291 38.7625 56.0865 37.5828L53.1359 39.1792L55.3386 36.2581C54.4174 34.6904 53.3899 33.1877 52.2633 31.7604L50.4487 33.0915L51.613 30.9612C51.1235 30.3738 50.6239 29.8165 50.1141 29.2892L46.3444 33.0904L49.1827 28.3599C47.5433 26.7808 45.7177 25.4071 43.7463 24.2693L41.8583 25.9978L42.5222 23.6127C41.4661 23.0782 40.3749 22.6164 39.256 22.2302L36.9946 28.4344V21.5568C34.9018 21.0411 32.7586 20.7576 30.6037 20.7114L29.6901 26.7656L26.9987 22.2848V25.337L25.1925 22.4127L25.7169 29.3354L22.7486 21.4163C21.1334 21.7357 19.5376 22.1461 17.9688 22.6456L18.4796 25.4839L16.9377 22.9896C16.2224 23.2361 15.5543 23.4847 14.9333 23.7291L18.2782 29.9721L13.4051 24.3647C12.3048 24.8353 11.2303 25.364 10.186 25.9485L18.2782 35.2008L28.5217 40.5742L47.946 45.6204L59.8866 46.2435C59.4775 45.075 59.0475 43.9622 58.607 42.8923H53.6478Z" fill="url(#paint31_linear_2232_9487)"/>
<path d="M60.4997 46.703L47.8385 46.0327L28.3617 40.975L18.005 35.5417L9.52051 25.8416L9.96524 25.5804C11.0237 24.9866 12.1133 24.4502 13.2294 23.9735L13.5168 23.8477L16.1023 26.8223L14.3265 23.5078L14.7723 23.3327C15.432 23.0715 16.1117 22.8208 16.7946 22.5858L17.1166 22.481L17.6567 23.3536L17.4816 22.3603L17.8382 22.2471C19.422 21.7435 21.0328 21.3292 22.6631 21.0062L23.0176 20.937L25.0619 26.3839L24.6298 20.7031L26.5692 23.8403V20.744L29.441 25.5301L30.2319 20.2751L30.6084 20.2846C32.7948 20.332 34.9694 20.62 37.0927 21.1436L37.4157 21.2244V26.0168L38.9891 21.689L39.3855 21.8265C40.522 22.2197 41.6307 22.6889 42.7042 23.2309L43.0189 23.3893L42.6623 24.6805L43.6818 23.7459L43.9524 23.9012C45.9533 25.0558 47.8066 26.4491 49.4717 28.0506L49.7181 28.2855L48.5193 30.2847L50.1125 28.6778L50.4157 28.9925C50.9233 29.5169 51.4341 30.0886 51.9344 30.6854L52.1222 30.9098L51.7393 31.6073L52.3351 31.171L52.59 31.493C53.7277 32.9364 54.7663 34.4552 55.6989 36.0389L55.8437 36.2843L54.649 37.8703L56.2622 37.0028L56.4656 37.3762C57.1013 38.5447 57.7306 39.8212 58.3295 41.1701L58.5162 41.5896L56.087 42.4654H58.8928L58.9977 42.7298C59.4686 43.8699 59.8892 44.9733 60.2846 46.103L60.4997 46.703ZM48.0116 45.1967L59.2704 45.7841C58.9735 44.9628 58.6599 44.15 58.3264 43.3192H51.2076L57.3614 41.0987C56.8915 40.0666 56.4059 39.0807 55.9139 38.1618L51.6135 40.4862L54.8199 36.2298C54.0158 34.8854 53.1333 33.5895 52.1767 32.3489L49.1444 34.5736L51.0943 31.0137C50.766 30.6287 50.4345 30.2574 50.1041 29.9029L44.1643 35.891L48.6399 28.4303C47.1649 27.0456 45.5427 25.8265 43.8024 24.7948L41.0533 27.3121L42.014 23.8319C41.1984 23.4333 40.3623 23.0779 39.5093 22.7673L36.5661 30.8438V21.8925C34.7281 21.4631 32.8525 21.214 30.9661 21.1489L29.935 28.0065L27.4261 23.8288V26.8391L25.7479 24.1277L26.3688 32.2849L22.4753 21.9104C21.138 22.1852 19.7891 22.5324 18.4539 22.9435L19.293 27.6258L16.7484 23.5057C16.3393 23.6494 15.9324 23.7984 15.5317 23.9526L20.4436 33.1209L13.2892 24.8777C12.17 25.3759 11.333 25.8059 10.8547 26.0619L18.5462 34.8558L28.6764 40.1736L48.0116 45.1967Z" fill="url(#paint32_linear_2232_9487)"/>
<path d="M20.79 43.1282L17.3203 35.6392C17.3203 35.6392 33.5896 27.6005 42.1077 35.6392C42.1077 35.6392 46.513 39.9123 47.9458 45.6235L45.2491 47.0238L20.79 43.1282Z" fill="url(#paint33_linear_2232_9487)"/>
<path d="M33.2201 34.9729C38.1793 34.6478 41.1361 36.799 42.8951 39.6195C43.2889 39.9659 43.655 40.3425 43.9901 40.746C43.6965 40.1264 43.3557 39.5302 42.9706 38.9629C40.7679 35.747 37.4807 34.2597 33.1929 34.5418C33.1121 34.5471 25.0608 35.1512 19.2856 40.4974L19.5814 40.8121C25.2381 35.576 33.1415 34.9782 33.2201 34.9729Z" fill="url(#paint34_linear_2232_9487)"/>
<path d="M45.3362 47.5451L45.1726 47.5189L20.4482 43.5772L16.6606 35.4021L17.0991 35.1923C17.3991 35.0434 24.52 31.5674 31.8958 31.5674C36.2917 31.5674 39.8421 32.8156 42.4507 35.2773C42.6395 35.4609 46.9788 39.7214 48.4294 45.5029L48.5259 45.8868L45.3362 47.5451ZM21.1331 42.672L45.1684 46.5036L47.3595 45.3603C45.8827 40.0508 41.8004 36.0357 41.7585 35.9958C39.346 33.7208 36.0273 32.5638 31.8989 32.5638C25.7807 32.5638 19.6584 35.1252 17.9896 35.8794L21.1331 42.672Z" fill="url(#paint35_linear_2232_9487)"/>
<path d="M47.4674 52.1923C47.4674 52.1923 48.1355 35.9219 35.0265 36.7841C35.0265 36.7841 23.7342 37.5498 18.2778 46.2587L29.3782 53.6261L44.5945 54.4883L47.4674 52.1923Z" fill="url(#paint36_linear_2232_9487)"/>
<path d="M42.8638 39.1423C45.1304 42.9812 43.9882 47.546 43.9882 47.546C38.4112 49.1728 33.8139 48.1113 30.7994 46.8296C26.6626 44.8367 28.7803 41.968 29.5292 41.1331C31.4418 39.1788 33.773 37.6841 36.347 36.7613C35.9222 36.7508 35.4869 36.7561 35.0306 36.7854C35.0306 36.7854 23.7383 37.5511 18.282 46.2601L29.3824 53.6275L44.5986 54.4896L47.4715 52.1936C47.4715 52.1936 47.8177 43.4753 42.8638 39.1423Z" fill="url(#paint37_linear_2232_9487)"/>
<path d="M44.7582 54.9992L44.5673 54.9877L29.2137 54.1203L29.1015 54.0437L17.5962 46.4067L17.8542 45.9924C23.3808 37.1681 34.5211 36.3164 34.992 36.285C38.6715 36.0448 41.6514 37.0884 43.8499 39.3802C48.2552 43.967 47.9815 51.8777 47.9668 52.2123L47.9573 52.4399L44.7582 54.9992ZM29.542 53.1343L44.4362 53.9734L46.9745 51.9449C46.984 50.6369 46.8424 43.9335 43.1293 40.0672C41.3273 38.1981 38.9358 37.2541 36.0189 37.2541C35.7042 37.2541 35.3895 37.2657 35.0633 37.2877C34.9585 37.295 24.3196 38.1163 18.9723 46.1183L29.542 53.1343Z" fill="url(#paint38_linear_2232_9487)"/>
<path d="M14.1641 39.177C14.1641 39.177 16.6866 50.5658 15.5654 66.1639L17.702 62.3365V57.8388L21.5294 54.0104C21.5294 54.0104 24.0215 54.2023 24.6907 55.9246C24.6907 55.9246 20.6798 58.9884 18.712 59.944C18.712 59.944 21.3406 72.0985 20.9577 80.712L33.7416 65.973C33.7416 65.973 26.0952 56.1134 37.2113 56.4984L47.9456 57.3595L47.4673 52.1927C47.4673 52.1927 34.0699 51.427 26.2221 47.5985C26.2221 47.5985 16.6541 42.8135 14.1641 39.177Z" fill="url(#paint39_linear_2232_9487)"/>
<path d="M47.6048 53.6724L47.4674 52.1924C47.4674 52.1924 34.0699 51.4267 26.2221 47.5983C25.3579 47.1584 24.4838 46.6903 23.5999 46.1938C20.5262 44.4647 17.5851 42.5098 14.8008 40.3452C15.1721 42.5573 15.4763 44.9834 15.6535 47.5993C15.8807 50.9386 15.8807 54.2895 15.6535 57.6288C15.4438 62.7914 15.8633 63.9473 16.2944 64.027C16.7255 64.1068 17.2992 63.2068 17.574 62.5334C18.3083 60.7503 17.2489 59.5126 18.0009 58.0526C18.2957 57.5113 18.7404 57.0666 19.2816 56.7719C19.8963 54.9783 21.5252 54.0112 22.8625 54.3185C24.0163 54.5828 24.5922 55.7156 24.6918 55.9202C24.6918 55.9202 24.4306 56.1205 24.01 56.432L25.296 56.0901C25.296 56.0901 25.5729 58.1879 21.3102 61.366C21.3102 61.366 22.8132 68.8802 22.3119 76.3934C22.3119 76.3934 24.0216 71.3672 23.3062 62.5345C23.3062 62.5345 27.6067 59.178 31.6376 62.1925C30.6348 59.457 30.8047 56.2747 37.2134 56.495L47.9478 57.3561L47.7485 55.2101C44.1728 55.3706 38.2477 55.4199 32.8773 54.4853C32.8721 54.4884 41.4971 54.5105 47.6048 53.6724Z" fill="url(#paint40_linear_2232_9487)"/>
<path d="M47.9261 51.7163L47.495 51.6922C47.3702 51.6848 35.4328 50.9663 27.6626 47.7001C27.2431 47.5246 26.8375 47.3414 26.4459 47.1505C26.3526 47.1043 16.9671 42.3812 14.5798 38.8947L13.1177 36.7612L13.6778 39.2859C13.703 39.3981 16.1699 50.7901 15.0728 66.128L14.9113 68.3748L18.209 62.4664V59.9658L18.2268 60.0487C18.253 60.1703 20.8365 72.2399 20.462 80.6877L20.397 82.1246L34.3892 65.9938L34.1374 65.6697C33.184 64.4393 30.9289 60.7976 31.9347 58.747C32.5043 57.5869 34.0724 56.9985 36.596 56.9985C36.789 56.9985 36.9872 56.9985 37.1708 57.0079L48.4988 57.9163L47.9261 51.7163ZM18.2069 59.6333V58.0453L21.7154 54.5378C22.2231 54.6165 23.4797 54.8955 24.0565 55.7765C23.059 56.5234 20.0708 58.726 18.4974 59.4928L18.2069 59.6333ZM37.2295 55.9979C37.0114 55.9905 36.8016 55.9874 36.6002 55.9874C33.6633 55.9874 31.79 56.7635 31.0411 58.2949C29.7625 60.9046 32.2788 64.7855 33.1053 65.9445L21.4973 79.3262C21.5623 71.7679 19.6921 62.2146 19.283 60.2154C20.2564 59.691 21.5476 58.8204 22.6573 58.0359L23.7618 59.9899V57.2408C24.4551 56.7342 24.9397 56.3639 24.9963 56.3209L25.2953 56.0933L25.1589 55.7419C24.3827 53.749 21.6871 53.5193 21.5717 53.5109L21.3431 53.4931L17.2052 57.631V62.2062L16.2046 64.0009C16.7657 53.1229 15.6025 44.4915 14.9941 40.8907C18.4817 44.2681 25.6529 47.8763 26.0075 48.0515L26.0725 48.0829C26.6137 49.4926 27.6007 52.6981 27.6679 57.4485C27.6679 57.4485 28.8961 54.863 27.886 48.8749C35.0185 51.6943 44.8151 52.5145 47.0125 52.6666L47.3975 56.8149L37.2295 55.9979Z" fill="url(#paint41_linear_2232_9487)"/>
<path d="M17.2061 91.5242H13.6934C13.6305 91.5218 13.5705 91.4969 13.5245 91.454C13.4671 91.4048 13.4185 91.3463 13.3808 91.2809C13.3412 91.2128 13.3109 91.1398 13.2906 91.0638C13.2711 90.9957 13.2654 90.9243 13.2738 90.854L13.6409 88.5213C13.6556 88.4489 13.6837 88.3798 13.7238 88.3178C13.7711 88.2396 13.8259 88.1662 13.8874 88.0986C13.9457 88.033 14.0115 87.9746 14.0835 87.9245C14.1386 87.8832 14.2047 87.8591 14.2734 87.8552H17.7861C17.8492 87.8574 17.9094 87.8819 17.956 87.9245C18.0137 87.9737 18.0623 88.0326 18.0997 88.0986C18.1392 88.1674 18.1696 88.2411 18.1899 88.3178C18.209 88.3838 18.2144 88.4531 18.2057 88.5213L18.0924 89.2618H16.6932L16.733 89.008C16.7372 88.9802 16.7313 88.9519 16.7163 88.9282C16.7114 88.917 16.7036 88.9073 16.6936 88.9003C16.6836 88.8933 16.6718 88.8891 16.6596 88.8884H15.08C15.066 88.8904 15.0525 88.8953 15.0405 88.9027C15.0284 88.9101 15.0179 88.9198 15.0097 88.9314C14.9895 88.9531 14.9747 88.9794 14.9667 89.008L14.7475 90.3715C14.7431 90.3991 14.7487 90.4274 14.7632 90.4512C14.7692 90.4631 14.7783 90.4731 14.7896 90.4801C14.8009 90.4872 14.8139 90.491 14.8272 90.4911H16.4047C16.418 90.4897 16.4308 90.4854 16.4422 90.4785C16.4536 90.4716 16.4634 90.4623 16.4708 90.4512C16.4908 90.4286 16.5046 90.4011 16.5107 90.3715L16.5516 90.1177H17.9508L17.8375 90.8519C17.8242 90.9268 17.7956 90.9982 17.7536 91.0617C17.7061 91.1388 17.6517 91.2115 17.591 91.2788C17.5323 91.344 17.4661 91.4021 17.3938 91.4519C17.3397 91.4939 17.2744 91.5191 17.2061 91.5242Z" fill="#111111"/>
<path d="M18.8462 91.5241L19.3119 88.5715C19.2896 88.5343 19.264 88.4992 19.2353 88.4666C19.1934 88.4131 19.1483 88.3523 19.099 88.283C19.0496 88.2142 19.0051 88.142 18.9658 88.067C18.9297 88.0016 18.9049 87.9307 18.8923 87.8572H20.8254L20.6157 89.1704H22.383L22.5928 87.8572H23.992L23.411 91.5241H22.0117L22.2215 90.2109H20.452L20.2423 91.5241H18.8462Z" fill="#111111"/>
<path d="M24.958 88.5715C24.9348 88.5346 24.9088 88.4995 24.8803 88.4666C24.8384 88.4131 24.7933 88.3523 24.744 88.283C24.695 88.214 24.6505 88.1418 24.6108 88.067C24.5747 88.0016 24.5499 87.9307 24.5374 87.8572H29.3161L29.1567 88.8903H26.3247L26.2785 89.1767H28.4172L28.2515 90.2035H26.1117L26.0719 90.4899H28.9039L28.7371 91.523H24.4912L24.958 88.5715Z" fill="#111111"/>
<path d="M33.1692 87.8582H34.5694L33.9894 91.524H32.6426L31.1165 89.7241L30.8301 91.524H30.8228C30.7951 91.5679 30.7596 91.6064 30.7179 91.6373C30.6529 91.6897 30.5732 91.7495 30.4777 91.8135C30.3823 91.8775 30.2753 91.9457 30.163 92.017C30.0508 92.0883 29.9323 92.1523 29.8232 92.21C29.7235 92.2636 29.6209 92.3116 29.5159 92.3537C29.4477 92.385 29.3746 92.4041 29.2998 92.4103L30.0193 87.8582H31.3598L32.8828 89.657L33.1692 87.8582Z" fill="#111111"/>
<path d="M38.4217 87.8582H39.8209L39.2409 91.524H37.8952L36.369 89.7241L36.0816 91.524H36.0754C36.0479 91.5681 36.0123 91.6065 35.9705 91.6373C35.8934 91.7 35.8132 91.7588 35.7303 91.8135C35.6348 91.8775 35.5289 91.9457 35.4104 92.017C35.2918 92.0883 35.1796 92.1523 35.0705 92.21C34.9711 92.2634 34.8689 92.3114 34.7642 92.3537C34.6956 92.3849 34.6222 92.404 34.5471 92.4103L35.2677 87.8582H36.6071L38.1396 89.657L38.4217 87.8582Z" fill="#111111"/>
<path d="M43.361 91.0833H41.6828L41.4027 91.5239H39.8997L41.7877 88.587C41.7678 88.5521 41.7442 88.5193 41.7174 88.4894C41.6754 88.4391 41.6282 88.3762 41.5768 88.3027C41.5254 88.2293 41.4782 88.1549 41.4342 88.0762C41.3934 88.0108 41.3682 87.9368 41.3608 87.8601H43.747L44.9469 91.526H43.5068L43.361 91.0833ZM42.3278 90.0575H43.0411L42.8082 89.3044L42.3278 90.0575Z" fill="#111111"/>
<path d="M46.1793 87.8582H47.5795L46.9995 91.524C46.9698 91.568 46.9325 91.6064 46.8894 91.6373C46.8114 91.7002 46.7302 91.759 46.646 91.8135C46.5485 91.8775 46.4363 91.9457 46.323 92.017C46.2097 92.0883 46.0912 92.1523 45.98 92.21C45.8688 92.2677 45.7702 92.3149 45.6727 92.3537C45.6066 92.3846 45.5356 92.4038 45.4629 92.4103L46.1793 87.8582Z" fill="#111111"/>
<path d="M11.0708 97.7436L11.6508 94.0725H13.048L12.8382 95.3857H14.6045L14.8143 94.0725H16.2146L15.6345 97.7436H14.2363L14.4461 96.4304H12.6767L12.4669 97.7436H11.0708Z" fill="#111111"/>
<path d="M17.1828 94.7912C17.1602 94.7543 17.1345 94.7192 17.1063 94.6863C17.0643 94.6328 17.0182 94.572 16.9699 94.5038C16.9207 94.4345 16.8762 94.3619 16.8367 94.2867C16.7997 94.2218 16.7748 94.1507 16.7633 94.0769H21.5441L21.3836 95.1101H18.5516L18.5044 95.3964H20.6442L20.4774 96.4233H18.3377L18.2978 96.7096H21.1298L20.963 97.7428H16.7192L17.1828 94.7912Z" fill="#111111"/>
<path d="M22.2356 94.0776H26.2738C26.3371 94.0797 26.3975 94.1047 26.4437 94.1479C26.5016 94.1965 26.5503 94.2551 26.5874 94.321C26.6275 94.3899 26.6579 94.464 26.6776 94.5412C26.6965 94.6073 26.7022 94.6765 26.6944 94.7447L26.514 95.8775C26.4954 96.0042 26.4662 96.1291 26.4269 96.2509C26.3977 96.3524 26.3433 96.4449 26.2689 96.5199C26.1945 96.5949 26.1024 96.6499 26.0011 96.6799C25.8673 96.7217 25.728 96.7433 25.5878 96.7439H25.5207L26.4144 97.7435H24.7676L23.5813 96.4376L23.6862 95.7779H25.0393C25.1011 95.7779 25.1441 95.737 25.1525 95.6573L25.2186 95.2304C25.2233 95.2026 25.2173 95.1741 25.2018 95.1506C25.1971 95.1393 25.1893 95.1296 25.1793 95.1226C25.1692 95.1155 25.1574 95.1114 25.1452 95.1108H23.467L23.0474 97.7435C23.0199 97.7876 22.9843 97.826 22.9425 97.8568C22.865 97.9203 22.7837 97.9791 22.6992 98.033C22.6016 98.097 22.4947 98.1652 22.3761 98.2365C22.2576 98.3078 22.1443 98.3718 22.0331 98.4295C21.922 98.4872 21.8234 98.5344 21.7269 98.5732C21.6608 98.6041 21.5898 98.6232 21.5171 98.6298L22.2356 94.0776Z" fill="#111111"/>
<path d="M27.4412 97.7437C27.3778 97.742 27.3173 97.717 27.2713 97.6734C27.2134 97.6248 27.1647 97.5662 27.1276 97.5003C27.0882 97.4325 27.0579 97.3599 27.0374 97.2842C27.0179 97.2161 27.0122 97.1448 27.0206 97.0745L27.3877 94.7428C27.402 94.6703 27.4301 94.6012 27.4706 94.5393C27.5176 94.4606 27.5724 94.3868 27.6342 94.319C27.6922 94.2535 27.7581 94.1954 27.8303 94.146C27.8851 94.104 27.9513 94.0795 28.0202 94.0757H31.5329C31.5962 94.0777 31.6566 94.1027 31.7028 94.146C31.7607 94.1946 31.8094 94.2532 31.8465 94.319C31.8862 94.3881 31.9165 94.4622 31.9367 94.5393C31.9559 94.6053 31.9612 94.6746 31.9525 94.7428L31.5864 97.0745C31.5731 97.1492 31.5449 97.2206 31.5035 97.2842C31.455 97.3606 31.4003 97.4329 31.3399 97.5003C31.2818 97.5661 31.2155 97.6243 31.1427 97.6734C31.088 97.7155 31.0218 97.74 30.9529 97.7437H27.4412ZM30.483 95.2263C30.4838 95.1999 30.4757 95.174 30.4599 95.1529C30.4549 95.1418 30.447 95.1322 30.437 95.1252C30.427 95.1182 30.4154 95.114 30.4032 95.113H28.8268C28.8128 95.1151 28.7993 95.12 28.7872 95.1274C28.7751 95.1347 28.7647 95.1445 28.7565 95.156C28.7366 95.178 28.7219 95.2042 28.7135 95.2326L28.4943 96.5962C28.4898 96.6238 28.4953 96.6521 28.51 96.6759C28.516 96.6878 28.5251 96.6978 28.5364 96.7048C28.5477 96.7118 28.5607 96.7156 28.574 96.7157H30.1536C30.1669 96.7143 30.1797 96.71 30.1911 96.7031C30.2025 96.6963 30.2123 96.687 30.2197 96.6759C30.2399 96.6534 30.2537 96.6258 30.2595 96.5962L30.483 95.2263Z" fill="#111111"/>
<path d="M32.5288 97.6702C32.4712 97.6215 32.4229 97.5629 32.3861 97.4971C32.3467 97.4293 32.3164 97.3567 32.2959 97.2811C32.2765 97.2129 32.2708 97.1416 32.2791 97.0713L32.3788 96.4524H33.779L33.7518 96.5919C33.7475 96.6197 33.7534 96.648 33.7685 96.6717C33.7736 96.6828 33.7815 96.6923 33.7914 96.6993C33.8014 96.7063 33.813 96.7105 33.8252 96.7115H35.2454L32.7522 95.8588C32.6966 95.8211 32.6461 95.7763 32.6022 95.7256C32.557 95.6752 32.5281 95.6123 32.5193 95.5451L32.6452 94.7396C32.6599 94.667 32.6884 94.598 32.7291 94.5361C32.7758 94.4572 32.8307 94.3834 32.8927 94.3159C32.9505 94.2501 33.0164 94.1919 33.0889 94.1428C33.1437 94.1008 33.2098 94.0764 33.2787 94.0725H36.6247C36.688 94.0746 36.7483 94.0995 36.7946 94.1428C36.8525 94.1914 36.9012 94.25 36.9383 94.3159C36.9781 94.3848 37.0081 94.4589 37.0274 94.5361C37.0469 94.6021 37.0526 94.6713 37.0442 94.7396L36.9509 95.3584H35.5517L35.5716 95.2189C35.5759 95.1912 35.5699 95.1629 35.5548 95.1392C35.55 95.1279 35.5422 95.118 35.5322 95.1108C35.5222 95.1036 35.5104 95.0993 35.4982 95.0983H34.079L36.5712 95.9521C36.6289 95.9923 36.6817 96.0391 36.7285 96.0916C36.7704 96.141 36.797 96.2015 36.8051 96.2657L36.6782 97.0713C36.6649 97.1462 36.6363 97.2176 36.5943 97.2811C36.5464 97.3577 36.492 97.43 36.4317 97.4971C36.3733 97.5627 36.3071 97.6208 36.2345 97.6702C36.1798 97.7123 36.1136 97.7368 36.0446 97.7405H32.6987C32.6354 97.7384 32.575 97.7134 32.5288 97.6702Z" fill="#111111"/>
<path d="M40.9906 97.7435C40.963 97.7874 40.9274 97.8258 40.8857 97.8568C40.8076 97.92 40.726 97.9789 40.6413 98.033C40.5438 98.097 40.4368 98.1652 40.3183 98.2365C40.1997 98.3078 40.0865 98.3718 39.9753 98.4295C39.8641 98.4872 39.7655 98.5344 39.669 98.5732C39.6029 98.6041 39.5319 98.6232 39.4592 98.6298L40.1798 94.0776H44.4247L44.2652 95.1108H41.4332L41.3871 95.3971H43.5258L43.36 96.424H41.2109L41.0011 97.7435H40.9906Z" fill="#111111"/>
<path d="M48.5691 97.7437H45.0563C44.9933 97.7417 44.9332 97.7167 44.8875 97.6734C44.8293 97.625 44.7806 97.5663 44.7438 97.5003C44.7044 97.4325 44.6741 97.3599 44.6536 97.2842C44.6341 97.2161 44.6284 97.1448 44.6368 97.0745L45.0039 94.7428C45.0182 94.6703 45.0463 94.6012 45.0868 94.5393C45.1338 94.4606 45.1887 94.3868 45.2504 94.319C45.3084 94.2535 45.3743 94.1954 45.4465 94.146C45.5013 94.104 45.5675 94.0795 45.6364 94.0757H49.1491C49.2124 94.0777 49.2728 94.1027 49.319 94.146C49.3766 94.1949 49.4252 94.2535 49.4627 94.319C49.5025 94.388 49.5325 94.4621 49.5519 94.5393C49.5718 94.6052 49.5776 94.6745 49.5687 94.7428L49.4554 95.477H48.0562L48.096 95.2232C48.0987 95.1988 48.0935 95.1742 48.0813 95.1529C48.0763 95.1418 48.0684 95.1322 48.0585 95.1252C48.0485 95.1182 48.0368 95.114 48.0247 95.113H46.443C46.429 95.1151 46.4155 95.12 46.4034 95.1274C46.3914 95.1347 46.3809 95.1445 46.3727 95.156C46.3525 95.1778 46.3377 95.204 46.3297 95.2326L46.1094 96.5962C46.1052 96.6239 46.1112 96.6522 46.1262 96.6759C46.1322 96.6878 46.1413 96.6978 46.1526 96.7048C46.1639 96.7118 46.1769 96.7156 46.1902 96.7157H47.7667C47.7799 96.7143 47.7927 96.71 47.8041 96.7031C47.8155 96.6963 47.8253 96.687 47.8328 96.6759C47.853 96.6534 47.8668 96.6258 47.8726 96.5962L47.9135 96.3423H49.3127L49.1995 97.0818C49.1862 97.1568 49.1576 97.2282 49.1155 97.2916C49.0677 97.3682 49.0133 97.4405 48.953 97.5077C48.8946 97.5732 48.8284 97.6313 48.7558 97.6807C48.7011 97.7196 48.6361 97.7415 48.5691 97.7437Z" fill="#111111"/>
<defs>
<linearGradient id="paint0_linear_2232_9487" x1="52.4057" y1="8.3447" x2="54.0714" y2="7.38287" gradientUnits="userSpaceOnUse">
<stop stop-color="#180F29"/>
<stop offset="0.14" stop-color="#1D1330"/>
<stop offset="0.35" stop-color="#291E44"/>
<stop offset="0.6" stop-color="#3E3164"/>
<stop offset="0.88" stop-color="#5B4A90"/>
<stop offset="1" stop-color="#6956A5"/>
</linearGradient>
<linearGradient id="paint1_linear_2232_9487" x1="51.8163" y1="7.86313" x2="54.6609" y2="7.86313" gradientUnits="userSpaceOnUse">
<stop stop-color="#BB9531"/>
<stop offset="0.37" stop-color="#F7EF8A"/>
<stop offset="0.63" stop-color="#DDC05B"/>
<stop offset="0.77" stop-color="#D1AB46"/>
<stop offset="0.79" stop-color="#D4AE49"/>
<stop offset="0.92" stop-color="#E5C05F"/>
<stop offset="1" stop-color="#EBC767"/>
</linearGradient>
<linearGradient id="paint2_linear_2232_9487" x1="51.7153" y1="9.48508" x2="53.3799" y2="8.52325" gradientUnits="userSpaceOnUse">
<stop stop-color="#180F29"/>
<stop offset="0.14" stop-color="#1D1330"/>
<stop offset="0.35" stop-color="#291E44"/>
<stop offset="0.6" stop-color="#3E3164"/>
<stop offset="0.88" stop-color="#5B4A90"/>
<stop offset="1" stop-color="#6956A5"/>
</linearGradient>
<linearGradient id="paint3_linear_2232_9487" x1="51.1246" y1="9.00339" x2="53.9703" y2="9.00339" gradientUnits="userSpaceOnUse">
<stop stop-color="#BB9531"/>
<stop offset="0.37" stop-color="#F7EF8A"/>
<stop offset="0.63" stop-color="#DDC05B"/>
<stop offset="0.77" stop-color="#D1AB46"/>
<stop offset="0.79" stop-color="#D4AE49"/>
<stop offset="0.92" stop-color="#E5C05F"/>
<stop offset="1" stop-color="#EBC767"/>
</linearGradient>
<linearGradient id="paint4_linear_2232_9487" x1="5.89539" y1="8.52325" x2="7.56102" y2="9.48508" gradientUnits="userSpaceOnUse">
<stop stop-color="#180F29"/>
<stop offset="0.14" stop-color="#1D1330"/>
<stop offset="0.35" stop-color="#291E44"/>
<stop offset="0.6" stop-color="#3E3164"/>
<stop offset="0.88" stop-color="#5B4A90"/>
<stop offset="1" stop-color="#6956A5"/>
</linearGradient>
<linearGradient id="paint5_linear_2232_9487" x1="5.30608" y1="9.0037" x2="8.15171" y2="9.0037" gradientUnits="userSpaceOnUse">
<stop stop-color="#BB9531"/>
<stop offset="0.37" stop-color="#F7EF8A"/>
<stop offset="0.63" stop-color="#DDC05B"/>
<stop offset="0.77" stop-color="#D1AB46"/>
<stop offset="0.79" stop-color="#D4AE49"/>
<stop offset="0.92" stop-color="#E5C05F"/>
<stop offset="1" stop-color="#EBC767"/>
</linearGradient>
<linearGradient id="paint6_linear_2232_9487" x1="5.20545" y1="7.3828" x2="6.87003" y2="8.34463" gradientUnits="userSpaceOnUse">
<stop stop-color="#180F29"/>
<stop offset="0.14" stop-color="#1D1330"/>
<stop offset="0.35" stop-color="#291E44"/>
<stop offset="0.6" stop-color="#3E3164"/>
<stop offset="0.88" stop-color="#5B4A90"/>
<stop offset="1" stop-color="#6956A5"/>
</linearGradient>
<linearGradient id="paint7_linear_2232_9487" x1="4.61516" y1="7.86346" x2="7.4608" y2="7.86346" gradientUnits="userSpaceOnUse">
<stop stop-color="#BB9531"/>
<stop offset="0.37" stop-color="#F7EF8A"/>
<stop offset="0.63" stop-color="#DDC05B"/>
<stop offset="0.77" stop-color="#D1AB46"/>
<stop offset="0.79" stop-color="#D4AE49"/>
<stop offset="0.92" stop-color="#E5C05F"/>
<stop offset="1" stop-color="#EBC767"/>
</linearGradient>
<linearGradient id="paint8_linear_2232_9487" x1="54.478" y1="4.92439" x2="56.1436" y2="3.96256" gradientUnits="userSpaceOnUse">
<stop stop-color="#180F29"/>
<stop offset="0.14" stop-color="#1D1330"/>
<stop offset="0.35" stop-color="#291E44"/>
<stop offset="0.6" stop-color="#3E3164"/>
<stop offset="0.88" stop-color="#5B4A90"/>
<stop offset="1" stop-color="#6956A5"/>
</linearGradient>
<linearGradient id="paint9_linear_2232_9487" x1="53.8886" y1="4.44279" x2="56.7331" y2="4.44279" gradientUnits="userSpaceOnUse">
<stop stop-color="#BB9531"/>
<stop offset="0.37" stop-color="#F7EF8A"/>
<stop offset="0.63" stop-color="#DDC05B"/>
<stop offset="0.77" stop-color="#D1AB46"/>
<stop offset="0.79" stop-color="#D4AE49"/>
<stop offset="0.92" stop-color="#E5C05F"/>
<stop offset="1" stop-color="#EBC767"/>
</linearGradient>
<linearGradient id="paint10_linear_2232_9487" x1="53.7881" y1="6.06467" x2="55.4526" y2="5.10284" gradientUnits="userSpaceOnUse">
<stop stop-color="#180F29"/>
<stop offset="0.14" stop-color="#1D1330"/>
<stop offset="0.35" stop-color="#291E44"/>
<stop offset="0.6" stop-color="#3E3164"/>
<stop offset="0.88" stop-color="#5B4A90"/>
<stop offset="1" stop-color="#6956A5"/>
</linearGradient>
<linearGradient id="paint11_linear_2232_9487" x1="53.1971" y1="5.58292" x2="56.0428" y2="5.58292" gradientUnits="userSpaceOnUse">
<stop stop-color="#BB9531"/>
<stop offset="0.37" stop-color="#F7EF8A"/>
<stop offset="0.63" stop-color="#DDC05B"/>
<stop offset="0.77" stop-color="#D1AB46"/>
<stop offset="0.79" stop-color="#D4AE49"/>
<stop offset="0.92" stop-color="#E5C05F"/>
<stop offset="1" stop-color="#EBC767"/>
</linearGradient>
<linearGradient id="paint12_linear_2232_9487" x1="53.0966" y1="7.20432" x2="54.7623" y2="6.24249" gradientUnits="userSpaceOnUse">
<stop stop-color="#180F29"/>
<stop offset="0.14" stop-color="#1D1330"/>
<stop offset="0.35" stop-color="#291E44"/>
<stop offset="0.6" stop-color="#3E3164"/>
<stop offset="0.88" stop-color="#5B4A90"/>
<stop offset="1" stop-color="#6956A5"/>
</linearGradient>
<linearGradient id="paint13_linear_2232_9487" x1="52.5066" y1="6.7233" x2="55.3523" y2="6.7233" gradientUnits="userSpaceOnUse">
<stop stop-color="#BB9531"/>
<stop offset="0.37" stop-color="#F7EF8A"/>
<stop offset="0.63" stop-color="#DDC05B"/>
<stop offset="0.77" stop-color="#D1AB46"/>
<stop offset="0.79" stop-color="#D4AE49"/>
<stop offset="0.92" stop-color="#E5C05F"/>
<stop offset="1" stop-color="#EBC767"/>
</linearGradient>
<linearGradient id="paint14_linear_2232_9487" x1="4.51404" y1="6.24249" x2="6.17968" y2="7.20432" gradientUnits="userSpaceOnUse">
<stop stop-color="#180F29"/>
<stop offset="0.14" stop-color="#1D1330"/>
<stop offset="0.35" stop-color="#291E44"/>
<stop offset="0.6" stop-color="#3E3164"/>
<stop offset="0.88" stop-color="#5B4A90"/>
<stop offset="1" stop-color="#6956A5"/>
</linearGradient>
<linearGradient id="paint15_linear_2232_9487" x1="3.92487" y1="6.72333" x2="6.76946" y2="6.72333" gradientUnits="userSpaceOnUse">
<stop stop-color="#BB9531"/>
<stop offset="0.37" stop-color="#F7EF8A"/>
<stop offset="0.63" stop-color="#DDC05B"/>
<stop offset="0.77" stop-color="#D1AB46"/>
<stop offset="0.79" stop-color="#D4AE49"/>
<stop offset="0.92" stop-color="#E5C05F"/>
<stop offset="1" stop-color="#EBC767"/>
</linearGradient>
<linearGradient id="paint16_linear_2232_9487" x1="54.6387" y1="3.1548" x2="58.3685" y2="1.00143" gradientUnits="userSpaceOnUse">
<stop stop-color="#180F29"/>
<stop offset="0.14" stop-color="#1D1330"/>
<stop offset="0.35" stop-color="#291E44"/>
<stop offset="0.6" stop-color="#3E3164"/>
<stop offset="0.88" stop-color="#5B4A90"/>
<stop offset="1" stop-color="#6956A5"/>
</linearGradient>
<linearGradient id="paint17_linear_2232_9487" x1="54.4026" y1="2.28115" x2="59.2757" y2="2.28115" gradientUnits="userSpaceOnUse">
<stop stop-color="#BB9531"/>
<stop offset="0.37" stop-color="#F7EF8A"/>
<stop offset="0.63" stop-color="#DDC05B"/>
<stop offset="0.77" stop-color="#D1AB46"/>
<stop offset="0.79" stop-color="#D4AE49"/>
<stop offset="0.92" stop-color="#E5C05F"/>
<stop offset="1" stop-color="#EBC767"/>
</linearGradient>
<linearGradient id="paint18_linear_2232_9487" x1="2.48466" y1="12.8056" x2="13.6543" y2="12.8056" gradientUnits="userSpaceOnUse">
<stop stop-color="#180F29"/>
<stop offset="0.14" stop-color="#1D1330"/>
<stop offset="0.35" stop-color="#291E44"/>
<stop offset="0.6" stop-color="#3E3164"/>
<stop offset="0.88" stop-color="#5B4A90"/>
<stop offset="1" stop-color="#6956A5"/>
</linearGradient>
<linearGradient id="paint19_linear_2232_9487" x1="2.37751" y1="12.8151" x2="13.7789" y2="12.8151" gradientUnits="userSpaceOnUse">
<stop stop-color="#BB9531"/>
<stop offset="0.37" stop-color="#F7EF8A"/>
<stop offset="0.63" stop-color="#DDC05B"/>
<stop offset="0.77" stop-color="#D1AB46"/>
<stop offset="0.79" stop-color="#D4AE49"/>
<stop offset="0.92" stop-color="#E5C05F"/>
<stop offset="1" stop-color="#EBC767"/>
</linearGradient>
<linearGradient id="paint20_linear_2232_9487" x1="45.6229" y1="12.8055" x2="56.7915" y2="12.8055" gradientUnits="userSpaceOnUse">
<stop stop-color="#180F29"/>
<stop offset="0.14" stop-color="#1D1330"/>
<stop offset="0.35" stop-color="#291E44"/>
<stop offset="0.6" stop-color="#3E3164"/>
<stop offset="0.88" stop-color="#5B4A90"/>
<stop offset="1" stop-color="#6956A5"/>
</linearGradient>
<linearGradient id="paint21_linear_2232_9487" x1="45.4974" y1="12.8151" x2="56.8978" y2="12.8151" gradientUnits="userSpaceOnUse">
<stop stop-color="#BB9531"/>
<stop offset="0.37" stop-color="#F7EF8A"/>
<stop offset="0.63" stop-color="#DDC05B"/>
<stop offset="0.77" stop-color="#D1AB46"/>
<stop offset="0.79" stop-color="#D4AE49"/>
<stop offset="0.92" stop-color="#E5C05F"/>
<stop offset="1" stop-color="#EBC767"/>
</linearGradient>
<linearGradient id="paint22_linear_2232_9487" x1="3.82263" y1="5.10284" x2="5.48827" y2="6.06467" gradientUnits="userSpaceOnUse">
<stop stop-color="#180F29"/>
<stop offset="0.14" stop-color="#1D1330"/>
<stop offset="0.35" stop-color="#291E44"/>
<stop offset="0.6" stop-color="#3E3164"/>
<stop offset="0.88" stop-color="#5B4A90"/>
<stop offset="1" stop-color="#6956A5"/>
</linearGradient>
<linearGradient id="paint23_linear_2232_9487" x1="3.23342" y1="5.58322" x2="6.07801" y2="5.58322" gradientUnits="userSpaceOnUse">
<stop stop-color="#BB9531"/>
<stop offset="0.37" stop-color="#F7EF8A"/>
<stop offset="0.63" stop-color="#DDC05B"/>
<stop offset="0.77" stop-color="#D1AB46"/>
<stop offset="0.79" stop-color="#D4AE49"/>
<stop offset="0.92" stop-color="#E5C05F"/>
<stop offset="1" stop-color="#EBC767"/>
</linearGradient>
<linearGradient id="paint24_linear_2232_9487" x1="3.13327" y1="3.96256" x2="4.79786" y2="4.92334" gradientUnits="userSpaceOnUse">
<stop stop-color="#180F29"/>
<stop offset="0.14" stop-color="#1D1330"/>
<stop offset="0.35" stop-color="#291E44"/>
<stop offset="0.6" stop-color="#3E3164"/>
<stop offset="0.88" stop-color="#5B4A90"/>
<stop offset="1" stop-color="#6956A5"/>
</linearGradient>
<linearGradient id="paint25_linear_2232_9487" x1="2.54345" y1="4.44301" x2="5.38804" y2="4.44301" gradientUnits="userSpaceOnUse">
<stop stop-color="#BB9531"/>
<stop offset="0.37" stop-color="#F7EF8A"/>
<stop offset="0.63" stop-color="#DDC05B"/>
<stop offset="0.77" stop-color="#D1AB46"/>
<stop offset="0.79" stop-color="#D4AE49"/>
<stop offset="0.92" stop-color="#E5C05F"/>
<stop offset="1" stop-color="#EBC767"/>
</linearGradient>
<linearGradient id="paint26_linear_2232_9487" x1="0.908032" y1="1.00137" x2="4.63788" y2="3.15474" gradientUnits="userSpaceOnUse">
<stop stop-color="#180F29"/>
<stop offset="0.14" stop-color="#1D1330"/>
<stop offset="0.35" stop-color="#291E44"/>
<stop offset="0.6" stop-color="#3E3164"/>
<stop offset="0.88" stop-color="#5B4A90"/>
<stop offset="1" stop-color="#6956A5"/>
</linearGradient>
<linearGradient id="paint27_linear_2232_9487" x1="0" y1="2.28106" x2="4.87419" y2="2.28106" gradientUnits="userSpaceOnUse">
<stop stop-color="#BB9531"/>
<stop offset="0.37" stop-color="#F7EF8A"/>
<stop offset="0.63" stop-color="#DDC05B"/>
<stop offset="0.77" stop-color="#D1AB46"/>
<stop offset="0.79" stop-color="#D4AE49"/>
<stop offset="0.92" stop-color="#E5C05F"/>
<stop offset="1" stop-color="#EBC767"/>
</linearGradient>
<linearGradient id="paint28_linear_2232_9487" x1="46.4267" y1="14.0999" x2="12.3546" y2="73.1146" gradientUnits="userSpaceOnUse">
<stop stop-color="#180F29"/>
<stop offset="0.14" stop-color="#1D1330"/>
<stop offset="0.35" stop-color="#291E44"/>
<stop offset="0.6" stop-color="#3E3164"/>
<stop offset="0.88" stop-color="#5B4A90"/>
<stop offset="1" stop-color="#6956A5"/>
</linearGradient>
<linearGradient id="paint29_linear_2232_9487" x1="4.29102" y1="45.5762" x2="54.9901" y2="45.5762" gradientUnits="userSpaceOnUse">
<stop stop-color="#BB9531"/>
<stop offset="0.37" stop-color="#F7EF8A"/>
<stop offset="0.63" stop-color="#DDC05B"/>
<stop offset="0.77" stop-color="#D1AB46"/>
<stop offset="0.79" stop-color="#D4AE49"/>
<stop offset="0.92" stop-color="#E5C05F"/>
<stop offset="1" stop-color="#EBC767"/>
</linearGradient>
<linearGradient id="paint30_linear_2232_9487" x1="6.65918" y1="45.6202" x2="52.6194" y2="45.6202" gradientUnits="userSpaceOnUse">
<stop stop-color="#BB9531"/>
<stop offset="0.37" stop-color="#F7EF8A"/>
<stop offset="0.63" stop-color="#DDC05B"/>
<stop offset="0.77" stop-color="#D1AB46"/>
<stop offset="0.79" stop-color="#D4AE49"/>
<stop offset="0.92" stop-color="#E5C05F"/>
<stop offset="1" stop-color="#EBC767"/>
</linearGradient>
<linearGradient id="paint31_linear_2232_9487" x1="10.186" y1="33.4775" x2="59.8866" y2="33.4775" gradientUnits="userSpaceOnUse">
<stop stop-color="#180F29"/>
<stop offset="0.14" stop-color="#1D1330"/>
<stop offset="0.35" stop-color="#291E44"/>
<stop offset="0.6" stop-color="#3E3164"/>
<stop offset="0.88" stop-color="#5B4A90"/>
<stop offset="1" stop-color="#6956A5"/>
</linearGradient>
<linearGradient id="paint32_linear_2232_9487" x1="9.5247" y1="33.4891" x2="60.4997" y2="33.4891" gradientUnits="userSpaceOnUse">
<stop stop-color="#BB9531"/>
<stop offset="0.37" stop-color="#F7EF8A"/>
<stop offset="0.63" stop-color="#DDC05B"/>
<stop offset="0.77" stop-color="#D1AB46"/>
<stop offset="0.79" stop-color="#D4AE49"/>
<stop offset="0.92" stop-color="#E5C05F"/>
<stop offset="1" stop-color="#EBC767"/>
</linearGradient>
<linearGradient id="paint33_linear_2232_9487" x1="17.3203" y1="39.5431" x2="47.9458" y2="39.5431" gradientUnits="userSpaceOnUse">
<stop stop-color="#180F29"/>
<stop offset="0.14" stop-color="#1D1330"/>
<stop offset="0.35" stop-color="#291E44"/>
<stop offset="0.6" stop-color="#3E3164"/>
<stop offset="0.88" stop-color="#5B4A90"/>
<stop offset="1" stop-color="#6956A5"/>
</linearGradient>
<linearGradient id="paint34_linear_2232_9487" x1="19.2835" y1="37.6581" x2="43.988" y2="37.6581" gradientUnits="userSpaceOnUse">
<stop stop-color="#BB9531"/>
<stop offset="0.37" stop-color="#F7EF8A"/>
<stop offset="0.63" stop-color="#DDC05B"/>
<stop offset="0.77" stop-color="#D1AB46"/>
<stop offset="0.79" stop-color="#D4AE49"/>
<stop offset="0.92" stop-color="#E5C05F"/>
<stop offset="1" stop-color="#EBC767"/>
</linearGradient>
<linearGradient id="paint35_linear_2232_9487" x1="16.6606" y1="39.5536" x2="48.528" y2="39.5536" gradientUnits="userSpaceOnUse">
<stop stop-color="#BB9531"/>
<stop offset="0.37" stop-color="#F7EF8A"/>
<stop offset="0.63" stop-color="#DDC05B"/>
<stop offset="0.77" stop-color="#D1AB46"/>
<stop offset="0.79" stop-color="#D4AE49"/>
<stop offset="0.92" stop-color="#E5C05F"/>
<stop offset="1" stop-color="#EBC767"/>
</linearGradient>
<linearGradient id="paint36_linear_2232_9487" x1="18.2778" y1="45.6199" x2="47.4726" y2="45.6199" gradientUnits="userSpaceOnUse">
<stop stop-color="#180F29"/>
<stop offset="0.14" stop-color="#1D1330"/>
<stop offset="0.35" stop-color="#291E44"/>
<stop offset="0.6" stop-color="#3E3164"/>
<stop offset="0.88" stop-color="#5B4A90"/>
<stop offset="1" stop-color="#6956A5"/>
</linearGradient>
<linearGradient id="paint37_linear_2232_9487" x1="18.2778" y1="45.6223" x2="47.4726" y2="45.6223" gradientUnits="userSpaceOnUse">
<stop stop-color="#180F29"/>
<stop offset="0.14" stop-color="#1D1330"/>
<stop offset="0.35" stop-color="#291E44"/>
<stop offset="0.6" stop-color="#3E3164"/>
<stop offset="0.88" stop-color="#5B4A90"/>
<stop offset="1" stop-color="#6956A5"/>
</linearGradient>
<linearGradient id="paint38_linear_2232_9487" x1="17.5962" y1="45.6253" x2="47.9752" y2="45.6253" gradientUnits="userSpaceOnUse">
<stop stop-color="#BB9531"/>
<stop offset="0.37" stop-color="#F7EF8A"/>
<stop offset="0.63" stop-color="#DDC05B"/>
<stop offset="0.77" stop-color="#D1AB46"/>
<stop offset="0.79" stop-color="#D4AE49"/>
<stop offset="0.92" stop-color="#E5C05F"/>
<stop offset="1" stop-color="#EBC767"/>
</linearGradient>
<linearGradient id="paint39_linear_2232_9487" x1="9.78705" y1="69.5371" x2="37.2994" y2="42.0247" gradientUnits="userSpaceOnUse">
<stop stop-color="#180F29"/>
<stop offset="0.14" stop-color="#1D1330"/>
<stop offset="0.35" stop-color="#291E44"/>
<stop offset="0.6" stop-color="#3E3164"/>
<stop offset="0.88" stop-color="#5B4A90"/>
<stop offset="1" stop-color="#6956A5"/>
</linearGradient>
<linearGradient id="paint40_linear_2232_9487" x1="14.7997" y1="58.3704" x2="47.9457" y2="58.3704" gradientUnits="userSpaceOnUse">
<stop stop-color="#180F29"/>
<stop offset="0.14" stop-color="#1D1330"/>
<stop offset="0.35" stop-color="#291E44"/>
<stop offset="0.6" stop-color="#3E3164"/>
<stop offset="0.88" stop-color="#5B4A90"/>
<stop offset="1" stop-color="#6956A5"/>
</linearGradient>
<linearGradient id="paint41_linear_2232_9487" x1="13.1177" y1="59.4435" x2="48.4988" y2="59.4435" gradientUnits="userSpaceOnUse">
<stop stop-color="#BB9531"/>
<stop offset="0.37" stop-color="#F7EF8A"/>
<stop offset="0.63" stop-color="#DDC05B"/>
<stop offset="0.77" stop-color="#D1AB46"/>
<stop offset="0.79" stop-color="#D4AE49"/>
<stop offset="0.92" stop-color="#E5C05F"/>
<stop offset="1" stop-color="#EBC767"/>
</linearGradient>
</defs>
</svg>
