<svg width="62" height="58" viewBox="0 0 62 58" fill="none" xmlns="http://www.w3.org/2000/svg">
<path d="M48.4567 16.5415H46.9839V18.404H48.4567V16.5415Z" fill="white"/>
<path d="M47.8138 16.6919L59.6114 16.2612C59.6114 16.2612 58.2237 18.2196 53.2394 18.8714C53.2394 18.8714 55.889 18.1085 57.2773 16.9387L47.8138 16.6919Z" fill="url(#paint0_linear_687_4326)"/>
<path d="M14.4813 5.42527V38.8319L31.001 46.5562L47.2816 38.7158C47.3608 27.6968 47.4405 16.6775 47.5207 5.65801L31.0636 0.303223L14.4813 5.42527Z" fill="url(#paint1_linear_687_4326)"/>
<path d="M31.001 46.8785L14.1852 39.0155V5.21368L31.0636 0L31.155 0.029321L47.8187 5.45008L47.5777 38.897L31.001 46.8785ZM14.7774 38.649L31.001 46.2353L46.9887 38.5385L47.2246 5.86852L31.058 0.607804L14.7774 5.63761V38.649Z" fill="url(#paint2_linear_687_4326)"/>
<path d="M0.225169 6.76758L18.0437 11.9916C17.6625 12.6811 17.4968 13.4645 17.567 14.2449C17.6372 15.0253 17.9402 15.7686 18.4387 16.3827C18.9371 16.9968 19.6091 17.4548 20.3715 17.7001C21.1339 17.9455 21.9532 17.9673 22.7282 17.763V26.6107C17.7833 32.2428 15.3252 30.8134 15.3252 30.8134L19.8038 25.8752C11.1997 30.2032 9.05963 27.3761 9.05963 27.3761L17.1799 23.5534C6.29299 26.56 4.53599 22.846 4.53599 22.846L14.3507 20.4404C1.28425 20.0904 0.586959 15.3428 0.586959 15.3428L14.1278 15.9323C-0.354448 12.1529 0.225169 6.76758 0.225169 6.76758Z" fill="url(#paint3_linear_687_4326)"/>
<path d="M17.3412 16.9383C17.3412 16.9383 15.7007 15.7679 16.5206 12.6874L1.56891 8.13403L15.5749 13.1822C15.5749 13.1822 15.4484 16.1992 17.3412 16.9383Z" fill="url(#paint4_linear_687_4326)"/>
<path d="M14.1874 16.6919L2.38971 16.2612C2.38971 16.2612 3.77741 18.2196 8.76174 18.8714C8.76174 18.8714 6.11278 18.1085 4.72445 16.9387L14.1874 16.6919Z" fill="url(#paint5_linear_687_4326)"/>
<path d="M17.1716 20.5125L5.68567 23.177C5.68567 23.177 7.5591 24.7042 12.5409 24.0292C12.5409 24.0292 9.77867 23.9858 8.12056 23.2204L17.1716 20.5125Z" fill="url(#paint6_linear_687_4326)"/>
<path d="M12.3152 27.0105L19.1084 23.2788L10.3453 27.3929C10.3453 27.3929 12.128 28.2988 16.0144 26.9043C16.0169 26.903 13.788 27.341 12.3152 27.0105Z" fill="url(#paint7_linear_687_4326)"/>
<path d="M20.1403 26.3303L16.4279 30.3767C16.4279 30.3767 17.5734 30.4756 19.3166 28.9075C19.3166 28.9075 18.2356 29.6161 17.3825 29.7548L20.1403 26.3303Z" fill="url(#paint8_linear_687_4326)"/>
<path d="M61.7755 6.76758L43.9607 11.9916C44.3419 12.6811 44.5076 13.4645 44.4374 14.2449C44.3672 15.0253 44.0641 15.7686 43.5657 16.3827C43.0672 16.9968 42.3953 17.4548 41.6329 17.7001C40.8705 17.9455 40.0512 17.9673 39.2762 17.763V26.6107C44.2211 32.2428 46.6791 30.8134 46.6791 30.8134L42.2006 25.8752C50.8047 30.2032 52.9441 27.3761 52.9441 27.3761L44.8245 23.5534C55.7114 26.56 57.4684 22.846 57.4684 22.846L47.6506 20.4404C60.7145 20.0904 61.4112 15.3428 61.4112 15.3428L47.8709 15.9323C62.3557 12.1529 61.7755 6.76758 61.7755 6.76758Z" fill="url(#paint9_linear_687_4326)"/>
<path d="M60.4196 10.0767C62.1309 8.20873 62.0014 6.80375 61.9957 6.7445L61.9676 6.48489L46.3285 11.0712L46.358 6.78604V6.68158L31.057 1.60718L15.642 6.46167V11.0614L0.0324453 6.48489L0.00427809 6.7445C-0.00135533 6.80559 -0.130924 8.21056 1.58039 10.0767C3.58651 12.2685 7.16561 14.1341 12.2382 15.6355L0.329765 15.1139L0.367321 15.3741C0.374832 15.426 0.576384 16.6691 2.44105 17.9397C4.64309 19.4394 8.12642 20.3306 12.809 20.5957L4.2162 22.7001L4.32887 22.9378C4.34827 22.9793 4.82962 23.9591 6.70367 24.5339C8.73796 25.1582 11.5484 25.0782 15.0787 24.3L8.71731 27.2944L8.87692 27.5045C8.92887 27.5748 9.67687 28.5039 11.8927 28.5039C12.8491 28.5039 14.0778 28.331 15.6414 27.8399V30.1343L14.9779 30.8673L15.2076 31.0005C15.3435 31.071 15.4899 31.1201 15.6414 31.1459V38.0162L18.9251 39.5818V39.5898H18.942L25.4849 42.7082V42.7449H25.5625L30.938 45.3074L31.0044 45.3392L46.0606 37.9478L46.1408 37.9075L46.1883 31.1758C46.5639 31.1288 46.7661 31.0188 46.7942 31.0011L47.0252 30.8679L46.1971 29.9516L46.2127 27.7923C51.5219 29.5027 53.0505 27.6035 53.125 27.5033L53.2839 27.2932L46.9251 24.3C50.4553 25.0782 53.2658 25.1552 55.2982 24.5339C57.1723 23.9591 57.6555 22.9793 57.6768 22.9378L57.7894 22.7001L49.1922 20.5939C53.8748 20.3288 57.3582 19.4375 59.5602 17.9379C61.4236 16.6691 61.6258 15.426 61.6339 15.3723L61.6715 15.112L49.7624 15.6319C54.8356 14.1341 58.4166 12.2685 60.4196 10.0767ZM18.9257 39.2599L15.9394 37.8372V31.185C16.0082 31.1917 16.0814 31.1947 16.1603 31.1947C16.78 31.1947 17.7026 31.0072 18.9257 30.2717V39.2599ZM22.1455 40.7956L19.2211 39.4004V30.0866C20.0636 29.5369 21.0401 28.7336 22.1455 27.5705V40.7956ZM19.2211 29.5558C19.1197 29.626 19.0215 29.692 18.9257 29.7525C18.214 30.2113 17.6281 30.4629 17.1731 30.5979C16.6404 30.7561 16.2292 30.7739 15.9419 30.7476V30.4635L18.9282 27.171L19.2236 26.8436L20.7566 25.1546L19.7012 25.6848C19.5393 25.7662 19.3801 25.8446 19.2236 25.92C19.1235 25.9694 19.0252 26.0165 18.9282 26.0629C17.9586 26.5279 16.9614 26.9359 15.9419 27.2846C15.8417 27.3188 15.7416 27.3506 15.6445 27.3824C13.6159 28.0323 12.2113 28.1246 11.2943 28.0409C10.2928 27.9486 9.72381 27.6389 9.44777 27.4355L15.6445 24.5187L15.9419 24.3782L17.2757 23.7502L17.1192 23.3458C16.7136 23.457 16.3212 23.5588 15.9419 23.6512C15.8417 23.6763 15.7428 23.6995 15.6445 23.7227C11.042 24.8186 8.36991 24.5724 6.90522 24.1381C5.72721 23.7905 5.14697 23.2731 4.89597 22.9775L15.6445 20.3434L15.9419 20.2707L15.9713 20.2634H15.9419L15.6445 20.2567L14.357 20.2219C7.71581 20.0453 4.37957 18.7088 2.74963 17.619C1.51028 16.7882 1.05084 15.9758 0.889978 15.5732L15.642 16.2165L15.9394 16.2287L16.1591 16.2385L15.9394 16.181L15.642 16.1041L14.1855 15.7229C6.8107 13.7987 3.46508 11.4603 1.9572 9.83667C0.777935 8.5673 0.517546 7.53251 0.45996 7.06215L15.6427 11.5153L15.94 11.6014L17.7258 12.1256C17.4346 12.7468 17.3019 13.4276 17.3389 14.1099C17.3759 14.7921 17.5815 15.4554 17.9382 16.0432C18.2949 16.6311 18.7921 17.1259 19.3873 17.4855C19.9825 17.8451 20.658 18.0588 21.3562 18.1083C21.4601 18.115 21.5659 18.1193 21.6729 18.1193C21.9521 18.1187 22.2306 18.091 22.5042 18.0368V26.5278L22.4416 26.5937C22.3427 26.7061 22.2444 26.8149 22.1455 26.9224C21.0232 28.1508 20.0467 28.9865 19.2211 29.5558ZM15.9394 29.8075V27.744C16.943 27.4078 17.9253 27.0139 18.8813 26.5644L15.9394 29.8075ZM39.5597 40.8121L36.5157 42.3063V34.1391C36.4212 34.2393 36.3223 34.3382 36.2197 34.4372V42.4523L30.9994 45.0179L25.7816 42.528V34.4372C25.6789 34.3382 25.58 34.2393 25.4855 34.1391V42.3857L22.4416 40.9355V27.2523C22.5893 27.0928 22.7401 26.9254 22.8923 26.752L22.9461 26.6909V17.4816L22.6669 17.553C22.3433 17.6388 22.0095 17.6831 21.6742 17.685C21.5671 17.685 21.4614 17.6807 21.3575 17.6709C20.383 17.5926 19.4742 17.1598 18.8114 16.4583C18.1486 15.7568 17.7801 14.8378 17.779 13.8836C17.7775 13.2585 17.9358 12.6429 18.2397 12.0926L18.368 11.8586L15.9425 11.1482V6.67059L31.0545 1.91077L46.0619 6.88927L46.0325 11.1604L43.6364 11.8629L43.7616 12.0968C44.0656 12.6471 44.2239 13.2627 44.2223 13.8879C44.2212 14.8421 43.8527 15.7611 43.1898 16.4626C42.527 17.1641 41.6183 17.5969 40.6438 17.6752C40.5399 17.685 40.4341 17.6893 40.3271 17.6893C39.9902 17.6878 39.655 17.6434 39.33 17.5573L39.0508 17.4858V26.6909L39.1046 26.752C39.2536 26.9224 39.4019 27.0861 39.5465 27.2443C39.5465 27.2443 39.5522 27.251 39.5565 27.2541L39.5597 40.8121ZM42.7801 39.2312L39.8557 40.6679V27.5705C40.9611 28.7311 41.9376 29.5381 42.7801 30.0866V39.2312ZM45.8441 37.7273L43.0756 39.0852V30.2717C44.2986 31.0048 45.2213 31.1947 45.8409 31.1947H45.8904L45.8441 37.7273ZM45.9017 29.6285L43.1206 26.5644C44.0295 26.9919 44.9622 27.3696 45.9142 27.6957L45.9017 29.6285ZM61.1119 15.5732C60.9498 15.9758 60.4916 16.7901 59.2522 17.619C57.6248 18.7088 54.2867 20.0453 47.6474 20.2237L46.2628 20.261L46.0331 20.2665L46.2628 20.3233L57.1065 22.9805C56.8562 23.2743 56.2772 23.7917 55.0992 24.1411C53.622 24.5785 50.9154 24.8259 46.239 23.6971C46.1414 23.6738 46.0431 23.65 45.9442 23.6244C45.6025 23.5388 45.2494 23.4462 44.8851 23.3464L44.7287 23.7508L45.9386 24.3214L46.2334 24.4588L52.5554 27.4361C52.2793 27.6414 51.7091 27.9505 50.7088 28.0415C49.7699 28.1276 48.3196 28.0274 46.2121 27.3359C46.1151 27.3042 46.0181 27.2712 45.9179 27.2358C44.9485 26.8972 43.9993 26.5056 43.0749 26.0629C42.9779 26.0165 42.8796 25.9694 42.7795 25.92C42.623 25.8442 42.4638 25.7658 42.3019 25.6848L41.2466 25.1546L42.7795 26.8436L43.0749 27.1698L45.8979 30.2803L46.1921 30.6034L46.2966 30.7189C46.2641 30.7256 46.229 30.7323 46.1908 30.7378C46.0929 30.7534 45.994 30.7618 45.8948 30.7629C45.3245 30.7763 44.3875 30.6059 43.0781 29.7635C42.9825 29.7012 42.884 29.635 42.7826 29.565C41.9482 28.9877 40.9737 28.1465 39.8582 26.9285C39.7606 26.8228 39.6623 26.7141 39.5622 26.6011C39.5601 26.5978 39.5574 26.5951 39.554 26.5931C39.5371 26.5724 39.5184 26.5516 39.5002 26.532V18.0411C39.7743 18.0953 40.0531 18.1229 40.3327 18.1236C40.4397 18.1236 40.5455 18.1193 40.6494 18.1126C41.3476 18.0631 42.0232 17.8494 42.6184 17.4898C43.2136 17.1302 43.7107 16.6353 44.0674 16.0475C44.4242 15.4597 44.6298 14.7964 44.6668 14.1141C44.7038 13.4319 44.571 12.7511 44.2799 12.1298L46.0325 11.6155L46.3285 11.5287L61.5463 7.06642C61.4912 7.53678 61.2283 8.57158 60.0491 9.84094C58.5406 11.4646 55.1949 13.803 47.8202 15.7272L46.296 16.1261L46.0006 16.203L45.8466 16.2427L46.0006 16.236L46.296 16.2238L61.1119 15.5732Z" fill="url(#paint10_linear_687_4326)"/>
<path d="M44.6605 16.9383C44.6605 16.9383 46.3005 15.7679 45.4805 12.6898L60.4329 8.13403L46.4269 13.1822C46.4269 13.1822 46.5534 16.1992 44.6605 16.9383Z" fill="url(#paint11_linear_687_4326)"/>
<path d="M44.8301 20.5125L56.3161 23.177C56.3161 23.177 54.4426 24.7042 49.4608 24.0292C49.4608 24.0292 52.2224 23.9858 53.8812 23.2204L44.8301 20.5125Z" fill="url(#paint12_linear_687_4326)"/>
<path d="M49.6859 27.0105L42.8926 23.2788L51.6557 27.3929C51.6557 27.3929 49.8731 28.2988 45.986 26.9043C45.9835 26.903 48.2131 27.341 49.6859 27.0105Z" fill="url(#paint13_linear_687_4326)"/>
<path d="M41.8605 26.3303L45.5729 30.3767C45.5729 30.3767 44.4268 30.4756 42.6842 28.9075C42.6842 28.9075 43.7652 29.6161 44.6183 29.7548L41.8605 26.3303Z" fill="url(#paint14_linear_687_4326)"/>
<path d="M31.001 19.2769L30.5479 23.931L31.001 24.2859V19.2769Z" fill="white"/>
<path d="M31.4542 23.931L31.001 19.2769V24.2859L31.4542 23.931Z" fill="white"/>
<path d="M40.0677 13.8412V22.4769L38.9798 23.6088V28.5641C38.9798 28.5641 38.0365 33.0234 33.9029 35.5004V21.2026C33.9029 21.2026 37.9646 20.3536 37.6015 16.956L32.3787 18.7959L33.0316 22.6186L31.0016 24.1757L28.9711 22.6186L29.6246 18.7959L24.4024 16.956C24.0394 20.3536 28.1011 21.2026 28.1011 21.2026V35.5004C23.9699 33.0228 23.0241 28.5641 23.0241 28.5641V23.6088L21.9362 22.4769V13.8412C21.9362 9.73622 28.3915 6.48034 28.3915 6.48034C29.3082 5.85444 30.1802 5.16849 31.0016 4.42725C31.8234 5.16861 32.6959 5.85455 33.6131 6.48034C33.6131 6.48034 40.0677 9.73622 40.0677 13.8412Z" fill="url(#paint15_linear_687_4326)"/>
<path d="M36.9362 8.51039C35.929 7.68982 34.8415 6.96797 33.6895 6.35528C32.782 5.73433 31.9179 5.05497 31.1031 4.32173L31.0017 4.22827L30.9003 4.32173C30.0858 5.05504 29.2219 5.73441 28.3146 6.35528C27.1626 6.96823 26.0752 7.69006 25.0678 8.51039C22.9215 10.2752 21.7873 12.1187 21.7873 13.8407V22.5333L22.8758 23.6658V28.5637L22.8789 28.593C22.8883 28.6382 23.8804 33.1414 28.0229 35.6234L28.2488 35.7584V34.0724V33.3339V21.0855L28.1318 21.0611C27.4414 20.8926 26.7853 20.6111 26.1914 20.2285C25.0146 19.4527 24.4582 18.4204 24.5345 17.1559L29.4581 18.8907L28.8109 22.678L31.0017 24.3585L33.1925 22.678L32.5453 18.8907L37.4695 17.1559C37.5452 18.4204 36.9888 19.4527 35.812 20.2285C35.2181 20.6111 34.562 20.8926 33.8716 21.0611L33.7546 21.0855V33.3235L33.7427 33.3302V34.0724L33.7558 34.0669V35.7602L33.9818 35.6252C38.1223 33.1433 39.1145 28.64 39.1263 28.5948V28.5802V23.6658L40.2148 22.5333V13.8407C40.2161 12.1187 39.0819 10.2752 36.9362 8.51039ZM39.92 22.419L38.8315 23.551V28.5484C38.7689 28.8159 37.7812 32.8672 34.0513 35.2373V33.8616C35.0528 33.1439 36.7428 31.585 37.7224 28.775C37.6704 28.877 36.17 31.7847 34.0513 33.1445V21.3158C34.7335 21.1376 35.3818 20.853 35.971 20.4728C37.2886 19.6079 37.9039 18.3861 37.7493 16.9409L37.7293 16.7576L32.2135 18.7013L32.872 22.5577L31.0017 23.9914L29.132 22.5571L29.7905 18.7007L24.2741 16.757L24.2541 16.9402C24.1001 18.3855 24.7148 19.6073 26.0324 20.4722C26.6217 20.8525 27.2702 21.1372 27.9528 21.3152V33.1506C25.8371 31.7896 24.3386 28.8856 24.2867 28.7842C25.265 31.5886 26.9531 33.1482 27.9528 33.8671V35.2355C24.2216 32.8653 23.2332 28.8141 23.1719 28.5466V23.551L22.0834 22.419V13.8407C22.0834 9.87016 28.3953 6.63994 28.4591 6.60818L28.4748 6.59901C29.3598 5.99431 30.2039 5.33443 31.0017 4.6235C31.7998 5.33418 32.6441 5.99385 33.5292 6.5984L33.5449 6.60757C33.6075 6.63933 39.92 9.87077 39.92 13.8401V22.419Z" fill="url(#paint16_linear_687_4326)"/>
<path d="M30.5579 23.3303L31.0011 23.6773L31.4436 23.3303L31.0011 18.7837L30.5579 23.3303Z" fill="url(#paint17_linear_687_4326)"/>
<path d="M31.7511 5.99152C31.2936 5.59935 31 5.31958 31 5.31958C31 5.31958 30.7065 5.59752 30.2489 5.99152L31 11.4092L31.7511 5.99152Z" fill="url(#paint18_linear_687_4326)"/>
<path d="M23.6919 51.2398C23.6763 51.2145 23.6585 51.1906 23.6387 51.1683C23.6099 51.1323 23.5761 51.0913 23.5448 51.0461C23.5109 50.9997 23.4802 50.9511 23.4528 50.9008C23.4282 50.8576 23.4113 50.8107 23.4027 50.7621H26.5449C26.5883 50.7634 26.6297 50.7801 26.6614 50.8091C26.7017 50.8428 26.7359 50.8829 26.7628 50.9276C26.7907 50.9744 26.8117 51.0248 26.8253 51.0773C26.8384 51.1217 26.8424 51.1682 26.8372 51.2141L26.5869 52.7718C26.5778 52.8214 26.5584 52.8686 26.5299 52.9105C26.4968 52.9628 26.4591 53.0123 26.4172 53.0583C26.3773 53.1038 26.3312 53.1436 26.2802 53.1768C26.2412 53.2045 26.1949 53.2208 26.1468 53.2238H23.3702L23.6919 51.2398ZM25.8245 51.5379C25.8273 51.5181 25.8224 51.498 25.8107 51.4817C25.7982 51.4621 25.785 51.453 25.7694 51.453H24.6227L24.4487 52.5269H25.5954C25.605 52.5256 25.6143 52.5224 25.6226 52.5175C25.6309 52.5125 25.6381 52.506 25.6436 52.4981C25.6586 52.4817 25.6703 52.4626 25.678 52.4419L25.8245 51.5379Z" fill="white"/>
<path d="M27.5749 51.2394C27.5596 51.2141 27.542 51.1902 27.5223 51.1679C27.4935 51.1319 27.4597 51.091 27.4284 51.0458C27.3945 50.9993 27.3638 50.9508 27.3364 50.9004C27.3115 50.8574 27.2946 50.8104 27.2863 50.7617H30.575L30.4648 51.4557H28.5157L28.4831 51.6481H29.9559L29.8408 52.3371H28.3717L28.3442 52.5295H30.294L30.1788 53.2235H27.2538L27.5749 51.2394Z" fill="white"/>
<path d="M31.9952 52.5284H33.7021L33.587 53.2224H30.9174L31.2385 51.2395C31.2236 51.2154 31.2066 51.1925 31.1878 51.1711C31.159 51.1351 31.1252 51.0941 31.0939 51.0489C31.06 51.0025 31.0293 50.9539 31.0019 50.9036C30.977 50.8606 30.96 50.8136 30.9518 50.7649H32.2819L31.9952 52.5284Z" fill="white"/>
<path d="M34.0874 53.2223L34.4085 51.2394C34.393 51.2143 34.3754 51.1904 34.3559 51.1679C34.3265 51.1319 34.2933 51.091 34.262 51.0458C34.2282 50.9993 34.1974 50.9508 34.17 50.9004C34.1452 50.8573 34.1281 50.8104 34.1193 50.7617H35.4501L35.3074 51.6432H36.5229L36.665 50.7617H37.6283L37.2296 53.2235H36.2663L36.4084 52.342H35.1947L35.0526 53.2235L34.0874 53.2223Z" fill="white"/>
<path d="M38.1053 50.7612H39.0686L38.6699 53.223C38.6496 53.2527 38.6239 53.2786 38.5941 53.2993C38.5405 53.3418 38.4845 53.3814 38.4264 53.4179C38.3594 53.4612 38.2849 53.5064 38.2042 53.5541C38.1234 53.6017 38.0439 53.6451 37.9676 53.6842C37.8912 53.7233 37.8211 53.755 37.7566 53.7807C37.7104 53.8015 37.6609 53.8143 37.6102 53.8186L38.1053 50.7612Z" fill="white"/>
<path d="M13.3129 57.4021H11.5015C11.4579 57.4006 11.4164 57.3839 11.3844 57.355C11.3448 57.3221 11.3115 57.2826 11.2861 57.2384C11.2584 57.193 11.2374 57.144 11.2235 57.093C11.2103 57.048 11.2063 57.0008 11.2116 56.9543L11.462 55.3875C11.4724 55.3388 11.4919 55.2924 11.5196 55.2506C11.5519 55.1981 11.5895 55.1488 11.6316 55.1034C11.6719 55.0593 11.7175 55.0201 11.7675 54.9867C11.8053 54.9587 11.8509 54.9423 11.8983 54.9397H14.6731L14.5654 55.6306H12.4554C12.4457 55.6318 12.4363 55.6351 12.428 55.6402C12.4197 55.6452 12.4126 55.6519 12.4072 55.6599C12.393 55.6743 12.3829 55.6919 12.3778 55.7112L12.2263 56.6244C12.2234 56.6431 12.2274 56.6622 12.2376 56.6782C12.2415 56.6862 12.2478 56.693 12.2555 56.6978C12.2633 56.7025 12.2722 56.7051 12.2814 56.7051H13.3636C13.3728 56.7042 13.3816 56.7013 13.3895 56.6966C13.3974 56.692 13.4042 56.6857 13.4093 56.6782C13.4235 56.6632 13.433 56.6445 13.4368 56.6244L13.4556 56.5127H12.6206L12.7352 55.823H14.5335L14.2762 57.4021C14.2563 57.4319 14.2305 57.4576 14.2005 57.4778C14.1472 57.5205 14.0914 57.56 14.0334 57.5963C13.9664 57.6397 13.8919 57.6855 13.8112 57.7332C13.7304 57.7808 13.6509 57.8242 13.5746 57.8627C13.4982 57.9011 13.4281 57.9335 13.3636 57.9592C13.3174 57.98 13.2678 57.9928 13.2171 57.997L13.3129 57.4021Z" fill="white"/>
<path d="M15.2639 57.3523C15.2245 57.3192 15.1913 57.2798 15.1656 57.2357C15.1382 57.1902 15.1172 57.1413 15.103 57.0903C15.0897 57.0453 15.0859 56.9981 15.0918 56.9516L15.3421 55.4159C15.3267 55.3907 15.3091 55.3668 15.2896 55.3445C15.2608 55.3084 15.227 55.2675 15.1957 55.2223C15.1617 55.1759 15.1309 55.1273 15.1037 55.0769C15.0787 55.0339 15.0617 54.987 15.0536 54.9382H16.3837L16.1039 56.6248C16.1013 56.6438 16.1062 56.663 16.1177 56.6786C16.1218 56.686 16.1277 56.6924 16.1349 56.6971C16.1421 56.7018 16.1504 56.7046 16.159 56.7054H17.2462C17.2554 56.7045 17.2643 56.7016 17.2722 56.697C17.2801 56.6923 17.2868 56.6861 17.2919 56.6786C17.3059 56.6634 17.3154 56.6448 17.3195 56.6248L17.5949 54.937H18.5582L18.2321 56.9528C18.2231 57.0024 18.2037 57.0496 18.1751 57.0915C18.1423 57.1433 18.1046 57.192 18.0625 57.2369C18.0224 57.281 17.977 57.3202 17.9273 57.3536C17.8894 57.3815 17.8439 57.3979 17.7964 57.4006H15.381C15.3373 57.3986 15.2958 57.3815 15.2639 57.3523Z" fill="white"/>
<path d="M20.9949 57.1039H19.8388L19.646 57.3995H18.6076L19.9102 55.4252C19.8972 55.4016 19.881 55.3798 19.862 55.3605C19.8332 55.3256 19.7994 55.2841 19.7662 55.2346C19.7321 55.1849 19.7005 55.1335 19.6717 55.0807C19.6437 55.0366 19.6264 54.9869 19.621 54.9353H21.2635L22.0866 57.402H21.0957L20.9949 57.1039ZM20.2839 56.4142H20.7746L20.6144 55.9084L20.2839 56.4142Z" fill="white"/>
<path d="M22.9337 54.937H25.7135C25.757 54.9385 25.7985 54.9552 25.8305 54.984C25.8702 55.017 25.9037 55.0565 25.9294 55.1007C25.9572 55.1467 25.9782 55.1963 25.992 55.2479C26.0052 55.2923 26.009 55.3389 26.0033 55.3848L25.8781 56.1459C25.8655 56.2309 25.8456 56.3146 25.8186 56.3964C25.7971 56.4632 25.7602 56.5244 25.711 56.5753C25.6582 56.626 25.5938 56.6637 25.5232 56.6853C25.4323 56.7136 25.3376 56.7286 25.2421 56.7299H25.1964L25.8111 57.4018H24.6788L23.8651 56.524L23.9383 56.0811H24.8666C24.9091 56.0811 24.9354 56.0543 24.9442 56.0005L24.9899 55.714C24.9928 55.6954 24.9888 55.6763 24.9786 55.6603C24.9752 55.6528 24.9699 55.6463 24.963 55.6416C24.9562 55.6369 24.9482 55.634 24.9398 55.6334H23.7881L23.4995 57.4049C23.4794 57.4345 23.4537 57.4602 23.4238 57.4806C23.3703 57.5233 23.3143 57.5628 23.256 57.5991C23.1891 57.6425 23.1146 57.6883 23.0338 57.736C22.9531 57.7836 22.8742 57.827 22.7979 57.8655C22.7215 57.904 22.6508 57.9363 22.5863 57.962C22.5401 57.9828 22.4905 57.9956 22.4398 57.9999L22.9337 54.937Z" fill="white"/>
<path d="M26.7402 55.4167C26.7244 55.3917 26.7068 55.3678 26.6877 55.3452C26.6582 55.3091 26.6251 55.2682 26.5931 55.223C26.5595 55.1765 26.529 55.1279 26.5018 55.0776C26.4769 55.0346 26.4597 54.9877 26.4511 54.939H29.5933C29.6368 54.9405 29.6783 54.9572 29.7103 54.986C29.7506 55.0196 29.7847 55.0597 29.8111 55.1045C29.8391 55.1515 29.8602 55.2021 29.8737 55.2548C29.8868 55.299 29.8907 55.3453 29.8849 55.391L29.6346 56.9487C29.6254 56.9985 29.6058 57.0459 29.577 57.088C29.5439 57.14 29.5064 57.1892 29.4649 57.2352C29.4249 57.2818 29.3786 57.3229 29.3272 57.3574C29.2884 57.3852 29.2421 57.4016 29.1939 57.4044H26.4191L26.7402 55.4167ZM28.8722 55.7166C28.875 55.697 28.8701 55.6771 28.8584 55.661C28.8548 55.6529 28.8491 55.646 28.8419 55.6408C28.8346 55.6357 28.826 55.6325 28.8171 55.6317H27.671L27.4951 56.7062H28.6418C28.6515 56.7049 28.6609 56.7017 28.6692 56.6966C28.6775 56.6915 28.6846 56.6848 28.69 56.6769C28.705 56.6606 28.7167 56.6418 28.7245 56.6213L28.8722 55.7166Z" fill="white"/>
<path d="M30.4363 54.937H31.3996L30.9997 57.4018C30.9793 57.4313 30.9536 57.457 30.9239 57.4776C30.8704 57.5202 30.8144 57.5598 30.7562 57.5961C30.6892 57.6394 30.6147 57.6853 30.534 57.7329C30.4532 57.7806 30.3737 57.8239 30.2974 57.8624C30.221 57.9009 30.1509 57.9333 30.0864 57.9589C30.0402 57.9798 29.9906 57.9926 29.9399 57.9968L30.4363 54.937Z" fill="white"/>
<path d="M33.8352 57.1037H32.6791L32.4863 57.3994H31.4498L32.753 55.4251C32.7398 55.4016 32.7236 55.3798 32.7048 55.3603C32.676 55.3255 32.6422 55.284 32.6084 55.2345C32.5746 55.185 32.5408 55.1349 32.5101 55.0824C32.4822 55.0383 32.4648 54.9886 32.4594 54.937H34.1019L34.9268 57.4018H33.936L33.8352 57.1037ZM33.1241 56.4141H33.6149L33.4546 55.9083L33.1241 56.4141Z" fill="white"/>
<path d="M37.9491 54.937H38.913L38.5124 57.4018H37.586L36.5357 56.1929L36.3398 57.4018H36.3348C36.3146 57.4315 36.2889 57.4572 36.2591 57.4776C36.2063 57.5198 36.1514 57.5594 36.0944 57.5961C36.0281 57.6394 35.9548 57.6853 35.8741 57.7329C35.7934 57.7806 35.7151 57.8239 35.64 57.8624C35.5715 57.8983 35.5011 57.9305 35.4291 57.9589C35.3819 57.9797 35.3316 57.9925 35.2801 57.9968L35.7752 54.9395H36.6972L37.7525 56.1483L37.9491 54.937Z" fill="white"/>
<path d="M39.2348 57.3523C39.1954 57.3193 39.1621 57.2798 39.1365 57.2357C39.1091 57.1902 39.088 57.1413 39.0739 57.0903C39.0606 57.0453 39.0567 56.9981 39.0626 56.9516L39.1308 56.535H40.0942L40.076 56.6291C40.073 56.6477 40.077 56.6668 40.0873 56.6828C40.0908 56.6904 40.0963 56.6969 40.1032 56.7016C40.1101 56.7063 40.1183 56.7091 40.1267 56.7097H41.1032L39.3881 56.1367C39.3498 56.1116 39.315 56.0816 39.2848 56.0476C39.2536 56.0133 39.2336 55.9708 39.2272 55.9254L39.3142 55.3836C39.3246 55.3349 39.3441 55.2885 39.3718 55.2467C39.4044 55.1942 39.4421 55.1449 39.4845 55.0995C39.5244 55.0553 39.5698 55.0161 39.6197 54.9828C39.6576 54.9548 39.7031 54.9385 39.7505 54.9358H42.0533C42.0967 54.9374 42.138 54.9541 42.1698 54.9828C42.2095 55.0158 42.243 55.0553 42.2687 55.0995C42.2964 55.1455 42.3175 55.195 42.3313 55.2467C42.3444 55.2911 42.3483 55.3377 42.3425 55.3836L42.2799 55.7995H41.3154L41.3291 55.7061C41.332 55.6874 41.3277 55.6682 41.3172 55.6523C41.314 55.6448 41.3086 55.6382 41.3018 55.6335C41.2949 55.6287 41.2868 55.6259 41.2784 55.6254H40.3013L42.017 56.1997C42.0566 56.2267 42.0928 56.2583 42.1247 56.2937C42.1538 56.3264 42.1722 56.3668 42.1773 56.4098L42.0903 56.9516C42.081 57.0011 42.0616 57.0483 42.0333 57.0903C42.0001 57.1418 41.9624 57.1904 41.9206 57.2357C41.8804 57.2796 41.835 57.3188 41.7854 57.3523C41.7475 57.3802 41.702 57.3966 41.6546 57.3994H39.3518C39.3083 57.3978 39.2668 57.3811 39.2348 57.3523Z" fill="white"/>
<path d="M45.0576 57.4021C45.0374 57.4317 45.0117 57.4574 44.9818 57.4778C44.9283 57.5205 44.8723 57.56 44.8141 57.5963C44.7471 57.6397 44.6726 57.6855 44.5919 57.7332C44.5111 57.7808 44.4323 57.8242 44.3559 57.8627C44.2795 57.9011 44.2088 57.9335 44.1443 57.9592C44.0981 57.98 44.0486 57.9928 43.9979 57.997L44.493 54.9397H47.4148L47.3053 55.6306H45.3555L45.3236 55.823H46.7958L46.6813 56.5127H45.2097L45.0663 57.4021H45.0576Z" fill="white"/>
<path d="M50.2718 57.4021H47.8544C47.8109 57.4006 47.7694 57.3839 47.7374 57.355C47.6978 57.322 47.6644 57.2825 47.6385 57.2384C47.611 57.1929 47.59 57.144 47.5759 57.093C47.5624 57.048 47.5583 57.0008 47.564 56.9543L47.8144 55.3875C47.8248 55.3388 47.8443 55.2924 47.872 55.2506C47.9043 55.1981 47.9418 55.1488 47.984 55.1034C48.0243 55.0593 48.0699 55.0201 48.1198 54.9867C48.1575 54.9588 48.2028 54.9424 48.25 54.9397H50.6674C50.7109 54.9412 50.7525 54.9579 50.7845 54.9867C50.8242 55.0197 50.8577 55.0592 50.8834 55.1034C50.9111 55.1494 50.9322 55.199 50.9459 55.2506C50.9591 55.295 50.963 55.3416 50.9572 55.3875L50.879 55.8841H49.9188L49.9463 55.7143C49.9488 55.6955 49.9446 55.6766 49.9344 55.6605C49.9311 55.653 49.9257 55.6466 49.9188 55.6418C49.912 55.6371 49.904 55.6343 49.8956 55.6336H48.8084C48.7987 55.6349 48.7893 55.6382 48.781 55.6432C48.7727 55.6483 48.7656 55.655 48.7602 55.663C48.7458 55.6772 48.7356 55.6949 48.7308 55.7143L48.5793 56.6275C48.5764 56.6462 48.5804 56.6652 48.5905 56.6813C48.5945 56.6893 48.6008 56.6961 48.6085 56.7008C48.6163 56.7056 48.6252 56.7081 48.6344 56.7081H49.721C49.7303 56.7073 49.7392 56.7045 49.7473 56.6998C49.7553 56.6952 49.7621 56.6888 49.7673 56.6813C49.7809 56.6659 49.7904 56.6474 49.7948 56.6275L49.8224 56.4571H50.7857L50.7075 56.9543C50.6982 57.0039 50.6786 57.0511 50.6499 57.093C50.6171 57.1446 50.5796 57.1933 50.5378 57.2384C50.4975 57.2822 50.4521 57.3213 50.4026 57.355C50.3647 57.3829 50.3192 57.3993 50.2718 57.4021Z" fill="white"/>
<defs>
<linearGradient id="paint0_linear_687_4326" x1="47.8138" y1="17.5666" x2="59.6114" y2="17.5666" gradientUnits="userSpaceOnUse">
<stop stop-color="#BB9531"/>
<stop offset="0.37" stop-color="#F7EF8A"/>
<stop offset="0.63" stop-color="#DDC05B"/>
<stop offset="0.77" stop-color="#D1AB46"/>
<stop offset="0.79" stop-color="#D4AE49"/>
<stop offset="0.92" stop-color="#E5C05F"/>
<stop offset="1" stop-color="#EBC767"/>
</linearGradient>
<linearGradient id="paint1_linear_687_4326" x1="14.4813" y1="23.4297" x2="47.5207" y2="23.4297" gradientUnits="userSpaceOnUse">
<stop stop-color="#211C53"/>
<stop offset="0.21" stop-color="#20205A"/>
<stop offset="0.51" stop-color="#1C2D6E"/>
<stop offset="0.87" stop-color="#16418E"/>
<stop offset="1" stop-color="#14499B"/>
</linearGradient>
<linearGradient id="paint2_linear_687_4326" x1="39.4236" y1="17.4095" x2="24.76" y2="25.7824" gradientUnits="userSpaceOnUse">
<stop stop-color="#BB9531"/>
<stop offset="0.37" stop-color="#F7EF8A"/>
<stop offset="0.63" stop-color="#DDC05B"/>
<stop offset="0.77" stop-color="#D1AB46"/>
<stop offset="0.79" stop-color="#D4AE49"/>
<stop offset="0.92" stop-color="#E5C05F"/>
<stop offset="1" stop-color="#EBC767"/>
</linearGradient>
<linearGradient id="paint3_linear_687_4326" x1="21.7411" y1="27.6828" x2="0.790571" y2="6.21578" gradientUnits="userSpaceOnUse">
<stop stop-color="#211C53"/>
<stop offset="0.21" stop-color="#20205A"/>
<stop offset="0.51" stop-color="#1C2D6E"/>
<stop offset="0.87" stop-color="#16418E"/>
<stop offset="1" stop-color="#14499B"/>
</linearGradient>
<linearGradient id="paint4_linear_687_4326" x1="1.56891" y1="12.5359" x2="17.3412" y2="12.5359" gradientUnits="userSpaceOnUse">
<stop stop-color="#BB9531"/>
<stop offset="0.37" stop-color="#F7EF8A"/>
<stop offset="0.63" stop-color="#DDC05B"/>
<stop offset="0.77" stop-color="#D1AB46"/>
<stop offset="0.79" stop-color="#D4AE49"/>
<stop offset="0.92" stop-color="#E5C05F"/>
<stop offset="1" stop-color="#EBC767"/>
</linearGradient>
<linearGradient id="paint5_linear_687_4326" x1="2.38971" y1="17.5666" x2="14.1874" y2="17.5666" gradientUnits="userSpaceOnUse">
<stop stop-color="#BB9531"/>
<stop offset="0.37" stop-color="#F7EF8A"/>
<stop offset="0.63" stop-color="#DDC05B"/>
<stop offset="0.77" stop-color="#D1AB46"/>
<stop offset="0.79" stop-color="#D4AE49"/>
<stop offset="0.92" stop-color="#E5C05F"/>
<stop offset="1" stop-color="#EBC767"/>
</linearGradient>
<linearGradient id="paint6_linear_687_4326" x1="5.68567" y1="22.3566" x2="17.1716" y2="22.3566" gradientUnits="userSpaceOnUse">
<stop stop-color="#BB9531"/>
<stop offset="0.37" stop-color="#F7EF8A"/>
<stop offset="0.63" stop-color="#DDC05B"/>
<stop offset="0.77" stop-color="#D1AB46"/>
<stop offset="0.79" stop-color="#D4AE49"/>
<stop offset="0.92" stop-color="#E5C05F"/>
<stop offset="1" stop-color="#EBC767"/>
</linearGradient>
<linearGradient id="paint7_linear_687_4326" x1="10.3478" y1="25.4803" x2="19.1097" y2="25.4803" gradientUnits="userSpaceOnUse">
<stop stop-color="#BB9531"/>
<stop offset="0.37" stop-color="#F7EF8A"/>
<stop offset="0.63" stop-color="#DDC05B"/>
<stop offset="0.77" stop-color="#D1AB46"/>
<stop offset="0.79" stop-color="#D4AE49"/>
<stop offset="0.92" stop-color="#E5C05F"/>
<stop offset="1" stop-color="#EBC767"/>
</linearGradient>
<linearGradient id="paint8_linear_687_4326" x1="16.4279" y1="28.3541" x2="20.1403" y2="28.3541" gradientUnits="userSpaceOnUse">
<stop stop-color="#BB9531"/>
<stop offset="0.37" stop-color="#F7EF8A"/>
<stop offset="0.63" stop-color="#DDC05B"/>
<stop offset="0.77" stop-color="#D1AB46"/>
<stop offset="0.79" stop-color="#D4AE49"/>
<stop offset="0.92" stop-color="#E5C05F"/>
<stop offset="1" stop-color="#EBC767"/>
</linearGradient>
<linearGradient id="paint9_linear_687_4326" x1="57.1861" y1="23.2449" x2="45.11" y2="10.8701" gradientUnits="userSpaceOnUse">
<stop stop-color="#211C53"/>
<stop offset="0.21" stop-color="#20205A"/>
<stop offset="0.51" stop-color="#1C2D6E"/>
<stop offset="0.87" stop-color="#16418E"/>
<stop offset="1" stop-color="#14499B"/>
</linearGradient>
<linearGradient id="paint10_linear_687_4326" x1="31.0006" y1="19.9916" x2="31.0006" y2="48.6659" gradientUnits="userSpaceOnUse">
<stop stop-color="#BB9531"/>
<stop offset="0.37" stop-color="#F7EF8A"/>
<stop offset="0.63" stop-color="#DDC05B"/>
<stop offset="0.77" stop-color="#D1AB46"/>
<stop offset="0.79" stop-color="#D4AE49"/>
<stop offset="0.92" stop-color="#E5C05F"/>
<stop offset="1" stop-color="#EBC767"/>
</linearGradient>
<linearGradient id="paint11_linear_687_4326" x1="44.6605" y1="12.5359" x2="60.4329" y2="12.5359" gradientUnits="userSpaceOnUse">
<stop stop-color="#BB9531"/>
<stop offset="0.37" stop-color="#F7EF8A"/>
<stop offset="0.63" stop-color="#DDC05B"/>
<stop offset="0.77" stop-color="#D1AB46"/>
<stop offset="0.79" stop-color="#D4AE49"/>
<stop offset="0.92" stop-color="#E5C05F"/>
<stop offset="1" stop-color="#EBC767"/>
</linearGradient>
<linearGradient id="paint12_linear_687_4326" x1="44.8301" y1="22.3566" x2="56.3161" y2="22.3566" gradientUnits="userSpaceOnUse">
<stop stop-color="#BB9531"/>
<stop offset="0.37" stop-color="#F7EF8A"/>
<stop offset="0.63" stop-color="#DDC05B"/>
<stop offset="0.77" stop-color="#D1AB46"/>
<stop offset="0.79" stop-color="#D4AE49"/>
<stop offset="0.92" stop-color="#E5C05F"/>
<stop offset="1" stop-color="#EBC767"/>
</linearGradient>
<linearGradient id="paint13_linear_687_4326" x1="42.8908" y1="25.4803" x2="51.6532" y2="25.4803" gradientUnits="userSpaceOnUse">
<stop stop-color="#BB9531"/>
<stop offset="0.37" stop-color="#F7EF8A"/>
<stop offset="0.63" stop-color="#DDC05B"/>
<stop offset="0.77" stop-color="#D1AB46"/>
<stop offset="0.79" stop-color="#D4AE49"/>
<stop offset="0.92" stop-color="#E5C05F"/>
<stop offset="1" stop-color="#EBC767"/>
</linearGradient>
<linearGradient id="paint14_linear_687_4326" x1="41.8605" y1="28.3541" x2="45.5729" y2="28.3541" gradientUnits="userSpaceOnUse">
<stop stop-color="#BB9531"/>
<stop offset="0.37" stop-color="#F7EF8A"/>
<stop offset="0.63" stop-color="#DDC05B"/>
<stop offset="0.77" stop-color="#D1AB46"/>
<stop offset="0.79" stop-color="#D4AE49"/>
<stop offset="0.92" stop-color="#E5C05F"/>
<stop offset="1" stop-color="#EBC767"/>
</linearGradient>
<linearGradient id="paint15_linear_687_4326" x1="18.5418" y1="-1.31299" x2="36.3435" y2="30.814" gradientUnits="userSpaceOnUse">
<stop stop-color="#BB9531"/>
<stop offset="0.37" stop-color="#F7EF8A"/>
<stop offset="0.63" stop-color="#DDC05B"/>
<stop offset="0.77" stop-color="#D1AB46"/>
<stop offset="0.79" stop-color="#D4AE49"/>
<stop offset="0.92" stop-color="#E5C05F"/>
<stop offset="1" stop-color="#EBC767"/>
</linearGradient>
<linearGradient id="paint16_linear_687_4326" x1="21.7873" y1="19.9933" x2="40.2161" y2="19.9933" gradientUnits="userSpaceOnUse">
<stop stop-color="#211C53"/>
<stop offset="0.21" stop-color="#20205A"/>
<stop offset="0.51" stop-color="#1C2D6E"/>
<stop offset="0.87" stop-color="#16418E"/>
<stop offset="1" stop-color="#14499B"/>
</linearGradient>
<linearGradient id="paint17_linear_687_4326" x1="30.5579" y1="21.2302" x2="31.4436" y2="21.2302" gradientUnits="userSpaceOnUse">
<stop stop-color="#211C53"/>
<stop offset="0.21" stop-color="#20205A"/>
<stop offset="0.51" stop-color="#1C2D6E"/>
<stop offset="0.87" stop-color="#16418E"/>
<stop offset="1" stop-color="#14499B"/>
</linearGradient>
<linearGradient id="paint18_linear_687_4326" x1="30.2495" y1="8.36532" x2="31.7505" y2="8.36532" gradientUnits="userSpaceOnUse">
<stop stop-color="#211C53"/>
<stop offset="0.21" stop-color="#20205A"/>
<stop offset="0.51" stop-color="#1C2D6E"/>
<stop offset="0.87" stop-color="#16418E"/>
<stop offset="1" stop-color="#14499B"/>
</linearGradient>
</defs>
</svg>
