<svg width="115" height="115" viewBox="0 0 115 115" fill="none" xmlns="http://www.w3.org/2000/svg">
<path d="M29.2595 16.3338V74.293L57.2302 87.6943L84.796 74.0916C84.9302 54.974 85.0651 35.856 85.2008 16.7376L57.3361 7.44727L29.2595 16.3338Z" fill="url(#paint0_linear_2162_12875)"/>
<path d="M57.2302 88.253L28.7583 74.611V15.9662L57.3362 6.92065L57.491 6.97152L85.7053 16.3763L85.2973 74.4054L57.2302 88.253ZM29.7609 73.9752L57.2302 87.137L84.3 73.7833L84.6996 17.1023L57.3267 7.97517L29.7609 16.7017V73.9752Z" fill="url(#paint1_linear_2162_12875)"/>
<path d="M86.785 35.6204H84.2913V38.8517H86.785V35.6204Z" fill="white"/>
<path d="M5.12185 18.6624L35.2916 27.7259C34.6462 28.9221 34.3656 30.2812 34.4844 31.6352C34.6033 32.9892 35.1164 34.2787 35.9604 35.3441C36.8044 36.4096 37.9421 37.2042 39.233 37.6299C40.5238 38.0555 41.9111 38.0935 43.2233 37.739V53.0894C34.8507 62.8609 30.6888 60.3809 30.6888 60.3809L38.2718 51.8134C23.7036 59.3222 20.0801 54.4173 20.0801 54.4173L33.8291 47.785C15.3957 53.0014 12.4208 46.5578 12.4208 46.5578L29.0387 42.3842C6.91505 41.7769 5.73442 33.54 5.73442 33.54L28.6614 34.5628C4.14046 28.0057 5.12185 18.6624 5.12185 18.6624Z" fill="url(#paint2_linear_2162_12875)"/>
<path d="M34.102 36.3078C34.102 36.3078 31.3242 34.2772 32.7125 28.9326L7.39673 21.0327L31.1112 29.791C31.1112 29.791 30.8971 35.0255 34.102 36.3078Z" fill="url(#paint3_linear_2162_12875)"/>
<path d="M28.7601 35.8797L8.78467 35.1326C8.78467 35.1326 11.1343 38.5303 19.5736 39.6612C19.5736 39.6612 15.0884 38.3374 12.7378 36.3079L28.7601 35.8797Z" fill="url(#paint4_linear_2162_12875)"/>
<path d="M33.8143 42.509L14.3667 47.1319C14.3667 47.1319 17.5387 49.7815 25.9738 48.6104C25.9738 48.6104 21.2968 48.5351 18.4894 47.2072L33.8143 42.509Z" fill="url(#paint5_linear_2162_12875)"/>
<path d="M25.5911 53.7835L37.0933 47.3091L22.2559 54.4469C22.2559 54.4469 25.2742 56.0186 31.8546 53.5991C31.8588 53.597 28.0848 54.3569 25.5911 53.7835Z" fill="url(#paint6_linear_2162_12875)"/>
<path d="M38.8422 52.6028L32.5564 59.623C32.5564 59.623 34.4959 59.7947 37.4474 57.0741C37.4474 57.0741 35.6171 58.3035 34.1726 58.5441L38.8422 52.6028Z" fill="url(#paint7_linear_2162_12875)"/>
<path d="M109.337 18.6624L79.1734 27.7259C79.8188 28.9221 80.0994 30.2812 79.9805 31.6352C79.8617 32.9892 79.3485 34.2787 78.5046 35.3441C77.6606 36.4096 76.5228 37.2042 75.232 37.6299C73.9412 38.0555 72.5539 38.0935 71.2417 37.739V53.0894C79.6142 62.8609 83.7761 60.3809 83.7761 60.3809L76.1932 51.8134C90.7614 59.3222 94.3838 54.4173 94.3838 54.4173L80.6359 47.785C99.0693 53.0014 102.044 46.5578 102.044 46.5578L85.421 42.3842C107.54 41.7769 108.72 33.54 108.72 33.54L85.794 34.5628C110.319 28.0057 109.337 18.6624 109.337 18.6624Z" fill="url(#paint8_linear_2162_12875)"/>
<path d="M107.041 24.4031C109.939 21.1622 109.719 18.7246 109.71 18.6218L109.662 18.1714L83.1825 26.1285L83.2323 18.6939V18.5126L57.3251 9.70874L31.2251 18.1311V26.1115L4.79541 18.1714L4.74772 18.6218C4.73818 18.7278 4.5188 21.1653 7.41634 24.4031C10.813 28.2057 16.8731 31.4424 25.4618 34.0474L5.29883 33.1423L5.36241 33.5938C5.37513 33.6839 5.71639 35.8406 8.87358 38.045C12.602 40.6469 18.4999 42.1931 26.4284 42.6531L11.8792 46.3042L12.07 46.7164C12.1028 46.7885 12.9178 48.4884 16.0909 49.4857C19.5353 50.5689 24.2939 50.43 30.2712 49.0798L19.5003 54.275L19.7706 54.6396C19.8586 54.7615 21.125 56.3735 24.8768 56.3735C26.4962 56.3735 28.5766 56.0735 31.224 55.2214V59.2021L30.1006 60.4739L30.4896 60.7049C30.7195 60.8273 30.9674 60.9124 31.224 60.9572V72.8769L36.7838 75.5932V75.607H36.8124L47.8907 81.0173V81.0809H48.0221L57.1238 85.5269L57.2361 85.582L82.7289 72.7582L82.8646 72.6883L82.9451 61.0091C83.581 60.9275 83.9233 60.7367 83.971 60.706L84.3621 60.4749L82.96 58.8852L82.9865 55.1388C91.9758 58.1063 94.5639 54.8113 94.69 54.6375L94.9592 54.2729L84.1925 49.0798C90.1699 50.43 94.9284 50.5636 98.3697 49.4857C101.543 48.4884 102.361 46.7885 102.397 46.7164L102.588 46.3042L88.0312 42.6499C95.9596 42.19 101.858 40.6437 105.586 38.0418C108.741 35.8406 109.083 33.6839 109.097 33.5906L109.161 33.1391L88.9967 34.041C97.5865 31.4424 103.65 28.2057 107.041 24.4031ZM36.7849 75.0347L31.7285 72.5664V61.025C31.8451 61.0366 31.9691 61.0419 32.1026 61.0419C33.1518 61.0419 34.714 60.7166 36.7849 59.4406V75.0347ZM42.2366 77.6991L37.2851 75.2784V59.1194C38.7116 58.1656 40.3649 56.7719 42.2366 54.7541V77.6991ZM37.2851 58.1985C37.1134 58.3203 36.947 58.4348 36.7849 58.5397C35.5799 59.3356 34.5879 59.7723 33.8174 60.0065C32.9155 60.281 32.2192 60.3117 31.7327 60.2662V59.7733L36.7891 54.0609L37.2893 53.4929L39.8848 50.5625L38.098 51.4824C37.8238 51.6237 37.5543 51.7597 37.2893 51.8904C37.1198 51.9763 36.9534 52.0579 36.7891 52.1384C35.1474 52.9452 33.459 53.653 31.7327 54.2581C31.5632 54.3174 31.3936 54.3725 31.2293 54.4276C27.7945 55.5553 25.4162 55.7153 23.8636 55.5701C22.1679 55.4101 21.2045 54.8728 20.7372 54.5198L31.2293 49.4592L31.7327 49.2155L33.9912 48.126L33.7262 47.4244C33.0395 47.6173 32.375 47.7939 31.7327 47.9543C31.5632 47.9977 31.3957 48.038 31.2293 48.0783C23.4365 49.9796 18.9121 49.5525 16.4322 48.799C14.4376 48.1959 13.4552 47.2983 13.0302 46.7853L31.2293 42.2154L31.7327 42.0893L31.7825 42.0765H31.7327L31.2293 42.0649L29.0493 42.0045C17.8046 41.6982 12.1558 39.3793 9.39607 37.4886C7.29764 36.0473 6.51973 34.6377 6.24736 33.9393L31.2251 35.0553L31.7285 35.0765L32.1005 35.0934L31.7285 34.9938L31.2251 34.8603L28.7589 34.1989C16.2721 30.8605 10.6074 26.8036 8.05434 23.9866C6.05765 21.7843 5.61677 19.9889 5.51927 19.1729L31.2261 26.8989L31.7296 27.0484L34.7532 27.9577C34.2602 29.0356 34.0355 30.2168 34.0981 31.4004C34.1607 32.584 34.5089 33.7349 35.1129 34.7547C35.7168 35.7746 36.5586 36.6331 37.5664 37.257C38.5742 37.8809 39.718 38.2516 40.9001 38.3375C41.0761 38.3492 41.2552 38.3566 41.4364 38.3566C41.9091 38.3555 42.3806 38.3076 42.8438 38.2135V52.945L42.7379 53.0594C42.5704 53.2544 42.404 53.4431 42.2366 53.6296C40.3363 55.7609 38.683 57.2107 37.2851 58.1985ZM31.7285 58.6351V55.055C33.4278 54.4717 35.0911 53.7884 36.7096 53.0085L31.7285 58.6351ZM71.7217 77.7277L66.5678 80.32V66.1502C66.4078 66.3241 66.2403 66.4958 66.0665 66.6674V80.5733L57.2276 85.0245L48.393 80.7047V66.6674C48.2192 66.4958 48.0518 66.3241 47.8917 66.1502V80.4578L42.7379 77.9418V54.2019C42.988 53.9253 43.2434 53.6349 43.5009 53.3339L43.5921 53.2279V37.2502L43.1194 37.3742C42.5714 37.5229 42.0064 37.5998 41.4385 37.6031C41.2573 37.6031 41.0782 37.5957 40.9022 37.5787C39.2523 37.4429 37.7136 36.692 36.5914 35.4749C35.4691 34.2578 34.8451 32.6634 34.8433 31.0078C34.8407 29.9233 35.1088 28.8552 35.6233 27.9005L35.8406 27.4946L31.7338 26.262V18.4935L57.3209 10.2355L82.731 18.873L82.6812 26.2832L78.6242 27.502L78.8362 27.9079C79.351 28.8625 79.6191 29.9307 79.6162 31.0153C79.6144 32.6708 78.9904 34.2652 77.8682 35.4823C76.7459 36.6994 75.2072 37.4503 73.5573 37.5861C73.3813 37.6031 73.2022 37.6105 73.021 37.6105C72.4507 37.6079 71.8831 37.531 71.3327 37.3816L70.86 37.2576V53.2279L70.9512 53.3339C71.2034 53.6296 71.4546 53.9136 71.6994 54.1881C71.6994 54.1881 71.709 54.1998 71.7164 54.2051L71.7217 77.7277ZM77.1744 74.9849L72.223 77.4776V54.7541C74.0946 56.7677 75.7479 58.1677 77.1744 59.1194V74.9849ZM82.3622 72.3756L77.6747 74.7316V59.4406C79.7455 60.7123 81.3077 61.0419 82.3569 61.0419H82.4406L82.3622 72.3756ZM82.4597 58.3246L77.751 53.0085C79.2899 53.7502 80.869 54.4055 82.4809 54.9713L82.4597 58.3246ZM108.213 33.9393C107.939 34.6377 107.163 36.0504 105.065 37.4886C102.309 39.3793 96.657 41.6982 85.4155 42.0077L83.0712 42.0723L82.6823 42.0819L83.0712 42.1804L101.431 46.7906C101.008 47.3004 100.027 48.198 98.0326 48.8043C95.5315 49.5631 90.9488 49.9923 83.031 48.0338C82.8656 47.9935 82.6992 47.9522 82.5318 47.9077C81.9531 47.7593 81.3554 47.5985 80.7386 47.4254L80.4736 48.127L82.5222 49.1169L83.0214 49.3554L93.7255 54.5209C93.2582 54.877 92.2927 55.4133 90.5991 55.5712C89.0094 55.7206 86.5538 55.5468 82.9854 54.3471C82.8211 54.292 82.6568 54.2347 82.4873 54.1733C80.8458 53.5858 79.2387 52.9065 77.6736 52.1384C77.5093 52.0579 77.3429 51.9763 77.1734 51.8904C76.9084 51.759 76.6389 51.623 76.3647 51.4824L74.5779 50.5625L77.1734 53.4929L77.6736 54.0588L82.4534 59.4554L82.9515 60.016L83.1285 60.2163C83.0733 60.228 83.014 60.2397 82.9494 60.2492C82.7836 60.2763 82.616 60.2908 82.4481 60.2927C81.4826 60.316 79.896 60.0203 77.6789 58.5588C77.5171 58.4507 77.3503 58.3359 77.1787 58.2144C75.7659 57.2128 74.1158 55.7535 72.2272 53.6402C72.0619 53.4568 71.8955 53.2682 71.7259 53.0721C71.7225 53.0665 71.7177 53.0618 71.7121 53.0584C71.6835 53.0223 71.6517 52.9863 71.621 52.9524V38.2209C72.085 38.3149 72.5571 38.3628 73.0305 38.364C73.2118 38.364 73.3909 38.3566 73.5668 38.3449C74.749 38.2591 75.8928 37.8883 76.9006 37.2644C77.9083 36.6405 78.7501 35.782 79.3541 34.7621C79.958 33.7423 80.3062 32.5914 80.3688 31.4078C80.4315 30.2242 80.2067 29.043 79.7137 27.9651L82.6812 27.0728L83.1825 26.9223L108.949 19.1803C108.855 19.9964 108.41 21.7917 106.414 23.994C103.86 26.811 98.1948 30.8679 85.7081 34.2064L83.1274 34.8984L82.6272 35.032L82.3665 35.1009L82.6272 35.0892L83.1274 35.068L108.213 33.9393Z" fill="url(#paint9_linear_2162_12875)"/>
<path d="M80.3584 36.3078C80.3584 36.3078 83.1351 34.2772 81.7468 28.9368L107.064 21.0327L83.3492 29.791C83.3492 29.791 83.5633 35.0255 80.3584 36.3078Z" fill="url(#paint10_linear_2162_12875)"/>
<path d="M85.6987 35.8797L105.674 35.1326C105.674 35.1326 103.325 38.5303 94.8852 39.6612C94.8852 39.6612 99.3714 38.3374 101.722 36.3079L85.6987 35.8797Z" fill="url(#paint11_linear_2162_12875)"/>
<path d="M80.6455 42.509L100.093 47.1319C100.093 47.1319 96.9211 49.7815 88.486 48.6104C88.486 48.6104 93.1619 48.5351 95.9704 47.2072L80.6455 42.509Z" fill="url(#paint12_linear_2162_12875)"/>
<path d="M88.8686 53.7835L77.3665 47.3091L92.2039 54.4469C92.2039 54.4469 89.1855 56.0186 82.6041 53.5991C82.5998 53.597 86.3749 54.3569 88.8686 53.7835Z" fill="url(#paint13_linear_2162_12875)"/>
<path d="M75.6179 52.6028L81.9037 59.623C81.9037 59.623 79.9632 59.7947 77.0126 57.0741C77.0126 57.0741 78.8429 58.3035 80.2875 58.5441L75.6179 52.6028Z" fill="url(#paint14_linear_2162_12875)"/>
<path d="M57.23 40.365L56.4626 48.4397L57.23 49.0555V40.365Z" fill="white"/>
<path d="M57.9975 48.4397L57.2302 40.365V49.0555L57.9975 48.4397Z" fill="white"/>
<path d="M72.5803 30.9346V45.9172L70.7383 47.8811V56.4783C70.7383 56.4783 69.1412 64.2149 62.1422 68.5125V43.7064C62.1422 43.7064 69.0193 42.2333 68.4046 36.3386L59.5615 39.5308L60.6669 46.1631L57.2299 48.8646L53.7919 46.1631L54.8983 39.5308L46.0563 36.3386C45.4416 42.2333 52.3187 43.7064 52.3187 43.7064V68.5125C45.324 64.2139 43.7226 56.4783 43.7226 56.4783V47.8811L41.8806 45.9172V30.9346C41.8806 23.8127 52.8105 18.1638 52.8105 18.1638C54.3626 17.0779 55.8391 15.8878 57.2299 14.6018C58.6213 15.888 60.0986 17.0781 61.6515 18.1638C61.6515 18.1638 72.5803 23.8127 72.5803 30.9346Z" fill="url(#paint15_linear_2162_12875)"/>
<path d="M67.2783 21.6869C65.573 20.2632 63.7317 19.0108 61.781 17.9478C60.2445 16.8705 58.7815 15.6918 57.4019 14.4197L57.2302 14.2576L57.0585 14.4197C55.6794 15.692 54.2168 16.8707 52.6804 17.9478C50.73 19.0113 48.8888 20.2636 47.1832 21.6869C43.549 24.7487 41.6287 27.9472 41.6287 30.9348V46.016L43.4717 47.9809V56.4785L43.477 56.5294C43.4929 56.6078 45.1727 64.4207 52.1865 68.7268L52.5691 68.961V66.0359V64.7546V43.5042L52.3709 43.4618C51.202 43.1695 50.0912 42.681 49.0855 42.0173C47.0931 40.6713 46.1509 38.8803 46.2802 36.6864L54.6167 39.6963L53.5208 46.2672L57.2302 49.1827L60.9396 46.2672L59.8437 39.6963L68.1813 36.6864C68.3095 38.8803 67.3673 40.6713 65.3749 42.0173C64.3692 42.681 63.2584 43.1695 62.0894 43.4618L61.8913 43.5042V64.7366L61.8711 64.7482V66.0359L61.8934 66.0264V68.9642L62.276 68.73C69.2867 64.4239 70.9665 56.611 70.9866 56.5325V56.5071V47.9809L72.8296 46.016V30.9348C72.8317 27.9472 70.9114 24.7487 67.2783 21.6869ZM72.3304 45.8178L70.4874 47.7816V56.452C70.3814 56.9162 68.7091 63.9449 62.3936 68.057V65.6703C64.0893 64.425 66.9508 61.7203 68.6094 56.8452C68.5215 57.0222 65.9811 62.0669 62.3936 64.426V43.9038C63.5488 43.5946 64.6465 43.1008 65.6441 42.4412C67.875 40.9405 68.9168 38.8209 68.655 36.3134L68.6211 35.9954L59.282 39.3678L60.3969 46.0584L57.2302 48.5458L54.0645 46.0573L55.1795 39.3667L45.8393 35.9944L45.8054 36.3123C45.5447 38.8198 46.5854 40.9395 48.8163 42.4402C49.8141 43.1 50.9122 43.5939 52.0678 43.9027V64.4366C48.4857 62.0754 45.9485 57.037 45.8605 56.8611C47.517 61.7267 50.3753 64.4324 52.0678 65.6798V68.0538C45.7503 63.9417 44.0768 56.913 43.973 56.4488V47.7816L42.13 45.8178V30.9348C42.13 24.046 52.8171 18.4417 52.9252 18.3866L52.9517 18.3707C54.4502 17.3216 55.8793 16.1767 57.2302 14.9433C58.5815 16.1763 60.011 17.3208 61.5097 18.3697L61.5362 18.3855C61.6422 18.4407 72.3304 24.0471 72.3304 30.9338V45.8178Z" fill="url(#paint16_linear_2162_12875)"/>
<path d="M56.4795 47.398L57.2298 47.9999L57.9791 47.398L57.2298 39.5098L56.4795 47.398Z" fill="url(#paint17_linear_2162_12875)"/>
<path d="M58.5016 17.3162C57.7268 16.6358 57.2298 16.1504 57.2298 16.1504C57.2298 16.1504 56.7327 16.6326 55.958 17.3162L57.2298 26.7157L58.5016 17.3162Z" fill="url(#paint18_linear_2162_12875)"/>
<path d="M44.8536 95.8197C44.8271 95.7759 44.797 95.7344 44.7635 95.6957C44.7147 95.6332 44.6575 95.5622 44.6045 95.4838C44.5472 95.4032 44.4951 95.3189 44.4487 95.2315C44.4071 95.1567 44.3784 95.0754 44.364 94.991H49.6842C49.7577 94.9933 49.8278 95.0223 49.8813 95.0726C49.9496 95.1311 50.0076 95.2006 50.053 95.2782C50.1003 95.3594 50.136 95.4468 50.159 95.5378C50.1811 95.6149 50.1879 95.6955 50.1792 95.7752L49.7552 98.4778C49.7399 98.5637 49.7071 98.6456 49.6588 98.7183C49.6027 98.8092 49.5389 98.895 49.468 98.9748C49.4005 99.0537 49.3224 99.1229 49.2359 99.1804C49.1699 99.2285 49.0916 99.2568 49.0102 99.262H44.3088L44.8536 95.8197ZM48.4644 96.3369C48.4692 96.3027 48.4609 96.2678 48.4411 96.2394C48.4199 96.2055 48.3976 96.1896 48.3711 96.1896H46.4295L46.1349 98.0528H48.0765C48.0928 98.0506 48.1085 98.0451 48.1226 98.0365C48.1366 98.028 48.1487 98.0165 48.1581 98.003C48.1836 97.9745 48.2033 97.9414 48.2164 97.9055L48.4644 96.3369Z" fill="#111111"/>
<path d="M51.4292 95.82C51.4032 95.7761 51.3734 95.7346 51.3402 95.696C51.2914 95.6335 51.2342 95.5625 51.1812 95.484C51.1238 95.4034 51.0718 95.3192 51.0254 95.2318C50.9833 95.1572 50.9546 95.0758 50.9406 94.9912H56.5089L56.3223 96.1952H53.0221L52.967 96.529H55.4607L55.2657 97.7245H52.7783L52.7317 98.0583H56.033L55.838 99.2623H50.8855L51.4292 95.82Z" fill="#111111"/>
<path d="M58.9153 98.056H61.8054L61.6104 99.26H57.0903L57.634 95.8198C57.6088 95.7779 57.5801 95.7382 57.5482 95.7011C57.4994 95.6386 57.4422 95.5676 57.3892 95.4892C57.3318 95.4086 57.2798 95.3243 57.2334 95.2369C57.1913 95.1623 57.1626 95.0809 57.1486 94.9963H59.4007L58.9153 98.056Z" fill="black"/>
<path d="M62.4558 99.2601L62.9995 95.82C62.9732 95.7764 62.9434 95.7349 62.9105 95.696C62.8607 95.6335 62.8045 95.5625 62.7515 95.484C62.6941 95.4034 62.6421 95.3192 62.5957 95.2318C62.5537 95.157 62.5247 95.0757 62.5099 94.9912H64.763L64.5214 96.5205H66.5795L66.8201 94.9912H68.4512L67.7761 99.2623H66.145L66.3856 97.733H64.3306L64.09 99.2623L62.4558 99.2601Z" fill="#111111"/>
<path d="M69.258 94.989H70.889L70.2139 99.2601C70.1796 99.3117 70.1362 99.3566 70.0857 99.3925C69.9948 99.4662 69.9 99.5348 69.8017 99.5981C69.6883 99.6734 69.5622 99.7518 69.4254 99.8345C69.2887 99.9172 69.1541 99.9924 69.0248 100.06C68.8955 100.128 68.7768 100.183 68.6677 100.228C68.5894 100.264 68.5055 100.286 68.4197 100.293L69.258 94.989Z" fill="#111111"/>
<path d="M27.2807 106.511H24.2136C24.1399 106.509 24.0695 106.48 24.0154 106.43C23.9484 106.372 23.892 106.304 23.849 106.227C23.8021 106.148 23.7664 106.063 23.743 105.975C23.7207 105.897 23.7138 105.815 23.7229 105.734L24.1468 103.016C24.1644 102.931 24.1974 102.851 24.2443 102.778C24.299 102.687 24.3626 102.602 24.434 102.523C24.5022 102.447 24.5794 102.379 24.664 102.321C24.728 102.272 24.8052 102.243 24.8855 102.239H29.5837L29.4014 103.438H25.8287C25.8123 103.44 25.7965 103.446 25.7824 103.454C25.7684 103.463 25.7563 103.475 25.7471 103.489C25.7232 103.513 25.706 103.544 25.6973 103.578L25.4408 105.162C25.4359 105.194 25.4427 105.227 25.4599 105.255C25.4667 105.269 25.4772 105.281 25.4903 105.289C25.5034 105.297 25.5186 105.302 25.5341 105.302H27.3665C27.3821 105.3 27.397 105.295 27.4104 105.287C27.4238 105.279 27.4352 105.268 27.4439 105.255C27.4679 105.229 27.484 105.197 27.4905 105.162L27.5223 104.968H26.1085L26.3025 103.772H29.3473L28.9117 106.511C28.8779 106.563 28.8344 106.608 28.7835 106.643C28.6933 106.717 28.5988 106.785 28.5005 106.848C28.3871 106.923 28.261 107.003 28.1243 107.086C27.9876 107.168 27.853 107.243 27.7237 107.31C27.5944 107.377 27.4757 107.433 27.3665 107.478C27.2883 107.514 27.2044 107.536 27.1185 107.543L27.2807 106.511Z" fill="#111111"/>
<path d="M30.5841 106.426C30.5174 106.368 30.4612 106.3 30.4177 106.223C30.3713 106.144 30.3356 106.059 30.3118 105.971C30.2892 105.893 30.2827 105.811 30.2927 105.73L30.7166 103.066C30.6905 103.022 30.6607 102.981 30.6276 102.942C30.5788 102.879 30.5216 102.808 30.4686 102.73C30.411 102.65 30.3589 102.565 30.3128 102.478C30.2705 102.403 30.2418 102.322 30.228 102.237H32.4801L32.0064 105.163C32.002 105.196 32.0103 105.23 32.0297 105.257C32.0366 105.27 32.0466 105.281 32.0588 105.289C32.071 105.297 32.0851 105.302 32.0997 105.303H33.9406C33.9561 105.302 33.9711 105.297 33.9845 105.289C33.9978 105.281 34.0093 105.27 34.0179 105.257C34.0415 105.23 34.0576 105.198 34.0646 105.163L34.5309 102.235H36.1619L35.6098 105.732C35.5945 105.818 35.5616 105.9 35.5133 105.973C35.4577 106.063 35.3939 106.147 35.3226 106.225C35.2547 106.302 35.1778 106.37 35.0936 106.428C35.0295 106.476 34.9524 106.505 34.8721 106.509H30.7823C30.7084 106.506 30.6381 106.476 30.5841 106.426Z" fill="#111111"/>
<path d="M40.2882 105.994H38.3308L38.0043 106.507H36.2461L38.4516 103.082C38.4297 103.041 38.4022 103.003 38.37 102.969C38.3212 102.909 38.264 102.837 38.2078 102.751C38.15 102.665 38.0966 102.576 38.0478 102.484C38.0005 102.407 37.9711 102.321 37.9619 102.232H40.7429L42.1365 106.511H40.4589L40.2882 105.994ZM39.0843 104.798H39.9152L39.6439 103.92L39.0843 104.798Z" fill="#111111"/>
<path d="M43.5713 102.235H48.2779C48.3517 102.238 48.422 102.267 48.4761 102.317C48.5434 102.374 48.6001 102.442 48.6436 102.519C48.6906 102.599 48.7263 102.685 48.7496 102.775C48.7719 102.852 48.7784 102.932 48.7686 103.012L48.5567 104.332C48.5353 104.48 48.5016 104.625 48.456 104.767C48.4195 104.883 48.3571 104.989 48.2737 105.078C48.1844 105.165 48.0754 105.231 47.9558 105.268C47.8018 105.317 47.6415 105.343 47.4799 105.346H47.4025L48.4433 106.511H46.5261L45.1483 104.989L45.2723 104.22H46.844C46.9161 104.22 46.9606 104.174 46.9754 104.08L47.0528 103.583C47.0578 103.551 47.051 103.518 47.0337 103.49C47.028 103.477 47.0189 103.466 47.0073 103.458C46.9957 103.449 46.9822 103.444 46.968 103.443H45.0179L44.5294 106.517C44.4952 106.568 44.4517 106.613 44.4011 106.648C44.3105 106.722 44.2157 106.791 44.1171 106.854C44.0037 106.929 43.8776 107.009 43.7409 107.091C43.6042 107.174 43.4706 107.249 43.3413 107.316C43.212 107.383 43.0923 107.439 42.9831 107.483C42.9049 107.519 42.821 107.542 42.7351 107.549L43.5713 102.235Z" fill="#111111"/>
<path d="M50.0171 103.066C49.9902 103.023 49.9605 102.981 49.9281 102.942C49.8782 102.879 49.8221 102.808 49.768 102.73C49.7111 102.649 49.6595 102.565 49.6133 102.478C49.5712 102.403 49.5421 102.322 49.5274 102.237H54.8477C54.9214 102.24 54.9917 102.269 55.0459 102.319C55.1141 102.377 55.1718 102.446 55.2165 102.524C55.264 102.606 55.2996 102.694 55.3225 102.785C55.3448 102.862 55.3513 102.942 55.3416 103.021L54.9177 105.724C54.9022 105.81 54.869 105.893 54.8202 105.965C54.7641 106.056 54.7007 106.141 54.6304 106.221C54.5627 106.302 54.4842 106.373 54.3973 106.433C54.3315 106.481 54.2531 106.51 54.1716 106.514H49.4734L50.0171 103.066ZM53.6268 103.586C53.6316 103.552 53.6233 103.518 53.6035 103.49C53.5975 103.476 53.5878 103.464 53.5755 103.455C53.5632 103.446 53.5487 103.44 53.5335 103.439H51.593L51.2952 105.303H53.2368C53.2532 105.301 53.269 105.295 53.2831 105.286C53.2972 105.278 53.3092 105.266 53.3184 105.252C53.3438 105.224 53.3636 105.191 53.3767 105.156L53.6268 103.586Z" fill="#111111"/>
<path d="M56.276 102.235H57.907L57.2298 106.511C57.1953 106.563 57.1519 106.607 57.1016 106.643C57.011 106.717 56.9161 106.786 56.8175 106.848C56.7041 106.924 56.578 107.003 56.4413 107.086C56.3046 107.169 56.17 107.244 56.0407 107.311C55.9114 107.377 55.7927 107.433 55.6835 107.478C55.6053 107.514 55.5214 107.536 55.4355 107.544L56.276 102.235Z" fill="#111111"/>
<path d="M62.0299 105.994H60.0724L59.746 106.507H57.991L60.1975 103.082C60.1752 103.041 60.1477 103.003 60.1159 102.97C60.0671 102.909 60.0099 102.837 59.9527 102.751C59.8955 102.665 59.8382 102.578 59.7863 102.487C59.739 102.411 59.7096 102.325 59.7004 102.235H62.4814L63.8782 106.511H62.2006L62.0299 105.994ZM60.826 104.798H61.6569L61.3856 103.92L60.826 104.798Z" fill="#111111"/>
<path d="M68.9939 102.235H70.626L69.9477 106.511H68.3792L66.6008 104.414L66.2691 106.511H66.2606C66.2265 106.563 66.183 106.607 66.1324 106.643C66.0431 106.716 65.9501 106.785 65.8537 106.848C65.7413 106.924 65.6173 107.003 65.4806 107.086C65.3439 107.169 65.2114 107.244 65.0842 107.311C64.9683 107.373 64.8491 107.429 64.7271 107.478C64.6473 107.514 64.562 107.536 64.4749 107.544L65.3132 102.239H66.8743L68.6611 104.337L68.9939 102.235Z" fill="#111111"/>
<path d="M71.1717 106.426C71.1051 106.368 71.0488 106.3 71.0053 106.223C70.9589 106.144 70.9232 106.059 70.8994 105.971C70.8768 105.893 70.8703 105.811 70.8803 105.73L70.9958 105.008H72.6269L72.5961 105.171C72.5911 105.203 72.5979 105.236 72.6152 105.264C72.6211 105.277 72.6304 105.288 72.6422 105.296C72.6539 105.305 72.6677 105.31 72.682 105.311H74.3353L71.4314 104.317C71.3665 104.273 71.3077 104.221 71.2565 104.162C71.2036 104.102 71.1697 104.029 71.159 103.95L71.3063 103.01C71.3239 102.925 71.3569 102.845 71.4038 102.772C71.4589 102.681 71.5228 102.596 71.5946 102.517C71.6622 102.44 71.7391 102.372 71.8235 102.315C71.8876 102.266 71.9647 102.238 72.045 102.233H75.9441C76.0174 102.236 76.0873 102.265 76.1412 102.315C76.2085 102.372 76.2651 102.44 76.3087 102.517C76.3557 102.597 76.3913 102.683 76.4146 102.772C76.4369 102.849 76.4434 102.93 76.4337 103.01L76.3277 103.731H74.6946L74.7179 103.569C74.7227 103.537 74.7155 103.504 74.6977 103.476C74.6922 103.463 74.6831 103.452 74.6715 103.443C74.6599 103.435 74.6462 103.43 74.632 103.429H72.9777L75.8826 104.426C75.9497 104.473 76.0109 104.527 76.0649 104.589C76.1142 104.645 76.1452 104.716 76.1539 104.79L76.0066 105.73C75.9909 105.816 75.9581 105.898 75.9102 105.971C75.8539 106.06 75.79 106.145 75.7194 106.223C75.6513 106.299 75.5745 106.367 75.4905 106.426C75.4263 106.474 75.3492 106.502 75.269 106.507H71.3699C71.2962 106.504 71.226 106.475 71.1717 106.426Z" fill="#111111"/>
<path d="M81.0301 106.511C80.996 106.563 80.9525 106.607 80.9019 106.643C80.8113 106.717 80.7164 106.785 80.6178 106.848C80.5044 106.923 80.3783 107.003 80.2416 107.086C80.1049 107.168 79.9713 107.243 79.8421 107.31C79.7128 107.377 79.593 107.433 79.4838 107.478C79.4056 107.514 79.3217 107.536 79.2358 107.543L80.0742 102.239H85.0214L84.8359 103.438H81.5346L81.4805 103.772H83.9732L83.7793 104.968H81.2876L81.0449 106.511H81.0301Z" fill="#111111"/>
<path d="M89.8595 106.511H85.7665C85.6928 106.509 85.6224 106.48 85.5683 106.43C85.5013 106.372 85.4446 106.304 85.4008 106.227C85.3544 106.148 85.3187 106.063 85.2949 105.975C85.272 105.897 85.2651 105.815 85.2747 105.734L85.6986 103.016C85.7162 102.931 85.7493 102.851 85.7961 102.778C85.8509 102.687 85.9144 102.602 85.9859 102.523C86.054 102.447 86.1313 102.379 86.2158 102.321C86.2796 102.272 86.3563 102.244 86.4363 102.239H90.5293C90.603 102.242 90.6733 102.271 90.7275 102.321C90.7947 102.378 90.8514 102.446 90.8949 102.523C90.9419 102.603 90.9776 102.689 91.0009 102.778C91.0232 102.855 91.0297 102.936 91.02 103.016L90.8875 103.877H89.2617L89.3084 103.583C89.3125 103.55 89.3054 103.517 89.2882 103.49C89.2825 103.477 89.2734 103.465 89.2618 103.457C89.2503 103.449 89.2367 103.444 89.2225 103.443H87.3816C87.3652 103.445 87.3494 103.451 87.3353 103.46C87.3213 103.468 87.3092 103.48 87.3 103.494C87.2757 103.518 87.2585 103.549 87.2502 103.583L86.9937 105.167C86.9888 105.2 86.9956 105.233 87.0128 105.261C87.0196 105.274 87.0301 105.286 87.0432 105.295C87.0563 105.303 87.0715 105.307 87.087 105.307H88.9268C88.9426 105.306 88.9578 105.301 88.9713 105.293C88.9849 105.285 88.9965 105.274 89.0053 105.261C89.0283 105.234 89.0444 105.202 89.0519 105.167L89.0985 104.872H90.7296L90.5971 105.734C90.5815 105.82 90.5483 105.902 90.4996 105.975C90.444 106.064 90.3806 106.149 90.3099 106.227C90.2416 106.303 90.1648 106.371 90.081 106.43C90.0168 106.478 89.9397 106.506 89.8595 106.511Z" fill="#111111"/>
<defs>
<linearGradient id="paint0_linear_2162_12875" x1="29.2595" y1="47.5708" x2="85.2008" y2="47.5708" gradientUnits="userSpaceOnUse">
<stop stop-color="#211C53"/>
<stop offset="0.21" stop-color="#20205A"/>
<stop offset="0.51" stop-color="#1C2D6E"/>
<stop offset="0.87" stop-color="#16418E"/>
<stop offset="1" stop-color="#14499B"/>
</linearGradient>
<linearGradient id="paint1_linear_2162_12875" x1="71.4911" y1="37.1254" x2="46.3692" y2="51.1245" gradientUnits="userSpaceOnUse">
<stop stop-color="#BB9531"/>
<stop offset="0.37" stop-color="#F7EF8A"/>
<stop offset="0.63" stop-color="#DDC05B"/>
<stop offset="0.77" stop-color="#D1AB46"/>
<stop offset="0.79" stop-color="#D4AE49"/>
<stop offset="0.92" stop-color="#E5C05F"/>
<stop offset="1" stop-color="#EBC767"/>
</linearGradient>
<linearGradient id="paint2_linear_2162_12875" x1="41.5519" y1="54.9494" x2="5.19284" y2="18.5914" gradientUnits="userSpaceOnUse">
<stop stop-color="#211C53"/>
<stop offset="0.21" stop-color="#20205A"/>
<stop offset="0.51" stop-color="#1C2D6E"/>
<stop offset="0.87" stop-color="#16418E"/>
<stop offset="1" stop-color="#14499B"/>
</linearGradient>
<linearGradient id="paint3_linear_2162_12875" x1="7.39673" y1="28.6697" x2="34.102" y2="28.6697" gradientUnits="userSpaceOnUse">
<stop stop-color="#BB9531"/>
<stop offset="0.37" stop-color="#F7EF8A"/>
<stop offset="0.63" stop-color="#DDC05B"/>
<stop offset="0.77" stop-color="#D1AB46"/>
<stop offset="0.79" stop-color="#D4AE49"/>
<stop offset="0.92" stop-color="#E5C05F"/>
<stop offset="1" stop-color="#EBC767"/>
</linearGradient>
<linearGradient id="paint4_linear_2162_12875" x1="8.78467" y1="37.3974" x2="28.7601" y2="37.3974" gradientUnits="userSpaceOnUse">
<stop stop-color="#BB9531"/>
<stop offset="0.37" stop-color="#F7EF8A"/>
<stop offset="0.63" stop-color="#DDC05B"/>
<stop offset="0.77" stop-color="#D1AB46"/>
<stop offset="0.79" stop-color="#D4AE49"/>
<stop offset="0.92" stop-color="#E5C05F"/>
<stop offset="1" stop-color="#EBC767"/>
</linearGradient>
<linearGradient id="paint5_linear_2162_12875" x1="14.3667" y1="45.7086" x2="33.8143" y2="45.7086" gradientUnits="userSpaceOnUse">
<stop stop-color="#BB9531"/>
<stop offset="0.37" stop-color="#F7EF8A"/>
<stop offset="0.63" stop-color="#DDC05B"/>
<stop offset="0.77" stop-color="#D1AB46"/>
<stop offset="0.79" stop-color="#D4AE49"/>
<stop offset="0.92" stop-color="#E5C05F"/>
<stop offset="1" stop-color="#EBC767"/>
</linearGradient>
<linearGradient id="paint6_linear_2162_12875" x1="22.2601" y1="51.1287" x2="37.0954" y2="51.1287" gradientUnits="userSpaceOnUse">
<stop stop-color="#BB9531"/>
<stop offset="0.37" stop-color="#F7EF8A"/>
<stop offset="0.63" stop-color="#DDC05B"/>
<stop offset="0.77" stop-color="#D1AB46"/>
<stop offset="0.79" stop-color="#D4AE49"/>
<stop offset="0.92" stop-color="#E5C05F"/>
<stop offset="1" stop-color="#EBC767"/>
</linearGradient>
<linearGradient id="paint7_linear_2162_12875" x1="32.5564" y1="56.114" x2="38.8422" y2="56.114" gradientUnits="userSpaceOnUse">
<stop stop-color="#BB9531"/>
<stop offset="0.37" stop-color="#F7EF8A"/>
<stop offset="0.63" stop-color="#DDC05B"/>
<stop offset="0.77" stop-color="#D1AB46"/>
<stop offset="0.79" stop-color="#D4AE49"/>
<stop offset="0.92" stop-color="#E5C05F"/>
<stop offset="1" stop-color="#EBC767"/>
</linearGradient>
<linearGradient id="paint8_linear_2162_12875" x1="101.566" y1="47.2498" x2="80.6083" y2="26.2909" gradientUnits="userSpaceOnUse">
<stop stop-color="#211C53"/>
<stop offset="0.21" stop-color="#20205A"/>
<stop offset="0.51" stop-color="#1C2D6E"/>
<stop offset="0.87" stop-color="#16418E"/>
<stop offset="1" stop-color="#14499B"/>
</linearGradient>
<linearGradient id="paint9_linear_2162_12875" x1="57.2298" y1="41.6049" x2="57.2298" y2="91.3537" gradientUnits="userSpaceOnUse">
<stop stop-color="#BB9531"/>
<stop offset="0.37" stop-color="#F7EF8A"/>
<stop offset="0.63" stop-color="#DDC05B"/>
<stop offset="0.77" stop-color="#D1AB46"/>
<stop offset="0.79" stop-color="#D4AE49"/>
<stop offset="0.92" stop-color="#E5C05F"/>
<stop offset="1" stop-color="#EBC767"/>
</linearGradient>
<linearGradient id="paint10_linear_2162_12875" x1="80.3584" y1="28.6697" x2="107.064" y2="28.6697" gradientUnits="userSpaceOnUse">
<stop stop-color="#BB9531"/>
<stop offset="0.37" stop-color="#F7EF8A"/>
<stop offset="0.63" stop-color="#DDC05B"/>
<stop offset="0.77" stop-color="#D1AB46"/>
<stop offset="0.79" stop-color="#D4AE49"/>
<stop offset="0.92" stop-color="#E5C05F"/>
<stop offset="1" stop-color="#EBC767"/>
</linearGradient>
<linearGradient id="paint11_linear_2162_12875" x1="85.6987" y1="37.3974" x2="105.674" y2="37.3974" gradientUnits="userSpaceOnUse">
<stop stop-color="#BB9531"/>
<stop offset="0.37" stop-color="#F7EF8A"/>
<stop offset="0.63" stop-color="#DDC05B"/>
<stop offset="0.77" stop-color="#D1AB46"/>
<stop offset="0.79" stop-color="#D4AE49"/>
<stop offset="0.92" stop-color="#E5C05F"/>
<stop offset="1" stop-color="#EBC767"/>
</linearGradient>
<linearGradient id="paint12_linear_2162_12875" x1="80.6455" y1="45.7086" x2="100.093" y2="45.7086" gradientUnits="userSpaceOnUse">
<stop stop-color="#BB9531"/>
<stop offset="0.37" stop-color="#F7EF8A"/>
<stop offset="0.63" stop-color="#DDC05B"/>
<stop offset="0.77" stop-color="#D1AB46"/>
<stop offset="0.79" stop-color="#D4AE49"/>
<stop offset="0.92" stop-color="#E5C05F"/>
<stop offset="1" stop-color="#EBC767"/>
</linearGradient>
<linearGradient id="paint13_linear_2162_12875" x1="77.3633" y1="51.1287" x2="92.1996" y2="51.1287" gradientUnits="userSpaceOnUse">
<stop stop-color="#BB9531"/>
<stop offset="0.37" stop-color="#F7EF8A"/>
<stop offset="0.63" stop-color="#DDC05B"/>
<stop offset="0.77" stop-color="#D1AB46"/>
<stop offset="0.79" stop-color="#D4AE49"/>
<stop offset="0.92" stop-color="#E5C05F"/>
<stop offset="1" stop-color="#EBC767"/>
</linearGradient>
<linearGradient id="paint14_linear_2162_12875" x1="75.6179" y1="56.114" x2="81.9037" y2="56.114" gradientUnits="userSpaceOnUse">
<stop stop-color="#BB9531"/>
<stop offset="0.37" stop-color="#F7EF8A"/>
<stop offset="0.63" stop-color="#DDC05B"/>
<stop offset="0.77" stop-color="#D1AB46"/>
<stop offset="0.79" stop-color="#D4AE49"/>
<stop offset="0.92" stop-color="#E5C05F"/>
<stop offset="1" stop-color="#EBC767"/>
</linearGradient>
<linearGradient id="paint15_linear_2162_12875" x1="36.1332" y1="4.64272" x2="67.4137" y2="59.7351" gradientUnits="userSpaceOnUse">
<stop stop-color="#BB9531"/>
<stop offset="0.37" stop-color="#F7EF8A"/>
<stop offset="0.63" stop-color="#DDC05B"/>
<stop offset="0.77" stop-color="#D1AB46"/>
<stop offset="0.79" stop-color="#D4AE49"/>
<stop offset="0.92" stop-color="#E5C05F"/>
<stop offset="1" stop-color="#EBC767"/>
</linearGradient>
<linearGradient id="paint16_linear_2162_12875" x1="41.6287" y1="41.6093" x2="72.8317" y2="41.6093" gradientUnits="userSpaceOnUse">
<stop stop-color="#211C53"/>
<stop offset="0.21" stop-color="#20205A"/>
<stop offset="0.51" stop-color="#1C2D6E"/>
<stop offset="0.87" stop-color="#16418E"/>
<stop offset="1" stop-color="#14499B"/>
</linearGradient>
<linearGradient id="paint17_linear_2162_12875" x1="56.4795" y1="43.7543" x2="57.9791" y2="43.7543" gradientUnits="userSpaceOnUse">
<stop stop-color="#211C53"/>
<stop offset="0.21" stop-color="#20205A"/>
<stop offset="0.51" stop-color="#1C2D6E"/>
<stop offset="0.87" stop-color="#16418E"/>
<stop offset="1" stop-color="#14499B"/>
</linearGradient>
<linearGradient id="paint18_linear_2162_12875" x1="55.9591" y1="21.4346" x2="58.5005" y2="21.4346" gradientUnits="userSpaceOnUse">
<stop stop-color="#211C53"/>
<stop offset="0.21" stop-color="#20205A"/>
<stop offset="0.51" stop-color="#1C2D6E"/>
<stop offset="0.87" stop-color="#16418E"/>
<stop offset="1" stop-color="#14499B"/>
</linearGradient>
</defs>
</svg>
