<svg width="52" height="58" viewBox="0 0 52 58" fill="none" xmlns="http://www.w3.org/2000/svg">
<path d="M9.12274 5.79394V38.9659L26.0661 46.6359L42.7649 38.8504C42.8468 27.9086 42.9284 16.967 43.0095 6.0256L26.1276 0.70874L9.12274 5.79394Z" fill="url(#paint0_linear_687_4456)"/>
<path d="M26.0653 47.3136L8.46179 39.3449V5.28394L26.1274 0L43.6632 5.52278L43.4098 39.2246L26.0653 47.3136ZM9.63709 38.6463L26.0596 46.0793L42.2427 38.5332L42.4828 6.32133L26.1179 1.16729L9.63709 6.09625V38.6463Z" fill="url(#paint1_linear_687_4456)"/>
<path d="M26.1231 1.70288L10.1047 6.58814V38.2277L25.9317 45.5308L26.0641 45.5906L41.791 38.117L42.0204 6.80963L26.1231 1.70288ZM41.2024 37.774L26.0597 44.9728L10.6921 37.8811V6.9928L13.2986 6.19785L13.2353 32.0069L13.8233 31.452L13.8866 6.01886L16.2657 5.29454V30.8157H16.8531V5.11496L19.1264 4.42297C19.1209 8.16029 19.115 11.8978 19.1086 15.6355L19.696 14.9418C19.7015 11.376 19.7074 7.81011 19.7137 4.24398L26.1129 2.29132L32.7123 4.4068V18.2988H33.2997V4.59597L35.573 5.32687V31.0671H36.1603V5.51423L38.5413 6.27866V32.7109H39.1287V6.46782L41.4318 7.20591L41.2024 37.774Z" fill="url(#paint2_linear_687_4456)"/>
<path d="M25.695 11.112V18.4468H21.775C21.5083 18.4465 21.2511 18.5404 21.0539 18.7102C20.8568 18.8799 20.7339 19.1131 20.7094 19.3641C20.685 19.615 20.7607 19.8655 20.9218 20.0664C21.0828 20.2673 21.3176 20.404 21.5799 20.4497L18.9758 21.1735V20.2061C18.9676 16.9491 18.9619 14.5959 21.8903 12.9785C21.9771 12.9342 24.1833 11.8537 25.6982 11.112H25.695ZM26.0638 10.5427C26.0638 10.5427 21.7554 12.651 21.7136 12.6756C18.4348 14.4876 18.6128 17.1454 18.6128 20.7341V21.6368L24.8143 19.914L21.8295 20.1199C21.8118 20.1199 21.7947 20.1199 21.7776 20.1199C21.5913 20.1196 21.4127 20.0494 21.2811 19.9249C21.1495 19.8003 21.0755 19.6315 21.0755 19.4554C21.0755 19.3682 21.0936 19.2819 21.1289 19.2013C21.1641 19.1207 21.2159 19.0475 21.2812 18.9858C21.3464 18.9242 21.4239 18.8753 21.5092 18.842C21.5945 18.8086 21.6859 18.7915 21.7782 18.7916H26.0612V10.5427H26.0638Z" fill="url(#paint3_linear_687_4456)"/>
<path d="M20.381 28.1242C21.8497 29.4878 23.6326 30.597 25.6943 31.4291V37.0686C22.8609 36.2228 18.2674 34.4018 15.3123 30.9376C15.4333 30.9424 15.5658 30.9454 15.7007 30.9454C18.9497 30.9454 20.037 29.3986 20.381 28.1242ZM20.1428 27.3962C19.8672 30.166 17.2878 30.5994 15.7007 30.5994C15.305 30.6007 14.9098 30.5737 14.5184 30.5186C17.6509 34.6861 23.1029 36.7052 26.0605 37.5367V31.1992C23.2283 30.0948 21.3365 28.6144 20.1434 27.3962H20.1428Z" fill="url(#paint4_linear_687_4456)"/>
<path d="M14.0172 31.3984C15.5252 33.3559 18.8997 36.5578 25.6936 38.4536V40.5075C23.7928 40.0956 16.1385 38.1429 12.4656 32.8237L14.0172 31.3984ZM14.0698 30.8674L11.9942 32.771C16.2392 39.236 26.0598 40.9355 26.0598 40.9355V38.1938C23.1231 37.4001 17.2675 35.3271 14.0698 30.8674Z" fill="url(#paint5_linear_687_4456)"/>
<path d="M25.6944 20.5217V21.707C25.6181 21.6039 25.5167 21.5198 25.3987 21.4616C25.2806 21.4035 25.1495 21.3731 25.0164 21.373C24.9525 21.3727 24.8887 21.3795 24.8264 21.3933C24.6435 21.4324 24.4802 21.5293 24.3635 21.668C24.2468 21.8066 24.1837 21.9788 24.1845 22.1559V27.4315C24.1836 27.6157 24.24 27.7961 24.3468 27.9503C24.4536 28.1044 24.6061 28.2254 24.7852 28.2983C24.9651 28.3709 25.1503 28.4427 25.3408 28.5138L25.6918 28.6443V29.6404C20.94 27.6308 18.9866 24.5408 18.699 24.0481V22.5798L25.6918 20.5217H25.6944ZM23.7467 27.8565V22.6145C23.7466 22.4071 23.6594 22.2082 23.5043 22.0614C23.3492 21.9147 23.1388 21.832 22.9193 21.8315C22.8553 21.8316 22.7916 21.8384 22.7292 21.8518C22.5464 21.8911 22.3833 21.988 22.2667 22.1267C22.1501 22.2653 22.0871 22.4374 22.088 22.6145V26.4258C22.0865 26.5875 22.1294 26.7467 22.2126 26.8879C22.2958 27.0292 22.4164 27.1476 22.5626 27.2316C22.7736 27.3513 22.989 27.471 23.2031 27.5805L23.7448 27.8595L23.7467 27.8565ZM21.6927 26.7221V23.0634C21.6927 22.856 21.6055 22.657 21.4504 22.5102C21.2952 22.3634 21.0848 22.2808 20.8652 22.2804C20.8012 22.2802 20.7374 22.287 20.6751 22.3008C20.4922 22.3399 20.3289 22.4368 20.2122 22.5755C20.0955 22.7141 20.0324 22.8863 20.0333 23.0634V24.9951C20.0339 25.1277 20.0637 25.2586 20.1209 25.3796C20.178 25.5006 20.2613 25.609 20.3653 25.6979C20.587 25.8889 20.8335 26.0852 21.0983 26.281L21.6901 26.7191L21.6927 26.7221ZM26.0606 20.0518L18.3365 22.3265V24.1355C18.3365 24.1355 20.3152 27.9253 26.0606 30.1653V20.0488V20.0518ZM25.4783 28.1929C25.2916 28.1235 25.1096 28.0529 24.9322 27.981C24.8188 27.935 24.7224 27.8584 24.6548 27.7609C24.5872 27.6634 24.5514 27.5493 24.552 27.4327V22.1559C24.5497 22.0972 24.56 22.0387 24.5822 21.9838C24.6044 21.9289 24.638 21.8788 24.6812 21.8365C24.7243 21.7942 24.7761 21.7606 24.8333 21.7376C24.8905 21.7146 24.952 21.7028 25.0142 21.7028C25.0764 21.7028 25.1379 21.7146 25.1952 21.7376C25.2524 21.7606 25.3041 21.7942 25.3473 21.8365C25.3904 21.8788 25.4241 21.9289 25.4463 21.9838C25.4685 22.0387 25.4787 22.0972 25.4764 22.1559V28.1917L25.4783 28.1929ZM23.3812 27.2747C23.1607 27.1609 22.9529 27.0472 22.7545 26.934C22.6627 26.8807 22.587 26.8059 22.5346 26.7169C22.4822 26.6279 22.455 26.5277 22.4555 26.4258V22.6145C22.4555 22.5157 22.491 22.4198 22.5561 22.3425C22.6213 22.2652 22.7122 22.2111 22.8141 22.1889C22.8486 22.1812 22.8839 22.1774 22.9193 22.1775C23.0417 22.1778 23.159 22.224 23.2455 22.3059C23.332 22.3878 23.3805 22.4988 23.3805 22.6145V27.2735L23.3812 27.2747ZM21.3283 26.0068C21.0603 25.8087 20.8215 25.6177 20.6162 25.4405C20.5496 25.3842 20.4964 25.3153 20.4598 25.2382C20.4232 25.1612 20.4042 25.0778 20.4039 24.9934V23.0634C20.4016 23.0047 20.4119 22.9462 20.4341 22.8913C20.4563 22.8364 20.4899 22.7863 20.5331 22.744C20.5762 22.7017 20.628 22.6681 20.6852 22.6451C20.7424 22.6221 20.804 22.6103 20.8661 22.6103C20.9283 22.6103 20.9899 22.6221 21.0471 22.6451C21.1043 22.6681 21.156 22.7017 21.1992 22.744C21.2423 22.7863 21.276 22.8364 21.2982 22.8913C21.3204 22.9462 21.3306 23.0047 21.3283 23.0634V26.0068Z" fill="url(#paint6_linear_687_4456)"/>
<path d="M26.0642 18.7928H30.3498C30.4421 18.7927 30.5335 18.8098 30.6189 18.8431C30.7042 18.8765 30.7817 18.9254 30.847 18.987C30.9124 19.0487 30.9642 19.1219 30.9995 19.2024C31.0349 19.283 31.0531 19.3694 31.0531 19.4566C31.0531 19.548 31.0331 19.6383 30.9945 19.722C30.9559 19.8057 30.8994 19.881 30.8286 19.9431C30.7577 20.0053 30.6741 20.0529 30.5829 20.0831C30.4917 20.1133 30.3949 20.1255 30.2985 20.1187L27.3136 19.9128L33.5152 21.6368V20.7341C33.5152 17.1454 33.6932 14.4876 30.4144 12.6756C30.3707 12.651 26.0642 10.5427 26.0642 10.5427V18.7928Z" fill="url(#paint7_linear_687_4456)"/>
<path d="M26.0642 37.5367V31.1992C28.8963 30.0948 30.7882 28.6144 31.9813 27.3962C32.3576 31.1795 37.0322 30.6042 37.6056 30.5186C34.4732 34.6861 29.0212 36.7052 26.0642 37.5367Z" fill="url(#paint8_linear_687_4456)"/>
<path d="M38.0535 30.8674L40.126 32.771C35.8854 39.236 26.0604 40.9349 26.0604 40.9349V38.1932C29.0002 37.4001 34.8564 35.3271 38.0535 30.8674Z" fill="url(#paint9_linear_687_4456)"/>
<path d="M26.0642 20.052V30.1685C31.8089 27.9255 33.7902 24.1345 33.7902 24.1345V22.3255L26.0642 20.052ZM27.5709 27.4317C27.5715 27.5482 27.5357 27.6624 27.4681 27.7599C27.4005 27.8574 27.3041 27.9339 27.1907 27.98C27.0133 28.0518 26.8311 28.1225 26.6439 28.1919V22.1561C26.6416 22.0974 26.6519 22.0389 26.6741 21.984C26.6963 21.9291 26.7299 21.879 26.7731 21.8367C26.8162 21.7944 26.868 21.7608 26.9252 21.7378C26.9824 21.7148 27.044 21.703 27.1061 21.703C27.1683 21.703 27.2299 21.7148 27.2871 21.7378C27.3443 21.7608 27.396 21.7944 27.4392 21.8367C27.4823 21.879 27.516 21.9291 27.5382 21.984C27.5604 22.0389 27.5706 22.0974 27.5683 22.1561L27.5709 27.4317ZM29.6718 26.426C29.6728 26.5281 29.6458 26.6287 29.5935 26.718C29.5412 26.8074 29.4654 26.8825 29.3734 26.936C29.1751 27.0492 28.9673 27.1629 28.7468 27.2766V22.6147C28.7468 22.4988 28.7955 22.3876 28.8823 22.3057C28.969 22.2237 29.0867 22.1777 29.2093 22.1777C29.332 22.1777 29.4496 22.2237 29.5364 22.3057C29.6231 22.3876 29.6718 22.4988 29.6718 22.6147V26.426ZM31.7234 24.9983C31.7231 25.0827 31.7041 25.166 31.6677 25.2431C31.6312 25.3201 31.5781 25.389 31.5118 25.4455C31.3059 25.6251 31.0683 25.8136 30.799 26.0118V23.0666C30.7967 23.0079 30.8069 22.9494 30.8291 22.8945C30.8513 22.8396 30.885 22.7895 30.9282 22.7472C30.9713 22.7049 31.023 22.6713 31.0803 22.6483C31.1375 22.6253 31.199 22.6134 31.2612 22.6134C31.3234 22.6134 31.3849 22.6253 31.4421 22.6483C31.4994 22.6713 31.5511 22.7049 31.5942 22.7472C31.6374 22.7895 31.6711 22.8396 31.6933 22.8945C31.7154 22.9494 31.7257 23.0079 31.7234 23.0666V24.9983Z" fill="url(#paint10_linear_687_4456)"/>
<path d="M21.4772 9.77376C20.4362 10.0838 19.9781 11.2416 20.485 12.155L20.8018 12.7273C20.8018 12.7273 21.2903 12.0646 22.527 11.6917L21.5082 9.76538L21.4772 9.77376ZM30.6477 9.77376L30.6179 9.76538L29.5991 11.6917C30.8359 12.0646 31.3244 12.7273 31.3244 12.7273L31.6412 12.155C32.143 11.2416 31.6881 10.0838 30.6477 9.77376Z" fill="url(#paint11_linear_687_4456)"/>
<path d="M14.4903 39.3233L8.78863 28.9865L12.3133 30.3322L6.01542 20.9795L10.2003 22.3461L1.85466 6.42065L5.62196 17.3549L0.313782 15.7584L6.6319 26.2203L2.94506 25.2086L14.4903 39.3233Z" fill="url(#paint12_linear_687_4456)"/>
<path d="M14.3735 39.408L2.55398 24.9563L6.32509 25.9913L0 15.5157L5.39372 17.1385L1.71448 6.46346L1.98629 6.3587L10.4909 22.587L6.365 21.2402L12.6831 30.6228L9.10273 29.2562L14.62 39.2589L14.3735 39.408ZM3.33646 25.4604L13.6006 38.0043L8.47421 28.7168L11.9431 30.0409L5.66489 20.7182L9.90992 22.104L2.61734 8.19344L5.84863 17.5689L0.625983 15.9981L6.93777 26.4487L3.33646 25.4604Z" fill="url(#paint13_linear_687_4456)"/>
<path d="M37.503 39.3233L43.2046 28.9865L39.68 30.3322L45.9778 20.9795L41.793 22.3461L50.1386 6.42065L46.3713 17.3549L51.6795 15.7584L45.3614 26.2203L49.0482 25.2086L37.503 39.3233Z" fill="url(#paint14_linear_687_4456)"/>
<path d="M37.6202 39.4079L37.3737 39.2589L42.8904 29.2561L39.3106 30.6227L45.6287 21.2401L41.5028 22.587L50.01 6.35864L50.2811 6.4634L46.6063 17.1402L52 15.5174L45.675 25.9931L49.4397 24.9563L37.6202 39.4079ZM43.5195 28.7168L38.3963 38.0042L48.6566 25.4603L45.0547 26.4486L51.3665 15.9981L46.1451 17.5688L49.3764 8.19338L42.0838 22.1039L46.3288 20.7181L40.0506 30.0409L43.5195 28.7168Z" fill="url(#paint15_linear_687_4456)"/>
<path d="M10.0098 53.4926L10.3235 51.6208C10.308 51.597 10.2906 51.5744 10.2715 51.5531C10.2436 51.519 10.2126 51.4801 10.1803 51.4364C10.1472 51.3925 10.1172 51.3467 10.0903 51.2993C10.0662 51.2586 10.0497 51.2142 10.0415 51.1682H11.3385L11.1997 52.0009H12.3851L12.5239 51.1682H13.4629L13.0726 53.4926H12.1349L12.2736 52.6599H11.0882L10.9494 53.4926H10.0098Z" fill="white"/>
<path d="M14.7775 52.3301L13.9006 51.1682H14.9561L15.3274 51.7177L15.8818 51.1682H16.9823L15.712 52.3349L15.5219 53.4926C15.5025 53.5208 15.4775 53.5451 15.4484 53.5644C15.3961 53.6045 15.3415 53.6419 15.285 53.6764C15.2216 53.7171 15.1475 53.7602 15.0683 53.8051C14.9891 53.85 14.9124 53.8913 14.8376 53.9278C14.7629 53.9643 14.6945 53.9949 14.6324 54.0188C14.5872 54.0386 14.5388 54.0507 14.4892 54.0547L14.7775 52.3301Z" fill="white"/>
<path d="M17.606 51.6208C17.5906 51.5971 17.5735 51.5745 17.5547 51.5531C17.5262 51.519 17.4958 51.4801 17.4628 51.4364C17.4298 51.3927 17.4 51.3469 17.3735 51.2993C17.3489 51.2587 17.3322 51.2143 17.3241 51.1682H20.3881C20.4305 51.1697 20.4709 51.1854 20.5021 51.2125C20.5412 51.2445 20.5744 51.2823 20.6003 51.3244C20.6285 51.3686 20.6499 51.4164 20.6637 51.4663C20.6764 51.5081 20.6803 51.5518 20.6751 51.595L20.428 53.0634C20.4191 53.1102 20.4001 53.1549 20.3723 53.1945C20.3399 53.2438 20.3032 53.2904 20.2626 53.334C20.2234 53.3768 20.1782 53.4145 20.1283 53.4459C20.0914 53.4717 20.0474 53.4871 20.0016 53.4902H17.293L17.606 51.6208ZM19.6855 51.9033C19.6882 51.8848 19.6834 51.866 19.6721 51.8506C19.6601 51.8327 19.6468 51.8231 19.6322 51.8231H18.514L18.3442 52.8407H19.4618C19.4713 52.8395 19.4805 52.8365 19.4887 52.8317C19.4968 52.827 19.5039 52.8207 19.5093 52.8132C19.5237 52.7974 19.5351 52.7794 19.5429 52.7599L19.6855 51.9033Z" fill="white"/>
<path d="M21.3941 51.6208C21.3787 51.5971 21.3615 51.5745 21.3427 51.5531C21.3142 51.519 21.2838 51.4801 21.2509 51.4364C21.2178 51.3927 21.188 51.3469 21.1615 51.2993C21.137 51.2587 21.1202 51.2143 21.1121 51.1682H24.3193L24.2116 51.8231H22.3109L22.2798 52.0027H23.7161L23.604 52.6534H22.1677L22.1411 52.8329H24.0418L23.9303 53.4878H21.0792L21.3941 51.6208Z" fill="white"/>
<path d="M24.7856 51.1682H27.496C27.5384 51.1697 27.5788 51.1854 27.6101 51.2125C27.6485 51.2438 27.6811 51.2811 27.7064 51.3227C27.7331 51.3663 27.7533 51.4133 27.7666 51.4621C27.7794 51.5039 27.7831 51.5477 27.7773 51.5908L27.657 52.3092C27.6446 52.3904 27.6251 52.4705 27.5987 52.5486C27.5776 52.6117 27.5416 52.6694 27.4935 52.7174C27.4427 52.7651 27.3806 52.8006 27.3123 52.821C27.2226 52.8472 27.1293 52.8607 27.0354 52.8611H26.9904L27.5898 53.495H26.4848L25.689 52.6665L25.7606 52.2475H26.6686C26.7104 52.2475 26.7357 52.2224 26.7446 52.1715L26.7889 51.9009C26.7919 51.8835 26.788 51.8656 26.7782 51.8506C26.7749 51.8435 26.7697 51.8373 26.763 51.8327C26.7563 51.8282 26.7484 51.8255 26.7402 51.8249H25.6174L25.3355 53.4944C25.316 53.5227 25.2908 53.5471 25.2614 53.5662C25.2092 53.6062 25.1548 53.6436 25.0985 53.6782C25.0352 53.7189 24.9604 53.762 24.8812 53.8069C24.802 53.8518 24.7254 53.8931 24.6512 53.9296C24.5771 53.9661 24.508 53.9966 24.4453 54.0206C24.4002 54.0404 24.3517 54.0526 24.3021 54.0565L24.7856 51.1682Z" fill="white"/>
<path d="M30.224 53.2137H29.0968L28.9068 53.4926H27.8975L29.1646 51.6291C29.1513 51.6076 29.1356 51.5876 29.1177 51.5693C29.0892 51.537 29.0544 51.4974 29.0233 51.4496C28.9923 51.4017 28.96 51.355 28.927 51.3053C28.9 51.2637 28.8833 51.2168 28.8783 51.1682H30.4793L31.2846 53.4926H30.3222L30.224 53.2137ZM29.527 52.563H30.006L29.8495 52.0841L29.527 52.563Z" fill="white"/>
<path d="M34.8263 51.1682C34.8687 51.1697 34.9091 51.1854 34.9404 51.2125C34.9786 51.2438 35.011 51.2811 35.036 51.3227C35.0638 51.3662 35.0851 51.4131 35.0994 51.4621C35.1123 51.5039 35.1159 51.5477 35.1102 51.5908L35.0341 52.0476C35.0279 52.0741 35.0148 52.0988 34.9961 52.1194C34.9731 52.1486 34.9477 52.176 34.9201 52.2014C34.8922 52.2283 34.8637 52.2535 34.8352 52.2774C34.8135 52.2965 34.7904 52.3141 34.7661 52.3301C34.7775 52.3415 34.794 52.36 34.8149 52.3852C34.8358 52.4103 34.8561 52.4373 34.8783 52.4654C34.8964 52.4919 34.9127 52.5195 34.9271 52.548C34.9394 52.5679 34.9449 52.5909 34.9429 52.6139L34.8669 53.07C34.8579 53.1168 34.839 53.1614 34.8111 53.2011C34.779 53.2498 34.7423 53.2956 34.7015 53.3382C34.6623 53.3798 34.6178 53.4168 34.5691 53.4483C34.5325 53.4747 34.4883 53.4901 34.4424 53.4926H31.7262L32.0392 51.6208C32.0243 51.5968 32.0071 51.5742 31.9879 51.5531C31.96 51.519 31.9289 51.4801 31.8966 51.4364C31.8636 51.3925 31.8336 51.3467 31.8067 51.2993C31.7826 51.2586 31.7661 51.2142 31.7579 51.1682H34.8263ZM33.945 52.6599H33.0187L33.1309 52.0051H34.0477C34.0622 52.0004 34.0748 51.9916 34.0838 51.9799C34.0949 51.9672 34.1039 51.9528 34.1104 51.9374L34.1193 51.8991C34.1223 51.8816 34.1182 51.8636 34.1078 51.8488C34.1047 51.8416 34.0995 51.8353 34.0928 51.8308C34.0861 51.8262 34.0781 51.8235 34.0698 51.8231H32.9477L32.7773 52.8407H33.9C33.909 52.8397 33.9177 52.8369 33.9255 52.8325C33.9332 52.828 33.9399 52.8221 33.945 52.815C33.9583 52.8007 33.9675 52.7834 33.9716 52.7647L33.9805 52.7264C33.9817 52.7133 33.979 52.7001 33.9728 52.6884C33.9665 52.6767 33.9569 52.6668 33.945 52.6599Z" fill="white"/>
<path d="M37.4758 53.2137H36.3486L36.1586 53.4926H35.1448L36.412 51.6291C36.3992 51.6074 36.3834 51.5872 36.3651 51.5693C36.3366 51.537 36.3056 51.4974 36.2714 51.4496C36.2371 51.4017 36.208 51.355 36.175 51.3053C36.1479 51.2637 36.131 51.2168 36.1256 51.1682H37.7273L38.5428 53.4926H37.5746L37.4758 53.2137ZM36.7827 52.563H37.261L37.1045 52.0841L36.7827 52.563Z" fill="white"/>
<path d="M39.2919 51.6208C39.2769 51.5968 39.2598 51.5742 39.2406 51.5531C39.212 51.519 39.1816 51.4801 39.1487 51.4364C39.1157 51.3927 39.0858 51.3469 39.0593 51.2993C39.0353 51.2585 39.0187 51.2142 39.0099 51.1682H42.0739C42.1163 51.1697 42.1567 51.1854 42.188 51.2125C42.2272 51.2443 42.2604 51.2822 42.2862 51.3244C42.3144 51.3686 42.3357 51.4164 42.3496 51.4663C42.3623 51.5081 42.3661 51.5518 42.361 51.595L42.1145 53.0634C42.1053 53.1102 42.0863 53.1547 42.0587 53.1945C42.0259 53.2437 41.9891 53.2903 41.9485 53.334C41.9095 53.3768 41.8645 53.4145 41.8148 53.4459C41.7778 53.4715 41.7339 53.4869 41.6881 53.4902H38.9789L39.2919 51.6208ZM41.3719 51.9033C41.3744 51.8848 41.3697 51.8661 41.3586 51.8506C41.355 51.8431 41.3493 51.8366 41.3422 51.8318C41.3351 51.827 41.3268 51.824 41.3181 51.8231H40.1998L40.03 52.8407H41.1483C41.1577 52.8395 41.1667 52.8364 41.1748 52.8316C41.1829 52.8269 41.1898 52.8206 41.1952 52.8132C41.21 52.7977 41.2214 52.7796 41.2287 52.7599L41.3719 51.9033Z" fill="white"/>
<path d="M12.7019 57.4382L12.0841 56.6001H11.7534L11.6146 57.4382H10.6757L10.9887 55.5657C10.9729 55.5423 10.9558 55.5197 10.9373 55.4981C10.9088 55.4646 10.8784 55.4256 10.8455 55.3819C10.8124 55.3382 10.7826 55.2924 10.7561 55.2449C10.7316 55.2043 10.7148 55.1599 10.7067 55.1138H12.0037L11.8649 55.9518H12.1513L13.0459 55.1138H14.1483L12.9135 56.2757L13.7593 57.4382H12.7019Z" fill="white"/>
<path d="M16.7064 55.1138H17.6454L17.2538 57.4382H16.3529L15.3284 56.2972L15.1383 57.4382H15.1339C15.1137 57.466 15.0887 57.4903 15.0597 57.51C15.0167 57.5435 14.9628 57.5812 14.8988 57.6219C14.8348 57.6627 14.7632 57.7058 14.684 57.7507C14.6048 57.7955 14.5288 57.8369 14.4559 57.8734C14.3891 57.9072 14.3204 57.9376 14.25 57.9644C14.2042 57.9841 14.1551 57.9962 14.1049 58.0003L14.5877 55.1138H15.4868L16.5157 56.2547L16.7064 55.1138Z" fill="white"/>
<path d="M18.1111 55.1138H19.05L18.661 57.4382C18.6414 57.4662 18.6165 57.4905 18.5875 57.51C18.5351 57.5499 18.4805 57.5873 18.424 57.6219C18.3607 57.6627 18.2859 57.7058 18.2074 57.7507C18.1288 57.7955 18.0515 57.8369 17.9767 57.8734C17.902 57.9099 17.8335 57.9404 17.7708 57.9644C17.7257 57.9842 17.6772 57.9963 17.6276 58.0003L18.1111 55.1138Z" fill="white"/>
<path d="M21.2447 57.4382H19.4789C19.4365 57.4367 19.3961 57.421 19.3648 57.3939C19.3263 57.3626 19.2938 57.3253 19.2685 57.2837C19.2421 57.2408 19.2218 57.1947 19.2083 57.1467C19.1954 57.1041 19.1916 57.0595 19.1969 57.0156L19.4434 55.5364C19.4532 55.4905 19.4721 55.4469 19.4991 55.4077C19.5306 55.3578 19.5673 55.3111 19.6087 55.2682C19.6479 55.2267 19.6922 55.1897 19.7405 55.1581C19.7773 55.1319 19.8213 55.1165 19.8672 55.1138H22.5752L22.4681 55.7686H20.4096C20.4001 55.7698 20.3909 55.7729 20.3827 55.7776C20.3745 55.7824 20.3675 55.7887 20.3621 55.7962C20.3487 55.81 20.3389 55.8266 20.3336 55.8447L20.1859 56.7073C20.183 56.7247 20.1869 56.7426 20.1967 56.7576C20.2006 56.7651 20.2067 56.7715 20.2141 56.776C20.2216 56.7805 20.2303 56.7831 20.2392 56.7833H21.2947C21.3037 56.7823 21.3124 56.7795 21.3202 56.775C21.3279 56.7706 21.3346 56.7646 21.3397 56.7576C21.3535 56.7435 21.3627 56.7261 21.3663 56.7073L21.3841 56.6013H20.5705L20.682 55.9506H22.4358L22.1824 57.4382C22.1628 57.4662 22.1378 57.4905 22.1089 57.51C22.0564 57.5499 22.0019 57.5873 21.9454 57.6219C21.8821 57.6627 21.8073 57.7058 21.7287 57.7507C21.6502 57.7955 21.5729 57.8369 21.4981 57.8734C21.4233 57.9099 21.3549 57.9404 21.2922 57.9644C21.2471 57.9842 21.1986 57.9964 21.149 58.0003L21.2447 57.4382Z" fill="white"/>
<path d="M22.9327 57.4382L23.2457 55.5657C23.2302 55.5421 23.2131 55.5195 23.1944 55.4981C23.1659 55.4646 23.1355 55.4256 23.1025 55.3819C23.0695 55.3382 23.0397 55.2924 23.0132 55.2449C22.9889 55.2042 22.9722 55.1598 22.9638 55.1138H24.2607L24.1226 55.9464H25.3074L25.4462 55.1138H26.3858L25.9968 57.4382H25.0572L25.1959 56.6055H24.0105L23.8717 57.4382H22.9327Z" fill="white"/>
<path d="M27.8085 55.7686H26.7441L26.8518 55.1138H29.9202L29.8125 55.7686H28.7481L28.4681 57.4382C28.4485 57.4662 28.4235 57.4905 28.3946 57.51C28.3509 57.5435 28.2964 57.5812 28.2311 57.6219C28.1658 57.6627 28.093 57.7058 28.0138 57.7507C27.9346 57.7955 27.8586 57.8369 27.7838 57.8734C27.709 57.9099 27.6406 57.9404 27.5779 57.9644C27.5328 57.9842 27.4843 57.9963 27.4347 58.0003L27.8085 55.7686Z" fill="white"/>
<path d="M30.2357 57.3934C30.1971 57.3623 30.1645 57.325 30.1394 57.2833C30.1119 57.2405 30.0906 57.1944 30.0761 57.1462C30.0626 57.1037 30.0587 57.0591 30.0647 57.0151L30.1318 56.6218H31.0708L31.0531 56.711C31.05 56.7285 31.0541 56.7465 31.0645 56.7613C31.0676 56.7686 31.0728 56.7748 31.0795 56.7794C31.0863 56.7839 31.0942 56.7866 31.1025 56.787H32.0529L30.3796 56.2483C30.3424 56.2242 30.3086 56.1958 30.2788 56.1639C30.2485 56.1319 30.2291 56.0921 30.2231 56.0496L30.308 55.5383C30.318 55.4926 30.3369 55.4489 30.3637 55.4096C30.3954 55.3599 30.4321 55.3132 30.4733 55.2702C30.5127 55.2287 30.5572 55.1917 30.6058 55.16C30.6425 55.1338 30.6865 55.1184 30.7325 55.1157H32.9779C33.0203 55.1172 33.0607 55.1329 33.0919 55.16C33.1302 55.1913 33.1626 55.2286 33.1876 55.2702C33.2157 55.3135 33.2371 55.3605 33.251 55.4096C33.2638 55.4514 33.2675 55.4952 33.2617 55.5383L33.1984 55.931H32.2638L32.2772 55.8424C32.2801 55.825 32.2762 55.8072 32.2664 55.7922C32.2632 55.785 32.2579 55.7788 32.2512 55.7742C32.2445 55.7697 32.2366 55.767 32.2284 55.7664H31.278L32.9507 56.3052C32.9893 56.3306 33.0246 56.3604 33.0558 56.3938C33.0843 56.4247 33.1022 56.4631 33.1071 56.5039L33.0222 57.0151C33.0133 57.0619 32.9943 57.1066 32.9665 57.1462C32.9345 57.195 32.8978 57.2409 32.8569 57.2833C32.8177 57.3248 32.7735 57.3618 32.7251 57.3934C32.6884 57.4196 32.6443 57.435 32.5984 57.4377H30.3498C30.3074 57.4363 30.2669 57.4206 30.2357 57.3934Z" fill="white"/>
<path d="M35.9138 57.4382C35.8937 57.466 35.8686 57.4903 35.8397 57.51C35.7874 57.5501 35.7328 57.5874 35.6762 57.6219C35.6129 57.6627 35.5387 57.7058 35.4595 57.7507C35.3803 57.7955 35.3037 57.8369 35.2295 57.8734C35.1554 57.9099 35.0863 57.9404 35.0236 57.9644C34.9785 57.9842 34.93 57.9963 34.8804 58.0003L35.3632 55.1138H38.2144L38.1073 55.7686H36.2065L36.1749 55.9482H37.6106L37.499 56.5989H36.0614L35.9227 57.437L35.9138 57.4382Z" fill="white"/>
<path d="M40.9999 57.4382H38.6429C38.6005 57.4369 38.56 57.4212 38.5289 57.3939C38.4902 57.3627 38.4577 57.3255 38.4326 57.2837C38.4051 57.2409 38.3838 57.1948 38.3692 57.1467C38.3562 57.1041 38.3525 57.0595 38.3584 57.0156L38.6049 55.5364C38.6147 55.4905 38.6336 55.4469 38.6607 55.4077C38.6923 55.358 38.7291 55.3112 38.7703 55.2682C38.8096 55.2269 38.8538 55.1899 38.9021 55.1581C38.9389 55.1321 38.9829 55.1167 39.0288 55.1138H41.3857C41.4281 55.1153 41.4685 55.131 41.4998 55.1581C41.5384 55.1892 41.571 55.2265 41.5961 55.2682C41.624 55.3117 41.6453 55.3586 41.6594 55.4077C41.6721 55.4495 41.676 55.4932 41.6708 55.5364L41.5948 56.0051H40.6552L40.6824 55.8447C40.6848 55.8272 40.6808 55.8094 40.671 55.7944C40.6679 55.7872 40.6626 55.781 40.6559 55.7764C40.6492 55.7719 40.6413 55.7692 40.633 55.7686H39.573C39.5636 55.7698 39.5545 55.7729 39.5465 55.7777C39.5384 55.7824 39.5315 55.7887 39.5261 55.7962C39.5123 55.8098 39.5023 55.8265 39.497 55.8447L39.3494 56.7073C39.3465 56.7247 39.3503 56.7426 39.3601 56.7576C39.3641 56.7652 39.3702 56.7716 39.3779 56.7762C39.3855 56.7807 39.3942 56.7832 39.4032 56.7833H40.4632C40.4721 56.7822 40.4807 56.7794 40.4883 56.7749C40.496 56.7705 40.5025 56.7646 40.5076 56.7576C40.5213 56.7434 40.5307 56.726 40.5348 56.7073L40.5614 56.5462H41.501L41.4244 57.0156C41.4157 57.0625 41.3967 57.1071 41.3686 57.1467C41.3367 57.1955 41.3 57.2413 41.259 57.2837C41.2198 57.3252 41.1756 57.3622 41.1272 57.3939C41.0903 57.4202 41.046 57.4356 40.9999 57.4382Z" fill="white"/>
<defs>
<linearGradient id="paint0_linear_687_4456" x1="9.12274" y1="23.672" x2="43.0095" y2="23.672" gradientUnits="userSpaceOnUse">
<stop offset="0.01" stop-color="#424343"/>
<stop offset="0.29" stop-color="#182D25"/>
<stop offset="0.43" stop-color="#0E1A15"/>
<stop offset="0.6" stop-color="#040706"/>
<stop offset="0.73" stop-color="#010101"/>
<stop offset="0.86" stop-color="#010101"/>
<stop offset="1" stop-color="#181818"/>
</linearGradient>
<linearGradient id="paint1_linear_687_4456" x1="26.0628" y1="43.8339" x2="26.0628" y2="26.349" gradientUnits="userSpaceOnUse">
<stop stop-color="#BB9531"/>
<stop offset="0.37" stop-color="#F7EF8A"/>
<stop offset="0.63" stop-color="#DDC05B"/>
<stop offset="0.77" stop-color="#D1AB46"/>
<stop offset="0.79" stop-color="#D4AE49"/>
<stop offset="0.92" stop-color="#E5C05F"/>
<stop offset="1" stop-color="#EBC767"/>
</linearGradient>
<linearGradient id="paint2_linear_687_4456" x1="9.65299" y1="7.01555" x2="40.3362" y2="39.4915" gradientUnits="userSpaceOnUse">
<stop stop-color="#BB9531"/>
<stop offset="0.37" stop-color="#F7EF8A"/>
<stop offset="0.63" stop-color="#DDC05B"/>
<stop offset="0.77" stop-color="#D1AB46"/>
<stop offset="0.79" stop-color="#D4AE49"/>
<stop offset="0.92" stop-color="#E5C05F"/>
<stop offset="1" stop-color="#EBC767"/>
</linearGradient>
<linearGradient id="paint3_linear_687_4456" x1="18.6084" y1="16.0895" x2="26.0606" y2="16.0895" gradientUnits="userSpaceOnUse">
<stop stop-color="#BB9531"/>
<stop offset="0.37" stop-color="#F7EF8A"/>
<stop offset="0.63" stop-color="#DDC05B"/>
<stop offset="0.77" stop-color="#D1AB46"/>
<stop offset="0.79" stop-color="#D4AE49"/>
<stop offset="0.92" stop-color="#E5C05F"/>
<stop offset="1" stop-color="#EBC767"/>
</linearGradient>
<linearGradient id="paint4_linear_687_4456" x1="14.5184" y1="32.4665" x2="26.0598" y2="32.4665" gradientUnits="userSpaceOnUse">
<stop stop-color="#BB9531"/>
<stop offset="0.37" stop-color="#F7EF8A"/>
<stop offset="0.63" stop-color="#DDC05B"/>
<stop offset="0.77" stop-color="#D1AB46"/>
<stop offset="0.79" stop-color="#D4AE49"/>
<stop offset="0.92" stop-color="#E5C05F"/>
<stop offset="1" stop-color="#EBC767"/>
</linearGradient>
<linearGradient id="paint5_linear_687_4456" x1="11.9967" y1="35.9011" x2="26.0592" y2="35.9011" gradientUnits="userSpaceOnUse">
<stop stop-color="#BB9531"/>
<stop offset="0.37" stop-color="#F7EF8A"/>
<stop offset="0.63" stop-color="#DDC05B"/>
<stop offset="0.77" stop-color="#D1AB46"/>
<stop offset="0.79" stop-color="#D4AE49"/>
<stop offset="0.92" stop-color="#E5C05F"/>
<stop offset="1" stop-color="#EBC767"/>
</linearGradient>
<linearGradient id="paint6_linear_687_4456" x1="18.3359" y1="25.1089" x2="26.06" y2="25.1089" gradientUnits="userSpaceOnUse">
<stop stop-color="#BB9531"/>
<stop offset="0.37" stop-color="#F7EF8A"/>
<stop offset="0.63" stop-color="#DDC05B"/>
<stop offset="0.77" stop-color="#D1AB46"/>
<stop offset="0.79" stop-color="#D4AE49"/>
<stop offset="0.92" stop-color="#E5C05F"/>
<stop offset="1" stop-color="#EBC767"/>
</linearGradient>
<linearGradient id="paint7_linear_687_4456" x1="26.0642" y1="16.0895" x2="33.5164" y2="16.0895" gradientUnits="userSpaceOnUse">
<stop stop-color="#BB9531"/>
<stop offset="0.37" stop-color="#F7EF8A"/>
<stop offset="0.63" stop-color="#DDC05B"/>
<stop offset="0.77" stop-color="#D1AB46"/>
<stop offset="0.79" stop-color="#D4AE49"/>
<stop offset="0.92" stop-color="#E5C05F"/>
<stop offset="1" stop-color="#EBC767"/>
</linearGradient>
<linearGradient id="paint8_linear_687_4456" x1="26.0642" y1="32.4665" x2="37.6056" y2="32.4665" gradientUnits="userSpaceOnUse">
<stop stop-color="#BB9531"/>
<stop offset="0.37" stop-color="#F7EF8A"/>
<stop offset="0.63" stop-color="#DDC05B"/>
<stop offset="0.77" stop-color="#D1AB46"/>
<stop offset="0.79" stop-color="#D4AE49"/>
<stop offset="0.92" stop-color="#E5C05F"/>
<stop offset="1" stop-color="#EBC767"/>
</linearGradient>
<linearGradient id="paint9_linear_687_4456" x1="26.0642" y1="35.9011" x2="40.1266" y2="35.9011" gradientUnits="userSpaceOnUse">
<stop stop-color="#BB9531"/>
<stop offset="0.37" stop-color="#F7EF8A"/>
<stop offset="0.63" stop-color="#DDC05B"/>
<stop offset="0.77" stop-color="#D1AB46"/>
<stop offset="0.79" stop-color="#D4AE49"/>
<stop offset="0.92" stop-color="#E5C05F"/>
<stop offset="1" stop-color="#EBC767"/>
</linearGradient>
<linearGradient id="paint10_linear_687_4456" x1="26.0642" y1="25.1091" x2="33.7883" y2="25.1091" gradientUnits="userSpaceOnUse">
<stop stop-color="#BB9531"/>
<stop offset="0.37" stop-color="#F7EF8A"/>
<stop offset="0.63" stop-color="#DDC05B"/>
<stop offset="0.77" stop-color="#D1AB46"/>
<stop offset="0.79" stop-color="#D4AE49"/>
<stop offset="0.92" stop-color="#E5C05F"/>
<stop offset="1" stop-color="#EBC767"/>
</linearGradient>
<linearGradient id="paint11_linear_687_4456" x1="20.2778" y1="11.2463" x2="31.8464" y2="11.2463" gradientUnits="userSpaceOnUse">
<stop stop-color="#BB9531"/>
<stop offset="0.37" stop-color="#F7EF8A"/>
<stop offset="0.63" stop-color="#DDC05B"/>
<stop offset="0.77" stop-color="#D1AB46"/>
<stop offset="0.79" stop-color="#D4AE49"/>
<stop offset="0.92" stop-color="#E5C05F"/>
<stop offset="1" stop-color="#EBC767"/>
</linearGradient>
<linearGradient id="paint12_linear_687_4456" x1="0.313782" y1="22.8723" x2="14.4903" y2="22.8723" gradientUnits="userSpaceOnUse">
<stop offset="0.01" stop-color="#424343"/>
<stop offset="0.29" stop-color="#182D25"/>
<stop offset="0.43" stop-color="#0E1A15"/>
<stop offset="0.6" stop-color="#040706"/>
<stop offset="0.73" stop-color="#010101"/>
<stop offset="0.86" stop-color="#010101"/>
<stop offset="1" stop-color="#181818"/>
</linearGradient>
<linearGradient id="paint13_linear_687_4456" x1="-0.000633586" y1="22.8834" x2="14.62" y2="22.8834" gradientUnits="userSpaceOnUse">
<stop stop-color="#BB9531"/>
<stop offset="0.37" stop-color="#F7EF8A"/>
<stop offset="0.63" stop-color="#DDC05B"/>
<stop offset="0.77" stop-color="#D1AB46"/>
<stop offset="0.79" stop-color="#D4AE49"/>
<stop offset="0.92" stop-color="#E5C05F"/>
<stop offset="1" stop-color="#EBC767"/>
</linearGradient>
<linearGradient id="paint14_linear_687_4456" x1="37.503" y1="22.8723" x2="51.6795" y2="22.8723" gradientUnits="userSpaceOnUse">
<stop offset="0.01" stop-color="#424343"/>
<stop offset="0.29" stop-color="#182D25"/>
<stop offset="0.43" stop-color="#0E1A15"/>
<stop offset="0.6" stop-color="#040706"/>
<stop offset="0.73" stop-color="#010101"/>
<stop offset="0.86" stop-color="#010101"/>
<stop offset="1" stop-color="#181818"/>
</linearGradient>
<linearGradient id="paint15_linear_687_4456" x1="37.3737" y1="22.8833" x2="51.9943" y2="22.8833" gradientUnits="userSpaceOnUse">
<stop stop-color="#BB9531"/>
<stop offset="0.37" stop-color="#F7EF8A"/>
<stop offset="0.63" stop-color="#DDC05B"/>
<stop offset="0.77" stop-color="#D1AB46"/>
<stop offset="0.79" stop-color="#D4AE49"/>
<stop offset="0.92" stop-color="#E5C05F"/>
<stop offset="1" stop-color="#EBC767"/>
</linearGradient>
</defs>
</svg>
