<svg width="80" height="98" viewBox="0 0 80 98" fill="none" xmlns="http://www.w3.org/2000/svg">
<path d="M14 9.52567V65.1407L40 78L65.6247 64.947C65.7505 46.6024 65.8756 28.2581 66 9.91407L40.0943 1L14 9.52567Z" fill="url(#paint0_linear_2232_9485)"/>
<path d="M40.0044 80L13 66.5261V8.93432L40.0996 0L67 9.33817L66.6112 66.3227L40.0044 80ZM14.8029 65.345L39.9956 77.9129L64.8209 65.1537L65.1893 10.6884L40.085 1.97371L14.8029 10.3078V65.345Z" fill="url(#paint1_linear_2232_9485)"/>
<path d="M40.5929 3L16 11.2371V64.5852L40.2991 76.8991L40.5024 77L64.6479 64.3985L65 11.6106L40.5929 3ZM63.7442 63.8202L40.4956 75.9584L16.9017 64.0008V11.9194L20.9036 10.5791L20.8063 54.0963L21.709 53.1606L21.8063 10.2773L25.459 9.05598V52.0877H26.3607V8.75318L29.8509 7.58639C29.8425 13.888 29.8334 20.1899 29.8237 26.4921L30.7254 25.3223C30.7338 19.3101 30.7429 13.2975 30.7526 7.2846L40.5773 3.99217L50.7094 7.55914V30.9826H51.6112V7.87809L55.1014 9.11048V52.5116H56.0031V9.4264L59.6587 10.7153V55.2833H60.5604V11.0343L64.0963 12.2788L63.7442 63.8202Z" fill="url(#paint2_linear_2232_9485)"/>
<path d="M39.4557 18.9236V30.8243H33.6699C33.2762 30.8238 32.8966 30.9762 32.6056 31.2516C32.3146 31.527 32.1332 31.9054 32.0971 32.3126C32.061 32.7197 32.1728 33.1262 32.4106 33.4521C32.6483 33.778 32.9947 33.9998 33.3819 34.074L29.5384 35.2483V33.6787C29.5262 28.3942 29.5178 24.5763 33.8401 21.952C33.9682 21.8801 37.2244 20.127 39.4604 18.9236H39.4557ZM40 18C40 18 33.6409 21.4207 33.5792 21.4605C28.7397 24.4005 29.0025 28.7128 29.0025 34.5354V36L38.1559 33.2048L33.7503 33.5389C33.7241 33.5389 33.6989 33.5389 33.6736 33.5389C33.3987 33.5384 33.1351 33.4246 32.9409 33.2224C32.7466 33.0203 32.6375 32.7464 32.6375 32.4608C32.6374 32.3193 32.6641 32.1792 32.7162 32.0485C32.7683 31.9177 32.8446 31.7989 32.941 31.6989C33.0373 31.5988 33.1517 31.5195 33.2776 31.4654C33.4034 31.4113 33.5384 31.3836 33.6746 31.3837H39.9963V18H40Z" fill="url(#paint3_linear_2232_9485)"/>
<path d="M31.6348 47.2203C33.798 49.5064 36.424 51.3659 39.4606 52.7609V62.2152C35.2874 60.7972 28.5217 57.7445 24.1693 51.937C24.3475 51.945 24.5426 51.95 24.7413 51.95C29.5268 51.95 31.1281 49.3569 31.6348 47.2203ZM31.284 46C30.878 50.6434 27.079 51.37 24.7413 51.37C24.1585 51.3721 23.5764 51.3268 23 51.2345C27.6137 58.2211 35.6439 61.6061 40 63V52.3755C35.8286 50.524 33.0421 48.0422 31.2849 46H31.284Z" fill="url(#paint4_linear_2232_9485)"/>
<path d="M22.0204 52.8965C24.2718 56.2017 29.3099 61.6083 39.4532 64.8094V68.2773C36.6154 67.5819 25.1874 64.2848 19.7038 55.3032L22.0204 52.8965ZM22.0989 52L19 55.2142C25.3378 66.1304 40 69 40 69V64.3707C35.6155 63.0304 26.8731 59.5302 22.0989 52Z" fill="url(#paint5_linear_2232_9485)"/>
<path d="M39.4785 34.7947V36.7864C39.3698 36.6132 39.2254 36.4718 39.0573 36.3741C38.8893 36.2764 38.7025 36.2253 38.513 36.2251C38.4219 36.2246 38.331 36.2361 38.2423 36.2593C37.9819 36.325 37.7493 36.4878 37.5831 36.7209C37.4169 36.9539 37.327 37.2431 37.3283 37.5408V46.406C37.3269 46.7156 37.4073 47.0187 37.5594 47.2778C37.7115 47.5368 37.9286 47.7401 38.1837 47.8625C38.4399 47.9846 38.7037 48.1053 38.975 48.2247L39.4749 48.444V50.1178C32.7076 46.741 29.9258 41.5484 29.5161 40.7205V38.253L39.4749 34.7947H39.4785ZM36.7048 47.1202V38.3114C36.7045 37.9628 36.5804 37.6286 36.3595 37.382C36.1386 37.1354 35.839 36.9964 35.5264 36.9956C35.4353 36.9957 35.3445 37.0072 35.2557 37.0298C34.9954 37.0957 34.7631 37.2586 34.597 37.4916C34.431 37.7246 34.3413 38.0138 34.3425 38.3114V44.716C34.3404 44.9876 34.4015 45.2552 34.52 45.4926C34.6385 45.7299 34.8102 45.9289 35.0184 46.07C35.3188 46.2712 35.6256 46.4724 35.9306 46.6564L36.7021 47.1252L36.7048 47.1202ZM33.7795 45.214V39.0658C33.7795 38.7172 33.6554 38.3828 33.4345 38.1361C33.2135 37.8894 32.9138 37.7506 32.6011 37.7501C32.51 37.7496 32.4191 37.7611 32.3304 37.7843C32.07 37.85 31.8374 38.0128 31.6712 38.2458C31.505 38.4788 31.4151 38.7681 31.4164 39.0658V42.3119C31.4172 42.5346 31.4597 42.7546 31.5411 42.9579C31.6225 43.1613 31.7411 43.3435 31.8892 43.4928C32.205 43.8137 32.556 44.1437 32.9331 44.4726L33.7759 45.2089L33.7795 45.214ZM40 34.005L29 37.8275V40.8674C29 40.8674 31.8179 47.2359 40 51V34V34.005ZM39.1708 47.6855C38.9049 47.5688 38.6456 47.4501 38.393 47.3294C38.2316 47.252 38.0942 47.1234 37.9979 46.9595C37.9017 46.7957 37.8508 46.6039 37.8516 46.408V37.5408C37.8483 37.4422 37.8629 37.3438 37.8945 37.2516C37.9261 37.1594 37.9741 37.0752 38.0355 37.0041C38.097 36.933 38.1707 36.8765 38.2522 36.8379C38.3337 36.7992 38.4213 36.7793 38.5098 36.7793C38.5984 36.7793 38.686 36.7992 38.7675 36.8379C38.849 36.8765 38.9227 36.933 38.9841 37.0041C39.0456 37.0752 39.0935 37.1594 39.1251 37.2516C39.1568 37.3438 39.1714 37.4422 39.1681 37.5408V47.6835L39.1708 47.6855ZM36.1842 46.1424C35.8701 45.9513 35.5742 45.7602 35.2918 45.5701C35.161 45.4804 35.0531 45.3548 34.9785 45.2052C34.9039 45.0556 34.8651 44.8872 34.8659 44.716V38.3114C34.866 38.1453 34.9165 37.9842 35.0092 37.8544C35.102 37.7245 35.2315 37.6335 35.3766 37.5962C35.4257 37.5834 35.476 37.5769 35.5264 37.577C35.7008 37.5776 35.8678 37.6552 35.991 37.7928C36.1141 37.9305 36.1833 38.117 36.1833 38.3114V46.1404L36.1842 46.1424ZM33.2607 44.0119C32.879 43.6789 32.5388 43.358 32.2465 43.0603C32.1517 42.9656 32.0758 42.8498 32.0238 42.7204C31.9717 42.5909 31.9446 42.4507 31.9442 42.3089V39.0658C31.9409 38.9671 31.9555 38.8688 31.9871 38.7766C32.0188 38.6843 32.0667 38.6002 32.1282 38.5291C32.1896 38.458 32.2633 38.4015 32.3448 38.3628C32.4263 38.3242 32.5139 38.3043 32.6025 38.3043C32.691 38.3043 32.7786 38.3242 32.8601 38.3628C32.9416 38.4015 33.0153 38.458 33.0768 38.5291C33.1382 38.6002 33.1862 38.6843 33.2178 38.7766C33.2494 38.8688 33.264 38.9671 33.2607 39.0658V44.0119Z" fill="url(#paint6_linear_2232_9485)"/>
<path d="M40 31.3856H46.9005C47.0491 31.3855 47.1963 31.4133 47.3337 31.4673C47.4711 31.5214 47.596 31.6007 47.7011 31.7008C47.8063 31.8008 47.8897 31.9196 47.9466 32.0503C48.0036 32.1811 48.0329 32.3212 48.0329 32.4627C48.0329 32.6109 48.0008 32.7575 47.9386 32.8933C47.8764 33.0291 47.7854 33.1512 47.6714 33.252C47.5573 33.3529 47.4227 33.4302 47.2758 33.4792C47.1289 33.5282 46.973 33.5479 46.8178 33.5369L42.0118 33.2028L51.9972 36V34.5354C51.9972 28.7128 52.2839 24.4005 47.0045 21.4605C46.9341 21.4207 40 18 40 18V31.3856Z" fill="url(#paint7_linear_2232_9485)"/>
<path d="M40 63V52.3755C44.417 50.524 47.3676 48.0422 49.2283 46C49.8152 52.3424 57.1057 51.378 58 51.2345C53.1146 58.2211 44.6117 61.6061 40 63Z" fill="url(#paint8_linear_2232_9485)"/>
<path d="M58.7585 52L62 55.2144C55.3673 66.1313 40 69 40 69V64.3704C44.5982 63.0311 53.7579 59.5306 58.7585 52Z" fill="url(#paint9_linear_2232_9485)"/>
<path d="M40 34V51C48.9227 47.2308 52 40.8604 52 40.8604V37.8205L40 34ZM42.3402 46.4009C42.3411 46.5968 42.2856 46.7886 42.1806 46.9525C42.0756 47.1163 41.9257 47.245 41.7497 47.3224C41.4742 47.4431 41.1911 47.5618 40.9004 47.6785V37.5358C40.8969 37.4371 40.9128 37.3388 40.9473 37.2466C40.9817 37.1543 41.034 37.0702 41.101 36.9991C41.1681 36.928 41.2484 36.8715 41.3373 36.8328C41.4262 36.7942 41.5218 36.7743 41.6183 36.7743C41.7149 36.7743 41.8105 36.7942 41.8994 36.8328C41.9883 36.8715 42.0686 36.928 42.1356 36.9991C42.2026 37.0702 42.2549 37.1543 42.2894 37.2466C42.3239 37.3388 42.3398 37.4371 42.3362 37.5358L42.3402 46.4009ZM45.6034 44.711C45.6048 44.8826 45.5629 45.0516 45.4817 45.2017C45.4005 45.3519 45.2828 45.478 45.1399 45.568C44.8319 45.7582 44.5091 45.9493 44.1666 46.1404V38.3063C44.1666 38.1116 44.2423 37.9248 44.3771 37.7871C44.5118 37.6494 44.6945 37.572 44.885 37.572C45.0756 37.572 45.2583 37.6494 45.393 37.7871C45.5277 37.9248 45.6034 38.1116 45.6034 38.3063V44.711ZM48.7899 42.3119C48.7894 42.4537 48.7599 42.5937 48.7033 42.7232C48.6467 42.8526 48.5642 42.9684 48.4612 43.0633C48.1414 43.3651 47.7723 43.682 47.3541 44.0149V39.0658C47.3505 38.9671 47.3665 38.8688 47.4009 38.7766C47.4354 38.6843 47.4877 38.6002 47.5547 38.5291C47.6217 38.458 47.7021 38.4015 47.791 38.3628C47.8798 38.3242 47.9754 38.3043 48.072 38.3043C48.1686 38.3043 48.2642 38.3242 48.353 38.3628C48.4419 38.4015 48.5223 38.458 48.5893 38.5291C48.6563 38.6002 48.7086 38.6843 48.7431 38.7766C48.7775 38.8688 48.7935 38.9671 48.7899 39.0658V42.3119Z" fill="url(#paint10_linear_2232_9485)"/>
<path d="M32.8663 16.0141C31.2465 16.5376 30.5337 18.4919 31.3224 20.034L31.8154 21C31.8154 21 32.5755 19.8814 34.4999 19.2518L32.9146 16L32.8663 16.0141ZM47.1357 16.0141L47.0894 16L45.5041 19.2518C47.4285 19.8814 48.1886 21 48.1886 21L48.6815 20.034C49.4623 18.4919 48.7545 16.5376 47.1357 16.0141Z" fill="url(#paint11_linear_2232_9485)"/>
<path d="M23 66L14.1518 48.721L19.6216 50.9704L9.84818 35.3365L16.3425 37.6209L3.39124 11L9.23759 29.2776L1 26.6089L10.8049 44.0971L5.0834 42.406L23 66Z" fill="url(#paint12_linear_2232_9485)"/>
<path d="M22.6123 66L4.0179 41.9498L9.95055 43.6723L0 26.2388L8.48533 28.9395L2.6972 11.1743L3.12481 11L16.5042 38.0069L10.0133 35.7654L19.9529 51.3798L14.3203 49.1055L23 65.7519L22.6123 66ZM5.24888 42.7886L21.3962 63.6639L13.3315 48.2079L18.7887 50.4115L8.91194 34.8968L15.5902 37.203L4.11757 14.0533L9.201 29.6558L0.984789 27.0417L10.9144 44.4333L5.24888 42.7886Z" fill="url(#paint13_linear_2232_9485)"/>
<path d="M58 66L66.8482 48.721L61.3784 50.9704L71.1518 35.3365L64.6575 37.6209L77.6088 11L71.7624 29.2776L80 26.6089L70.1951 44.0971L75.9166 42.406L58 66Z" fill="url(#paint14_linear_2232_9485)"/>
<path d="M58.3707 66L58 65.7519L66.2978 49.1055L60.9133 51.3798L70.4166 35.7654L64.2107 38.0069L77.0066 11L77.4145 11.1743L71.8871 28.9425L80 26.2418L70.4862 43.6752L76.1489 41.9498L58.3707 66ZM67.2441 48.2079L59.5381 63.6639L74.971 42.7886L69.5532 44.4333L79.047 27.0417L71.1933 29.6558L76.0536 14.0533L65.0846 37.203L71.4697 34.8968L62.0264 50.4115L67.2441 48.2079Z" fill="url(#paint15_linear_2232_9485)"/>
<path d="M16 90L16.4541 86.7788C16.4317 86.7379 16.4066 86.699 16.3789 86.6624C16.3385 86.6037 16.2936 86.5367 16.2468 86.4615C16.199 86.386 16.1555 86.3072 16.1165 86.2256C16.0816 86.1555 16.0577 86.0792 16.0459 86H17.9239L17.7229 87.4329H19.4394L19.6404 86H21L20.4349 90H19.0771L19.278 88.5671H17.5615L17.3605 90H16Z" fill="#111111"/>
<path d="M23.1382 88.0126L22 86H23.3701L23.852 86.9519L24.5715 86H26L24.3512 88.0209L24.1044 90.0263C24.0792 90.0751 24.0468 90.1173 24.009 90.1508C23.9411 90.2202 23.8703 90.2849 23.7969 90.3447C23.7146 90.4152 23.6184 90.4898 23.5156 90.5676C23.4128 90.6454 23.3133 90.7169 23.2163 90.7802C23.1192 90.8434 23.0304 90.8963 22.9498 90.9378C22.8912 90.972 22.8283 90.9931 22.764 91L23.1382 88.0126Z" fill="#111111"/>
<path d="M27.4624 86.7796C27.4397 86.7388 27.4143 86.6999 27.3866 86.6631C27.3445 86.6043 27.2995 86.5373 27.2509 86.462C27.2021 86.3866 27.158 86.3077 27.1189 86.2258C27.0826 86.1559 27.0579 86.0794 27.0459 86H31.5727C31.6353 86.0026 31.695 86.0297 31.7412 86.0763C31.7988 86.1313 31.8479 86.1965 31.8863 86.2691C31.9279 86.3452 31.9594 86.4276 31.9799 86.5135C31.9986 86.5855 32.0044 86.6608 31.9967 86.7352L31.6316 89.2648C31.6184 89.3454 31.5904 89.4223 31.5493 89.4906C31.5014 89.5755 31.4472 89.6558 31.3873 89.7309C31.3293 89.8047 31.2626 89.8695 31.1889 89.9237C31.1343 89.9681 31.0694 89.9945 31.0017 90H27L27.4624 86.7796ZM30.5346 87.2663C30.5386 87.2344 30.5316 87.202 30.5149 87.1756C30.4971 87.1446 30.4775 87.1281 30.4559 87.1281H28.8038L28.5529 88.8812H30.2041C30.2182 88.8791 30.2317 88.8738 30.2438 88.8657C30.2559 88.8575 30.2663 88.8466 30.2744 88.8337C30.2956 88.8065 30.3124 88.7755 30.324 88.7419L30.5346 87.2663Z" fill="#111111"/>
<path d="M33.4859 86.7804C33.4622 86.7396 33.4357 86.7006 33.4067 86.6637C33.3627 86.6049 33.3158 86.5378 33.265 86.4624C33.214 86.387 33.1679 86.3081 33.1271 86.2261C33.0892 86.1561 33.0634 86.0795 33.0508 86H38L37.8338 87.1293H34.9007L34.8528 87.439H37.0692L36.8962 88.561H34.6797L34.6386 88.8707H37.5718L37.3997 90H33L33.4859 86.7804Z" fill="#111111"/>
<path d="M38.695 86H42.5918C42.6527 86.0026 42.7108 86.0298 42.7557 86.0767C42.811 86.1309 42.8578 86.1953 42.8942 86.2674C42.9325 86.343 42.9616 86.4242 42.9807 86.5088C42.9992 86.5811 43.0045 86.6569 42.9962 86.7316L42.8231 87.9751C42.8054 88.1157 42.7773 88.2543 42.7393 88.3896C42.709 88.4988 42.6573 88.5987 42.5881 88.6819C42.5151 88.7644 42.4258 88.8259 42.3276 88.8611C42.1987 88.9065 42.0645 88.9299 41.9296 88.9306H41.8649L42.7266 90.028H41.138L39.9939 88.5938L40.0969 87.8684H41.4022C41.4623 87.8684 41.4987 87.8249 41.5115 87.7368L41.5752 87.2684C41.5794 87.2382 41.5739 87.2073 41.5597 87.1813C41.5551 87.1689 41.5475 87.1582 41.5379 87.1504C41.5283 87.1425 41.5169 87.1378 41.5051 87.1368H39.891L39.4857 90.0269C39.4576 90.0759 39.4214 90.1181 39.3791 90.1513C39.304 90.2204 39.2259 90.2851 39.145 90.3451C39.0539 90.4155 38.9464 90.4902 38.8326 90.5679C38.7187 90.6456 38.6085 90.7171 38.5019 90.7803C38.3953 90.8435 38.296 90.8964 38.2059 90.9378C38.141 90.9721 38.0713 90.9932 38 91L38.695 86Z" fill="#111111"/>
<path d="M46.4343 89.52H44.7705L44.4899 90H43L44.8706 86.7932C44.8509 86.7562 44.8277 86.7217 44.8013 86.6902C44.7593 86.6346 44.7078 86.5666 44.662 86.4842C44.6162 86.4017 44.5685 86.3214 44.5198 86.2359C44.48 86.1643 44.4553 86.0836 44.4478 86H46.8113L48 90H46.5793L46.4343 89.52ZM45.4055 88.4002H46.1126L45.8816 87.5761L45.4055 88.4002Z" fill="#111111"/>
<path d="M53.577 86C53.6396 86.0026 53.6993 86.0296 53.7454 86.0762C53.8019 86.1301 53.8497 86.1942 53.8867 86.2658C53.9276 86.3407 53.9591 86.4215 53.9802 86.5058C53.9992 86.5776 54.0046 86.653 53.9961 86.7273L53.8839 87.5133C53.8746 87.5589 53.8554 87.6014 53.8277 87.6369C53.7937 87.6871 53.7562 87.7343 53.7155 87.778C53.6743 87.8244 53.6322 87.8676 53.5901 87.9088C53.5581 87.9416 53.524 87.9719 53.4882 87.9995C53.505 88.0191 53.5293 88.051 53.5602 88.0943C53.5911 88.1375 53.621 88.1839 53.6537 88.2323C53.6805 88.2779 53.7046 88.3254 53.7258 88.3745C53.744 88.4087 53.7521 88.4482 53.7492 88.4878L53.6369 89.2727C53.6237 89.3533 53.5957 89.4301 53.5546 89.4983C53.5071 89.5821 53.4529 89.661 53.3928 89.7342C53.3348 89.8059 53.2692 89.8695 53.1973 89.9238C53.1432 89.9691 53.078 89.9957 53.0102 90H49L49.4621 86.7788C49.4401 86.7376 49.4147 86.6986 49.3863 86.6624C49.3452 86.6037 49.2993 86.5367 49.2516 86.4615C49.2029 86.386 49.1585 86.3072 49.1188 86.2256C49.0832 86.1555 49.0588 86.0792 49.0468 86H53.577ZM52.2759 88.5671H50.9083L51.0738 87.4401H52.4274C52.4488 87.4321 52.4674 87.417 52.4807 87.3969C52.4972 87.3749 52.5105 87.3502 52.52 87.3237L52.5331 87.2578C52.5376 87.2276 52.5316 87.1967 52.5163 87.1713C52.5117 87.1588 52.504 87.148 52.494 87.1401C52.4841 87.1323 52.4723 87.1277 52.4601 87.127H50.8035L50.5519 88.8782H52.2094C52.2227 88.8765 52.2356 88.8716 52.247 88.864C52.2585 88.8563 52.2683 88.8461 52.2759 88.8339C52.2955 88.8092 52.309 88.7794 52.3151 88.7474L52.3282 88.6814C52.33 88.6589 52.3261 88.6362 52.3168 88.616C52.3076 88.5958 52.2934 88.5789 52.2759 88.5671Z" fill="#111111"/>
<path d="M58.116 89.52H56.1257L55.79 90H54L56.2376 86.7932C56.2149 86.7557 56.1871 86.7211 56.1548 86.6902C56.1044 86.6346 56.0496 86.5666 55.9892 86.4842C55.9288 86.4017 55.8773 86.3214 55.8191 86.2359C55.7711 86.1643 55.7413 86.0837 55.7319 86H58.5601L60 90H58.2905L58.116 89.52ZM56.892 88.4002H57.7367L57.4604 87.5761L56.892 88.4002Z" fill="#111111"/>
<path d="M60.4624 86.7796C60.4404 86.7383 60.415 86.6993 60.3866 86.6631C60.3445 86.6043 60.2995 86.5373 60.2509 86.462C60.2021 86.3866 60.158 86.3077 60.1189 86.2258C60.0834 86.1555 60.0588 86.0792 60.0459 86H64.5727C64.6353 86.0026 64.695 86.0297 64.7412 86.0763C64.7991 86.1311 64.8482 86.1963 64.8863 86.2691C64.9279 86.3452 64.9594 86.4276 64.9799 86.5135C64.9986 86.5855 65.0044 86.6608 64.9967 86.7352L64.6326 89.2648C64.619 89.3453 64.591 89.4221 64.5502 89.4906C64.5017 89.5753 64.4472 89.6556 64.3873 89.7309C64.3297 89.8046 64.2632 89.8695 64.1898 89.9237C64.1351 89.9678 64.0702 89.9942 64.0026 90H60L60.4624 86.7796ZM63.5355 87.2663C63.5391 87.2344 63.5321 87.2022 63.5159 87.1756C63.5104 87.1626 63.5021 87.1515 63.4916 87.1432C63.4811 87.1348 63.4688 87.1297 63.4559 87.1281H61.8038L61.5529 88.8812H63.2051C63.219 88.879 63.2323 88.8736 63.2443 88.8655C63.2562 88.8573 63.2664 88.8465 63.2743 88.8337C63.2962 88.807 63.3131 88.7758 63.324 88.7419L63.5355 87.2663Z" fill="#111111"/>
<path d="M19.9174 97L19.0279 95.5578H18.5517L18.3519 97H17L17.4506 93.7778C17.428 93.7374 17.4033 93.6985 17.3768 93.6613C17.3357 93.6037 17.2919 93.5367 17.2445 93.4615C17.1969 93.3863 17.1539 93.3074 17.1159 93.2256C17.0805 93.1557 17.0564 93.0794 17.0447 93H18.9121L18.7123 94.4422H19.1246L20.4127 93H22L20.222 94.9995L21.4399 97H19.9174Z" fill="#111111"/>
<path d="M25.6739 93H27L26.447 97.0263H25.1747L23.7278 95.05L23.4594 97.0263H23.4531C23.4247 97.0745 23.3893 97.1166 23.3484 97.1508C23.2876 97.2088 23.2115 97.2742 23.1212 97.3447C23.0308 97.4152 22.9297 97.4898 22.8178 97.5676C22.706 97.6454 22.5986 97.7169 22.4957 97.7802C22.4013 97.8388 22.3043 97.8914 22.2049 97.9378C22.1402 97.972 22.0709 97.993 22 98L22.6818 93H23.9515L25.4046 94.9764L25.6739 93Z" fill="#111111"/>
<path d="M28.0196 93H30L29.1795 97.0263C29.1381 97.0749 29.0856 97.117 29.0245 97.1508C28.9139 97.2199 28.7989 97.2847 28.6797 97.3447C28.5461 97.4152 28.3884 97.4898 28.2227 97.5676C28.057 97.6454 27.894 97.7169 27.7363 97.7802C27.5786 97.8434 27.4343 97.8963 27.302 97.9378C27.2068 97.9721 27.1046 97.9932 27 98L28.0196 93Z" fill="#111111"/>
<path d="M33.0321 97.0263H30.4205C30.3578 97.0237 30.298 96.9965 30.2518 96.9496C30.1949 96.8954 30.1467 96.8309 30.1093 96.7588C30.0702 96.6844 30.0403 96.6045 30.0203 96.5214C30.0013 96.4476 29.9955 96.3705 30.0034 96.2943L30.368 93.7321C30.3825 93.6526 30.4104 93.577 30.4504 93.5091C30.497 93.4227 30.5513 93.3418 30.6126 93.2675C30.6705 93.1957 30.7359 93.1316 30.8075 93.0767C30.8618 93.0314 30.927 93.0047 30.9949 93H35L34.8416 94.1344H31.797C31.783 94.1364 31.7694 94.1417 31.7573 94.15C31.7452 94.1582 31.7348 94.1691 31.7268 94.1821C31.7069 94.206 31.6925 94.2348 31.6846 94.2661L31.4662 95.7603C31.4619 95.7905 31.4676 95.8214 31.4822 95.8474C31.488 95.8604 31.4969 95.8715 31.508 95.8793C31.519 95.8872 31.5318 95.8916 31.545 95.892H33.1061C33.1195 95.8902 33.1323 95.8854 33.1438 95.8777C33.1553 95.87 33.1651 95.8596 33.1727 95.8474C33.1931 95.8231 33.2067 95.7929 33.212 95.7603L33.2383 95.5767H32.0351L32.2 94.4496H34.7938L34.419 97.0263C34.39 97.0749 34.3531 97.117 34.3103 97.1508C34.2328 97.2199 34.1521 97.2847 34.0685 97.3447C33.9748 97.4152 33.8643 97.4898 33.7481 97.5676C33.6319 97.6454 33.5175 97.7169 33.407 97.7802C33.2964 97.8434 33.1952 97.8963 33.1024 97.9378C33.0357 97.9722 32.964 97.9933 32.8906 98L33.0321 97.0263Z" fill="#111111"/>
<path d="M36 97L36.4532 93.7778C36.4308 93.7371 36.406 93.6982 36.3789 93.6613C36.3376 93.6037 36.2936 93.5367 36.2459 93.4615C36.198 93.3863 36.1548 93.3074 36.1165 93.2256C36.0814 93.1555 36.0571 93.0792 36.045 93H37.9229L37.7229 94.4329H39.4385L39.6394 93H41L40.4367 97H39.0761L39.2771 95.5671H37.5605L37.3596 97H36Z" fill="#111111"/>
<path d="M42.6756 94.1344H41L41.1696 93H46L45.8304 94.1344H44.1548L43.7139 97.0263C43.6831 97.0749 43.6439 97.117 43.5982 97.1508C43.5294 97.2088 43.4436 97.2742 43.3409 97.3447C43.2382 97.4152 43.1235 97.4898 42.9988 97.5676C42.8741 97.6454 42.7544 97.7169 42.6367 97.7802C42.5191 97.8434 42.4113 97.8963 42.3126 97.9378C42.2415 97.9721 42.1652 97.9932 42.0872 98L42.6756 94.1344Z" fill="#111111"/>
<path d="M47.2171 96.9237C47.1688 96.87 47.1281 96.8058 47.0968 96.734C47.0624 96.6602 47.0358 96.5808 47.0176 96.4978C47.0008 96.4247 46.9959 96.3477 47.0034 96.272L47.0873 95.5945H48.2601L48.238 95.7481C48.2342 95.7783 48.2393 95.8092 48.2522 95.8348C48.2561 95.8472 48.2626 95.858 48.271 95.8659C48.2794 95.8737 48.2894 95.8783 48.2997 95.8791H49.4868L47.3967 94.951C47.3503 94.9095 47.3081 94.8606 47.2709 94.8056C47.233 94.7506 47.2088 94.6819 47.2012 94.6087L47.3073 93.728C47.3199 93.6492 47.3435 93.574 47.3769 93.5063C47.4165 93.4206 47.4624 93.3402 47.5138 93.266C47.5631 93.1945 47.6186 93.1309 47.6792 93.0763C47.7251 93.0312 47.7801 93.0046 47.8375 93H50.6422C50.6951 93.0026 50.7456 93.0297 50.7846 93.0763C50.8324 93.1303 50.8728 93.1944 50.9041 93.266C50.9392 93.3407 50.9659 93.4217 50.9833 93.5063C50.9993 93.5782 51.0039 93.6537 50.9967 93.728L50.9176 94.4045H49.7503L49.7669 94.2519C49.7705 94.2218 49.7658 94.1911 49.7534 94.1652C49.7494 94.1529 49.7428 94.1422 49.7345 94.1344C49.7261 94.1266 49.7162 94.1219 49.706 94.1209H48.5189L50.6081 95.049C50.6564 95.0928 50.7005 95.1441 50.7395 95.2016C50.7751 95.2549 50.7975 95.3211 50.8036 95.3913L50.6976 96.272C50.6864 96.3526 50.6627 96.4295 50.6279 96.4978C50.588 96.5819 50.5422 96.6609 50.491 96.734C50.4421 96.8054 50.3868 96.8691 50.3264 96.9237C50.2805 96.9688 50.2255 96.9954 50.1681 97H47.3595C47.3066 96.9976 47.256 96.9705 47.2171 96.9237Z" fill="#111111"/>
<path d="M55.5498 97.0263C55.5196 97.0745 55.482 97.1166 55.4386 97.1508C55.3602 97.2202 55.2783 97.2849 55.1935 97.3447C55.0984 97.4152 54.9873 97.4898 54.8685 97.5676C54.7497 97.6454 54.6347 97.7169 54.5236 97.7802C54.4124 97.8434 54.3088 97.8963 54.2147 97.9378C54.1471 97.9721 54.0744 97.9932 54 98L54.7241 93H59L58.8394 94.1344H55.9888L55.9413 94.4455H58.0944L57.9272 95.5726H55.7712L55.5631 97.0243L55.5498 97.0263Z" fill="#111111"/>
<path d="M62.9853 97H59.4329C59.3689 96.9979 59.3079 96.9708 59.261 96.9238C59.2028 96.8702 59.1537 96.806 59.1159 96.7342C59.0744 96.6606 59.0423 96.5812 59.0204 96.4983C59.0008 96.4251 58.9952 96.3483 59.0041 96.2727L59.3756 93.7273C59.3904 93.6484 59.4189 93.5732 59.4596 93.5058C59.5074 93.4202 59.5627 93.3398 59.6248 93.2658C59.6841 93.1946 59.7508 93.131 59.8235 93.0762C59.879 93.0315 59.9453 93.005 60.0145 93H63.5669C63.6308 93.0026 63.6917 93.0296 63.7388 93.0762C63.797 93.1298 63.8462 93.194 63.884 93.2658C63.926 93.3406 63.9581 93.4214 63.9795 93.5058C63.9986 93.5777 64.0044 93.6529 63.9966 93.7273L63.882 94.5339H62.4658L62.5069 94.2578C62.5105 94.2277 62.5044 94.1971 62.4897 94.1713C62.4849 94.1588 62.477 94.1481 62.4669 94.1403C62.4568 94.1325 62.4448 94.1279 62.4324 94.127H60.8348C60.8206 94.129 60.8069 94.1343 60.7947 94.1425C60.7825 94.1506 60.7721 94.1615 60.7641 94.1744C60.7433 94.1978 60.7282 94.2265 60.7202 94.2578L60.4977 95.7422C60.4933 95.7722 60.4991 95.8029 60.5139 95.8287C60.5199 95.8419 60.5291 95.8529 60.5406 95.8608C60.5521 95.8686 60.5653 95.8728 60.5788 95.873H62.1765C62.1899 95.8712 62.2028 95.8663 62.2143 95.8586C62.2259 95.851 62.2357 95.8408 62.2433 95.8287C62.264 95.8044 62.2782 95.7745 62.2844 95.7422L62.3245 95.4651H63.7407L63.6252 96.2727C63.6121 96.3535 63.5835 96.4303 63.5411 96.4983C63.493 96.5823 63.4376 96.6613 63.3759 96.7342C63.3169 96.8056 63.2502 96.8693 63.1773 96.9238C63.1217 96.969 63.0549 96.9956 62.9853 97Z" fill="#111111"/>
<defs>
<linearGradient id="paint0_linear_2232_9485" x1="14" y1="39.4995" x2="66" y2="39.4995" gradientUnits="userSpaceOnUse">
<stop offset="0.01" stop-color="#424343"/>
<stop offset="0.29" stop-color="#182D25"/>
<stop offset="0.43" stop-color="#0E1A15"/>
<stop offset="0.6" stop-color="#040706"/>
<stop offset="0.73" stop-color="#010101"/>
<stop offset="0.86" stop-color="#010101"/>
<stop offset="1" stop-color="#181818"/>
</linearGradient>
<linearGradient id="paint1_linear_2232_9485" x1="40.0005" y1="74.1163" x2="40.0005" y2="44.5522" gradientUnits="userSpaceOnUse">
<stop stop-color="#BB9531"/>
<stop offset="0.37" stop-color="#F7EF8A"/>
<stop offset="0.63" stop-color="#DDC05B"/>
<stop offset="0.77" stop-color="#D1AB46"/>
<stop offset="0.79" stop-color="#D4AE49"/>
<stop offset="0.92" stop-color="#E5C05F"/>
<stop offset="1" stop-color="#EBC767"/>
</linearGradient>
<linearGradient id="paint2_linear_2232_9485" x1="15.3064" y1="11.9578" x2="67.0901" y2="61.8644" gradientUnits="userSpaceOnUse">
<stop stop-color="#BB9531"/>
<stop offset="0.37" stop-color="#F7EF8A"/>
<stop offset="0.63" stop-color="#DDC05B"/>
<stop offset="0.77" stop-color="#D1AB46"/>
<stop offset="0.79" stop-color="#D4AE49"/>
<stop offset="0.92" stop-color="#E5C05F"/>
<stop offset="1" stop-color="#EBC767"/>
</linearGradient>
<linearGradient id="paint3_linear_2232_9485" x1="28.996" y1="26.9995" x2="39.9953" y2="26.9995" gradientUnits="userSpaceOnUse">
<stop stop-color="#BB9531"/>
<stop offset="0.37" stop-color="#F7EF8A"/>
<stop offset="0.63" stop-color="#DDC05B"/>
<stop offset="0.77" stop-color="#D1AB46"/>
<stop offset="0.79" stop-color="#D4AE49"/>
<stop offset="0.92" stop-color="#E5C05F"/>
<stop offset="1" stop-color="#EBC767"/>
</linearGradient>
<linearGradient id="paint4_linear_2232_9485" x1="23" y1="54.5" x2="39.9991" y2="54.5" gradientUnits="userSpaceOnUse">
<stop stop-color="#BB9531"/>
<stop offset="0.37" stop-color="#F7EF8A"/>
<stop offset="0.63" stop-color="#DDC05B"/>
<stop offset="0.77" stop-color="#D1AB46"/>
<stop offset="0.79" stop-color="#D4AE49"/>
<stop offset="0.92" stop-color="#E5C05F"/>
<stop offset="1" stop-color="#EBC767"/>
</linearGradient>
<linearGradient id="paint5_linear_2232_9485" x1="19.0038" y1="60.4995" x2="39.9991" y2="60.4995" gradientUnits="userSpaceOnUse">
<stop stop-color="#BB9531"/>
<stop offset="0.37" stop-color="#F7EF8A"/>
<stop offset="0.63" stop-color="#DDC05B"/>
<stop offset="0.77" stop-color="#D1AB46"/>
<stop offset="0.79" stop-color="#D4AE49"/>
<stop offset="0.92" stop-color="#E5C05F"/>
<stop offset="1" stop-color="#EBC767"/>
</linearGradient>
<linearGradient id="paint6_linear_2232_9485" x1="28.9991" y1="42.503" x2="39.9991" y2="42.503" gradientUnits="userSpaceOnUse">
<stop stop-color="#BB9531"/>
<stop offset="0.37" stop-color="#F7EF8A"/>
<stop offset="0.63" stop-color="#DDC05B"/>
<stop offset="0.77" stop-color="#D1AB46"/>
<stop offset="0.79" stop-color="#D4AE49"/>
<stop offset="0.92" stop-color="#E5C05F"/>
<stop offset="1" stop-color="#EBC767"/>
</linearGradient>
<linearGradient id="paint7_linear_2232_9485" x1="40" y1="26.9995" x2="51.9993" y2="26.9995" gradientUnits="userSpaceOnUse">
<stop stop-color="#BB9531"/>
<stop offset="0.37" stop-color="#F7EF8A"/>
<stop offset="0.63" stop-color="#DDC05B"/>
<stop offset="0.77" stop-color="#D1AB46"/>
<stop offset="0.79" stop-color="#D4AE49"/>
<stop offset="0.92" stop-color="#E5C05F"/>
<stop offset="1" stop-color="#EBC767"/>
</linearGradient>
<linearGradient id="paint8_linear_2232_9485" x1="40" y1="54.5" x2="58" y2="54.5" gradientUnits="userSpaceOnUse">
<stop stop-color="#BB9531"/>
<stop offset="0.37" stop-color="#F7EF8A"/>
<stop offset="0.63" stop-color="#DDC05B"/>
<stop offset="0.77" stop-color="#D1AB46"/>
<stop offset="0.79" stop-color="#D4AE49"/>
<stop offset="0.92" stop-color="#E5C05F"/>
<stop offset="1" stop-color="#EBC767"/>
</linearGradient>
<linearGradient id="paint9_linear_2232_9485" x1="40.0059" y1="60.5" x2="62.001" y2="60.5" gradientUnits="userSpaceOnUse">
<stop stop-color="#BB9531"/>
<stop offset="0.37" stop-color="#F7EF8A"/>
<stop offset="0.63" stop-color="#DDC05B"/>
<stop offset="0.77" stop-color="#D1AB46"/>
<stop offset="0.79" stop-color="#D4AE49"/>
<stop offset="0.92" stop-color="#E5C05F"/>
<stop offset="1" stop-color="#EBC767"/>
</linearGradient>
<linearGradient id="paint10_linear_2232_9485" x1="40" y1="42.498" x2="51.997" y2="42.498" gradientUnits="userSpaceOnUse">
<stop stop-color="#BB9531"/>
<stop offset="0.37" stop-color="#F7EF8A"/>
<stop offset="0.63" stop-color="#DDC05B"/>
<stop offset="0.77" stop-color="#D1AB46"/>
<stop offset="0.79" stop-color="#D4AE49"/>
<stop offset="0.92" stop-color="#E5C05F"/>
<stop offset="1" stop-color="#EBC767"/>
</linearGradient>
<linearGradient id="paint11_linear_2232_9485" x1="31" y1="18.5" x2="49.001" y2="18.5" gradientUnits="userSpaceOnUse">
<stop stop-color="#BB9531"/>
<stop offset="0.37" stop-color="#F7EF8A"/>
<stop offset="0.63" stop-color="#DDC05B"/>
<stop offset="0.77" stop-color="#D1AB46"/>
<stop offset="0.79" stop-color="#D4AE49"/>
<stop offset="0.92" stop-color="#E5C05F"/>
<stop offset="1" stop-color="#EBC767"/>
</linearGradient>
<linearGradient id="paint12_linear_2232_9485" x1="1" y1="38.5005" x2="23" y2="38.5005" gradientUnits="userSpaceOnUse">
<stop offset="0.01" stop-color="#424343"/>
<stop offset="0.29" stop-color="#182D25"/>
<stop offset="0.43" stop-color="#0E1A15"/>
<stop offset="0.6" stop-color="#040706"/>
<stop offset="0.73" stop-color="#010101"/>
<stop offset="0.86" stop-color="#010101"/>
<stop offset="1" stop-color="#181818"/>
</linearGradient>
<linearGradient id="paint13_linear_2232_9485" x1="-0.00099675" y1="38.5" x2="23" y2="38.5" gradientUnits="userSpaceOnUse">
<stop stop-color="#BB9531"/>
<stop offset="0.37" stop-color="#F7EF8A"/>
<stop offset="0.63" stop-color="#DDC05B"/>
<stop offset="0.77" stop-color="#D1AB46"/>
<stop offset="0.79" stop-color="#D4AE49"/>
<stop offset="0.92" stop-color="#E5C05F"/>
<stop offset="1" stop-color="#EBC767"/>
</linearGradient>
<linearGradient id="paint14_linear_2232_9485" x1="58" y1="38.5005" x2="80" y2="38.5005" gradientUnits="userSpaceOnUse">
<stop offset="0.01" stop-color="#424343"/>
<stop offset="0.29" stop-color="#182D25"/>
<stop offset="0.43" stop-color="#0E1A15"/>
<stop offset="0.6" stop-color="#040706"/>
<stop offset="0.73" stop-color="#010101"/>
<stop offset="0.86" stop-color="#010101"/>
<stop offset="1" stop-color="#181818"/>
</linearGradient>
<linearGradient id="paint15_linear_2232_9485" x1="58" y1="38.5" x2="79.9914" y2="38.5" gradientUnits="userSpaceOnUse">
<stop stop-color="#BB9531"/>
<stop offset="0.37" stop-color="#F7EF8A"/>
<stop offset="0.63" stop-color="#DDC05B"/>
<stop offset="0.77" stop-color="#D1AB46"/>
<stop offset="0.79" stop-color="#D4AE49"/>
<stop offset="0.92" stop-color="#E5C05F"/>
<stop offset="1" stop-color="#EBC767"/>
</linearGradient>
</defs>
</svg>
