<svg width="114" height="113" viewBox="0 0 114 113" fill="none" xmlns="http://www.w3.org/2000/svg">
<path d="M17.1607 58.1058C17.8078 58.0431 19.6212 57.2688 19.6212 57.2688L15.6101 54.8372L20.1342 56.0928C20.1342 56.0928 19.4734 54.2482 19.0786 53.7355C16.6435 50.5631 10.8738 52.6829 10.9118 52.8022C10.8031 52.8587 13.158 58.493 17.1607 58.1058Z" fill="url(#paint0_linear_2162_12915)" stroke="url(#paint1_linear_2162_12915)" stroke-width="0.160005" stroke-miterlimit="10"/>
<path d="M20.3043 64.2972C20.9376 64.1581 22.6465 63.1746 22.6465 63.1746L18.3747 61.2347L23.0191 61.9473C23.0191 61.9473 22.1409 60.1947 21.6881 59.7322C18.8866 56.8717 13.4157 59.66 13.4664 59.7741C13.3598 59.8411 16.3776 65.1562 20.3043 64.2972Z" fill="url(#paint2_linear_2162_12915)" stroke="url(#paint3_linear_2162_12915)" stroke-width="0.160005" stroke-miterlimit="10"/>
<path d="M25.4458 69.584C26.039 69.3214 27.5105 68.0146 27.5105 68.0146L22.9315 66.9683L27.6245 66.736C27.6245 66.736 26.4074 65.1958 25.8691 64.8338C22.543 62.5927 17.7529 66.42 17.8258 66.5204C17.7339 66.6104 21.7746 71.212 25.4458 69.584Z" fill="url(#paint4_linear_2162_12915)" stroke="url(#paint5_linear_2162_12915)" stroke-width="0.160005" stroke-miterlimit="10"/>
<path d="M15.3735 51.4776C16.0238 51.4556 17.8826 50.7975 17.8826 50.7975L14.0393 48.1137L18.4727 49.6539C18.4727 49.6539 17.9312 47.7705 17.5712 47.2348C15.3429 43.916 9.44977 45.6654 9.47933 45.7909C9.36427 45.838 11.354 51.6083 15.3735 51.4776Z" fill="url(#paint6_linear_2162_12915)" stroke="url(#paint7_linear_2162_12915)" stroke-width="0.160005" stroke-miterlimit="10"/>
<path d="M13.7963 44.9017C14.4455 44.9373 16.356 44.4424 16.356 44.4424L12.7671 41.4396L17.0485 43.3585C17.0485 43.3585 16.678 41.4333 16.3613 40.8714C14.437 37.3705 8.41087 38.6083 8.42987 38.7276C8.30954 38.7642 9.77993 44.6862 13.7963 44.9017Z" fill="url(#paint8_linear_2162_12915)" stroke="url(#paint9_linear_2162_12915)" stroke-width="0.160005" stroke-miterlimit="10"/>
<path d="M30.8152 69.114C27.0501 67.7098 23.3018 72.5458 23.3968 72.6274C23.3292 72.732 28.3463 76.2643 31.5246 73.8265C32.0397 73.4331 33.1596 71.8218 33.1596 71.8218L28.4613 71.873L32.9675 70.5547C32.9675 70.5547 31.4232 69.34 30.8152 69.114Z" fill="url(#paint10_linear_2162_12915)" stroke="url(#paint11_linear_2162_12915)" stroke-width="0.160005" stroke-miterlimit="10"/>
<path d="M18.3968 22.4821L18.3166 27.1392C18.3166 27.1392 19.9506 26.0385 20.3496 25.53C22.827 22.3911 19.294 17.3961 19.1885 17.462C19.1072 17.3668 14.2052 21.0529 15.5996 24.7934C15.8244 25.3982 17.0404 26.9404 17.0404 26.9404L18.3968 22.4821Z" fill="url(#paint12_linear_2162_12915)" stroke="url(#paint13_linear_2162_12915)" stroke-width="0.160005" stroke-miterlimit="10"/>
<path d="M15.6512 31.5982L13.2593 27.5888L16.6635 30.7999C16.6635 30.7999 16.9506 28.8642 16.845 28.2281C16.1906 24.294 10.0895 23.4905 10.0684 23.6129C9.94277 23.6129 9.36222 29.6814 13.082 31.1954C13.6837 31.4381 15.6512 31.5982 15.6512 31.5982Z" fill="url(#paint14_linear_2162_12915)" stroke="url(#paint15_linear_2162_12915)" stroke-width="0.160005" stroke-miterlimit="10"/>
<path d="M18.0052 28.4091C17.7044 28.9803 17.3719 30.9097 17.3719 30.9097L21.6142 28.9071L18.0833 31.9801C18.0833 31.9801 18.5826 32.0983 19.1568 32.2082C18.1446 32.7156 17.2653 33.4826 16.841 34.6387C16.6193 35.2456 16.5422 37.2011 16.5422 37.2011L20.4784 34.6649L17.3835 38.17C17.3835 38.17 18.077 38.2401 18.7737 38.2746C18.1403 38.9097 17.658 39.6965 17.5155 40.6685C17.4226 41.3068 17.7477 43.2372 17.7477 43.2372L21.0906 39.9581L18.7779 44.0114C18.7779 44.0114 19.6287 43.9267 20.3813 43.7959C19.4788 44.5911 18.779 45.6206 18.7051 46.9296C18.6692 47.573 19.1642 49.4679 19.1642 49.4679L22.2011 45.9105L20.2567 50.1532C20.2567 50.1532 21.3123 49.9534 22.1018 49.7242C21.0463 50.6282 20.1839 51.8346 20.1955 53.3611C20.2008 54.0057 20.8162 55.866 20.8162 55.866L23.6197 52.1276L21.9498 56.4812C21.9498 56.4812 22.9642 56.2228 23.7285 55.9497C23.035 56.8725 22.5842 57.9764 22.7457 59.2267C22.8281 59.866 23.663 61.6394 23.663 61.6394L25.9958 57.5965L24.8632 62.1165C24.8632 62.1165 26.1985 61.6007 26.9057 61.1969C26.5637 62.1166 26.4507 63.1147 26.8001 64.1265C27.0112 64.7365 28.1913 66.3059 28.1913 66.3059L29.6512 61.879L29.4633 66.533C29.4633 66.533 30.3003 65.9941 30.9337 65.5034C30.8535 66.421 31.0044 67.3543 31.5522 68.206C31.9027 68.7501 33.4206 70.0004 33.4206 70.0004L33.7911 65.3569L34.7115 69.9251C34.7115 69.9251 36.07 68.5052 36.3529 67.9245C38.0998 64.3337 33.5778 60.1987 33.4871 60.2866C33.4533 60.2615 32.9772 60.7773 32.4431 61.5913C32.212 59.1419 30.6318 56.8369 30.559 56.883C30.5252 56.8422 29.6258 57.4543 28.6906 58.4524C29.2342 55.8524 27.9876 52.8516 27.9011 52.8819C27.8778 52.838 26.9785 53.2105 25.9367 53.9167C27.2033 51.3292 26.1773 47.6525 26.0802 47.6735C26.0623 47.6264 25.0965 47.8995 23.9543 48.4948C25.9768 46.0549 25.049 41.606 24.9413 41.6217C24.9286 41.5778 24.0895 41.7514 23.0307 42.1919C24.7703 39.8325 24.3027 35.9141 24.2013 35.9225C24.194 35.8859 23.6377 35.9455 22.8534 36.1496C24.2087 34.102 24.4367 31.3523 24.3544 31.3366C24.3544 31.3031 23.8826 31.256 23.1838 31.2801C25.2442 29.4805 25.9821 26.1365 25.8913 26.1114C25.9092 25.99 19.8609 24.8726 18.0052 28.4091Z" fill="url(#paint16_linear_2162_12915)" stroke="url(#paint17_linear_2162_12915)" stroke-width="0.160005" stroke-miterlimit="10"/>
<path d="M12.3273 38.039C12.9606 38.2033 14.9271 38.1039 14.9271 38.1039L12.0265 34.4418L15.8265 37.1831C15.8265 37.1831 15.856 35.2266 15.6671 34.6103C14.4965 30.7934 8.33942 30.7892 8.33942 30.9127C8.2117 30.9242 8.43864 37.0189 12.3273 38.039Z" fill="url(#paint18_linear_2162_12915)" stroke="url(#paint19_linear_2162_12915)" stroke-width="0.160005" stroke-miterlimit="10"/>
<path d="M96.84 58.1058C96.1929 58.0431 94.3795 57.2688 94.3795 57.2688L98.3906 54.8372L93.8665 56.0928C93.8665 56.0928 94.5272 54.2482 94.922 53.7355C97.3572 50.5631 103.127 52.6829 103.089 52.8022C103.198 52.8587 100.843 58.493 96.84 58.1058Z" fill="url(#paint20_linear_2162_12915)" stroke="url(#paint21_linear_2162_12915)" stroke-width="0.160005" stroke-miterlimit="10"/>
<path d="M93.6968 64.2972C93.0635 64.1581 91.3545 63.1746 91.3545 63.1746L95.6264 61.2347L90.9819 61.9473C90.9819 61.9473 91.8602 60.1947 92.313 59.7322C95.1144 56.8717 100.585 59.66 100.535 59.7741C100.641 59.8411 97.6235 65.1562 93.6968 64.2972Z" fill="url(#paint22_linear_2162_12915)" stroke="url(#paint23_linear_2162_12915)" stroke-width="0.160005" stroke-miterlimit="10"/>
<path d="M88.5551 69.584C87.9619 69.3214 86.4905 68.0146 86.4905 68.0146L91.0695 66.9683L86.3765 66.736C86.3765 66.736 87.5935 65.1958 88.1319 64.8338C91.4579 62.5927 96.248 66.42 96.1752 66.5204C96.267 66.6104 92.2264 71.212 88.5551 69.584Z" fill="url(#paint24_linear_2162_12915)" stroke="url(#paint25_linear_2162_12915)" stroke-width="0.160005" stroke-miterlimit="10"/>
<path d="M98.6274 51.4776C97.9772 51.4556 96.1184 50.7975 96.1184 50.7975L99.9617 48.1137L95.5283 49.6539C95.5283 49.6539 96.0698 47.7705 96.4298 47.2348C98.658 43.916 104.551 45.6654 104.522 45.7909C104.637 45.838 102.647 51.6083 98.6274 51.4776Z" fill="url(#paint26_linear_2162_12915)" stroke="url(#paint27_linear_2162_12915)" stroke-width="0.160005" stroke-miterlimit="10"/>
<path d="M100.204 44.9016C99.5552 44.9372 97.6447 44.4423 97.6447 44.4423L101.234 41.4394L96.9543 43.3583C96.9543 43.3583 97.3227 41.4331 97.6394 40.8713C99.5647 37.3704 105.591 38.605 105.572 38.7274C105.691 38.764 104.221 44.6861 100.204 44.9016Z" fill="url(#paint28_linear_2162_12915)" stroke="url(#paint29_linear_2162_12915)" stroke-width="0.160005" stroke-miterlimit="10"/>
<path d="M83.1852 69.114C86.9504 67.7098 90.6987 72.5458 90.6037 72.6274C90.6712 72.732 85.6542 76.2643 82.4759 73.8265C81.9608 73.4331 80.8408 71.8218 80.8408 71.8218L85.5391 71.873L81.0329 70.5547C81.0329 70.5547 82.5772 69.34 83.1852 69.114Z" fill="url(#paint30_linear_2162_12915)" stroke="url(#paint31_linear_2162_12915)" stroke-width="0.160005" stroke-miterlimit="10"/>
<path d="M95.6041 22.4821L95.6843 27.1392C95.6843 27.1392 94.0503 26.0385 93.6513 25.53C91.174 22.3911 94.7069 17.3961 94.8124 17.462C94.8937 17.3668 99.7957 21.0529 98.4013 24.7934C98.1765 25.3982 96.9605 26.9404 96.9605 26.9404L95.6041 22.4821Z" fill="url(#paint32_linear_2162_12915)" stroke="url(#paint33_linear_2162_12915)" stroke-width="0.160005" stroke-miterlimit="10"/>
<path d="M98.3497 31.5982L100.742 27.5888L97.3374 30.7999C97.3374 30.7999 97.0503 28.8642 97.1559 28.2281C97.8103 24.294 103.911 23.4905 103.933 23.6129C104.058 23.6129 104.639 29.6814 100.919 31.1954C100.317 31.4381 98.3497 31.5982 98.3497 31.5982Z" fill="url(#paint34_linear_2162_12915)" stroke="url(#paint35_linear_2162_12915)" stroke-width="0.160005" stroke-miterlimit="10"/>
<path d="M95.9957 28.4092C96.2965 28.9805 96.629 30.9099 96.629 30.9099L92.3867 28.9073L95.9176 31.9802C95.9176 31.9802 95.4183 32.0985 94.8441 32.2083C95.8564 32.7158 96.7356 33.4827 97.16 34.6389C97.3816 35.2457 97.4587 37.2013 97.4587 37.2013L93.5225 34.665L96.6174 38.1701C96.6174 38.1701 95.9239 38.2402 95.2272 38.2748C95.8606 38.9099 96.343 39.6967 96.4855 40.6687C96.5784 41.3069 96.2532 43.2373 96.2532 43.2373L92.9103 39.9583L95.223 44.0116C95.223 44.0116 94.3722 43.9269 93.6196 43.7961C94.5221 44.5913 95.222 45.6208 95.2958 46.9297C95.3317 47.5732 94.8367 49.468 94.8367 49.468L91.7998 45.9106L93.7442 50.1502C93.7442 50.1502 92.6833 49.9504 91.8991 49.7212C92.9546 50.6252 93.817 51.8316 93.8054 53.3582C93.8054 54.0027 93.1847 55.863 93.1847 55.863L90.3812 52.1246L92.0511 56.4782C92.0511 56.4782 91.0367 56.2198 90.2725 55.9467C90.966 56.8695 91.4167 57.9734 91.2552 59.2237C91.1729 59.863 90.3379 61.6365 90.3379 61.6365L88.0051 57.5936L89.1377 62.1136C89.1377 62.1136 87.8025 61.5978 87.0952 61.1939C87.4372 62.1136 87.5502 63.1117 87.2008 64.1235C86.9897 64.7335 85.8096 66.303 85.8096 66.303L84.3497 61.8761L84.5376 66.53C84.5376 66.53 83.7006 65.9912 83.0672 65.5004C83.1475 66.418 82.9965 67.3513 82.4487 68.203C82.0982 68.7471 80.5803 69.9974 80.5803 69.9974L80.2098 65.354L79.2894 69.9221C79.2894 69.9221 77.9309 68.5023 77.648 67.9216C75.9011 64.3307 80.4231 60.1957 80.5138 60.2836C80.5476 60.2585 81.0237 60.7743 81.5578 61.5883C81.789 59.139 83.3691 56.834 83.442 56.88C83.4757 56.8392 84.3751 57.4513 85.3103 58.4495C84.7667 55.8494 86.0133 52.8486 86.0998 52.879C86.1231 52.835 87.0224 53.2075 88.0642 53.9138C86.8028 51.3263 87.8236 47.6496 87.9207 47.6705C87.9386 47.6234 88.9045 47.8965 90.0466 48.4918C88.0241 46.0519 88.952 41.603 89.0596 41.6187C89.0723 41.5748 89.9115 41.7485 90.9702 42.189C89.2306 39.8296 89.7035 35.9112 89.7996 35.9196C89.807 35.8829 90.3632 35.9426 91.1475 36.1466C89.7922 34.099 89.5642 31.3493 89.6465 31.3336C89.6465 31.3002 90.1183 31.2531 90.8171 31.2771C88.7567 29.4775 88.0188 26.1335 88.1096 26.1084C88.0917 25.9902 94.14 24.8728 95.9957 28.4092Z" fill="url(#paint36_linear_2162_12915)" stroke="url(#paint37_linear_2162_12915)" stroke-width="0.160005" stroke-miterlimit="10"/>
<path d="M101.674 38.0391C101.04 38.2034 99.0739 38.104 99.0739 38.104L101.975 34.442L98.1745 37.1832C98.1745 37.1832 98.145 35.2267 98.3339 34.6104C99.5024 30.7956 105.655 30.7914 105.663 30.9149C105.789 30.9243 105.562 37.019 101.674 38.0391Z" fill="url(#paint38_linear_2162_12915)" stroke="url(#paint39_linear_2162_12915)" stroke-width="0.160005" stroke-miterlimit="10"/>
<path d="M29.197 16.6625V73.6856L56.9581 86.8689L84.3181 73.4868C84.4525 54.6779 84.5862 35.8693 84.7192 17.0611L57.0584 7.92065L29.197 16.6625Z" fill="url(#paint40_linear_2162_12915)"/>
<path d="M56.9645 87.9288L28.2344 74.2872V15.9635L57.0669 6.91724L85.6872 16.3737L85.2766 74.0779L56.9645 87.9288ZM30.1597 73.0829L56.9529 85.8069L83.3597 72.8904L83.7524 17.7506L57.0468 8.92822L30.1597 17.3614V73.0829Z" fill="url(#paint41_linear_2162_12915)"/>
<path d="M56.9615 85.0453L30.9167 72.4343V18.2623L57.0544 9.90137L57.2054 9.95264L83.0021 18.6369L82.6284 72.2397L56.9615 85.0453ZM31.8784 71.839L56.9541 83.976L81.67 71.6506L82.0341 19.3201L57.047 10.9069L31.8784 18.9571V71.839Z" fill="url(#paint42_linear_2162_12915)"/>
<path d="M70.6233 55.7079L68.357 53.0859L61.2626 61.8601L61.4336 65.5703L70.6233 55.7079ZM60.2957 49.4657L61.1011 61.1685L68.357 52.344L67.7237 47.9674L69.4864 46.3446L69.1096 39.1032L56.9581 34.2201L44.8044 39.1032L44.4265 46.3446L46.1893 47.9674L45.556 53.0859L43.2886 55.7079L52.4825 65.5703L53.6225 49.4657L48.7089 46.9682L48.5833 42.8489L55.1277 46.8301L54.2558 53.9595L56.9581 56.2907L59.6666 53.9553L58.7842 46.8259L65.3392 42.8489L65.2136 46.9682L60.2957 49.4657ZM52.0624 64.4183L43.9346 55.6953L45.5517 53.8256L52.1743 62.017L52.0624 64.4183ZM56.482 55.259L54.7541 53.768L55.6048 46.8866C55.6159 46.7968 55.6006 46.7058 55.561 46.6243C55.5213 46.5429 55.4588 46.4745 55.3811 46.4272L48.8366 42.4461C48.7634 42.4013 48.6792 42.377 48.5931 42.376C48.507 42.3749 48.4223 42.397 48.3479 42.44C48.2735 42.483 48.2124 42.5452 48.1709 42.62C48.1294 42.6948 48.1092 42.7793 48.1125 42.8646L48.2328 46.9786C48.2355 47.063 48.2608 47.1452 48.3063 47.2166C48.3518 47.288 48.4157 47.346 48.4915 47.3846L53.1232 49.7388L52.302 61.4196L45.8631 53.4563L45.9212 53.3893C45.9823 53.3185 46.0212 53.2316 46.0331 53.1392L46.6664 48.0207C46.6758 47.9465 46.6672 47.8712 46.6413 47.8009C46.6154 47.7307 46.573 47.6676 46.5176 47.6169L44.9142 46.1479L45.2646 39.4275L56.482 34.9211V55.259ZM55.7431 29.2062C56.1513 29.1728 56.5601 29.156 56.9697 29.156C57.3792 29.156 57.7881 29.1728 58.1962 29.2062L58.9795 29.2711L60.0603 19.4359H53.8832L54.9641 29.2711L55.7431 29.2062ZM59.6423 19.8105L58.6501 28.8777L58.2279 28.8432C57.811 28.8087 57.3835 28.7909 56.9697 28.7909C56.5559 28.7909 56.1252 28.8087 55.7115 28.8432L55.2892 28.8777L54.2938 19.8168L59.6423 19.8105ZM61.0885 18.4859H52.8551L53.2298 18.8573H60.718L61.0885 18.4859ZM54.5862 29.2711L53.5053 19.4359C53.3083 19.1041 53.0897 18.7854 52.8509 18.4817L53.289 24.7229L52.5268 18.1155C52.4709 18.058 52.415 18.0109 52.3611 17.9607H61.5782C61.5244 18.0067 61.4727 18.058 61.4125 18.1155L60.6504 24.7229L61.0885 18.4817C60.8497 18.7854 60.6311 19.1041 60.434 19.4359L59.3531 29.2711C59.3531 29.2711 62.3836 20.9259 62.6011 27.0477L63.8983 22.2243C63.8676 21.3765 63.7726 20.5322 63.6144 19.6985L62.5472 23.709L63.454 19.0425C63.3083 18.5434 63.1151 18.1103 62.8597 17.855L61.7355 22.8772L62.561 17.6551C62.5192 17.64 62.4761 17.6292 62.4322 17.6227V17.5986H51.5114V17.6227C51.4675 17.6292 51.4243 17.64 51.3826 17.6551L52.2081 22.8772L51.0839 17.855C50.8285 18.1103 50.6353 18.5434 50.4896 19.0425L51.4058 23.709L50.3387 19.6985C50.1804 20.5322 50.0855 21.3765 50.0547 22.2243L51.352 27.0477C51.5631 20.9259 54.5905 29.2732 54.5905 29.2732L54.5862 29.2711ZM71.3094 56.5428L56.9538 71.7539L42.5983 56.5428L39.6047 59.5101L56.9581 77.5661L74.304 59.5101L71.3094 56.5428ZM56.482 76.3858L40.2782 59.5185L42.6004 57.2166L56.482 71.9401V76.3858ZM44.3811 38.5695L56.9897 33.517L69.5667 38.5695L69.9572 46.0621L70.9009 43.0508V40.3305C70.9009 34.3959 67.2445 29.1895 61.9709 27.0613C61.7566 26.9746 61.5187 26.964 61.2975 27.0313C61.0762 27.0986 60.8853 27.2397 60.757 27.4307C60.415 27.9434 60.0181 28.6957 59.579 30.33L58.2268 30.218C57.3358 30.1432 56.44 30.1432 55.5489 30.218L54.2558 30.3247C53.8273 28.7218 53.4367 27.9789 53.0947 27.4673C52.9665 27.276 52.7754 27.1347 52.5538 27.0675C52.3322 27.0003 52.094 27.0115 51.8798 27.099C46.6558 29.2491 43.0469 34.4231 43.0469 40.3252V43.0456L43.9906 46.0568L44.3811 38.5695ZM53.0367 29.3621C53.1287 29.5972 53.1966 29.8408 53.2393 30.0893C51.75 30.6072 50.2996 31.5635 48.9464 32.9332C48.576 32.833 48.1879 32.8148 47.8096 32.8798C49.2477 31.3146 51.0393 30.1092 53.0377 29.3621H53.0367ZM52.8308 28.9363C50.4447 29.8352 48.3526 31.3648 46.7815 33.359C46.4747 33.5939 46.1957 33.8624 45.9497 34.1594C47.2755 32.0616 49.3823 29.856 52.6672 28.6967C52.7273 28.7729 52.7823 28.853 52.8319 28.9363H52.8308ZM51.3003 28.3462C51.4449 28.2535 51.6131 28.2036 51.7853 28.2023C51.9575 28.201 52.1265 28.2484 52.2725 28.3389C47.7336 30.036 45.4219 33.675 44.3125 36.2687C46.0162 30.5518 51.3003 28.3462 51.3003 28.3462Z" fill="url(#paint43_linear_2162_12915)"/>
<path d="M43.2845 68.2508L34.175 65.9489C34.175 65.9489 34.858 69.7836 37.9856 70.2565C41.4985 70.788 43.94 71.0245 43.94 71.0245L36.3189 71.9662C36.3189 71.9662 36.7411 72.9622 39.1615 73.6402C40.2817 73.9395 41.4598 73.9553 42.5878 73.6863L44.833 72.9717C44.833 72.9717 44.4952 74.7022 46.0828 75.2139H47.7495C47.7495 75.2139 47.2143 77.634 50.8454 77.5555C52.1121 77.5272 55.2914 77.5555 55.2914 77.5555L36.5564 58.041C36.5564 58.041 32.7226 62.2304 43.2845 68.2508ZM79.7413 65.9489L70.6318 68.2508C81.1874 62.2304 77.3599 58.041 77.3599 58.041L58.6259 77.5555C58.6259 77.5555 61.801 77.5272 63.0709 77.5555C66.703 77.634 66.1668 75.2139 66.1668 75.2139H67.8335C69.4169 74.7022 69.0844 72.9717 69.0844 72.9717L71.3295 73.6863C72.4576 73.9553 73.6356 73.9394 74.7559 73.6402C77.1784 72.9643 77.5985 71.9662 77.5985 71.9662L69.9774 71.0245C69.9774 71.0245 72.4178 70.788 75.9307 70.2565C79.0615 69.7878 79.7413 65.9489 79.7413 65.9489Z" fill="url(#paint44_linear_2162_12915)"/>
<path d="M41.7066 98.1602H40.5972L39.7348 96.1095L39.4044 98.1602H39.3971C39.3647 98.21 39.3227 98.253 39.2736 98.2868C39.2018 98.3465 39.111 98.4113 39.0044 98.4835C38.8978 98.5557 38.7764 98.631 38.6434 98.7106C38.5104 98.7901 38.3837 98.8612 38.2613 98.9251C38.1494 98.9847 38.0342 99.0378 37.9161 99.0841C37.8396 99.1194 37.7574 99.141 37.6733 99.1479L38.483 94.0713H40.5339L41.4185 96.1377L42.9617 94.0723H45.1256L44.4732 98.1602H42.8983L43.2287 96.1095L41.7066 98.1602Z" fill="#111111"/>
<path d="M46.0872 98.0828C46.0227 98.0278 45.9682 97.9623 45.9257 97.8893C45.8804 97.8134 45.845 97.7322 45.8201 97.6476C45.7987 97.5728 45.7922 97.4946 45.8011 97.4174L46.2065 94.8686C46.1812 94.8264 46.1522 94.7865 46.1199 94.7493C46.0724 94.6897 46.0217 94.6217 45.9668 94.5401C45.9117 94.4628 45.8616 94.3821 45.817 94.2984C45.776 94.2267 45.7481 94.1484 45.7346 94.0671H47.9122L47.4626 96.8691C47.4581 96.901 47.4664 96.9333 47.4858 96.9591C47.4921 96.9715 47.5016 96.982 47.5132 96.9897C47.5249 96.9974 47.5383 97.002 47.5523 97.003H49.3298C49.3448 97.0014 49.3592 96.9967 49.3721 96.9891C49.385 96.9815 49.3962 96.9713 49.4048 96.9591C49.4277 96.9336 49.4434 96.9026 49.4502 96.8691L49.8998 94.0671H51.4737L50.9459 97.4153C50.9311 97.4977 50.8991 97.5761 50.852 97.6455C50.7981 97.7313 50.7366 97.8122 50.6683 97.8872C50.6027 97.96 50.5286 98.025 50.4477 98.0807C50.3863 98.1262 50.313 98.1531 50.2366 98.1582H46.2782C46.2075 98.1563 46.1398 98.1296 46.0872 98.0828Z" fill="#111111"/>
<path d="M55.4761 98.1604H54.3668L53.5044 96.1097L53.174 98.1604H53.1666C53.1342 98.2102 53.0922 98.2532 53.0431 98.287C52.9703 98.3466 52.8805 98.4115 52.7729 98.4837C52.6652 98.5559 52.5459 98.6312 52.4129 98.7107C52.2799 98.7903 52.1533 98.8614 52.0308 98.9252C51.919 98.9852 51.8037 99.0387 51.6856 99.0853C51.6091 99.1206 51.527 99.1422 51.4429 99.1491L52.2504 94.0725H54.2971L55.1816 96.1389L56.7259 94.0725H58.9004L58.248 98.1604H56.6679L56.9983 96.1097L55.4761 98.1604Z" fill="#111111"/>
<path d="M64.6511 94.0724C64.7223 94.0747 64.7902 94.1026 64.8422 94.1508C64.9069 94.2057 64.9615 94.2712 65.0037 94.3444C65.0501 94.4208 65.0856 94.5032 65.1092 94.5892C65.1304 94.663 65.1369 94.7401 65.1282 94.8163L65.0005 95.6188C64.9896 95.665 64.9679 95.708 64.9372 95.7444C64.8981 95.7958 64.8555 95.8444 64.8095 95.8898C64.762 95.9369 64.7145 95.9819 64.667 96.0237C64.6302 96.0571 64.5914 96.0882 64.5508 96.1168C64.58 96.1474 64.6075 96.1796 64.6332 96.2131C64.6684 96.2584 64.7035 96.3055 64.7387 96.3543C64.7693 96.401 64.7968 96.4496 64.8211 96.4998C64.8409 96.5348 64.8497 96.5749 64.8464 96.6149L64.7197 97.4174C64.7044 97.4996 64.6725 97.5779 64.6258 97.6476C64.5716 97.7332 64.5102 97.814 64.4421 97.8893C64.3764 97.9624 64.3019 98.0274 64.2205 98.0828C64.1593 98.1286 64.0859 98.1555 64.0093 98.1602H59.4705L59.9982 94.8686C59.973 94.8264 59.944 94.7865 59.9117 94.7493C59.8642 94.6897 59.8135 94.6217 59.7586 94.5401C59.7031 94.463 59.653 94.3823 59.6087 94.2984C59.5678 94.2267 59.5399 94.1484 59.5264 94.0671L64.6511 94.0724ZM63.1733 96.6965H61.6217L61.8085 95.5456H63.3454C63.3698 95.5374 63.3909 95.5216 63.4056 95.5006C63.4243 95.4782 63.4396 95.4531 63.451 95.4263L63.4657 95.3593C63.4702 95.3284 63.4635 95.2969 63.4467 95.2704C63.4413 95.258 63.4325 95.2473 63.4213 95.2395C63.4101 95.2318 63.397 95.2273 63.3834 95.2264H61.5024L61.2174 97.0051H63.0995C63.1144 97.0035 63.1288 96.9988 63.1417 96.9912C63.1546 96.9836 63.1658 96.9734 63.1744 96.9612C63.1971 96.9357 63.2124 96.9046 63.2187 96.8712L63.2346 96.8043C63.235 96.7826 63.2297 96.7613 63.2192 96.7423C63.2086 96.7234 63.1931 96.7076 63.1744 96.6965H63.1733Z" fill="#111111"/>
<path d="M69.0884 97.67H67.1989L66.8822 98.1607H65.1934L67.3224 94.8837C67.3011 94.8457 67.2748 94.8105 67.2443 94.7791C67.1968 94.7216 67.1387 94.6525 67.087 94.5698C67.0353 94.4872 66.9751 94.4035 66.9255 94.3177C66.8803 94.2438 66.8522 94.1609 66.8432 94.075H69.5275L70.8765 98.1628H69.253L69.0884 97.67ZM67.9273 96.5264H68.7295L68.4666 95.6894L67.9273 96.5264Z" fill="#111111"/>
<path d="M72.2587 94.0725H73.8325L73.1802 98.1604C73.1478 98.2102 73.1058 98.2532 73.0567 98.287C72.969 98.3571 72.8777 98.4228 72.7833 98.4837C72.6777 98.5559 72.5521 98.6312 72.4191 98.7107C72.2861 98.7903 72.1584 98.8614 72.0338 98.9252C71.9093 98.9891 71.7932 99.0435 71.6887 99.0853C71.613 99.1208 71.5314 99.1424 71.448 99.1491L72.2587 94.0725Z" fill="#111111"/>
<path d="M31.8646 101.007L32.5845 103.444L34.0697 101.007H35.7638L33.1545 105.094H31.6176L31.3622 104.362L30.8756 105.094H29.3376L28.0266 101.007H29.6458L30.3425 103.444L30.7848 102.723L30.2823 101.007H31.8646Z" fill="#111111"/>
<path d="M38.6472 104.604H36.7588L36.4421 105.094H34.749L36.8781 101.817C36.8567 101.779 36.8305 101.744 36.8 101.713C36.7525 101.655 36.6997 101.586 36.6427 101.503C36.5857 101.421 36.5308 101.337 36.4812 101.25C36.435 101.178 36.4068 101.095 36.3989 101.01H39.0831L40.4279 105.094H38.8129L38.6472 104.604ZM37.4861 103.46H38.2883L38.0255 102.623L37.4861 103.46Z" fill="#111111"/>
<path d="M41.8185 101.007H46.3574C46.4284 101.009 46.4964 101.037 46.5484 101.085C46.6131 101.139 46.6677 101.205 46.7099 101.278C46.7559 101.355 46.7914 101.437 46.8155 101.523C46.8367 101.597 46.8431 101.674 46.8345 101.75L46.6318 103.013C46.6106 103.155 46.5781 103.295 46.5347 103.431C46.4988 103.542 46.4386 103.644 46.3584 103.728C46.2732 103.812 46.169 103.875 46.0544 103.911C45.9037 103.957 45.7468 103.981 45.5889 103.982H45.514L46.5189 105.096H44.6674L43.3332 103.64L43.4525 102.907H44.9746C45.0443 102.907 45.0875 102.862 45.1023 102.773L45.1773 102.297C45.1821 102.266 45.1754 102.235 45.1583 102.208C45.1527 102.196 45.1439 102.185 45.1328 102.177C45.1216 102.169 45.1086 102.164 45.0949 102.163H43.2129L42.74 105.099C42.7076 105.149 42.6656 105.192 42.6165 105.226C42.5291 105.296 42.4378 105.362 42.3431 105.422C42.2375 105.495 42.1119 105.57 41.9789 105.649C41.8459 105.729 41.7182 105.8 41.5936 105.865C41.4691 105.93 41.353 105.982 41.2485 106.025C41.1726 106.06 41.0911 106.081 41.0078 106.088L41.8185 101.007Z" fill="#111111"/>
<path d="M47.7315 101.007H52.2757C52.3467 101.009 52.4145 101.037 52.4667 101.085C52.5314 101.139 52.586 101.205 52.6282 101.278C52.6742 101.355 52.7097 101.437 52.7338 101.523C52.7552 101.597 52.7613 101.674 52.7517 101.75L52.549 103.013C52.5288 103.155 52.4963 103.295 52.4519 103.431C52.4169 103.542 52.3565 103.644 52.2757 103.728C52.1911 103.813 52.0871 103.875 51.9727 103.911C51.822 103.957 51.6651 103.981 51.5072 103.982H51.4323L52.4372 105.096H50.5804L49.2462 103.64L49.3665 102.907H50.8887C50.9583 102.907 51.0005 102.862 51.0153 102.773L51.0903 102.297C51.0951 102.266 51.0887 102.235 51.0723 102.208C51.0667 102.196 51.0579 102.185 51.0468 102.177C51.0357 102.169 51.0226 102.164 51.009 102.163H49.1269L48.654 105.099C48.6216 105.149 48.5797 105.192 48.5305 105.226C48.4431 105.296 48.3519 105.362 48.2572 105.422C48.1516 105.495 48.026 105.57 47.893 105.649C47.76 105.729 47.6323 105.8 47.5067 105.865C47.381 105.93 47.267 105.982 47.1625 106.025C47.0866 106.06 47.0052 106.081 46.9219 106.088L47.7315 101.007Z" fill="#111111"/>
<path d="M53.6457 101.007H55.2206L54.5725 105.094C54.5394 105.143 54.4976 105.186 54.449 105.221C54.3616 105.291 54.2703 105.357 54.1756 105.417C54.0648 105.489 53.9444 105.565 53.8114 105.644C53.6784 105.724 53.5507 105.795 53.4251 105.86C53.2995 105.925 53.1855 105.977 53.081 106.02C53.0051 106.054 52.9236 106.076 52.8403 106.083L53.6457 101.007Z" fill="#111111"/>
<path d="M55.945 105.094C55.8739 105.092 55.806 105.064 55.754 105.016C55.6894 104.961 55.6347 104.896 55.5925 104.823C55.5464 104.748 55.5109 104.666 55.4869 104.582C55.4644 104.507 55.458 104.429 55.4679 104.351L55.8796 101.75C55.8967 101.67 55.9286 101.593 55.9735 101.523C56.0265 101.437 56.0876 101.356 56.1561 101.281C56.2216 101.208 56.2961 101.143 56.3778 101.088C56.4388 101.042 56.5123 101.015 56.5889 101.01H60.5399C60.6112 101.013 60.6794 101.04 60.732 101.088C60.7977 101.142 60.8532 101.208 60.8956 101.281C60.9424 101.358 60.978 101.44 61.0011 101.526C61.0228 101.6 61.0293 101.677 61.0201 101.753L60.6074 104.354C60.5924 104.437 60.5604 104.515 60.5135 104.585C60.4605 104.671 60.399 104.752 60.3298 104.826C60.2644 104.899 60.1904 104.964 60.1092 105.019C60.0482 105.065 59.9747 105.092 59.8981 105.097L55.945 105.094ZM59.364 102.292C59.3689 102.261 59.3621 102.23 59.345 102.203C59.3396 102.191 59.3308 102.18 59.3197 102.172C59.3085 102.164 59.2953 102.159 59.2816 102.158H57.4999C57.4839 102.16 57.4685 102.166 57.4548 102.174C57.4412 102.183 57.4295 102.194 57.4207 102.207C57.398 102.232 57.3814 102.261 57.3721 102.292L57.1251 103.808C57.1201 103.839 57.1265 103.871 57.1431 103.897C57.1495 103.911 57.1596 103.922 57.1724 103.93C57.1851 103.938 57.1998 103.942 57.2149 103.942H58.9914C59.0065 103.941 59.0211 103.936 59.0341 103.928C59.0471 103.921 59.0581 103.91 59.0663 103.897C59.0894 103.872 59.1051 103.842 59.1117 103.808L59.364 102.292Z" fill="#111111"/>
<path d="M61.9141 101.007H66.453C66.5243 101.009 66.5926 101.037 66.6451 101.085C66.7094 101.139 66.7637 101.205 66.8055 101.278C66.8524 101.354 66.888 101.437 66.9111 101.523C66.9323 101.597 66.9387 101.674 66.9301 101.75L66.7274 103.013C66.7067 103.155 66.6742 103.295 66.6303 103.431C66.5948 103.542 66.5346 103.644 66.454 103.728C66.369 103.813 66.2647 103.875 66.15 103.911C65.9997 103.957 65.8431 103.981 65.6856 103.982H65.6107L66.6145 105.096H64.763L63.4288 103.637L63.5481 102.905H65.0702C65.1409 102.905 65.1832 102.86 65.1979 102.771L65.2729 102.295C65.2778 102.264 65.271 102.232 65.2539 102.206C65.2485 102.194 65.2397 102.183 65.2286 102.175C65.2174 102.167 65.2043 102.162 65.1906 102.161H63.3085L62.8367 105.097C62.8034 105.147 62.7612 105.189 62.7121 105.224C62.6249 105.294 62.5336 105.36 62.4387 105.42C62.3332 105.493 62.2075 105.568 62.0756 105.647C61.9437 105.727 61.8138 105.798 61.6893 105.863C61.5647 105.928 61.4486 105.98 61.3441 106.023C61.2686 106.058 61.1875 106.079 61.1045 106.086L61.9141 101.007Z" fill="#111111"/>
<path d="M67.5771 105.016C67.5126 104.961 67.4579 104.896 67.4156 104.823C67.37 104.748 67.3345 104.666 67.3101 104.582C67.2884 104.507 67.2823 104.429 67.2921 104.351L67.404 103.66H68.9789L68.9483 103.817C68.9444 103.848 68.9511 103.879 68.9673 103.906C68.9729 103.918 68.9818 103.929 68.9929 103.936C69.0041 103.944 69.0171 103.949 69.0306 103.95H70.6277L67.8241 102.999C67.7638 102.957 67.7091 102.907 67.6616 102.851C67.6108 102.795 67.5781 102.725 67.5676 102.65L67.7101 101.751C67.7268 101.671 67.7587 101.594 67.8041 101.524C67.8572 101.437 67.9187 101.355 67.9877 101.28C68.0532 101.206 68.1277 101.141 68.2094 101.086C68.2703 101.04 68.3439 101.013 68.4205 101.009H72.1846C72.2557 101.011 72.3235 101.038 72.3757 101.086C72.4403 101.141 72.4947 101.206 72.5361 101.28C72.583 101.356 72.6185 101.438 72.6417 101.524C72.6639 101.598 72.6704 101.675 72.6607 101.751L72.5551 102.442H70.9771L70.9992 102.286C71.0041 102.255 70.9977 102.224 70.9813 102.197C70.9756 102.185 70.9667 102.174 70.9553 102.166C70.944 102.158 70.9307 102.153 70.9169 102.152H69.3199L72.1245 103.103C72.189 103.149 72.2482 103.201 72.3007 103.26C72.348 103.314 72.3778 103.381 72.3862 103.453L72.2437 104.353C72.2292 104.435 72.1976 104.513 72.1509 104.583C72.0972 104.669 72.0357 104.75 71.9672 104.824C71.9015 104.897 71.827 104.962 71.7455 105.017C71.6846 105.063 71.6111 105.091 71.5344 105.095H67.7671C67.6962 105.092 67.6288 105.064 67.5771 105.016Z" fill="#111111"/>
<path d="M77.093 105.094C77.0606 105.144 77.0186 105.187 76.9695 105.221C76.8821 105.291 76.7908 105.357 76.6961 105.417C76.5906 105.489 76.465 105.565 76.332 105.644C76.199 105.724 76.0712 105.795 75.9456 105.86C75.82 105.925 75.706 105.977 75.6015 106.02C75.5256 106.054 75.4441 106.076 75.3608 106.083L76.1704 101.007H80.9468L80.7674 102.158H77.5838L77.5311 102.478H79.9377L79.7509 103.623H77.3411L77.1078 105.094H77.093Z" fill="#111111"/>
<path d="M85.6167 105.094H81.6658C81.5943 105.091 81.5262 105.064 81.4737 105.015C81.4091 104.961 81.3547 104.896 81.3132 104.823C81.2668 104.748 81.2313 104.666 81.2077 104.581C81.1863 104.506 81.1798 104.428 81.1887 104.351L81.6014 101.75C81.6176 101.669 81.6495 101.592 81.6953 101.523C81.7477 101.435 81.8093 101.353 81.879 101.278C81.9443 101.205 82.0184 101.14 82.0996 101.085C82.1606 101.038 82.2341 101.011 82.3107 101.007H86.2617C86.3327 101.009 86.4005 101.037 86.4527 101.085C86.5174 101.139 86.572 101.205 86.6142 101.278C86.6602 101.355 86.6957 101.437 86.7198 101.523C86.7412 101.597 86.7473 101.674 86.7377 101.75L86.61 102.574H85.0393L85.0837 102.292C85.0885 102.261 85.0821 102.23 85.0657 102.203C85.0601 102.19 85.0511 102.18 85.0398 102.172C85.0284 102.164 85.0152 102.159 85.0013 102.158H83.2248C83.2089 102.16 83.1936 102.165 83.18 102.174C83.1665 102.182 83.1551 102.194 83.1467 102.207C83.1237 102.231 83.1066 102.26 83.0971 102.292L82.8501 103.808C82.845 103.839 82.8518 103.871 82.8691 103.897C82.8753 103.91 82.8853 103.922 82.8978 103.93C82.9104 103.938 82.9249 103.942 82.9398 103.942H84.7174C84.7324 103.94 84.7469 103.935 84.7598 103.928C84.7727 103.92 84.7838 103.909 84.7923 103.897C84.8147 103.872 84.83 103.841 84.8367 103.808L84.8821 103.527H86.4559L86.3292 104.351C86.3133 104.433 86.2813 104.511 86.2353 104.581C86.1816 104.667 86.1201 104.748 86.0516 104.823C85.9859 104.896 85.9114 104.96 85.8299 105.015C85.7684 105.062 85.6941 105.089 85.6167 105.094Z" fill="#111111"/>
<path d="M41.7066 98.1602H40.5972L39.7348 96.1095L39.4044 98.1602H39.3971C39.3647 98.21 39.3227 98.253 39.2736 98.2868C39.2018 98.3465 39.111 98.4113 39.0044 98.4835C38.8978 98.5557 38.7764 98.631 38.6434 98.7106C38.5104 98.7901 38.3837 98.8612 38.2613 98.9251C38.1494 98.9847 38.0342 99.0378 37.9161 99.0841C37.8396 99.1194 37.7574 99.141 37.6733 99.1479L38.483 94.0713H40.5339L41.4185 96.1377L42.9617 94.0723H45.1256L44.4732 98.1602H42.8983L43.2287 96.1095L41.7066 98.1602Z" stroke="url(#paint45_linear_2162_12915)" stroke-width="0.160005" stroke-miterlimit="10"/>
<path d="M55.4761 98.1604H54.3668L53.5044 96.1097L53.174 98.1604H53.1666C53.1342 98.2102 53.0922 98.2532 53.0431 98.287C52.9703 98.3466 52.8805 98.4115 52.7729 98.4837C52.6652 98.5559 52.5459 98.6312 52.4129 98.7107C52.2799 98.7903 52.1533 98.8614 52.0308 98.9252C51.919 98.9852 51.8037 99.0386 51.6856 99.0853C51.6091 99.1206 51.527 99.1422 51.4429 99.1491L52.2504 94.0725H54.2971L55.1816 96.1389L56.7259 94.0725H58.9004L58.248 98.1604H56.6679L56.9983 96.1097L55.4761 98.1604Z" stroke="url(#paint46_linear_2162_12915)" stroke-width="0.160005" stroke-miterlimit="10"/>
<path d="M69.0884 97.67H67.1989L66.8822 98.1607H65.1934L67.3224 94.8837C67.3011 94.8457 67.2748 94.8105 67.2443 94.7791C67.1968 94.7216 67.1387 94.6525 67.087 94.5698C67.0353 94.4872 66.9751 94.4035 66.9255 94.3177C66.8803 94.2438 66.8522 94.1609 66.8432 94.075H69.5275L70.8765 98.1628H69.253L69.0884 97.67ZM67.9273 96.5264H68.7295L68.4666 95.6894L67.9273 96.5264Z" stroke="url(#paint47_linear_2162_12915)" stroke-width="0.160005" stroke-miterlimit="10"/>
<path d="M31.8646 101.007L32.5845 103.444L34.0697 101.007H35.7638L33.1545 105.094H31.6176L31.3622 104.362L30.8756 105.094H29.3376L28.0266 101.007H29.6458L30.3425 103.444L30.7848 102.723L30.2823 101.007H31.8646Z" stroke="url(#paint48_linear_2162_12915)" stroke-width="0.160005" stroke-miterlimit="10"/>
<path d="M41.8185 101.007H46.3574C46.4284 101.009 46.4964 101.037 46.5484 101.085C46.6131 101.139 46.6677 101.205 46.7099 101.278C46.7559 101.355 46.7914 101.437 46.8155 101.523C46.8367 101.597 46.8431 101.674 46.8345 101.75L46.6318 103.013C46.6106 103.155 46.5781 103.295 46.5347 103.431C46.4988 103.542 46.4386 103.644 46.3584 103.728C46.2732 103.812 46.169 103.875 46.0544 103.911C45.9037 103.957 45.7468 103.981 45.5889 103.982H45.514L46.5189 105.096H44.6674L43.3332 103.64L43.4525 102.907H44.9746C45.0443 102.907 45.0875 102.862 45.1023 102.773L45.1773 102.297C45.1821 102.266 45.1754 102.235 45.1583 102.208C45.1527 102.196 45.1439 102.185 45.1328 102.177C45.1216 102.169 45.1086 102.164 45.0949 102.163H43.2129L42.74 105.099C42.7076 105.149 42.6656 105.192 42.6165 105.226C42.5291 105.296 42.4378 105.362 42.3431 105.422C42.2375 105.495 42.1119 105.57 41.9789 105.649C41.8459 105.729 41.7182 105.8 41.5936 105.865C41.4691 105.93 41.353 105.982 41.2485 106.025C41.1726 106.06 41.0911 106.081 41.0078 106.088L41.8185 101.007Z" stroke="url(#paint49_linear_2162_12915)" stroke-width="0.160005" stroke-miterlimit="10"/>
<path d="M47.7315 101.007H52.2757C52.3467 101.009 52.4145 101.037 52.4667 101.085C52.5314 101.139 52.586 101.205 52.6282 101.278C52.6742 101.355 52.7097 101.437 52.7338 101.523C52.7552 101.597 52.7613 101.674 52.7517 101.75L52.549 103.013C52.5288 103.155 52.4963 103.295 52.4519 103.431C52.4169 103.542 52.3565 103.644 52.2757 103.728C52.1911 103.813 52.0871 103.875 51.9727 103.911C51.822 103.957 51.6651 103.981 51.5072 103.982H51.4323L52.4372 105.096H50.5804L49.2462 103.64L49.3665 102.907H50.8887C50.9583 102.907 51.0005 102.862 51.0153 102.773L51.0903 102.297C51.0951 102.266 51.0887 102.235 51.0723 102.208C51.0667 102.196 51.0579 102.185 51.0468 102.177C51.0357 102.169 51.0226 102.164 51.009 102.163H49.1269L48.654 105.099C48.6216 105.149 48.5797 105.192 48.5305 105.226C48.4431 105.296 48.3519 105.362 48.2572 105.422C48.1516 105.495 48.026 105.57 47.893 105.649C47.76 105.729 47.6323 105.8 47.5067 105.865C47.381 105.93 47.267 105.982 47.1625 106.025C47.0866 106.06 47.0052 106.081 46.9219 106.088L47.7315 101.007Z" stroke="url(#paint50_linear_2162_12915)" stroke-width="0.160005" stroke-miterlimit="10"/>
<path d="M53.6457 101.007H55.2206L54.5725 105.094C54.5394 105.143 54.4976 105.186 54.449 105.221C54.3616 105.291 54.2703 105.357 54.1756 105.417C54.0648 105.489 53.9444 105.565 53.8114 105.644C53.6784 105.724 53.5507 105.795 53.4251 105.86C53.2995 105.925 53.1855 105.977 53.081 106.02C53.0051 106.054 52.9236 106.076 52.8403 106.083L53.6457 101.007Z" stroke="url(#paint51_linear_2162_12915)" stroke-width="0.160005" stroke-miterlimit="10"/>
<path d="M55.945 105.094C55.8739 105.092 55.806 105.064 55.754 105.016C55.6894 104.961 55.6347 104.896 55.5925 104.823C55.5464 104.748 55.5109 104.666 55.4869 104.582C55.4644 104.507 55.458 104.429 55.4679 104.351L55.8796 101.75C55.8967 101.67 55.9286 101.593 55.9735 101.523C56.0265 101.437 56.0876 101.356 56.1561 101.281C56.2216 101.208 56.2961 101.143 56.3778 101.088C56.4388 101.042 56.5123 101.015 56.5889 101.01H60.5399C60.6112 101.013 60.6794 101.04 60.732 101.088C60.7977 101.142 60.8532 101.208 60.8956 101.281C60.9424 101.358 60.978 101.44 61.0011 101.526C61.0228 101.6 61.0293 101.677 61.0201 101.753L60.6074 104.354C60.5924 104.437 60.5604 104.515 60.5135 104.585C60.4605 104.671 60.399 104.752 60.3298 104.826C60.2644 104.899 60.1904 104.964 60.1092 105.019C60.0482 105.065 59.9747 105.092 59.8981 105.097L55.945 105.094ZM59.364 102.292C59.3689 102.261 59.3621 102.23 59.345 102.203C59.3396 102.191 59.3308 102.18 59.3197 102.172C59.3085 102.164 59.2953 102.159 59.2816 102.158H57.4999C57.4839 102.16 57.4685 102.166 57.4548 102.174C57.4412 102.183 57.4295 102.194 57.4207 102.207C57.398 102.232 57.3814 102.261 57.3721 102.292L57.1251 103.808C57.1201 103.839 57.1265 103.871 57.1431 103.897C57.1495 103.911 57.1596 103.922 57.1724 103.93C57.1851 103.938 57.1998 103.942 57.2149 103.942H58.9914C59.0065 103.941 59.0211 103.936 59.0341 103.928C59.0471 103.921 59.0581 103.91 59.0663 103.897C59.0894 103.872 59.1051 103.842 59.1117 103.808L59.364 102.292Z" stroke="url(#paint52_linear_2162_12915)" stroke-width="0.160005" stroke-miterlimit="10"/>
<defs>
<linearGradient id="paint0_linear_2162_12915" x1="11.9125" y1="9.76176" x2="17.6328" y2="81.7905" gradientUnits="userSpaceOnUse">
<stop offset="0.03" stop-color="#B71F25"/>
<stop offset="1" stop-color="#3D1A0B"/>
</linearGradient>
<linearGradient id="paint1_linear_2162_12915" x1="12.7949" y1="56.4537" x2="18.7282" y2="52.9975" gradientUnits="userSpaceOnUse">
<stop offset="0.02" stop-color="#8C8C8C"/>
<stop offset="0.05" stop-color="#9B9B9B"/>
<stop offset="0.1" stop-color="#B9BAB9"/>
<stop offset="0.16" stop-color="#CFCFCF"/>
<stop offset="0.22" stop-color="#DCDDDC"/>
<stop offset="0.27" stop-color="#E0E1E0"/>
<stop offset="0.4" stop-color="#BBBCBB"/>
<stop offset="0.54" stop-color="#939393"/>
<stop offset="0.58" stop-color="#878888"/>
<stop offset="0.67" stop-color="#747575"/>
<stop offset="0.73" stop-color="#6D6E6E"/>
<stop offset="0.9" stop-color="#6F7070"/>
<stop offset="0.96" stop-color="#767676"/>
<stop offset="1" stop-color="#7E7E7E"/>
</linearGradient>
<linearGradient id="paint2_linear_2162_12915" x1="14.0955" y1="9.58849" x2="19.8158" y2="81.6173" gradientUnits="userSpaceOnUse">
<stop offset="0.03" stop-color="#B71F25"/>
<stop offset="1" stop-color="#3D1A0B"/>
</linearGradient>
<linearGradient id="paint3_linear_2162_12915" x1="15.2703" y1="63.0563" x2="21.6229" y2="59.3563" gradientUnits="userSpaceOnUse">
<stop offset="0.02" stop-color="#8C8C8C"/>
<stop offset="0.05" stop-color="#9B9B9B"/>
<stop offset="0.1" stop-color="#B9BAB9"/>
<stop offset="0.16" stop-color="#CFCFCF"/>
<stop offset="0.22" stop-color="#DCDDDC"/>
<stop offset="0.27" stop-color="#E0E1E0"/>
<stop offset="0.4" stop-color="#BBBCBB"/>
<stop offset="0.54" stop-color="#939393"/>
<stop offset="0.58" stop-color="#878888"/>
<stop offset="0.67" stop-color="#747575"/>
<stop offset="0.73" stop-color="#6D6E6E"/>
<stop offset="0.9" stop-color="#6F7070"/>
<stop offset="0.96" stop-color="#767676"/>
<stop offset="1" stop-color="#7E7E7E"/>
</linearGradient>
<linearGradient id="paint4_linear_2162_12915" x1="18.0875" y1="9.27133" x2="23.8079" y2="81.3001" gradientUnits="userSpaceOnUse">
<stop offset="0.03" stop-color="#B71F25"/>
<stop offset="1" stop-color="#3D1A0B"/>
</linearGradient>
<linearGradient id="paint5_linear_2162_12915" x1="19.3447" y1="69.2534" x2="26.6778" y2="64.9819" gradientUnits="userSpaceOnUse">
<stop offset="0.02" stop-color="#8C8C8C"/>
<stop offset="0.05" stop-color="#9B9B9B"/>
<stop offset="0.1" stop-color="#B9BAB9"/>
<stop offset="0.16" stop-color="#CFCFCF"/>
<stop offset="0.22" stop-color="#DCDDDC"/>
<stop offset="0.27" stop-color="#E0E1E0"/>
<stop offset="0.4" stop-color="#BBBCBB"/>
<stop offset="0.54" stop-color="#939393"/>
<stop offset="0.58" stop-color="#878888"/>
<stop offset="0.67" stop-color="#747575"/>
<stop offset="0.73" stop-color="#6D6E6E"/>
<stop offset="0.9" stop-color="#6F7070"/>
<stop offset="0.96" stop-color="#767676"/>
<stop offset="1" stop-color="#7E7E7E"/>
</linearGradient>
<linearGradient id="paint6_linear_2162_12915" x1="10.9117" y1="9.84124" x2="16.6321" y2="81.87" gradientUnits="userSpaceOnUse">
<stop offset="0.03" stop-color="#B71F25"/>
<stop offset="1" stop-color="#3D1A0B"/>
</linearGradient>
<linearGradient id="paint7_linear_2162_12915" x1="11.3297" y1="49.6444" x2="17.0865" y2="46.2911" gradientUnits="userSpaceOnUse">
<stop offset="0.02" stop-color="#8C8C8C"/>
<stop offset="0.05" stop-color="#9B9B9B"/>
<stop offset="0.1" stop-color="#B9BAB9"/>
<stop offset="0.16" stop-color="#CFCFCF"/>
<stop offset="0.22" stop-color="#DCDDDC"/>
<stop offset="0.27" stop-color="#E0E1E0"/>
<stop offset="0.4" stop-color="#BBBCBB"/>
<stop offset="0.54" stop-color="#939393"/>
<stop offset="0.58" stop-color="#878888"/>
<stop offset="0.67" stop-color="#747575"/>
<stop offset="0.73" stop-color="#6D6E6E"/>
<stop offset="0.9" stop-color="#6F7070"/>
<stop offset="0.96" stop-color="#767676"/>
<stop offset="1" stop-color="#7E7E7E"/>
</linearGradient>
<linearGradient id="paint8_linear_2162_12915" x1="10.2159" y1="9.89687" x2="15.9362" y2="81.9256" gradientUnits="userSpaceOnUse">
<stop offset="0.03" stop-color="#B71F25"/>
<stop offset="1" stop-color="#3D1A0B"/>
</linearGradient>
<linearGradient id="paint9_linear_2162_12915" x1="10.1578" y1="42.8761" x2="15.7086" y2="39.6426" gradientUnits="userSpaceOnUse">
<stop offset="0.02" stop-color="#8C8C8C"/>
<stop offset="0.05" stop-color="#9B9B9B"/>
<stop offset="0.1" stop-color="#B9BAB9"/>
<stop offset="0.16" stop-color="#CFCFCF"/>
<stop offset="0.22" stop-color="#DCDDDC"/>
<stop offset="0.27" stop-color="#E0E1E0"/>
<stop offset="0.4" stop-color="#BBBCBB"/>
<stop offset="0.54" stop-color="#939393"/>
<stop offset="0.58" stop-color="#878888"/>
<stop offset="0.67" stop-color="#747575"/>
<stop offset="0.73" stop-color="#6D6E6E"/>
<stop offset="0.9" stop-color="#6F7070"/>
<stop offset="0.96" stop-color="#767676"/>
<stop offset="1" stop-color="#7E7E7E"/>
</linearGradient>
<linearGradient id="paint10_linear_2162_12915" x1="23.1593" y1="8.86823" x2="28.8786" y2="80.897" gradientUnits="userSpaceOnUse">
<stop offset="0.03" stop-color="#B71F25"/>
<stop offset="1" stop-color="#3D1A0B"/>
</linearGradient>
<linearGradient id="paint11_linear_2162_12915" x1="24.3953" y1="74.4522" x2="32.5691" y2="69.6909" gradientUnits="userSpaceOnUse">
<stop offset="0.02" stop-color="#8C8C8C"/>
<stop offset="0.05" stop-color="#9B9B9B"/>
<stop offset="0.1" stop-color="#B9BAB9"/>
<stop offset="0.16" stop-color="#CFCFCF"/>
<stop offset="0.22" stop-color="#DCDDDC"/>
<stop offset="0.27" stop-color="#E0E1E0"/>
<stop offset="0.4" stop-color="#BBBCBB"/>
<stop offset="0.54" stop-color="#939393"/>
<stop offset="0.58" stop-color="#878888"/>
<stop offset="0.67" stop-color="#747575"/>
<stop offset="0.73" stop-color="#6D6E6E"/>
<stop offset="0.9" stop-color="#6F7070"/>
<stop offset="0.96" stop-color="#767676"/>
<stop offset="1" stop-color="#7E7E7E"/>
</linearGradient>
<linearGradient id="paint12_linear_2162_12915" x1="17.1787" y1="9.3438" x2="22.898" y2="81.3726" gradientUnits="userSpaceOnUse">
<stop offset="0.03" stop-color="#B71F25"/>
<stop offset="1" stop-color="#3D1A0B"/>
</linearGradient>
<linearGradient id="paint13_linear_2162_12915" x1="15.228" y1="24.3153" x2="21.2969" y2="20.7806" gradientUnits="userSpaceOnUse">
<stop offset="0.02" stop-color="#8C8C8C"/>
<stop offset="0.05" stop-color="#9B9B9B"/>
<stop offset="0.1" stop-color="#B9BAB9"/>
<stop offset="0.16" stop-color="#CFCFCF"/>
<stop offset="0.22" stop-color="#DCDDDC"/>
<stop offset="0.27" stop-color="#E0E1E0"/>
<stop offset="0.4" stop-color="#BBBCBB"/>
<stop offset="0.54" stop-color="#939393"/>
<stop offset="0.58" stop-color="#878888"/>
<stop offset="0.67" stop-color="#747575"/>
<stop offset="0.73" stop-color="#6D6E6E"/>
<stop offset="0.9" stop-color="#6F7070"/>
<stop offset="0.96" stop-color="#767676"/>
<stop offset="1" stop-color="#7E7E7E"/>
</linearGradient>
<linearGradient id="paint14_linear_2162_12915" x1="12.0296" y1="9.7526" x2="17.7499" y2="81.7814" gradientUnits="userSpaceOnUse">
<stop offset="0.03" stop-color="#B71F25"/>
<stop offset="1" stop-color="#3D1A0B"/>
</linearGradient>
<linearGradient id="paint15_linear_2162_12915" x1="10.6774" y1="28.8789" x2="15.8352" y2="25.8754" gradientUnits="userSpaceOnUse">
<stop offset="0.02" stop-color="#8C8C8C"/>
<stop offset="0.05" stop-color="#9B9B9B"/>
<stop offset="0.1" stop-color="#B9BAB9"/>
<stop offset="0.16" stop-color="#CFCFCF"/>
<stop offset="0.22" stop-color="#DCDDDC"/>
<stop offset="0.27" stop-color="#E0E1E0"/>
<stop offset="0.4" stop-color="#BBBCBB"/>
<stop offset="0.54" stop-color="#939393"/>
<stop offset="0.58" stop-color="#878888"/>
<stop offset="0.67" stop-color="#747575"/>
<stop offset="0.73" stop-color="#6D6E6E"/>
<stop offset="0.9" stop-color="#6F7070"/>
<stop offset="0.96" stop-color="#767676"/>
<stop offset="1" stop-color="#7E7E7E"/>
</linearGradient>
<linearGradient id="paint16_linear_2162_12915" x1="23.1943" y1="8.86634" x2="28.9147" y2="80.8951" gradientUnits="userSpaceOnUse">
<stop offset="0.03" stop-color="#B71F25"/>
<stop offset="1" stop-color="#3D1A0B"/>
</linearGradient>
<linearGradient id="paint17_linear_2162_12915" x1="18.6829" y1="53.2105" x2="35.8985" y2="43.1832" gradientUnits="userSpaceOnUse">
<stop offset="0.02" stop-color="#8C8C8C"/>
<stop offset="0.05" stop-color="#9B9B9B"/>
<stop offset="0.1" stop-color="#B9BAB9"/>
<stop offset="0.16" stop-color="#CFCFCF"/>
<stop offset="0.22" stop-color="#DCDDDC"/>
<stop offset="0.27" stop-color="#E0E1E0"/>
<stop offset="0.4" stop-color="#BBBCBB"/>
<stop offset="0.54" stop-color="#939393"/>
<stop offset="0.58" stop-color="#878888"/>
<stop offset="0.67" stop-color="#747575"/>
<stop offset="0.73" stop-color="#6D6E6E"/>
<stop offset="0.9" stop-color="#6F7070"/>
<stop offset="0.96" stop-color="#767676"/>
<stop offset="1" stop-color="#7E7E7E"/>
</linearGradient>
<linearGradient id="paint18_linear_2162_12915" x1="10.1497" y1="9.90202" x2="15.87" y2="81.9308" gradientUnits="userSpaceOnUse">
<stop offset="0.03" stop-color="#B71F25"/>
<stop offset="1" stop-color="#3D1A0B"/>
</linearGradient>
<linearGradient id="paint19_linear_2162_12915" x1="9.48576" y1="35.7581" x2="14.736" y2="32.7005" gradientUnits="userSpaceOnUse">
<stop offset="0.02" stop-color="#8C8C8C"/>
<stop offset="0.05" stop-color="#9B9B9B"/>
<stop offset="0.1" stop-color="#B9BAB9"/>
<stop offset="0.16" stop-color="#CFCFCF"/>
<stop offset="0.22" stop-color="#DCDDDC"/>
<stop offset="0.27" stop-color="#E0E1E0"/>
<stop offset="0.4" stop-color="#BBBCBB"/>
<stop offset="0.54" stop-color="#939393"/>
<stop offset="0.58" stop-color="#878888"/>
<stop offset="0.67" stop-color="#747575"/>
<stop offset="0.73" stop-color="#6D6E6E"/>
<stop offset="0.9" stop-color="#6F7070"/>
<stop offset="0.96" stop-color="#767676"/>
<stop offset="1" stop-color="#7E7E7E"/>
</linearGradient>
<linearGradient id="paint20_linear_2162_12915" x1="102.465" y1="10.5862" x2="95.6844" y2="86.4649" gradientUnits="userSpaceOnUse">
<stop offset="0.03" stop-color="#B71F25"/>
<stop offset="1" stop-color="#3D1A0B"/>
</linearGradient>
<linearGradient id="paint21_linear_2162_12915" x1="94.1895" y1="57.1485" x2="102.767" y2="52.1518" gradientUnits="userSpaceOnUse">
<stop offset="0.02" stop-color="#8C8C8C"/>
<stop offset="0.05" stop-color="#9B9B9B"/>
<stop offset="0.1" stop-color="#B9BAB9"/>
<stop offset="0.16" stop-color="#CFCFCF"/>
<stop offset="0.22" stop-color="#DCDDDC"/>
<stop offset="0.27" stop-color="#E0E1E0"/>
<stop offset="0.4" stop-color="#BBBCBB"/>
<stop offset="0.54" stop-color="#939393"/>
<stop offset="0.58" stop-color="#878888"/>
<stop offset="0.67" stop-color="#747575"/>
<stop offset="0.73" stop-color="#6D6E6E"/>
<stop offset="0.9" stop-color="#6F7070"/>
<stop offset="0.96" stop-color="#767676"/>
<stop offset="1" stop-color="#7E7E7E"/>
</linearGradient>
<linearGradient id="paint22_linear_2162_12915" x1="100.35" y1="10.3983" x2="93.5704" y2="86.276" gradientUnits="userSpaceOnUse">
<stop offset="0.03" stop-color="#B71F25"/>
<stop offset="1" stop-color="#3D1A0B"/>
</linearGradient>
<linearGradient id="paint23_linear_2162_12915" x1="91.4147" y1="63.4686" x2="99.8796" y2="58.5377" gradientUnits="userSpaceOnUse">
<stop offset="0.02" stop-color="#8C8C8C"/>
<stop offset="0.05" stop-color="#9B9B9B"/>
<stop offset="0.1" stop-color="#B9BAB9"/>
<stop offset="0.16" stop-color="#CFCFCF"/>
<stop offset="0.22" stop-color="#DCDDDC"/>
<stop offset="0.27" stop-color="#E0E1E0"/>
<stop offset="0.4" stop-color="#BBBCBB"/>
<stop offset="0.54" stop-color="#939393"/>
<stop offset="0.58" stop-color="#878888"/>
<stop offset="0.67" stop-color="#747575"/>
<stop offset="0.73" stop-color="#6D6E6E"/>
<stop offset="0.9" stop-color="#6F7070"/>
<stop offset="0.96" stop-color="#767676"/>
<stop offset="1" stop-color="#7E7E7E"/>
</linearGradient>
<linearGradient id="paint24_linear_2162_12915" x1="96.4222" y1="10.0466" x2="89.6426" y2="85.9253" gradientUnits="userSpaceOnUse">
<stop offset="0.03" stop-color="#B71F25"/>
<stop offset="1" stop-color="#3D1A0B"/>
</linearGradient>
<linearGradient id="paint25_linear_2162_12915" x1="86.9919" y1="69.0389" x2="94.9922" y2="64.3794" gradientUnits="userSpaceOnUse">
<stop offset="0.02" stop-color="#8C8C8C"/>
<stop offset="0.05" stop-color="#9B9B9B"/>
<stop offset="0.1" stop-color="#B9BAB9"/>
<stop offset="0.16" stop-color="#CFCFCF"/>
<stop offset="0.22" stop-color="#DCDDDC"/>
<stop offset="0.27" stop-color="#E0E1E0"/>
<stop offset="0.4" stop-color="#BBBCBB"/>
<stop offset="0.54" stop-color="#939393"/>
<stop offset="0.58" stop-color="#878888"/>
<stop offset="0.67" stop-color="#747575"/>
<stop offset="0.73" stop-color="#6D6E6E"/>
<stop offset="0.9" stop-color="#6F7070"/>
<stop offset="0.96" stop-color="#767676"/>
<stop offset="1" stop-color="#7E7E7E"/>
</linearGradient>
<linearGradient id="paint26_linear_2162_12915" x1="103.396" y1="10.6699" x2="96.6169" y2="86.5486" gradientUnits="userSpaceOnUse">
<stop offset="0.03" stop-color="#B71F25"/>
<stop offset="1" stop-color="#3D1A0B"/>
</linearGradient>
<linearGradient id="paint27_linear_2162_12915" x1="95.7996" y1="50.4564" x2="104.387" y2="45.4544" gradientUnits="userSpaceOnUse">
<stop offset="0.02" stop-color="#8C8C8C"/>
<stop offset="0.05" stop-color="#9B9B9B"/>
<stop offset="0.1" stop-color="#B9BAB9"/>
<stop offset="0.16" stop-color="#CFCFCF"/>
<stop offset="0.22" stop-color="#DCDDDC"/>
<stop offset="0.27" stop-color="#E0E1E0"/>
<stop offset="0.4" stop-color="#BBBCBB"/>
<stop offset="0.54" stop-color="#939393"/>
<stop offset="0.58" stop-color="#878888"/>
<stop offset="0.67" stop-color="#747575"/>
<stop offset="0.73" stop-color="#6D6E6E"/>
<stop offset="0.9" stop-color="#6F7070"/>
<stop offset="0.96" stop-color="#767676"/>
<stop offset="1" stop-color="#7E7E7E"/>
</linearGradient>
<linearGradient id="paint28_linear_2162_12915" x1="104.026" y1="10.7264" x2="97.2449" y2="86.604" gradientUnits="userSpaceOnUse">
<stop offset="0.03" stop-color="#B71F25"/>
<stop offset="1" stop-color="#3D1A0B"/>
</linearGradient>
<linearGradient id="paint29_linear_2162_12915" x1="97.1085" y1="43.8333" x2="105.694" y2="38.8324" gradientUnits="userSpaceOnUse">
<stop offset="0.02" stop-color="#8C8C8C"/>
<stop offset="0.05" stop-color="#9B9B9B"/>
<stop offset="0.1" stop-color="#B9BAB9"/>
<stop offset="0.16" stop-color="#CFCFCF"/>
<stop offset="0.22" stop-color="#DCDDDC"/>
<stop offset="0.27" stop-color="#E0E1E0"/>
<stop offset="0.4" stop-color="#BBBCBB"/>
<stop offset="0.54" stop-color="#939393"/>
<stop offset="0.58" stop-color="#878888"/>
<stop offset="0.67" stop-color="#747575"/>
<stop offset="0.73" stop-color="#6D6E6E"/>
<stop offset="0.9" stop-color="#6F7070"/>
<stop offset="0.96" stop-color="#767676"/>
<stop offset="1" stop-color="#7E7E7E"/>
</linearGradient>
<linearGradient id="paint30_linear_2162_12915" x1="91.4154" y1="9.59959" x2="84.6358" y2="85.4772" gradientUnits="userSpaceOnUse">
<stop offset="0.03" stop-color="#B71F25"/>
<stop offset="1" stop-color="#3D1A0B"/>
</linearGradient>
<linearGradient id="paint31_linear_2162_12915" x1="81.9038" y1="73.7752" x2="88.9541" y2="69.6681" gradientUnits="userSpaceOnUse">
<stop offset="0.02" stop-color="#8C8C8C"/>
<stop offset="0.05" stop-color="#9B9B9B"/>
<stop offset="0.1" stop-color="#B9BAB9"/>
<stop offset="0.16" stop-color="#CFCFCF"/>
<stop offset="0.22" stop-color="#DCDDDC"/>
<stop offset="0.27" stop-color="#E0E1E0"/>
<stop offset="0.4" stop-color="#BBBCBB"/>
<stop offset="0.54" stop-color="#939393"/>
<stop offset="0.58" stop-color="#878888"/>
<stop offset="0.67" stop-color="#747575"/>
<stop offset="0.73" stop-color="#6D6E6E"/>
<stop offset="0.9" stop-color="#6F7070"/>
<stop offset="0.96" stop-color="#767676"/>
<stop offset="1" stop-color="#7E7E7E"/>
</linearGradient>
<linearGradient id="paint32_linear_2162_12915" x1="96.894" y1="10.0898" x2="90.1134" y2="85.9674" gradientUnits="userSpaceOnUse">
<stop offset="0.03" stop-color="#B71F25"/>
<stop offset="1" stop-color="#3D1A0B"/>
</linearGradient>
<linearGradient id="paint33_linear_2162_12915" x1="92.6845" y1="24.0526" x2="98.0377" y2="20.9346" gradientUnits="userSpaceOnUse">
<stop offset="0.02" stop-color="#8C8C8C"/>
<stop offset="0.05" stop-color="#9B9B9B"/>
<stop offset="0.1" stop-color="#B9BAB9"/>
<stop offset="0.16" stop-color="#CFCFCF"/>
<stop offset="0.22" stop-color="#DCDDDC"/>
<stop offset="0.27" stop-color="#E0E1E0"/>
<stop offset="0.4" stop-color="#BBBCBB"/>
<stop offset="0.54" stop-color="#939393"/>
<stop offset="0.58" stop-color="#878888"/>
<stop offset="0.67" stop-color="#747575"/>
<stop offset="0.73" stop-color="#6D6E6E"/>
<stop offset="0.9" stop-color="#6F7070"/>
<stop offset="0.96" stop-color="#767676"/>
<stop offset="1" stop-color="#7E7E7E"/>
</linearGradient>
<linearGradient id="paint34_linear_2162_12915" x1="102.074" y1="10.552" x2="95.2942" y2="86.4306" gradientUnits="userSpaceOnUse">
<stop offset="0.03" stop-color="#B71F25"/>
<stop offset="1" stop-color="#3D1A0B"/>
</linearGradient>
<linearGradient id="paint35_linear_2162_12915" x1="96.8202" y1="30.0811" x2="104.993" y2="25.3209" gradientUnits="userSpaceOnUse">
<stop offset="0.02" stop-color="#8C8C8C"/>
<stop offset="0.05" stop-color="#9B9B9B"/>
<stop offset="0.1" stop-color="#B9BAB9"/>
<stop offset="0.16" stop-color="#CFCFCF"/>
<stop offset="0.22" stop-color="#DCDDDC"/>
<stop offset="0.27" stop-color="#E0E1E0"/>
<stop offset="0.4" stop-color="#BBBCBB"/>
<stop offset="0.54" stop-color="#939393"/>
<stop offset="0.58" stop-color="#878888"/>
<stop offset="0.67" stop-color="#747575"/>
<stop offset="0.73" stop-color="#6D6E6E"/>
<stop offset="0.9" stop-color="#6F7070"/>
<stop offset="0.96" stop-color="#767676"/>
<stop offset="1" stop-color="#7E7E7E"/>
</linearGradient>
<linearGradient id="paint36_linear_2162_12915" x1="91.1728" y1="9.578" x2="84.3923" y2="85.4567" gradientUnits="userSpaceOnUse">
<stop offset="0.03" stop-color="#B71F25"/>
<stop offset="1" stop-color="#3D1A0B"/>
</linearGradient>
<linearGradient id="paint37_linear_2162_12915" x1="70.5948" y1="55.9331" x2="101.581" y2="37.8856" gradientUnits="userSpaceOnUse">
<stop offset="0.02" stop-color="#8C8C8C"/>
<stop offset="0.05" stop-color="#9B9B9B"/>
<stop offset="0.1" stop-color="#B9BAB9"/>
<stop offset="0.16" stop-color="#CFCFCF"/>
<stop offset="0.22" stop-color="#DCDDDC"/>
<stop offset="0.27" stop-color="#E0E1E0"/>
<stop offset="0.4" stop-color="#BBBCBB"/>
<stop offset="0.54" stop-color="#939393"/>
<stop offset="0.58" stop-color="#878888"/>
<stop offset="0.67" stop-color="#747575"/>
<stop offset="0.73" stop-color="#6D6E6E"/>
<stop offset="0.9" stop-color="#6F7070"/>
<stop offset="0.96" stop-color="#767676"/>
<stop offset="1" stop-color="#7E7E7E"/>
</linearGradient>
<linearGradient id="paint38_linear_2162_12915" x1="104.015" y1="10.7256" x2="97.2354" y2="86.6032" gradientUnits="userSpaceOnUse">
<stop offset="0.03" stop-color="#B71F25"/>
<stop offset="1" stop-color="#3D1A0B"/>
</linearGradient>
<linearGradient id="paint39_linear_2162_12915" x1="97.9254" y1="36.9416" x2="106.373" y2="32.0212" gradientUnits="userSpaceOnUse">
<stop offset="0.02" stop-color="#8C8C8C"/>
<stop offset="0.05" stop-color="#9B9B9B"/>
<stop offset="0.1" stop-color="#B9BAB9"/>
<stop offset="0.16" stop-color="#CFCFCF"/>
<stop offset="0.22" stop-color="#DCDDDC"/>
<stop offset="0.27" stop-color="#E0E1E0"/>
<stop offset="0.4" stop-color="#BBBCBB"/>
<stop offset="0.54" stop-color="#939393"/>
<stop offset="0.58" stop-color="#878888"/>
<stop offset="0.67" stop-color="#747575"/>
<stop offset="0.73" stop-color="#6D6E6E"/>
<stop offset="0.9" stop-color="#6F7070"/>
<stop offset="0.96" stop-color="#767676"/>
<stop offset="1" stop-color="#7E7E7E"/>
</linearGradient>
<linearGradient id="paint40_linear_2162_12915" x1="56.9581" y1="0.256535" x2="56.9581" y2="97.9262" gradientUnits="userSpaceOnUse">
<stop offset="0.03" stop-color="#B71F25"/>
<stop offset="1" stop-color="#3D1A0B"/>
</linearGradient>
<linearGradient id="paint41_linear_2162_12915" x1="56.9613" y1="-44.6233" x2="56.9613" y2="157.905" gradientUnits="userSpaceOnUse">
<stop offset="0.02" stop-color="#8C8C8C"/>
<stop offset="0.05" stop-color="#9B9B9B"/>
<stop offset="0.1" stop-color="#B9BAB9"/>
<stop offset="0.16" stop-color="#CFCFCF"/>
<stop offset="0.22" stop-color="#DCDDDC"/>
<stop offset="0.27" stop-color="#E0E1E0"/>
<stop offset="0.4" stop-color="#BBBCBB"/>
<stop offset="0.54" stop-color="#939393"/>
<stop offset="0.58" stop-color="#878888"/>
<stop offset="0.67" stop-color="#747575"/>
<stop offset="0.73" stop-color="#6D6E6E"/>
<stop offset="0.9" stop-color="#6F7070"/>
<stop offset="0.96" stop-color="#767676"/>
<stop offset="1" stop-color="#7E7E7E"/>
</linearGradient>
<linearGradient id="paint42_linear_2162_12915" x1="56.9594" y1="-44.6232" x2="56.9594" y2="157.905" gradientUnits="userSpaceOnUse">
<stop offset="0.02" stop-color="#8C8C8C"/>
<stop offset="0.05" stop-color="#9B9B9B"/>
<stop offset="0.1" stop-color="#B9BAB9"/>
<stop offset="0.16" stop-color="#CFCFCF"/>
<stop offset="0.22" stop-color="#DCDDDC"/>
<stop offset="0.27" stop-color="#E0E1E0"/>
<stop offset="0.4" stop-color="#BBBCBB"/>
<stop offset="0.54" stop-color="#939393"/>
<stop offset="0.58" stop-color="#878888"/>
<stop offset="0.67" stop-color="#747575"/>
<stop offset="0.73" stop-color="#6D6E6E"/>
<stop offset="0.9" stop-color="#6F7070"/>
<stop offset="0.96" stop-color="#767676"/>
<stop offset="1" stop-color="#7E7E7E"/>
</linearGradient>
<linearGradient id="paint43_linear_2162_12915" x1="56.9581" y1="-1.23993" x2="56.9581" y2="123.391" gradientUnits="userSpaceOnUse">
<stop offset="0.02" stop-color="#8C8C8C"/>
<stop offset="0.05" stop-color="#9B9B9B"/>
<stop offset="0.1" stop-color="#B9BAB9"/>
<stop offset="0.16" stop-color="#CFCFCF"/>
<stop offset="0.22" stop-color="#DCDDDC"/>
<stop offset="0.27" stop-color="#E0E1E0"/>
<stop offset="0.4" stop-color="#BBBCBB"/>
<stop offset="0.54" stop-color="#939393"/>
<stop offset="0.58" stop-color="#878888"/>
<stop offset="0.67" stop-color="#747575"/>
<stop offset="0.73" stop-color="#6D6E6E"/>
<stop offset="0.9" stop-color="#6F7070"/>
<stop offset="0.96" stop-color="#767676"/>
<stop offset="1" stop-color="#7E7E7E"/>
</linearGradient>
<linearGradient id="paint44_linear_2162_12915" x1="56.9582" y1="-1.24004" x2="56.9582" y2="123.391" gradientUnits="userSpaceOnUse">
<stop offset="0.02" stop-color="#8C8C8C"/>
<stop offset="0.05" stop-color="#9B9B9B"/>
<stop offset="0.1" stop-color="#B9BAB9"/>
<stop offset="0.16" stop-color="#CFCFCF"/>
<stop offset="0.22" stop-color="#DCDDDC"/>
<stop offset="0.27" stop-color="#E0E1E0"/>
<stop offset="0.4" stop-color="#BBBCBB"/>
<stop offset="0.54" stop-color="#939393"/>
<stop offset="0.58" stop-color="#878888"/>
<stop offset="0.67" stop-color="#747575"/>
<stop offset="0.73" stop-color="#6D6E6E"/>
<stop offset="0.9" stop-color="#6F7070"/>
<stop offset="0.96" stop-color="#767676"/>
<stop offset="1" stop-color="#7E7E7E"/>
</linearGradient>
<linearGradient id="paint45_linear_2162_12915" x1="28.0266" y1="100.078" x2="86.7461" y2="100.078" gradientUnits="userSpaceOnUse">
<stop offset="0.02" stop-color="#8C8C8C"/>
<stop offset="0.05" stop-color="#9B9B9B"/>
<stop offset="0.1" stop-color="#B9BAB9"/>
<stop offset="0.16" stop-color="#CFCFCF"/>
<stop offset="0.22" stop-color="#DCDDDC"/>
<stop offset="0.27" stop-color="#E0E1E0"/>
<stop offset="0.4" stop-color="#BBBCBB"/>
<stop offset="0.54" stop-color="#939393"/>
<stop offset="0.58" stop-color="#878888"/>
<stop offset="0.67" stop-color="#747575"/>
<stop offset="0.73" stop-color="#6D6E6E"/>
<stop offset="0.9" stop-color="#6F7070"/>
<stop offset="0.96" stop-color="#767676"/>
<stop offset="1" stop-color="#7E7E7E"/>
</linearGradient>
<linearGradient id="paint46_linear_2162_12915" x1="28.0264" y1="100.078" x2="86.7459" y2="100.078" gradientUnits="userSpaceOnUse">
<stop offset="0.02" stop-color="#8C8C8C"/>
<stop offset="0.05" stop-color="#9B9B9B"/>
<stop offset="0.1" stop-color="#B9BAB9"/>
<stop offset="0.16" stop-color="#CFCFCF"/>
<stop offset="0.22" stop-color="#DCDDDC"/>
<stop offset="0.27" stop-color="#E0E1E0"/>
<stop offset="0.4" stop-color="#BBBCBB"/>
<stop offset="0.54" stop-color="#939393"/>
<stop offset="0.58" stop-color="#878888"/>
<stop offset="0.67" stop-color="#747575"/>
<stop offset="0.73" stop-color="#6D6E6E"/>
<stop offset="0.9" stop-color="#6F7070"/>
<stop offset="0.96" stop-color="#767676"/>
<stop offset="1" stop-color="#7E7E7E"/>
</linearGradient>
<linearGradient id="paint47_linear_2162_12915" x1="28.0262" y1="100.079" x2="86.7457" y2="100.079" gradientUnits="userSpaceOnUse">
<stop offset="0.02" stop-color="#8C8C8C"/>
<stop offset="0.05" stop-color="#9B9B9B"/>
<stop offset="0.1" stop-color="#B9BAB9"/>
<stop offset="0.16" stop-color="#CFCFCF"/>
<stop offset="0.22" stop-color="#DCDDDC"/>
<stop offset="0.27" stop-color="#E0E1E0"/>
<stop offset="0.4" stop-color="#BBBCBB"/>
<stop offset="0.54" stop-color="#939393"/>
<stop offset="0.58" stop-color="#878888"/>
<stop offset="0.67" stop-color="#747575"/>
<stop offset="0.73" stop-color="#6D6E6E"/>
<stop offset="0.9" stop-color="#6F7070"/>
<stop offset="0.96" stop-color="#767676"/>
<stop offset="1" stop-color="#7E7E7E"/>
</linearGradient>
<linearGradient id="paint48_linear_2162_12915" x1="28.0266" y1="100.078" x2="86.7461" y2="100.078" gradientUnits="userSpaceOnUse">
<stop offset="0.02" stop-color="#8C8C8C"/>
<stop offset="0.05" stop-color="#9B9B9B"/>
<stop offset="0.1" stop-color="#B9BAB9"/>
<stop offset="0.16" stop-color="#CFCFCF"/>
<stop offset="0.22" stop-color="#DCDDDC"/>
<stop offset="0.27" stop-color="#E0E1E0"/>
<stop offset="0.4" stop-color="#BBBCBB"/>
<stop offset="0.54" stop-color="#939393"/>
<stop offset="0.58" stop-color="#878888"/>
<stop offset="0.67" stop-color="#747575"/>
<stop offset="0.73" stop-color="#6D6E6E"/>
<stop offset="0.9" stop-color="#6F7070"/>
<stop offset="0.96" stop-color="#767676"/>
<stop offset="1" stop-color="#7E7E7E"/>
</linearGradient>
<linearGradient id="paint49_linear_2162_12915" x1="28.0266" y1="100.078" x2="86.7461" y2="100.078" gradientUnits="userSpaceOnUse">
<stop offset="0.02" stop-color="#8C8C8C"/>
<stop offset="0.05" stop-color="#9B9B9B"/>
<stop offset="0.1" stop-color="#B9BAB9"/>
<stop offset="0.16" stop-color="#CFCFCF"/>
<stop offset="0.22" stop-color="#DCDDDC"/>
<stop offset="0.27" stop-color="#E0E1E0"/>
<stop offset="0.4" stop-color="#BBBCBB"/>
<stop offset="0.54" stop-color="#939393"/>
<stop offset="0.58" stop-color="#878888"/>
<stop offset="0.67" stop-color="#747575"/>
<stop offset="0.73" stop-color="#6D6E6E"/>
<stop offset="0.9" stop-color="#6F7070"/>
<stop offset="0.96" stop-color="#767676"/>
<stop offset="1" stop-color="#7E7E7E"/>
</linearGradient>
<linearGradient id="paint50_linear_2162_12915" x1="28.0264" y1="100.078" x2="86.7459" y2="100.078" gradientUnits="userSpaceOnUse">
<stop offset="0.02" stop-color="#8C8C8C"/>
<stop offset="0.05" stop-color="#9B9B9B"/>
<stop offset="0.1" stop-color="#B9BAB9"/>
<stop offset="0.16" stop-color="#CFCFCF"/>
<stop offset="0.22" stop-color="#DCDDDC"/>
<stop offset="0.27" stop-color="#E0E1E0"/>
<stop offset="0.4" stop-color="#BBBCBB"/>
<stop offset="0.54" stop-color="#939393"/>
<stop offset="0.58" stop-color="#878888"/>
<stop offset="0.67" stop-color="#747575"/>
<stop offset="0.73" stop-color="#6D6E6E"/>
<stop offset="0.9" stop-color="#6F7070"/>
<stop offset="0.96" stop-color="#767676"/>
<stop offset="1" stop-color="#7E7E7E"/>
</linearGradient>
<linearGradient id="paint51_linear_2162_12915" x1="28.0263" y1="100.078" x2="86.7459" y2="100.078" gradientUnits="userSpaceOnUse">
<stop offset="0.02" stop-color="#8C8C8C"/>
<stop offset="0.05" stop-color="#9B9B9B"/>
<stop offset="0.1" stop-color="#B9BAB9"/>
<stop offset="0.16" stop-color="#CFCFCF"/>
<stop offset="0.22" stop-color="#DCDDDC"/>
<stop offset="0.27" stop-color="#E0E1E0"/>
<stop offset="0.4" stop-color="#BBBCBB"/>
<stop offset="0.54" stop-color="#939393"/>
<stop offset="0.58" stop-color="#878888"/>
<stop offset="0.67" stop-color="#747575"/>
<stop offset="0.73" stop-color="#6D6E6E"/>
<stop offset="0.9" stop-color="#6F7070"/>
<stop offset="0.96" stop-color="#767676"/>
<stop offset="1" stop-color="#7E7E7E"/>
</linearGradient>
<linearGradient id="paint52_linear_2162_12915" x1="28.0266" y1="100.078" x2="86.7461" y2="100.078" gradientUnits="userSpaceOnUse">
<stop offset="0.02" stop-color="#8C8C8C"/>
<stop offset="0.05" stop-color="#9B9B9B"/>
<stop offset="0.1" stop-color="#B9BAB9"/>
<stop offset="0.16" stop-color="#CFCFCF"/>
<stop offset="0.22" stop-color="#DCDDDC"/>
<stop offset="0.27" stop-color="#E0E1E0"/>
<stop offset="0.4" stop-color="#BBBCBB"/>
<stop offset="0.54" stop-color="#939393"/>
<stop offset="0.58" stop-color="#878888"/>
<stop offset="0.67" stop-color="#747575"/>
<stop offset="0.73" stop-color="#6D6E6E"/>
<stop offset="0.9" stop-color="#6F7070"/>
<stop offset="0.96" stop-color="#767676"/>
<stop offset="1" stop-color="#7E7E7E"/>
</linearGradient>
</defs>
</svg>
