<svg width="60" height="59" viewBox="0 0 60 59" fill="none" xmlns="http://www.w3.org/2000/svg">
<path d="M6.26967 29.937C6.65509 29.9003 7.73527 29.4475 7.73527 29.4475L5.34604 28.0254L8.04085 28.7597C8.04085 28.7597 7.64725 27.6809 7.4121 27.3811C5.96158 25.5257 2.52486 26.7655 2.5475 26.8352C2.48274 26.8683 3.88547 30.1635 6.26967 29.937Z" fill="url(#paint0_linear_687_4366)" stroke="url(#paint1_linear_687_4366)" stroke-width="0.150005" stroke-miterlimit="10"/>
<path d="M8.14184 33.5586C8.51909 33.4772 9.53703 32.902 9.53703 32.902L6.9925 31.7675L9.75898 32.1842C9.75898 32.1842 9.23586 31.1593 8.96613 30.8888C7.29744 29.2158 4.03865 30.8466 4.06883 30.9133C4.00533 30.9524 5.80291 34.061 8.14184 33.5586Z" fill="url(#paint2_linear_687_4366)" stroke="url(#paint3_linear_687_4366)" stroke-width="0.150005" stroke-miterlimit="10"/>
<path d="M11.2047 36.65C11.558 36.4964 12.4345 35.7321 12.4345 35.7321L9.70701 35.1202L12.5024 34.9844C12.5024 34.9844 11.7775 34.0836 11.4568 33.8719C9.47563 32.5612 6.62239 34.7996 6.66577 34.8583C6.61107 34.911 9.01791 37.6022 11.2047 36.65Z" fill="url(#paint4_linear_687_4366)" stroke="url(#paint5_linear_687_4366)" stroke-width="0.150005" stroke-miterlimit="10"/>
<path d="M5.2047 26.0615C5.59201 26.0487 6.69923 25.6638 6.69923 25.6638L4.40997 24.0942L7.0507 24.995C7.0507 24.995 6.72815 23.8935 6.51375 23.5802C5.18647 21.6392 1.67618 22.6623 1.69379 22.7358C1.62526 22.7633 2.81044 26.138 5.2047 26.0615Z" fill="url(#paint6_linear_687_4366)" stroke="url(#paint7_linear_687_4366)" stroke-width="0.150005" stroke-miterlimit="10"/>
<path d="M4.26497 22.215C4.65165 22.2358 5.78968 21.9464 5.78968 21.9464L3.65194 20.1902L6.20213 21.3124C6.20213 21.3124 5.98144 20.1865 5.79282 19.8579C4.64662 17.8104 1.05711 18.5343 1.06843 18.6041C0.996751 18.6255 1.87259 22.0889 4.26497 22.215Z" fill="url(#paint8_linear_687_4366)" stroke="url(#paint9_linear_687_4366)" stroke-width="0.150005" stroke-miterlimit="10"/>
<path d="M14.4028 36.3755C12.1601 35.5543 9.92738 38.3826 9.98396 38.4304C9.94372 38.4915 12.9322 40.5574 14.8253 39.1316C15.1321 38.9015 15.7992 37.9592 15.7992 37.9592L13.0007 37.9892L15.6848 37.2181C15.6848 37.2181 14.7649 36.5077 14.4028 36.3755Z" fill="url(#paint10_linear_687_4366)" stroke="url(#paint11_linear_687_4366)" stroke-width="0.150005" stroke-miterlimit="10"/>
<path d="M7.00496 9.1033L6.95717 11.8269C6.95717 11.8269 7.93047 11.1832 8.16814 10.8858C9.6438 9.05006 7.53939 6.12876 7.47652 6.16732C7.4281 6.11163 4.50821 8.26742 5.33878 10.455C5.47271 10.8087 6.19702 11.7107 6.19702 11.7107L7.00496 9.1033Z" fill="url(#paint12_linear_687_4366)" stroke="url(#paint13_linear_687_4366)" stroke-width="0.150005" stroke-miterlimit="10"/>
<path d="M5.37064 14.435L3.94591 12.0901L5.97361 13.9681C5.97361 13.9681 6.14463 12.836 6.08175 12.464C5.69193 10.1632 2.05778 9.69323 2.04521 9.76482C1.97039 9.76482 1.62458 13.3139 3.84028 14.1994C4.19866 14.3414 5.37064 14.435 5.37064 14.435Z" fill="url(#paint14_linear_687_4366)" stroke="url(#paint15_linear_687_4366)" stroke-width="0.150005" stroke-miterlimit="10"/>
<path d="M6.77232 12.5689C6.59313 12.903 6.39507 14.0314 6.39507 14.0314L8.922 12.8602L6.81885 14.6574C6.81885 14.6574 7.11624 14.7266 7.45828 14.7908C6.85531 15.0876 6.33157 15.5361 6.07881 16.2123C5.94678 16.5672 5.90088 17.7109 5.90088 17.7109L8.24547 16.2276L6.40199 18.2775C6.40199 18.2775 6.81507 18.3185 7.23005 18.3387C6.8528 18.7102 6.56546 19.1703 6.48058 19.7388C6.42525 20.1121 6.61891 21.2411 6.61891 21.2411L8.61014 19.3233L7.23256 21.6939C7.23256 21.6939 7.73933 21.6443 8.18763 21.5678C7.65005 22.0329 7.23319 22.635 7.18918 23.4005C7.1678 23.7768 7.46268 24.885 7.46268 24.885L9.27158 22.8045L8.11343 25.2858C8.11343 25.2858 8.74218 25.169 9.21248 25.0349C8.58373 25.5636 8.07005 26.2692 8.07697 27.162C8.08011 27.5389 8.44667 28.6269 8.44667 28.6269L10.1166 26.4405L9.12194 28.9867C9.12194 28.9867 9.72616 28.8356 10.1814 28.6759C9.76829 29.2156 9.49982 29.8611 9.59601 30.5924C9.64506 30.9663 10.1424 32.0035 10.1424 32.0035L11.5319 29.639L10.8573 32.2825C10.8573 32.2825 11.6526 31.9808 12.0739 31.7446C11.8702 32.2825 11.8029 32.8663 12.011 33.458C12.1368 33.8148 12.8397 34.7326 12.8397 34.7326L13.7093 32.1436L13.5973 34.8654C13.5973 34.8654 14.0959 34.5503 14.4732 34.2633C14.4254 34.7999 14.5153 35.3458 14.8416 35.8439C15.0504 36.1621 15.9545 36.8933 15.9545 36.8933L16.1752 34.1776L16.7235 36.8493C16.7235 36.8493 17.5327 36.0189 17.7012 35.6793C18.7417 33.5792 16.0482 31.1609 15.9941 31.2123C15.974 31.1976 15.6904 31.4993 15.3723 31.9753C15.2346 30.5428 14.2934 29.1948 14.25 29.2217C14.2299 29.1978 13.6942 29.5558 13.1371 30.1396C13.4609 28.6189 12.7184 26.864 12.6668 26.8817C12.653 26.856 12.1173 27.0739 11.4967 27.4869C12.2512 25.9736 11.6401 23.8233 11.5822 23.8356C11.5715 23.8081 10.9962 23.9678 10.3159 24.3159C11.5206 22.8889 10.9679 20.2871 10.9038 20.2962C10.8963 20.2705 10.3964 20.3721 9.76578 20.6297C10.8019 19.2499 10.5234 16.9582 10.4631 16.9631C10.4587 16.9417 10.1273 16.9766 9.66015 17.0959C10.4675 15.8984 10.6033 14.2903 10.5542 14.2811C10.5542 14.2615 10.2732 14.234 9.85694 14.248C11.0843 13.1955 11.5237 11.2399 11.4697 11.2252C11.4804 11.1542 7.87765 10.5007 6.77232 12.5689Z" fill="url(#paint16_linear_687_4366)" stroke="url(#paint17_linear_687_4366)" stroke-width="0.150005" stroke-miterlimit="10"/>
<path d="M3.39027 18.2017C3.76752 18.2978 4.93887 18.2396 4.93887 18.2396L3.21108 16.0979L5.47456 17.7011C5.47456 17.7011 5.49217 16.5569 5.37962 16.1964C4.68234 13.9642 1.01487 13.9617 1.01487 14.0339C0.938795 14.0406 1.07397 17.6051 3.39027 18.2017Z" fill="url(#paint18_linear_687_4366)" stroke="url(#paint19_linear_687_4366)" stroke-width="0.150005" stroke-miterlimit="10"/>
<path d="M53.7306 29.937C53.3452 29.9003 52.265 29.4475 52.265 29.4475L54.6542 28.0254L51.9594 28.7597C51.9594 28.7597 52.353 27.6809 52.5882 27.3811C54.0387 25.5257 57.4754 26.7655 57.4528 26.8352C57.5175 26.8683 56.1148 30.1635 53.7306 29.937Z" fill="url(#paint20_linear_687_4366)" stroke="url(#paint21_linear_687_4366)" stroke-width="0.150005" stroke-miterlimit="10"/>
<path d="M51.8582 33.5586C51.4809 33.4772 50.463 32.902 50.463 32.902L53.0075 31.7675L50.241 32.1842C50.241 32.1842 50.7641 31.1593 51.0339 30.8888C52.7026 29.2158 55.9614 30.8466 55.9312 30.9133C55.9947 30.9524 54.1971 34.061 51.8582 33.5586Z" fill="url(#paint22_linear_687_4366)" stroke="url(#paint23_linear_687_4366)" stroke-width="0.150005" stroke-miterlimit="10"/>
<path d="M48.7945 36.65C48.4411 36.4964 47.5647 35.7321 47.5647 35.7321L50.2922 35.1202L47.4968 34.9844C47.4968 34.9844 48.2217 34.0836 48.5424 33.8719C50.5235 32.5612 53.3768 34.7996 53.3334 34.8583C53.3881 34.911 50.9813 37.6022 48.7945 36.65Z" fill="url(#paint24_linear_687_4366)" stroke="url(#paint25_linear_687_4366)" stroke-width="0.150005" stroke-miterlimit="10"/>
<path d="M54.7953 26.0615C54.408 26.0487 53.3008 25.6638 53.3008 25.6638L55.59 24.0942L52.9493 24.995C52.9493 24.995 53.2718 23.8935 53.4862 23.5802C54.8135 21.6392 58.3238 22.6623 58.3062 22.7358C58.3747 22.7633 57.1895 26.138 54.7953 26.0615Z" fill="url(#paint26_linear_687_4366)" stroke="url(#paint27_linear_687_4366)" stroke-width="0.150005" stroke-miterlimit="10"/>
<path d="M55.7347 22.2153C55.3481 22.2361 54.21 21.9467 54.21 21.9467L56.3478 20.1904L53.7988 21.3127C53.7988 21.3127 54.0183 20.1868 54.2069 19.8582C55.3537 17.8107 58.9432 18.5328 58.9319 18.6044C59.003 18.6258 58.1271 22.0892 55.7347 22.2153Z" fill="url(#paint28_linear_687_4366)" stroke="url(#paint29_linear_687_4366)" stroke-width="0.150005" stroke-miterlimit="10"/>
<path d="M45.5978 36.3755C47.8405 35.5543 50.0732 38.3826 50.0166 38.4304C50.0569 38.4915 47.0684 40.5574 45.1753 39.1316C44.8685 38.9015 44.2014 37.9592 44.2014 37.9592L46.9999 37.9892L44.3158 37.2181C44.3158 37.2181 45.2356 36.5077 45.5978 36.3755Z" fill="url(#paint30_linear_687_4366)" stroke="url(#paint31_linear_687_4366)" stroke-width="0.150005" stroke-miterlimit="10"/>
<path d="M52.9948 9.1033L53.0426 11.8269C53.0426 11.8269 52.0693 11.1832 51.8316 10.8858C50.3559 9.05006 52.4603 6.12876 52.5232 6.16732C52.5716 6.11163 55.4915 8.26742 54.661 10.455C54.527 10.8087 53.8027 11.7107 53.8027 11.7107L52.9948 9.1033Z" fill="url(#paint32_linear_687_4366)" stroke="url(#paint33_linear_687_4366)" stroke-width="0.150005" stroke-miterlimit="10"/>
<path d="M54.631 14.435L56.0557 12.0901L54.028 13.9681C54.028 13.9681 53.857 12.836 53.9199 12.464C54.3097 10.1632 57.9439 9.69323 57.9564 9.76482C58.0313 9.76482 58.3771 13.3139 56.1614 14.1994C55.803 14.3414 54.631 14.435 54.631 14.435Z" fill="url(#paint34_linear_687_4366)" stroke="url(#paint35_linear_687_4366)" stroke-width="0.150005" stroke-miterlimit="10"/>
<path d="M53.2283 12.5688C53.4075 12.9029 53.6056 14.0313 53.6056 14.0313L51.0787 12.8601L53.1818 14.6573C53.1818 14.6573 52.8844 14.7265 52.5424 14.7907C53.1454 15.0875 53.6691 15.536 53.9219 16.2122C54.0539 16.5671 54.0998 17.7108 54.0998 17.7108L51.7552 16.2275L53.5987 18.2774C53.5987 18.2774 53.1856 18.3184 52.7706 18.3386C53.1479 18.7101 53.4352 19.1702 53.5201 19.7387C53.5754 20.112 53.3818 21.2409 53.3818 21.2409L51.3905 19.3232L52.7681 21.6938C52.7681 21.6938 52.2613 21.6442 51.813 21.5677C52.3506 22.0328 52.7675 22.6349 52.8115 23.4004C52.8329 23.7767 52.538 24.8849 52.538 24.8849L50.7291 22.8044L51.8872 25.2839C51.8872 25.2839 51.2553 25.167 50.7882 25.033C51.4169 25.5617 51.9306 26.2672 51.9237 27.16C51.9237 27.537 51.554 28.625 51.554 28.625L49.884 26.4386L50.8787 28.9848C50.8787 28.9848 50.2745 28.8336 49.8193 28.6739C50.2324 29.2136 50.5008 29.8592 50.4046 30.5905C50.3556 30.9643 49.8583 32.0015 49.8583 32.0015L48.4687 29.6371L49.1434 32.2806C49.1434 32.2806 48.348 31.9789 47.9268 31.7427C48.1305 32.2806 48.1978 32.8643 47.9896 33.4561C47.8639 33.8128 47.161 34.7307 47.161 34.7307L46.2914 32.1417L46.4033 34.8635C46.4033 34.8635 45.9047 34.5483 45.5275 34.2614C45.5753 34.798 45.4853 35.3438 45.159 35.8419C44.9503 36.1601 44.0461 36.8914 44.0461 36.8914L43.8255 34.1757L43.2772 36.8473C43.2772 36.8473 42.468 36.0169 42.2995 35.6773C41.2589 33.5772 43.9525 31.1589 44.0065 31.2103C44.0267 31.1956 44.3102 31.4973 44.6284 31.9734C44.7661 30.5409 45.7073 29.1928 45.7507 29.2198C45.7708 29.1959 46.3065 29.5539 46.8636 30.1376C46.5398 28.617 47.2823 26.862 47.3339 26.8798C47.3477 26.8541 47.8834 27.0719 48.504 27.485C47.7526 25.9717 48.3606 23.8214 48.4184 23.8336C48.4291 23.8061 49.0044 23.9658 49.6847 24.314C48.4801 22.887 49.0327 20.2851 49.0969 20.2943C49.1044 20.2686 49.6043 20.3702 50.2349 20.6278C49.1987 19.2479 49.4804 16.9563 49.5376 16.9612C49.542 16.9398 49.8734 16.9747 50.3405 17.094C49.5332 15.8965 49.3974 14.2883 49.4464 14.2792C49.4464 14.2596 49.7275 14.232 50.1437 14.2461C48.9164 13.1936 48.4769 11.2379 48.531 11.2232C48.5203 11.1541 52.123 10.5006 53.2283 12.5688Z" fill="url(#paint36_linear_687_4366)" stroke="url(#paint37_linear_687_4366)" stroke-width="0.150005" stroke-miterlimit="10"/>
<path d="M56.6092 18.2011C56.232 18.2972 55.0606 18.2391 55.0606 18.2391L56.7884 16.0974L54.5249 17.7006C54.5249 17.7006 54.5073 16.5563 54.6199 16.1959C55.3159 13.9648 58.9808 13.9624 58.9852 14.0346C59.0607 14.0401 58.9255 17.6045 56.6092 18.2011Z" fill="url(#paint38_linear_687_4366)" stroke="url(#paint39_linear_687_4366)" stroke-width="0.150005" stroke-miterlimit="10"/>
<path d="M13.4383 5.69998V39.0495L29.9743 46.7597L46.2714 38.9333C46.3514 27.933 46.4311 16.933 46.5103 5.93312L30.034 0.587402L13.4383 5.69998Z" fill="url(#paint40_linear_687_4366)"/>
<path d="M29.9778 47.379L12.8646 39.4008V5.29065L30.0387 0L47.0865 5.53052L46.842 39.2784L29.9778 47.379ZM14.0114 38.6965L29.9708 46.138L45.7002 38.5839L45.9341 6.3358L30.0268 1.17611L14.0114 6.10817V38.6965Z" fill="url(#paint41_linear_687_4366)"/>
<path d="M29.976 45.6927L14.4623 38.3173V6.6352L30.0313 1.74536L30.1212 1.77535L45.4872 6.85427L45.2646 38.2035L29.976 45.6927ZM15.0351 37.9691L29.9716 45.0673L44.6937 37.8589L44.9106 7.25385L30.0269 2.33341L15.0351 7.04151V37.9691Z" fill="url(#paint42_linear_687_4366)"/>
<path d="M38.1148 28.5347L36.7649 27.0013L32.5391 32.1328L32.6409 34.3027L38.1148 28.5347ZM31.9632 24.884L32.4429 31.7283L36.7649 26.5674L36.3876 24.0078L37.4376 23.0587L37.2132 18.8236L29.9751 15.9678L22.7357 18.8236L22.5106 23.0587L23.5606 24.0078L23.1834 27.0013L21.8328 28.5347L27.3092 34.3027L27.9882 24.884L25.0614 23.4234L24.9866 21.0143L28.8848 23.3426L28.3655 27.5122L29.9751 28.8756L31.5884 27.5098L31.0628 23.3402L34.9673 21.0143L34.8925 23.4234L31.9632 24.884ZM27.0589 33.6289L22.2176 28.5274L23.1808 27.4339L27.1256 32.2246L27.0589 33.6289ZM29.6915 28.2722L28.6622 27.4002L29.169 23.3756C29.1756 23.3231 29.1665 23.2699 29.1429 23.2223C29.1192 23.1747 29.082 23.1347 29.0357 23.107L25.1375 20.7787C25.0939 20.7525 25.0437 20.7383 24.9924 20.7377C24.9412 20.737 24.8907 20.75 24.8464 20.7751C24.8021 20.8003 24.7656 20.8366 24.7409 20.8804C24.7163 20.9241 24.7042 20.9736 24.7062 21.0234L24.7779 23.4295C24.7794 23.4788 24.7945 23.5269 24.8216 23.5686C24.8487 23.6104 24.8868 23.6443 24.9319 23.6669L27.6908 25.0437L27.2017 31.8752L23.3663 27.2179L23.4009 27.1787C23.4373 27.1373 23.4605 27.0865 23.4675 27.0325L23.8448 24.039C23.8504 23.9956 23.8453 23.9515 23.8299 23.9104C23.8144 23.8693 23.7892 23.8324 23.7561 23.8028L22.8011 22.9436L23.0098 19.0133L29.6915 16.3777V28.2722ZM29.2514 13.0354C29.4945 13.0159 29.738 13.0061 29.982 13.0061C30.2259 13.0061 30.4695 13.0159 30.7126 13.0354L31.1791 13.0734L31.8229 7.32135H28.1435L28.7874 13.0734L29.2514 13.0354ZM31.574 7.54042L30.9829 12.8433L30.7314 12.8231C30.4831 12.8029 30.2284 12.7925 29.982 12.7925C29.7355 12.7925 29.479 12.8029 29.2325 12.8231L28.981 12.8433L28.3881 7.54409L31.574 7.54042ZM32.4353 6.76573H27.5311L27.7543 6.98296H32.2146L32.4353 6.76573ZM28.5623 13.0734L27.9184 7.32135C27.801 7.12732 27.6708 6.9409 27.5286 6.76329L27.7895 10.4134L27.3356 6.54911C27.3023 6.51546 27.2689 6.48792 27.2369 6.45855H32.7271C32.695 6.48547 32.6642 6.51546 32.6284 6.54911L32.1744 10.4134L32.4353 6.76329C32.2931 6.9409 32.1629 7.12732 32.0455 7.32135L31.4017 13.0734C31.4017 13.0734 33.2068 8.19273 33.3363 11.7731L34.1091 8.95212C34.0907 8.4563 34.0342 7.96253 33.9399 7.47495L33.3043 9.82043L33.8444 7.09127C33.7576 6.79939 33.6425 6.54605 33.4904 6.39675L32.8208 9.33395L33.3124 6.27987C33.2876 6.27105 33.2619 6.26469 33.2357 6.2609V6.24683H26.7307V6.2609C26.7046 6.26469 26.6789 6.27105 26.654 6.27987L27.1457 9.33395L26.4761 6.39675C26.3239 6.54605 26.2089 6.79939 26.1221 7.09127L26.6679 9.82043L26.0322 7.47495C25.9379 7.96253 25.8814 8.4563 25.8631 8.95212L26.6358 11.7731C26.7615 8.19273 28.5648 13.0746 28.5648 13.0746L28.5623 13.0734ZM38.5235 29.023L29.9725 37.9191L21.4216 29.023L19.6385 30.7584L29.9751 41.3183L40.3072 30.7584L38.5235 29.023ZM29.6915 40.6281L20.0396 30.7633L21.4229 29.4171L29.6915 38.028V40.6281ZM22.4836 18.5115L29.9939 15.5566L37.4854 18.5115L37.7181 22.8935L38.2802 21.1324V19.5414C38.2802 16.0706 36.1022 13.0257 32.961 11.781C32.8334 11.7303 32.6916 11.7241 32.5598 11.7634C32.428 11.8028 32.3143 11.8853 32.2379 11.997C32.0342 12.2969 31.7978 12.7368 31.5362 13.6926L30.7308 13.6272C30.2001 13.5834 29.6664 13.5834 29.1357 13.6272L28.3655 13.6896C28.1102 12.7521 27.8776 12.3177 27.6739 12.0184C27.5975 11.9065 27.4836 11.8239 27.3516 11.7846C27.2197 11.7453 27.0778 11.7519 26.9502 11.803C23.8385 13.0605 21.6888 16.0865 21.6888 19.5383V21.1293L22.2509 22.8904L22.4836 18.5115ZM27.6393 13.1266C27.6941 13.2641 27.7345 13.4066 27.76 13.5519C26.8728 13.8548 26.0089 14.4141 25.2029 15.2151C24.9822 15.1566 24.7511 15.1459 24.5257 15.1839C25.3824 14.2685 26.4495 13.5635 27.6399 13.1266H27.6393ZM27.5167 12.8776C26.0954 13.4033 24.8492 14.2978 23.9133 15.4642C23.7306 15.6016 23.5644 15.7586 23.4179 15.9323C24.2076 14.7054 25.4626 13.4154 27.4192 12.7374C27.455 12.782 27.4878 12.8288 27.5173 12.8776H27.5167ZM26.605 12.5325C26.6911 12.4782 26.7913 12.449 26.8939 12.4483C26.9964 12.4475 27.0971 12.4752 27.1841 12.5282C24.4805 13.5207 23.1035 15.649 22.4427 17.1659C23.4575 13.8224 26.605 12.5325 26.605 12.5325Z" fill="url(#paint43_linear_687_4366)"/>
<path d="M21.8297 35.8705L16.4036 34.5243C16.4036 34.5243 16.8104 36.767 18.6734 37.0436C20.7659 37.3544 22.2201 37.4927 22.2201 37.4927L17.6806 38.0434C17.6806 38.0434 17.9321 38.626 19.3738 39.0225C20.0411 39.1975 20.7428 39.2068 21.4147 39.0494L22.7521 38.6315C22.7521 38.6315 22.5509 39.6436 23.4965 39.9428H24.4893C24.4893 39.9428 24.1705 41.3582 26.3334 41.3123C27.0879 41.2958 28.9817 41.3123 28.9817 41.3123L17.8221 29.8994C17.8221 29.8994 15.5385 32.3495 21.8297 35.8705ZM43.5453 34.5243L38.1192 35.8705C44.4067 32.3495 42.1268 29.8994 42.1268 29.8994L30.9679 41.3123C30.9679 41.3123 32.8591 41.2958 33.6155 41.3123C35.779 41.3582 35.4596 39.9428 35.4596 39.9428H36.4524C37.3955 39.6436 37.1975 38.6315 37.1975 38.6315L38.5348 39.0494C39.2067 39.2067 39.9085 39.1975 40.5757 39.0225C42.0187 38.6272 42.2689 38.0434 42.2689 38.0434L37.7294 37.4927C37.7294 37.4927 39.1831 37.3544 41.2755 37.0436C43.1404 36.7694 43.5453 34.5243 43.5453 34.5243Z" fill="url(#paint44_linear_687_4366)"/>
<path d="M20.8906 53.3626H20.2298L19.7161 52.1632L19.5193 53.3626H19.5149C19.4956 53.3917 19.4706 53.4169 19.4413 53.4366C19.3986 53.4715 19.3445 53.5094 19.281 53.5517C19.2175 53.5939 19.1452 53.6379 19.066 53.6844C18.9868 53.7309 18.9113 53.7726 18.8384 53.8099C18.7717 53.8447 18.7031 53.8758 18.6328 53.9029C18.5872 53.9235 18.5382 53.9362 18.4882 53.9402L18.9704 50.9712H20.1921L20.7189 52.1797L21.6382 50.9718H22.9271L22.5385 53.3626H21.6004L21.7972 52.1632L20.8906 53.3626Z" fill="white"/>
<path d="M23.4991 53.3178C23.4607 53.2856 23.4282 53.2473 23.4029 53.2046C23.3759 53.1602 23.3548 53.1127 23.34 53.0632C23.3272 53.0195 23.3234 52.9738 23.3287 52.9286L23.5701 51.438C23.5551 51.4133 23.5378 51.3899 23.5186 51.3682C23.4903 51.3333 23.4601 51.2936 23.4274 51.2458C23.3945 51.2006 23.3647 51.1534 23.3381 51.1045C23.3137 51.0626 23.2971 51.0168 23.2891 50.9692H24.5862L24.3183 52.608C24.3156 52.6266 24.3206 52.6455 24.3322 52.6606C24.3359 52.6678 24.3415 52.674 24.3485 52.6785C24.3554 52.683 24.3634 52.6857 24.3718 52.6863H25.4306C25.4395 52.6853 25.448 52.6826 25.4557 52.6781C25.4634 52.6737 25.4701 52.6677 25.4752 52.6606C25.4889 52.6457 25.4982 52.6275 25.5022 52.608L25.7701 50.9692H26.7076L26.3932 52.9274C26.3843 52.9755 26.3653 53.0214 26.3372 53.062C26.3051 53.1122 26.2685 53.1595 26.2278 53.2034C26.1887 53.246 26.1446 53.284 26.0964 53.3166C26.0599 53.3431 26.0162 53.3589 25.9707 53.3618H23.6129C23.5708 53.3608 23.5304 53.3452 23.4991 53.3178Z" fill="white"/>
<path d="M29.0912 53.3632H28.4303L27.9167 52.1638L27.7199 53.3632H27.7155C27.6962 53.3923 27.6712 53.4175 27.6419 53.4372C27.5985 53.4721 27.5451 53.51 27.4809 53.5523C27.4168 53.5945 27.3458 53.6385 27.2665 53.685C27.1873 53.7316 27.1119 53.7732 27.0389 53.8105C26.9723 53.8456 26.9037 53.8768 26.8333 53.9041C26.7878 53.9247 26.7388 53.9374 26.6887 53.9414L27.1697 50.9724H28.3888L28.9157 52.181L29.8356 50.9724H31.1308L30.7422 53.3632H29.801L29.9978 52.1638L29.0912 53.3632Z" fill="white"/>
<path d="M34.5568 50.9723C34.5992 50.9736 34.6396 50.99 34.6706 51.0182C34.7091 51.0503 34.7416 51.0886 34.7668 51.1314C34.7944 51.1761 34.8156 51.2243 34.8296 51.2746C34.8423 51.3177 34.8461 51.3628 34.841 51.4074L34.7649 51.8767C34.7584 51.9037 34.7455 51.9289 34.7272 51.9501C34.7039 51.9802 34.6785 52.0086 34.6511 52.0352C34.6228 52.0627 34.5945 52.089 34.5662 52.1135C34.5443 52.133 34.5212 52.1512 34.497 52.168C34.5144 52.1859 34.5308 52.2047 34.5461 52.2243C34.567 52.2508 34.588 52.2783 34.609 52.3069C34.6272 52.3342 34.6436 52.3626 34.658 52.3919C34.6698 52.4124 34.675 52.4359 34.6731 52.4593L34.5976 52.9286C34.5885 52.9767 34.5695 53.0225 34.5417 53.0632C34.5094 53.1133 34.4728 53.1606 34.4323 53.2046C34.3931 53.2474 34.3488 53.2854 34.3002 53.3178C34.2638 53.3446 34.2201 53.3603 34.1745 53.3631H31.4709L31.7853 51.438C31.7702 51.4133 31.753 51.3899 31.7337 51.3682C31.7054 51.3333 31.6752 51.2936 31.6425 51.2458C31.6095 51.2008 31.5796 51.1535 31.5533 51.1045C31.5289 51.0626 31.5123 51.0168 31.5042 50.9692L34.5568 50.9723ZM33.6765 52.507H32.7523L32.8636 51.8339H33.779C33.7936 51.8291 33.8061 51.8199 33.8148 51.8076C33.826 51.7945 33.8351 51.7798 33.8419 51.7641L33.8507 51.725C33.8534 51.7069 33.8494 51.6884 33.8394 51.6729C33.8361 51.6657 33.8309 51.6594 33.8242 51.6549C33.8176 51.6504 33.8098 51.6477 33.8016 51.6472H32.6812L32.5115 52.6875H33.6325C33.6414 52.6866 33.65 52.6838 33.6577 52.6793C33.6654 52.6749 33.672 52.6689 33.6772 52.6618C33.6906 52.6469 33.6998 52.6287 33.7036 52.6092L33.713 52.57C33.7133 52.5574 33.7101 52.5449 33.7038 52.5338C33.6975 52.5227 33.6883 52.5135 33.6772 52.507H33.6765Z" fill="white"/>
<path d="M37.2007 53.0767H36.0753L35.8867 53.3637H34.8807L36.1489 51.4471C36.1361 51.4249 36.1205 51.4043 36.1023 51.3859C36.074 51.3523 36.0395 51.3119 36.0086 51.2636C35.9778 51.2152 35.942 51.1663 35.9124 51.1161C35.8855 51.0729 35.8688 51.0244 35.8634 50.9741H37.4623L38.2658 53.3649H37.2988L37.2007 53.0767ZM36.5091 52.4078H36.987L36.8304 51.9183L36.5091 52.4078Z" fill="white"/>
<path d="M39.089 50.9724H40.0265L39.6379 53.3632C39.6186 53.3923 39.5936 53.4175 39.5643 53.4372C39.5121 53.4782 39.4578 53.5166 39.4015 53.5523C39.3386 53.5945 39.2638 53.6385 39.1846 53.685C39.1054 53.7316 39.0293 53.7732 38.9551 53.8105C38.8809 53.8478 38.8117 53.8796 38.7495 53.9041C38.7044 53.9248 38.6558 53.9375 38.6061 53.9414L39.089 50.9724Z" fill="white"/>
<path d="M15.0277 55.0286L15.4565 56.4537L16.3411 55.0286H17.3503L15.796 57.4187H14.8806L14.7284 56.9904L14.4386 57.4187H13.5225L12.7416 55.0286H13.7061L14.121 56.4537L14.3845 56.0321L14.0852 55.0286H15.0277Z" fill="white"/>
<path d="M19.0682 57.1307H17.9433L17.7547 57.4177H16.7462L18.0144 55.5012C18.0017 55.4789 17.986 55.4584 17.9679 55.44C17.9396 55.4064 17.9081 55.366 17.8742 55.3176C17.8402 55.2693 17.8075 55.2203 17.778 55.1695C17.7505 55.1271 17.7336 55.0788 17.7289 55.0288H19.3278L20.1289 57.4177H19.1669L19.0682 57.1307ZM18.3766 56.4619H18.8544L18.6978 55.9724L18.3766 56.4619Z" fill="white"/>
<path d="M20.9565 55.0286H23.6601C23.7024 55.0297 23.7429 55.0458 23.7739 55.0738C23.8124 55.1059 23.845 55.1442 23.8701 55.187C23.8975 55.2319 23.9187 55.28 23.933 55.3302C23.9456 55.3734 23.9494 55.4185 23.9443 55.463L23.8236 56.2016C23.8109 56.2845 23.7916 56.3664 23.7657 56.4464C23.7444 56.5111 23.7085 56.5705 23.6607 56.6202C23.61 56.6692 23.5479 56.7057 23.4797 56.7266C23.3899 56.7539 23.2964 56.7679 23.2024 56.7682H23.1577L23.7563 57.4199H22.6535L21.8588 56.5681L21.9298 56.1398H22.8365C22.878 56.1398 22.9037 56.1135 22.9125 56.0615L22.9572 55.7831C22.9601 55.765 22.9561 55.7464 22.9459 55.731C22.9425 55.7238 22.9373 55.7175 22.9307 55.7129C22.924 55.7083 22.9163 55.7055 22.9081 55.7047H21.7871L21.5054 57.4218C21.4861 57.4509 21.4611 57.4761 21.4318 57.4958C21.3798 57.537 21.3254 57.5754 21.269 57.6109C21.2061 57.6531 21.1313 57.6971 21.0521 57.7436C20.9729 57.7902 20.8968 57.8318 20.8226 57.8697C20.7484 57.9076 20.6792 57.9382 20.617 57.9633C20.5718 57.9836 20.5233 57.9961 20.4736 58L20.9565 55.0286Z" fill="white"/>
<path d="M24.4791 55.0286H27.1858C27.2281 55.0298 27.2685 55.0459 27.2996 55.0738C27.3382 55.1059 27.3707 55.1442 27.3958 55.187C27.4232 55.2319 27.4444 55.28 27.4587 55.3302C27.4714 55.3733 27.4751 55.4185 27.4694 55.463L27.3487 56.2016C27.3366 56.2847 27.3173 56.3665 27.2908 56.4464C27.2699 56.5114 27.234 56.5708 27.1858 56.6202C27.1354 56.6694 27.0735 56.7059 27.0054 56.7266C26.9156 56.7539 26.8221 56.7679 26.7281 56.7682H26.6835L27.282 57.4199H26.1761L25.3813 56.5681L25.453 56.1398H26.3597C26.4011 56.1398 26.4263 56.1135 26.4351 56.0615L26.4797 55.7831C26.4826 55.765 26.4788 55.7466 26.4691 55.731C26.4657 55.7238 26.4605 55.7175 26.4539 55.7129C26.4472 55.7083 26.4395 55.7055 26.4313 55.7047H25.3103L25.0286 57.4218C25.0093 57.4509 24.9843 57.4761 24.955 57.4958C24.903 57.537 24.8486 57.5754 24.7922 57.6109C24.7293 57.6531 24.6545 57.6971 24.5753 57.7436C24.4961 57.7902 24.42 57.8318 24.3452 57.8697C24.2703 57.9076 24.2024 57.9382 24.1402 57.9633C24.0949 57.9836 24.0464 57.996 23.9968 58L24.4791 55.0286Z" fill="white"/>
<path d="M28.0022 55.0286H28.9403L28.5542 57.4187C28.5345 57.4475 28.5096 57.4726 28.4807 57.4928C28.4286 57.534 28.3742 57.5724 28.3178 57.6078C28.2518 57.65 28.1801 57.6941 28.1009 57.7406C28.0217 57.7871 27.9456 57.8287 27.8708 57.8666C27.796 57.9046 27.7281 57.9352 27.6658 57.9603C27.6206 57.9805 27.5721 57.9929 27.5225 57.997L28.0022 55.0286Z" fill="white"/>
<path d="M29.3706 57.4186C29.3282 57.4171 29.2878 57.4008 29.2568 57.3727C29.2183 57.3408 29.1858 57.3027 29.1606 57.2601C29.1331 57.216 29.112 57.1684 29.0977 57.1188C29.0843 57.0751 29.0805 57.0293 29.0864 56.9841L29.3316 55.4629C29.3418 55.4157 29.3608 55.3707 29.3875 55.3301C29.4191 55.2797 29.4555 55.2324 29.4963 55.1888C29.5353 55.1458 29.5797 55.1078 29.6284 55.0756C29.6647 55.0486 29.7085 55.0328 29.7541 55.0303H32.1075C32.15 55.0315 32.1906 55.0476 32.2219 55.0756C32.2611 55.1073 32.2941 55.1457 32.3194 55.1888C32.3473 55.2333 32.3685 55.2815 32.3823 55.332C32.3952 55.375 32.399 55.4202 32.3936 55.4647L32.1477 56.986C32.1388 57.0341 32.1198 57.0799 32.0918 57.1206C32.0602 57.1711 32.0236 57.2185 31.9824 57.2619C31.9434 57.3045 31.8993 57.3423 31.851 57.3745C31.8147 57.4016 31.7709 57.4176 31.7252 57.4204L29.3706 57.4186ZM31.4071 55.7799C31.41 55.7618 31.406 55.7433 31.3958 55.7279C31.3926 55.7205 31.3873 55.7142 31.3807 55.7096C31.374 55.7049 31.3662 55.7021 31.358 55.7015H30.2967C30.2872 55.7028 30.278 55.7059 30.2699 55.7109C30.2618 55.7159 30.2548 55.7225 30.2496 55.7303C30.236 55.7444 30.2261 55.7614 30.2206 55.7799L30.0735 56.6665C30.0705 56.6846 30.0743 56.703 30.0842 56.7186C30.088 56.7264 30.0941 56.7331 30.1016 56.7378C30.1092 56.7424 30.118 56.7449 30.127 56.7449H31.1851C31.1941 56.7441 31.2029 56.7413 31.2106 56.7368C31.2183 56.7322 31.2249 56.726 31.2298 56.7186C31.2435 56.704 31.2529 56.686 31.2568 56.6665L31.4071 55.7799Z" fill="white"/>
<path d="M32.9271 55.0286H35.6307C35.6732 55.0298 35.7139 55.0458 35.7452 55.0738C35.7835 55.106 35.8158 55.1443 35.8407 55.187C35.8687 55.2316 35.8898 55.2798 35.9036 55.3302C35.9162 55.3734 35.9201 55.4185 35.9149 55.463L35.7942 56.2016C35.7819 56.2846 35.7625 56.3665 35.7364 56.4464C35.7152 56.5112 35.6793 56.5707 35.6314 56.6202C35.5807 56.6693 35.5186 56.7058 35.4503 56.7266C35.3607 56.7539 35.2675 56.7679 35.1736 56.7682H35.129L35.7269 57.4199H34.6241L33.8294 56.5669L33.9004 56.1386H34.8071C34.8492 56.1386 34.8744 56.1123 34.8832 56.0603L34.9278 55.7818C34.9307 55.7637 34.9267 55.7452 34.9165 55.7298C34.9133 55.7225 34.9081 55.7162 34.9014 55.7115C34.8948 55.7069 34.8869 55.7041 34.8788 55.7035H33.7577L33.4767 57.4206C33.4568 57.4495 33.4317 57.4746 33.4025 57.4946C33.3505 57.536 33.2961 57.5744 33.2396 57.6096C33.1767 57.6519 33.1019 57.6959 33.0233 57.7424C32.9447 57.7889 32.8674 57.8305 32.7932 57.8685C32.719 57.9064 32.6499 57.937 32.5876 57.9621C32.5426 57.9824 32.4943 57.9948 32.4449 57.9988L32.9271 55.0286Z" fill="white"/>
<path d="M36.2996 57.3722C36.2611 57.3403 36.2286 57.3022 36.2034 57.2596C36.1762 57.2154 36.1551 57.1678 36.1405 57.1183C36.1276 57.0746 36.124 57.0288 36.1298 56.9836L36.1965 56.5792H37.1346L37.1163 56.671C37.114 56.689 37.118 56.7074 37.1277 56.723C37.131 56.7301 37.1363 56.7363 37.1429 56.7408C37.1495 56.7454 37.1573 56.7481 37.1654 56.7487H38.1167L36.4467 56.1924C36.4108 56.1678 36.3782 56.1388 36.3499 56.1062C36.3196 56.0733 36.3002 56.0324 36.2939 55.9887L36.3788 55.463C36.3888 55.4157 36.4077 55.3707 36.4348 55.3302C36.4664 55.2792 36.5031 55.2312 36.5442 55.187C36.5832 55.1441 36.6275 55.1061 36.6762 55.0738C36.7125 55.0468 36.7563 55.031 36.802 55.0286H39.0441C39.0864 55.0298 39.1268 55.0459 39.1579 55.0738C39.1964 55.1058 39.2287 55.1441 39.2534 55.187C39.2814 55.2316 39.3025 55.2798 39.3163 55.3302C39.3296 55.3732 39.3334 55.4185 39.3276 55.463L39.2648 55.8669H38.3248L38.338 55.7757C38.3409 55.7577 38.3371 55.7393 38.3273 55.7237C38.3239 55.7164 38.3186 55.71 38.3118 55.7054C38.3051 55.7008 38.2972 55.698 38.289 55.6974H37.3377L39.0082 56.2536C39.0467 56.2802 39.0819 56.311 39.1132 56.3454C39.1414 56.3771 39.1591 56.4164 39.1642 56.458L39.0793 56.9843C39.0706 57.0324 39.0518 57.0782 39.024 57.1189C38.992 57.1691 38.9554 57.2164 38.9146 57.2602C38.8754 57.3028 38.8311 57.3407 38.7825 57.3728C38.7462 57.3999 38.7024 57.4159 38.6568 57.4187H36.4128C36.3705 57.4169 36.3304 57.4004 36.2996 57.3722Z" fill="white"/>
<path d="M41.968 57.4187C41.9487 57.4479 41.9237 57.473 41.8944 57.4928C41.8424 57.534 41.788 57.5724 41.7316 57.6078C41.6687 57.65 41.5939 57.6941 41.5147 57.7406C41.4354 57.7871 41.3594 57.8287 41.2845 57.8666C41.2097 57.9046 41.1418 57.9352 41.0796 57.9603C41.0343 57.9805 40.9858 57.9929 40.9362 57.997L41.4185 55.0286H44.2635L44.1566 55.7017H42.2604L42.2289 55.8889H43.6625L43.5512 56.5584H42.1157L41.9768 57.4187H41.968Z" fill="white"/>
<path d="M47.0455 57.4187H44.6921C44.6495 57.4172 44.6089 57.401 44.5776 57.3728C44.5391 57.3411 44.5068 57.303 44.4821 57.2602C44.4544 57.2162 44.4332 57.1686 44.4192 57.1189C44.4064 57.0751 44.4026 57.0294 44.4079 56.9843L44.6537 55.463C44.6634 55.4157 44.6824 55.3706 44.7097 55.3302C44.7409 55.2789 44.7776 55.2309 44.8191 55.187C44.858 55.1443 44.9021 55.1063 44.9505 55.0738C44.9868 55.0469 45.0306 55.0311 45.0762 55.0286H47.4296C47.4719 55.0298 47.5123 55.0459 47.5434 55.0738C47.582 55.1059 47.6145 55.1442 47.6396 55.187C47.667 55.2319 47.6882 55.28 47.7025 55.3302C47.7152 55.3733 47.7189 55.4185 47.7132 55.463L47.6371 55.9452H46.7015L46.7279 55.78C46.7308 55.762 46.727 55.7435 46.7173 55.728C46.7139 55.7206 46.7085 55.7143 46.7018 55.7097C46.695 55.7051 46.6871 55.7023 46.6789 55.7017H45.6207C45.6112 55.7027 45.6021 55.7058 45.594 55.7108C45.586 55.7158 45.5792 55.7225 45.5742 55.7304C45.5605 55.7444 45.5503 55.7614 45.5446 55.78L45.3975 56.6667C45.3945 56.6848 45.3985 56.7033 45.4088 56.7187C45.4125 56.7265 45.4185 56.7332 45.426 56.7378C45.4334 56.7425 45.4421 56.745 45.451 56.745H46.5098C46.5187 56.744 46.5273 56.7411 46.535 56.7366C46.5427 56.732 46.5493 56.7259 46.5544 56.7187C46.5678 56.7039 46.5769 56.686 46.5808 56.6667L46.6079 56.5021H47.5453L47.4699 56.9843C47.4603 57.0322 47.4413 57.078 47.4139 57.1189C47.3819 57.1691 47.3453 57.2164 47.3045 57.2602C47.2653 57.3028 47.221 57.3407 47.1725 57.3728C47.1358 57.4001 47.0916 57.4161 47.0455 57.4187Z" fill="white"/>
<path d="M20.8906 53.3626H20.2298L19.7161 52.1632L19.5193 53.3626H19.5149C19.4956 53.3917 19.4706 53.4169 19.4413 53.4366C19.3986 53.4715 19.3445 53.5094 19.281 53.5517C19.2175 53.5939 19.1452 53.6379 19.066 53.6844C18.9868 53.7309 18.9113 53.7726 18.8384 53.8099C18.7717 53.8447 18.7031 53.8758 18.6328 53.9029C18.5872 53.9235 18.5382 53.9362 18.4882 53.9402L18.9704 50.9712H20.1921L20.7189 52.1797L21.6382 50.9718H22.9271L22.5385 53.3626H21.6004L21.7972 52.1632L20.8906 53.3626Z" stroke="url(#paint45_linear_687_4366)" stroke-width="0.150005" stroke-miterlimit="10"/>
<path d="M29.0912 53.3632H28.4303L27.9167 52.1638L27.7199 53.3632H27.7155C27.6962 53.3923 27.6712 53.4175 27.6419 53.4372C27.5985 53.4721 27.5451 53.51 27.4809 53.5523C27.4168 53.5945 27.3458 53.6385 27.2665 53.685C27.1873 53.7316 27.1119 53.7732 27.0389 53.8105C26.9723 53.8456 26.9037 53.8768 26.8333 53.9041C26.7878 53.9247 26.7388 53.9374 26.6887 53.9414L27.1697 50.9724H28.3888L28.9157 52.181L29.8356 50.9724H31.1308L30.7422 53.3632H29.801L29.9978 52.1638L29.0912 53.3632Z" stroke="url(#paint46_linear_687_4366)" stroke-width="0.150005" stroke-miterlimit="10"/>
<path d="M37.2007 53.0767H36.0753L35.8867 53.3637H34.8807L36.1489 51.4471C36.1361 51.4249 36.1205 51.4043 36.1023 51.3859C36.074 51.3523 36.0395 51.3119 36.0086 51.2636C35.9778 51.2152 35.942 51.1663 35.9124 51.1161C35.8855 51.0729 35.8688 51.0244 35.8634 50.9741H37.4623L38.2658 53.3649H37.2988L37.2007 53.0767ZM36.5091 52.4078H36.987L36.8304 51.9183L36.5091 52.4078Z" stroke="url(#paint47_linear_687_4366)" stroke-width="0.150005" stroke-miterlimit="10"/>
<path d="M15.0277 55.0286L15.4565 56.4537L16.3411 55.0286H17.3503L15.796 57.4187H14.8806L14.7284 56.9904L14.4386 57.4187H13.5225L12.7416 55.0286H13.7061L14.121 56.4537L14.3845 56.0321L14.0852 55.0286H15.0277Z" stroke="url(#paint48_linear_687_4366)" stroke-width="0.150005" stroke-miterlimit="10"/>
<path d="M20.9565 55.0286H23.6601C23.7024 55.0297 23.7429 55.0458 23.7739 55.0738C23.8124 55.1059 23.845 55.1442 23.8701 55.187C23.8975 55.2319 23.9187 55.28 23.933 55.3302C23.9456 55.3734 23.9494 55.4185 23.9443 55.463L23.8236 56.2016C23.8109 56.2845 23.7916 56.3664 23.7657 56.4464C23.7444 56.5111 23.7085 56.5705 23.6607 56.6202C23.61 56.6692 23.5479 56.7057 23.4797 56.7266C23.3899 56.7539 23.2964 56.7679 23.2024 56.7682H23.1577L23.7563 57.4199H22.6535L21.8588 56.5681L21.9298 56.1398H22.8365C22.878 56.1398 22.9037 56.1135 22.9125 56.0615L22.9572 55.7831C22.9601 55.765 22.9561 55.7464 22.9459 55.731C22.9425 55.7238 22.9373 55.7175 22.9307 55.7129C22.924 55.7083 22.9163 55.7055 22.9081 55.7047H21.7871L21.5054 57.4218C21.4861 57.4509 21.4611 57.4761 21.4318 57.4958C21.3798 57.537 21.3254 57.5754 21.269 57.6109C21.2061 57.6531 21.1313 57.6971 21.0521 57.7436C20.9729 57.7902 20.8968 57.8318 20.8226 57.8697C20.7484 57.9076 20.6792 57.9382 20.617 57.9633C20.5718 57.9836 20.5233 57.9961 20.4736 58L20.9565 55.0286Z" stroke="url(#paint49_linear_687_4366)" stroke-width="0.150005" stroke-miterlimit="10"/>
<path d="M24.4791 55.0286H27.1858C27.2281 55.0298 27.2685 55.0459 27.2996 55.0738C27.3381 55.1059 27.3707 55.1442 27.3958 55.187C27.4232 55.2319 27.4444 55.28 27.4587 55.3302C27.4714 55.3733 27.4751 55.4185 27.4694 55.463L27.3487 56.2016C27.3366 56.2847 27.3173 56.3665 27.2908 56.4464C27.2699 56.5114 27.234 56.5708 27.1858 56.6202C27.1354 56.6694 27.0735 56.7059 27.0054 56.7266C26.9156 56.7539 26.8221 56.7679 26.7281 56.7682H26.6835L27.282 57.4199H26.1761L25.3813 56.5681L25.453 56.1398H26.3597C26.4011 56.1398 26.4263 56.1135 26.4351 56.0615L26.4797 55.7831C26.4826 55.765 26.4788 55.7466 26.4691 55.731C26.4657 55.7238 26.4605 55.7175 26.4539 55.7129C26.4472 55.7083 26.4395 55.7055 26.4313 55.7047H25.3103L25.0286 57.4218C25.0093 57.4509 24.9843 57.4761 24.955 57.4958C24.903 57.537 24.8486 57.5754 24.7922 57.6109C24.7293 57.6531 24.6545 57.6971 24.5753 57.7436C24.4961 57.7902 24.42 57.8318 24.3452 57.8697C24.2703 57.9076 24.2024 57.9382 24.1402 57.9633C24.0949 57.9836 24.0464 57.996 23.9968 58L24.4791 55.0286Z" stroke="url(#paint50_linear_687_4366)" stroke-width="0.150005" stroke-miterlimit="10"/>
<path d="M28.0022 55.0286H28.9403L28.5542 57.4187C28.5345 57.4475 28.5096 57.4726 28.4807 57.4928C28.4286 57.534 28.3742 57.5724 28.3178 57.6078C28.2518 57.65 28.1801 57.6941 28.1009 57.7406C28.0217 57.7871 27.9456 57.8287 27.8708 57.8666C27.796 57.9046 27.7281 57.9352 27.6658 57.9603C27.6206 57.9805 27.5721 57.9929 27.5225 57.997L28.0022 55.0286Z" stroke="url(#paint51_linear_687_4366)" stroke-width="0.150005" stroke-miterlimit="10"/>
<path d="M29.3706 57.4186C29.3282 57.4171 29.2878 57.4008 29.2568 57.3727C29.2183 57.3408 29.1858 57.3027 29.1606 57.2601C29.1331 57.216 29.112 57.1684 29.0977 57.1188C29.0843 57.0751 29.0805 57.0293 29.0864 56.9841L29.3316 55.4629C29.3418 55.4157 29.3608 55.3707 29.3875 55.3301C29.4191 55.2797 29.4555 55.2324 29.4963 55.1888C29.5353 55.1458 29.5797 55.1078 29.6284 55.0756C29.6647 55.0486 29.7085 55.0328 29.7541 55.0303H32.1075C32.15 55.0315 32.1906 55.0476 32.2219 55.0756C32.2611 55.1073 32.2941 55.1457 32.3194 55.1888C32.3473 55.2333 32.3685 55.2815 32.3823 55.332C32.3952 55.375 32.399 55.4202 32.3936 55.4647L32.1477 56.986C32.1388 57.0341 32.1198 57.0799 32.0918 57.1206C32.0602 57.1711 32.0236 57.2185 31.9824 57.2619C31.9434 57.3045 31.8993 57.3423 31.851 57.3745C31.8147 57.4016 31.7709 57.4176 31.7252 57.4204L29.3706 57.4186ZM31.4071 55.7799C31.41 55.7618 31.406 55.7433 31.3958 55.7279C31.3926 55.7205 31.3873 55.7142 31.3807 55.7096C31.374 55.7049 31.3662 55.7021 31.358 55.7015H30.2967C30.2872 55.7028 30.278 55.7059 30.2699 55.7109C30.2618 55.7159 30.2548 55.7225 30.2496 55.7303C30.236 55.7444 30.2261 55.7614 30.2206 55.7799L30.0735 56.6665C30.0705 56.6846 30.0743 56.703 30.0842 56.7186C30.088 56.7264 30.0941 56.7331 30.1016 56.7378C30.1092 56.7424 30.118 56.7449 30.127 56.7449H31.1851C31.1941 56.7441 31.2029 56.7413 31.2106 56.7368C31.2183 56.7322 31.2249 56.726 31.2298 56.7186C31.2435 56.704 31.2529 56.686 31.2568 56.6665L31.4071 55.7799Z" stroke="url(#paint52_linear_687_4366)" stroke-width="0.150005" stroke-miterlimit="10"/>
<defs>
<linearGradient id="paint0_linear_687_4366" x1="3.14355" y1="1.66337" x2="6.42907" y2="43.7983" gradientUnits="userSpaceOnUse">
<stop offset="0.03" stop-color="#B71F25"/>
<stop offset="1" stop-color="#3D1A0B"/>
</linearGradient>
<linearGradient id="paint1_linear_687_4366" x1="3.66918" y1="28.9708" x2="7.17027" y2="26.8937" gradientUnits="userSpaceOnUse">
<stop offset="0.02" stop-color="#8C8C8C"/>
<stop offset="0.05" stop-color="#9B9B9B"/>
<stop offset="0.1" stop-color="#B9BAB9"/>
<stop offset="0.16" stop-color="#CFCFCF"/>
<stop offset="0.22" stop-color="#DCDDDC"/>
<stop offset="0.27" stop-color="#E0E1E0"/>
<stop offset="0.4" stop-color="#BBBCBB"/>
<stop offset="0.54" stop-color="#939393"/>
<stop offset="0.58" stop-color="#878888"/>
<stop offset="0.67" stop-color="#747575"/>
<stop offset="0.73" stop-color="#6D6E6E"/>
<stop offset="0.9" stop-color="#6F7070"/>
<stop offset="0.96" stop-color="#767676"/>
<stop offset="1" stop-color="#7E7E7E"/>
</linearGradient>
<linearGradient id="paint2_linear_687_4366" x1="4.44356" y1="1.56261" x2="7.72908" y2="43.6976" gradientUnits="userSpaceOnUse">
<stop offset="0.03" stop-color="#B71F25"/>
<stop offset="1" stop-color="#3D1A0B"/>
</linearGradient>
<linearGradient id="paint3_linear_687_4366" x1="5.14336" y1="32.8329" x2="8.89188" y2="30.6092" gradientUnits="userSpaceOnUse">
<stop offset="0.02" stop-color="#8C8C8C"/>
<stop offset="0.05" stop-color="#9B9B9B"/>
<stop offset="0.1" stop-color="#B9BAB9"/>
<stop offset="0.16" stop-color="#CFCFCF"/>
<stop offset="0.22" stop-color="#DCDDDC"/>
<stop offset="0.27" stop-color="#E0E1E0"/>
<stop offset="0.4" stop-color="#BBBCBB"/>
<stop offset="0.54" stop-color="#939393"/>
<stop offset="0.58" stop-color="#878888"/>
<stop offset="0.67" stop-color="#747575"/>
<stop offset="0.73" stop-color="#6D6E6E"/>
<stop offset="0.9" stop-color="#6F7070"/>
<stop offset="0.96" stop-color="#767676"/>
<stop offset="1" stop-color="#7E7E7E"/>
</linearGradient>
<linearGradient id="paint4_linear_687_4366" x1="6.8217" y1="1.37662" x2="10.1072" y2="43.5116" gradientUnits="userSpaceOnUse">
<stop offset="0.03" stop-color="#B71F25"/>
<stop offset="1" stop-color="#3D1A0B"/>
</linearGradient>
<linearGradient id="paint5_linear_687_4366" x1="7.57054" y1="36.4567" x2="11.8976" y2="33.8896" gradientUnits="userSpaceOnUse">
<stop offset="0.02" stop-color="#8C8C8C"/>
<stop offset="0.05" stop-color="#9B9B9B"/>
<stop offset="0.1" stop-color="#B9BAB9"/>
<stop offset="0.16" stop-color="#CFCFCF"/>
<stop offset="0.22" stop-color="#DCDDDC"/>
<stop offset="0.27" stop-color="#E0E1E0"/>
<stop offset="0.4" stop-color="#BBBCBB"/>
<stop offset="0.54" stop-color="#939393"/>
<stop offset="0.58" stop-color="#878888"/>
<stop offset="0.67" stop-color="#747575"/>
<stop offset="0.73" stop-color="#6D6E6E"/>
<stop offset="0.9" stop-color="#6F7070"/>
<stop offset="0.96" stop-color="#767676"/>
<stop offset="1" stop-color="#7E7E7E"/>
</linearGradient>
<linearGradient id="paint6_linear_687_4366" x1="2.547" y1="1.71085" x2="5.83252" y2="43.8458" gradientUnits="userSpaceOnUse">
<stop offset="0.03" stop-color="#B71F25"/>
<stop offset="1" stop-color="#3D1A0B"/>
</linearGradient>
<linearGradient id="paint7_linear_687_4366" x1="2.79598" y1="24.9895" x2="6.19289" y2="22.9741" gradientUnits="userSpaceOnUse">
<stop offset="0.02" stop-color="#8C8C8C"/>
<stop offset="0.05" stop-color="#9B9B9B"/>
<stop offset="0.1" stop-color="#B9BAB9"/>
<stop offset="0.16" stop-color="#CFCFCF"/>
<stop offset="0.22" stop-color="#DCDDDC"/>
<stop offset="0.27" stop-color="#E0E1E0"/>
<stop offset="0.4" stop-color="#BBBCBB"/>
<stop offset="0.54" stop-color="#939393"/>
<stop offset="0.58" stop-color="#878888"/>
<stop offset="0.67" stop-color="#747575"/>
<stop offset="0.73" stop-color="#6D6E6E"/>
<stop offset="0.9" stop-color="#6F7070"/>
<stop offset="0.96" stop-color="#767676"/>
<stop offset="1" stop-color="#7E7E7E"/>
</linearGradient>
<linearGradient id="paint8_linear_687_4366" x1="2.13227" y1="1.74267" x2="5.41778" y2="43.8776" gradientUnits="userSpaceOnUse">
<stop offset="0.03" stop-color="#B71F25"/>
<stop offset="1" stop-color="#3D1A0B"/>
</linearGradient>
<linearGradient id="paint9_linear_687_4366" x1="2.09768" y1="21.0303" x2="5.37305" y2="19.087" gradientUnits="userSpaceOnUse">
<stop offset="0.02" stop-color="#8C8C8C"/>
<stop offset="0.05" stop-color="#9B9B9B"/>
<stop offset="0.1" stop-color="#B9BAB9"/>
<stop offset="0.16" stop-color="#CFCFCF"/>
<stop offset="0.22" stop-color="#DCDDDC"/>
<stop offset="0.27" stop-color="#E0E1E0"/>
<stop offset="0.4" stop-color="#BBBCBB"/>
<stop offset="0.54" stop-color="#939393"/>
<stop offset="0.58" stop-color="#878888"/>
<stop offset="0.67" stop-color="#747575"/>
<stop offset="0.73" stop-color="#6D6E6E"/>
<stop offset="0.9" stop-color="#6F7070"/>
<stop offset="0.96" stop-color="#767676"/>
<stop offset="1" stop-color="#7E7E7E"/>
</linearGradient>
<linearGradient id="paint10_linear_687_4366" x1="9.8425" y1="1.14128" x2="13.1274" y2="43.2762" gradientUnits="userSpaceOnUse">
<stop offset="0.03" stop-color="#B71F25"/>
<stop offset="1" stop-color="#3D1A0B"/>
</linearGradient>
<linearGradient id="paint11_linear_687_4366" x1="10.5788" y1="39.4975" x2="15.4019" y2="36.6361" gradientUnits="userSpaceOnUse">
<stop offset="0.02" stop-color="#8C8C8C"/>
<stop offset="0.05" stop-color="#9B9B9B"/>
<stop offset="0.1" stop-color="#B9BAB9"/>
<stop offset="0.16" stop-color="#CFCFCF"/>
<stop offset="0.22" stop-color="#DCDDDC"/>
<stop offset="0.27" stop-color="#E0E1E0"/>
<stop offset="0.4" stop-color="#BBBCBB"/>
<stop offset="0.54" stop-color="#939393"/>
<stop offset="0.58" stop-color="#878888"/>
<stop offset="0.67" stop-color="#747575"/>
<stop offset="0.73" stop-color="#6D6E6E"/>
<stop offset="0.9" stop-color="#6F7070"/>
<stop offset="0.96" stop-color="#767676"/>
<stop offset="1" stop-color="#7E7E7E"/>
</linearGradient>
<linearGradient id="paint12_linear_687_4366" x1="6.27939" y1="1.41944" x2="9.56431" y2="43.5544" gradientUnits="userSpaceOnUse">
<stop offset="0.03" stop-color="#B71F25"/>
<stop offset="1" stop-color="#3D1A0B"/>
</linearGradient>
<linearGradient id="paint13_linear_687_4366" x1="5.11747" y1="10.1754" x2="8.69856" y2="8.05111" gradientUnits="userSpaceOnUse">
<stop offset="0.02" stop-color="#8C8C8C"/>
<stop offset="0.05" stop-color="#9B9B9B"/>
<stop offset="0.1" stop-color="#B9BAB9"/>
<stop offset="0.16" stop-color="#CFCFCF"/>
<stop offset="0.22" stop-color="#DCDDDC"/>
<stop offset="0.27" stop-color="#E0E1E0"/>
<stop offset="0.4" stop-color="#BBBCBB"/>
<stop offset="0.54" stop-color="#939393"/>
<stop offset="0.58" stop-color="#878888"/>
<stop offset="0.67" stop-color="#747575"/>
<stop offset="0.73" stop-color="#6D6E6E"/>
<stop offset="0.9" stop-color="#6F7070"/>
<stop offset="0.96" stop-color="#767676"/>
<stop offset="1" stop-color="#7E7E7E"/>
</linearGradient>
<linearGradient id="paint14_linear_687_4366" x1="3.21342" y1="1.65874" x2="6.49894" y2="43.7937" gradientUnits="userSpaceOnUse">
<stop offset="0.03" stop-color="#B71F25"/>
<stop offset="1" stop-color="#3D1A0B"/>
</linearGradient>
<linearGradient id="paint15_linear_687_4366" x1="2.408" y1="12.8446" x2="5.45147" y2="11.0395" gradientUnits="userSpaceOnUse">
<stop offset="0.02" stop-color="#8C8C8C"/>
<stop offset="0.05" stop-color="#9B9B9B"/>
<stop offset="0.1" stop-color="#B9BAB9"/>
<stop offset="0.16" stop-color="#CFCFCF"/>
<stop offset="0.22" stop-color="#DCDDDC"/>
<stop offset="0.27" stop-color="#E0E1E0"/>
<stop offset="0.4" stop-color="#BBBCBB"/>
<stop offset="0.54" stop-color="#939393"/>
<stop offset="0.58" stop-color="#878888"/>
<stop offset="0.67" stop-color="#747575"/>
<stop offset="0.73" stop-color="#6D6E6E"/>
<stop offset="0.9" stop-color="#6F7070"/>
<stop offset="0.96" stop-color="#767676"/>
<stop offset="1" stop-color="#7E7E7E"/>
</linearGradient>
<linearGradient id="paint16_linear_687_4366" x1="9.86323" y1="1.13953" x2="13.1488" y2="43.2745" gradientUnits="userSpaceOnUse">
<stop offset="0.03" stop-color="#B71F25"/>
<stop offset="1" stop-color="#3D1A0B"/>
</linearGradient>
<linearGradient id="paint17_linear_687_4366" x1="7.17597" y1="27.0739" x2="17.3345" y2="21.0477" gradientUnits="userSpaceOnUse">
<stop offset="0.02" stop-color="#8C8C8C"/>
<stop offset="0.05" stop-color="#9B9B9B"/>
<stop offset="0.1" stop-color="#B9BAB9"/>
<stop offset="0.16" stop-color="#CFCFCF"/>
<stop offset="0.22" stop-color="#DCDDDC"/>
<stop offset="0.27" stop-color="#E0E1E0"/>
<stop offset="0.4" stop-color="#BBBCBB"/>
<stop offset="0.54" stop-color="#939393"/>
<stop offset="0.58" stop-color="#878888"/>
<stop offset="0.67" stop-color="#747575"/>
<stop offset="0.73" stop-color="#6D6E6E"/>
<stop offset="0.9" stop-color="#6F7070"/>
<stop offset="0.96" stop-color="#767676"/>
<stop offset="1" stop-color="#7E7E7E"/>
</linearGradient>
<linearGradient id="paint18_linear_687_4366" x1="2.09317" y1="1.74598" x2="5.37869" y2="43.881" gradientUnits="userSpaceOnUse">
<stop offset="0.03" stop-color="#B71F25"/>
<stop offset="1" stop-color="#3D1A0B"/>
</linearGradient>
<linearGradient id="paint19_linear_687_4366" x1="1.69769" y1="16.8677" x2="4.79573" y2="15.0302" gradientUnits="userSpaceOnUse">
<stop offset="0.02" stop-color="#8C8C8C"/>
<stop offset="0.05" stop-color="#9B9B9B"/>
<stop offset="0.1" stop-color="#B9BAB9"/>
<stop offset="0.16" stop-color="#CFCFCF"/>
<stop offset="0.22" stop-color="#DCDDDC"/>
<stop offset="0.27" stop-color="#E0E1E0"/>
<stop offset="0.4" stop-color="#BBBCBB"/>
<stop offset="0.54" stop-color="#939393"/>
<stop offset="0.58" stop-color="#878888"/>
<stop offset="0.67" stop-color="#747575"/>
<stop offset="0.73" stop-color="#6D6E6E"/>
<stop offset="0.9" stop-color="#6F7070"/>
<stop offset="0.96" stop-color="#767676"/>
<stop offset="1" stop-color="#7E7E7E"/>
</linearGradient>
<linearGradient id="paint20_linear_687_4366" x1="57.0812" y1="2.14556" x2="53.1865" y2="46.5353" gradientUnits="userSpaceOnUse">
<stop offset="0.03" stop-color="#B71F25"/>
<stop offset="1" stop-color="#3D1A0B"/>
</linearGradient>
<linearGradient id="paint21_linear_687_4366" x1="52.1518" y1="29.3771" x2="57.2131" y2="26.3742" gradientUnits="userSpaceOnUse">
<stop offset="0.02" stop-color="#8C8C8C"/>
<stop offset="0.05" stop-color="#9B9B9B"/>
<stop offset="0.1" stop-color="#B9BAB9"/>
<stop offset="0.16" stop-color="#CFCFCF"/>
<stop offset="0.22" stop-color="#DCDDDC"/>
<stop offset="0.27" stop-color="#E0E1E0"/>
<stop offset="0.4" stop-color="#BBBCBB"/>
<stop offset="0.54" stop-color="#939393"/>
<stop offset="0.58" stop-color="#878888"/>
<stop offset="0.67" stop-color="#747575"/>
<stop offset="0.73" stop-color="#6D6E6E"/>
<stop offset="0.9" stop-color="#6F7070"/>
<stop offset="0.96" stop-color="#767676"/>
<stop offset="1" stop-color="#7E7E7E"/>
</linearGradient>
<linearGradient id="paint22_linear_687_4366" x1="55.8211" y1="2.03623" x2="51.927" y2="46.4253" gradientUnits="userSpaceOnUse">
<stop offset="0.03" stop-color="#B71F25"/>
<stop offset="1" stop-color="#3D1A0B"/>
</linearGradient>
<linearGradient id="paint23_linear_687_4366" x1="50.4988" y1="33.074" x2="55.4937" y2="30.1106" gradientUnits="userSpaceOnUse">
<stop offset="0.02" stop-color="#8C8C8C"/>
<stop offset="0.05" stop-color="#9B9B9B"/>
<stop offset="0.1" stop-color="#B9BAB9"/>
<stop offset="0.16" stop-color="#CFCFCF"/>
<stop offset="0.22" stop-color="#DCDDDC"/>
<stop offset="0.27" stop-color="#E0E1E0"/>
<stop offset="0.4" stop-color="#BBBCBB"/>
<stop offset="0.54" stop-color="#939393"/>
<stop offset="0.58" stop-color="#878888"/>
<stop offset="0.67" stop-color="#747575"/>
<stop offset="0.73" stop-color="#6D6E6E"/>
<stop offset="0.9" stop-color="#6F7070"/>
<stop offset="0.96" stop-color="#767676"/>
<stop offset="1" stop-color="#7E7E7E"/>
</linearGradient>
<linearGradient id="paint24_linear_687_4366" x1="53.4805" y1="1.83005" x2="49.5864" y2="46.2197" gradientUnits="userSpaceOnUse">
<stop offset="0.03" stop-color="#B71F25"/>
<stop offset="1" stop-color="#3D1A0B"/>
</linearGradient>
<linearGradient id="paint25_linear_687_4366" x1="47.8633" y1="36.3312" x2="52.5842" y2="33.5309" gradientUnits="userSpaceOnUse">
<stop offset="0.02" stop-color="#8C8C8C"/>
<stop offset="0.05" stop-color="#9B9B9B"/>
<stop offset="0.1" stop-color="#B9BAB9"/>
<stop offset="0.16" stop-color="#CFCFCF"/>
<stop offset="0.22" stop-color="#DCDDDC"/>
<stop offset="0.27" stop-color="#E0E1E0"/>
<stop offset="0.4" stop-color="#BBBCBB"/>
<stop offset="0.54" stop-color="#939393"/>
<stop offset="0.58" stop-color="#878888"/>
<stop offset="0.67" stop-color="#747575"/>
<stop offset="0.73" stop-color="#6D6E6E"/>
<stop offset="0.9" stop-color="#6F7070"/>
<stop offset="0.96" stop-color="#767676"/>
<stop offset="1" stop-color="#7E7E7E"/>
</linearGradient>
<linearGradient id="paint26_linear_687_4366" x1="57.6359" y1="2.19549" x2="53.7418" y2="46.5852" gradientUnits="userSpaceOnUse">
<stop offset="0.03" stop-color="#B71F25"/>
<stop offset="1" stop-color="#3D1A0B"/>
</linearGradient>
<linearGradient id="paint27_linear_687_4366" x1="53.1109" y1="25.4643" x2="58.1783" y2="22.4582" gradientUnits="userSpaceOnUse">
<stop offset="0.02" stop-color="#8C8C8C"/>
<stop offset="0.05" stop-color="#9B9B9B"/>
<stop offset="0.1" stop-color="#B9BAB9"/>
<stop offset="0.16" stop-color="#CFCFCF"/>
<stop offset="0.22" stop-color="#DCDDDC"/>
<stop offset="0.27" stop-color="#E0E1E0"/>
<stop offset="0.4" stop-color="#BBBCBB"/>
<stop offset="0.54" stop-color="#939393"/>
<stop offset="0.58" stop-color="#878888"/>
<stop offset="0.67" stop-color="#747575"/>
<stop offset="0.73" stop-color="#6D6E6E"/>
<stop offset="0.9" stop-color="#6F7070"/>
<stop offset="0.96" stop-color="#767676"/>
<stop offset="1" stop-color="#7E7E7E"/>
</linearGradient>
<linearGradient id="paint28_linear_687_4366" x1="58.0108" y1="2.2282" x2="54.1161" y2="46.6173" gradientUnits="userSpaceOnUse">
<stop offset="0.03" stop-color="#B71F25"/>
<stop offset="1" stop-color="#3D1A0B"/>
</linearGradient>
<linearGradient id="paint29_linear_687_4366" x1="53.8906" y1="21.5905" x2="58.9569" y2="18.5851" gradientUnits="userSpaceOnUse">
<stop offset="0.02" stop-color="#8C8C8C"/>
<stop offset="0.05" stop-color="#9B9B9B"/>
<stop offset="0.1" stop-color="#B9BAB9"/>
<stop offset="0.16" stop-color="#CFCFCF"/>
<stop offset="0.22" stop-color="#DCDDDC"/>
<stop offset="0.27" stop-color="#E0E1E0"/>
<stop offset="0.4" stop-color="#BBBCBB"/>
<stop offset="0.54" stop-color="#939393"/>
<stop offset="0.58" stop-color="#878888"/>
<stop offset="0.67" stop-color="#747575"/>
<stop offset="0.73" stop-color="#6D6E6E"/>
<stop offset="0.9" stop-color="#6F7070"/>
<stop offset="0.96" stop-color="#767676"/>
<stop offset="1" stop-color="#7E7E7E"/>
</linearGradient>
<linearGradient id="paint30_linear_687_4366" x1="50.5001" y1="1.56901" x2="46.606" y2="45.9581" gradientUnits="userSpaceOnUse">
<stop offset="0.03" stop-color="#B71F25"/>
<stop offset="1" stop-color="#3D1A0B"/>
</linearGradient>
<linearGradient id="paint31_linear_687_4366" x1="44.8345" y1="39.1016" x2="48.9948" y2="36.6333" gradientUnits="userSpaceOnUse">
<stop offset="0.02" stop-color="#8C8C8C"/>
<stop offset="0.05" stop-color="#9B9B9B"/>
<stop offset="0.1" stop-color="#B9BAB9"/>
<stop offset="0.16" stop-color="#CFCFCF"/>
<stop offset="0.22" stop-color="#DCDDDC"/>
<stop offset="0.27" stop-color="#E0E1E0"/>
<stop offset="0.4" stop-color="#BBBCBB"/>
<stop offset="0.54" stop-color="#939393"/>
<stop offset="0.58" stop-color="#878888"/>
<stop offset="0.67" stop-color="#747575"/>
<stop offset="0.73" stop-color="#6D6E6E"/>
<stop offset="0.9" stop-color="#6F7070"/>
<stop offset="0.96" stop-color="#767676"/>
<stop offset="1" stop-color="#7E7E7E"/>
</linearGradient>
<linearGradient id="paint32_linear_687_4366" x1="53.7631" y1="1.85574" x2="49.8684" y2="46.2448" gradientUnits="userSpaceOnUse">
<stop offset="0.03" stop-color="#B71F25"/>
<stop offset="1" stop-color="#3D1A0B"/>
</linearGradient>
<linearGradient id="paint33_linear_687_4366" x1="51.2557" y1="10.0218" x2="54.4145" y2="8.14792" gradientUnits="userSpaceOnUse">
<stop offset="0.02" stop-color="#8C8C8C"/>
<stop offset="0.05" stop-color="#9B9B9B"/>
<stop offset="0.1" stop-color="#B9BAB9"/>
<stop offset="0.16" stop-color="#CFCFCF"/>
<stop offset="0.22" stop-color="#DCDDDC"/>
<stop offset="0.27" stop-color="#E0E1E0"/>
<stop offset="0.4" stop-color="#BBBCBB"/>
<stop offset="0.54" stop-color="#939393"/>
<stop offset="0.58" stop-color="#878888"/>
<stop offset="0.67" stop-color="#747575"/>
<stop offset="0.73" stop-color="#6D6E6E"/>
<stop offset="0.9" stop-color="#6F7070"/>
<stop offset="0.96" stop-color="#767676"/>
<stop offset="1" stop-color="#7E7E7E"/>
</linearGradient>
<linearGradient id="paint34_linear_687_4366" x1="56.8492" y1="2.12624" x2="52.9551" y2="46.516" gradientUnits="userSpaceOnUse">
<stop offset="0.03" stop-color="#B71F25"/>
<stop offset="1" stop-color="#3D1A0B"/>
</linearGradient>
<linearGradient id="paint35_linear_687_4366" x1="53.72" y1="13.5477" x2="58.5425" y2="10.6869" gradientUnits="userSpaceOnUse">
<stop offset="0.02" stop-color="#8C8C8C"/>
<stop offset="0.05" stop-color="#9B9B9B"/>
<stop offset="0.1" stop-color="#B9BAB9"/>
<stop offset="0.16" stop-color="#CFCFCF"/>
<stop offset="0.22" stop-color="#DCDDDC"/>
<stop offset="0.27" stop-color="#E0E1E0"/>
<stop offset="0.4" stop-color="#BBBCBB"/>
<stop offset="0.54" stop-color="#939393"/>
<stop offset="0.58" stop-color="#878888"/>
<stop offset="0.67" stop-color="#747575"/>
<stop offset="0.73" stop-color="#6D6E6E"/>
<stop offset="0.9" stop-color="#6F7070"/>
<stop offset="0.96" stop-color="#767676"/>
<stop offset="1" stop-color="#7E7E7E"/>
</linearGradient>
<linearGradient id="paint36_linear_687_4366" x1="50.3556" y1="1.55553" x2="46.4609" y2="45.9453" gradientUnits="userSpaceOnUse">
<stop offset="0.03" stop-color="#B71F25"/>
<stop offset="1" stop-color="#3D1A0B"/>
</linearGradient>
<linearGradient id="paint37_linear_687_4366" x1="38.0982" y1="28.666" x2="56.3826" y2="17.8197" gradientUnits="userSpaceOnUse">
<stop offset="0.02" stop-color="#8C8C8C"/>
<stop offset="0.05" stop-color="#9B9B9B"/>
<stop offset="0.1" stop-color="#B9BAB9"/>
<stop offset="0.16" stop-color="#CFCFCF"/>
<stop offset="0.22" stop-color="#DCDDDC"/>
<stop offset="0.27" stop-color="#E0E1E0"/>
<stop offset="0.4" stop-color="#BBBCBB"/>
<stop offset="0.54" stop-color="#939393"/>
<stop offset="0.58" stop-color="#878888"/>
<stop offset="0.67" stop-color="#747575"/>
<stop offset="0.73" stop-color="#6D6E6E"/>
<stop offset="0.9" stop-color="#6F7070"/>
<stop offset="0.96" stop-color="#767676"/>
<stop offset="1" stop-color="#7E7E7E"/>
</linearGradient>
<linearGradient id="paint38_linear_687_4366" x1="58.0038" y1="2.22701" x2="54.1097" y2="46.6161" gradientUnits="userSpaceOnUse">
<stop offset="0.03" stop-color="#B71F25"/>
<stop offset="1" stop-color="#3D1A0B"/>
</linearGradient>
<linearGradient id="paint39_linear_687_4366" x1="54.3765" y1="17.5592" x2="59.3615" y2="14.6022" gradientUnits="userSpaceOnUse">
<stop offset="0.02" stop-color="#8C8C8C"/>
<stop offset="0.05" stop-color="#9B9B9B"/>
<stop offset="0.1" stop-color="#B9BAB9"/>
<stop offset="0.16" stop-color="#CFCFCF"/>
<stop offset="0.22" stop-color="#DCDDDC"/>
<stop offset="0.27" stop-color="#E0E1E0"/>
<stop offset="0.4" stop-color="#BBBCBB"/>
<stop offset="0.54" stop-color="#939393"/>
<stop offset="0.58" stop-color="#878888"/>
<stop offset="0.67" stop-color="#747575"/>
<stop offset="0.73" stop-color="#6D6E6E"/>
<stop offset="0.9" stop-color="#6F7070"/>
<stop offset="0.96" stop-color="#767676"/>
<stop offset="1" stop-color="#7E7E7E"/>
</linearGradient>
<linearGradient id="paint40_linear_687_4366" x1="29.9743" y1="-3.8949" x2="29.9743" y2="53.2265" gradientUnits="userSpaceOnUse">
<stop offset="0.03" stop-color="#B71F25"/>
<stop offset="1" stop-color="#3D1A0B"/>
</linearGradient>
<linearGradient id="paint41_linear_687_4366" x1="29.9759" y1="-30.1431" x2="29.9759" y2="88.3041" gradientUnits="userSpaceOnUse">
<stop offset="0.02" stop-color="#8C8C8C"/>
<stop offset="0.05" stop-color="#9B9B9B"/>
<stop offset="0.1" stop-color="#B9BAB9"/>
<stop offset="0.16" stop-color="#CFCFCF"/>
<stop offset="0.22" stop-color="#DCDDDC"/>
<stop offset="0.27" stop-color="#E0E1E0"/>
<stop offset="0.4" stop-color="#BBBCBB"/>
<stop offset="0.54" stop-color="#939393"/>
<stop offset="0.58" stop-color="#878888"/>
<stop offset="0.67" stop-color="#747575"/>
<stop offset="0.73" stop-color="#6D6E6E"/>
<stop offset="0.9" stop-color="#6F7070"/>
<stop offset="0.96" stop-color="#767676"/>
<stop offset="1" stop-color="#7E7E7E"/>
</linearGradient>
<linearGradient id="paint42_linear_687_4366" x1="29.9747" y1="-30.1429" x2="29.9747" y2="88.3043" gradientUnits="userSpaceOnUse">
<stop offset="0.02" stop-color="#8C8C8C"/>
<stop offset="0.05" stop-color="#9B9B9B"/>
<stop offset="0.1" stop-color="#B9BAB9"/>
<stop offset="0.16" stop-color="#CFCFCF"/>
<stop offset="0.22" stop-color="#DCDDDC"/>
<stop offset="0.27" stop-color="#E0E1E0"/>
<stop offset="0.4" stop-color="#BBBCBB"/>
<stop offset="0.54" stop-color="#939393"/>
<stop offset="0.58" stop-color="#878888"/>
<stop offset="0.67" stop-color="#747575"/>
<stop offset="0.73" stop-color="#6D6E6E"/>
<stop offset="0.9" stop-color="#6F7070"/>
<stop offset="0.96" stop-color="#767676"/>
<stop offset="1" stop-color="#7E7E7E"/>
</linearGradient>
<linearGradient id="paint43_linear_687_4366" x1="29.9751" y1="-4.77076" x2="29.9751" y2="68.1185" gradientUnits="userSpaceOnUse">
<stop offset="0.02" stop-color="#8C8C8C"/>
<stop offset="0.05" stop-color="#9B9B9B"/>
<stop offset="0.1" stop-color="#B9BAB9"/>
<stop offset="0.16" stop-color="#CFCFCF"/>
<stop offset="0.22" stop-color="#DCDDDC"/>
<stop offset="0.27" stop-color="#E0E1E0"/>
<stop offset="0.4" stop-color="#BBBCBB"/>
<stop offset="0.54" stop-color="#939393"/>
<stop offset="0.58" stop-color="#878888"/>
<stop offset="0.67" stop-color="#747575"/>
<stop offset="0.73" stop-color="#6D6E6E"/>
<stop offset="0.9" stop-color="#6F7070"/>
<stop offset="0.96" stop-color="#767676"/>
<stop offset="1" stop-color="#7E7E7E"/>
</linearGradient>
<linearGradient id="paint44_linear_687_4366" x1="29.9745" y1="-4.77066" x2="29.9745" y2="68.1186" gradientUnits="userSpaceOnUse">
<stop offset="0.02" stop-color="#8C8C8C"/>
<stop offset="0.05" stop-color="#9B9B9B"/>
<stop offset="0.1" stop-color="#B9BAB9"/>
<stop offset="0.16" stop-color="#CFCFCF"/>
<stop offset="0.22" stop-color="#DCDDDC"/>
<stop offset="0.27" stop-color="#E0E1E0"/>
<stop offset="0.4" stop-color="#BBBCBB"/>
<stop offset="0.54" stop-color="#939393"/>
<stop offset="0.58" stop-color="#878888"/>
<stop offset="0.67" stop-color="#747575"/>
<stop offset="0.73" stop-color="#6D6E6E"/>
<stop offset="0.9" stop-color="#6F7070"/>
<stop offset="0.96" stop-color="#767676"/>
<stop offset="1" stop-color="#7E7E7E"/>
</linearGradient>
<linearGradient id="paint45_linear_687_4366" x1="12.7421" y1="54.4842" x2="47.7185" y2="54.4842" gradientUnits="userSpaceOnUse">
<stop offset="0.02" stop-color="#8C8C8C"/>
<stop offset="0.05" stop-color="#9B9B9B"/>
<stop offset="0.1" stop-color="#B9BAB9"/>
<stop offset="0.16" stop-color="#CFCFCF"/>
<stop offset="0.22" stop-color="#DCDDDC"/>
<stop offset="0.27" stop-color="#E0E1E0"/>
<stop offset="0.4" stop-color="#BBBCBB"/>
<stop offset="0.54" stop-color="#939393"/>
<stop offset="0.58" stop-color="#878888"/>
<stop offset="0.67" stop-color="#747575"/>
<stop offset="0.73" stop-color="#6D6E6E"/>
<stop offset="0.9" stop-color="#6F7070"/>
<stop offset="0.96" stop-color="#767676"/>
<stop offset="1" stop-color="#7E7E7E"/>
</linearGradient>
<linearGradient id="paint46_linear_687_4366" x1="12.7406" y1="54.4848" x2="47.7171" y2="54.4848" gradientUnits="userSpaceOnUse">
<stop offset="0.02" stop-color="#8C8C8C"/>
<stop offset="0.05" stop-color="#9B9B9B"/>
<stop offset="0.1" stop-color="#B9BAB9"/>
<stop offset="0.16" stop-color="#CFCFCF"/>
<stop offset="0.22" stop-color="#DCDDDC"/>
<stop offset="0.27" stop-color="#E0E1E0"/>
<stop offset="0.4" stop-color="#BBBCBB"/>
<stop offset="0.54" stop-color="#939393"/>
<stop offset="0.58" stop-color="#878888"/>
<stop offset="0.67" stop-color="#747575"/>
<stop offset="0.73" stop-color="#6D6E6E"/>
<stop offset="0.9" stop-color="#6F7070"/>
<stop offset="0.96" stop-color="#767676"/>
<stop offset="1" stop-color="#7E7E7E"/>
</linearGradient>
<linearGradient id="paint47_linear_687_4366" x1="12.7419" y1="54.4853" x2="47.7184" y2="54.4853" gradientUnits="userSpaceOnUse">
<stop offset="0.02" stop-color="#8C8C8C"/>
<stop offset="0.05" stop-color="#9B9B9B"/>
<stop offset="0.1" stop-color="#B9BAB9"/>
<stop offset="0.16" stop-color="#CFCFCF"/>
<stop offset="0.22" stop-color="#DCDDDC"/>
<stop offset="0.27" stop-color="#E0E1E0"/>
<stop offset="0.4" stop-color="#BBBCBB"/>
<stop offset="0.54" stop-color="#939393"/>
<stop offset="0.58" stop-color="#878888"/>
<stop offset="0.67" stop-color="#747575"/>
<stop offset="0.73" stop-color="#6D6E6E"/>
<stop offset="0.9" stop-color="#6F7070"/>
<stop offset="0.96" stop-color="#767676"/>
<stop offset="1" stop-color="#7E7E7E"/>
</linearGradient>
<linearGradient id="paint48_linear_687_4366" x1="12.7416" y1="54.4852" x2="47.718" y2="54.4852" gradientUnits="userSpaceOnUse">
<stop offset="0.02" stop-color="#8C8C8C"/>
<stop offset="0.05" stop-color="#9B9B9B"/>
<stop offset="0.1" stop-color="#B9BAB9"/>
<stop offset="0.16" stop-color="#CFCFCF"/>
<stop offset="0.22" stop-color="#DCDDDC"/>
<stop offset="0.27" stop-color="#E0E1E0"/>
<stop offset="0.4" stop-color="#BBBCBB"/>
<stop offset="0.54" stop-color="#939393"/>
<stop offset="0.58" stop-color="#878888"/>
<stop offset="0.67" stop-color="#747575"/>
<stop offset="0.73" stop-color="#6D6E6E"/>
<stop offset="0.9" stop-color="#6F7070"/>
<stop offset="0.96" stop-color="#767676"/>
<stop offset="1" stop-color="#7E7E7E"/>
</linearGradient>
<linearGradient id="paint49_linear_687_4366" x1="12.7413" y1="54.4852" x2="47.7178" y2="54.4852" gradientUnits="userSpaceOnUse">
<stop offset="0.02" stop-color="#8C8C8C"/>
<stop offset="0.05" stop-color="#9B9B9B"/>
<stop offset="0.1" stop-color="#B9BAB9"/>
<stop offset="0.16" stop-color="#CFCFCF"/>
<stop offset="0.22" stop-color="#DCDDDC"/>
<stop offset="0.27" stop-color="#E0E1E0"/>
<stop offset="0.4" stop-color="#BBBCBB"/>
<stop offset="0.54" stop-color="#939393"/>
<stop offset="0.58" stop-color="#878888"/>
<stop offset="0.67" stop-color="#747575"/>
<stop offset="0.73" stop-color="#6D6E6E"/>
<stop offset="0.9" stop-color="#6F7070"/>
<stop offset="0.96" stop-color="#767676"/>
<stop offset="1" stop-color="#7E7E7E"/>
</linearGradient>
<linearGradient id="paint50_linear_687_4366" x1="12.7417" y1="54.4852" x2="47.7181" y2="54.4852" gradientUnits="userSpaceOnUse">
<stop offset="0.02" stop-color="#8C8C8C"/>
<stop offset="0.05" stop-color="#9B9B9B"/>
<stop offset="0.1" stop-color="#B9BAB9"/>
<stop offset="0.16" stop-color="#CFCFCF"/>
<stop offset="0.22" stop-color="#DCDDDC"/>
<stop offset="0.27" stop-color="#E0E1E0"/>
<stop offset="0.4" stop-color="#BBBCBB"/>
<stop offset="0.54" stop-color="#939393"/>
<stop offset="0.58" stop-color="#878888"/>
<stop offset="0.67" stop-color="#747575"/>
<stop offset="0.73" stop-color="#6D6E6E"/>
<stop offset="0.9" stop-color="#6F7070"/>
<stop offset="0.96" stop-color="#767676"/>
<stop offset="1" stop-color="#7E7E7E"/>
</linearGradient>
<linearGradient id="paint51_linear_687_4366" x1="12.7419" y1="54.4852" x2="47.7184" y2="54.4852" gradientUnits="userSpaceOnUse">
<stop offset="0.02" stop-color="#8C8C8C"/>
<stop offset="0.05" stop-color="#9B9B9B"/>
<stop offset="0.1" stop-color="#B9BAB9"/>
<stop offset="0.16" stop-color="#CFCFCF"/>
<stop offset="0.22" stop-color="#DCDDDC"/>
<stop offset="0.27" stop-color="#E0E1E0"/>
<stop offset="0.4" stop-color="#BBBCBB"/>
<stop offset="0.54" stop-color="#939393"/>
<stop offset="0.58" stop-color="#878888"/>
<stop offset="0.67" stop-color="#747575"/>
<stop offset="0.73" stop-color="#6D6E6E"/>
<stop offset="0.9" stop-color="#6F7070"/>
<stop offset="0.96" stop-color="#767676"/>
<stop offset="1" stop-color="#7E7E7E"/>
</linearGradient>
<linearGradient id="paint52_linear_687_4366" x1="12.7409" y1="54.4851" x2="47.7174" y2="54.4851" gradientUnits="userSpaceOnUse">
<stop offset="0.02" stop-color="#8C8C8C"/>
<stop offset="0.05" stop-color="#9B9B9B"/>
<stop offset="0.1" stop-color="#B9BAB9"/>
<stop offset="0.16" stop-color="#CFCFCF"/>
<stop offset="0.22" stop-color="#DCDDDC"/>
<stop offset="0.27" stop-color="#E0E1E0"/>
<stop offset="0.4" stop-color="#BBBCBB"/>
<stop offset="0.54" stop-color="#939393"/>
<stop offset="0.58" stop-color="#878888"/>
<stop offset="0.67" stop-color="#747575"/>
<stop offset="0.73" stop-color="#6D6E6E"/>
<stop offset="0.9" stop-color="#6F7070"/>
<stop offset="0.96" stop-color="#767676"/>
<stop offset="1" stop-color="#7E7E7E"/>
</linearGradient>
</defs>
</svg>
