<svg width="320" height="140" viewBox="0 0 320 140" fill="none" xmlns="http://www.w3.org/2000/svg">
<rect width="320" height="140" rx="7" fill="url(#paint0_linear_0_1)"/>
<path d="M63.28 42.0097H55.3465C56.0775 40.8983 56.5075 39.5792 56.5075 38.1667C56.5075 34.2146 53.1804 31 49.09 31C46.8647 31 44.8599 31.9556 43.5 33.4616C42.1401 31.9556 40.1353 31 37.91 31C33.8196 31 30.4925 34.2146 30.4925 38.1667C30.4925 39.5792 30.9171 40.8983 31.6535 42.0097H23.72C22.7686 42.0097 22 42.7523 22 43.6715V54.058C22 54.2865 22.1935 54.4734 22.43 54.4734H24.58V72.3382C24.58 73.2574 25.3486 74 26.3 74H60.7C61.6514 74 62.42 73.2574 62.42 72.3382V54.4734H64.57C64.8065 54.4734 65 54.2865 65 54.058V43.6715C65 42.7523 64.2314 42.0097 63.28 42.0097ZM45.3275 38.1667C45.3275 36.1621 47.0153 34.5314 49.09 34.5314C51.1648 34.5314 52.8525 36.1621 52.8525 38.1667C52.8525 40.1713 51.1648 41.8019 49.09 41.8019H45.3275V38.1667ZM37.91 34.5314C39.9848 34.5314 41.6725 36.1621 41.6725 38.1667V41.8019H37.91C35.8352 41.8019 34.1475 40.1713 34.1475 38.1667C34.1475 36.1621 35.8352 34.5314 37.91 34.5314ZM25.655 50.942V45.5411H41.6725V50.942H25.655ZM28.235 54.4734H41.6725V70.4686H28.235V54.4734ZM58.765 70.4686H45.3275V54.4734H58.765V70.4686ZM61.345 50.942H45.3275V45.5411H61.345V50.942Z" fill="white"/>
<path d="M99.792 63H97.2V46.92H105.552C106.768 46.92 107.816 47.104 108.696 47.472C109.592 47.84 110.272 48.376 110.736 49.08C111.216 49.784 111.456 50.64 111.456 51.648C111.456 52.544 111.264 53.312 110.88 53.952C110.512 54.592 109.968 55.096 109.248 55.464C108.544 55.832 107.688 56.048 106.68 56.112V56.28C107.304 56.44 107.784 56.704 108.12 57.072C108.472 57.424 108.792 57.856 109.08 58.368L111.768 63H108.792L106.224 58.56C105.984 58.128 105.72 57.784 105.432 57.528C105.16 57.256 104.816 57.064 104.4 56.952C103.984 56.824 103.432 56.76 102.744 56.76H99.792V63ZM99.792 49.248V54.768H105.528C106.6 54.768 107.408 54.56 107.952 54.144C108.496 53.728 108.768 53.016 108.768 52.008C108.768 51.032 108.496 50.328 107.952 49.896C107.408 49.464 106.6 49.248 105.528 49.248H99.792ZM119.325 63.24C118.029 63.24 116.893 63 115.917 62.52C114.941 62.04 114.181 61.336 113.637 60.408C113.109 59.48 112.845 58.36 112.845 57.048C112.845 55.8 113.109 54.712 113.637 53.784C114.181 52.856 114.933 52.136 115.893 51.624C116.853 51.096 117.981 50.832 119.277 50.832C120.509 50.832 121.589 51.056 122.517 51.504C123.461 51.936 124.189 52.576 124.701 53.424C125.229 54.256 125.493 55.28 125.493 56.496C125.493 56.704 125.485 56.904 125.469 57.096C125.453 57.272 125.429 57.448 125.397 57.624H114.501V56.184H123.693L123.021 57.072C123.037 56.912 123.045 56.76 123.045 56.616C123.045 56.456 123.045 56.296 123.045 56.136C123.045 55.032 122.725 54.216 122.085 53.688C121.461 53.144 120.509 52.872 119.229 52.872C117.805 52.872 116.789 53.2 116.181 53.856C115.573 54.512 115.269 55.456 115.269 56.688V57.312C115.269 58.56 115.573 59.512 116.181 60.168C116.789 60.824 117.813 61.152 119.253 61.152C120.501 61.152 121.397 60.96 121.941 60.576C122.501 60.176 122.781 59.624 122.781 58.92V58.728H125.373V58.944C125.373 59.792 125.109 60.544 124.581 61.2C124.069 61.84 123.357 62.344 122.445 62.712C121.549 63.064 120.509 63.24 119.325 63.24ZM130.938 63H128.346V51.72C128.346 50.712 128.562 49.856 128.994 49.152C129.442 48.432 130.09 47.88 130.938 47.496C131.786 47.112 132.818 46.92 134.034 46.92H135.21V48.84H133.626C132.602 48.84 131.858 49.032 131.394 49.416C130.93 49.784 130.778 50.488 130.938 51.528V52.008V63ZM135.21 53.232H126.546V51.072H135.21V53.232ZM142.645 63.24C141.349 63.24 140.213 63 139.237 62.52C138.261 62.04 137.501 61.336 136.957 60.408C136.429 59.48 136.165 58.36 136.165 57.048C136.165 55.8 136.429 54.712 136.957 53.784C137.501 52.856 138.253 52.136 139.213 51.624C140.173 51.096 141.301 50.832 142.597 50.832C143.829 50.832 144.909 51.056 145.837 51.504C146.781 51.936 147.509 52.576 148.021 53.424C148.549 54.256 148.813 55.28 148.813 56.496C148.813 56.704 148.805 56.904 148.789 57.096C148.773 57.272 148.749 57.448 148.717 57.624H137.821V56.184H147.013L146.341 57.072C146.357 56.912 146.365 56.76 146.365 56.616C146.365 56.456 146.365 56.296 146.365 56.136C146.365 55.032 146.045 54.216 145.405 53.688C144.781 53.144 143.829 52.872 142.549 52.872C141.125 52.872 140.109 53.2 139.501 53.856C138.893 54.512 138.589 55.456 138.589 56.688V57.312C138.589 58.56 138.893 59.512 139.501 60.168C140.109 60.824 141.133 61.152 142.573 61.152C143.821 61.152 144.717 60.96 145.261 60.576C145.821 60.176 146.101 59.624 146.101 58.92V58.728H148.693V58.944C148.693 59.792 148.429 60.544 147.901 61.2C147.389 61.84 146.677 62.344 145.765 62.712C144.869 63.064 143.829 63.24 142.645 63.24ZM153.347 63H150.755V51.072H153.131V54.456L153.347 54.576V63ZM153.347 56.304H152.771V54.288H153.299C153.411 53.632 153.635 53.048 153.971 52.536C154.307 52.008 154.755 51.592 155.315 51.288C155.891 50.984 156.587 50.832 157.403 50.832C158.315 50.832 159.059 51.024 159.635 51.408C160.211 51.792 160.627 52.304 160.883 52.944C161.155 53.584 161.291 54.28 161.291 55.032V56.592H158.723V55.536C158.723 54.672 158.531 54.04 158.147 53.64C157.763 53.24 157.123 53.04 156.227 53.04C155.203 53.04 154.467 53.32 154.019 53.88C153.571 54.44 153.347 55.248 153.347 56.304ZM168.7 63H165.82L172.996 46.92H176.644L183.82 63H180.892L175.828 51.6L174.892 49.32H174.7L173.764 51.6L168.7 63ZM180.1 58.824H169.372V56.496H180.1V58.824ZM197.476 63H194.884V56.52C194.884 55.4 194.612 54.56 194.068 54C193.54 53.44 192.652 53.16 191.404 53.16C190.108 53.16 189.148 53.496 188.524 54.168C187.916 54.824 187.612 55.8 187.612 57.096L187.156 57.12L187.036 54.768H187.564C187.692 54.096 187.948 53.464 188.332 52.872C188.732 52.264 189.276 51.776 189.964 51.408C190.668 51.024 191.524 50.832 192.532 50.832C193.636 50.832 194.556 51.056 195.292 51.504C196.028 51.952 196.572 52.552 196.924 53.304C197.292 54.056 197.476 54.896 197.476 55.824V63ZM187.612 63H185.02V51.072H187.396V54.816L187.612 54.936V63ZM205.042 63.24C203.778 63.24 202.706 62.984 201.826 62.472C200.962 61.944 200.306 61.216 199.858 60.288C199.41 59.344 199.186 58.264 199.186 57.048C199.186 55.8 199.41 54.712 199.858 53.784C200.306 52.856 200.954 52.136 201.802 51.624C202.65 51.096 203.674 50.832 204.874 50.832C206.282 50.832 207.394 51.16 208.21 51.816C209.026 52.472 209.554 53.304 209.794 54.312H210.394V56.976H209.938C209.938 55.712 209.578 54.768 208.858 54.144C208.138 53.504 207.114 53.184 205.786 53.184C204.97 53.184 204.258 53.312 203.65 53.568C203.042 53.808 202.578 54.208 202.258 54.768C201.954 55.328 201.802 56.088 201.802 57.048C201.802 57.992 201.954 58.744 202.258 59.304C202.578 59.864 203.042 60.264 203.65 60.504C204.258 60.744 204.986 60.864 205.834 60.864C206.682 60.864 207.41 60.736 208.018 60.48C208.642 60.208 209.114 59.792 209.434 59.232C209.77 58.672 209.938 57.984 209.938 57.168H210.394L210.562 59.568H209.986C209.746 60.752 209.194 61.664 208.33 62.304C207.482 62.928 206.386 63.24 205.042 63.24ZM212.53 63H210.154V59.256L209.938 58.944V46.92H212.53V63ZM221.62 63H219.028V46.92H221.62V63ZM231.892 63H219.82V60.672H231.892V63ZM231.532 56.064H219.82V53.76H231.532V56.064ZM231.892 49.248H219.82V46.92H231.892V49.248ZM245.191 63H242.815V59.928L242.647 59.856V55.776C242.647 54.784 242.407 54.096 241.927 53.712C241.463 53.312 240.655 53.112 239.503 53.112C238.399 53.112 237.575 53.304 237.031 53.688C236.487 54.072 236.215 54.704 236.215 55.584V55.68H233.647V55.584C233.647 54.672 233.887 53.864 234.367 53.16C234.847 52.44 235.535 51.872 236.431 51.456C237.343 51.04 238.431 50.832 239.695 50.832C240.959 50.832 241.991 51.048 242.791 51.48C243.607 51.896 244.207 52.472 244.591 53.208C244.991 53.944 245.191 54.792 245.191 55.752V63ZM237.415 63.24C236.183 63.24 235.199 62.968 234.463 62.424C233.743 61.864 233.383 61.096 233.383 60.12C233.383 59.496 233.535 58.976 233.839 58.56C234.159 58.128 234.607 57.792 235.183 57.552C235.759 57.312 236.439 57.144 237.223 57.048L242.887 56.448V57.984L237.967 58.536C237.295 58.616 236.791 58.76 236.455 58.968C236.135 59.16 235.975 59.488 235.975 59.952C235.975 60.432 236.143 60.792 236.479 61.032C236.831 61.256 237.375 61.368 238.111 61.368C239.023 61.368 239.815 61.256 240.487 61.032C241.159 60.792 241.687 60.424 242.071 59.928C242.455 59.432 242.647 58.792 242.647 58.008L242.983 58.056V60.024H242.647C242.327 61.032 241.711 61.824 240.799 62.4C239.903 62.96 238.775 63.24 237.415 63.24ZM250.097 63H247.505V51.072H249.881V54.456L250.097 54.576V63ZM250.097 56.304H249.521V54.288H250.049C250.161 53.632 250.385 53.048 250.721 52.536C251.057 52.008 251.505 51.592 252.065 51.288C252.641 50.984 253.337 50.832 254.153 50.832C255.065 50.832 255.809 51.024 256.385 51.408C256.961 51.792 257.377 52.304 257.633 52.944C257.905 53.584 258.041 54.28 258.041 55.032V56.592H255.473V55.536C255.473 54.672 255.281 54.04 254.897 53.64C254.513 53.24 253.873 53.04 252.977 53.04C251.953 53.04 251.217 53.32 250.769 53.88C250.321 54.44 250.097 55.248 250.097 56.304ZM272.125 63H269.533V56.52C269.533 55.4 269.261 54.56 268.717 54C268.189 53.44 267.301 53.16 266.053 53.16C264.757 53.16 263.797 53.496 263.173 54.168C262.565 54.824 262.261 55.8 262.261 57.096L261.805 57.12L261.685 54.768H262.213C262.341 54.096 262.597 53.464 262.981 52.872C263.381 52.264 263.925 51.776 264.613 51.408C265.317 51.024 266.173 50.832 267.181 50.832C268.285 50.832 269.205 51.056 269.941 51.504C270.677 51.952 271.221 52.552 271.573 53.304C271.941 54.056 272.125 54.896 272.125 55.824V63ZM262.261 63H259.669V51.072H262.045V54.816L262.261 54.936V63Z" fill="white"/>
<defs>
<linearGradient id="paint0_linear_0_1" x1="-215.5" y1="-101.652" x2="449.584" y2="102.843" gradientUnits="userSpaceOnUse">
<stop stop-color="#FEE6C2"/>
<stop offset="1" stop-color="#FF804D"/>
</linearGradient>
</defs>
</svg>
