<svg width="357" height="125" viewBox="0 0 357 125" fill="none" xmlns="http://www.w3.org/2000/svg">
<g filter="url(#filter0_d_3858_29977)">
<rect x="2" width="349" height="117" rx="8" fill="url(#paint0_linear_3858_29977)" shape-rendering="crispEdges"/>
<rect x="2.5" y="0.5" width="348" height="116" rx="7.5" stroke="#838282" shape-rendering="crispEdges"/>
</g>
<path d="M3 87H350V108C350 112.418 346.418 116 342 116H11C6.58173 116 3 112.418 3 108V87Z" fill="url(#paint1_linear_3858_29977)"/>
<rect x="14" y="26" width="69" height="16" rx="8" fill="#D9D9D9"/>
<path d="M17.4229 16.3486H15.5723V15.377H17.4229C17.7451 15.377 18.0055 15.3249 18.2041 15.2207C18.4027 15.1165 18.5475 14.9733 18.6387 14.791C18.7331 14.6055 18.7803 14.3939 18.7803 14.1562C18.7803 13.9316 18.7331 13.7217 18.6387 13.5264C18.5475 13.3278 18.4027 13.1683 18.2041 13.0479C18.0055 12.9274 17.7451 12.8672 17.4229 12.8672H15.9482V19H14.7227V11.8906H17.4229C17.973 11.8906 18.4401 11.9883 18.8242 12.1836C19.2116 12.3757 19.5062 12.6426 19.708 12.9844C19.9098 13.3229 20.0107 13.7103 20.0107 14.1465C20.0107 14.6055 19.9098 14.9993 19.708 15.3281C19.5062 15.6569 19.2116 15.9092 18.8242 16.085C18.4401 16.2607 17.973 16.3486 17.4229 16.3486ZM22.1738 14.7227V19H20.9971V13.7168H22.1201L22.1738 14.7227ZM23.79 13.6826L23.7803 14.7764C23.7087 14.7633 23.6305 14.7536 23.5459 14.7471C23.4645 14.7406 23.3831 14.7373 23.3018 14.7373C23.0999 14.7373 22.9225 14.7666 22.7695 14.8252C22.6165 14.8805 22.488 14.9619 22.3838 15.0693C22.2829 15.1735 22.2048 15.3005 22.1494 15.4502C22.0941 15.5999 22.0615 15.7676 22.0518 15.9531L21.7832 15.9727C21.7832 15.6406 21.8158 15.333 21.8809 15.0498C21.946 14.7666 22.0436 14.5176 22.1738 14.3027C22.3073 14.0879 22.4733 13.9202 22.6719 13.7998C22.8737 13.6794 23.1064 13.6191 23.3701 13.6191C23.4417 13.6191 23.5182 13.6257 23.5996 13.6387C23.6842 13.6517 23.7477 13.6663 23.79 13.6826ZM25.7871 13.7168V19H24.6055V13.7168H25.7871ZM24.5273 12.3301C24.5273 12.151 24.5859 12.0029 24.7031 11.8857C24.8236 11.7653 24.9896 11.7051 25.2012 11.7051C25.4095 11.7051 25.5739 11.7653 25.6943 11.8857C25.8148 12.0029 25.875 12.151 25.875 12.3301C25.875 12.5059 25.8148 12.6523 25.6943 12.7695C25.5739 12.8867 25.4095 12.9453 25.2012 12.9453C24.9896 12.9453 24.8236 12.8867 24.7031 12.7695C24.5859 12.6523 24.5273 12.5059 24.5273 12.3301ZM31.1631 18.0625V19H27.2275V18.0625H31.1631ZM31.0557 14.4492L27.6279 19H26.8662V18.2432L30.2744 13.7168H31.0557V14.4492ZM30.6016 13.7168V14.6543H26.9248V13.7168H30.6016ZM34.3564 19.0977C33.9658 19.0977 33.6126 19.0342 33.2969 18.9072C32.9844 18.777 32.7174 18.5964 32.4961 18.3652C32.278 18.1341 32.1104 17.8623 31.9932 17.5498C31.876 17.2373 31.8174 16.9004 31.8174 16.5391V16.3438C31.8174 15.9303 31.8776 15.556 31.998 15.2207C32.1185 14.8854 32.2861 14.599 32.501 14.3613C32.7158 14.1204 32.9697 13.9365 33.2627 13.8096C33.5557 13.6826 33.873 13.6191 34.2148 13.6191C34.5924 13.6191 34.9229 13.6826 35.2061 13.8096C35.4893 13.9365 35.7236 14.1156 35.9092 14.3467C36.098 14.5745 36.238 14.8464 36.3291 15.1621C36.4235 15.4779 36.4707 15.8262 36.4707 16.207V16.71H32.3887V15.8652H35.3086V15.7725C35.3021 15.5609 35.2598 15.3623 35.1816 15.1768C35.1068 14.9912 34.9912 14.8415 34.835 14.7275C34.6787 14.6136 34.4704 14.5566 34.21 14.5566C34.0146 14.5566 33.8405 14.599 33.6875 14.6836C33.5378 14.765 33.4124 14.8838 33.3115 15.04C33.2106 15.1963 33.1325 15.3851 33.0771 15.6064C33.0251 15.8245 32.999 16.0703 32.999 16.3438V16.5391C32.999 16.7702 33.0299 16.985 33.0918 17.1836C33.1569 17.3789 33.2513 17.5498 33.375 17.6963C33.4987 17.8428 33.6484 17.9583 33.8242 18.043C34 18.1243 34.2002 18.165 34.4248 18.165C34.708 18.165 34.9603 18.1081 35.1816 17.9941C35.403 17.8802 35.5951 17.7191 35.7578 17.5107L36.3779 18.1113C36.264 18.2773 36.1159 18.4368 35.9336 18.5898C35.7513 18.7396 35.5283 18.8617 35.2646 18.9561C35.0042 19.0505 34.7015 19.0977 34.3564 19.0977ZM42.6963 16.3486H40.8457V15.377H42.6963C43.0186 15.377 43.279 15.3249 43.4775 15.2207C43.6761 15.1165 43.821 14.9733 43.9121 14.791C44.0065 14.6055 44.0537 14.3939 44.0537 14.1562C44.0537 13.9316 44.0065 13.7217 43.9121 13.5264C43.821 13.3278 43.6761 13.1683 43.4775 13.0479C43.279 12.9274 43.0186 12.8672 42.6963 12.8672H41.2217V19H39.9961V11.8906H42.6963C43.2464 11.8906 43.7135 11.9883 44.0977 12.1836C44.485 12.3757 44.7796 12.6426 44.9814 12.9844C45.1833 13.3229 45.2842 13.7103 45.2842 14.1465C45.2842 14.6055 45.1833 14.9993 44.9814 15.3281C44.7796 15.6569 44.485 15.9092 44.0977 16.085C43.7135 16.2607 43.2464 16.3486 42.6963 16.3486ZM45.9727 16.417V16.3047C45.9727 15.9238 46.028 15.5706 46.1387 15.2451C46.2493 14.9163 46.4089 14.6315 46.6172 14.3906C46.8288 14.1465 47.0859 13.9577 47.3887 13.8242C47.6947 13.6875 48.0397 13.6191 48.4238 13.6191C48.8112 13.6191 49.1562 13.6875 49.459 13.8242C49.765 13.9577 50.0238 14.1465 50.2354 14.3906C50.4469 14.6315 50.6081 14.9163 50.7188 15.2451C50.8294 15.5706 50.8848 15.9238 50.8848 16.3047V16.417C50.8848 16.7979 50.8294 17.151 50.7188 17.4766C50.6081 17.8021 50.4469 18.0869 50.2354 18.3311C50.0238 18.5719 49.7666 18.7607 49.4639 18.8975C49.1611 19.0309 48.8177 19.0977 48.4336 19.0977C48.0462 19.0977 47.6995 19.0309 47.3936 18.8975C47.0908 18.7607 46.8337 18.5719 46.6221 18.3311C46.4105 18.0869 46.2493 17.8021 46.1387 17.4766C46.028 17.151 45.9727 16.7979 45.9727 16.417ZM47.1494 16.3047V16.417C47.1494 16.6546 47.1738 16.8792 47.2227 17.0908C47.2715 17.3024 47.348 17.488 47.4521 17.6475C47.5563 17.807 47.6898 17.9323 47.8525 18.0234C48.0153 18.1146 48.209 18.1602 48.4336 18.1602C48.6517 18.1602 48.8405 18.1146 49 18.0234C49.1628 17.9323 49.2962 17.807 49.4004 17.6475C49.5046 17.488 49.5811 17.3024 49.6299 17.0908C49.682 16.8792 49.708 16.6546 49.708 16.417V16.3047C49.708 16.0703 49.682 15.849 49.6299 15.6406C49.5811 15.429 49.5029 15.2419 49.3955 15.0791C49.2913 14.9163 49.1579 14.7894 48.9951 14.6982C48.8356 14.6038 48.6452 14.5566 48.4238 14.5566C48.2025 14.5566 48.0104 14.6038 47.8477 14.6982C47.6882 14.7894 47.5563 14.9163 47.4521 15.0791C47.348 15.2419 47.2715 15.429 47.2227 15.6406C47.1738 15.849 47.1494 16.0703 47.1494 16.3047ZM51.6465 16.417V16.3047C51.6465 15.9238 51.7018 15.5706 51.8125 15.2451C51.9232 14.9163 52.0827 14.6315 52.291 14.3906C52.5026 14.1465 52.7598 13.9577 53.0625 13.8242C53.3685 13.6875 53.7135 13.6191 54.0977 13.6191C54.485 13.6191 54.8301 13.6875 55.1328 13.8242C55.4388 13.9577 55.6976 14.1465 55.9092 14.3906C56.1208 14.6315 56.2819 14.9163 56.3926 15.2451C56.5033 15.5706 56.5586 15.9238 56.5586 16.3047V16.417C56.5586 16.7979 56.5033 17.151 56.3926 17.4766C56.2819 17.8021 56.1208 18.0869 55.9092 18.3311C55.6976 18.5719 55.4404 18.7607 55.1377 18.8975C54.835 19.0309 54.4915 19.0977 54.1074 19.0977C53.7201 19.0977 53.3734 19.0309 53.0674 18.8975C52.7646 18.7607 52.5075 18.5719 52.2959 18.3311C52.0843 18.0869 51.9232 17.8021 51.8125 17.4766C51.7018 17.151 51.6465 16.7979 51.6465 16.417ZM52.8232 16.3047V16.417C52.8232 16.6546 52.8477 16.8792 52.8965 17.0908C52.9453 17.3024 53.0218 17.488 53.126 17.6475C53.2301 17.807 53.3636 17.9323 53.5264 18.0234C53.6891 18.1146 53.8828 18.1602 54.1074 18.1602C54.3255 18.1602 54.5143 18.1146 54.6738 18.0234C54.8366 17.9323 54.9701 17.807 55.0742 17.6475C55.1784 17.488 55.2549 17.3024 55.3037 17.0908C55.3558 16.8792 55.3818 16.6546 55.3818 16.417V16.3047C55.3818 16.0703 55.3558 15.849 55.3037 15.6406C55.2549 15.429 55.1768 15.2419 55.0693 15.0791C54.9652 14.9163 54.8317 14.7894 54.6689 14.6982C54.5094 14.6038 54.319 14.5566 54.0977 14.5566C53.8763 14.5566 53.6842 14.6038 53.5215 14.6982C53.362 14.7894 53.2301 14.9163 53.126 15.0791C53.0218 15.2419 52.9453 15.429 52.8965 15.6406C52.8477 15.849 52.8232 16.0703 52.8232 16.3047ZM58.8047 11.5V19H57.623V11.5H58.8047Z" fill="#A0A0A0"/>
<rect x="14" y="67" width="122" height="11" rx="5.5" fill="#D9D9D9"/>
<rect x="31" y="97" width="39" height="8" rx="4" fill="#D9D9D9"/>
<g clip-path="url(#clip0_3858_29977)">
<path d="M153.988 98.7169C153.988 98.6264 153.962 98.5379 153.913 98.4618C153.865 98.3857 153.795 98.3252 153.713 98.2874C153.631 98.2496 153.539 98.2362 153.45 98.2487C153.36 98.2612 153.276 98.2991 153.208 98.358L151.517 99.8072C151.509 99.8138 151.5 99.8174 151.49 99.8175C151.48 99.8177 151.47 99.8142 151.462 99.8079L149.781 98.4535C149.712 98.3976 149.628 98.3625 149.539 98.3523C149.451 98.342 149.361 98.357 149.281 98.3955C149.2 98.4341 149.132 98.4946 149.085 98.57C149.037 98.6455 149.012 98.7329 149.012 98.822V102.416C149.012 102.478 149.024 102.539 149.048 102.596C149.072 102.654 149.107 102.706 149.151 102.75C149.195 102.794 149.247 102.829 149.304 102.852C149.361 102.876 149.423 102.888 149.485 102.888C149.547 102.888 149.608 102.876 149.666 102.852C149.723 102.829 149.775 102.794 149.819 102.75C149.863 102.706 149.898 102.654 149.922 102.596C149.945 102.539 149.958 102.478 149.958 102.416V99.8994C149.958 99.8633 149.999 99.843 150.027 99.8657L151.204 100.813C151.29 100.882 151.397 100.919 151.507 100.917C151.618 100.916 151.724 100.876 151.808 100.804L152.972 99.8052C152.978 99.7999 152.986 99.7964 152.994 99.7953C153.002 99.7942 153.011 99.7954 153.018 99.7989C153.025 99.8023 153.032 99.8078 153.036 99.8147C153.041 99.8216 153.043 99.8296 153.043 99.8378V102.416C153.043 102.541 153.093 102.662 153.181 102.75C153.27 102.839 153.39 102.889 153.516 102.889C153.641 102.889 153.761 102.839 153.85 102.75C153.939 102.662 153.988 102.541 153.988 102.416V98.7165L153.988 98.7169Z" fill="#777777"/>
<path d="M151.5 95.3438C148.652 95.3438 146.344 97.6524 146.344 100.5C146.344 103.348 148.652 105.656 151.5 105.656C154.348 105.656 156.656 103.348 156.656 100.5C156.656 97.6524 154.348 95.3438 151.5 95.3438ZM147.031 100.5C147.031 98.0319 149.032 96.0312 151.5 96.0312C153.968 96.0312 155.969 98.0319 155.969 100.5C155.969 102.968 153.968 104.969 151.5 104.969C149.032 104.969 147.031 102.968 147.031 100.5Z" fill="#777777"/>
</g>
<path d="M99.8672 96.0312H98.6094V95.5234C98.6094 95.4676 98.5602 95.4219 98.5 95.4219H91.5C91.4398 95.4219 91.3906 95.4676 91.3906 95.5234V96.0312H90.1328C89.9733 96.0312 89.8203 96.0901 89.7074 96.1949C89.5946 96.2996 89.5312 96.4417 89.5312 96.5898V98.4688C89.5312 99.506 90.3516 100.368 91.4207 100.525C91.6326 102.001 92.9082 103.162 94.5078 103.325V104.66H91.8281C91.5861 104.66 91.3906 104.842 91.3906 105.067V105.477C91.3906 105.532 91.4398 105.578 91.5 105.578H98.5C98.5602 105.578 98.6094 105.532 98.6094 105.477V105.067C98.6094 104.842 98.4139 104.66 98.1719 104.66H95.4922V103.325C97.0918 103.162 98.3674 102.001 98.5793 100.525C99.6484 100.368 100.469 99.506 100.469 98.4688V96.5898C100.469 96.4417 100.405 96.2996 100.293 96.1949C100.18 96.0901 100.027 96.0312 99.8672 96.0312ZM90.5156 98.4688V96.9453H91.3906V99.5809C91.1367 99.5055 90.9151 99.3572 90.7578 99.1573C90.6005 98.9574 90.5157 98.7163 90.5156 98.4688V98.4688ZM97.625 100.094C97.625 100.717 97.3639 101.305 96.8881 101.745C96.4123 102.187 95.7807 102.43 95.1094 102.43H94.8906C94.2193 102.43 93.5863 102.187 93.1119 101.745C92.6361 101.304 92.375 100.717 92.375 100.094V96.3359H97.625V100.094ZM99.4844 98.4688C99.4844 98.9893 99.1166 99.4311 98.6094 99.5809V96.9453H99.4844V98.4688Z" fill="#777777"/>
<path d="M20.814 99.9891C20.7256 99.9815 20.6369 99.9773 20.5481 99.9766C18.7874 99.9766 17.3608 101.296 17.3608 102.924C17.3608 103.409 17.4902 103.866 17.7151 104.27C17.5978 103.941 17.538 103.597 17.5378 103.251C17.5378 101.526 18.9822 100.115 20.814 99.9891M21.8272 105.338C21.5159 105.53 21.1741 105.677 20.814 105.772C21.317 105.715 21.7983 105.549 22.2192 105.289C23.6823 104.381 24.0794 102.57 23.1062 101.243C23.0566 101.176 23.0039 101.112 22.9484 101.05C23.8476 102.5 23.378 104.375 21.8272 105.338Z" fill="#777777"/>
<path d="M23.0707 99.9723V98.3414C23.0707 98.2732 23.0303 98.2158 22.9732 98.1802L24.9688 95.375H21.1427L20.5 96.2649L19.8573 95.375H16.0312L18.0263 98.18C17.9693 98.2156 17.9288 98.2732 17.9288 98.3414V99.9723C17.0186 100.66 16.4375 101.705 16.4375 102.875C16.4375 104.946 18.2565 106.625 20.5 106.625C20.6385 106.625 20.775 106.618 20.9099 106.606C22.9609 106.416 24.5625 104.818 24.5625 102.875C24.5625 101.705 23.981 100.66 23.0707 99.9723ZM22.2928 95.5625H23.5782L21.7854 98.0448L21.1427 97.1549L22.2928 95.5625ZM22.4281 98.9347L22.6257 98.6613C22.6365 98.6848 22.6424 98.7102 22.6424 98.7371V99.5281C22.6422 99.5526 22.6367 99.5768 22.6264 99.5993C22.616 99.6218 22.601 99.6422 22.582 99.6594C21.9727 99.3223 21.2621 99.125 20.5 99.125C19.7661 99.1251 19.0461 99.3099 18.4176 99.6596C18.3795 99.6248 18.3578 99.5776 18.3572 99.5281V98.7371C18.3572 98.7102 18.3635 98.6846 18.3739 98.6613L18.5715 98.9349H22.4281V98.9347ZM17.4218 95.5625H18.7072L21.0074 98.7472H19.722L17.4218 95.5625ZM20.5 106.062C18.5929 106.062 17.0469 104.635 17.0469 102.875C17.0469 101.115 18.5929 99.6875 20.5 99.6875C22.4067 99.6875 23.9531 101.115 23.9531 102.875C23.9531 104.635 22.4067 106.062 20.5 106.062Z" fill="#777777"/>
<path d="M20.9537 104.226V100.812H20.1729C20.1729 100.887 20.157 100.961 20.1261 101.03C20.0951 101.099 20.0497 101.162 19.9925 101.215C19.9353 101.268 19.8673 101.31 19.7925 101.338C19.7177 101.367 19.6376 101.382 19.5566 101.382V102.093C19.6123 102.093 20.033 102.063 20.1729 102.012V104.226H19.5566V104.938H21.57V104.226H20.9537Z" fill="#777777"/>
<rect x="105" y="97" width="32" height="8" rx="4" fill="#D9D9D9"/>
<rect x="160" y="97" width="32" height="8" rx="4" fill="#D9D9D9"/>
<line x1="14.5" y1="59.5" x2="338.5" y2="59.5" stroke="#F2F2F2" stroke-linecap="round"/>
<rect x="264.301" y="27.2422" width="72.6207" height="20" rx="10" fill="#F97F4E"/>
<path d="M290.548 39.1784V40.2422H286.737V39.1784H290.548ZM287.15 33.0715V40.2422H285.796V33.0715H287.15ZM290.051 36.0314V37.0705H286.737V36.0314H290.051ZM290.534 33.0715V34.1402H286.737V33.0715H290.534ZM297.251 33.0715V40.2422H295.892L292.843 35.268V40.2422H291.489V33.0715H292.843L295.902 38.0506V33.0715H297.251ZM301.561 33.0715V40.2422H300.211V33.0715H301.561ZM303.787 33.0715V34.1402H298.01V33.0715H303.787ZM309.44 39.1784V40.2422H305.628V39.1784H309.44ZM306.042 33.0715V40.2422H304.688V33.0715H306.042ZM308.943 36.0314V37.0705H305.628V36.0314H308.943ZM309.426 33.0715V34.1402H305.628V33.0715H309.426ZM310.381 33.0715H312.986C313.531 33.0715 313.999 33.1536 314.39 33.3178C314.781 33.4819 315.081 33.7249 315.291 34.0467C315.501 34.3684 315.606 34.7641 315.606 35.2336C315.606 35.6046 315.541 35.9263 315.409 36.1988C315.278 36.4714 315.093 36.6995 314.853 36.8834C314.616 37.0673 314.337 37.2117 314.016 37.3168L313.592 37.5335H311.292L311.282 36.4648H313.001C313.28 36.4648 313.512 36.4155 313.695 36.317C313.879 36.2185 314.017 36.0823 314.109 35.9083C314.204 35.7343 314.252 35.5356 314.252 35.3124C314.252 35.0727 314.206 34.8658 314.114 34.6918C314.022 34.5145 313.883 34.3783 313.695 34.2831C313.508 34.1878 313.272 34.1402 312.986 34.1402H311.735V40.2422H310.381V33.0715ZM314.429 40.2422L312.77 37.0311L314.203 37.0262L315.882 40.1732V40.2422H314.429Z" fill="white"/>
<defs>
<filter id="filter0_d_3858_29977" x="0" y="0" width="357" height="125" filterUnits="userSpaceOnUse" color-interpolation-filters="sRGB">
<feFlood flood-opacity="0" result="BackgroundImageFix"/>
<feColorMatrix in="SourceAlpha" type="matrix" values="0 0 0 0 0 0 0 0 0 0 0 0 0 0 0 0 0 0 127 0" result="hardAlpha"/>
<feOffset dx="2" dy="4"/>
<feGaussianBlur stdDeviation="2"/>
<feComposite in2="hardAlpha" operator="out"/>
<feColorMatrix type="matrix" values="0 0 0 0 0 0 0 0 0 0 0 0 0 0 0 0 0 0 0.15 0"/>
<feBlend mode="normal" in2="BackgroundImageFix" result="effect1_dropShadow_3858_29977"/>
<feBlend mode="normal" in="SourceGraphic" in2="effect1_dropShadow_3858_29977" result="shape"/>
</filter>
<linearGradient id="paint0_linear_3858_29977" x1="176" y1="0" x2="176" y2="117" gradientUnits="userSpaceOnUse">
<stop stop-color="#0C0C0C"/>
<stop offset="0.505208" stop-opacity="0.8"/>
<stop offset="1" stop-color="#545D8C"/>
<stop offset="1"/>
</linearGradient>
<linearGradient id="paint1_linear_3858_29977" x1="3" y1="102" x2="346" y2="99.5" gradientUnits="userSpaceOnUse">
<stop stop-opacity="0.35"/>
<stop offset="0.432292" stop-opacity="0.83"/>
<stop offset="0.677083" stop-opacity="0.6"/>
<stop offset="1" stop-opacity="0.27"/>
</linearGradient>
<clipPath id="clip0_3858_29977">
<rect width="11" height="11" fill="white" transform="translate(146 95)"/>
</clipPath>
</defs>
</svg>
