<svg width="360" height="126" viewBox="0 0 360 126" fill="none" xmlns="http://www.w3.org/2000/svg">
<path d="M322.91 44.3729V45.3008H318.353V44.3729H322.91ZM318.584 36.696V45.3008H317.443V36.696H318.584ZM322.307 40.3956V41.3234H318.353V40.3956H322.307ZM322.851 36.696V37.6297H318.353V36.696H322.851ZM325.25 40.2715V45.3008H324.157V38.9063H325.191L325.25 40.2715ZM324.99 41.8612L324.535 41.8435C324.539 41.4062 324.604 41.0023 324.73 40.632C324.856 40.2577 325.034 39.9326 325.262 39.6568C325.491 39.381 325.762 39.1683 326.078 39.0186C326.397 38.8649 326.749 38.7881 327.135 38.7881C327.451 38.7881 327.734 38.8314 327.986 38.9181C328.239 39.0008 328.453 39.1348 328.631 39.32C328.812 39.5052 328.95 39.7455 329.044 40.041C329.139 40.3325 329.186 40.6891 329.186 41.1107V45.3008H328.087V41.0989C328.087 40.764 328.038 40.496 327.939 40.2951C327.841 40.0902 327.697 39.9425 327.508 39.8519C327.319 39.7573 327.086 39.71 326.81 39.71C326.539 39.71 326.29 39.7672 326.066 39.8814C325.845 39.9957 325.654 40.1533 325.493 40.3542C325.335 40.5551 325.211 40.7856 325.12 41.0457C325.034 41.3018 324.99 41.5736 324.99 41.8612ZM333.524 38.9063V39.7455H330.067V38.9063H333.524ZM331.237 37.352H332.33V43.7169C332.33 43.9336 332.364 44.0971 332.431 44.2075C332.498 44.3178 332.584 44.3907 332.691 44.4261C332.797 44.4616 332.911 44.4793 333.034 44.4793C333.124 44.4793 333.219 44.4714 333.317 44.4557C333.42 44.436 333.496 44.4202 333.548 44.4084L333.554 45.3008C333.467 45.3284 333.353 45.354 333.211 45.3776C333.073 45.4052 332.905 45.419 332.708 45.419C332.441 45.419 332.194 45.3658 331.97 45.2594C331.745 45.153 331.566 44.9757 331.432 44.7275C331.302 44.4754 331.237 44.1365 331.237 43.711V37.352ZM335.9 39.911V45.3008H334.807V38.9063H335.87L335.9 39.911ZM337.897 38.8708L337.891 39.8873C337.801 39.8676 337.714 39.8558 337.631 39.8519C337.553 39.844 337.462 39.84 337.36 39.84C337.107 39.84 336.885 39.8794 336.692 39.9582C336.499 40.037 336.335 40.1474 336.201 40.2892C336.067 40.431 335.961 40.6005 335.882 40.7974C335.807 40.9905 335.758 41.2033 335.734 41.4357L335.427 41.613C335.427 41.2269 335.464 40.8644 335.539 40.5256C335.618 40.1868 335.738 39.8873 335.9 39.6273C336.061 39.3633 336.266 39.1584 336.514 39.0127C336.767 38.8629 337.066 38.7881 337.413 38.7881C337.492 38.7881 337.582 38.7979 337.685 38.8176C337.787 38.8334 337.858 38.8511 337.897 38.8708ZM340.811 44.6389L342.59 38.9063H343.76L341.195 46.2877C341.136 46.4453 341.057 46.6147 340.959 46.796C340.864 46.9812 340.742 47.1565 340.592 47.322C340.443 47.4874 340.261 47.6214 340.049 47.7238C339.84 47.8302 339.59 47.8834 339.298 47.8834C339.211 47.8834 339.101 47.8716 338.967 47.8479C338.833 47.8243 338.739 47.8046 338.683 47.7888L338.677 46.9024C338.709 46.9063 338.758 46.9102 338.825 46.9142C338.896 46.9221 338.945 46.926 338.973 46.926C339.221 46.926 339.432 46.8925 339.605 46.8255C339.779 46.7625 339.924 46.6541 340.043 46.5005C340.165 46.3508 340.269 46.1439 340.356 45.88L340.811 44.6389ZM339.505 38.9063L341.166 43.8706L341.449 45.023L340.663 45.4249L338.311 38.9063H339.505Z" fill="black" fill-opacity="0.5"/>
<g filter="url(#filter0_d_3858_30006)">
<rect x="3" width="349.991" height="117" rx="10" fill="white"/>
<rect x="3.50431" y="0.50431" width="348.983" height="115.991" rx="9.49569" stroke="#CDCDCD" stroke-width="1.00862"/>
</g>
<rect x="14" y="29" width="69" height="16" rx="8" fill="#D9D9D9"/>
<path d="M19.2463 15.8593H17.0065V14.6832H19.2463C19.6364 14.6832 19.9516 14.6202 20.1919 14.4941C20.4323 14.368 20.6076 14.1947 20.7179 13.974C20.8322 13.7495 20.8893 13.4934 20.8893 13.2058C20.8893 12.9339 20.8322 12.6798 20.7179 12.4434C20.6076 12.203 20.4323 12.01 20.1919 11.8642C19.9516 11.7184 19.6364 11.6455 19.2463 11.6455H17.4616V19.0684H15.9782V10.4636H19.2463C19.9122 10.4636 20.4776 10.5818 20.9425 10.8182C21.4113 11.0506 21.7679 11.3737 22.0122 11.7874C22.2564 12.1971 22.3786 12.666 22.3786 13.1939C22.3786 13.7495 22.2564 14.2262 22.0122 14.6241C21.7679 15.0221 21.4113 15.3274 20.9425 15.5402C20.4776 15.7529 19.9122 15.8593 19.2463 15.8593ZM24.9967 13.8913V19.0684H23.5724V12.6739H24.9317L24.9967 13.8913ZM26.9528 12.6325L26.941 13.9563C26.8543 13.9405 26.7598 13.9287 26.6573 13.9208C26.5588 13.913 26.4603 13.909 26.3619 13.909C26.1176 13.909 25.9028 13.9445 25.7177 14.0154C25.5325 14.0824 25.3769 14.1809 25.2508 14.3109C25.1287 14.437 25.0341 14.5906 24.9671 14.7719C24.9001 14.9531 24.8607 15.156 24.8489 15.3806L24.5239 15.4042C24.5239 15.0024 24.5633 14.63 24.6421 14.2873C24.7209 13.9445 24.8391 13.6431 24.9967 13.383C25.1582 13.123 25.3591 12.9201 25.5995 12.7743C25.8438 12.6286 26.1255 12.5557 26.4446 12.5557C26.5313 12.5557 26.6239 12.5635 26.7224 12.5793C26.8248 12.5951 26.9016 12.6128 26.9528 12.6325ZM29.37 12.6739V19.0684H27.9398V12.6739H29.37ZM27.8452 10.9955C27.8452 10.7788 27.9162 10.5995 28.058 10.4577C28.2038 10.3119 28.4047 10.239 28.6608 10.239C28.913 10.239 29.1119 10.3119 29.2577 10.4577C29.4035 10.5995 29.4764 10.7788 29.4764 10.9955C29.4764 11.2082 29.4035 11.3855 29.2577 11.5273C29.1119 11.6692 28.913 11.7401 28.6608 11.7401C28.4047 11.7401 28.2038 11.6692 28.058 11.5273C27.9162 11.3855 27.8452 11.2082 27.8452 10.9955ZM35.8768 17.9337V19.0684H31.1134V17.9337H35.8768ZM35.7468 13.5603L31.598 19.0684H30.6761V18.1523L34.8012 12.6739H35.7468V13.5603ZM35.1971 12.6739V13.8086H30.747V12.6739H35.1971ZM39.7418 19.1866C39.269 19.1866 38.8416 19.1097 38.4594 18.9561C38.0812 18.7985 37.7581 18.5798 37.4902 18.3001C37.2262 18.0203 37.0233 17.6914 36.8814 17.3131C36.7396 16.9349 36.6687 16.5271 36.6687 16.0898V15.8534C36.6687 15.353 36.7416 14.8999 36.8874 14.4941C37.0331 14.0883 37.236 13.7416 37.4961 13.454C37.7561 13.1624 38.0634 12.9398 38.418 12.7861C38.7726 12.6325 39.1568 12.5557 39.5704 12.5557C40.0275 12.5557 40.4274 12.6325 40.7702 12.7861C41.1129 12.9398 41.3966 13.1565 41.6212 13.4362C41.8497 13.712 42.0191 14.041 42.1294 14.4232C42.2437 14.8054 42.3008 15.2269 42.3008 15.6879V16.2966H37.3602V15.2742H40.8943V15.1619C40.8864 14.9058 40.8352 14.6655 40.7406 14.4409C40.65 14.2163 40.5101 14.0351 40.321 13.8972C40.1319 13.7593 39.8797 13.6904 39.5645 13.6904C39.3281 13.6904 39.1174 13.7416 38.9322 13.844C38.7509 13.9425 38.5993 14.0863 38.4771 14.2754C38.355 14.4646 38.2604 14.6931 38.1934 14.961C38.1304 15.225 38.0989 15.5224 38.0989 15.8534V16.0898C38.0989 16.3695 38.1363 16.6295 38.2112 16.8699C38.29 17.1063 38.4042 17.3131 38.5539 17.4904C38.7037 17.6677 38.8849 17.8076 39.0977 17.91C39.3104 18.0085 39.5527 18.0578 39.8246 18.0578C40.1673 18.0578 40.4727 17.9888 40.7406 17.8509C41.0085 17.713 41.241 17.518 41.438 17.2658L42.1885 17.9928C42.0506 18.1937 41.8714 18.3868 41.6507 18.5719C41.4301 18.7532 41.1602 18.9009 40.8411 19.0152C40.5259 19.1294 40.1595 19.1866 39.7418 19.1866ZM49.8359 15.8593H47.5961V14.6832H49.8359C50.226 14.6832 50.5412 14.6202 50.7815 14.4941C51.0218 14.368 51.1972 14.1947 51.3075 13.974C51.4217 13.7495 51.4789 13.4934 51.4789 13.2058C51.4789 12.9339 51.4217 12.6798 51.3075 12.4434C51.1972 12.203 51.0218 12.01 50.7815 11.8642C50.5412 11.7184 50.226 11.6455 49.8359 11.6455H48.0511V19.0684H46.5678V10.4636H49.8359C50.5018 10.4636 51.0671 10.5818 51.5321 10.8182C52.0009 11.0506 52.3575 11.3737 52.6018 11.7874C52.846 12.1971 52.9682 12.666 52.9682 13.1939C52.9682 13.7495 52.846 14.2262 52.6018 14.6241C52.3575 15.0221 52.0009 15.3274 51.5321 15.5402C51.0671 15.7529 50.5018 15.8593 49.8359 15.8593ZM53.8015 15.942V15.8061C53.8015 15.3451 53.8684 14.9176 54.0024 14.5237C54.1363 14.1257 54.3294 13.781 54.5816 13.4894C54.8377 13.1939 55.1489 12.9654 55.5153 12.8039C55.8857 12.6384 56.3033 12.5557 56.7682 12.5557C57.2371 12.5557 57.6547 12.6384 58.0211 12.8039C58.3915 12.9654 58.7047 13.1939 58.9608 13.4894C59.2169 13.781 59.4119 14.1257 59.5459 14.5237C59.6798 14.9176 59.7468 15.3451 59.7468 15.8061V15.942C59.7468 16.403 59.6798 16.8305 59.5459 17.2245C59.4119 17.6185 59.2169 17.9632 58.9608 18.2587C58.7047 18.5503 58.3934 18.7788 58.027 18.9443C57.6606 19.1058 57.245 19.1866 56.78 19.1866C56.3112 19.1866 55.8916 19.1058 55.5212 18.9443C55.1548 18.7788 54.8436 18.5503 54.5875 18.2587C54.3314 17.9632 54.1363 17.6185 54.0024 17.2245C53.8684 16.8305 53.8015 16.403 53.8015 15.942ZM55.2257 15.8061V15.942C55.2257 16.2296 55.2553 16.5015 55.3144 16.7576C55.3735 17.0137 55.4661 17.2383 55.5922 17.4313C55.7182 17.6244 55.8798 17.7761 56.0768 17.8864C56.2738 17.9967 56.5082 18.0519 56.78 18.0519C57.044 18.0519 57.2725 17.9967 57.4656 17.8864C57.6626 17.7761 57.8241 17.6244 57.9502 17.4313C58.0763 17.2383 58.1689 17.0137 58.228 16.7576C58.291 16.5015 58.3225 16.2296 58.3225 15.942V15.8061C58.3225 15.5224 58.291 15.2545 58.228 15.0024C58.1689 14.7463 58.0743 14.5197 57.9443 14.3227C57.8182 14.1257 57.6567 13.9721 57.4597 13.8617C57.2666 13.7475 57.0361 13.6904 56.7682 13.6904C56.5003 13.6904 56.2678 13.7475 56.0709 13.8617C55.8778 13.9721 55.7182 14.1257 55.5922 14.3227C55.4661 14.5197 55.3735 14.7463 55.3144 15.0024C55.2553 15.2545 55.2257 15.5224 55.2257 15.8061ZM60.6687 15.942V15.8061C60.6687 15.3451 60.7357 14.9176 60.8697 14.5237C61.0036 14.1257 61.1967 13.781 61.4489 13.4894C61.7049 13.1939 62.0162 12.9654 62.3826 12.8039C62.753 12.6384 63.1706 12.5557 63.6355 12.5557C64.1044 12.5557 64.522 12.6384 64.8884 12.8039C65.2588 12.9654 65.572 13.1939 65.8281 13.4894C66.0842 13.781 66.2792 14.1257 66.4132 14.5237C66.5471 14.9176 66.6141 15.3451 66.6141 15.8061V15.942C66.6141 16.403 66.5471 16.8305 66.4132 17.2245C66.2792 17.6185 66.0842 17.9632 65.8281 18.2587C65.572 18.5503 65.2607 18.7788 64.8943 18.9443C64.5279 19.1058 64.1122 19.1866 63.6473 19.1866C63.1785 19.1866 62.7589 19.1058 62.3885 18.9443C62.0221 18.7788 61.7109 18.5503 61.4548 18.2587C61.1987 17.9632 61.0036 17.6185 60.8697 17.2245C60.7357 16.8305 60.6687 16.403 60.6687 15.942ZM62.093 15.8061V15.942C62.093 16.2296 62.1226 16.5015 62.1817 16.7576C62.2408 17.0137 62.3334 17.2383 62.4594 17.4313C62.5855 17.6244 62.7471 17.7761 62.9441 17.8864C63.141 17.9967 63.3755 18.0519 63.6473 18.0519C63.9113 18.0519 64.1398 17.9967 64.3329 17.8864C64.5299 17.7761 64.6914 17.6244 64.8175 17.4313C64.9436 17.2383 65.0362 17.0137 65.0953 16.7576C65.1583 16.5015 65.1898 16.2296 65.1898 15.942V15.8061C65.1898 15.5224 65.1583 15.2545 65.0953 15.0024C65.0362 14.7463 64.9416 14.5197 64.8116 14.3227C64.6855 14.1257 64.524 13.9721 64.327 13.8617C64.1339 13.7475 63.9034 13.6904 63.6355 13.6904C63.3676 13.6904 63.1351 13.7475 62.9381 13.8617C62.7451 13.9721 62.5855 14.1257 62.4594 14.3227C62.3334 14.5197 62.2408 14.7463 62.1817 15.0024C62.1226 15.2545 62.093 15.5224 62.093 15.8061ZM69.3326 9.99077V19.0684H67.9024V9.99077H69.3326Z" fill="#787878"/>
<rect x="4.01025" y="87.2402" width="347.974" height="28.7507" rx="10" fill="#EFEFEF"/>
<rect x="14" y="69" width="122" height="11" rx="5.5" fill="#D9D9D9"/>
<g clip-path="url(#clip0_3858_30006)">
<path d="M155.289 100.576C155.289 100.485 155.263 100.396 155.213 100.319C155.164 100.242 155.094 100.181 155.011 100.143C154.928 100.105 154.836 100.092 154.746 100.104C154.656 100.117 154.571 100.155 154.502 100.214L152.797 101.676C152.789 101.683 152.779 101.686 152.769 101.687C152.759 101.687 152.749 101.683 152.741 101.677L151.046 100.311C150.976 100.254 150.891 100.219 150.802 100.209C150.712 100.198 150.622 100.213 150.541 100.252C150.46 100.291 150.391 100.352 150.343 100.428C150.295 100.504 150.27 100.593 150.27 100.682V104.307C150.27 104.37 150.282 104.432 150.306 104.489C150.33 104.547 150.365 104.6 150.41 104.644C150.454 104.688 150.506 104.724 150.564 104.747C150.622 104.771 150.684 104.784 150.747 104.784C150.809 104.784 150.871 104.771 150.929 104.747C150.987 104.724 151.04 104.688 151.084 104.644C151.128 104.6 151.163 104.547 151.187 104.489C151.211 104.432 151.223 104.37 151.223 104.307V101.769C151.223 101.733 151.265 101.712 151.294 101.735L152.48 102.691C152.567 102.76 152.675 102.798 152.787 102.796C152.898 102.794 153.005 102.754 153.089 102.681L154.264 101.674C154.27 101.669 154.278 101.665 154.286 101.664C154.295 101.663 154.303 101.664 154.31 101.668C154.318 101.671 154.324 101.677 154.329 101.684C154.333 101.691 154.336 101.699 154.336 101.707V104.307C154.336 104.434 154.386 104.555 154.475 104.644C154.565 104.734 154.686 104.784 154.812 104.784C154.939 104.784 155.06 104.734 155.149 104.644C155.239 104.555 155.289 104.434 155.289 104.307V100.576L155.289 100.576Z" fill="#777777"/>
<path d="M152.78 97.1738C149.908 97.1738 147.579 99.5024 147.579 102.375C147.579 105.247 149.908 107.575 152.78 107.575C155.652 107.575 157.981 105.247 157.981 102.375C157.981 99.5024 155.652 97.1738 152.78 97.1738ZM148.273 102.375C148.273 99.8851 150.29 97.8673 152.78 97.8673C155.269 97.8673 157.287 99.8851 157.287 102.375C157.287 104.864 155.269 106.882 152.78 106.882C150.29 106.882 148.273 104.864 148.273 102.375Z" fill="#777777"/>
</g>
<path d="M100.702 97.8666H99.4337V97.3544C99.4337 97.2981 99.3841 97.252 99.3234 97.252H92.2631C92.2024 97.252 92.1527 97.2981 92.1527 97.3544V97.8666H90.8841C90.7232 97.8666 90.5688 97.9259 90.4551 98.0316C90.3413 98.1373 90.2773 98.2806 90.2773 98.43V100.325C90.2773 101.371 91.1047 102.241 92.1831 102.399C92.3968 103.887 93.6834 105.059 95.2968 105.223V106.57H92.594C92.3499 106.57 92.1527 106.753 92.1527 106.98V107.393C92.1527 107.45 92.2024 107.496 92.2631 107.496H99.3234C99.3841 107.496 99.4337 107.45 99.4337 107.393V106.98C99.4337 106.753 99.2365 106.57 98.9925 106.57H96.2897V105.223C97.9031 105.059 99.1896 103.887 99.4034 102.399C100.482 102.241 101.309 101.371 101.309 100.325V98.43C101.309 98.2806 101.245 98.1373 101.131 98.0316C101.018 97.9259 100.863 97.8666 100.702 97.8666ZM91.2702 100.325V98.7885H92.1527V101.447C91.8966 101.371 91.6731 101.221 91.5144 101.02C91.3558 100.818 91.2703 100.575 91.2702 100.325V100.325ZM98.4409 101.964C98.4409 102.593 98.1775 103.186 97.6976 103.63C97.2177 104.076 96.5806 104.32 95.9036 104.32H95.6829C95.0058 104.32 94.3674 104.076 93.8889 103.63C93.409 103.184 93.1456 102.593 93.1456 101.964V98.1739H98.4409V101.964ZM100.316 100.325C100.316 100.85 99.9453 101.296 99.4337 101.447V98.7885H100.316V100.325Z" fill="#777777"/>
<g clip-path="url(#clip1_3858_30006)">
<path d="M20.9092 102.234C20.8208 102.226 20.7321 102.222 20.6433 102.221C18.8826 102.221 17.4561 103.65 17.4561 105.413C17.4561 105.94 17.5854 106.434 17.8103 106.871C17.6931 106.516 17.6332 106.143 17.633 105.768C17.633 103.899 19.0774 102.37 20.9092 102.234M21.9224 108.029C21.6111 108.237 21.2693 108.396 20.9092 108.499C21.4122 108.437 21.8935 108.258 22.3144 107.975C23.7775 106.992 24.1746 105.03 23.2014 103.592C23.1518 103.521 23.0991 103.451 23.0436 103.384C23.9429 104.954 23.4732 106.986 21.9224 108.029Z" fill="#777777"/>
<path d="M23.1655 102.215V100.448C23.1655 100.374 23.1251 100.312 23.068 100.273L25.0635 97.2344H21.2374L20.5947 98.1984L19.952 97.2344H16.126L18.1211 100.273C18.064 100.312 18.0236 100.374 18.0236 100.448V102.215C17.1134 102.96 16.5322 104.091 16.5322 105.359C16.5322 107.603 18.3512 109.422 20.5947 109.422C20.7333 109.422 20.8698 109.415 21.0046 109.401C23.0556 109.196 24.6572 107.465 24.6572 105.359C24.6572 104.091 24.0757 102.96 23.1655 102.215ZM22.3875 97.4375H23.6729L21.8801 100.127L21.2374 99.1626L22.3875 97.4375ZM22.5228 101.091L22.7204 100.795C22.7312 100.82 22.7371 100.848 22.7371 100.877V101.734C22.7369 101.76 22.7315 101.786 22.7211 101.811C22.7108 101.835 22.6957 101.857 22.6768 101.876C22.0674 101.511 21.3569 101.297 20.5947 101.297C19.8608 101.297 19.1409 101.497 18.5123 101.876C18.4742 101.838 18.4525 101.787 18.452 101.734V100.877C18.452 100.848 18.4583 100.82 18.4686 100.795L18.6663 101.091H22.5228V101.091ZM17.5166 97.4375H18.8019L21.1021 100.888H19.8168L17.5166 97.4375ZM20.5947 108.813C18.6876 108.813 17.1416 107.267 17.1416 105.359C17.1416 103.452 18.6876 101.906 20.5947 101.906C22.5015 101.906 24.0479 103.452 24.0479 105.359C24.0479 107.267 22.5015 108.813 20.5947 108.813Z" fill="#777777"/>
<path d="M21.0485 106.823V103.125H20.2676C20.2677 103.206 20.2518 103.286 20.2208 103.361C20.1898 103.436 20.1444 103.504 20.0872 103.561C20.03 103.618 19.962 103.664 19.8873 103.695C19.8125 103.726 19.7323 103.741 19.6514 103.741V104.512C19.707 104.512 20.1277 104.48 20.2676 104.424V106.823H19.6514V107.594H21.6647V106.823H21.0485Z" fill="#777777"/>
</g>
<rect x="106" y="99" width="32" height="8" rx="4" fill="#454545"/>
<rect x="164" y="99" width="32" height="8" rx="4" fill="#454545"/>
<line x1="15.6086" y1="60.0125" x2="340.384" y2="60.0125" stroke="#FFD7C9" stroke-width="3.02586" stroke-linecap="round"/>
<rect x="272.301" y="28.2422" width="72.6207" height="20" rx="10" fill="#F97F4E"/>
<path d="M298.548 40.1784V41.2422H294.737V40.1784H298.548ZM295.15 34.0715V41.2422H293.796V34.0715H295.15ZM298.051 37.0314V38.0705H294.737V37.0314H298.051ZM298.534 34.0715V35.1402H294.737V34.0715H298.534ZM305.251 34.0715V41.2422H303.892L300.843 36.268V41.2422H299.489V34.0715H300.843L303.902 39.0506V34.0715H305.251ZM309.561 34.0715V41.2422H308.211V34.0715H309.561ZM311.787 34.0715V35.1402H306.01V34.0715H311.787ZM317.44 40.1784V41.2422H313.628V40.1784H317.44ZM314.042 34.0715V41.2422H312.688V34.0715H314.042ZM316.943 37.0314V38.0705H313.628V37.0314H316.943ZM317.426 34.0715V35.1402H313.628V34.0715H317.426ZM318.381 34.0715H320.986C321.531 34.0715 321.999 34.1536 322.39 34.3178C322.781 34.4819 323.081 34.7249 323.291 35.0467C323.501 35.3684 323.606 35.7641 323.606 36.2336C323.606 36.6046 323.541 36.9263 323.409 37.1988C323.278 37.4714 323.093 37.6995 322.853 37.8834C322.616 38.0673 322.337 38.2117 322.016 38.3168L321.592 38.5335H319.292L319.282 37.4648H321.001C321.28 37.4648 321.512 37.4155 321.695 37.317C321.879 37.2185 322.017 37.0823 322.109 36.9083C322.204 36.7343 322.252 36.5356 322.252 36.3124C322.252 36.0727 322.206 35.8658 322.114 35.6918C322.022 35.5145 321.883 35.3783 321.695 35.2831C321.508 35.1878 321.272 35.1402 320.986 35.1402H319.735V41.2422H318.381V34.0715ZM322.429 41.2422L320.77 38.0311L322.203 38.0262L323.882 41.1732V41.2422H322.429Z" fill="white"/>
<rect x="31" y="99" width="39" height="8" rx="4" fill="#454545"/>
<defs>
<filter id="filter0_d_3858_30006" x="0.982759" y="0" width="358.06" height="125.069" filterUnits="userSpaceOnUse" color-interpolation-filters="sRGB">
<feFlood flood-opacity="0" result="BackgroundImageFix"/>
<feColorMatrix in="SourceAlpha" type="matrix" values="0 0 0 0 0 0 0 0 0 0 0 0 0 0 0 0 0 0 127 0" result="hardAlpha"/>
<feOffset dx="2.01724" dy="4.03448"/>
<feGaussianBlur stdDeviation="2.01724"/>
<feComposite in2="hardAlpha" operator="out"/>
<feColorMatrix type="matrix" values="0 0 0 0 0 0 0 0 0 0 0 0 0 0 0 0 0 0 0.15 0"/>
<feBlend mode="normal" in2="BackgroundImageFix" result="effect1_dropShadow_3858_30006"/>
<feBlend mode="normal" in="SourceGraphic" in2="effect1_dropShadow_3858_30006" result="shape"/>
</filter>
<clipPath id="clip0_3858_30006">
<rect x="147.232" y="96.8281" width="11.0948" height="11.0948" rx="5.54741" fill="white"/>
</clipPath>
<clipPath id="clip1_3858_30006">
<rect x="14.0957" y="96.8281" width="13" height="13" rx="6.5" fill="white"/>
</clipPath>
</defs>
</svg>
