<!-- width="322" height="608" -->

<svg preserveAspectRatio="none" viewBox="0 0 322 608" fill="none" xmlns="http://www.w3.org/2000/svg">
<path d="M302.5 47.5V59C302.5 59 41.6152 74.4427 33.4998 148.61C28.4998 243.5 303.5 134.5 303.5 201.5C303.5 299.5 33.4998 278.5 37.4998 389.5C40.2187 464.951 262.357 417.054 297.762 477.43C326.685 538.736 235.928 591.681 23 588.895L23.4987 579.142C23.4987 579.142 286.293 591.681 286.293 493.221C281.306 421.698 25.4998 483 25.4998 389.5C25.4998 268 315 280.539 292 201.5C270.557 147.161 23.4998 259.5 23.4998 148.61C23.4998 69.5 302.5 47.5 302.5 47.5Z" fill="#D9D9D9"/>
<g filter="url(#filter0_i_676_4236)">
<path d="M274.481 31.0416L308.238 42.1901L295.371 60.3096L253.661 60.3594L240.75 42.2708L274.481 31.0416Z" fill="#D9D9D9"/>
</g>
<path d="M241.55 42.5314L274.481 31.5683L307.438 42.4526L295.112 59.8099L253.918 59.8591L241.55 42.5314Z" stroke="#D9D9D9"/>
<path d="M241.49 62.6025V43.4814L253.397 60.0388L253.546 60.2469H253.802H295.197H295.453L295.603 60.0388L307.509 43.4814V60.7465L294.924 80.3229H254.061L241.49 62.6025Z" fill="#9E9C9C" stroke="#787575"/>
<g clip-path="url(#clip0_676_4236)">
<path d="M274.5 0C275.804 0 276.857 1.31162 276.857 2.9351V4.40264H278.036C279.34 4.40264 280.393 5.71427 280.393 7.33774C280.393 8.96122 279.34 10.2728 278.036 10.2728H276.857V14.6755H288.643C289.402 14.6755 290.109 15.1249 290.558 15.8954C291.008 16.6658 291.125 17.6473 290.882 18.537L285.63 38.1562H263.37L258.118 18.537C257.882 17.6473 258 16.6567 258.442 15.8954C258.884 15.1341 259.599 14.6755 260.357 14.6755H272.143V10.2728H270.964C269.661 10.2728 268.607 8.96122 268.607 7.33774C268.607 5.71427 269.661 4.40264 270.964 4.40264H272.143V2.9351C272.143 1.31162 273.196 0 274.5 0ZM260.357 44.0264C260.357 42.403 261.411 41.0913 262.714 41.0913H286.286C287.59 41.0913 288.643 42.403 288.643 44.0264C288.643 45.6499 287.59 46.9615 286.286 46.9615H262.714C261.411 46.9615 260.357 45.6499 260.357 44.0264Z" fill="white"/>
</g>
<g filter="url(#filter1_i_676_4236)">
<path d="M38.4806 134.042L72.2381 145.19L59.3707 163.31L17.6607 163.359L4.74992 145.271L38.4806 134.042Z" fill="#D9D9D9"/>
</g>
<path d="M5.55019 145.531L38.4813 134.568L71.4385 145.453L59.1123 162.81L17.9179 162.859L5.55019 145.531Z" stroke="#D9D9D9"/>
<path d="M5.48999 165.602V146.481L17.3965 163.039L17.5462 163.247H17.8025H59.1966H59.4529L59.6025 163.039L71.509 146.481V163.747L58.9236 183.323H18.0608L5.48999 165.602Z" fill="#9E9C9C" stroke="#787575"/>
<path d="M36.7007 106.907C35.5985 107.283 34.606 108.696 34.3159 110.292C33.897 112.548 34.8122 115.043 36.3462 115.813C36.5202 115.905 36.662 116.015 36.662 116.07C36.662 116.125 36.546 116.767 36.4106 117.492C35.6565 121.427 34.6769 124.151 33.4071 125.82C32.5886 126.884 31.7442 127.398 30.7968 127.398C30.2296 127.398 29.7977 127.251 29.2048 126.857C27.8706 125.958 26.4333 123.683 25.4536 120.895C24.9186 119.372 24.9186 119.51 25.3763 118.914C25.8339 118.299 26.0595 117.795 26.1948 117.015C26.6073 114.749 25.3376 112.438 23.6747 112.429C21.2964 112.42 20.1104 116.492 21.812 118.813C22.1407 119.253 22.5597 119.583 22.9979 119.748C23.1526 119.803 23.3073 119.904 23.3331 119.978C23.3589 120.051 23.939 124.215 24.6093 129.232C25.286 134.25 25.8532 138.432 25.8726 138.515C25.9048 138.671 26.5171 138.68 37.4999 138.68C48.4827 138.68 49.095 138.671 49.1272 138.515C49.1466 138.432 49.7138 134.25 50.3905 129.232C51.0608 124.215 51.6409 120.051 51.6667 119.978C51.6925 119.904 51.8472 119.803 52.0018 119.748C52.4401 119.583 52.8591 119.253 53.1878 118.813C54.3866 117.171 54.2061 114.373 52.814 113.053C51.1446 111.475 48.9468 112.988 48.7405 115.859C48.6567 116.997 48.9597 118.033 49.6235 118.914C50.0811 119.51 50.0811 119.372 49.5462 120.895C49.0241 122.399 48.3474 123.784 47.6255 124.848C46.4331 126.618 45.3825 127.398 44.1901 127.398C41.7925 127.398 39.8138 123.894 38.5892 117.492C38.4538 116.767 38.3378 116.125 38.3378 116.07C38.3378 116.015 38.4796 115.905 38.6536 115.813C39.3755 115.447 40.0716 114.566 40.439 113.53C41.6894 110.007 39.4142 105.972 36.7007 106.907Z" fill="white"/>
<path d="M26.2399 140.752C25.9305 140.917 25.4471 141.486 25.2538 141.935C25.0604 142.385 24.9895 142.77 24.9895 143.43C24.9895 144.467 25.4084 145.43 26.0788 145.897L26.4461 146.154H37.4999H48.5536L48.9209 145.897C49.5913 145.43 50.0102 144.467 50.0102 143.43C50.0038 142.458 49.8297 141.889 49.3206 141.256C48.7598 140.55 49.7073 140.605 37.4741 140.614C27.9672 140.614 26.4719 140.642 26.2399 140.752Z" fill="white"/>
<g filter="url(#filter2_i_676_4236)">
<path d="M286.481 174.042L320.238 185.19L307.371 203.31L265.661 203.359L252.75 185.271L286.481 174.042Z" fill="#D9D9D9"/>
</g>
<path d="M253.55 185.531L286.481 174.568L319.438 185.453L307.112 202.81L265.918 202.859L253.55 185.531Z" stroke="#D9D9D9"/>
<path d="M253.49 205.602V186.481L265.397 203.039L265.546 203.247H265.802H307.197H307.453L307.603 203.039L319.509 186.481V203.747L306.924 223.323H266.061L253.49 205.602Z" fill="#9E9C9C" stroke="#787575"/>
<path d="M272.75 179.653V181.75H300.25V165.25C300.25 156.141 292.859 148.75 283.75 148.75H271.109C270.498 148.75 270 149.248 270 149.859C270 150.03 270.043 150.202 270.12 150.357L271.375 152.875L270.808 153.442C270.292 153.958 270 154.654 270 155.384V166.823C270 167.948 270.688 168.962 271.727 169.375L275.723 170.973C276.454 171.266 277.27 171.231 277.975 170.879L278.542 170.595C279.23 170.252 279.745 169.633 279.96 168.894L280.673 166.41C280.888 165.671 281.395 165.052 282.091 164.709L283.75 163.875V167.347C283.75 169.427 282.573 171.334 280.708 172.263L275.792 174.729C273.927 175.666 272.75 177.565 272.75 179.653ZM276.188 158.719C276.188 159.664 275.414 160.438 274.469 160.438C273.523 160.438 272.75 159.664 272.75 158.719C272.75 157.773 273.523 157 274.469 157C275.414 157 276.188 157.773 276.188 158.719ZM300.25 184.5H272.75C271.229 184.5 270 185.729 270 187.25C270 188.771 271.229 190 272.75 190H300.25C301.771 190 303 188.771 303 187.25C303 185.729 301.771 184.5 300.25 184.5Z" fill="white"/>
<g filter="url(#filter3_i_676_4236)">
<path d="M164.481 266.042L198.238 277.19L185.371 295.31L143.661 295.359L130.75 277.271L164.481 266.042Z" fill="#D9D9D9"/>
</g>
<path d="M131.55 277.531L164.481 266.568L197.438 277.453L185.112 294.81L143.918 294.859L131.55 277.531Z" stroke="#D9D9D9"/>
<path d="M131.49 297.602V278.481L143.397 295.039L143.546 295.247H143.802H185.197H185.453L185.603 295.039L197.509 278.481V295.747L184.924 315.323H144.061L131.49 297.602Z" fill="#9E9C9C" stroke="#787575"/>
<g clip-path="url(#clip1_676_4236)">
<path d="M160.2 229C158.375 229 156.9 230.475 156.9 232.3C156.9 233.96 158.127 235.332 159.726 235.569C155.085 240.014 147.825 248.594 147.825 258.7C147.825 263.588 151.001 266.156 153.6 267.435V271.9H173.4V267.435C175.999 266.146 179.175 263.578 179.175 258.7C179.175 254.853 178.123 251.234 176.566 247.965L166.315 258.215C165.676 258.855 164.624 258.855 163.985 258.215C163.345 257.576 163.345 256.524 163.985 255.885L174.926 244.943C172.534 241.014 169.584 237.776 167.274 235.569C168.873 235.332 170.1 233.96 170.1 232.3C170.1 230.475 168.625 229 166.8 229H160.2ZM150.3 275.2C148.475 275.2 147 276.675 147 278.5C147 280.325 148.475 281.8 150.3 281.8H176.7C178.525 281.8 180 280.325 180 278.5C180 276.675 178.525 275.2 176.7 275.2H150.3Z" fill="white"/>
</g>
<g filter="url(#filter4_i_676_4236)">
<path d="M36.4806 370.042L70.2381 381.19L57.3707 399.31L15.6607 399.359L2.74992 381.271L36.4806 370.042Z" fill="#D9D9D9"/>
</g>
<path d="M3.55019 381.531L36.4813 370.568L69.4385 381.453L57.1123 398.81L15.9179 398.859L3.55019 381.531Z" stroke="#D9D9D9"/>
<path d="M3.48999 401.602V382.481L15.3965 399.039L15.5462 399.247H15.8025H57.1966H57.4529L57.6025 399.039L69.509 382.481V399.747L56.9236 419.323H16.0608L3.48999 401.602Z" fill="#9E9C9C" stroke="#787575"/>
<path d="M19 359.548V346.125C19 345.369 19.6187 344.75 20.375 344.75H25.1875C25.9437 344.75 26.5625 345.369 26.5625 346.125V349.562C26.5625 349.941 26.8719 350.25 27.25 350.25H30C30.3781 350.25 30.6875 349.941 30.6875 349.562V346.125C30.6875 345.369 31.3062 344.75 32.0625 344.75H38.9375C39.6938 344.75 40.3125 345.369 40.3125 346.125V349.562C40.3125 349.941 40.6219 350.25 41 350.25H43.75C44.1281 350.25 44.4375 349.941 44.4375 349.562V346.125C44.4375 345.369 45.0562 344.75 45.8125 344.75H50.625C51.3812 344.75 52 345.369 52 346.125V359.548C52 360.588 51.4156 361.542 50.4789 362.006L48.0211 363.235C47.093 363.699 46.5 364.653 46.5172 365.693C46.6891 372.998 47.875 377.75 47.875 377.75H23.125C23.125 377.75 24.3109 372.998 24.4828 365.702C24.5086 364.662 23.9156 363.708 22.9789 363.244L20.5211 362.006C19.5844 361.542 19 360.588 19 359.548ZM34.125 369.5H36.875C37.6313 369.5 38.25 368.881 38.25 368.125V364C38.25 362.479 37.0211 361.25 35.5 361.25C33.9789 361.25 32.75 362.479 32.75 364V368.125C32.75 368.881 33.3687 369.5 34.125 369.5ZM21.75 380.5H49.25C50.7711 380.5 52 381.729 52 383.25C52 384.771 50.7711 386 49.25 386H21.75C20.2289 386 19 384.771 19 383.25C19 381.729 20.2289 380.5 21.75 380.5Z" fill="white"/>
<path d="M35.4806 557.042L69.2381 568.19L56.3707 586.31L14.6607 586.359L1.74992 568.271L35.4806 557.042Z" fill="url(#paint0_linear_676_4236)"/>
<path d="M2.48999 588.602V569.481L14.3965 586.039L14.5462 586.247H14.8025H56.1966H56.4529L56.6025 586.039L68.509 569.481V586.747L55.9236 606.323H15.0608L2.48999 588.602Z" fill="url(#paint1_linear_676_4236)" stroke="#B55133"/>
<g filter="url(#filter5_f_676_4236)">
<ellipse cx="36" cy="574" rx="15" ry="1" fill="#0A0C32"/>
</g>
<path d="M46.225 540.688C46.225 543.876 44.2244 546.669 41.2131 548.25H42.1C43.9253 548.25 45.4 549.479 45.4 551C45.4 552.521 43.9253 553.75 42.1 553.75C42.1 562 44.575 564.75 44.575 564.75H26.425C26.425 564.75 28.9 562 28.9 553.75C27.0747 553.75 25.6 552.521 25.6 551C25.6 549.479 27.0747 548.25 28.9 548.25H29.7766C26.7756 546.669 24.775 543.876 24.775 540.688C24.775 535.755 29.5806 531.75 35.5 531.75C41.4194 531.75 46.225 535.755 46.225 540.688ZM22.3 567.5H48.7C50.5253 567.5 52 568.729 52 570.25C52 571.771 50.5253 573 48.7 573H22.3C20.4747 573 19 571.771 19 570.25C19 568.729 20.4747 567.5 22.3 567.5Z" fill="#F0E25D"/>
<g clip-path="url(#clip2_676_4236)">
<path d="M34.4865 529.864L29.2904 532.864L29.1188 526.566L34.4865 529.864Z" fill="#FC9A13"/>
<path d="M28.459 533.344L23.2628 536.344L23.0912 530.047L28.459 533.344Z" fill="#FC9A13"/>
<path d="M32.8601 524.407L36.9655 531.518L23.4555 539.318L19.3501 532.207L26.2499 533.758L26.1051 528.307L30.7532 531.158L32.8601 524.407Z" fill="url(#paint2_linear_676_4236)"/>
<path d="M37.3188 532.13L23.8088 539.93L24.516 541.154L38.026 533.354L37.3188 532.13Z" fill="url(#paint3_linear_676_4236)"/>
</g>
<path d="M36.0898 588.752V603H33.2773V591.994L29.8984 593.068V590.852L35.7871 588.752H36.0898Z" fill="white"/>
<path d="M194.481 535.042L228.238 546.19L215.371 564.31L173.661 564.359L160.75 546.271L194.481 535.042Z" fill="url(#paint4_linear_676_4236)"/>
<path d="M161.49 566.602V547.481L173.397 564.039L173.546 564.247H173.802H215.197H215.453L215.603 564.039L227.509 547.481V564.747L214.924 584.323H174.061L161.49 566.602Z" fill="url(#paint5_linear_676_4236)" stroke="#B55133"/>
<g filter="url(#filter6_f_676_4236)">
<ellipse cx="195" cy="550" rx="15" ry="1" fill="#0A0C32"/>
</g>
<path d="M205.225 516.688C205.225 519.876 203.224 522.669 200.213 524.25H201.1C202.925 524.25 204.4 525.479 204.4 527C204.4 528.521 202.925 529.75 201.1 529.75C201.1 538 203.575 540.75 203.575 540.75H185.425C185.425 540.75 187.9 538 187.9 529.75C186.075 529.75 184.6 528.521 184.6 527C184.6 525.479 186.075 524.25 187.9 524.25H188.777C185.776 522.669 183.775 519.876 183.775 516.688C183.775 511.755 188.581 507.75 194.5 507.75C200.419 507.75 205.225 511.755 205.225 516.688ZM181.3 543.5H207.7C209.525 543.5 211 544.729 211 546.25C211 547.771 209.525 549 207.7 549H181.3C179.475 549 178 547.771 178 546.25C178 544.729 179.475 543.5 181.3 543.5Z" fill="#F0E25D"/>
<g clip-path="url(#clip3_676_4236)">
<path d="M193.487 505.864L188.29 508.864L188.119 502.566L193.487 505.864Z" fill="#FC9A13"/>
<path d="M187.459 509.344L182.263 512.344L182.091 506.047L187.459 509.344Z" fill="#FC9A13"/>
<path d="M191.86 500.407L195.965 507.518L182.455 515.318L178.35 508.207L185.25 509.758L185.105 504.307L189.753 507.158L191.86 500.407Z" fill="url(#paint6_linear_676_4236)"/>
<path d="M196.319 508.13L182.809 515.93L183.516 517.154L197.026 509.354L196.319 508.13Z" fill="url(#paint7_linear_676_4236)"/>
</g>
<path d="M198.961 578.803V581H189.234V579.125L193.834 574.193C194.296 573.679 194.661 573.227 194.928 572.836C195.195 572.439 195.387 572.084 195.504 571.771C195.628 571.452 195.689 571.15 195.689 570.863C195.689 570.434 195.618 570.066 195.475 569.76C195.331 569.447 195.12 569.206 194.84 569.037C194.566 568.868 194.228 568.783 193.824 568.783C193.395 568.783 193.023 568.887 192.711 569.096C192.405 569.304 192.171 569.594 192.008 569.965C191.852 570.336 191.773 570.756 191.773 571.225H188.951C188.951 570.378 189.153 569.604 189.557 568.9C189.96 568.191 190.53 567.628 191.266 567.211C192.001 566.788 192.874 566.576 193.883 566.576C194.879 566.576 195.719 566.739 196.402 567.064C197.092 567.383 197.613 567.846 197.965 568.451C198.323 569.05 198.502 569.766 198.502 570.6C198.502 571.068 198.427 571.527 198.277 571.977C198.128 572.419 197.913 572.862 197.633 573.305C197.359 573.741 197.027 574.184 196.637 574.633C196.246 575.082 195.813 575.548 195.338 576.029L192.867 578.803H198.961Z" fill="white"/>
<path d="M245.481 422.042L279.238 433.19L266.371 451.31L224.661 451.359L211.75 433.271L245.481 422.042Z" fill="url(#paint8_linear_676_4236)"/>
<path d="M212.49 453.602V434.481L224.397 451.039L224.546 451.247H224.802H266.197H266.453L266.603 451.039L278.509 434.481V451.747L265.924 471.323H225.061L212.49 453.602Z" fill="url(#paint9_linear_676_4236)" stroke="#B55133"/>
<g filter="url(#filter7_f_676_4236)">
<ellipse cx="246" cy="434" rx="15" ry="1" fill="#0A0C32"/>
</g>
<path d="M256.225 400.688C256.225 403.876 254.224 406.669 251.213 408.25H252.1C253.925 408.25 255.4 409.479 255.4 411C255.4 412.521 253.925 413.75 252.1 413.75C252.1 422 254.575 424.75 254.575 424.75H236.425C236.425 424.75 238.9 422 238.9 413.75C237.075 413.75 235.6 412.521 235.6 411C235.6 409.479 237.075 408.25 238.9 408.25H239.777C236.776 406.669 234.775 403.876 234.775 400.688C234.775 395.755 239.581 391.75 245.5 391.75C251.419 391.75 256.225 395.755 256.225 400.688ZM232.3 427.5H258.7C260.525 427.5 262 428.729 262 430.25C262 431.771 260.525 433 258.7 433H232.3C230.475 433 229 431.771 229 430.25C229 428.729 230.475 427.5 232.3 427.5Z" fill="#F0E25D"/>
<path d="M244.115 459.67H245.619C246.101 459.67 246.498 459.589 246.811 459.426C247.123 459.257 247.354 459.022 247.504 458.723C247.66 458.417 247.738 458.062 247.738 457.658C247.738 457.294 247.667 456.971 247.523 456.691C247.387 456.405 247.175 456.184 246.889 456.027C246.602 455.865 246.241 455.783 245.805 455.783C245.46 455.783 245.141 455.852 244.848 455.988C244.555 456.125 244.32 456.317 244.145 456.564C243.969 456.812 243.881 457.111 243.881 457.463H241.059C241.059 456.682 241.267 456.001 241.684 455.422C242.107 454.842 242.673 454.39 243.383 454.064C244.092 453.739 244.874 453.576 245.727 453.576C246.69 453.576 247.533 453.732 248.256 454.045C248.979 454.351 249.542 454.803 249.945 455.402C250.349 456.001 250.551 456.743 250.551 457.629C250.551 458.078 250.447 458.514 250.238 458.938C250.03 459.354 249.73 459.732 249.34 460.07C248.956 460.402 248.487 460.669 247.934 460.871C247.38 461.066 246.758 461.164 246.068 461.164H244.115V459.67ZM244.115 461.809V460.354H246.068C246.843 460.354 247.523 460.441 248.109 460.617C248.695 460.793 249.187 461.047 249.584 461.379C249.981 461.704 250.281 462.092 250.482 462.541C250.684 462.984 250.785 463.475 250.785 464.016C250.785 464.68 250.658 465.272 250.404 465.793C250.15 466.307 249.792 466.743 249.33 467.102C248.874 467.46 248.34 467.733 247.729 467.922C247.117 468.104 246.449 468.195 245.727 468.195C245.128 468.195 244.538 468.114 243.959 467.951C243.386 467.782 242.865 467.531 242.396 467.199C241.934 466.861 241.563 466.438 241.283 465.93C241.01 465.415 240.873 464.807 240.873 464.104H243.695C243.695 464.468 243.786 464.794 243.969 465.08C244.151 465.367 244.402 465.591 244.721 465.754C245.046 465.917 245.408 465.998 245.805 465.998C246.254 465.998 246.638 465.917 246.957 465.754C247.283 465.585 247.53 465.35 247.699 465.051C247.875 464.745 247.963 464.39 247.963 463.986C247.963 463.465 247.868 463.049 247.68 462.736C247.491 462.417 247.221 462.183 246.869 462.033C246.518 461.883 246.101 461.809 245.619 461.809H244.115Z" fill="white"/>
<defs>
<filter id="filter0_i_676_4236" x="240.75" y="31.041" width="67.488" height="33.3184" filterUnits="userSpaceOnUse" color-interpolation-filters="sRGB">
<feFlood flood-opacity="0" result="BackgroundImageFix"/>
<feBlend mode="normal" in="SourceGraphic" in2="BackgroundImageFix" result="shape"/>
<feColorMatrix in="SourceAlpha" type="matrix" values="0 0 0 0 0 0 0 0 0 0 0 0 0 0 0 0 0 0 127 0" result="hardAlpha"/>
<feOffset dy="4"/>
<feGaussianBlur stdDeviation="7"/>
<feComposite in2="hardAlpha" operator="arithmetic" k2="-1" k3="1"/>
<feColorMatrix type="matrix" values="0 0 0 0 0 0 0 0 0 0 0 0 0 0 0 0 0 0 0.2 0"/>
<feBlend mode="normal" in2="shape" result="effect1_innerShadow_676_4236"/>
</filter>
<filter id="filter1_i_676_4236" x="4.75" y="134.041" width="67.488" height="33.3184" filterUnits="userSpaceOnUse" color-interpolation-filters="sRGB">
<feFlood flood-opacity="0" result="BackgroundImageFix"/>
<feBlend mode="normal" in="SourceGraphic" in2="BackgroundImageFix" result="shape"/>
<feColorMatrix in="SourceAlpha" type="matrix" values="0 0 0 0 0 0 0 0 0 0 0 0 0 0 0 0 0 0 127 0" result="hardAlpha"/>
<feOffset dy="4"/>
<feGaussianBlur stdDeviation="7"/>
<feComposite in2="hardAlpha" operator="arithmetic" k2="-1" k3="1"/>
<feColorMatrix type="matrix" values="0 0 0 0 0 0 0 0 0 0 0 0 0 0 0 0 0 0 0.2 0"/>
<feBlend mode="normal" in2="shape" result="effect1_innerShadow_676_4236"/>
</filter>
<filter id="filter2_i_676_4236" x="252.75" y="174.041" width="67.488" height="33.3184" filterUnits="userSpaceOnUse" color-interpolation-filters="sRGB">
<feFlood flood-opacity="0" result="BackgroundImageFix"/>
<feBlend mode="normal" in="SourceGraphic" in2="BackgroundImageFix" result="shape"/>
<feColorMatrix in="SourceAlpha" type="matrix" values="0 0 0 0 0 0 0 0 0 0 0 0 0 0 0 0 0 0 127 0" result="hardAlpha"/>
<feOffset dy="4"/>
<feGaussianBlur stdDeviation="7"/>
<feComposite in2="hardAlpha" operator="arithmetic" k2="-1" k3="1"/>
<feColorMatrix type="matrix" values="0 0 0 0 0 0 0 0 0 0 0 0 0 0 0 0 0 0 0.2 0"/>
<feBlend mode="normal" in2="shape" result="effect1_innerShadow_676_4236"/>
</filter>
<filter id="filter3_i_676_4236" x="130.75" y="266.041" width="67.488" height="33.3184" filterUnits="userSpaceOnUse" color-interpolation-filters="sRGB">
<feFlood flood-opacity="0" result="BackgroundImageFix"/>
<feBlend mode="normal" in="SourceGraphic" in2="BackgroundImageFix" result="shape"/>
<feColorMatrix in="SourceAlpha" type="matrix" values="0 0 0 0 0 0 0 0 0 0 0 0 0 0 0 0 0 0 127 0" result="hardAlpha"/>
<feOffset dy="4"/>
<feGaussianBlur stdDeviation="7"/>
<feComposite in2="hardAlpha" operator="arithmetic" k2="-1" k3="1"/>
<feColorMatrix type="matrix" values="0 0 0 0 0 0 0 0 0 0 0 0 0 0 0 0 0 0 0.2 0"/>
<feBlend mode="normal" in2="shape" result="effect1_innerShadow_676_4236"/>
</filter>
<filter id="filter4_i_676_4236" x="2.75" y="370.041" width="67.488" height="33.3184" filterUnits="userSpaceOnUse" color-interpolation-filters="sRGB">
<feFlood flood-opacity="0" result="BackgroundImageFix"/>
<feBlend mode="normal" in="SourceGraphic" in2="BackgroundImageFix" result="shape"/>
<feColorMatrix in="SourceAlpha" type="matrix" values="0 0 0 0 0 0 0 0 0 0 0 0 0 0 0 0 0 0 127 0" result="hardAlpha"/>
<feOffset dy="4"/>
<feGaussianBlur stdDeviation="7"/>
<feComposite in2="hardAlpha" operator="arithmetic" k2="-1" k3="1"/>
<feColorMatrix type="matrix" values="0 0 0 0 0 0 0 0 0 0 0 0 0 0 0 0 0 0 0.2 0"/>
<feBlend mode="normal" in2="shape" result="effect1_innerShadow_676_4236"/>
</filter>
<filter id="filter5_f_676_4236" x="16" y="568" width="40" height="12" filterUnits="userSpaceOnUse" color-interpolation-filters="sRGB">
<feFlood flood-opacity="0" result="BackgroundImageFix"/>
<feBlend mode="normal" in="SourceGraphic" in2="BackgroundImageFix" result="shape"/>
<feGaussianBlur stdDeviation="2.5" result="effect1_foregroundBlur_676_4236"/>
</filter>
<filter id="filter6_f_676_4236" x="175" y="544" width="40" height="12" filterUnits="userSpaceOnUse" color-interpolation-filters="sRGB">
<feFlood flood-opacity="0" result="BackgroundImageFix"/>
<feBlend mode="normal" in="SourceGraphic" in2="BackgroundImageFix" result="shape"/>
<feGaussianBlur stdDeviation="2.5" result="effect1_foregroundBlur_676_4236"/>
</filter>
<filter id="filter7_f_676_4236" x="226" y="428" width="40" height="12" filterUnits="userSpaceOnUse" color-interpolation-filters="sRGB">
<feFlood flood-opacity="0" result="BackgroundImageFix"/>
<feBlend mode="normal" in="SourceGraphic" in2="BackgroundImageFix" result="shape"/>
<feGaussianBlur stdDeviation="2.5" result="effect1_foregroundBlur_676_4236"/>
</filter>
<linearGradient id="paint0_linear_676_4236" x1="35.4545" y1="535.18" x2="35.5066" y2="578.814" gradientUnits="userSpaceOnUse">
<stop stop-color="#E00A14"/>
<stop offset="0.999999" stop-color="#F97F4E"/>
<stop offset="1" stop-color="#F97F4E"/>
</linearGradient>
<linearGradient id="paint1_linear_676_4236" x1="35.4995" y1="541.675" x2="35.4995" y2="594.078" gradientUnits="userSpaceOnUse">
<stop stop-color="#E00A14"/>
<stop offset="0.999999" stop-color="#F97F4E"/>
<stop offset="1" stop-color="#F97F4E"/>
</linearGradient>
<linearGradient id="paint2_linear_676_4236" x1="26.0452" y1="528.204" x2="31.469" y2="537.598" gradientUnits="userSpaceOnUse">
<stop stop-color="#FECC2B"/>
<stop offset="1" stop-color="#FC9A13"/>
</linearGradient>
<linearGradient id="paint3_linear_676_4236" x1="30.5652" y1="536.031" x2="31.2631" y2="537.24" gradientUnits="userSpaceOnUse">
<stop stop-color="#FECC2B"/>
<stop offset="1" stop-color="#FC9A13"/>
</linearGradient>
<linearGradient id="paint4_linear_676_4236" x1="194.454" y1="513.18" x2="194.507" y2="556.814" gradientUnits="userSpaceOnUse">
<stop stop-color="#E00A14"/>
<stop offset="0.999999" stop-color="#F97F4E"/>
<stop offset="1" stop-color="#F97F4E"/>
</linearGradient>
<linearGradient id="paint5_linear_676_4236" x1="194.499" y1="519.675" x2="194.499" y2="572.078" gradientUnits="userSpaceOnUse">
<stop stop-color="#E00A14"/>
<stop offset="0.999999" stop-color="#F97F4E"/>
<stop offset="1" stop-color="#F97F4E"/>
</linearGradient>
<linearGradient id="paint6_linear_676_4236" x1="185.045" y1="504.204" x2="190.469" y2="513.598" gradientUnits="userSpaceOnUse">
<stop stop-color="#FECC2B"/>
<stop offset="1" stop-color="#FC9A13"/>
</linearGradient>
<linearGradient id="paint7_linear_676_4236" x1="189.565" y1="512.031" x2="190.263" y2="513.24" gradientUnits="userSpaceOnUse">
<stop stop-color="#FECC2B"/>
<stop offset="1" stop-color="#FC9A13"/>
</linearGradient>
<linearGradient id="paint8_linear_676_4236" x1="245.454" y1="400.18" x2="245.507" y2="443.814" gradientUnits="userSpaceOnUse">
<stop stop-color="#E00A14"/>
<stop offset="0.999999" stop-color="#F97F4E"/>
<stop offset="1" stop-color="#F97F4E"/>
</linearGradient>
<linearGradient id="paint9_linear_676_4236" x1="245.499" y1="406.675" x2="245.499" y2="459.078" gradientUnits="userSpaceOnUse">
<stop stop-color="#E00A14"/>
<stop offset="0.999999" stop-color="#F97F4E"/>
<stop offset="1" stop-color="#F97F4E"/>
</linearGradient>
<clipPath id="clip0_676_4236">
<rect width="33" height="46.9615" fill="white" transform="translate(258)"/>
</clipPath>
<clipPath id="clip1_676_4236">
<rect width="33" height="52.8" fill="white" transform="translate(147 229)"/>
</clipPath>
<clipPath id="clip2_676_4236">
<rect width="16" height="11" fill="white" transform="translate(19 532) rotate(-30)"/>
</clipPath>
<clipPath id="clip3_676_4236">
<rect width="16" height="11" fill="white" transform="translate(178 508) rotate(-30)"/>
</clipPath>
</defs>
</svg>
