<svg width="17" height="35" viewBox="0 0 17 35" fill="none" xmlns="http://www.w3.org/2000/svg">
<path d="M13.7038 26.1592C10.7097 24.4261 5.85274 24.4261 2.85863 26.1592C1.36417 27.0258 0.622131 28.157 0.622131 29.2727V30.5907C0.622131 31.722 1.35898 32.8584 2.85863 33.7042C5.85274 35.4322 10.7097 35.4322 13.7038 33.7042C15.2035 32.8376 15.9455 31.7012 15.9403 30.5907V29.2987C15.9455 28.1519 15.1983 27.0206 13.7038 26.1592Z" fill="#37474F"/>
<path opacity="0.2" d="M13.7038 26.1592C10.7097 24.4261 5.85274 24.4261 2.85863 26.1592C1.36417 27.0258 0.622131 28.157 0.622131 29.2727V30.5907C0.622131 31.722 1.35898 32.8584 2.85863 33.7042C5.85274 35.4322 10.7097 35.4322 13.7038 33.7042C15.2035 32.8376 15.9455 31.7012 15.9403 30.5907V29.2987C15.9455 28.1519 15.1983 27.0206 13.7038 26.1592Z" fill="black"/>
<path opacity="0.2" d="M4.74228 25.3574C4.08597 25.5488 3.45391 25.8152 2.85863 26.1514C1.36417 27.0179 0.622131 28.1492 0.622131 29.2648V30.588C0.622131 31.7192 1.35898 32.8557 2.85863 33.7015C3.45391 34.0376 4.08597 34.304 4.74228 34.4954V25.3574Z" fill="black"/>
<path opacity="0.4" d="M2.8599 26.1554C5.85401 24.4274 10.711 24.4274 13.7051 26.1554C16.6992 27.8833 16.6992 30.6854 13.7051 32.4134C10.711 34.1414 5.85401 34.1414 2.8599 32.4134C-0.134209 30.6854 -0.134209 27.8885 2.8599 26.1554Z" fill="black"/>
<path d="M8.27658 23.1641C0.949573 23.1641 -3.05176e-05 26.319 -3.05176e-05 27.9484C-3.05176e-05 29.5778 0.985896 30.9218 3.0304 32.0997C4.65609 32.9186 6.45107 33.3452 8.27138 33.3452C10.0917 33.3452 11.8867 32.9186 13.5124 32.0997C15.5569 30.9166 16.548 29.5674 16.548 27.9484C16.548 26.3294 15.6088 23.1641 8.27658 23.1641Z" fill="#37474F"/>
<path opacity="0.1" d="M11.0107 29.7696H10.8758C10.3309 29.8423 9.31907 29.7696 8.88837 30.2055C8.14114 30.9268 9.16858 31.5443 9.81203 31.7622C10.8919 32.0547 12.041 31.9497 13.05 31.4665C13.9142 31.0798 14.6491 30.453 15.1672 29.6606C15.3696 29.3234 15.7432 28.3271 15.245 28.1039C15.1091 28.047 14.9584 28.0355 14.8154 28.071C14.6724 28.1065 14.5446 28.1872 14.4511 28.3011C14.2056 28.502 13.9455 28.6841 13.6727 28.846C13.4327 29.0105 13.1793 29.1546 12.9151 29.2767C12.3073 29.5316 11.6659 29.6977 11.0107 29.7696Z" fill="white"/>
<path opacity="0.1" d="M7.38405 28.8254C11.7118 29.2146 14.7422 27.4918 15.8111 25.6393C14.8563 24.3472 12.7651 23.1641 8.27658 23.1641C0.949573 23.1641 -3.05176e-05 26.319 -3.05176e-05 27.9484C-3.05176e-05 29.5778 0.985896 30.9218 3.0304 32.0997C4.65609 32.9186 6.45107 33.3452 8.27139 33.3452C10.0917 33.3452 11.8867 32.9186 13.5124 32.0997C13.9507 31.8489 14.3688 31.5644 14.763 31.2487C13.2062 32.3228 10.6688 33.1168 7.37367 32.6394C4.0786 32.162 2.87473 28.4206 7.38405 28.8254Z" fill="black"/>
<path opacity="0.1" d="M4.74799 27.4764L4.34843 23.5586C0.581143 24.4615 -3.05176e-05 26.672 -3.05176e-05 27.9434C-3.05176e-05 29.5676 0.985896 30.9167 3.0304 32.0946L3.23277 32.1984C0.975517 30.7507 2.37138 26.7862 4.74799 27.4764Z" fill="black"/>
<path d="M12.8486 20.2108C10.3267 18.7527 6.24289 18.7527 3.72099 20.2108C2.46004 20.9373 1.83215 21.8921 1.83734 22.8417V24.2738C1.83734 25.2286 2.45485 26.1834 3.72099 26.9099C6.2377 28.3629 10.3267 28.3629 12.8486 26.9099C14.1096 26.1834 14.7323 25.2235 14.7323 24.2687C14.7323 24.0922 14.7323 23.0233 14.7323 22.8417C14.7323 21.9024 14.1044 20.9476 12.8486 20.2108Z" fill="#37474F"/>
<path opacity="0.2" d="M3.72099 26.9208C4.16405 27.1709 4.63184 27.3743 5.11686 27.5279V19.6094C4.63168 19.7647 4.16389 19.9699 3.72099 20.2217C2.46004 20.9482 1.83215 21.903 1.83734 22.8526V24.2848C1.83215 25.2396 2.45485 26.1943 3.72099 26.9208Z" fill="black"/>
<path d="M3.72028 20.2108C6.24218 18.7527 10.326 18.7527 12.8479 20.2108C15.3698 21.6689 15.3646 24.0248 12.8479 25.4777C10.3312 26.9307 6.23699 26.9307 3.72028 25.4777C1.20357 24.0248 1.188 21.6741 3.72028 20.2108Z" fill="#455A64"/>
<path d="M13.8389 21.1397C13.0761 19.3494 11.1457 15.5251 11.1457 10.6992H5.4377C5.4377 15.5562 3.50736 19.3494 2.74456 21.1397C2.27754 22.302 2.77569 23.5837 4.2494 24.4918C5.49212 25.1713 6.88574 25.5274 8.30209 25.5274C9.71843 25.5274 11.112 25.1713 12.3548 24.4918C13.8077 23.5837 14.3059 22.2865 13.8389 21.1397Z" fill="#37474F"/>
<path opacity="0.1" d="M10.9487 10.9648C11.2169 13.7446 11.738 16.4941 12.5055 19.1792C13.0244 20.9072 13.7353 22.0851 12.7805 23.1644C11.8257 24.2437 9.4906 24.5707 9.4906 24.5707C10.3535 24.2055 11.1376 23.6769 11.7998 23.0139C12.7805 21.9761 12.1941 20.4661 11.9035 19.1844C11.4209 17.0984 10.7827 13.8396 10.9487 10.9648Z" fill="white"/>
<path opacity="0.1" d="M9.02862 25.4985C8.54085 25.2754 7.52897 24.881 8.28139 20.6052C9.03381 16.3294 9.01824 15.167 9.00267 10.6992H5.41701C5.41701 15.5355 3.48667 19.3494 2.72387 21.1397C2.25685 22.302 2.755 23.5837 4.22871 24.4918C5.68778 25.3112 7.3633 25.6626 9.02862 25.4985Z" fill="black"/>
<path opacity="0.1" d="M5.69203 18.405C6.36142 15.5406 6.5638 15.2241 6.57937 10.6992H5.41701C5.41701 15.5562 3.48667 19.3494 2.72387 21.1397C2.25685 22.302 2.755 23.5837 4.22871 24.4918C4.62184 24.7282 5.03939 24.9213 5.47409 25.0678C3.60601 23.7757 4.99669 21.3784 5.69203 18.405Z" fill="black"/>
<path d="M11.188 8.69096C10.287 8.2354 9.29162 7.99805 8.28207 7.99805C7.27251 7.99805 6.2771 8.2354 5.37618 8.69096C5.04775 8.8418 4.76439 9.07578 4.55415 9.36975C4.34392 9.66372 4.21408 10.0075 4.17749 10.367V11.4464C4.20941 11.8073 4.33743 12.1532 4.54822 12.4479C4.75902 12.7427 5.04491 12.9756 5.37618 13.1225C6.27638 13.5804 7.27207 13.8192 8.28207 13.8192C9.29207 13.8192 10.2878 13.5804 11.188 13.1225C11.5192 12.9756 11.8051 12.7427 12.0159 12.4479C12.2267 12.1532 12.3547 11.8073 12.3866 11.4464V10.3515C12.351 9.99358 12.2214 9.65146 12.0109 9.35984C11.8003 9.06821 11.5164 8.83745 11.188 8.69096Z" fill="#37474F"/>
<path opacity="0.2" d="M7.79949 8.01562C6.95185 8.05903 6.12432 8.28939 5.37618 8.6902C5.04775 8.84104 4.76439 9.07502 4.55415 9.36899C4.34392 9.66296 4.21408 10.0067 4.17749 10.3663V11.4456C4.20941 11.8066 4.33743 12.1524 4.54822 12.4471C4.75902 12.7419 5.04491 12.9748 5.37618 13.1217C6.12331 13.5258 6.9512 13.758 7.79949 13.8015V8.01562Z" fill="black"/>
<path d="M5.37689 8.69096C6.27781 8.2354 7.27322 7.99805 8.28278 7.99805C9.29233 7.99805 10.2877 8.2354 11.1887 8.69096C12.7921 9.61981 12.7921 11.1195 11.1887 12.0483C10.2877 12.5039 9.29233 12.7412 8.28278 12.7412C7.27322 12.7412 6.27781 12.5039 5.37689 12.0483C3.78384 11.1195 3.78384 9.61981 5.37689 8.69096Z" fill="#455A64"/>
<path d="M8.27684 7.06641C4.3954 7.06641 3.89206 8.73728 3.89206 9.59867C3.89206 10.4601 4.41097 11.1554 5.49549 11.804C6.35672 12.2375 7.30748 12.4633 8.27165 12.4633C9.23582 12.4633 10.1866 12.2375 11.0478 11.804C12.1272 11.1762 12.6512 10.4601 12.6512 9.59867C12.6512 8.73728 12.1583 7.06641 8.27684 7.06641Z" fill="#37474F"/>
<path opacity="0.1" d="M9.72995 10.5672H9.65731C9.36672 10.6035 8.83743 10.5671 8.61949 10.7955C8.22512 11.1795 8.76997 11.5064 9.11246 11.6153C9.68413 11.7681 10.2916 11.7111 10.8249 11.4545C11.2847 11.252 11.6759 10.9203 11.9509 10.4997C12.0547 10.3181 12.257 9.79397 11.9924 9.66944C11.92 9.63991 11.8399 9.63457 11.7642 9.6542C11.6884 9.67384 11.6211 9.7174 11.5721 9.7784C11.4404 9.8829 11.3017 9.97826 11.157 10.0638C11.0309 10.1518 10.8972 10.2282 10.7574 10.2921C10.43 10.4329 10.0839 10.5255 9.72995 10.5672Z" fill="white"/>
<path opacity="0.1" d="M7.80463 10.0657C10.0982 10.2733 11.7016 9.35999 12.2673 8.37925C11.7484 7.69429 10.6535 7.06641 8.27684 7.06641C4.3954 7.06641 3.89206 8.73728 3.89206 9.59867C3.89206 10.4601 4.41097 11.1554 5.49549 11.804C6.35672 12.2375 7.30748 12.4633 8.27165 12.4633C9.23582 12.4633 10.1866 12.2375 11.0478 11.804C11.2788 11.6707 11.4991 11.5198 11.7068 11.3526C10.5419 12.082 9.1447 12.3451 7.79425 12.0894C6.0611 11.8352 5.41765 9.83219 7.80463 10.0657Z" fill="black"/>
<path opacity="0.1" d="M6.40877 9.35494L6.19601 7.2793C4.19821 7.75669 3.89206 8.92424 3.89206 9.59882C3.89206 10.4602 4.41097 11.1556 5.49549 11.8042L5.59927 11.8561C4.41097 11.0829 5.14782 8.98651 6.40877 9.35494Z" fill="black"/>
<path d="M11.188 4.64396C10.2878 4.18599 9.29207 3.94727 8.28207 3.94727C7.27207 3.94727 6.27638 4.18599 5.37618 4.64396C5.04555 4.79174 4.76024 5.0249 4.54957 5.31948C4.3389 5.61405 4.21047 5.9594 4.17749 6.32005V7.39418C4.20905 7.7559 4.33686 8.10258 4.54765 8.39822C4.75843 8.69387 5.04451 8.92771 5.37618 9.07546C6.2771 9.53102 7.27251 9.76837 8.28207 9.76837C9.29162 9.76837 10.287 9.53102 11.188 9.07546C11.5196 8.92771 11.8057 8.69387 12.0165 8.39822C12.2273 8.10258 12.3551 7.7559 12.3866 7.39418V6.32005C12.3547 5.95909 12.2267 5.61326 12.0159 5.31851C11.8051 5.02376 11.5192 4.79084 11.188 4.64396Z" fill="#37474F"/>
<path opacity="0.2" d="M7.79949 3.98438C6.95106 4.02289 6.12246 4.25354 5.37618 4.65895C5.04555 4.80673 4.76024 5.03989 4.54957 5.33446C4.3389 5.62903 4.21047 5.97439 4.17749 6.33504V7.40917C4.20905 7.77088 4.33686 8.11756 4.54765 8.41321C4.75843 8.70885 5.04451 8.94269 5.37618 9.09044C6.12373 9.49271 6.9516 9.72316 7.79949 9.76502V3.98438Z" fill="black"/>
<path d="M5.37689 4.64396C6.27709 4.18599 7.27278 3.94727 8.28278 3.94727C9.29278 3.94727 10.2885 4.18599 11.1887 4.64396C12.7921 5.56762 12.7921 7.07246 11.1887 7.99612C10.2885 8.45409 9.29278 8.69282 8.28278 8.69282C7.27278 8.69282 6.27709 8.45409 5.37689 7.99612C3.78384 7.08802 3.78384 5.58319 5.37689 4.64396Z" fill="#455A64"/>
<path d="M12.1787 3.89702C12.1787 4.66777 11.9502 5.42122 11.522 6.06208C11.0938 6.70294 10.4851 7.20243 9.77304 7.49738C9.06095 7.79234 8.27739 7.86951 7.52144 7.71915C6.7655 7.56878 6.07112 7.19762 5.52612 6.65262C4.98111 6.10761 4.60995 5.41323 4.45959 4.65728C4.30922 3.90133 4.38639 3.11778 4.68135 2.40569C4.9763 1.6936 5.47579 1.08499 6.11665 0.656777C6.75751 0.228568 7.51096 0 8.28172 0C9.31527 0 10.3065 0.410586 11.0373 1.14142C11.7682 1.87225 12.1787 2.86347 12.1787 3.89702Z" fill="#455A64"/>
<path opacity="0.2" d="M12.1787 3.89645C12.1789 4.64843 11.9615 5.38442 11.5528 6.01561C11.144 6.6468 10.5614 7.14626 9.87514 7.45373C9.18889 7.7612 8.42834 7.86355 7.68522 7.74845C6.9421 7.63335 6.24814 7.3057 5.68707 6.80503C5.126 6.30436 4.72177 5.65204 4.52313 4.92677C4.32449 4.20149 4.33993 3.43424 4.56759 2.71755C4.79524 2.00086 5.22539 1.36535 5.80616 0.887654C6.38692 0.409962 7.0935 0.110502 7.84065 0.0253906C7.32851 0.231523 6.87792 0.56577 6.53208 0.996082C6.18624 1.42639 5.95676 1.93834 5.86563 2.48283C5.7745 3.02732 5.82478 3.58608 6.01165 4.10555C6.19852 4.62502 6.51573 5.08777 6.93283 5.44943C7.34993 5.81109 7.85296 6.05952 8.39367 6.17091C8.93437 6.2823 9.49462 6.25291 10.0207 6.08556C10.5468 5.9182 11.0211 5.6185 11.398 5.21518C11.775 4.81187 12.0421 4.31847 12.1735 3.78229C12.1779 3.82018 12.1796 3.85833 12.1787 3.89645Z" fill="black"/>
<path opacity="0.2" d="M9.42334 0.693191C9.14806 0.63352 8.86318 0.63352 8.5879 0.693191C8.3973 0.722272 8.22395 0.820144 8.10062 0.968339C7.97728 1.11653 7.91249 1.30478 7.91851 1.49749C7.94964 2.0164 8.49968 2.19802 8.89924 2.32256L9.5894 2.53531C9.89555 2.63391 10.1602 2.81552 10.4664 2.90374C10.7725 2.99195 10.9853 2.7325 10.9853 2.44191C11.0004 2.20294 10.9502 1.96434 10.84 1.75176C10.7171 1.51286 10.5392 1.30656 10.3211 1.14982C10.0667 0.922063 9.75722 0.764674 9.42334 0.693191Z" fill="white"/>
</svg>
