<svg width="375" height="170" viewBox="0 0 375 170" fill="none" xmlns="http://www.w3.org/2000/svg">
<path d="M282.795 114.066L235.164 86.5635L282.795 59.0605L330.426 86.5635L282.795 114.066Z" fill="#FAFAFA"/>
<path d="M282.796 114.063V130.565L330.427 103.062V86.5605L282.796 114.063Z" fill="#F0F0F0"/>
<path d="M235.165 86.5605L282.796 114.063V130.565L235.165 103.062V86.5605Z" fill="#E0E0E0"/>
<path d="M187.524 114.066L139.893 86.5635L187.524 59.0605L235.165 86.5635L187.524 114.066Z" fill="#FAFAFA"/>
<path d="M187.523 114.063V130.565L235.164 103.062V86.5605L187.523 114.063Z" fill="#EBEBEB"/>
<path d="M139.893 86.5605L187.524 114.063V130.565L139.893 103.062V86.5605Z" fill="#E0E0E0"/>
<path d="M139.893 141.566L92.2616 114.063L139.893 86.5605L187.523 114.063L139.893 141.566Z" fill="#1F1F1F"/>
<path opacity="0.2" d="M139.893 141.566L92.2616 114.063L139.893 86.5605L187.523 114.063L139.893 141.566Z" fill="white"/>
<path d="M139.893 141.569V158.071L187.524 130.568V114.066L139.893 141.569Z" fill="#1F1F1F"/>
<path d="M92.2616 114.066L139.893 141.569V158.071L92.2616 130.568V114.066Z" fill="#1F1F1F"/>
<path opacity="0.2" d="M92.2616 114.066L139.893 141.569V158.071L92.2616 130.568V114.066Z" fill="black"/>
<path d="M92.2626 169.072L44.6317 141.569L92.2626 114.066L139.894 141.569L92.2626 169.072Z" fill="#FAFAFA"/>
<path d="M92.2616 169.075V185.567L139.893 158.074V141.572L92.2616 169.075Z" fill="#EBEBEB"/>
<path d="M44.6314 141.572L92.2623 169.075V185.567L44.6314 158.074V141.572Z" fill="#E0E0E0"/>
<path d="M235.164 141.566L187.523 114.063L235.164 86.5605L282.795 114.063L235.164 141.566Z" fill="#1F1F1F"/>
<path opacity="0.2" d="M235.164 141.566L187.523 114.063L235.164 86.5605L282.795 114.063L235.164 141.566Z" fill="white"/>
<path d="M235.164 141.569V158.071L282.795 130.568V114.066L235.164 141.569Z" fill="#1F1F1F"/>
<path d="M187.523 114.066L235.164 141.569V158.071L187.523 130.568V114.066Z" fill="#1F1F1F"/>
<path opacity="0.2" d="M187.523 114.066L235.164 141.569V158.071L187.523 130.568V114.066Z" fill="black"/>
<path d="M187.524 169.072L139.893 141.569L187.524 114.066L235.165 141.569L187.524 169.072Z" fill="#FAFAFA"/>
<path d="M187.523 169.075V185.577L235.164 158.074V141.572L187.523 169.075Z" fill="#EBEBEB"/>
<path d="M139.893 158.074L187.524 185.577V169.075L139.893 141.572V158.074Z" fill="#E0E0E0"/>
<path d="M139.893 196.568L92.2616 169.075L139.893 141.572L187.523 169.075L139.893 196.568Z" fill="#1F1F1F"/>
<path opacity="0.2" d="M139.893 196.568L92.2616 169.075L139.893 141.572L187.523 169.075L139.893 196.568Z" fill="white"/>
<path d="M139.893 196.565V213.067L187.524 185.574V169.072L139.893 196.565Z" fill="#1F1F1F"/>
<path d="M92.2616 169.072L139.893 196.565V213.067L92.2616 185.564V169.072Z" fill="#1F1F1F"/>
<path opacity="0.2" d="M92.2616 169.072L139.893 196.565V213.067L92.2616 185.564V169.072Z" fill="black"/>
<path d="M282.795 169.072L235.164 141.569L282.795 114.066L330.426 141.569L282.795 169.072Z" fill="#FAFAFA"/>
<path d="M282.796 169.075V185.567L330.427 158.074V141.572L282.796 169.075Z" fill="#F0F0F0"/>
<path d="M235.165 141.572L282.796 169.075V185.567L235.165 158.074V141.572Z" fill="#E0E0E0"/>
<path d="M235.164 196.568L187.523 169.075L235.164 141.572L282.795 169.075L235.164 196.568Z" fill="#1F1F1F"/>
<path opacity="0.2" d="M235.164 196.568L187.523 169.075L235.164 141.572L282.795 169.075L235.164 196.568Z" fill="white"/>
<path d="M235.164 196.565V213.067L282.795 185.574V169.072L235.164 196.565Z" fill="#1F1F1F"/>
<path d="M187.523 169.072L235.164 196.565V213.067L187.523 185.574V169.072Z" fill="#1F1F1F"/>
<path opacity="0.2" d="M187.523 169.072L235.164 196.565V213.067L187.523 185.574V169.072Z" fill="black"/>
<path d="M187.524 224.068L139.893 196.565L187.524 169.072L235.165 196.565L187.524 224.068Z" fill="#FAFAFA"/>
<path d="M44.631 196.568L-3 169.075L44.631 141.572L92.2619 169.075L44.631 196.568Z" fill="#1F1F1F"/>
<path d="M330.631 196.636L283 169.144L330.631 141.641L378.262 169.144L330.631 196.636Z" fill="#1F1F1F"/>
<path opacity="0.2" d="M44.631 196.568L-3 169.075L44.631 141.572L92.2619 169.075L44.631 196.568Z" fill="white"/>
<path opacity="0.2" d="M330.631 196.636L283 169.144L330.631 141.641L378.262 169.144L330.631 196.636Z" fill="white"/>
<path d="M44.6316 196.565V213.067L92.2626 185.574V169.072L44.6316 196.565Z" fill="#1F1F1F"/>
<path d="M330.632 196.633V213.135L378.263 185.642V169.141L330.632 196.633Z" fill="#1F1F1F"/>
<path d="M-3 169.072L44.631 196.565V213.067L-3 185.564V169.072Z" fill="#1F1F1F"/>
<path d="M283 169.141L330.631 196.633V213.135L283 185.632V169.141Z" fill="#1F1F1F"/>
<path opacity="0.2" d="M-3 169.072L44.631 196.565V213.067L-3 185.564V169.072Z" fill="black"/>
<path opacity="0.2" d="M283 169.141L330.631 196.633V213.135L283 185.632V169.141Z" fill="black"/>
<path d="M200.388 84.7848C193.961 81.077 183.55 81.077 177.133 84.7848C173.914 86.6387 172.325 89.0732 172.325 91.4975C172.325 91.9661 172.325 93.8098 172.325 94.2682C172.325 96.7027 173.914 99.1372 177.123 100.991C183.55 104.699 193.961 104.699 200.378 100.991C203.597 99.1372 205.186 96.7027 205.186 94.2682C205.186 93.8098 205.186 91.9661 205.186 91.4975C205.186 89.0732 203.597 86.6387 200.388 84.7848Z" fill="#EBEBEB"/>
<path opacity="0.2" d="M200.388 84.7848C193.961 81.077 183.55 81.077 177.133 84.7848C173.914 86.6387 172.325 89.0732 172.325 91.4975C172.325 91.9661 172.325 93.8098 172.325 94.2682C172.325 96.7027 173.914 99.1372 177.123 100.991C183.55 104.699 193.961 104.699 200.378 100.991C203.597 99.1372 205.186 96.7027 205.186 94.2682C205.186 93.8098 205.186 91.9661 205.186 91.4975C205.186 89.0732 203.597 86.6387 200.388 84.7848Z" fill="black"/>
<path opacity="0.2" d="M181.157 83.0781C179.753 83.4844 178.402 84.0554 177.133 84.7792C173.914 86.6331 172.325 89.0676 172.325 91.492C172.325 91.9605 172.325 93.8042 172.325 94.2626C172.325 96.6971 173.914 99.1317 177.123 100.986C178.411 101.71 179.778 102.284 181.197 102.697L181.157 83.0781Z" fill="black"/>
<path d="M177.134 84.7848C183.552 81.077 193.962 81.077 200.389 84.7848C206.817 88.4926 206.807 94.5025 200.389 98.2103C193.972 101.918 183.562 101.918 177.134 98.2103C170.707 94.5025 170.707 88.4926 177.134 84.7848Z" fill="#EBEBEB"/>
<path opacity="0.4" d="M177.134 84.7848C183.552 81.077 193.962 81.077 200.389 84.7848C206.817 88.4926 206.807 94.5025 200.389 98.2103C193.972 101.918 183.562 101.918 177.134 98.2103C170.707 94.5025 170.707 88.4926 177.134 84.7848Z" fill="black"/>
<path d="M188.746 78.3711C173.029 78.3711 170.992 85.1348 170.992 88.6185C170.992 92.1022 173.111 95.0053 177.491 97.5314C180.986 99.2985 184.85 100.216 188.767 100.209C192.684 100.202 196.544 99.2704 200.033 97.4907C204.413 94.9645 206.542 92.0716 206.542 88.5777C206.542 85.0838 204.464 78.3711 188.746 78.3711Z" fill="#EBEBEB"/>
<path opacity="0.1" d="M194.613 92.5422H194.317C193.146 92.695 190.997 92.5422 190.049 93.4793C188.45 95.0174 190.661 96.3518 192.087 96.7796C194.4 97.4061 196.861 97.182 199.023 96.1481C200.88 95.3191 202.46 93.9759 203.577 92.2773C204.005 91.5439 204.809 89.415 203.74 88.926C203.449 88.8018 203.126 88.7753 202.819 88.8506C202.513 88.9259 202.238 89.099 202.039 89.3437C201.512 89.7753 200.953 90.1669 200.368 90.5151C199.849 90.8594 199.308 91.1691 198.748 91.4421C197.428 91.9999 196.036 92.3702 194.613 92.5422Z" fill="white"/>
<path opacity="0.1" d="M186.791 90.5029C196.071 91.3382 202.569 87.6406 204.861 83.6679C202.824 80.9075 198.332 78.3711 188.706 78.3711C172.988 78.3711 170.951 85.1348 170.951 88.6185C170.951 92.1022 173.07 95.0053 177.45 97.5315C180.951 99.3052 184.822 100.226 188.746 100.219C192.671 100.212 196.538 99.2771 200.033 97.4907C200.973 96.9583 201.868 96.352 202.712 95.6775C199.401 97.9796 193.942 99.6807 186.872 98.6621C179.803 97.6435 177.165 89.6371 186.791 90.5029Z" fill="black"/>
<path opacity="0.1" d="M181.178 87.6239L180.312 79.2305C172.235 81.1557 170.992 85.8923 170.992 88.6222C170.992 92.1161 173.111 95.009 177.491 97.5352C177.623 97.6167 177.776 97.688 177.918 97.7593C173.09 94.6321 176.085 86.1367 181.178 87.6239Z" fill="black"/>
<path d="M200.686 69.3592C194.095 65.5495 183.42 65.5495 176.829 69.3592C173.539 71.264 171.909 73.7597 171.909 76.2451V79.9835C171.909 82.4689 173.539 84.9646 176.829 86.8694C183.42 90.679 194.095 90.679 200.686 86.8694C203.976 84.9646 205.616 82.4689 205.606 79.9733V76.2451C205.606 73.7495 203.976 71.2538 200.686 69.3592Z" fill="#EBEBEB"/>
<path opacity="0.2" d="M200.686 69.3592C194.095 65.5495 183.42 65.5495 176.829 69.3592C173.539 71.264 171.909 73.7597 171.909 76.2451V79.9835C171.909 82.4689 173.539 84.9646 176.829 86.8694C183.42 90.679 194.095 90.679 200.686 86.8694C203.976 84.9646 205.616 82.4689 205.606 79.9733V76.2451C205.606 73.7495 203.976 71.2538 200.686 69.3592Z" fill="black"/>
<path opacity="0.2" d="M176.829 86.8629C177.991 87.5181 179.216 88.0539 180.486 88.4622V67.7637C179.217 68.1685 177.992 68.7009 176.829 69.3527C173.539 71.2576 171.909 73.7532 171.909 76.2386V79.977C171.899 82.4624 173.549 84.9581 176.829 86.8629Z" fill="black"/>
<path d="M176.827 69.3477C183.417 65.5482 194.093 65.5482 200.683 69.3477C207.274 73.1471 207.263 79.3098 200.683 83.1093C194.103 86.9088 183.417 86.9088 176.827 83.1093C170.236 79.3098 170.247 73.1573 176.827 69.3477Z" fill="#F5F5F5"/>
<path d="M202.264 72.7698C200.4 68.4101 195.714 55.3207 195.714 33.8379H181.789C181.789 55.3207 177.093 68.4101 175.239 72.7698C174.099 75.5914 175.301 78.7084 178.886 80.9188C184.336 84.2701 193.147 84.2701 198.597 80.9188C202.192 78.7084 203.404 75.5914 202.264 72.7698Z" fill="#EBEBEB"/>
<path opacity="0.1" d="M195.245 48.0176C195.888 54.7638 197.15 61.4367 199.014 67.9521C200.226 72.159 202.008 75.0214 199.676 77.6392C197.343 80.2571 191.639 81.0618 191.639 81.0618C193.74 80.1698 195.65 78.8796 197.262 77.2624C199.645 74.7362 198.209 71.0793 197.506 67.9521C196.396 62.9201 194.837 55.0155 195.245 48.0176Z" fill="white"/>
<path opacity="0.1" d="M190.58 83.3635C189.388 82.8338 186.923 81.8661 188.757 71.4761C190.59 61.0861 190.549 44.7066 190.509 33.8379H181.789C181.789 55.3207 177.093 68.4101 175.239 72.7698C174.099 75.5914 175.301 78.7084 178.886 80.9188C182.44 82.9162 186.523 83.7699 190.58 83.3635Z" fill="black"/>
<path opacity="0.1" d="M182.462 66.1182C184.081 59.161 184.57 44.8391 184.611 33.8379H181.789C181.789 55.3207 177.093 68.4101 175.239 72.7698C174.099 75.5914 175.301 78.7084 178.886 80.9188C179.85 81.4984 180.875 81.9698 181.942 82.3245C177.389 79.1566 180.771 73.3504 182.462 66.1182Z" fill="black"/>
<path d="M197.21 28.3409C192.545 25.6416 184.987 25.6416 180.301 28.3409C177.968 29.6855 176.807 31.4579 176.807 33.2201C176.807 33.5563 176.807 37.2233 176.807 37.5595C176.807 39.3217 177.958 41.0941 180.301 42.4489C184.966 45.1381 192.525 45.1381 197.21 42.4489C199.543 41.0941 200.704 39.3217 200.694 37.5595V33.2201C200.704 31.4579 199.543 29.6855 197.21 28.3409Z" fill="#E0E0E0"/>
<path opacity="0.2" d="M187.35 26.373C184.883 26.4929 182.474 27.1647 180.301 28.339C177.968 29.6836 176.807 31.456 176.807 33.2182C176.807 33.5544 176.807 37.2214 176.807 37.5576C176.807 39.3198 177.958 41.0922 180.301 42.447C182.474 43.6213 184.883 44.2931 187.35 44.4129V26.373Z" fill="black"/>
<path d="M180.302 28.3409C184.978 25.6416 192.526 25.6416 197.212 28.3409C201.897 31.0403 201.877 35.4102 197.212 38.0994C192.546 40.7885 184.988 40.7987 180.302 38.0994C175.617 35.4 175.637 31.0301 180.302 28.3409Z" fill="#F5F5F5"/>
<path d="M198.148 10.541C192.963 7.54623 184.549 7.54623 179.365 10.541C176.38 12.2625 175.127 14.6155 175.575 16.8463L178.906 33.0628C179.111 33.7911 179.469 34.4674 179.955 35.047C180.442 35.6265 181.046 36.096 181.728 36.4243C183.906 37.5294 186.314 38.1053 188.756 38.1053C191.199 38.1053 193.607 37.5294 195.785 36.4243C196.466 36.096 197.071 35.6265 197.557 35.047C198.044 34.4674 198.401 33.7911 198.606 33.0628L201.937 16.8463C202.385 14.6053 201.133 12.2625 198.148 10.541Z" fill="#EBEBEB"/>
<path opacity="0.1" d="M199.013 11.1074C198.29 17.1479 196.731 29.4427 195.835 36.3999C196.507 36.072 197.102 35.6057 197.581 35.0316C198.061 34.4576 198.413 33.7888 198.616 33.069L201.947 16.8525C202.344 14.8356 201.356 12.7576 199.013 11.1074Z" fill="white"/>
<path opacity="0.1" d="M182.329 9.25977C181.3 9.58566 180.306 10.0157 179.365 10.5432C176.38 12.2647 175.127 14.6177 175.575 16.8485L178.906 33.0651C179.111 33.7933 179.469 34.4697 179.955 35.0492C180.442 35.6287 181.046 36.0982 181.728 36.4265C182.605 36.9238 183.543 37.3039 184.519 37.5572L182.329 9.25977Z" fill="black"/>
<path d="M179.364 10.541C184.549 7.54623 192.962 7.54623 198.147 10.541C203.332 13.5358 203.332 18.3946 198.147 21.3894C192.962 24.3841 184.549 24.3841 179.364 21.3894C174.179 18.3946 174.179 13.5358 179.364 10.541Z" fill="#F5F5F5"/>
<path d="M197.994 12.1012L197.801 11.928L197.597 11.7447C195.199 9.5268 192.053 8.29492 188.786 8.29492C185.519 8.29492 182.373 9.5268 179.975 11.7447L179.71 11.9993L179.496 12.1928C177.214 14.5357 177.795 17.5508 181.248 19.5371C183.577 20.7223 186.153 21.3402 188.766 21.3402C191.379 21.3402 193.954 20.7223 196.283 19.5371C199.757 17.5101 200.307 14.4542 197.994 12.1012Z" fill="#EBEBEB"/>
<path opacity="0.2" d="M193.461 9.74023C195.098 10.4595 196.56 11.5226 197.75 12.8572C198.153 13.5644 198.341 14.3741 198.29 15.1867C198.24 15.9992 197.953 16.7793 197.464 17.4309C197.846 15.9938 197.683 14.4662 197.006 13.1424C196.083 11.7667 194.874 10.6062 193.461 9.74023Z" fill="white"/>
<path opacity="0.1" d="M181.535 17.2671C178.917 14.8122 180.231 12.0619 182.136 10.1367C181.351 10.5954 180.617 11.1348 179.946 11.7461L179.681 12.0008L179.467 12.1943C177.185 14.5372 177.766 17.5523 181.219 19.5386C183.547 20.7238 186.123 21.3417 188.736 21.3417C191.349 21.3417 193.925 20.7238 196.254 19.5386C196.92 19.1692 197.528 18.7023 198.057 18.1533C197.914 18.2755 196.722 19.3553 192.699 19.7729C186.506 20.3943 183.521 19.1312 181.535 17.2671Z" fill="black"/>
<path d="M194.237 5.48022C194.239 6.56699 193.919 7.6299 193.316 8.53435C192.714 9.4388 191.856 10.1441 190.853 10.5609C189.849 10.9777 188.744 11.0873 187.678 10.8758C186.612 10.6643 185.633 10.1412 184.865 9.3727C184.096 8.60425 183.573 7.62501 183.361 6.55903C183.15 5.49305 183.26 4.38828 183.676 3.38462C184.093 2.38097 184.798 1.52359 185.703 0.921072C186.607 0.318555 187.67 -0.00200496 188.757 9.43576e-06C190.21 9.43576e-06 191.604 0.577397 192.632 1.60514C193.66 2.63287 194.237 4.02678 194.237 5.48022Z" fill="#EBEBEB"/>
<path opacity="0.2" d="M194.247 5.47698C194.249 6.53661 193.943 7.5739 193.368 8.46371C192.792 9.35352 191.972 10.0578 191.005 10.4916C190.038 10.9255 188.966 11.0702 187.919 10.9085C186.872 10.7469 185.894 10.2856 185.103 9.58037C184.312 8.87516 183.742 7.95618 183.462 6.93426C183.182 5.91235 183.203 4.83119 183.524 3.82123C183.845 2.81128 184.451 1.91566 185.269 1.24246C186.087 0.569271 187.083 0.147265 188.136 0.0273438C187.414 0.318471 186.779 0.790036 186.292 1.39685C185.805 2.00367 185.482 2.7254 185.354 3.49287C185.226 4.26034 185.298 5.04783 185.561 5.77987C185.825 6.51191 186.272 7.16398 186.86 7.67357C187.448 8.18315 188.157 8.53318 188.919 8.69011C189.681 8.84705 190.471 8.80564 191.212 8.56982C191.954 8.33401 192.622 7.9117 193.154 7.34339C193.685 6.77508 194.062 6.07981 194.247 5.3242C194.252 5.375 194.252 5.42618 194.247 5.47698Z" fill="black"/>
<path opacity="0.2" d="M190.357 0.978874C189.971 0.892459 189.571 0.892459 189.185 0.978874C188.916 1.01898 188.67 1.15793 188.497 1.36875C188.324 1.57958 188.235 1.84722 188.248 2.11973C188.248 2.8124 189.063 3.13836 189.623 3.27078L190.642 3.57637C191.07 3.70879 191.447 3.97363 191.875 4.09587C192.302 4.2181 192.577 3.8514 192.598 3.44395C192.626 3.09209 192.555 2.73943 192.394 2.42532C192.224 2.09605 191.984 1.80761 191.691 1.57986C191.308 1.26398 190.847 1.05647 190.357 0.978874Z" fill="white"/>
<path d="M369.043 175.614C362.381 188.856 366.894 191.576 367.25 191.77C367.25 193.909 365.824 196.058 362.992 197.688C361.633 198.455 360.177 199.037 358.663 199.42C358.297 199.511 357.909 199.603 357.533 199.674C354.811 200.21 352.019 200.29 349.272 199.908L348.844 199.837C346.605 199.513 344.445 198.785 342.467 197.688C341.219 197.006 340.132 196.065 339.279 194.927C338.625 194.004 338.269 192.902 338.26 191.77C338.26 188.021 341.958 181.828 342.162 178.66H342.111C341.043 178.387 339.935 178.314 338.841 178.446H338.759C338.759 178.446 333.941 175.543 333.727 175.39C332.78 174.86 333.106 172.63 334.522 169.115C336.253 164.847 336.732 159.347 337.099 155.873C337.466 152.4 339.442 148.631 340.909 145.972C342.375 143.314 341.927 141.144 342.762 138.689C343.598 136.234 344.963 137.732 346.317 139.249L347.672 140.767C347.672 140.767 354.09 138.923 358.419 141.48C359.04 141.857 363.42 144.404 365.345 145.504H365.407L365.875 145.799C365.994 145.875 366.106 145.96 366.211 146.054L366.547 146.329C366.632 146.385 366.707 146.454 366.772 146.532C366.914 146.665 367.057 146.807 367.189 146.95C371.223 151.605 374.686 160.131 369.043 175.614Z" fill="#E0E0E0"/>
<path d="M369.043 175.614C362.381 188.856 366.894 191.576 367.25 191.77C367.25 193.909 365.824 196.058 362.992 197.688C361.633 198.455 360.177 199.037 358.663 199.42C358.297 199.511 357.909 199.603 357.533 199.674C354.811 200.21 352.019 200.29 349.272 199.908L348.844 199.837C346.605 199.513 344.445 198.785 342.467 197.688C341.219 197.006 340.132 196.065 339.279 194.927C338.625 194.004 338.269 192.902 338.26 191.77C338.26 188.021 341.958 181.828 342.162 178.66H342.111C341.043 178.387 339.935 178.314 338.841 178.446H338.759C338.759 178.446 333.941 175.543 333.727 175.39C332.78 174.86 333.106 172.63 334.522 169.115C336.253 164.847 336.732 159.347 337.099 155.873C337.466 152.4 339.442 148.631 340.909 145.972C342.375 143.314 341.927 141.144 342.762 138.689C343.598 136.234 344.963 137.732 346.317 139.249L347.672 140.767C347.672 140.767 354.09 138.923 358.419 141.48C359.04 141.857 363.42 144.404 365.345 145.504H365.407L365.875 145.799C365.994 145.875 366.106 145.96 366.211 146.054L366.547 146.329C366.632 146.385 366.707 146.454 366.772 146.532C366.914 146.665 367.057 146.807 367.189 146.95C371.223 151.605 374.686 160.131 369.043 175.614Z" fill="#EBEBEB"/>
<path opacity="0.2" d="M355.526 162.293C357.788 166.082 356.545 169.199 351.38 179.895C349.262 184.234 346.104 191.1 348.854 199.901C346.617 199.574 344.457 198.846 342.478 197.751C341.227 197.065 340.139 196.117 339.289 194.971C338.632 194.052 338.277 192.952 338.271 191.823C338.271 188.064 341.958 181.871 342.162 178.703C342.653 178.762 343.151 178.712 343.621 178.557C344.091 178.402 344.522 178.146 344.882 177.807C346.114 176.442 348.325 171.695 348.325 171.695C351.861 169.621 354.445 166.247 355.526 162.293Z" fill="black"/>
<path d="M369.042 175.613C364.194 188.967 367.005 191.565 367.25 191.769C367.25 193.908 365.823 196.057 362.992 197.687C361.632 198.454 360.176 199.036 358.663 199.419C358.296 199.51 357.909 199.602 357.532 199.673C354.811 200.215 352.018 200.294 349.271 199.907L348.843 199.846C346.093 191.086 349.25 184.18 351.369 179.851C356.564 169.165 357.776 166.028 355.515 162.249C354.427 166.219 351.827 169.605 348.273 171.681C348.273 171.681 346.062 176.398 344.83 177.793C344.469 178.135 344.037 178.392 343.565 178.545C343.093 178.699 342.592 178.744 342.1 178.679C341.342 178.641 340.583 178.658 339.828 178.73C339.558 178.784 339.278 178.745 339.034 178.618C338.955 178.584 338.885 178.531 338.83 178.465C338.117 177.732 338.514 175.593 339.848 172.354C341.56 168.075 343.77 163.532 344.147 160.038C344.524 156.545 346.47 152.796 347.947 150.137C349.424 147.479 348.965 145.309 349.79 142.854C350.615 140.399 352.011 141.907 353.355 143.414L354.71 144.922C354.71 144.922 360.975 143.15 365.294 145.554H365.355H365.416L365.885 145.849C366.003 145.925 366.116 146.01 366.221 146.104L366.557 146.379C366.641 146.435 366.717 146.504 366.781 146.582C366.924 146.715 367.066 146.857 367.199 147C371.222 151.604 374.686 160.13 369.042 175.613Z" fill="#F5F5F5"/>
<path d="M351.809 147.512C353.286 147.156 354.04 146.494 353.204 145.118C352.645 144.204 351.932 143.395 351.096 142.725C351.096 142.725 352.553 144.762 352.491 146.005C352.43 147.247 351.809 147.512 351.809 147.512Z" fill="#E0E0E0"/>
<path opacity="0.2" d="M351.809 147.512C353.286 147.156 354.04 146.494 353.204 145.118C352.645 144.204 351.932 143.395 351.096 142.725C351.096 142.725 352.553 144.762 352.491 146.005C352.43 147.247 351.809 147.512 351.809 147.512Z" fill="black"/>
<path d="M357.258 146.652C358.34 146.389 359.464 146.343 360.564 146.518C361.664 146.693 362.718 147.085 363.665 147.671C365.553 148.935 366.982 150.775 367.74 152.917C368.523 155.017 368.899 157.246 368.85 159.487C368.824 161.711 368.551 163.924 368.035 166.088C366.952 170.342 365.591 174.52 363.961 178.596C363.142 180.606 362.521 182.69 362.107 184.82C361.731 186.968 361.503 189.14 361.424 191.319C361.312 189.127 361.384 186.929 361.638 184.749C361.975 182.566 362.521 180.42 363.268 178.342C364.785 174.247 366.06 170.067 367.088 165.823C368.106 161.667 368.422 157.195 367.037 153.131C366.409 151.089 365.141 149.304 363.421 148.038C361.622 146.798 359.414 146.302 357.258 146.652Z" fill="#E0E0E0"/>
<path opacity="0.2" d="M357.258 146.652C358.34 146.389 359.464 146.343 360.564 146.518C361.664 146.693 362.718 147.085 363.665 147.671C365.553 148.935 366.982 150.775 367.74 152.917C368.523 155.017 368.899 157.246 368.85 159.487C368.824 161.711 368.551 163.924 368.035 166.088C366.952 170.342 365.591 174.52 363.961 178.596C363.142 180.606 362.521 182.69 362.107 184.82C361.731 186.968 361.503 189.14 361.424 191.319C361.312 189.127 361.384 186.929 361.638 184.749C361.975 182.566 362.521 180.42 363.268 178.342C364.785 174.247 366.06 170.067 367.088 165.823C368.106 161.667 368.422 157.195 367.037 153.131C366.409 151.089 365.141 149.304 363.421 148.038C361.622 146.798 359.414 146.302 357.258 146.652Z" fill="black"/>
<path d="M349.77 158.175C350.127 158.603 349.893 159.764 349.251 160.783C348.609 161.801 347.794 162.27 347.438 161.801C347.081 161.333 347.326 160.202 347.967 159.194C348.609 158.185 349.383 157.747 349.77 158.175Z" fill="#E0E0E0"/>
<path opacity="0.2" d="M349.77 158.175C350.127 158.603 349.893 159.764 349.251 160.783C348.609 161.801 347.794 162.27 347.438 161.801C347.081 161.333 347.326 160.202 347.967 159.194C348.609 158.185 349.383 157.747 349.77 158.175Z" fill="black"/>
<path d="M301.75 80.8155C295.873 77.4235 286.349 77.4235 280.461 80.8155C277.527 82.5166 276.071 84.7372 276.071 86.9273V89.4636C276.071 91.6944 277.517 93.9252 280.461 95.6263C286.338 99.0184 295.873 99.0184 301.75 95.6263C304.694 93.9252 306.151 91.6944 306.141 89.4636V86.9273C306.151 84.7372 304.694 82.5166 301.75 80.8155Z" fill="#EBEBEB"/>
<path opacity="0.2" d="M301.75 80.8155C295.873 77.4235 286.349 77.4235 280.461 80.8155C277.527 82.5166 276.071 84.7372 276.071 86.9273V89.4636C276.071 91.6944 277.517 93.9252 280.461 95.6263C286.338 99.0184 295.873 99.0184 301.75 95.6263C304.694 93.9252 306.151 91.6944 306.141 89.4636V86.9273C306.151 84.7372 304.694 82.5166 301.75 80.8155Z" fill="black"/>
<path opacity="0.2" d="M284.159 79.2559C282.87 79.6315 281.63 80.1545 280.461 80.8144C277.527 82.5155 276.071 84.7361 276.071 86.9261V89.4625C276.071 91.6933 277.517 93.9241 280.461 95.5742C281.627 96.2417 282.868 96.7683 284.159 97.1429V79.2559Z" fill="black"/>
<path d="M280.503 80.8155C286.391 77.4235 295.915 77.4235 301.792 80.8155C307.67 84.2075 307.67 89.7183 301.792 93.1103C295.915 96.5024 286.38 96.5024 280.503 93.1103C274.626 89.7183 274.585 84.2585 280.503 80.8155Z" fill="#EBEBEB"/>
<path opacity="0.4" d="M280.503 80.8155C286.391 77.4235 295.915 77.4235 301.792 80.8155C307.67 84.2075 307.67 89.7183 301.792 93.1103C295.915 96.5024 286.38 96.5024 280.503 93.1103C274.626 89.7183 274.585 84.2585 280.503 80.8155Z" fill="black"/>
<path d="M291.097 74.9434C276.714 74.9434 274.849 81.1366 274.849 84.3249C274.849 87.5132 276.795 90.1718 280.798 92.4739C283.988 94.0878 287.512 94.9287 291.086 94.9287C294.661 94.9287 298.185 94.0878 301.374 92.4739C305.388 90.1617 307.333 87.5132 307.333 84.3249C307.333 81.1366 305.49 74.9434 291.097 74.9434Z" fill="#EBEBEB"/>
<path opacity="0.1" d="M296.464 87.9151H296.199C295.129 88.0577 293.143 87.9151 292.298 88.7708C290.831 90.1867 292.848 91.3988 294.111 91.8266C296.231 92.4007 298.486 92.1947 300.467 91.246C302.163 90.4871 303.606 89.2567 304.623 87.7012C305.02 87.0391 305.754 85.0834 304.776 84.6453C304.509 84.5336 304.213 84.5109 303.932 84.5807C303.652 84.6504 303.401 84.8088 303.217 85.0324C302.735 85.4267 302.225 85.7842 301.689 86.102C301.218 86.425 300.721 86.7078 300.202 86.9475C299.009 87.4479 297.75 87.7738 296.464 87.9151Z" fill="white"/>
<path opacity="0.1" d="M289.345 86.0566C297.84 86.8205 303.789 83.4285 305.887 79.8022C304.013 77.2658 299.908 74.9434 291.097 74.9434C276.714 74.9434 274.849 81.1366 274.849 84.3249C274.849 87.5132 276.795 90.1718 280.798 92.4739C283.988 94.0878 287.512 94.9287 291.086 94.9287C294.661 94.9287 298.185 94.0878 301.374 92.4739C302.235 91.985 303.055 91.4299 303.829 90.8136C300.774 92.9221 295.792 94.4806 289.324 93.5435C282.856 92.6063 280.503 85.2722 289.345 86.0566Z" fill="black"/>
<path opacity="0.1" d="M284.17 83.4109L283.386 75.7305C275.99 77.4927 274.849 81.8422 274.849 84.3277C274.849 87.5262 276.795 90.1746 280.798 92.4767C280.931 92.5582 281.063 92.6193 281.196 92.6906C276.764 89.8282 279.484 82.0561 284.17 83.4109Z" fill="black"/>
<path d="M301.13 67.3461C295.599 64.1476 286.625 64.1476 281.083 67.3461C278.323 68.9454 276.948 71.0437 276.948 73.1319V76.2693C276.948 78.3677 278.313 80.466 281.083 82.0653C286.625 85.2536 295.599 85.2638 301.13 82.0653C303.9 80.466 305.276 78.3677 305.265 76.2693V73.1319C305.276 71.0132 303.931 68.9759 301.13 67.3461Z" fill="#EBEBEB"/>
<path opacity="0.2" d="M301.13 67.3461C295.599 64.1476 286.625 64.1476 281.083 67.3461C278.323 68.9454 276.948 71.0437 276.948 73.1319V76.2693C276.948 78.3677 278.313 80.466 281.083 82.0653C286.625 85.2536 295.599 85.2638 301.13 82.0653C303.9 80.466 305.276 78.3677 305.265 76.2693V73.1319C305.276 71.0132 303.931 68.9759 301.13 67.3461Z" fill="black"/>
<path opacity="0.2" d="M281.083 82.0672C282.053 82.6164 283.077 83.0636 284.139 83.4016V66.0137C283.077 66.3517 282.053 66.7989 281.083 67.3481C278.323 68.9473 276.948 71.0355 276.948 73.1339V76.2712C276.938 78.3696 278.313 80.468 281.083 82.0672Z" fill="black"/>
<path d="M281.083 67.3461C286.625 64.1476 295.599 64.1476 301.13 67.3461C306.661 70.5446 306.661 75.7193 301.13 78.9177C295.599 82.1162 286.625 82.1162 281.083 78.9177C275.542 75.7193 275.552 70.5446 281.083 67.3461Z" fill="#F5F5F5"/>
<path d="M302.556 70.5461C300.977 66.8484 296.994 55.7556 296.994 37.5527H285.178C285.178 55.7556 281.206 66.8484 279.627 70.5461C278.659 72.9398 279.688 75.5781 282.683 77.4523C287.297 80.2943 294.774 80.2943 299.388 77.4523C302.505 75.5781 303.524 72.9398 302.556 70.5461Z" fill="#EBEBEB"/>
<path opacity="0.1" d="M296.606 49.5605C297.174 55.294 298.261 60.9639 299.856 66.5003C300.875 70.0553 302.392 72.4898 300.416 74.7104C298.44 76.931 293.612 77.6033 293.612 77.6033C295.394 76.8536 297.01 75.7598 298.369 74.3845C300.406 72.2453 299.173 69.1385 298.572 66.5003C297.584 62.1915 296.27 55.489 296.606 49.5605Z" fill="white"/>
<path opacity="0.1" d="M292.656 79.5201C291.637 79.0719 289.6 78.257 291.108 69.4459C292.615 60.6348 292.625 46.7611 292.595 37.5527H285.2C285.2 55.7556 281.227 66.8484 279.648 70.546C278.681 72.9398 279.709 75.5781 282.704 77.4523C285.729 79.1503 289.205 79.8725 292.656 79.5201Z" fill="black"/>
<path opacity="0.1" d="M285.77 64.9029C287.145 59.005 287.563 46.8732 287.593 37.5527H285.2C285.2 55.7556 281.227 66.8484 279.648 70.546C278.681 72.9398 279.709 75.5781 282.704 77.4523C283.517 77.9367 284.377 78.336 285.271 78.6441C281.522 75.9753 284.334 71.0146 285.77 64.9029Z" fill="black"/>
<path d="M298.838 29.1474C296.44 27.9321 293.79 27.2988 291.102 27.2988C288.413 27.2988 285.763 27.9321 283.365 29.1474C281.226 30.38 280.167 31.9996 280.167 33.6192V37.5817C280.167 39.2013 281.185 40.8209 283.355 42.0636C285.755 43.279 288.407 43.9124 291.096 43.9124C293.786 43.9124 296.438 43.279 298.838 42.0636C300.977 40.8209 302.037 39.2013 302.026 37.5817V33.6192C302.047 31.9996 300.987 30.38 298.838 29.1474Z" fill="#E0E0E0"/>
<path opacity="0.2" d="M289.823 27.3477C287.566 27.4619 285.364 28.0778 283.375 29.1506C281.236 30.3832 280.177 32.0028 280.177 33.6224V37.5848C280.177 39.2045 281.195 40.8241 283.365 42.0668C285.357 43.1398 287.563 43.7524 289.823 43.8596V27.3477Z" fill="black"/>
<path d="M283.374 29.1474C285.772 27.9321 288.422 27.2988 291.11 27.2988C293.799 27.2988 296.449 27.9321 298.847 29.1474C303.115 31.6125 303.115 35.6157 298.847 38.0808C296.448 39.2986 293.796 39.9332 291.105 39.9332C288.415 39.9332 285.763 39.2986 283.364 38.0808C279.096 35.6157 279.096 31.6125 283.374 29.1474Z" fill="#F5F5F5"/>
<path d="M300.601 28.8925C300.601 33.68 296.354 37.5508 291.108 37.5508C285.862 37.5508 281.624 33.68 281.624 28.8925C281.624 24.1049 285.872 14.4688 291.108 14.4688C296.344 14.4688 300.601 24.1559 300.601 28.8925Z" fill="#EBEBEB"/>
<path opacity="0.1" d="M286.086 31.0723C283.58 25.6736 287.502 18.2377 289.305 16.9746C290.231 17.3396 291.236 17.4555 292.221 17.3107C293.206 17.166 294.136 16.7656 294.918 16.1495C293.896 15.1423 292.541 14.5444 291.108 14.4688C285.872 14.4688 281.624 24.1151 281.624 28.8925C281.624 33.6698 285.872 37.5508 291.108 37.5508C292.526 37.5645 293.93 37.2712 295.224 36.691C296.519 36.1107 297.672 35.2573 298.605 34.1894C296.15 36.2062 288.592 36.4609 286.086 31.0723Z" fill="black"/>
<path d="M296.127 10.7015C296.127 11.6947 295.833 12.6657 295.281 13.4915C294.729 14.3173 293.945 14.961 293.027 15.3411C292.11 15.7212 291.1 15.8206 290.126 15.6269C289.152 15.4331 288.257 14.9548 287.555 14.2525C286.852 13.5502 286.374 12.6554 286.18 11.6812C285.987 10.7071 286.086 9.69736 286.466 8.77974C286.846 7.86212 287.49 7.07782 288.316 6.52602C289.141 5.97421 290.112 5.67969 291.106 5.67969C292.437 5.67969 293.715 6.20878 294.657 7.15055C295.598 8.09233 296.127 9.36964 296.127 10.7015Z" fill="#EBEBEB"/>
<path opacity="0.2" d="M296.127 10.7037C296.129 11.6735 295.85 12.623 295.324 13.4376C294.798 14.2522 294.047 14.8971 293.162 15.2943C292.278 15.6915 291.297 15.8241 290.339 15.6761C289.38 15.5281 288.485 15.1057 287.762 14.4601C287.038 13.8144 286.517 12.9731 286.261 12.0377C286.006 11.1023 286.026 10.1129 286.32 9.18892C286.615 8.26494 287.17 7.44594 287.92 6.83084C288.67 6.21574 289.581 5.83084 290.545 5.72266C289.883 5.98734 289.301 6.41783 288.853 6.97273C288.406 7.52764 288.108 8.1883 287.99 8.89124C287.872 9.59418 287.936 10.3158 288.177 10.9866C288.418 11.6575 288.827 12.2551 289.366 12.722C289.905 13.1889 290.554 13.5094 291.253 13.6527C291.951 13.796 292.674 13.7573 293.353 13.5403C294.032 13.3232 294.644 12.9352 295.13 12.4135C295.616 11.8918 295.959 11.2539 296.127 10.5611V10.7037Z" fill="black"/>
<path opacity="0.2" d="M292.573 6.57666C292.221 6.49528 291.855 6.49528 291.503 6.57666C291.26 6.61349 291.039 6.73687 290.88 6.92406C290.721 7.11125 290.634 7.34963 290.637 7.59528C290.637 8.23702 291.391 8.49168 291.9 8.61391L292.797 8.88893C293.184 9.01116 293.53 9.24545 293.917 9.3575C294.304 9.46955 294.559 9.1334 294.579 8.7667C294.602 8.45673 294.538 8.14657 294.396 7.8703C294.243 7.56697 294.024 7.30226 293.754 7.09615C293.409 6.82782 293.003 6.64932 292.573 6.57666Z" fill="white"/>
<path d="M288.422 137.622C282.545 134.23 273.01 134.23 267.133 137.622C264.199 139.323 262.732 141.544 262.742 143.734V146.27C262.742 148.491 264.189 150.722 267.133 152.382C273.01 155.774 282.545 155.774 288.422 152.382C291.366 150.681 292.822 148.45 292.812 146.27V143.734C292.812 141.544 291.356 139.323 288.422 137.622Z" fill="#EBEBEB"/>
<path opacity="0.2" d="M288.422 137.622C282.545 134.23 273.01 134.23 267.133 137.622C264.199 139.323 262.732 141.544 262.742 143.734V146.27C262.742 148.491 264.189 150.722 267.133 152.382C273.01 155.774 282.545 155.774 288.422 152.382C291.366 150.681 292.822 148.45 292.812 146.27V143.734C292.812 141.544 291.356 139.323 288.422 137.622Z" fill="black"/>
<path opacity="0.2" d="M270.82 136.059C269.536 136.436 268.299 136.959 267.133 137.617C264.199 139.318 262.732 141.539 262.742 143.729V146.265C262.742 148.486 264.189 150.717 267.133 152.377C268.299 153.035 269.536 153.558 270.82 153.936V136.059Z" fill="black"/>
<path d="M267.133 137.622C273.011 134.23 282.545 134.23 288.422 137.622C294.3 141.014 294.3 146.525 288.422 149.917C282.545 153.309 273.011 153.309 267.133 149.917C261.256 146.525 261.256 141.024 267.133 137.622Z" fill="#EBEBEB"/>
<path opacity="0.4" d="M267.133 137.622C273.011 134.23 282.545 134.23 288.422 137.622C294.3 141.014 294.3 146.525 288.422 149.917C282.545 153.309 273.011 153.309 267.133 149.917C261.256 146.525 261.256 141.024 267.133 137.622Z" fill="black"/>
<path d="M277.767 131.756C263.374 131.756 261.469 137.949 261.469 141.137C261.469 144.326 263.415 146.984 267.428 149.286C270.619 150.894 274.143 151.731 277.716 151.731C281.29 151.731 284.813 150.894 288.004 149.286C292.008 146.964 293.953 144.316 293.953 141.137C293.953 137.959 292.15 131.756 277.767 131.756Z" fill="#EBEBEB"/>
<path opacity="0.1" d="M283.135 144.72H282.87C281.8 144.862 279.814 144.72 278.958 145.575C277.502 146.991 279.518 148.204 280.782 148.631C282.898 149.203 285.15 148.997 287.128 148.051C288.827 147.292 290.273 146.062 291.294 144.506C291.681 143.844 292.424 141.888 291.447 141.45C291.18 141.338 290.884 141.316 290.603 141.385C290.322 141.455 290.072 141.614 289.888 141.837C289.405 142.229 288.894 142.586 288.36 142.907C287.889 143.23 287.391 143.512 286.873 143.752C285.679 144.25 284.42 144.576 283.135 144.72Z" fill="white"/>
<path opacity="0.1" d="M276.015 142.869C284.5 143.633 290.459 140.241 292.547 136.615C290.683 134.078 286.578 131.756 277.767 131.756C263.374 131.756 261.469 137.949 261.469 141.137C261.469 144.326 263.415 146.984 267.428 149.286C270.619 150.894 274.143 151.731 277.716 151.731C281.29 151.731 284.813 150.894 288.004 149.286C288.861 148.793 289.678 148.235 290.449 147.616C287.393 149.724 282.422 151.283 275.954 150.346C269.486 149.409 267.163 142.075 276.015 142.869Z" fill="black"/>
<path opacity="0.1" d="M270.84 140.275L270.046 132.584C262.661 134.356 261.51 138.696 261.51 141.181C261.51 144.38 263.455 147.028 267.469 149.33L267.856 149.534C263.435 146.631 266.175 138.859 270.84 140.275Z" fill="black"/>
<path d="M286.732 126.02C281.791 123.157 273.764 123.157 268.814 126.02C266.349 127.446 265.116 129.31 265.116 131.184C265.116 131.541 265.116 133.639 265.116 133.985C265.116 135.86 266.339 137.734 268.814 139.17C273.764 142.022 281.791 142.022 286.732 139.17C289.217 137.744 290.439 135.86 290.429 133.985V131.113C290.439 129.279 289.207 127.405 286.732 126.02Z" fill="#EBEBEB"/>
<path opacity="0.2" d="M286.732 126.02C281.791 123.157 273.764 123.157 268.814 126.02C266.349 127.446 265.116 129.31 265.116 131.184C265.116 131.541 265.116 133.639 265.116 133.985C265.116 135.86 266.339 137.734 268.814 139.17C273.764 142.022 281.791 142.022 286.732 139.17C289.217 137.744 290.439 135.86 290.429 133.985V131.113C290.439 129.279 289.207 127.405 286.732 126.02Z" fill="black"/>
<path opacity="0.2" d="M268.814 139.126C269.687 139.617 270.609 140.016 271.564 140.318V124.773C270.609 125.078 269.687 125.481 268.814 125.975C266.349 127.401 265.116 129.266 265.116 131.14C265.116 131.496 265.116 133.595 265.116 133.941C265.116 135.815 266.339 137.69 268.814 139.126Z" fill="black"/>
<path d="M268.814 126.02C273.765 123.157 281.791 123.157 286.732 126.02C291.672 128.882 291.682 133.507 286.732 136.359C281.781 139.211 273.765 139.211 268.814 136.359C263.863 133.507 263.874 128.831 268.814 126.02Z" fill="#F5F5F5"/>
<path d="M288.655 127.782C287.158 124.268 283.369 116.76 283.369 107.287H272.154C272.154 116.821 268.364 124.268 266.857 127.782C265.94 130.064 266.918 132.58 269.811 134.362C272.25 135.696 274.986 136.395 277.766 136.395C280.547 136.395 283.282 135.696 285.722 134.362C288.655 132.58 289.603 130.094 288.655 127.782Z" fill="#EBEBEB"/>
<path opacity="0.1" d="M283.012 107.807C283.534 113.264 284.557 118.662 286.068 123.932C287.087 127.324 288.483 129.636 286.598 131.744C284.714 133.853 280.12 134.515 280.12 134.515C281.813 133.798 283.353 132.761 284.652 131.459C286.578 129.422 285.416 126.458 284.846 123.942C283.939 119.837 282.687 113.45 283.012 107.807Z" fill="white"/>
<path opacity="0.1" d="M279.243 136.338C278.286 135.9 276.299 135.126 277.776 126.733C279.253 118.339 279.223 116.057 279.192 107.287H272.154C272.154 116.781 268.364 124.268 266.857 127.782C265.94 130.064 266.918 132.58 269.811 134.362C272.677 135.975 275.971 136.665 279.243 136.338Z" fill="black"/>
<path opacity="0.1" d="M272.694 122.414C273.997 116.791 274.395 116.17 274.425 107.287H272.154C272.154 116.821 268.364 124.268 266.857 127.782C265.94 130.064 266.918 132.58 269.811 134.362C270.583 134.826 271.402 135.205 272.255 135.493C268.599 132.956 271.339 128.25 272.694 122.414Z" fill="black"/>
<path d="M283.482 103.345C281.714 102.45 279.76 101.984 277.778 101.984C275.796 101.984 273.842 102.45 272.074 103.345C271.423 103.633 270.862 104.09 270.448 104.669C270.034 105.247 269.783 105.926 269.721 106.635V108.753C269.783 109.462 270.034 110.141 270.448 110.72C270.862 111.298 271.423 111.755 272.074 112.044C273.841 112.943 275.795 113.411 277.778 113.411C279.76 113.411 281.715 112.943 283.482 112.044C284.132 111.755 284.694 111.298 285.107 110.72C285.521 110.141 285.773 109.462 285.835 108.753V106.665C285.835 105.443 285.051 104.261 283.482 103.345Z" fill="#E0E0E0"/>
<path opacity="0.2" d="M276.831 102.016C275.167 102.101 273.542 102.553 272.074 103.34C271.423 103.628 270.862 104.085 270.448 104.664C270.034 105.243 269.783 105.921 269.721 106.63V108.749C269.783 109.457 270.034 110.136 270.448 110.715C270.862 111.293 271.423 111.751 272.074 112.039C273.54 112.832 275.165 113.288 276.831 113.373V102.016Z" fill="black"/>
<path d="M272.075 103.345C273.843 102.45 275.797 101.984 277.779 101.984C279.761 101.984 281.715 102.45 283.483 103.345C286.631 105.168 286.631 108.112 283.483 109.935C281.715 110.829 279.761 111.295 277.779 111.295C275.797 111.295 273.843 110.829 272.075 109.935C268.927 108.112 268.927 105.168 272.075 103.345Z" fill="#F5F5F5"/>
<path d="M277.767 99.7793C270.148 99.7793 269.16 103.059 269.16 104.75C269.16 106.441 270.179 107.806 272.308 109.069C273.998 109.926 275.867 110.373 277.762 110.373C279.658 110.373 281.527 109.926 283.217 109.069C285.336 107.847 286.365 106.441 286.365 104.75C286.365 103.059 285.387 99.7793 277.767 99.7793Z" fill="#EBEBEB"/>
<path opacity="0.1" d="M280.609 106.665H280.466C279.906 106.746 278.857 106.665 278.429 107.123C277.655 107.867 278.724 108.519 279.396 108.722C280.517 109.031 281.711 108.922 282.758 108.417C283.657 108.014 284.424 107.364 284.968 106.543C285.172 106.186 285.559 105.157 285.04 104.913C284.898 104.854 284.742 104.842 284.593 104.878C284.445 104.915 284.312 104.998 284.215 105.116C283.961 105.327 283.692 105.518 283.41 105.687C283.16 105.856 282.898 106.006 282.625 106.135C281.982 106.407 281.303 106.586 280.609 106.665Z" fill="white"/>
<path opacity="0.1" d="M276.84 105.645C281.333 106.043 284.49 104.25 285.601 102.325C284.582 100.98 282.433 99.7578 277.767 99.7578C270.148 99.7578 269.16 103.038 269.16 104.729C269.16 106.42 270.179 107.785 272.308 109.048C273.998 109.905 275.867 110.352 277.762 110.352C279.658 110.352 281.527 109.905 283.217 109.048C283.67 108.789 284.103 108.496 284.511 108.172C282.22 109.593 279.481 110.109 276.83 109.618C273.377 109.139 272.145 105.238 276.84 105.645Z" fill="black"/>
<path opacity="0.1" d="M274.1 104.26L273.683 100.186C269.761 101.112 269.16 103.415 269.16 104.739C269.16 106.43 270.179 107.795 272.308 109.058L272.521 109.17C270.179 107.683 271.625 103.547 274.1 104.26Z" fill="black"/>
<path d="M283.482 95.4594C281.715 94.5604 279.76 94.0918 277.778 94.0918C275.795 94.0918 273.841 94.5604 272.074 95.4594C271.423 95.7477 270.862 96.205 270.448 96.7836C270.034 97.3622 269.783 98.041 269.721 98.7496V100.858C269.784 101.568 270.035 102.248 270.448 102.828C270.862 103.408 271.423 103.868 272.074 104.159C273.842 105.053 275.796 105.519 277.778 105.519C279.76 105.519 281.714 105.053 283.482 104.159C284.133 103.868 284.694 103.408 285.107 102.828C285.521 102.248 285.772 101.568 285.835 100.858V98.719C285.765 98.0165 285.511 97.3449 285.098 96.7724C284.684 96.2 284.127 95.747 283.482 95.4594Z" fill="#E0E0E0"/>
<path opacity="0.2" d="M276.831 94.0938C275.165 94.1791 273.54 94.6349 272.074 95.4281C271.423 95.7165 270.862 96.1737 270.448 96.7523C270.034 97.3309 269.783 98.0097 269.721 98.7183V100.827C269.784 101.537 270.035 102.217 270.448 102.797C270.862 103.377 271.423 103.836 272.074 104.127C273.541 104.917 275.166 105.369 276.831 105.451V94.0938Z" fill="black"/>
<path d="M272.075 95.4594C273.842 94.5604 275.796 94.0918 277.779 94.0918C279.762 94.0918 281.716 94.5604 283.483 95.4594C286.631 97.2726 286.631 100.227 283.483 102.04C281.716 102.939 279.762 103.407 277.779 103.407C275.796 103.407 273.842 102.939 272.075 102.04C268.927 100.196 268.927 97.242 272.075 95.4594Z" fill="#F5F5F5"/>
<path d="M285.427 93.9311C285.427 95.4441 284.978 96.9232 284.138 98.1812C283.297 99.4392 282.102 100.42 280.704 100.999C279.307 101.578 277.768 101.729 276.285 101.434C274.801 101.139 273.438 100.41 272.368 99.3404C271.298 98.2706 270.569 96.9075 270.274 95.4236C269.979 93.9396 270.13 92.4015 270.709 91.0036C271.288 89.6058 272.269 88.4111 273.527 87.5705C274.785 86.7299 276.264 86.2812 277.777 86.2812C279.806 86.2812 281.752 87.0872 283.186 88.5219C284.621 89.9565 285.427 91.9023 285.427 93.9311Z" fill="#EBEBEB"/>
<path opacity="0.2" d="M285.427 93.931C285.427 95.4071 285 96.8518 284.198 98.0909C283.396 99.3299 282.252 100.31 280.905 100.914C279.558 101.517 278.065 101.718 276.606 101.492C275.147 101.267 273.785 100.623 272.684 99.6405C271.582 98.6577 270.789 97.3772 270.399 95.9535C270.009 94.5298 270.039 93.0237 270.486 91.6168C270.933 90.2099 271.777 88.9624 272.917 88.0247C274.057 87.0869 275.444 86.4991 276.911 86.332C275.906 86.7367 275.021 87.3928 274.342 88.2375C273.664 89.0822 273.213 90.0872 273.034 91.156C272.855 92.2248 272.954 93.3217 273.321 94.3414C273.688 95.3612 274.31 96.2695 275.129 96.9795C275.948 97.6894 276.935 98.1771 277.997 98.3958C279.058 98.6144 280.158 98.5567 281.191 98.2282C282.223 97.8997 283.154 97.3114 283.894 96.5197C284.634 95.728 285.159 94.7594 285.417 93.7069C285.425 93.7813 285.429 93.8561 285.427 93.931Z" fill="black"/>
<path opacity="0.2" d="M280.007 87.6446C279.47 87.5273 278.914 87.5273 278.377 87.6446C278.002 87.6995 277.66 87.8911 277.418 88.1825C277.175 88.4739 277.049 88.8446 277.063 89.2235C277.124 90.2421 278.204 90.5986 278.988 90.8431L280.343 91.2607C280.944 91.4441 281.464 91.8108 282.065 91.9839C282.666 92.1571 283.083 91.6376 283.083 91.0774C283.11 90.6073 283.008 90.1389 282.788 89.7226C282.55 89.2511 282.2 88.8454 281.769 88.541C281.269 88.0951 280.662 87.7862 280.007 87.6446Z" fill="white"/>
<path d="M55.2873 162.687C49.4099 159.295 39.8755 159.295 33.998 162.687C31.0644 164.378 29.6078 166.608 29.6078 168.798V171.335C29.6078 173.566 31.0542 175.786 33.998 177.446C39.8755 180.839 49.4099 180.839 55.2873 177.446C58.2312 175.745 59.6878 173.525 59.6776 171.335V168.798C59.6776 166.557 58.221 164.337 55.2873 162.687Z" fill="#EBEBEB"/>
<path opacity="0.2" d="M55.2873 162.687C49.4099 159.295 39.8755 159.295 33.998 162.687C31.0644 164.378 29.6078 166.608 29.6078 168.798V171.335C29.6078 173.566 31.0542 175.786 33.998 177.446C39.8755 180.839 49.4099 180.839 55.2873 177.446C58.2312 175.745 59.6878 173.525 59.6776 171.335V168.798C59.6776 166.557 58.221 164.337 55.2873 162.687Z" fill="black"/>
<path opacity="0.2" d="M37.6855 161.064C36.4001 161.466 35.1634 162.009 33.998 162.684C31.0644 164.375 29.6078 166.606 29.6078 168.796V171.332C29.6078 173.563 31.0542 175.784 33.998 177.444C35.1656 178.101 36.4023 178.627 37.6855 179.013V161.064Z" fill="black"/>
<path d="M33.9984 162.687C39.8759 159.295 49.4102 159.295 55.2877 162.687C61.1652 166.079 61.1652 171.579 55.2877 174.971C49.4102 178.363 39.8759 178.363 33.9984 174.971C28.1209 171.579 28.1209 166.028 33.9984 162.687Z" fill="#EBEBEB"/>
<path opacity="0.4" d="M33.9984 162.687C39.8759 159.295 49.4102 159.295 55.2877 162.687C61.1652 166.079 61.1652 171.579 55.2877 174.971C49.4102 178.363 39.8759 178.363 33.9984 174.971C28.1209 171.579 28.1209 166.028 33.9984 162.687Z" fill="black"/>
<path d="M44.6325 156.77C30.2393 156.77 28.3345 162.953 28.3345 166.151C28.3345 169.35 30.28 171.998 34.2934 174.3C37.4828 175.914 41.0071 176.755 44.5816 176.755C48.156 176.755 51.6803 175.914 54.8697 174.3C58.8831 171.988 60.8185 169.339 60.8185 166.151C60.8185 162.963 59.0155 156.77 44.6325 156.77Z" fill="#EBEBEB"/>
<path opacity="0.1" d="M50.0007 169.737H49.7358C48.7172 169.89 46.68 169.737 45.8345 170.603C44.3677 172.008 46.3846 173.231 47.6477 173.658C49.7656 174.227 52.0171 174.017 53.9937 173.068C55.6925 172.313 57.1386 171.086 58.1599 169.533C58.547 168.861 59.2906 166.915 58.3127 166.477C58.0453 166.369 57.7505 166.348 57.4705 166.417C57.1905 166.487 56.9397 166.643 56.7542 166.864C56.2732 167.263 55.7624 167.624 55.2262 167.944C54.7528 168.263 54.2556 168.546 53.739 168.789C52.5425 169.276 51.2845 169.595 50.0007 169.737Z" fill="white"/>
<path opacity="0.1" d="M42.8805 167.873C51.3656 168.637 57.3246 165.255 59.4128 161.618C57.5487 159.092 53.4436 156.77 44.6325 156.77C30.2393 156.77 28.3345 162.953 28.3345 166.151C28.3345 169.35 30.28 171.998 34.2934 174.3C37.4828 175.914 41.0071 176.755 44.5816 176.755C48.156 176.755 51.6803 175.914 54.8697 174.3C55.7301 173.808 56.5509 173.249 57.3246 172.63C54.2687 174.738 49.2876 176.307 42.8193 175.37C36.3511 174.433 33.998 167.078 42.8805 167.873Z" fill="black"/>
<path opacity="0.1" d="M37.7057 165.233L36.9112 157.553C29.5262 159.315 28.3751 163.664 28.3751 166.15C28.3751 169.348 30.3207 171.997 34.3341 174.299L34.7314 174.503C30.3003 171.651 33.0404 163.878 37.7057 165.233Z" fill="black"/>
<path d="M53.6068 150.983C48.6563 148.131 40.6295 148.131 35.6892 150.983C33.2139 152.409 31.9814 154.283 31.9916 156.157V158.959C31.9916 160.833 33.2037 162.707 35.679 164.133C40.6295 166.996 48.6563 166.996 53.5966 164.133C56.0821 162.707 57.3044 160.833 57.2943 158.959V156.157C57.3044 154.283 56.0719 152.409 53.6068 150.983Z" fill="#EBEBEB"/>
<path opacity="0.2" d="M53.6068 150.983C48.6563 148.131 40.6295 148.131 35.6892 150.983C33.2139 152.409 31.9814 154.283 31.9916 156.157V158.959C31.9916 160.833 33.2037 162.707 35.679 164.133C40.6295 166.996 48.6563 166.996 53.5966 164.133C56.0821 162.707 57.3044 160.833 57.2943 158.959V156.157C57.3044 154.283 56.0719 152.409 53.6068 150.983Z" fill="black"/>
<path opacity="0.2" d="M35.6798 164.133C36.5537 164.626 37.4752 165.028 38.4301 165.335V149.791C37.478 150.093 36.5598 150.492 35.69 150.983C33.2148 152.409 31.9822 154.283 31.9924 156.157V158.959C31.9618 160.833 33.2046 162.687 35.6798 164.133Z" fill="black"/>
<path d="M35.6881 150.983C40.6284 148.131 48.6552 148.131 53.6057 150.983C58.5563 153.835 58.5461 158.47 53.6057 161.332C48.6654 164.194 40.6386 164.184 35.6881 161.332C30.7376 158.48 30.7376 153.835 35.6881 150.983Z" fill="#F5F5F5"/>
<path d="M55.5512 152.785C54.0538 149.271 50.2645 141.764 50.2645 132.301H39.0597C39.0597 141.825 35.2704 149.271 33.7628 152.785C32.846 155.077 33.8239 157.583 36.7168 159.366C39.1563 160.699 41.892 161.398 44.6723 161.398C47.4526 161.398 50.1883 160.699 52.6278 159.366C55.4901 157.593 56.468 155.077 55.5512 152.785Z" fill="#EBEBEB"/>
<path opacity="0.1" d="M49.8778 132.812C50.3993 138.27 51.4223 143.668 52.9337 148.937C53.9523 152.329 55.3478 154.642 53.4634 156.76C51.5789 158.879 46.9849 159.521 46.9849 159.521C48.6788 158.804 50.2181 157.766 51.5178 156.465C53.443 154.428 52.292 151.474 51.7113 148.948C50.8048 144.842 49.5519 138.456 49.8778 132.812Z" fill="white"/>
<path opacity="0.1" d="M46.1086 161.342C45.1511 160.914 43.1648 160.14 44.6418 151.746C46.1188 143.353 46.0883 141.071 46.0577 132.301H39.019C39.019 141.794 35.2297 149.271 33.7221 152.785C32.8054 155.077 33.7833 157.583 36.6762 159.366C39.5411 160.982 42.8359 161.672 46.1086 161.342Z" fill="black"/>
<path opacity="0.1" d="M39.5589 147.409C40.8729 141.797 41.26 141.165 41.2905 132.293H39.019C39.019 141.817 35.2297 149.263 33.7221 152.778C32.8054 155.069 33.7833 157.575 36.6762 159.358C37.4475 159.825 38.2672 160.208 39.1209 160.499C35.464 157.962 38.1939 153.266 39.5589 147.409Z" fill="black"/>
<path d="M50.3475 128.358C48.5804 127.459 46.6258 126.99 44.6432 126.99C42.6605 126.99 40.706 127.459 38.9389 128.358C38.2898 128.648 37.7298 129.106 37.3162 129.684C36.9027 130.262 36.6506 130.94 36.5858 131.648V133.757C36.6488 134.466 36.9001 135.146 37.3138 135.727C37.7274 136.307 38.2884 136.766 38.9389 137.057C40.7074 137.951 42.6614 138.417 44.6432 138.417C46.6249 138.417 48.579 137.951 50.3475 137.057C50.9979 136.766 51.5589 136.307 51.9726 135.727C52.3862 135.146 52.6375 134.466 52.7005 133.757V131.648C52.6358 130.94 52.3837 130.262 51.9701 129.684C51.5566 129.106 50.9965 128.648 50.3475 128.358Z" fill="#E0E0E0"/>
<path opacity="0.2" d="M43.6959 127.035C42.0307 127.12 40.4055 127.576 38.9389 128.37C38.2898 128.66 37.7298 129.117 37.3162 129.696C36.9027 130.274 36.6506 130.952 36.5858 131.66V133.768C36.6488 134.478 36.9001 135.158 37.3138 135.738C37.7274 136.318 38.2884 136.778 38.9389 137.069C40.4075 137.855 42.0319 138.308 43.6959 138.393V127.035Z" fill="black"/>
<path d="M38.9401 128.358C40.7072 127.459 42.6618 126.99 44.6444 126.99C46.627 126.99 48.5816 127.459 50.3487 128.358C53.4963 130.171 53.4963 133.125 50.3487 134.938C48.5816 135.837 46.627 136.306 44.6444 136.306C42.6618 136.306 40.7072 135.837 38.9401 134.938C35.7925 133.145 35.7925 130.171 38.9401 128.358Z" fill="#F5F5F5"/>
<path d="M44.6328 124.779C37.0134 124.779 36.0254 128.059 36.0254 129.75C36.0254 131.441 37.044 132.806 39.1729 134.079C40.8653 134.93 42.7333 135.374 44.6277 135.374C46.522 135.374 48.39 134.93 50.0824 134.079C52.2011 132.847 53.23 131.441 53.23 129.75C53.23 128.059 52.2521 124.779 44.6328 124.779Z" fill="#EBEBEB"/>
<path opacity="0.1" d="M47.473 131.659H47.3406C46.7701 131.73 45.721 131.659 45.3033 132.107C44.5292 132.861 45.5987 133.502 46.322 133.716C47.4442 134.016 48.6367 133.904 49.6834 133.4C50.5862 133.003 51.3541 132.352 51.8938 131.526C52.0976 131.17 52.4846 130.141 51.9651 129.896C51.8227 129.84 51.666 129.83 51.5177 129.869C51.3695 129.907 51.2372 129.992 51.1401 130.11C50.8868 130.318 50.6177 130.505 50.3353 130.671C50.0879 130.843 49.8254 130.993 49.551 131.119C48.8891 131.401 48.1887 131.583 47.473 131.659Z" fill="white"/>
<path opacity="0.1" d="M43.7058 130.667C48.1979 131.074 51.3557 129.282 52.466 127.356C51.4474 126.012 49.2981 124.779 44.6328 124.779C37.0134 124.779 36.0254 128.059 36.0254 129.75C36.0254 131.441 37.044 132.806 39.1729 134.079C40.8653 134.93 42.7333 135.374 44.6277 135.374C46.522 135.374 48.39 134.93 50.0824 134.079C50.5358 133.818 50.9682 133.521 51.3761 133.193C49.0893 134.625 46.3466 135.142 43.6956 134.64C40.2832 134.161 39.0099 130.249 43.7058 130.667Z" fill="black"/>
<path opacity="0.1" d="M40.9657 129.278L40.5481 125.203C36.6264 126.14 36.0254 128.432 36.0254 129.756C36.0254 131.447 37.044 132.812 39.1729 134.086L39.3868 134.187C37.0542 132.67 38.4904 128.554 40.9657 129.278Z" fill="black"/>
<path d="M50.3475 120.432C48.579 119.538 46.6249 119.072 44.6432 119.072C42.6614 119.072 40.7074 119.538 38.9389 120.432C37.3702 121.349 36.5858 122.531 36.5858 123.723V125.841C36.6485 126.55 36.8998 127.229 37.3136 127.807C37.7274 128.386 38.2886 128.843 38.9389 129.132C40.706 130.031 42.6605 130.499 44.6432 130.499C46.6258 130.499 48.5804 130.031 50.3475 129.132C50.9978 128.843 51.559 128.386 51.9728 127.807C52.3866 127.229 52.6379 126.55 52.7005 125.841V123.723C52.6287 123.017 52.3738 122.342 51.9611 121.765C51.5484 121.188 50.9922 120.729 50.3475 120.432Z" fill="#E0E0E0"/>
<path opacity="0.2" d="M43.6959 119.107C42.0319 119.193 40.4075 119.645 38.9389 120.432C37.3702 121.348 36.5858 122.53 36.5858 123.722V125.841C36.6485 126.549 36.8998 127.228 37.3136 127.807C37.7274 128.385 38.2886 128.842 38.9389 129.131C40.4055 129.924 42.0307 130.38 43.6959 130.465V119.107Z" fill="black"/>
<path d="M38.9401 120.432C40.7086 119.538 42.6626 119.072 44.6444 119.072C46.6262 119.072 48.5802 119.538 50.3487 120.432C53.4963 122.256 53.4963 125.2 50.3487 127.023C48.5802 127.917 46.6262 128.383 44.6444 128.383C42.6626 128.383 40.7086 127.917 38.9401 127.023C35.7925 125.2 35.7925 122.256 38.9401 120.432Z" fill="#F5F5F5"/>
<path d="M52.3329 118.937C52.3329 120.45 51.8842 121.929 51.0436 123.187C50.2031 124.445 49.0083 125.426 47.6105 126.005C46.2126 126.584 44.6745 126.735 43.1906 126.44C41.7066 126.145 40.3436 125.416 39.2737 124.346C38.2039 123.276 37.4753 121.913 37.1801 120.429C36.8849 118.945 37.0364 117.407 37.6154 116.01C38.1944 114.612 39.1749 113.417 40.4329 112.576C41.691 111.736 43.17 111.287 44.683 111.287C46.7119 111.287 48.6576 112.093 50.0923 113.528C51.5269 114.962 52.3329 116.908 52.3329 118.937Z" fill="#EBEBEB"/>
<path opacity="0.2" d="M52.3329 118.937C52.3332 120.413 51.9065 121.858 51.1041 123.097C50.3017 124.336 49.158 125.316 47.8109 125.92C46.4638 126.523 44.9708 126.724 43.5121 126.498C42.0533 126.272 40.6911 125.629 39.5897 124.646C38.4883 123.664 37.6948 122.383 37.3048 120.959C36.9149 119.536 36.9452 118.03 37.3921 116.623C37.839 115.216 38.6834 113.968 39.8235 113.031C40.9635 112.093 42.3505 111.505 43.8172 111.338C42.8126 111.743 41.9288 112.399 41.2505 113.243C40.5722 114.088 40.122 115.092 39.9431 116.16C39.7642 117.228 39.8626 118.325 40.2288 119.344C40.595 120.363 41.2168 121.271 42.0346 121.981C42.8525 122.691 43.8389 123.18 44.8995 123.399C45.9601 123.619 47.0593 123.562 48.0918 123.235C49.1244 122.908 50.0556 122.322 50.7965 121.532C51.5373 120.741 52.0628 119.774 52.3227 118.723C52.3312 118.794 52.3346 118.865 52.3329 118.937Z" fill="black"/>
<path opacity="0.2" d="M46.8718 112.652C46.3354 112.53 45.7784 112.53 45.242 112.652C44.8679 112.709 44.5276 112.901 44.2855 113.192C44.0434 113.483 43.9162 113.853 43.928 114.231C43.9891 115.25 45.0689 115.596 45.8532 115.851L47.208 116.268C47.809 116.452 48.3285 116.818 48.9295 116.981C49.5304 117.144 49.9481 116.645 49.9481 116.075C49.9719 115.606 49.8736 115.139 49.6629 114.72C49.4188 114.253 49.0702 113.849 48.6442 113.538C48.1375 113.098 47.5279 112.794 46.8718 112.652Z" fill="white"/>
<path d="M190.232 134.833C184.354 131.441 174.82 131.441 168.942 134.833C166.009 136.534 164.552 138.755 164.552 140.945V143.481C164.552 145.702 165.999 147.933 168.942 149.593C174.82 152.985 184.354 152.985 190.232 149.593C193.175 147.892 194.632 145.661 194.622 143.43V140.904C194.632 138.755 193.165 136.534 190.232 134.833Z" fill="#37474F"/>
<path opacity="0.2" d="M190.232 134.833C184.354 131.441 174.82 131.441 168.942 134.833C166.009 136.534 164.552 138.755 164.552 140.945V143.481C164.552 145.702 165.999 147.933 168.942 149.593C174.82 152.985 184.354 152.985 190.232 149.593C193.175 147.892 194.632 145.661 194.622 143.43V140.904C194.632 138.755 193.165 136.534 190.232 134.833Z" fill="black"/>
<path opacity="0.2" d="M172.64 133.271C171.352 133.647 170.111 134.17 168.942 134.83C166.009 136.531 164.552 138.752 164.552 140.942V143.478C164.552 145.699 165.999 147.93 168.942 149.59C170.111 150.25 171.352 150.773 172.64 151.148V133.271Z" fill="black"/>
<path d="M168.945 134.833C174.822 131.441 184.357 131.441 190.234 134.833C196.112 138.225 196.112 143.736 190.234 147.128C184.357 150.52 174.822 150.52 168.945 147.128C163.067 143.736 163.067 138.245 168.945 134.833Z" fill="#37474F"/>
<path opacity="0.4" d="M168.945 134.833C174.822 131.441 184.357 131.441 190.234 134.833C196.112 138.225 196.112 143.736 190.234 147.128C184.357 150.52 174.822 150.52 168.945 147.128C163.067 143.736 163.067 138.245 168.945 134.833Z" fill="black"/>
<path d="M179.578 128.961C165.195 128.961 163.361 135.185 163.361 138.342C163.361 141.5 165.297 144.189 169.31 146.491C172.501 148.099 176.025 148.936 179.598 148.936C183.171 148.936 186.695 148.099 189.886 146.491C193.9 144.169 195.835 141.521 195.835 138.342C195.835 135.164 193.92 128.961 179.578 128.961Z" fill="#37474F"/>
<path opacity="0.1" d="M184.945 141.933H184.68C183.611 142.075 181.624 141.933 180.779 142.788C179.312 144.204 181.329 145.416 182.592 145.844C184.708 146.421 186.962 146.215 188.938 145.264C190.639 144.508 192.086 143.277 193.104 141.719C193.502 141.057 194.235 139.101 193.257 138.663C192.99 138.551 192.694 138.529 192.414 138.598C192.133 138.668 191.882 138.826 191.699 139.05C191.213 139.424 190.703 139.765 190.171 140.069C189.699 140.392 189.202 140.674 188.683 140.914C187.492 141.431 186.234 141.774 184.945 141.933Z" fill="white"/>
<path opacity="0.1" d="M177.826 140.074C186.321 140.838 192.27 137.446 194.358 133.82C192.494 131.283 188.389 128.961 179.578 128.961C165.195 128.961 163.361 135.185 163.361 138.342C163.361 141.5 165.297 144.189 169.31 146.491C172.501 148.099 176.025 148.936 179.598 148.936C183.171 148.936 186.695 148.099 189.886 146.491C190.745 145.996 191.565 145.437 192.341 144.821C189.285 146.929 184.304 148.488 177.836 147.551C171.368 146.614 168.974 139.259 177.826 140.074Z" fill="black"/>
<path opacity="0.1" d="M172.651 137.427L171.867 129.746C164.472 131.519 163.331 135.858 163.331 138.343C163.331 141.542 165.266 144.19 169.28 146.492L169.677 146.696C165.246 143.844 167.986 136.072 172.651 137.427Z" fill="black"/>
<path d="M189.611 121.364C184.08 118.165 175.106 118.165 169.565 121.364C166.794 122.963 165.429 125.061 165.429 127.149V130.287C165.429 132.385 166.794 134.484 169.565 136.083C175.106 139.281 184.08 139.281 189.611 136.083C192.382 134.484 193.757 132.385 193.747 130.287V127.149C193.747 125.061 192.382 122.963 189.611 121.364Z" fill="#37474F"/>
<path opacity="0.2" d="M169.565 136.085C170.535 136.634 171.559 137.081 172.621 137.419V120.031C171.559 120.369 170.535 120.816 169.565 121.366C166.794 122.965 165.429 125.063 165.429 127.151V130.289C165.399 132.387 166.794 134.486 169.565 136.085Z" fill="black"/>
<path d="M169.565 121.364C175.106 118.165 184.08 118.165 189.611 121.364C195.142 124.562 195.142 129.747 189.611 132.935C184.08 136.124 175.106 136.134 169.565 132.935C164.023 129.737 164.033 124.562 169.565 121.364Z" fill="#455A64"/>
<path d="M191.037 124.562C189.458 120.874 185.476 109.771 185.476 91.5684H173.66C173.66 109.771 169.687 120.874 168.108 124.562C167.14 126.955 168.169 129.594 171.164 131.468C175.778 134.31 183.255 134.31 187.869 131.468C190.976 129.594 192.005 126.955 191.037 124.562Z" fill="#37474F"/>
<path opacity="0.1" d="M185.088 103.609C185.644 109.343 186.724 115.013 188.317 120.549C189.336 124.104 190.853 126.539 188.877 128.759C186.901 130.98 182.073 131.652 182.073 131.652C183.853 130.9 185.469 129.806 186.83 128.433C188.867 126.294 187.635 123.187 187.034 120.549C186.066 116.21 184.752 109.517 185.088 103.609Z" fill="white"/>
<path opacity="0.1" d="M181.126 133.536C180.107 133.088 178.07 132.273 179.588 123.462C181.106 114.65 181.106 100.777 181.075 91.5684H173.68C173.68 109.771 169.707 120.874 168.128 124.562C167.161 126.955 168.19 129.594 171.184 131.468C174.206 133.166 177.678 133.888 181.126 133.536Z" fill="black"/>
<path opacity="0.1" d="M174.25 118.889C175.626 112.991 176.043 100.859 176.074 91.5391H173.68C173.68 109.742 169.707 120.845 168.128 124.532C167.161 126.926 168.19 129.564 171.184 131.439C171.997 131.923 172.857 132.322 173.751 132.63C169.952 129.992 172.814 125.052 174.25 118.889Z" fill="black"/>
<path d="M187.329 83.1651C184.93 81.9497 182.278 81.3164 179.588 81.3164C176.898 81.3164 174.246 81.9497 171.846 83.1651C169.717 84.3977 168.658 86.0173 168.658 87.6369V91.5993C168.658 93.219 169.677 94.8386 171.846 96.0813C174.246 97.2967 176.898 97.93 179.588 97.93C182.278 97.93 184.93 97.2967 187.329 96.0813C189.469 94.8386 190.528 93.219 190.518 91.5993V87.6369C190.528 86.0173 189.469 84.3977 187.329 83.1651Z" fill="#37474F"/>
<path opacity="0.2" d="M187.329 83.1651C184.93 81.9497 182.278 81.3164 179.588 81.3164C176.898 81.3164 174.246 81.9497 171.846 83.1651C169.717 84.3977 168.658 86.0173 168.658 87.6369V91.5993C168.658 93.219 169.677 94.8386 171.846 96.0813C174.246 97.2967 176.898 97.93 179.588 97.93C182.278 97.93 184.93 97.2967 187.329 96.0813C189.469 94.8386 190.528 93.219 190.518 91.5993V87.6369C190.528 86.0173 189.469 84.3977 187.329 83.1651Z" fill="black"/>
<path opacity="0.2" d="M178.294 81.3652C176.038 81.4821 173.836 82.0979 171.846 83.1682C169.717 84.4007 168.658 86.0204 168.658 87.64V91.6024C168.658 93.222 169.677 94.8416 171.846 96.0844C173.836 97.1547 176.038 97.7704 178.294 97.8874V81.3652Z" fill="black"/>
<path d="M171.845 83.1651C174.245 81.9497 176.897 81.3164 179.587 81.3164C182.276 81.3164 184.929 81.9497 187.328 83.1651C191.596 85.6302 191.596 89.6334 187.328 92.0985C184.93 93.3186 182.277 93.9546 179.587 93.9546C176.896 93.9546 174.243 93.3186 171.845 92.0985C167.577 89.6334 167.577 85.6302 171.845 83.1651Z" fill="#455A64"/>
<path d="M189.083 82.9203C189.083 87.6976 184.835 91.5684 179.589 91.5684C174.343 91.5684 170.095 87.6976 170.095 82.9203C170.095 78.1429 174.353 68.4863 179.589 68.4863C184.825 68.4863 189.083 78.1429 189.083 82.9203Z" fill="#37474F"/>
<path d="M174.567 85.09C172.061 79.6912 175.983 72.2553 177.786 70.9922C178.712 71.3556 179.716 71.4715 180.7 71.3286C181.685 71.1857 182.615 70.7889 183.399 70.1773C182.38 69.1639 181.024 68.5619 179.589 68.4863C174.353 68.4863 170.095 78.1429 170.095 82.9203C170.095 87.6976 174.353 91.5684 179.589 91.5684C181.006 91.5827 182.41 91.2906 183.704 90.7122C184.998 90.1338 186.152 89.2827 187.086 88.2171C184.631 90.234 177.073 90.4785 174.567 85.09Z" fill="#263238"/>
<path d="M184.609 64.7191C184.609 65.7123 184.314 66.6832 183.762 67.5091C183.211 68.3349 182.426 68.9785 181.509 69.3586C180.591 69.7387 179.581 69.8382 178.607 69.6444C177.633 69.4506 176.738 68.9724 176.036 68.27C175.334 67.5677 174.855 66.6729 174.662 65.6988C174.468 64.7247 174.567 63.7149 174.947 62.7973C175.328 61.8797 175.971 61.0954 176.797 60.5436C177.623 59.9918 178.594 59.6973 179.587 59.6973C180.919 59.6973 182.196 60.2263 183.138 61.1681C184.08 62.1099 184.609 63.3872 184.609 64.7191Z" fill="#455A64"/>
<path opacity="0.2" d="M184.608 64.7213C184.61 65.6906 184.331 66.6396 183.805 67.4538C183.28 68.268 182.529 68.9127 181.645 69.31C180.761 69.7074 179.781 69.8404 178.823 69.693C177.865 69.5456 176.97 69.1242 176.247 68.4795C175.523 67.8349 175.001 66.9945 174.744 66.0599C174.488 65.1253 174.507 64.1363 174.8 63.2124C175.092 62.2884 175.646 61.469 176.395 60.8529C177.143 60.2368 178.053 59.8503 179.016 59.7402C178.354 60.0049 177.772 60.4354 177.324 60.9903C176.877 61.5452 176.58 62.2059 176.461 62.9088C176.343 63.6118 176.407 64.3333 176.648 65.0042C176.889 65.6751 177.299 66.2727 177.837 66.7396C178.376 67.2065 179.026 67.527 179.724 67.6703C180.422 67.8136 181.146 67.7748 181.825 67.5578C182.504 67.3408 183.115 66.9528 183.601 66.4311C184.087 65.9094 184.43 65.2715 184.598 64.5787C184.606 64.6258 184.61 64.6736 184.608 64.7213Z" fill="black"/>
<path opacity="0.2" d="M181.055 60.5924C180.703 60.5161 180.338 60.5161 179.985 60.5924C179.743 60.6292 179.521 60.7526 179.362 60.9398C179.203 61.127 179.117 61.3654 179.12 61.611C179.12 62.2528 179.863 62.5074 180.383 62.6297L181.279 62.9047C181.666 63.0269 182.012 63.2612 182.4 63.3733C182.787 63.4853 183.041 63.1492 183.062 62.7825C183.085 62.4757 183.021 62.1686 182.878 61.8962C182.726 61.5898 182.507 61.3217 182.237 61.1119C181.892 60.8436 181.486 60.6651 181.055 60.5924Z" fill="white"/>
<path d="M203.473 183.87C201.976 180.355 198.186 172.848 198.186 163.375H186.981C186.981 172.909 183.192 180.355 181.695 183.87C180.778 186.151 181.756 188.667 184.649 190.45C187.088 191.784 189.824 192.483 192.604 192.483C195.385 192.483 198.12 191.784 200.56 190.45C203.412 188.667 204.39 186.121 203.473 183.87Z" fill="#37474F"/>
<path opacity="0.1" d="M197.8 163.895C198.326 169.351 199.349 174.748 200.855 180.019C201.874 183.411 203.27 185.724 201.395 187.842C199.521 189.961 194.937 190.603 194.937 190.603C196.631 189.886 198.17 188.848 199.47 187.547C201.395 185.51 200.244 182.546 199.674 180.03C198.727 175.935 197.474 169.538 197.8 163.895Z" fill="white"/>
<path opacity="0.1" d="M194.03 192.426C193.073 191.988 191.087 191.214 192.564 182.821C194.041 174.427 194.01 172.145 193.979 163.375H186.941C186.941 172.869 183.151 180.355 181.654 183.87C180.737 186.151 181.715 188.667 184.608 190.45C187.472 192.058 190.761 192.748 194.03 192.426Z" fill="black"/>
<path opacity="0.1" d="M187.481 178.502C188.795 172.879 189.192 172.257 189.222 163.375H186.941C186.941 172.909 183.151 180.355 181.654 183.87C180.737 186.151 181.715 188.667 184.608 190.45C185.38 190.914 186.199 191.293 187.053 191.581C183.386 189.044 186.116 184.338 187.481 178.502Z" fill="black"/>
<path d="M198.269 159.431C196.501 158.536 194.547 158.07 192.565 158.07C190.583 158.07 188.629 158.536 186.861 159.431C186.216 159.727 185.66 160.186 185.247 160.763C184.834 161.34 184.579 162.015 184.508 162.721V164.839C184.57 165.548 184.821 166.227 185.235 166.805C185.649 167.384 186.21 167.841 186.861 168.13C188.628 169.029 190.582 169.497 192.565 169.497C194.548 169.497 196.502 169.029 198.269 168.13C198.919 167.841 199.481 167.384 199.894 166.805C200.308 166.227 200.56 165.548 200.622 164.839V162.69C200.552 161.988 200.298 161.316 199.885 160.744C199.471 160.171 198.914 159.718 198.269 159.431Z" fill="#37474F"/>
<path opacity="0.2" d="M191.618 158.104C189.954 158.189 188.329 158.641 186.861 159.428C186.216 159.724 185.66 160.183 185.247 160.76C184.834 161.337 184.579 162.012 184.508 162.718V164.837C184.57 165.545 184.821 166.224 185.235 166.803C185.649 167.381 186.21 167.838 186.861 168.127C188.327 168.92 189.952 169.376 191.618 169.461V158.104Z" fill="black"/>
<path d="M186.862 159.431C188.631 158.536 190.585 158.07 192.566 158.07C194.548 158.07 196.502 158.536 198.271 159.431C201.418 161.254 201.418 164.198 198.271 166.021C196.502 166.915 194.548 167.381 192.566 167.381C190.585 167.381 188.631 166.915 186.862 166.021C183.735 164.198 183.735 161.254 186.862 159.431Z" fill="#455A64"/>
<path d="M192.555 156.242C184.935 156.242 183.947 159.522 183.947 161.213C183.947 162.904 184.966 164.269 187.095 165.542C188.785 166.393 190.652 166.836 192.544 166.836C194.437 166.836 196.303 166.393 197.994 165.542C200.113 164.31 201.142 162.904 201.142 161.213C201.142 159.522 200.174 156.242 192.555 156.242Z" fill="#37474F"/>
<path opacity="0.1" d="M195.407 163.116H195.264C194.694 163.187 193.655 163.116 193.227 163.564C192.453 164.318 193.523 164.959 194.195 165.173C195.317 165.473 196.51 165.361 197.556 164.858C198.459 164.46 199.227 163.809 199.767 162.983C199.971 162.627 200.368 161.598 199.848 161.354C199.706 161.296 199.549 161.285 199.4 161.324C199.252 161.362 199.119 161.448 199.023 161.567C198.765 161.773 198.492 161.96 198.208 162.128C197.961 162.3 197.698 162.45 197.424 162.576C196.781 162.852 196.102 163.034 195.407 163.116Z" fill="white"/>
<path opacity="0.1" d="M191.628 162.13C196.13 162.537 199.278 160.745 200.388 158.819C199.369 157.475 197.22 156.242 192.555 156.242C184.935 156.242 183.947 159.522 183.947 161.213C183.947 162.904 184.966 164.269 187.095 165.542C188.785 166.393 190.652 166.836 192.544 166.836C194.437 166.836 196.303 166.393 197.994 165.542C198.447 165.28 198.88 164.984 199.288 164.656C197.001 166.088 194.258 166.604 191.607 166.102C188.205 165.603 186.942 161.671 191.628 162.13Z" fill="black"/>
<path opacity="0.1" d="M188.888 160.735L188.47 156.66C184.548 157.597 183.947 159.889 183.947 161.213C183.947 162.904 184.966 164.269 187.095 165.543L187.298 165.644C184.966 164.127 186.412 160.011 188.888 160.735Z" fill="black"/>
<path d="M198.269 151.487C196.502 150.588 194.548 150.119 192.565 150.119C190.582 150.119 188.628 150.588 186.861 151.487C186.212 151.777 185.651 152.235 185.238 152.813C184.824 153.391 184.572 154.069 184.508 154.777V156.885C184.569 157.596 184.82 158.276 185.234 158.856C185.648 159.437 186.21 159.896 186.861 160.186C188.629 161.08 190.583 161.546 192.565 161.546C194.547 161.546 196.501 161.08 198.269 160.186C198.92 159.896 199.482 159.437 199.896 158.856C200.309 158.276 200.56 157.596 200.622 156.885V154.777C200.56 154.068 200.308 153.39 199.894 152.811C199.481 152.232 198.919 151.775 198.269 151.487Z" fill="#37474F"/>
<path opacity="0.2" d="M191.618 150.189C189.952 150.265 188.326 150.718 186.861 151.514C186.212 151.804 185.651 152.261 185.238 152.84C184.824 153.418 184.572 154.096 184.508 154.804V156.912C184.569 157.622 184.82 158.303 185.234 158.883C185.648 159.464 186.21 159.923 186.861 160.213C188.328 161.002 189.953 161.455 191.618 161.537V150.189Z" fill="black"/>
<path d="M186.862 151.487C188.629 150.588 190.584 150.119 192.566 150.119C194.549 150.119 196.503 150.588 198.271 151.487C201.418 153.3 201.418 156.254 198.271 158.067C196.503 158.966 194.549 159.435 192.566 159.435C190.584 159.435 188.629 158.966 186.862 158.067C183.735 156.284 183.735 153.33 186.862 151.487Z" fill="#455A64"/>
<path d="M200.214 150.019C200.214 151.532 199.765 153.011 198.925 154.269C198.084 155.527 196.89 156.508 195.492 157.087C194.094 157.666 192.556 157.817 191.072 157.522C189.588 157.227 188.225 156.498 187.155 155.428C186.085 154.358 185.356 152.995 185.061 151.511C184.766 150.028 184.918 148.489 185.497 147.092C186.076 145.694 187.056 144.499 188.314 143.658C189.572 142.818 191.051 142.369 192.564 142.369C194.593 142.369 196.539 143.175 197.973 144.61C199.408 146.044 200.214 147.99 200.214 150.019Z" fill="#455A64"/>
<path opacity="0.2" d="M200.214 150.019C200.214 151.495 199.788 152.94 198.985 154.179C198.183 155.418 197.039 156.398 195.692 157.002C194.345 157.605 192.852 157.806 191.393 157.58C189.934 157.354 188.572 156.711 187.471 155.728C186.369 154.746 185.576 153.465 185.186 152.041C184.796 150.618 184.826 149.112 185.273 147.705C185.72 146.298 186.565 145.05 187.705 144.113C188.845 143.175 190.232 142.587 191.698 142.42C190.693 142.825 189.809 143.481 189.13 144.325C188.451 145.17 188 146.175 187.821 147.244C187.642 148.313 187.741 149.41 188.108 150.429C188.475 151.449 189.098 152.357 189.916 153.067C190.735 153.777 191.723 154.265 192.784 154.484C193.845 154.702 194.945 154.645 195.978 154.316C197.011 153.988 197.942 153.399 198.682 152.608C199.422 151.816 199.946 150.847 200.204 149.795C200.212 149.869 200.216 149.944 200.214 150.019Z" fill="black"/>
<path opacity="0.2" d="M194.805 143.732C194.265 143.615 193.706 143.615 193.165 143.732C192.791 143.789 192.451 143.982 192.209 144.273C191.967 144.563 191.839 144.933 191.851 145.311C191.912 146.33 192.992 146.686 193.776 146.931L195.131 147.348C195.732 147.542 196.252 147.899 196.853 148.072C197.454 148.245 197.871 147.736 197.871 147.165C197.901 146.696 197.802 146.228 197.586 145.81C197.345 145.341 196.996 144.936 196.567 144.629C196.068 144.182 195.461 143.873 194.805 143.732Z" fill="white"/>
<path d="M247.713 181.098C251.906 180.581 254.887 176.764 254.37 172.57C253.854 168.377 250.036 165.396 245.843 165.913C241.65 166.429 238.669 170.247 239.185 174.44C239.702 178.633 243.52 181.614 247.713 181.098Z" fill="#455A64"/>
<path opacity="0.2" d="M254.417 173.529C254.417 175.005 253.991 176.45 253.188 177.689C252.386 178.928 251.242 179.908 249.895 180.512C248.548 181.115 247.055 181.316 245.596 181.09C244.137 180.864 242.775 180.221 241.674 179.238C240.572 178.255 239.779 176.975 239.389 175.551C238.999 174.127 239.029 172.621 239.476 171.214C239.923 169.808 240.768 168.56 241.908 167.622C243.048 166.685 244.435 166.097 245.901 165.93C244.896 166.334 244.011 166.99 243.333 167.835C242.654 168.68 242.203 169.685 242.024 170.754C241.845 171.823 241.944 172.919 242.311 173.939C242.678 174.959 243.3 175.867 244.119 176.577C244.938 177.287 245.925 177.775 246.987 177.993C248.048 178.212 249.148 178.154 250.181 177.826C251.214 177.497 252.145 176.909 252.885 176.117C253.625 175.326 254.149 174.357 254.407 173.305C254.415 173.379 254.419 173.454 254.417 173.529Z" fill="black"/>
<path opacity="0.2" d="M248.997 167.232C248.46 167.115 247.904 167.115 247.367 167.232C246.992 167.287 246.65 167.479 246.408 167.77C246.165 168.062 246.039 168.433 246.053 168.811C246.114 169.83 247.194 170.176 247.978 170.431L249.333 170.849C249.934 171.032 250.454 171.399 251.055 171.562C251.656 171.725 252.073 171.225 252.073 170.655C252.098 170.185 251.996 169.717 251.778 169.3C251.535 168.833 251.186 168.428 250.759 168.119C250.255 167.68 249.649 167.375 248.997 167.232Z" fill="white"/>
<path d="M100.758 132.001C94.0959 128.151 83.2883 128.151 76.6163 132.001C73.2854 133.926 71.6251 136.442 71.6352 138.968V141.841C71.6352 144.367 73.2752 146.934 76.6163 148.819C83.2781 152.669 94.0858 152.669 100.758 148.819C104.089 146.893 105.749 144.367 105.739 141.841V138.968C105.739 136.442 104.089 133.926 100.758 132.001Z" fill="#37474F"/>
<path opacity="0.2" d="M100.758 132.001C94.0959 128.151 83.2883 128.151 76.6163 132.001C73.2854 133.926 71.6251 136.442 71.6352 138.968V141.841C71.6352 144.367 73.2752 146.934 76.6163 148.819C83.2781 152.669 94.0858 152.669 100.758 148.819C104.089 146.893 105.749 144.367 105.739 141.841V138.968C105.739 136.442 104.089 133.926 100.758 132.001Z" fill="black"/>
<path opacity="0.2" d="M80.8549 130.225C79.3946 130.649 77.9894 131.244 76.6684 131.997C73.3374 133.922 71.6771 136.438 71.6873 138.964V141.837C71.6873 144.363 73.3273 146.93 76.6684 148.815C77.9894 149.568 79.3946 150.163 80.8549 150.587V130.225Z" fill="black"/>
<path d="M76.6163 132.001C83.2883 128.151 94.0959 128.151 100.758 132.001C107.42 135.851 107.42 142.085 100.758 145.936C94.0959 149.786 83.2781 149.786 76.6163 145.936C69.9544 142.085 69.9544 135.841 76.6163 132.001Z" fill="#37474F"/>
<path opacity="0.4" d="M76.6163 132.001C83.2883 128.151 94.0959 128.151 100.758 132.001C107.42 135.851 107.42 142.085 100.758 145.936C94.0959 149.786 83.2781 149.786 76.6163 145.936C69.9544 142.085 69.9544 135.841 76.6163 132.001Z" fill="black"/>
<path d="M88.6769 125.336C72.3789 125.336 70.2398 132.354 70.2398 135.981C70.2398 139.607 72.4502 142.612 76.9933 145.24C80.6131 147.062 84.6092 148.011 88.6616 148.011C92.714 148.011 96.7102 147.062 100.33 145.24C104.883 142.612 107.083 139.607 107.083 135.981C107.083 132.354 104.995 125.336 88.6769 125.336Z" fill="#37474F"/>
<path opacity="0.1" d="M94.7672 140.048H94.4616C93.2495 140.211 91.0187 140.048 90.0306 141.067C88.3703 142.666 90.6622 144.051 92.0679 144.489C94.4687 145.145 97.0255 144.914 99.2696 143.837C101.199 142.978 102.839 141.581 103.996 139.814C104.434 139.06 105.279 136.85 104.169 136.34C103.866 136.211 103.529 136.184 103.21 136.263C102.89 136.342 102.605 136.523 102.397 136.778C101.851 137.226 101.272 137.631 100.665 137.991C100.133 138.357 99.5708 138.677 98.9843 138.948C97.6365 139.509 96.2172 139.879 94.7672 140.048Z" fill="white"/>
<path opacity="0.1" d="M86.6906 137.938C96.3166 138.804 103.07 134.964 105.443 130.808C103.325 127.935 98.6594 125.297 88.6769 125.297C72.3789 125.297 70.2398 132.315 70.2398 135.941C70.2398 139.568 72.4502 142.573 76.9933 145.201C80.6131 147.023 84.6092 147.972 88.6616 147.972C92.714 147.972 96.7102 147.023 100.33 145.201C101.305 144.644 102.235 144.01 103.111 143.306C99.6781 145.69 94.0043 147.472 86.6702 146.362C79.3361 145.252 76.6469 137.031 86.6906 137.938Z" fill="black"/>
<path opacity="0.1" d="M80.8538 134.942L79.9676 126.232C71.5741 128.27 70.2805 133.149 70.2805 135.981C70.2805 139.607 72.4909 142.612 77.034 145.24L77.4822 145.464C72.4196 142.215 75.5264 133.404 80.8538 134.942Z" fill="black"/>
<path d="M100.727 116.13C94.0755 112.29 83.2984 112.29 76.6468 116.13C73.326 118.045 71.6759 120.561 71.6759 123.077C71.6759 123.556 71.6759 126.367 71.6759 126.846C71.6759 129.362 73.3159 131.878 76.6468 133.803C83.2984 137.644 94.0755 137.644 100.727 133.803C104.048 131.878 105.698 129.362 105.688 126.846V123.077C105.698 120.561 104.048 118.045 100.727 116.13Z" fill="#37474F"/>
<path opacity="0.2" d="M100.727 116.13C94.0755 112.29 83.2984 112.29 76.6468 116.13C73.326 118.045 71.6759 120.561 71.6759 123.077C71.6759 123.556 71.6759 126.367 71.6759 126.846C71.6759 129.362 73.3159 131.878 76.6468 133.803C83.2984 137.644 94.0755 137.644 100.727 133.803C104.048 131.878 105.698 129.362 105.688 126.846V123.077C105.698 120.561 104.048 118.045 100.727 116.13Z" fill="black"/>
<path opacity="0.2" d="M76.6468 133.802C77.8183 134.459 79.0539 134.995 80.3342 135.401V114.52C79.0519 114.925 77.8159 115.464 76.6468 116.129C73.326 118.044 71.6759 120.56 71.6759 123.076C71.6759 123.555 71.6759 126.366 71.6759 126.845C71.6861 129.361 73.3159 131.877 76.6468 133.802Z" fill="black"/>
<path d="M76.6481 116.13C83.2997 112.29 94.0768 112.29 100.728 116.13C107.38 119.97 107.37 126.184 100.728 130.024C94.087 133.864 83.2997 133.864 76.6481 130.024C69.9965 126.184 69.9965 119.96 76.6481 116.13Z" fill="#455A64"/>
<path d="M104.111 120.12C101.982 115.76 96.624 102.62 96.624 81.0859H80.7334C80.7334 102.62 75.3754 115.719 73.2567 120.12C71.9529 122.962 73.3382 126.079 77.4229 128.269C83.6365 131.63 93.7209 131.63 99.9243 128.269C104.029 126.079 105.405 122.962 104.111 120.12Z" fill="#37474F"/>
<path opacity="0.1" d="M96.1329 95.3105C96.8859 102.118 98.3435 108.83 100.482 115.337C101.868 119.554 103.895 122.467 101.236 125.054C98.5776 127.642 92.0686 128.487 92.0686 128.487C94.4191 127.619 96.5908 126.328 98.4758 124.678C101.196 122.141 99.5657 118.474 98.761 115.337C97.4062 110.254 95.6338 102.319 96.1329 95.3105Z" fill="white"/>
<path opacity="0.1" d="M90.7642 130.744C89.3993 130.214 86.5981 129.247 88.727 118.826C90.8559 108.405 90.7642 91.9852 90.7642 81.0859H80.8123C80.8123 102.62 75.4543 115.719 73.3355 120.12C72.0317 122.962 73.4171 126.079 77.5017 128.269C81.6171 130.279 86.2009 131.134 90.7642 130.744Z" fill="black"/>
<path opacity="0.1" d="M81.4974 113.448C83.3513 106.47 83.9115 92.1177 83.9523 81.0859H80.7334C80.7334 102.62 75.3754 115.719 73.2567 120.12C71.9529 122.962 73.3382 126.079 77.4229 128.269C78.5298 128.847 79.6895 129.318 80.8862 129.674C75.7625 126.547 79.562 120.71 81.4974 113.448Z" fill="black"/>
<path d="M97.5389 69.4463C92.6495 66.6247 84.7246 66.6247 79.8352 69.4463C77.3905 70.852 76.1783 72.7059 76.1783 74.5394V79.0825C76.1783 80.9262 77.3803 82.7801 79.8352 84.1756C84.7246 86.9972 92.6495 86.9972 97.5389 84.1756C99.9836 82.7597 101.196 80.9058 101.196 79.0825V74.5394C101.226 72.7059 99.9836 70.8622 97.5389 69.4463Z" fill="#37474F"/>
<path opacity="0.2" d="M97.5389 69.4463C92.6495 66.6247 84.7246 66.6247 79.8352 69.4463C77.3905 70.852 76.1783 72.7059 76.1783 74.5394V79.0825C76.1783 80.9262 77.3803 82.7801 79.8352 84.1756C84.7246 86.9972 92.6495 86.9972 97.5389 84.1756C99.9836 82.7597 101.196 80.9058 101.196 79.0825V74.5394C101.226 72.7059 99.9836 70.8622 97.5389 69.4463Z" fill="black"/>
<path opacity="0.2" d="M87.2101 67.3906C84.6306 67.5113 82.1108 68.2074 79.8352 69.4279C77.3905 70.8336 76.1783 72.6875 76.1783 74.521V79.0641C76.1783 80.9078 77.3803 82.7617 79.8352 84.1572C82.1108 85.3777 84.6306 86.0737 87.2101 86.1945V67.3906Z" fill="black"/>
<path d="M79.8339 69.4463C84.7233 66.6247 92.6482 66.6247 97.5376 69.4463C102.427 72.2679 102.427 76.8415 97.5376 79.6325C92.6482 82.4236 84.7233 82.4541 79.8339 79.6325C74.9445 76.8109 74.9445 72.2679 79.8339 69.4463Z" fill="#455A64"/>
<path d="M99.1899 52.0896C93.3838 48.7384 83.9717 48.7384 78.1655 52.0896C74.8244 54.0148 73.4187 56.6327 73.9178 59.1385L77.646 74.0716C77.8768 74.8884 78.2786 75.6468 78.8248 76.2966C79.3709 76.9464 80.049 77.4726 80.8139 77.8405C83.2511 79.0763 85.9451 79.7203 88.6777 79.7203C91.4103 79.7203 94.1044 79.0763 96.5415 77.8405C97.3064 77.4726 97.9845 76.9464 98.5306 76.2966C99.0768 75.6468 99.4786 74.8884 99.7094 74.0716L103.438 59.1793C103.947 56.6327 102.541 54.0148 99.1899 52.0896Z" fill="#37474F"/>
<path opacity="0.1" d="M100.207 52.6777C99.3925 59.4312 97.6507 69.9231 96.6524 77.7359C97.4043 77.3652 98.0702 76.8409 98.607 76.197C99.1439 75.5531 99.5399 74.8039 99.7694 73.9976L103.498 59.1053C103.895 56.8847 102.795 54.552 100.207 52.6777Z" fill="white"/>
<path opacity="0.1" d="M81.4976 50.6426C80.3423 51.0007 79.2289 51.4822 78.1768 52.0788C74.8357 54.004 73.43 56.6219 73.9292 59.1277L77.6472 74.071C77.878 74.8878 78.2798 75.6462 78.826 76.296C79.3721 76.9458 80.0501 77.472 80.8151 77.8399C81.7901 78.3796 82.831 78.7904 83.9117 79.0622L81.4976 50.6426Z" fill="black"/>
<path d="M78.1744 52.0896C83.9806 48.7384 93.3927 48.7384 99.1989 52.0896C105.005 55.4409 105.005 60.8702 99.1989 64.2215C93.3927 67.5727 83.9806 67.5727 78.1744 64.2215C72.3683 60.8702 72.3683 55.4409 78.1744 52.0896Z" fill="#455A64"/>
<path d="M97.4869 62.4854C92.6281 65.2867 84.7439 65.2867 79.885 62.4854C77.0838 60.8658 75.9022 58.6859 76.3199 56.5774L79.4368 44.9345C79.6339 44.2527 79.9713 43.6196 80.4274 43.0758C80.8835 42.532 81.4482 42.0895 82.0853 41.7768C84.1263 40.7422 86.3824 40.2031 88.6707 40.2031C90.959 40.2031 93.215 40.7422 95.2561 41.7768C95.8951 42.0884 96.4618 42.5304 96.9197 43.0742C97.3775 43.6181 97.7165 44.2517 97.9147 44.9345L101.032 56.5774C101.46 58.6758 100.288 60.8251 97.4869 62.4854Z" fill="#37474F"/>
<path opacity="0.1" d="M98.2938 61.9652C97.6113 56.3017 96.1546 48.3462 95.3194 41.8066C95.9457 42.1205 96.5006 42.5602 96.9493 43.0983C97.398 43.6364 97.7308 44.2612 97.927 44.9338L101.044 56.5767C101.421 58.4612 100.504 60.4169 98.2938 61.9652Z" fill="white"/>
<path opacity="0.1" d="M82.6557 63.689C81.6919 63.3884 80.763 62.9855 79.885 62.4871C77.0838 60.8674 75.9022 58.6876 76.3199 56.579L79.4368 44.9361C79.6339 44.2543 79.9713 43.6212 80.4274 43.0774C80.8835 42.5336 81.4482 42.0912 82.0853 41.7784C82.9085 41.3312 83.7846 40.989 84.693 40.7598L82.6557 63.689Z" fill="black"/>
<path d="M82.0955 49.3962C84.1383 50.4308 86.3961 50.9699 88.686 50.9699C90.9759 50.9699 93.2337 50.4308 95.2765 49.3962C98.9232 47.2876 98.9232 43.8854 95.2765 41.7769C93.2337 40.7423 90.9759 40.2031 88.686 40.2031C86.3961 40.2031 84.1383 40.7423 82.0955 41.7769C78.4488 43.8854 78.4488 47.2876 82.0955 49.3962Z" fill="#455A64"/>
<path d="M95.7875 42.4911C95.7375 42.4497 95.6899 42.4055 95.6449 42.3586L95.4819 42.216C93.6308 40.5014 91.2007 39.5488 88.6775 39.5488C86.1543 39.5488 83.7242 40.5014 81.8731 42.216L81.6694 42.3994L81.5064 42.5522C79.7441 44.3552 80.1923 46.6878 82.8611 48.2259C84.6617 49.1347 86.6504 49.6082 88.6673 49.6082C90.6842 49.6082 92.6729 49.1347 94.4735 48.2259C97.1525 46.6267 97.6109 44.2737 95.7875 42.4911Z" fill="#37474F"/>
<path opacity="0.2" d="M92.3224 40.6289C93.5822 41.1894 95.0002 42.1407 95.633 43.0329C95.944 43.5798 96.0886 44.2057 96.0488 44.8336C96.0089 45.4616 95.7865 46.0642 95.4089 46.5675C95.7072 45.4582 95.58 44.2774 95.0523 43.257C94.3413 42.1954 93.4102 41.2991 92.3224 40.6289Z" fill="white"/>
<path opacity="0.1" d="M83.1057 46.4346C81.0684 44.5501 82.087 42.4212 83.5742 40.9238C82.9684 41.2813 82.4017 41.7013 81.8833 42.1767L81.6796 42.3601L81.5166 42.5129C79.7544 44.3159 80.2026 46.6485 82.8714 48.1866C84.6719 49.0954 86.6606 49.5689 88.6775 49.5689C90.6944 49.5689 92.6832 49.0954 94.4837 48.1866C94.9995 47.8973 95.4697 47.5335 95.8792 47.1069C95.7672 47.2087 94.8606 48.044 91.7334 48.3598C86.9662 48.8589 84.6438 47.881 83.1057 46.4346Z" fill="black"/>
<path d="M92.5678 27V31.482L96.4386 29.241V33.7128L92.5678 35.9537V43.0128L88.6868 45.2538V38.1947L84.8059 40.4255V35.9537L88.6868 33.7128V29.241L92.5678 27Z" fill="#455A64"/>
<path d="M88.6868 45.2544L84.8059 43.0134V40.4261L88.6868 38.1953V45.2544Z" fill="#263238"/>
<path d="M84.8071 35.95L80.9363 33.709V38.1909L84.8071 40.4217V35.95Z" fill="#37474F"/>
<path d="M88.6881 33.7113L84.8071 31.4805L80.9363 33.7113L84.8071 35.9522L88.6881 33.7113Z" fill="#455A64"/>
<path opacity="0.2" d="M88.6881 33.7113L84.8071 31.4805L80.9363 33.7113L84.8071 35.9522L88.6881 33.7113Z" fill="white"/>
<path d="M88.6868 29.241L84.8059 27V31.482L88.6868 33.7128V29.241Z" fill="#37474F"/>
<path d="M92.5678 26.9988L88.6868 24.7578L84.8059 26.9988L88.6868 29.2398L92.5678 26.9988Z" fill="#455A64"/>
<path opacity="0.2" d="M92.5678 26.9988L88.6868 24.7578L84.8059 26.9988L88.6868 29.2398L92.5678 26.9988Z" fill="white"/>
<path d="M96.4401 29.241L92.5693 27V31.482L96.4401 29.241Z" fill="#455A64"/>
<path opacity="0.2" d="M96.4401 29.241L92.5693 27V31.482L96.4401 29.241Z" fill="white"/>
</svg>
