<svg width="44" height="44" viewBox="0 0 44 44" fill="none" xmlns="http://www.w3.org/2000/svg">
<path d="M0 6C0 2.68629 2.68629 0 6 0H22V44H6C2.68629 44 0 41.3137 0 38V6Z" fill="url(#paint0_linear_2539_10667)"/>
<path d="M44 6C44 2.68629 41.3137 0 38 0H22V44H38C41.3137 44 44 41.3137 44 38V6Z" fill="url(#paint1_linear_2539_10667)"/>
<path d="M3.38477 29.6155H15.0893V27.1669H3.38477V29.6155ZM12.5061 15.442L13.05 15.7436C14.2938 13.9634 15.4432 14.4438 15.4432 14.4438L14.5997 16.6067L15.9902 17.3821L16.1022 18.7289L18.6155 23.167L16.9164 24.3657C16.9164 24.3657 15.87 22.8806 15.3695 22.5839C14.9536 22.339 13.7613 22.1656 13.178 22.0941L10.5429 18.9554L10.0747 19.3864L11.5241 21.113C11.5191 21.1204 11.5144 21.1282 11.5093 21.1363C10.1133 23.5103 12.4066 25.4496 14.1815 26.5143H4.29499C4.64067 13.6214 12.5061 15.442 12.5061 15.442Z" fill="url(#paint2_linear_2539_10667)"/>
<path d="M40.6152 29.6155H28.9107V27.1669H40.6152V29.6155ZM31.4939 15.442L30.95 15.7436C29.7062 13.9634 28.5568 14.4438 28.5568 14.4438L29.4003 16.6067L28.0098 17.3821L27.8978 18.7289L25.3845 23.167L27.0836 24.3657C27.0836 24.3657 28.13 22.8806 28.6305 22.5839C29.0464 22.339 30.2387 22.1656 30.822 22.0941L33.4571 18.9554L33.9253 19.3864L32.4759 21.113C32.4809 21.1204 32.4856 21.1282 32.4907 21.1363C33.8867 23.5103 31.5934 25.4496 29.8185 26.5143H39.705C39.3593 13.6214 31.4939 15.442 31.4939 15.442Z" fill="url(#paint3_linear_2539_10667)"/>
<defs>
<linearGradient id="paint0_linear_2539_10667" x1="11" y1="0" x2="11" y2="44" gradientUnits="userSpaceOnUse">
<stop stop-color="#0A0C32"/>
<stop offset="1" stop-color="#1E2385"/>
</linearGradient>
<linearGradient id="paint1_linear_2539_10667" x1="33" y1="0" x2="33" y2="44" gradientUnits="userSpaceOnUse">
<stop stop-color="#E9591F"/>
<stop offset="1" stop-color="#FF7A44"/>
</linearGradient>
<linearGradient id="paint2_linear_2539_10667" x1="11.0002" y1="14.3848" x2="11.0002" y2="29.6155" gradientUnits="userSpaceOnUse">
<stop stop-color="#FF7A44"/>
<stop offset="1" stop-color="#E9591F"/>
</linearGradient>
<linearGradient id="paint3_linear_2539_10667" x1="32.9998" y1="14.3848" x2="32.9998" y2="29.6155" gradientUnits="userSpaceOnUse">
<stop stop-color="#1E2385"/>
<stop offset="1" stop-color="#0A0C32"/>
</linearGradient>
</defs>
</svg>
