<svg width="16" height="35" viewBox="0 0 16 35" fill="none" xmlns="http://www.w3.org/2000/svg">
<path d="M13.2756 26.1827C10.3807 24.4547 5.68452 24.4547 2.78957 26.1827C1.3446 27.0442 0.627136 28.1806 0.627136 29.2963V30.5884C0.627136 31.7249 1.33958 32.8562 2.78957 33.702C5.68452 35.43 10.3807 35.43 13.2756 33.702C14.7256 32.8354 15.4431 31.7041 15.438 30.5884V29.2963C15.438 28.1547 14.7206 27.0234 13.2756 26.1827Z" fill="#EBEBEB"/>
<path opacity="0.2" d="M13.2756 26.1827C10.3807 24.4547 5.68452 24.4547 2.78957 26.1827C1.3446 27.0442 0.627136 28.1806 0.627136 29.2963V30.5884C0.627136 31.7249 1.33958 32.8562 2.78957 33.702C5.68452 35.43 10.3807 35.43 13.2756 33.702C14.7256 32.8354 15.4431 31.7041 15.438 30.5884V29.2963C15.438 28.1547 14.7206 27.0234 13.2756 26.1827Z" fill="black"/>
<path opacity="0.2" d="M4.60581 25.3594C3.97271 25.564 3.36355 25.8407 2.78957 26.1845C1.3446 27.0459 0.627136 28.1823 0.627136 29.298V30.5902C0.627136 31.7266 1.33958 32.8579 2.78957 33.7037C3.36465 34.0386 3.97377 34.3066 4.60581 34.5029V25.3594Z" fill="black"/>
<path d="M2.78974 26.1827C5.6847 24.4547 10.3808 24.4547 13.2758 26.1827C16.1707 27.9108 16.1707 30.713 13.2758 32.441C10.3808 34.1691 5.6847 34.1691 2.78974 32.441C-0.105208 30.713 -0.105208 27.8848 2.78974 26.1827Z" fill="#EBEBEB"/>
<path opacity="0.4" d="M2.78974 26.1827C5.6847 24.4547 10.3808 24.4547 13.2758 26.1827C16.1707 27.9108 16.1707 30.713 13.2758 32.441C10.3808 34.1691 5.6847 34.1691 2.78974 32.441C-0.105208 30.713 -0.105208 27.8848 2.78974 26.1827Z" fill="black"/>
<path d="M8.02756 23.1719C0.938195 23.1719 -3.05176e-05 26.3218 -3.05176e-05 27.9512C-3.05176e-05 29.5806 0.958263 30.9299 2.93506 32.1026C4.50599 32.9248 6.24188 33.3532 8.00248 33.3532C9.76307 33.3532 11.499 32.9248 13.0699 32.1026C15.0467 30.9247 16 29.5755 16 27.9512C16 26.327 15.1119 23.1719 8.02756 23.1719Z" fill="#EBEBEB"/>
<path opacity="0.1" d="M10.6717 29.7761H10.5412C10.0395 29.8539 9.03607 29.776 8.61964 30.2171C7.89716 30.9332 8.89057 31.556 9.51271 31.7739C10.5559 32.0635 11.6649 31.9567 12.6385 31.4729C13.4752 31.0885 14.1875 30.4635 14.6905 29.6723C14.8812 29.3298 15.2474 28.3386 14.7658 28.1155C14.6341 28.0602 14.4889 28.0495 14.3509 28.085C14.213 28.1204 14.0895 28.2001 13.9981 28.3127C13.7612 28.5156 13.5096 28.6995 13.2455 28.8627C13.0123 29.0254 12.7674 29.1694 12.513 29.2934C11.9237 29.5412 11.304 29.7036 10.6717 29.7761Z" fill="white"/>
<path opacity="0.1" d="M7.1646 28.8282C11.344 29.2174 14.2791 27.4946 15.3076 25.642C14.3894 24.355 12.3675 23.1719 8.02756 23.1719C0.938195 23.1719 -3.05176e-05 26.3218 -3.05176e-05 27.9512C-3.05176e-05 29.5806 0.958263 30.9299 2.93506 32.1026C4.50599 32.9248 6.24188 33.3532 8.00248 33.3532C9.76307 33.3532 11.499 32.9248 13.0699 32.1026C13.4937 31.8519 13.898 31.5673 14.2791 31.2516C12.7739 32.3258 10.3204 33.1249 7.13449 32.6475C3.94854 32.1701 2.78956 28.4234 7.1646 28.8282Z" fill="black"/>
<path opacity="0.1" d="M4.61579 27.483L4.22444 23.5703C0.586936 24.4681 0.019989 26.6839 0.019989 27.9501C0.019989 29.5795 0.978282 30.9287 2.95508 32.1015L3.15075 32.2053C0.968248 30.7523 2.31789 26.7929 4.61579 27.483Z" fill="black"/>
<path d="M12.4479 20.2206C10.0095 18.7676 6.0559 18.7676 3.62253 20.2206C2.40334 20.9471 1.79625 21.9019 1.80127 22.8568V24.2838C1.80127 25.2386 2.39832 26.1935 3.61751 26.92C6.0559 28.3782 10.0095 28.3782 12.4428 26.92C13.6671 26.1935 14.2691 25.2386 14.2641 24.2838V22.8568C14.2691 21.9019 13.662 20.9471 12.4479 20.2206Z" fill="#EBEBEB"/>
<path opacity="0.2" d="M12.4479 20.2206C10.0095 18.7676 6.0559 18.7676 3.62253 20.2206C2.40334 20.9471 1.79625 21.9019 1.80127 22.8568V24.2838C1.80127 25.2386 2.39832 26.1935 3.61751 26.92C6.0559 28.3782 10.0095 28.3782 12.4428 26.92C13.6671 26.1935 14.2691 25.2386 14.2641 24.2838V22.8568C14.2691 21.9019 13.662 20.9471 12.4479 20.2206Z" fill="black"/>
<path opacity="0.2" d="M3.61791 26.9237C4.04834 27.1746 4.5022 27.3797 4.97256 27.536V19.6172C4.50361 19.7708 4.05132 19.9743 3.62293 20.2243C2.40373 20.9508 1.79665 21.9057 1.80166 22.8605V24.2875C1.78661 25.2424 2.39872 26.1868 3.61791 26.9237Z" fill="black"/>
<path d="M3.622 20.2206C6.05536 18.7676 10.009 18.7676 12.4473 20.2206C14.8857 21.6736 14.8807 24.0347 12.4473 25.4929C10.014 26.9511 6.06038 26.9459 3.622 25.4929C1.18362 24.0399 1.18362 21.6736 3.622 20.2206Z" fill="#F5F5F5"/>
<path d="M13.4056 21.1407C12.6681 19.3504 10.8016 15.5259 10.8016 10.7051H5.28268C5.28268 15.5571 3.41626 19.3504 2.67371 21.1407C2.22215 22.3083 2.70381 23.5849 4.12871 24.493C5.33028 25.1725 6.67774 25.5286 8.04718 25.5286C9.41662 25.5286 10.7641 25.1725 11.9656 24.493C13.3755 23.5901 13.8572 22.3083 13.4056 21.1407Z" fill="#EBEBEB"/>
<path opacity="0.1" d="M10.6111 10.9648C10.868 13.745 11.3719 16.4949 12.1163 19.1795C12.618 20.9075 13.3054 22.0855 12.3772 23.1648C11.449 24.2442 9.18625 24.5712 9.18625 24.5712C10.0206 24.206 10.7787 23.6774 11.4189 23.0144C12.3672 21.9765 11.8002 20.4716 11.5143 19.1847C11.0677 17.0934 10.4506 13.8397 10.6111 10.9648Z" fill="white"/>
<path opacity="0.1" d="M8.75463 25.4997C8.28301 25.2818 7.30464 24.8874 8.03214 20.6114C8.75964 16.3355 8.74459 15.1731 8.72954 10.7051H5.26262C5.26262 15.5415 3.39621 19.3504 2.65366 21.1407C2.20211 22.3083 2.68376 23.5849 4.10866 24.493C5.5198 25.3163 7.14264 25.6679 8.75463 25.4997Z" fill="black"/>
<path opacity="0.1" d="M5.52854 18.4021C6.17576 15.5428 6.36642 15.221 6.38147 10.7012H5.26262C5.26262 15.5532 3.39621 19.3465 2.65366 21.1368C2.20211 22.3044 2.68376 23.581 4.10866 24.4891C4.4886 24.7272 4.89233 24.922 5.3128 25.0703C3.5116 23.7782 4.85623 21.3859 5.52854 18.4021Z" fill="black"/>
<path d="M10.8425 8.69671C9.97209 8.23872 9.00937 8 8.03282 8C7.05627 8 6.09355 8.23872 5.22316 8.69671C4.90348 8.84449 4.62762 9.07766 4.42393 9.37224C4.22024 9.66683 4.09607 10.0122 4.06418 10.3729V11.447C4.09521 11.8086 4.21899 12.1551 4.42273 12.4506C4.62647 12.7462 4.90279 12.9802 5.22316 13.1284C6.09425 13.5839 7.0567 13.8213 8.03282 13.8213C9.00894 13.8213 9.97139 13.5839 10.8425 13.1284C11.1629 12.9802 11.4392 12.7462 11.6429 12.4506C11.8467 12.1551 11.9704 11.8086 12.0015 11.447V10.3729C11.9696 10.0122 11.8454 9.66683 11.6417 9.37224C11.438 9.07766 11.1622 8.84449 10.8425 8.69671Z" fill="#E0E0E0"/>
<path opacity="0.2" d="M7.56621 8.02344C6.74602 8.0669 5.94555 8.29915 5.22316 8.70323C4.90348 8.85102 4.62762 9.08419 4.42393 9.37877C4.22024 9.67335 4.09607 10.0187 4.06418 10.3794V11.4535C4.09521 11.8151 4.21899 12.1616 4.42273 12.4572C4.62647 12.7527 4.90279 12.9867 5.22316 13.1349C5.94652 13.5357 6.74665 13.7661 7.56621 13.8095V8.02344Z" fill="black"/>
<path d="M5.22378 8.69671C6.09417 8.23872 7.05689 8 8.03344 8C9.00999 8 9.97272 8.23872 10.8431 8.69671C12.3934 9.6204 12.3934 11.1253 10.8431 12.049C9.97272 12.507 9.00999 12.7457 8.03344 12.7457C7.05689 12.7457 6.09417 12.507 5.22378 12.049C3.67345 11.1357 3.67345 9.6204 5.22378 8.69671Z" fill="#F5F5F5"/>
<path d="M8.02769 6.87305C4.27479 6.87305 3.78812 8.544 3.78812 9.40542C3.78812 10.2668 4.28984 10.9622 5.33845 11.6109C6.17204 12.0444 7.09214 12.2702 8.02518 12.2702C8.95823 12.2702 9.87833 12.0444 10.7119 11.6109C11.7555 10.983 12.2622 10.2668 12.2622 9.40542C12.2622 8.544 11.7806 6.87305 8.02769 6.87305Z" fill="#EBEBEB"/>
<path opacity="0.1" d="M9.42665 10.3767H9.36142C9.08045 10.413 8.56368 10.3767 8.35797 10.605C7.97666 10.989 8.50347 11.3159 8.8597 11.4249C9.41244 11.5777 9.99983 11.5206 10.5154 11.264C10.96 11.0615 11.3383 10.7298 11.6041 10.3092C11.7045 10.1276 11.8951 9.60347 11.6393 9.47893C11.5691 9.45024 11.4919 9.44533 11.4189 9.46492C11.3458 9.4845 11.2807 9.52756 11.2329 9.5879C11.1081 9.69354 10.9756 9.78897 10.8365 9.87332C10.7146 9.96128 10.5853 10.0377 10.4502 10.1017C10.1241 10.2456 9.77916 10.3383 9.42665 10.3767Z" fill="white"/>
<path opacity="0.1" d="M7.57112 9.87245C9.78373 10.08 11.3391 9.16671 11.886 8.18594C11.3842 7.50095 10.3256 6.87305 8.02769 6.87305C4.27479 6.87305 3.78812 8.544 3.78812 9.40542C3.78812 10.2668 4.28984 10.9622 5.33845 11.6109C6.17204 12.0444 7.09214 12.2702 8.02518 12.2702C8.95822 12.2702 9.87833 12.0444 10.7119 11.6109C10.9352 11.4775 11.1482 11.3266 11.3491 11.1594C10.2228 11.8888 8.87183 12.152 7.5661 11.8963C5.88532 11.6524 5.25817 9.65969 7.57112 9.87245Z" fill="black"/>
<path opacity="0.1" d="M6.22148 9.16556L6.01578 7.08984C4.08414 7.56726 3.78812 8.73485 3.78812 9.40946C3.78812 10.2709 4.28984 10.9662 5.33845 11.6149L5.44381 11.6668C4.29486 10.8936 5.00229 8.79712 6.22148 9.16556Z" fill="black"/>
<path d="M10.8425 4.65778C9.97139 4.20221 9.00894 3.96484 8.03282 3.96484C7.0567 3.96484 6.09425 4.20221 5.22316 4.65778C4.45051 5.12482 4.06418 5.72678 4.06418 6.33393V7.41329C4.09504 7.77427 4.21881 8.12011 4.42263 8.41487C4.62644 8.70963 4.90286 8.94256 5.22316 9.08944C6.09355 9.54743 7.05627 9.78617 8.03282 9.78617C9.00937 9.78617 9.97209 9.54743 10.8425 9.08944C11.1628 8.94256 11.4392 8.70963 11.643 8.41487C11.8468 8.12011 11.9706 7.77427 12.0015 7.41329V6.33393C11.9661 5.97436 11.8405 5.63058 11.6373 5.3366C11.434 5.04262 11.16 4.80863 10.8425 4.65778Z" fill="#E0E0E0"/>
<path opacity="0.2" d="M7.56621 3.98438C6.74665 4.02778 5.94652 4.25815 5.22316 4.65898C4.45051 5.12601 4.06418 5.72798 4.06418 6.33512V7.41449C4.09504 7.77546 4.21881 8.1213 4.42263 8.41606C4.62644 8.71082 4.90286 8.94375 5.22316 9.09063C5.94555 9.49472 6.74602 9.72696 7.56621 9.77043V3.98438Z" fill="black"/>
<path d="M5.22378 4.65778C6.09487 4.20221 7.05732 3.96484 8.03344 3.96484C9.00956 3.96484 9.97201 4.20221 10.8431 4.65778C12.3934 5.58667 12.3934 7.08637 10.8431 8.01525C9.97201 8.47083 9.00956 8.70821 8.03344 8.70821C7.05732 8.70821 6.09487 8.47083 5.22378 8.01525C3.67345 7.08637 3.67345 5.58667 5.22378 4.65778Z" fill="#F5F5F5"/>
<path d="M11.8204 3.89714C11.8204 4.66793 11.5994 5.4214 11.1854 6.06229C10.7713 6.70317 10.1829 7.20269 9.49437 7.49766C8.80587 7.79262 8.04826 7.8698 7.31735 7.71943C6.58643 7.56906 5.91505 7.19789 5.38809 6.65286C4.86113 6.10783 4.50227 5.41343 4.35689 4.65745C4.2115 3.90148 4.28612 3.11789 4.5713 2.40578C4.85649 1.69367 5.33944 1.08501 5.95907 0.656785C6.57871 0.22856 7.30721 0 8.05244 0C9.05176 0 10.0102 0.410585 10.7168 1.14144C11.4234 1.8723 11.8204 2.86355 11.8204 3.89714Z" fill="#EBEBEB"/>
<path opacity="0.2" d="M11.8204 3.8966C11.8206 4.6486 11.6104 5.38461 11.2152 6.01583C10.8199 6.64705 10.2566 7.14652 9.59309 7.454C8.92957 7.76149 8.1942 7.86384 7.47569 7.74873C6.75718 7.63363 6.08622 7.30597 5.54373 6.80528C5.00123 6.30459 4.61038 5.65226 4.41832 4.92696C4.22626 4.20166 4.24119 3.43439 4.46131 2.71767C4.68143 2.00095 5.09734 1.3654 5.65887 0.887685C6.2204 0.409976 6.90357 0.110505 7.62597 0.0253906C7.13118 0.231655 6.69587 0.565861 6.36176 0.996007C6.02764 1.42615 5.80591 1.93783 5.71779 2.48202C5.62968 3.02621 5.67813 3.58468 5.85851 4.10394C6.0389 4.62321 6.34517 5.08587 6.74799 5.44762C7.15081 5.80937 7.63668 6.05808 8.15908 6.16993C8.68148 6.28179 9.22289 6.25305 9.73147 6.08644C10.24 5.91984 10.6987 5.62098 11.0636 5.21846C11.4285 4.81595 11.6874 4.32327 11.8154 3.78763C11.8195 3.82378 11.8212 3.86019 11.8204 3.8966Z" fill="black"/>
<path opacity="0.2" d="M9.13056 0.695148C8.86636 0.632867 8.592 0.632867 8.3278 0.695148C8.14352 0.72423 7.97591 0.822122 7.85665 0.970323C7.7374 1.11852 7.67477 1.30676 7.68058 1.49948C7.71068 2.01841 8.24251 2.19484 8.62884 2.32458L9.29613 2.53734C9.59215 2.63075 9.84803 2.81757 10.144 2.9006C10.4401 2.98362 10.6458 2.72934 10.6458 2.43874C10.6575 2.19998 10.6091 1.96217 10.5053 1.74857C10.3851 1.51065 10.2134 1.30464 10.0036 1.14661C9.75398 0.922458 9.45369 0.767164 9.13056 0.695148Z" fill="white"/>
</svg>
