<svg width="42" height="25" viewBox="0 0 42 25" fill="none" xmlns="http://www.w3.org/2000/svg">
<g clip-path="url(#clip0_2203_13611)">
<path d="M28.5 3.3125C25.3639 3.3125 22.8125 5.86395 22.8125 9C22.8125 12.1361 25.3639 14.6875 28.5 14.6875C31.6361 14.6875 34.1875 12.1361 34.1875 9C34.1875 5.86395 31.6361 3.3125 28.5 3.3125ZM32.4102 11.625H31.1737C31.1354 11.6249 31.0977 11.6148 31.0646 11.5956C31.0314 11.5764 31.0039 11.5488 30.9847 11.5156L30.5434 10.7588C30.5143 10.7093 30.5059 10.6503 30.5199 10.5947L30.9262 8.95625C30.9344 8.92324 30.9501 8.89258 30.9722 8.86671C30.9942 8.84084 31.022 8.82047 31.0534 8.80723L31.8217 8.48184C31.8593 8.46591 31.9005 8.46081 31.9408 8.46709C31.9811 8.47337 32.0188 8.49079 32.0498 8.51738L33.1881 9.49684C33.2161 9.521 33.2376 9.55188 33.2505 9.5866C33.2633 9.62132 33.2672 9.65874 33.2616 9.69535C33.1674 10.3421 32.9414 10.9627 32.5977 11.5186C32.5783 11.5511 32.5508 11.5779 32.518 11.5965C32.4851 11.6152 32.4479 11.625 32.4102 11.625ZM25.1783 8.48402L25.9466 8.80941C25.978 8.82266 26.0058 8.84303 26.0278 8.8689C26.0499 8.89477 26.0656 8.92542 26.0738 8.95844L26.4801 10.5969C26.4941 10.6525 26.4857 10.7115 26.4566 10.7609L26.0153 11.5156C25.9961 11.5488 25.9686 11.5764 25.9354 11.5956C25.9023 11.6148 25.8646 11.6249 25.8263 11.625H24.5898C24.5524 11.625 24.5157 11.6155 24.483 11.5972C24.4504 11.579 24.4229 11.5527 24.4034 11.5208C24.0597 10.9649 23.8337 10.3443 23.7395 9.69754C23.7339 9.66093 23.7378 9.62351 23.7506 9.58879C23.7635 9.55407 23.7849 9.52318 23.813 9.49902L24.9513 8.51957C24.9821 8.49318 25.0197 8.47589 25.0598 8.46961C25.0998 8.46333 25.1409 8.46832 25.1783 8.48402V8.48402ZM32.204 6.09855L31.7099 7.50348C31.7 7.53219 31.6842 7.55852 31.6635 7.58079C31.6428 7.60305 31.6177 7.62077 31.5898 7.63281L30.781 7.97543C30.7439 7.99113 30.7032 7.99628 30.6633 7.99029C30.6235 7.98431 30.586 7.96743 30.5552 7.94152L29.0168 6.65117C28.9922 6.63083 28.9724 6.60537 28.9587 6.57655C28.945 6.54774 28.9378 6.51628 28.9375 6.48438V5.56617C28.9375 5.5302 28.9464 5.49478 28.9634 5.46306C28.9804 5.43134 29.0049 5.4043 29.0348 5.38434L30.206 4.60395C30.2365 4.58354 30.2718 4.57117 30.3084 4.56797C30.345 4.56477 30.3818 4.57084 30.4154 4.58562C31.0893 4.87953 31.6873 5.32316 32.1641 5.88281C32.1891 5.91207 32.206 5.94743 32.213 5.98532C32.22 6.0232 32.2169 6.06226 32.204 6.09855V6.09855ZM26.7938 4.60395L27.9652 5.38434C27.9951 5.4043 28.0196 5.43134 28.0366 5.46306C28.0536 5.49478 28.0625 5.5302 28.0625 5.56617V6.48438C28.0625 6.51633 28.0555 6.5479 28.042 6.57686C28.0285 6.60581 28.0088 6.63146 27.9843 6.65199L26.4459 7.94234C26.4151 7.96825 26.3776 7.98513 26.3378 7.99111C26.2979 7.9971 26.2572 7.99195 26.2201 7.97625L25.4102 7.63281C25.3821 7.62093 25.3568 7.60331 25.336 7.58108C25.3151 7.55885 25.2991 7.53251 25.289 7.50375L24.7949 6.09883C24.7821 6.06241 24.7791 6.02323 24.7863 5.98529C24.7935 5.94735 24.8106 5.91199 24.8359 5.88281C25.3129 5.3226 25.9115 4.87858 26.5859 4.58453C26.6195 4.5702 26.656 4.56446 26.6923 4.56786C26.7286 4.57125 26.7635 4.58365 26.7938 4.60395V4.60395ZM27.2671 13.5579L26.7276 12.1992C26.7152 12.1683 26.7101 12.135 26.7126 12.1019C26.715 12.0687 26.725 12.0365 26.7418 12.0078L27.1566 11.2969C27.1758 11.2637 27.2033 11.2361 27.2365 11.2169C27.2696 11.1977 27.3072 11.1876 27.3455 11.1875H29.6545C29.6928 11.1876 29.7304 11.1977 29.7635 11.2169C29.7967 11.2361 29.8242 11.2637 29.8434 11.2969L30.2585 12.0078C30.2753 12.0365 30.2853 12.0687 30.2878 12.1018C30.2904 12.135 30.2853 12.1683 30.273 12.1992L29.7373 13.5574C29.7242 13.5906 29.7032 13.6201 29.6761 13.6433C29.6489 13.6665 29.6165 13.6827 29.5817 13.6905C28.8709 13.8537 28.1324 13.8537 27.4216 13.6905C27.387 13.6826 27.3549 13.6664 27.3279 13.6433C27.301 13.6202 27.2801 13.5909 27.2671 13.5579V13.5579Z" fill="#F47F4F"/>
<g clip-path="url(#clip1_2203_13611)">
<path d="M19.0588 3L17.8088 3.0025C17.7261 3.00283 17.647 3.0359 17.5886 3.09447C17.5303 3.15304 17.4976 3.23234 17.4976 3.315V7.5225C17.4976 7.82563 17.3926 8.205 17.2157 8.47875C17.0388 8.75188 16.8219 8.90625 16.5601 8.90563C16.4772 8.90563 16.3977 8.93855 16.3391 8.99716C16.2805 9.05576 16.2476 9.13525 16.2476 9.21813V21.7644C16.2476 22.4838 16.9363 23 17.7063 23H18.8513C19.4101 23 19.8401 22.8925 20.1501 22.6731C20.4601 22.4531 20.6226 22.1063 20.6226 21.7644V9.21563C20.6226 9.13275 20.5896 9.05326 20.531 8.99466C20.4724 8.93605 20.3929 8.90313 20.3101 8.90313C19.9994 8.90313 19.8019 8.74563 19.6376 8.48C19.4738 8.215 19.3832 7.84875 19.3726 7.58125V3.3125C19.3726 3.27136 19.3644 3.23062 19.3487 3.19262C19.3329 3.15463 19.3097 3.12012 19.2806 3.09109C19.2514 3.06205 19.2168 3.03906 19.1788 3.02343C19.1407 3.0078 19.1 2.99984 19.0588 3V3ZM18.7476 3.625V7.58875C18.7605 8.0191 18.8836 8.43894 19.1051 8.80813C19.2926 9.11063 19.6151 9.33125 19.9976 9.43438V21.7644C19.9976 21.9338 19.9476 22.0488 19.7876 22.1625C19.6276 22.2763 19.3276 22.375 18.8513 22.375H17.7063C17.2063 22.375 16.8726 22.0675 16.8726 21.7644V9.43563C17.2332 9.3325 17.5438 9.11938 17.7394 8.81813C17.9871 8.43118 18.12 7.98192 18.1226 7.5225V3.6275L18.7476 3.625ZM18.4301 9.75563C18.3473 9.75694 18.2684 9.79105 18.2108 9.85046C18.1531 9.90987 18.1214 9.98973 18.1226 10.0725V20.3725C18.122 20.3994 18.125 20.4263 18.1313 20.4525L17.6188 20.9306C17.5887 20.9586 17.5644 20.9922 17.5473 21.0295C17.5303 21.0668 17.5207 21.1072 17.5192 21.1482C17.5177 21.1892 17.5242 21.2302 17.5386 21.2686C17.5529 21.3071 17.5746 21.3424 17.6026 21.3725C17.6305 21.4026 17.6641 21.4269 17.7014 21.444C17.7388 21.4611 17.7791 21.4706 17.8201 21.4721C17.8612 21.4737 17.9021 21.4671 17.9406 21.4528C17.9791 21.4384 18.0144 21.4167 18.0444 21.3888L18.4426 21.0188L18.9113 21.425C18.9419 21.4542 18.9781 21.4768 19.0178 21.4916C19.0574 21.5064 19.0996 21.513 19.1418 21.5109C19.1841 21.5089 19.2255 21.4983 19.2635 21.4799C19.3015 21.4614 19.3354 21.4354 19.3631 21.4034C19.3908 21.3714 19.4117 21.3342 19.4246 21.2939C19.4375 21.2536 19.442 21.2111 19.438 21.169C19.434 21.1269 19.4214 21.0861 19.4012 21.049C19.3809 21.0119 19.3533 20.9793 19.3201 20.9531L18.7388 20.4488C18.7448 20.424 18.7477 20.3986 18.7476 20.3731V10.0731C18.7482 10.0312 18.7405 9.98966 18.7248 9.95083C18.7091 9.912 18.6857 9.87673 18.6561 9.84712C18.6265 9.8175 18.5912 9.79414 18.5524 9.77842C18.5135 9.7627 18.4719 9.75495 18.4301 9.75563V9.75563ZM25.1307 16.8119C24.5362 16.8649 23.9705 17.0917 23.5041 17.464C23.0376 17.8364 22.6911 18.3377 22.5076 18.9056C22.2621 19.6724 22.3306 20.5051 22.698 21.2215C23.0654 21.9378 23.7017 22.4794 24.4676 22.7275C26.0613 23.24 27.7776 22.3588 28.2901 20.7663C28.4423 20.2892 28.4744 19.782 28.3834 19.2896C28.2925 18.7971 28.0814 18.3348 27.7688 17.9436C27.4562 17.5524 27.0518 17.2445 26.5916 17.0472C26.1314 16.8499 25.6296 16.7692 25.1307 16.8125V16.8119ZM25.1832 17.4325C25.2407 17.4275 25.2994 17.4356 25.3582 17.435L25.2707 17.49L25.2432 17.5544L25.1051 18.0206L25.1613 18.3063L25.4301 18.4225L25.6763 18.2663L25.7032 18.2013L25.8407 17.7363L25.7901 17.4663C25.9057 17.4856 26.0213 17.5038 26.1363 17.5413C26.4381 17.6375 26.718 17.7925 26.9598 17.9972C27.2016 18.2019 27.4006 18.4524 27.5454 18.7342C27.6901 19.016 27.7778 19.3236 27.8034 19.6394C27.829 19.9552 27.792 20.2729 27.6944 20.5744C27.5412 21.0507 27.2429 21.4671 26.8412 21.7655C26.4396 22.0638 25.9547 22.2291 25.4544 22.2381L25.5357 22.1869L25.5638 22.1225L25.6788 21.7281L25.6226 21.4406L25.3551 21.325L25.1088 21.4813L25.0807 21.5463L24.9657 21.94L25.0169 22.2088C24.8982 22.19 24.7782 22.17 24.6594 22.1319C24.5526 22.0975 24.4557 22.0475 24.3569 22.0006L24.5801 21.8588L24.6082 21.795L24.7513 21.3238L24.6951 21.0369L24.4276 20.9213L24.1807 21.0775L24.1532 21.1419L24.0101 21.6131L24.0501 21.8244C23.6174 21.5344 23.2909 21.1115 23.1198 20.6195C22.9488 20.1276 22.9425 19.5933 23.1019 19.0975C23.2462 18.6458 23.5207 18.2467 23.891 17.9505C24.2613 17.6543 24.7108 17.4741 25.1832 17.4325V17.4325ZM26.4394 17.7988L26.1926 17.955L26.1644 18.0194L26.0169 18.48L26.0732 18.7669L26.3407 18.8825L26.5869 18.7263L26.6151 18.6619L26.7626 18.2L26.7076 17.9144L26.4388 17.7988H26.4394ZM25.1488 18.5594L24.9026 18.7156L24.8757 18.7788L24.6988 19.3475L24.7532 19.635L25.0219 19.7506L25.2688 19.5944L25.2969 19.5294L25.4719 18.9606L25.4176 18.6738L25.1488 18.5594V18.5594ZM26.0813 19.0119L25.8351 19.1694L25.8069 19.2331L25.6544 19.6763L25.7094 19.9631L25.9782 20.0788L26.2244 19.9225L26.2513 19.8581L26.4051 19.4144L26.3501 19.1281L26.0813 19.0119V19.0119ZM24.7069 19.8244L24.5169 19.9456L24.3351 20.5438L24.4519 20.72L24.6863 20.8163L24.9332 20.7256L25.1144 20.1275L25.0144 19.9338L24.7069 19.825V19.8244ZM25.7176 20.195L25.4713 20.3513L25.4444 20.4156L25.2907 20.8719L25.3457 21.1594L25.6144 21.275L25.8607 21.1175L25.8888 21.0544L26.0426 20.5981L25.9863 20.3106L25.7176 20.195V20.195Z" fill="#F47F4F"/>
</g>
<g clip-path="url(#clip2_2203_13611)">
<path d="M9.11372 19.9805C8.89841 20.4218 8.43593 20.6028 8.05336 20.5083C7.34946 20.3387 7.44468 19.6634 7.41015 19.4602C7.27809 18.6741 6.53269 18.1437 5.74482 18.2766C4.95947 18.4103 4.42914 19.1557 4.56291 19.9411C4.54585 19.9136 4.90366 22.8414 7.78478 23.0485C9.32704 23.1619 10.7641 22.2029 11.2239 20.7449L12.3202 17.3806L10.4262 16.6946L9.11372 19.9805ZM16.2262 3.69465C15.9381 3.57892 15.6129 3.71861 15.4971 4.00674L13.7649 8.34128L15.1055 8.82684L16.551 4.38842C16.642 4.10987 16.5027 3.80332 16.2262 3.69465Z" fill="#F47F4F"/>
<path d="M10.5673 16.3445L12.4386 17.0224L12.899 15.6058L11.1208 14.9617L10.5673 16.3445Z" fill="#F47F4F"/>
<path d="M11.8438 13.1508L13.5013 13.7512L13.9231 12.4571L12.3486 11.8869L11.8438 13.1508Z" fill="#F47F4F"/>
<path d="M13.0731 10.0751L14.5269 10.6017L14.9882 9.18688L13.6249 8.69309L13.0731 10.0751Z" fill="#F47F4F"/>
<path d="M12.4881 11.5355L14.0404 12.0978L14.4102 10.9632L12.9323 10.4278L12.4881 11.5355Z" fill="#F47F4F"/>
<path d="M11.2601 14.6097L13.0151 15.2454L13.3849 14.1108L11.7027 13.5015L11.2601 14.6097Z" fill="#F47F4F"/>
</g>
</g>
<defs>
<clipPath id="clip0_2203_13611">
<rect width="42" height="25" fill="white"/>
</clipPath>
<clipPath id="clip1_2203_13611">
<rect width="20" height="20" fill="white" transform="translate(12.5 3)"/>
</clipPath>
<clipPath id="clip2_2203_13611">
<rect width="17.7912" height="17.7912" fill="white" transform="translate(-0.5 9.54388) rotate(-25.0889)"/>
</clipPath>
</defs>
</svg>
