<!-- width="219" height="35" -->

<svg preserveAspectRatio="none" viewBox="0 0 219 35" fill="none" xmlns="http://www.w3.org/2000/svg">
<path d="M117.019 0.229004H49.1908L43.5437 3.62317H122.666L117.019 0.229004Z" fill="url(#paint0_linear_2069_13965)"/>
<path d="M157.77 1.92586L154.551 0H150.934L154.138 1.92586H157.77Z" fill="url(#paint1_linear_2069_13965)"/>
<path d="M150.93 1.92586L147.726 0H144.094L147.298 1.92586H150.93Z" fill="url(#paint2_linear_2069_13965)"/>
<path d="M144.097 1.92586L140.893 0H137.261L140.481 1.92586H144.097Z" fill="url(#paint3_linear_2069_13965)"/>
<path d="M137.256 1.92586L134.051 0H130.419L133.639 1.92586H137.256Z" fill="url(#paint4_linear_2069_13965)"/>
<path d="M130.421 1.92586L127.217 0H123.584L126.804 1.92586H130.421Z" fill="url(#paint5_linear_2069_13965)"/>
<path d="M199.36 0.963037C199.36 0.836606 199.443 0.71536 199.592 0.62596C199.741 0.53656 199.943 0.486328 200.153 0.486328C200.363 0.486328 200.565 0.53656 200.714 0.62596C200.863 0.71536 200.946 0.836606 200.946 0.963037C200.942 1.0887 200.857 1.20856 200.709 1.29744C200.561 1.38631 200.362 1.43731 200.153 1.43975C199.943 1.43975 199.741 1.38951 199.592 1.30011C199.443 1.21071 199.36 1.08947 199.36 0.963037ZM194.601 0.963037C194.601 0.836606 194.685 0.71536 194.833 0.62596C194.982 0.53656 195.184 0.486328 195.394 0.486328C195.605 0.486328 195.806 0.53656 195.955 0.62596C196.104 0.71536 196.187 0.836606 196.187 0.963037C196.183 1.0887 196.098 1.20856 195.95 1.29744C195.803 1.38631 195.603 1.43731 195.394 1.43975C195.184 1.43975 194.982 1.38951 194.833 1.30011C194.685 1.21071 194.601 1.08947 194.601 0.963037ZM189.842 0.963037C189.842 0.836606 189.926 0.71536 190.075 0.62596C190.223 0.53656 190.425 0.486328 190.635 0.486328C190.846 0.486328 191.048 0.53656 191.196 0.62596C191.345 0.71536 191.429 0.836606 191.429 0.963037C191.424 1.0887 191.34 1.20856 191.192 1.29744C191.044 1.38631 190.845 1.43731 190.635 1.43975C190.425 1.43975 190.223 1.38951 190.075 1.30011C189.926 1.21071 189.842 1.08947 189.842 0.963037ZM185.084 0.963037C185.084 0.836606 185.167 0.71536 185.316 0.62596C185.465 0.53656 185.666 0.486328 185.877 0.486328C186.087 0.486328 186.289 0.53656 186.438 0.62596C186.586 0.71536 186.67 0.836606 186.67 0.963037C186.666 1.0887 186.581 1.20856 186.433 1.29744C186.285 1.38631 186.086 1.43731 185.877 1.43975C185.666 1.43975 185.465 1.38951 185.316 1.30011C185.167 1.21071 185.084 1.08947 185.084 0.963037ZM180.325 0.963037C180.325 0.836606 180.408 0.71536 180.557 0.62596C180.706 0.53656 180.908 0.486328 181.118 0.486328C181.328 0.486328 181.53 0.53656 181.679 0.62596C181.828 0.71536 181.911 0.836606 181.911 0.963037C181.907 1.0887 181.822 1.20856 181.674 1.29744C181.526 1.38631 181.327 1.43731 181.118 1.43975C180.908 1.43975 180.706 1.38951 180.557 1.30011C180.408 1.21071 180.325 1.08947 180.325 0.963037ZM175.566 0.963037C175.566 0.836606 175.65 0.71536 175.798 0.62596C175.947 0.53656 176.149 0.486328 176.359 0.486328C176.57 0.486328 176.771 0.53656 176.92 0.62596C177.069 0.71536 177.152 0.836606 177.152 0.963037C177.148 1.0887 177.063 1.20856 176.916 1.29744C176.768 1.38631 176.568 1.43731 176.359 1.43975C176.149 1.43975 175.947 1.38951 175.798 1.30011C175.65 1.21071 175.566 1.08947 175.566 0.963037ZM170.807 0.963037C170.807 0.836606 170.891 0.71536 171.04 0.62596C171.188 0.53656 171.39 0.486328 171.6 0.486328C171.811 0.486328 172.013 0.53656 172.161 0.62596C172.31 0.71536 172.394 0.836606 172.394 0.963037C172.39 1.0887 172.305 1.20856 172.157 1.29744C172.009 1.38631 171.81 1.43731 171.6 1.43975C171.39 1.43975 171.188 1.38951 171.04 1.30011C170.891 1.21071 170.807 1.08947 170.807 0.963037ZM166.049 0.963037C166.049 0.836606 166.132 0.71536 166.281 0.62596C166.43 0.53656 166.631 0.486328 166.842 0.486328C167.052 0.486328 167.254 0.53656 167.403 0.62596C167.551 0.71536 167.635 0.836606 167.635 0.963037C167.631 1.0887 167.546 1.20856 167.398 1.29744C167.25 1.38631 167.051 1.43731 166.842 1.43975C166.631 1.43975 166.43 1.38951 166.281 1.30011C166.132 1.21071 166.049 1.08947 166.049 0.963037Z" fill="url(#paint6_linear_2069_13965)"/>
<path d="M168.046 32.9119L164.573 34.9999H167.872L171.362 32.9119H168.046Z" fill="url(#paint7_linear_2069_13965)"/>
<path d="M174.837 32.9119L171.363 34.9999H174.662L178.136 32.9119H174.837Z" fill="url(#paint8_linear_2069_13965)"/>
<path d="M181.627 32.9119L178.137 34.9999H181.453L184.926 32.9119H181.627Z" fill="url(#paint9_linear_2069_13965)"/>
<path d="M188.399 32.9119L184.925 34.9999H188.224L191.714 32.9119H188.399Z" fill="url(#paint10_linear_2069_13965)"/>
<path d="M195.188 32.9119L191.714 34.9999H195.013L198.487 32.9119H195.188Z" fill="url(#paint11_linear_2069_13965)"/>
<path d="M219 7.57021V3.62305H16.171L0 13.3479V19.3163L2.82483 21.0134V29.3558L0 31.0624V35H26.0261L28.851 33.3029H96.6933L99.5339 35H160.235L165.9 31.6058H213.335L219 28.2021V25.2847V19.3163L216.175 17.6097V9.26726L219 7.57021Z" fill="url(#paint12_linear_2069_13965)"/>

<defs>
<linearGradient id="paint0_linear_2069_13965" x1="116.59" y1="2.86045" x2="49.2405" y2="0.223923" gradientUnits="userSpaceOnUse">
<stop stop-color="#F97E4E"/>
<stop offset="1" stop-color="#E82C26"/>
</linearGradient>
<linearGradient id="paint1_linear_2069_13965" x1="0.00455048" y1="0.962932" x2="219.697" y2="0.962932" gradientUnits="userSpaceOnUse">
<stop offset="0.05" stop-color="#F97C4D"/>
<stop offset="1" stop-color="#E82E26"/>
</linearGradient>
<linearGradient id="paint2_linear_2069_13965" x1="-6.84007" y1="0.962932" x2="212.858" y2="0.962932" gradientUnits="userSpaceOnUse">
<stop offset="0.05" stop-color="#F97C4D"/>
<stop offset="1" stop-color="#E82E26"/>
</linearGradient>
<linearGradient id="paint3_linear_2069_13965" x1="-13.6685" y1="0.962932" x2="206.024" y2="0.962932" gradientUnits="userSpaceOnUse">
<stop offset="0.05" stop-color="#F97C4D"/>
<stop offset="1" stop-color="#E82E26"/>
</linearGradient>
<linearGradient id="paint4_linear_2069_13965" x1="-20.5149" y1="0.962932" x2="199.183" y2="0.962932" gradientUnits="userSpaceOnUse">
<stop offset="0.05" stop-color="#F97C4D"/>
<stop offset="1" stop-color="#E82E26"/>
</linearGradient>
<linearGradient id="paint5_linear_2069_13965" x1="-27.3448" y1="0.962932" x2="192.347" y2="0.962932" gradientUnits="userSpaceOnUse">
<stop offset="0.05" stop-color="#F97C4D"/>
<stop offset="1" stop-color="#E82E26"/>
</linearGradient>
<linearGradient id="paint6_linear_2069_13965" x1="183.497" y1="0.486328" x2="183.497" y2="1.43975" gradientUnits="userSpaceOnUse">
<stop stop-color="#F97F4E"/>
<stop offset="1" stop-color="#E62722"/>
</linearGradient>
<linearGradient id="paint7_linear_2069_13965" x1="-0.00189042" y1="33.9606" x2="219.695" y2="33.9606" gradientUnits="userSpaceOnUse">
<stop offset="0.05" stop-color="#F67148"/>
<stop offset="1" stop-color="#E82D26"/>
</linearGradient>
<linearGradient id="paint8_linear_2069_13965" x1="7.17331" y1="33.9606" x2="226.356" y2="33.9606" gradientUnits="userSpaceOnUse">
<stop offset="0.05" stop-color="#F67148"/>
<stop offset="1" stop-color="#E82D26"/>
</linearGradient>
<linearGradient id="paint9_linear_2069_13965" x1="13.5677" y1="33.9606" x2="233.258" y2="33.9606" gradientUnits="userSpaceOnUse">
<stop offset="0.05" stop-color="#F67148"/>
<stop offset="1" stop-color="#E82D26"/>
</linearGradient>
<linearGradient id="paint10_linear_2069_13965" x1="20.3504" y1="33.9606" x2="240.047" y2="33.9606" gradientUnits="userSpaceOnUse">
<stop offset="0.05" stop-color="#F67148"/>
<stop offset="1" stop-color="#E82D26"/>
</linearGradient>
<linearGradient id="paint11_linear_2069_13965" x1="27.5244" y1="33.9606" x2="246.707" y2="33.9606" gradientUnits="userSpaceOnUse">
<stop offset="0.05" stop-color="#F67148"/>
<stop offset="1" stop-color="#E82D26"/>
</linearGradient>
<linearGradient id="paint12_linear_2069_13965" x1="0" y1="19.3163" x2="219.793" y2="19.3163" gradientUnits="userSpaceOnUse">
<stop stop-color="#F97F4E"/>
<stop offset="1" stop-color="#E72B25"/>
</linearGradient>
</defs>
</svg>
