<svg width="144" height="93" viewBox="0 0 144 93" fill="none" xmlns="http://www.w3.org/2000/svg">
<g filter="url(#filter0_d_676_4236)">
<path d="M20 36C20 28.268 26.268 22 34 22H111C118.732 22 125 28.268 125 36V58C125 65.732 118.732 72 111 72H34C26.268 72 20 65.732 20 58V36Z" fill="#FB6B3A"/>
</g>
<g filter="url(#filter1_bii_676_4236)">
<path d="M0 14C0 6.26801 6.26801 0 14 0H130C137.732 0 144 6.26801 144 14V79C144 86.732 137.732 93 130 93H14C6.26801 93 0 86.732 0 79V14Z" fill="#1D3C53" fill-opacity="0.08"/>
<path d="M0.5 14C0.5 6.54415 6.54416 0.5 14 0.5H130C137.456 0.5 143.5 6.54416 143.5 14V79C143.5 86.4558 137.456 92.5 130 92.5H14C6.54415 92.5 0.5 86.4558 0.5 79V14Z" stroke="url(#paint0_linear_676_4236)"/>
</g>
<defs>
<filter id="filter0_d_676_4236" x="16" y="22" width="113" height="58" filterUnits="userSpaceOnUse" color-interpolation-filters="sRGB">
<feFlood flood-opacity="0" result="BackgroundImageFix"/>
<feColorMatrix in="SourceAlpha" type="matrix" values="0 0 0 0 0 0 0 0 0 0 0 0 0 0 0 0 0 0 127 0" result="hardAlpha"/>
<feOffset dy="4"/>
<feGaussianBlur stdDeviation="2"/>
<feComposite in2="hardAlpha" operator="out"/>
<feColorMatrix type="matrix" values="0 0 0 0 0 0 0 0 0 0 0 0 0 0 0 0 0 0 0.25 0"/>
<feBlend mode="normal" in2="BackgroundImageFix" result="effect1_dropShadow_676_4236"/>
<feBlend mode="normal" in="SourceGraphic" in2="effect1_dropShadow_676_4236" result="shape"/>
</filter>
<filter id="filter1_bii_676_4236" x="-28.88" y="-28.88" width="201.76" height="150.76" filterUnits="userSpaceOnUse" color-interpolation-filters="sRGB">
<feFlood flood-opacity="0" result="BackgroundImageFix"/>
<feGaussianBlur in="BackgroundImageFix" stdDeviation="14.44"/>
<feComposite in2="SourceAlpha" operator="in" result="effect1_backgroundBlur_676_4236"/>
<feBlend mode="normal" in="SourceGraphic" in2="effect1_backgroundBlur_676_4236" result="shape"/>
<feColorMatrix in="SourceAlpha" type="matrix" values="0 0 0 0 0 0 0 0 0 0 0 0 0 0 0 0 0 0 127 0" result="hardAlpha"/>
<feOffset dx="-12.6667" dy="12.6667"/>
<feGaussianBlur stdDeviation="6.33333"/>
<feComposite in2="hardAlpha" operator="arithmetic" k2="-1" k3="1"/>
<feColorMatrix type="matrix" values="0 0 0 0 1 0 0 0 0 1 0 0 0 0 1 0 0 0 0.054 0"/>
<feBlend mode="normal" in2="shape" result="effect2_innerShadow_676_4236"/>
<feColorMatrix in="SourceAlpha" type="matrix" values="0 0 0 0 0 0 0 0 0 0 0 0 0 0 0 0 0 0 127 0" result="hardAlpha"/>
<feOffset dx="12.6667" dy="-12.6667"/>
<feGaussianBlur stdDeviation="6.33333"/>
<feComposite in2="hardAlpha" operator="arithmetic" k2="-1" k3="1"/>
<feColorMatrix type="matrix" values="0 0 0 0 0.125163 0 0 0 0 0.239908 0 0 0 0 0.323 0 0 0 0.054 0"/>
<feBlend mode="normal" in2="effect2_innerShadow_676_4236" result="effect3_innerShadow_676_4236"/>
</filter>
<linearGradient id="paint0_linear_676_4236" x1="7" y1="6" x2="29.8683" y2="63.6985" gradientUnits="userSpaceOnUse">
<stop stop-color="#FB3000"/>
<stop offset="0.785719" stop-color="#FB3000" stop-opacity="0"/>
</linearGradient>
</defs>
</svg>
