<svg width="20" height="14" viewBox="0 0 20 14" fill="none" xmlns="http://www.w3.org/2000/svg">
<path d="M4.8 4.2C4.8 4.04087 4.86321 3.88826 4.97574 3.77574C5.08826 3.66321 5.24087 3.6 5.4 3.6C5.55913 3.6 5.71174 3.66321 5.82426 3.77574C5.93679 3.88826 6 4.04087 6 4.2V6H7.8C7.95913 6 8.11174 6.06321 8.22426 6.17574C8.33679 6.28826 8.4 6.44087 8.4 6.6C8.4 6.75913 8.33679 6.91174 8.22426 7.02426C8.11174 7.13679 7.95913 7.2 7.8 7.2H6V9C6 9.15913 5.93679 9.31174 5.82426 9.42426C5.71174 9.53679 5.55913 9.6 5.4 9.6C5.24087 9.6 5.08826 9.53679 4.97574 9.42426C4.86321 9.31174 4.8 9.15913 4.8 9V7.2H3C2.84087 7.2 2.68826 7.13679 2.57574 7.02426C2.46321 6.91174 2.4 6.75913 2.4 6.6C2.4 6.44087 2.46321 6.28826 2.57574 6.17574C2.68826 6.06321 2.84087 6 3 6H4.8V4.2ZM15.6 4.8C15.6 5.11826 15.4736 5.42348 15.2485 5.64853C15.0235 5.87357 14.7183 6 14.4 6C14.0817 6 13.7765 5.87357 13.5515 5.64853C13.3264 5.42348 13.2 5.11826 13.2 4.8C13.2 4.48174 13.3264 4.17652 13.5515 3.95147C13.7765 3.72643 14.0817 3.6 14.4 3.6C14.7183 3.6 15.0235 3.72643 15.2485 3.95147C15.4736 4.17652 15.6 4.48174 15.6 4.8ZM12 9.6C12.3183 9.6 12.6235 9.47357 12.8485 9.24853C13.0736 9.02348 13.2 8.71826 13.2 8.4C13.2 8.08174 13.0736 7.77652 12.8485 7.55147C12.6235 7.32643 12.3183 7.2 12 7.2C11.6817 7.2 11.3765 7.32643 11.1515 7.55147C10.9264 7.77652 10.8 8.08174 10.8 8.4C10.8 8.71826 10.9264 9.02348 11.1515 9.24853C11.3765 9.47357 11.6817 9.6 12 9.6V9.6ZM0 6.6C0 4.84957 0.695355 3.17084 1.9331 1.9331C3.17084 0.695355 4.84957 0 6.6 0H12.6C14.3504 0 16.0292 0.695355 17.2669 1.9331C18.5046 3.17084 19.2 4.84957 19.2 6.6C19.2 8.35043 18.5046 10.0292 17.2669 11.2669C16.0292 12.5046 14.3504 13.2 12.6 13.2H6.6C4.84957 13.2 3.17084 12.5046 1.9331 11.2669C0.695355 10.0292 0 8.35043 0 6.6V6.6ZM6.6 1.2C5.16783 1.2 3.79432 1.76893 2.78162 2.78162C1.76893 3.79432 1.2 5.16783 1.2 6.6C1.2 8.03217 1.76893 9.40568 2.78162 10.4184C3.79432 11.4311 5.16783 12 6.6 12H12.6C13.3091 12 14.0113 11.8603 14.6665 11.5889C15.3216 11.3176 15.9169 10.9198 16.4184 10.4184C16.9198 9.91694 17.3176 9.32165 17.5889 8.66649C17.8603 8.01133 18 7.30914 18 6.6C18 5.89086 17.8603 5.18867 17.5889 4.53351C17.3176 3.87835 16.9198 3.28306 16.4184 2.78162C15.9169 2.28019 15.3216 1.88243 14.6665 1.61105C14.0113 1.33968 13.3091 1.2 12.6 1.2H6.6Z" fill="white"/>
</svg>
