<svg width="24" height="24" viewBox="0 0 24 24" fill="none" xmlns="http://www.w3.org/2000/svg">
<path d="M14.9984 5C16.8348 4.9991 18.5979 5.71983 19.9078 7.0068C21.2176 8.29378 21.9693 10.0439 22.0008 11.88C22.0323 13.716 21.3411 15.4909 20.0761 16.8221C18.8111 18.1532 17.0737 18.9339 15.2384 18.996L14.9984 19H9.00244C7.16612 19.0009 5.40298 18.2802 4.09311 16.9932C2.78324 15.7062 2.03154 13.9561 2.00005 12.12C1.96857 10.284 2.65982 8.50907 3.9248 7.17794C5.18978 5.84681 6.92717 5.06606 8.76244 5.004L9.00144 5H14.9974H14.9984ZM14.7504 12.5C14.4189 12.5 14.101 12.6317 13.8666 12.8661C13.6321 13.1005 13.5004 13.4185 13.5004 13.75C13.5004 14.0815 13.6321 14.3995 13.8666 14.6339C14.101 14.8683 14.4189 15 14.7504 15C15.082 15 15.3999 14.8683 15.6343 14.6339C15.8687 14.3995 16.0004 14.0815 16.0004 13.75C16.0004 13.4185 15.8687 13.1005 15.6343 12.8661C15.3999 12.6317 15.082 12.5 14.7504 12.5ZM8.00044 9C7.8192 9.00001 7.6441 9.06564 7.50751 9.18477C7.37092 9.30389 7.28209 9.46845 7.25744 9.648L7.25044 9.75V11.248H5.75044C5.55906 11.2461 5.37418 11.3173 5.23366 11.4473C5.09313 11.5772 5.00759 11.7559 4.99455 11.9469C4.98152 12.1378 5.04197 12.3265 5.16354 12.4743C5.2851 12.6222 5.45857 12.7179 5.64844 12.742L5.75044 12.749L7.25044 12.748V14.25C7.2505 14.44 7.32268 14.6229 7.45241 14.7618C7.58214 14.9006 7.75974 14.9851 7.94932 14.998C8.1389 15.011 8.32633 14.9515 8.47374 14.8316C8.62115 14.7117 8.71754 14.5403 8.74344 14.352L8.75044 14.25V12.748H10.2504C10.4393 12.7462 10.6205 12.6733 10.7579 12.5437C10.8953 12.4142 10.9788 12.2376 10.9917 12.0492C11.0045 11.8608 10.9459 11.6745 10.8274 11.5274C10.7089 11.3804 10.5393 11.2835 10.3524 11.256L10.2504 11.249L8.75044 11.248V9.75C8.75044 9.55109 8.67142 9.36032 8.53077 9.21967C8.39012 9.07902 8.19935 9 8.00044 9ZM16.7504 9C16.4189 9 16.101 9.1317 15.8666 9.36612C15.6321 9.60054 15.5004 9.91848 15.5004 10.25C15.5004 10.5815 15.6321 10.8995 15.8666 11.1339C16.101 11.3683 16.4189 11.5 16.7504 11.5C17.082 11.5 17.3999 11.3683 17.6343 11.1339C17.8687 10.8995 18.0004 10.5815 18.0004 10.25C18.0004 9.91848 17.8687 9.60054 17.6343 9.36612C17.3999 9.1317 17.082 9 16.7504 9Z" fill="#FB6D3A"/>
</svg>
