<svg width="42" height="43" viewBox="0 0 42 43" fill="none" xmlns="http://www.w3.org/2000/svg">
<path d="M39.8841 11.0097H32.2188C32.9251 9.89831 33.3406 8.57923 33.3406 7.16667C33.3406 3.21461 30.126 0 26.1739 0C24.0239 0 22.0868 0.955555 20.7729 2.46159C19.4591 0.955555 17.522 0 15.372 0C11.4199 0 8.20531 3.21461 8.20531 7.16667C8.20531 8.57923 8.61558 9.89831 9.32705 11.0097H1.66184C0.742633 11.0097 0 11.7523 0 12.6715V23.058C0 23.2865 0.186957 23.4734 0.415459 23.4734H2.49275V41.3382C2.49275 42.2574 3.23539 43 4.15459 43H37.3913C38.3105 43 39.0531 42.2574 39.0531 41.3382V23.4734H41.1304C41.3589 23.4734 41.5459 23.2865 41.5459 23.058V12.6715C41.5459 11.7523 40.8033 11.0097 39.8841 11.0097ZM22.5386 7.16667C22.5386 5.16208 24.1693 3.5314 26.1739 3.5314C28.1785 3.5314 29.8092 5.16208 29.8092 7.16667C29.8092 9.17126 28.1785 10.8019 26.1739 10.8019H22.5386V7.16667ZM15.372 3.5314C17.3766 3.5314 19.0072 5.16208 19.0072 7.16667V10.8019H15.372C13.3674 10.8019 11.7367 9.17126 11.7367 7.16667C11.7367 5.16208 13.3674 3.5314 15.372 3.5314ZM3.5314 19.942V14.5411H19.0072V19.942H3.5314ZM6.02415 23.4734H19.0072V39.4686H6.02415V23.4734ZM35.5217 39.4686H22.5386V23.4734H35.5217V39.4686ZM38.0145 19.942H22.5386V14.5411H38.0145V19.942Z" fill="white"/>
</svg>
