<svg width="19" height="24" viewBox="0 0 19 24" fill="none" xmlns="http://www.w3.org/2000/svg">
<path d="M6.75 21.4875C6.75 21.633 6.855 21.75 6.984 21.75H10.266C10.395 21.75 10.5 21.633 10.5 21.4875V19.7625C10.5 19.617 10.395 19.5 10.266 19.5H6.984C6.855 19.5 6.75 19.617 6.75 19.7625V21.4875Z" fill="#FB6D3A"/>
<path d="M15 17.2335L15.5565 16.836L15.5588 16.8337C16.6348 16.0675 17.4742 15.0146 17.9813 13.7948C18.3403 12.9514 18.5301 12.0458 18.54 11.1292L18.5775 9.05925V9.045C18.5777 8.14734 18.2808 7.27485 17.7331 6.56365C17.1854 5.85245 16.4177 5.34255 15.5498 5.1135C15.1844 3.65296 14.3413 2.35643 13.1546 1.42994C11.9679 0.503443 10.5056 0.000138777 9 0L6.75 0C4.95979 0 3.2429 0.711159 1.97703 1.97703C0.711161 3.2429 2.87344e-06 4.95979 2.87344e-06 6.75V12C-0.000874407 12.9498 0.199138 13.8891 0.586911 14.7561C0.974683 15.6232 1.54145 16.3985 2.25 17.031V21.7868C2.25 22.8818 3.0885 24 4.39575 24H12.855C14.19 24 15 22.8495 15 21.7868V17.2335ZM3.75 16.3088C3.05506 15.8255 2.48743 15.1811 2.09562 14.4308C1.7038 13.6805 1.49944 12.8465 1.5 12V6.75C1.5 5.35761 2.05313 4.02225 3.03769 3.03769C4.02226 2.05312 5.35762 1.5 6.75 1.5H9C10.3479 1.5003 11.6441 2.01888 12.6203 2.94841C13.5964 3.87793 14.1778 5.14721 14.244 6.4935H14.25V10.125C14.25 10.2245 14.2895 10.3198 14.3598 10.3902C14.4302 10.4605 14.5255 10.5 14.625 10.5C14.7245 10.5 14.8198 10.4605 14.8902 10.3902C14.9605 10.3198 15 10.2245 15 10.125V6.5265C15.5849 6.63972 16.1121 6.953 16.4912 7.41255C16.8703 7.8721 17.0776 8.44927 17.0775 9.045L17.04 11.1075C17.0329 11.8323 16.8825 12.5485 16.5975 13.215C16.198 14.1787 15.5352 15.0104 14.685 15.615L13.5 16.4618V17.25H3.75V16.3088ZM3.75 18.75H13.5V21.7868C13.5 22.1768 13.215 22.5 12.8543 22.5H4.395C4.0425 22.5 3.74925 22.185 3.74925 21.7868L3.75 18.75Z" fill="#FB6D3A"/>
<path d="M3.75 16.3088C3.05506 15.8255 2.48743 15.1811 2.09562 14.4308C1.7038 13.6805 1.49944 12.8465 1.5 12V6.75C1.5 5.35761 2.05313 4.02225 3.03769 3.03769C4.02226 2.05312 5.35762 1.5 6.75 1.5H9C10.3479 1.5003 11.6441 2.01888 12.6203 2.94841C13.5964 3.87793 14.1778 5.14721 14.244 6.4935H14.25V10.125C14.25 10.2245 14.2895 10.3198 14.3598 10.3902C14.4302 10.4605 14.5255 10.5 14.625 10.5C14.7245 10.5 14.8198 10.4605 14.8902 10.3902C14.9605 10.3198 15 10.2245 15 10.125V6.5265C15.5849 6.63972 16.1121 6.953 16.4912 7.41255C16.8703 7.8721 17.0776 8.44927 17.0775 9.045L17.04 11.1075C17.0329 11.8323 16.8825 12.5485 16.5975 13.215C16.198 14.1787 15.5352 15.0104 14.685 15.615L13.5 16.4618V17.25H3.75V16.3088Z" fill="#FB6D3A"/>
</svg>
