<svg width="25" height="24" viewBox="0 0 25 24" fill="none" xmlns="http://www.w3.org/2000/svg">
<path d="M24.2758 11.511L13.0129 0.256325C12.9318 0.175071 12.8355 0.110607 12.7294 0.0666233C12.6234 0.0226397 12.5097 0 12.3949 0C12.2801 0 12.1665 0.0226397 12.0604 0.0666233C11.9544 0.110607 11.858 0.175071 11.777 0.256325L0.514062 11.511C0.185937 11.8391 0 12.2848 0 12.7497C0 13.7149 0.784766 14.4997 1.75 14.4997H2.93672V22.5305C2.93672 23.0145 3.32773 23.4055 3.81172 23.4055H10.6449V17.2805H13.7074V23.4055H20.9781C21.4621 23.4055 21.8531 23.0145 21.8531 22.5305V14.4997H23.0398C23.5047 14.4997 23.9504 14.3165 24.2785 13.9856C24.9594 13.302 24.9594 12.1946 24.2758 11.511V11.511Z" fill="#FB6D3A"/>
</svg>
