<svg width="148" height="147" viewBox="0 0 148 147" fill="none" xmlns="http://www.w3.org/2000/svg">
<g opacity="0.5">
<path d="M58.2617 84.6938C58.2617 91.3866 63.6132 96.8125 70.2142 96.8125C76.8156 96.8125 82.1675 91.3866 82.1675 84.6938C82.1675 78.0011 76.8156 72.576 70.2142 72.576C63.6132 72.576 58.2617 78.0011 58.2617 84.6938Z" fill="url(#paint0_linear_3858_32865)"/>
<path d="M61.4138 36.0344C58.8518 39.9066 55.1134 42.7872 51.5324 45.7131C45.4761 50.6601 39.6283 55.9968 35.1409 62.4362C30.6532 68.8756 27.5774 76.5375 27.6002 84.4218C27.6273 93.6739 31.9593 102.568 38.2403 109.279C47.8443 119.541 62.1744 125.053 76.0755 123.832C89.9766 122.612 103.158 114.683 110.878 102.9C113.314 99.1827 115.19 95.1062 116.482 90.8447C119.288 81.5965 119.346 71.4762 116.417 62.2598C116.311 66.1737 113.928 70.0282 110.348 71.497C107.7 72.5836 104.493 72.2387 102.17 70.5463C94.273 64.7928 102.594 53.7596 98.7673 46.3538C95.5063 40.0448 86.3158 40.3061 80.9682 35.6867C77.8533 32.9965 76.2894 28.5799 77.0055 24.4955C73.0412 30.0581 72.0911 37.436 73.3787 44.1736C74.6667 50.9111 78.0017 57.0869 81.9543 62.6578C85.8826 68.1944 90.6326 73.6486 91.5091 80.4105C92.1089 85.0354 90.7497 89.7785 88.3407 93.7525C84.9565 99.3339 79.3668 103.608 73.0292 104.888C65.3955 106.431 57.0973 103.396 51.976 97.4542C46.854 91.5117 44.9859 82.9333 46.8834 75.2804C49.2958 65.5514 56.947 58.2423 62.6405 50.0378C65.5276 45.8781 68.0055 41.2406 68.5546 36.1848C68.9793 32.2796 67.8134 24.514 63.481 23C64.1997 27.8347 64.271 31.7163 61.4138 36.0344" fill="url(#paint1_linear_3858_32865)"/>
</g>
<rect width="70.9624" height="70.9624" transform="translate(74 23) rotate(45)" fill="url(#paint2_linear_3858_32865)"/>
<path d="M47.345 89.8797L54.0261 96.5608L70.7289 79.858L74.0694 83.1985L74.0694 73.1769L64.0478 73.1769L67.3883 76.5174L54.0261 89.8797L50.6855 86.5391L47.345 89.8797Z" fill="url(#paint3_linear_3858_32865)"/>
<path d="M57.3672 46.4531L50.6861 53.1342L67.3889 69.837L64.0483 73.1776L74.07 73.1776L74.07 63.1559L70.7294 66.4965L57.3672 53.1342L60.7077 49.7937L57.3672 46.4531Z" fill="url(#paint4_linear_3858_32865)"/>
<path d="M100.794 56.4748L94.1125 49.7937L77.4097 66.4965L74.0692 63.1559L74.0692 73.1776L84.0909 73.1776L80.7503 69.837L94.1125 56.4748L97.4531 59.8154L100.794 56.4748Z" fill="url(#paint5_linear_3858_32865)"/>
<path d="M90.7725 99.9033L97.4536 93.2222L80.7508 76.5194L84.0914 73.1788L74.0697 73.1788L74.0697 83.2005L77.4103 79.8599L90.7725 93.2222L87.432 96.5627L90.7725 99.9033Z" fill="url(#paint6_linear_3858_32865)"/>
<path d="M44.0049 53.1348L64.0482 73.1781L44.0049 93.2215L23.9615 73.1781L44.0049 53.1348Z" fill="url(#paint7_linear_3858_32865)"/>
<path d="M73.9302 23.0703L93.9735 43.1137L73.9302 63.157L53.8868 43.1137L73.9302 23.0703Z" fill="url(#paint8_linear_3858_32865)"/>
<path d="M104.135 53.1348L124.178 73.1781L104.135 93.2215L84.0914 73.1781L104.135 53.1348Z" fill="url(#paint9_linear_3858_32865)"/>
<path d="M74.0698 83.1992L94.1132 103.243L74.0698 123.286L54.0265 103.243L74.0698 83.1992Z" fill="url(#paint10_linear_3858_32865)"/>
<path d="M44.0045 93.2211L64.0479 73.1777M64.0479 73.1777L74.0695 83.1994M60.7073 76.5183L70.729 86.54M57.3667 79.8589L67.3884 89.8805M54.0262 83.1994L64.0479 93.2211M50.6856 86.54L60.7073 96.5617M47.3451 89.8805L57.3667 99.9022M47.3451 96.5617L67.3884 76.5183M50.6856 99.9022L70.729 79.8589M54.0262 103.243L74.0695 83.1994" stroke="black" stroke-width="0.5"/>
<path d="M54.026 43.1129L74.0693 63.1562M74.0693 63.1562L64.0477 73.1779M70.7288 59.8157L60.7071 69.8374M67.3882 56.4751L57.3665 66.4968M64.0477 53.1346L54.026 63.1562M60.7071 49.794L50.6854 59.8157M57.3665 46.4535L47.3449 56.4751M50.6854 46.4535L70.7288 66.4968M47.3449 49.794L67.3882 69.8374M44.0043 53.1346L64.0477 73.1779" stroke="black" stroke-width="0.5"/>
<path d="M104.135 53.1344L84.0913 73.1777M84.0913 73.1777L74.0696 63.1561M87.4319 69.8372L77.4102 59.8155M90.7724 66.4966L80.7507 56.4749M94.113 63.1561L84.0913 53.1344M97.4535 59.8155L87.4319 49.7938M100.794 56.4749L90.7724 46.4533M100.794 49.7938L80.7507 69.8372M97.4535 46.4533L77.4102 66.4966M94.113 43.1127L74.0696 63.1561" stroke="black" stroke-width="0.5"/>
<path d="M94.1132 103.243L74.0698 83.1992M74.0698 83.1992L84.0915 73.1775M77.4104 86.5398L87.4321 76.5181M80.7509 89.8803L90.7726 79.8587M84.0915 93.2209L94.1132 83.1992M87.4321 96.5615L97.4537 86.5398M90.7726 99.902L100.794 89.8803M97.4537 99.902L77.4104 79.8587M100.794 96.5615L80.7509 76.5181M104.135 93.2209L84.0915 73.1775" stroke="black" stroke-width="0.5"/>
<path d="M64.0477 73.1779H84.091M74.0693 63.1562V83.1996" stroke="black" stroke-width="0.5"/>
<path d="M54.0266 63.1564V83.1998H33.9832V63.1564H54.0266Z" fill="white" stroke="black" stroke-width="0.5"/>
<path d="M50.686 66.4975V79.8598H37.3238V66.4975H50.686Z" stroke="black" stroke-width="0.5"/>
<path d="M47.345 66.4968L50.6855 69.8374L47.345 73.1779L44.0044 69.8374L47.345 66.4968ZM40.6638 66.4968L44.0044 69.8374L40.6638 73.1779L37.3233 69.8374L40.6638 66.4968ZM40.6638 73.1779L44.0044 76.5185L40.6638 79.859L37.3233 76.5185L40.6638 73.1779ZM47.345 73.1779L50.6855 76.5185L47.345 79.859L44.0044 76.5185L47.345 73.1779Z" fill="url(#paint11_linear_3858_32865)"/>
<path d="M84.0915 33.092V53.1353H64.0481V33.092H84.0915Z" fill="white" stroke="black" stroke-width="0.5"/>
<path d="M80.7509 36.4331V49.7953H67.3887V36.4331H80.7509Z" stroke="black" stroke-width="0.5"/>
<path d="M77.4104 36.4324L80.7509 39.7729L77.4104 43.1135L74.0698 39.7729L77.4104 36.4324ZM70.7293 36.4324L74.0698 39.7729L70.7293 43.1135L67.3887 39.7729L70.7293 36.4324ZM70.7293 43.1135L74.0698 46.454L70.7293 49.7946L67.3887 46.454L70.7293 43.1135ZM77.4104 43.1135L80.7509 46.454L77.4104 49.7946L74.0698 46.454L77.4104 43.1135Z" fill="url(#paint12_linear_3858_32865)"/>
<path d="M84.0915 93.2209V113.264H64.0481V93.2209H84.0915Z" fill="white" stroke="black" stroke-width="0.5"/>
<path d="M80.7509 96.562V109.924H67.3887V96.562H80.7509Z" stroke="black" stroke-width="0.5"/>
<path d="M77.4104 96.5613L80.7509 99.9018L77.4104 103.242L74.0698 99.9018L77.4104 96.5613ZM70.7293 96.5613L74.0698 99.9018L70.7293 103.242L67.3887 99.9018L70.7293 96.5613ZM70.7293 103.242L74.0698 106.583L70.7293 109.924L67.3887 106.583L70.7293 103.242ZM77.4104 103.242L80.7509 106.583L77.4104 109.924L74.0698 106.583L77.4104 103.242Z" fill="url(#paint13_linear_3858_32865)"/>
<path d="M114.156 63.1564V83.1998H94.1131V63.1564H114.156Z" fill="white" stroke="black" stroke-width="0.5"/>
<path d="M110.816 66.4975V79.8598H97.4536V66.4975H110.816Z" stroke="black" stroke-width="0.5"/>
<path d="M107.475 66.4968L110.816 69.8374L107.475 73.1779L104.135 69.8374L107.475 66.4968ZM100.794 66.4968L104.135 69.8374L100.794 73.1779L97.4536 69.8374L100.794 66.4968ZM100.794 73.1779L104.135 76.5185L100.794 79.859L97.4536 76.5185L100.794 73.1779ZM107.475 73.1779L110.816 76.5185L107.475 79.859L104.135 76.5185L107.475 73.1779Z" fill="url(#paint14_linear_3858_32865)"/>
<rect x="1.2998" y="0.5" width="145.4" height="145.4" rx="11.5" stroke="url(#paint15_linear_3858_32865)"/>
<rect x="1.2998" y="0.5" width="145.4" height="145.4" rx="11.5" stroke="url(#paint16_linear_3858_32865)"/>
<defs>
<linearGradient id="paint0_linear_3858_32865" x1="70.2146" y1="113.173" x2="70.2146" y2="80.5183" gradientUnits="userSpaceOnUse">
<stop stop-color="#E00A14"/>
<stop offset="0.999999" stop-color="#F97F4E"/>
<stop offset="1" stop-color="#F97F4E"/>
</linearGradient>
<linearGradient id="paint1_linear_3858_32865" x1="73.1001" y1="126.012" x2="73.1001" y2="72.071" gradientUnits="userSpaceOnUse">
<stop stop-color="#E00A14"/>
<stop offset="0.999999" stop-color="#F97F4E"/>
<stop offset="1" stop-color="#F97F4E"/>
</linearGradient>
<linearGradient id="paint2_linear_3858_32865" x1="35.4812" y1="0" x2="35.4812" y2="70.9624" gradientUnits="userSpaceOnUse">
<stop stop-color="#F47F4F"/>
<stop offset="1" stop-color="#3E00FF"/>
</linearGradient>
<linearGradient id="paint3_linear_3858_32865" x1="74.0694" y1="73.1769" x2="52.3558" y2="94.8905" gradientUnits="userSpaceOnUse">
<stop stop-color="#F47F4F"/>
<stop offset="1" stop-color="#3E00FF"/>
</linearGradient>
<linearGradient id="paint4_linear_3858_32865" x1="68.224" y1="57.3099" x2="58.2023" y2="67.3316" gradientUnits="userSpaceOnUse">
<stop stop-color="#F47F4F"/>
<stop offset="1" stop-color="#3E00FF"/>
</linearGradient>
<linearGradient id="paint5_linear_3858_32865" x1="95.7828" y1="51.464" x2="74.0692" y2="73.1776" gradientUnits="userSpaceOnUse">
<stop stop-color="#F47F4F"/>
<stop offset="1" stop-color="#3E00FF"/>
</linearGradient>
<linearGradient id="paint6_linear_3858_32865" x1="89.9374" y1="79.0248" x2="79.9157" y2="89.0465" gradientUnits="userSpaceOnUse">
<stop stop-color="#F47F4F"/>
<stop offset="1" stop-color="#3E00FF"/>
</linearGradient>
<linearGradient id="paint7_linear_3858_32865" x1="54.0266" y1="63.1564" x2="33.9832" y2="83.1998" gradientUnits="userSpaceOnUse">
<stop stop-color="#F47F4F"/>
<stop offset="1" stop-color="#3E00FF"/>
</linearGradient>
<linearGradient id="paint8_linear_3858_32865" x1="83.9519" y1="33.092" x2="63.9085" y2="53.1353" gradientUnits="userSpaceOnUse">
<stop stop-color="#F47F4F"/>
<stop offset="1" stop-color="#3E00FF"/>
</linearGradient>
<linearGradient id="paint9_linear_3858_32865" x1="114.156" y1="63.1564" x2="94.1131" y2="83.1998" gradientUnits="userSpaceOnUse">
<stop stop-color="#F47F4F"/>
<stop offset="1" stop-color="#3E00FF"/>
</linearGradient>
<linearGradient id="paint10_linear_3858_32865" x1="84.0915" y1="93.2209" x2="64.0481" y2="113.264" gradientUnits="userSpaceOnUse">
<stop stop-color="#F47F4F"/>
<stop offset="1" stop-color="#3E00FF"/>
</linearGradient>
<linearGradient id="paint11_linear_3858_32865" x1="49.0152" y1="68.1671" x2="38.9936" y2="78.1888" gradientUnits="userSpaceOnUse">
<stop stop-color="#F47F4F"/>
<stop offset="1" stop-color="#3E00FF"/>
</linearGradient>
<linearGradient id="paint12_linear_3858_32865" x1="79.0807" y1="38.1026" x2="69.059" y2="48.1243" gradientUnits="userSpaceOnUse">
<stop stop-color="#F47F4F"/>
<stop offset="1" stop-color="#3E00FF"/>
</linearGradient>
<linearGradient id="paint13_linear_3858_32865" x1="79.0807" y1="98.2315" x2="69.059" y2="108.253" gradientUnits="userSpaceOnUse">
<stop stop-color="#F47F4F"/>
<stop offset="1" stop-color="#3E00FF"/>
</linearGradient>
<linearGradient id="paint14_linear_3858_32865" x1="109.146" y1="68.1671" x2="99.1239" y2="78.1888" gradientUnits="userSpaceOnUse">
<stop stop-color="#F47F4F"/>
<stop offset="1" stop-color="#3E00FF"/>
</linearGradient>
<linearGradient id="paint15_linear_3858_32865" x1="147.2" y1="154.048" x2="107.36" y2="143.236" gradientUnits="userSpaceOnUse">
<stop stop-color="#F97F4E"/>
<stop offset="0.963951" stop-color="#F97F4E" stop-opacity="0"/>
</linearGradient>
<linearGradient id="paint16_linear_3858_32865" x1="0.799809" y1="-10" x2="63.1616" y2="45.6478" gradientUnits="userSpaceOnUse">
<stop offset="0.207631" stop-color="#F97F4E"/>
<stop offset="1" stop-color="#F97F4E" stop-opacity="0"/>
</linearGradient>
</defs>
</svg>
