<svg width="147" height="147" viewBox="0 0 147 147" fill="none" xmlns="http://www.w3.org/2000/svg">
<g opacity="0.5">
<path d="M58.2617 84.6938C58.2617 91.3866 63.6132 96.8125 70.2142 96.8125C76.8156 96.8125 82.1675 91.3866 82.1675 84.6938C82.1675 78.0011 76.8156 72.576 70.2142 72.576C63.6132 72.576 58.2617 78.0011 58.2617 84.6938Z" fill="url(#paint0_linear_3858_32726)"/>
<path d="M61.4138 36.0344C58.8518 39.9066 55.1134 42.7872 51.5324 45.7131C45.4761 50.6601 39.6283 55.9968 35.1409 62.4362C30.6532 68.8756 27.5774 76.5375 27.6002 84.4218C27.6273 93.6739 31.9593 102.568 38.2403 109.279C47.8443 119.541 62.1744 125.053 76.0755 123.832C89.9766 122.612 103.158 114.683 110.878 102.9C113.314 99.1827 115.19 95.1062 116.482 90.8447C119.288 81.5965 119.346 71.4762 116.417 62.2598C116.311 66.1737 113.928 70.0282 110.348 71.497C107.7 72.5836 104.493 72.2387 102.17 70.5463C94.273 64.7928 102.594 53.7596 98.7673 46.3538C95.5063 40.0448 86.3158 40.3061 80.9682 35.6867C77.8533 32.9965 76.2894 28.5799 77.0055 24.4955C73.0412 30.0581 72.0911 37.436 73.3787 44.1736C74.6667 50.9111 78.0017 57.0869 81.9543 62.6578C85.8826 68.1944 90.6326 73.6486 91.5091 80.4105C92.1089 85.0354 90.7497 89.7785 88.3407 93.7525C84.9565 99.3339 79.3668 103.608 73.0292 104.888C65.3955 106.431 57.0973 103.396 51.976 97.4542C46.854 91.5117 44.9859 82.9333 46.8834 75.2804C49.2958 65.5514 56.947 58.2423 62.6405 50.0378C65.5276 45.8781 68.0055 41.2406 68.5546 36.1848C68.9793 32.2796 67.8134 24.514 63.481 23C64.1997 27.8347 64.271 31.7163 61.4138 36.0344" fill="url(#paint1_linear_3858_32726)"/>
</g>
<path d="M83.782 99.8309C83.782 105.457 79.2231 110.018 73.5973 110.018C67.9743 110.018 63.4141 105.457 63.4141 99.8309C63.4141 94.2051 67.9743 89.6462 73.5973 89.6462C79.2231 89.6462 83.782 94.2051 83.782 99.8309Z" fill="white"/>
<path d="M73.5972 90.1717C68.2724 90.1717 63.9375 94.5072 63.9375 99.8327C63.9375 105.16 68.2724 109.495 73.5972 109.495C78.9234 109.495 83.2576 105.16 83.2576 99.8327C83.2576 94.5072 78.9234 90.1717 73.5972 90.1717ZM73.5972 110.543C67.693 110.543 62.8896 105.738 62.8896 99.8327C62.8896 93.9284 67.693 89.1237 73.5972 89.1237C79.5021 89.1237 84.3054 93.9284 84.3054 99.8327C84.3054 105.738 79.5021 110.543 73.5972 110.543Z" fill="#0A0C32"/>
<path d="M81.2565 96.55C81.5391 97.3901 81.6995 98.2902 81.6995 99.2272C81.6995 103.864 77.9391 107.626 73.3004 107.626C69.9017 107.626 66.9814 105.602 65.6587 102.7C66.7779 106.025 69.9144 108.422 73.6148 108.422C78.2535 108.422 82.0139 104.662 82.0139 100.024C82.0139 98.7825 81.7384 97.6076 81.2565 96.55Z" fill="#0A0C32"/>
<path d="M65.6458 100.051C64.8947 97.1243 66.447 93.8903 69.3087 92.7879C69.4288 93.1923 69.5496 93.5977 69.669 94.0031C69.7411 94.2485 69.332 94.2521 69.1349 94.3487C68.6445 94.5878 68.2142 94.9153 67.8171 95.2877C67.1275 95.9973 66.5276 96.8543 66.2153 97.801C66.0535 98.2888 65.9432 98.7748 65.8577 99.2815C65.809 99.5217 65.9319 100.03 65.6458 100.051Z" fill="#0A0C32"/>
<path d="M72.1484 92.6745C72.2784 93.1147 72.0276 93.5768 71.5874 93.706C71.1479 93.8359 70.6865 93.5845 70.5558 93.1457C70.4258 92.7063 70.6766 92.2448 71.1168 92.1142C71.557 91.9848 72.0177 92.2348 72.1484 92.6745Z" fill="#0A0C32"/>
<path d="M56.4483 73.0013C56.4483 78.8566 51.7026 83.6035 45.8479 83.6035C39.9946 83.6035 35.248 78.8566 35.248 73.0013C35.248 67.145 39.9946 62.3997 45.8479 62.3997C51.7026 62.3997 56.4483 67.145 56.4483 73.0013Z" fill="#0A0C32"/>
<path d="M54.4206 69.1062C54.7378 70.0495 54.9174 71.0592 54.9174 72.1092C54.9174 77.3124 50.6989 81.5323 45.4948 81.5323C41.6829 81.5323 38.4069 79.2627 36.9229 76.0053C38.1781 79.7361 41.6961 82.4238 45.8478 82.4238C51.0517 82.4238 55.2707 78.2064 55.2707 73.0023C55.2707 71.6111 54.9614 70.2933 54.4206 69.1062Z" fill="white"/>
<path d="M43.0839 66.4882C43.0839 67.1849 42.4902 67.748 41.7579 67.748C41.0263 67.748 40.4331 67.1849 40.4331 66.4882C40.4331 65.7936 41.0263 65.2298 41.7579 65.2298C42.4902 65.2298 43.0839 65.7936 43.0839 66.4882Z" fill="white"/>
<path d="M40.1728 68.4247C40.1728 68.7984 39.8695 69.1016 39.4958 69.1016C39.1215 69.1016 38.8179 68.7984 38.8179 68.4247C38.8179 68.0509 39.1215 67.747 39.4958 67.747C39.8695 67.747 40.1728 68.0509 40.1728 68.4247Z" fill="white"/>
<path d="M52.9517 71.2918C52.9517 74.0765 50.6934 76.334 47.9088 76.334C45.125 76.334 42.8672 74.0765 42.8672 71.2918C42.8672 68.5065 45.125 66.2496 47.9088 66.2496C50.6934 66.2496 52.9517 68.5065 52.9517 71.2918Z" fill="white"/>
<path d="M48.066 75.7902C45.4989 75.7902 43.4164 73.7072 43.4164 71.1402C43.4164 69.8818 43.9173 68.7435 44.7288 67.9069C43.8262 68.7541 43.2593 69.9552 43.2593 71.2921C43.2593 73.8598 45.3423 75.9414 47.9087 75.9414C49.2192 75.9414 50.4018 75.398 51.2459 74.5261C50.4145 75.3083 49.2978 75.7902 48.066 75.7902Z" fill="#0A0C32"/>
<path d="M47.023 69.8341C47.1659 70.3902 47.6714 70.5704 48.3558 70.5654C48.7873 70.2736 49.0505 69.8369 48.9134 69.3353C48.7931 68.8937 48.4127 68.5043 47.7335 68.6923C47.1216 68.8583 46.8933 69.3593 47.023 69.8341ZM49.8341 72.0323C49.6531 71.3702 49.0953 71.1667 48.2915 71.1667C47.6959 71.5228 47.4657 72.0514 47.6093 72.5764C47.7357 73.1367 48.2951 73.5126 49.0006 73.3197C49.6705 73.1353 49.9901 72.6011 49.8341 72.0323ZM46.8709 72.8802C46.6829 72.1913 46.9637 71.5857 47.5541 71.1053L47.5444 71.0713C46.8558 70.9576 46.455 70.5555 46.3241 70.08C46.0862 69.2152 46.6691 68.4061 47.6371 68.1411C48.7078 67.8493 49.4265 68.3743 49.6145 69.0618C49.7419 69.5282 49.6504 70.092 49.0588 70.6015L49.0657 70.6255C49.8259 70.7011 50.3884 71.0855 50.5694 71.7497C50.8344 72.717 50.1847 73.5797 49.1232 73.8701C47.976 74.1831 47.092 73.6864 46.8709 72.8802Z" fill="#0A0C32"/>
<path d="M111.659 73.0013C111.659 78.8566 106.915 83.6035 101.058 83.6035C95.2044 83.6035 90.459 78.8566 90.459 73.0013C90.459 67.145 95.2044 62.3997 101.058 62.3997C106.915 62.3997 111.659 67.145 111.659 73.0013Z" fill="white"/>
<path d="M101.058 62.9238C95.5029 62.9238 90.9822 67.4444 90.9822 73.001C90.9822 78.5569 95.5029 83.0788 101.058 83.0788C106.615 83.0788 111.135 78.5569 111.135 73.001C111.135 67.4444 106.615 62.9238 101.058 62.9238ZM101.058 84.127C94.9249 84.127 89.9336 79.1358 89.9336 73.001C89.9336 66.8657 94.9249 61.8758 101.058 61.8758C107.193 61.8758 112.183 66.8657 112.183 73.001C112.183 79.1358 107.193 84.127 101.058 84.127Z" fill="#0A0C32"/>
<path d="M111.658 73.0002C111.658 72.1352 111.545 71.2985 111.349 70.4943C107.822 66.6938 103.249 64.0141 98.2043 62.7986C93.8716 64.0084 90.6672 67.8973 90.48 72.5712C96.8251 73.6482 102.562 77.0155 106.597 82.0273C109.63 80.1616 111.658 76.8233 111.658 73.0002Z" fill="#0A0C32"/>
<path d="M98.2942 66.4882C98.2942 67.1849 97.7014 67.748 96.9694 67.748C96.2374 67.748 95.6445 67.1849 95.6445 66.4882C95.6445 65.7936 96.2374 65.2298 96.9694 65.2298C97.7014 65.2298 98.2942 65.7936 98.2942 66.4882Z" fill="white"/>
<path d="M95.3836 68.4247C95.3836 68.7984 95.0812 69.1016 94.7067 69.1016C94.3329 69.1016 94.0298 68.7984 94.0298 68.4247C94.0298 68.0509 94.3329 67.747 94.7067 67.747C95.0812 67.747 95.3836 68.0509 95.3836 68.4247Z" fill="white"/>
<path d="M108.162 71.2918C108.162 74.0765 105.905 76.334 103.12 76.334C100.336 76.334 98.0781 74.0765 98.0781 71.2918C98.0781 68.5065 100.336 66.2496 103.12 66.2496C105.905 66.2496 108.162 68.5065 108.162 71.2918Z" fill="white"/>
<path d="M103.278 75.7902C100.711 75.7902 98.6288 73.7072 98.6288 71.1402C98.6288 69.8818 99.1304 68.7435 99.9402 67.9069C99.0379 68.7541 98.4712 69.9552 98.4712 71.2921C98.4712 73.8598 100.553 75.9414 103.12 75.9414C104.43 75.9414 105.613 75.398 106.458 74.5261C105.625 75.3083 104.51 75.7902 103.278 75.7902Z" fill="#0A0C32"/>
<path d="M105.11 80.8527C107.393 79.5619 109.136 77.94 109.986 75.4113C109.36 78.075 107.689 79.9198 105.483 81.4434C105.359 81.2455 105.235 81.0485 105.11 80.8527Z" fill="white"/>
<path d="M92.0786 75.0294C93.2212 76.9944 94.3814 78.893 96.3011 80.2065C98.3658 81.6219 100.699 81.8692 103.12 82.0268C100.792 82.4943 98.3552 82.2868 96.2997 81.0263C94.1213 79.6893 92.7407 77.4586 92.0786 75.0294Z" fill="#0A0C32"/>
<path d="M100.822 70.0482L100.809 70.051L100.181 70.6784L99.936 70.2686L100.725 69.4843L101.216 69.3388L102.502 73.6418L101.946 73.8086L100.822 70.0482Z" fill="#0A0C32"/>
<path d="M104.019 72.4596C104.216 72.5154 104.644 72.5691 105.053 72.4455C105.802 72.2229 105.891 71.676 105.778 71.3213C105.591 70.7214 104.97 70.6232 104.407 70.7921L104.083 70.8882L103.953 70.4536L104.277 70.3547C104.702 70.2296 105.173 69.8495 105.02 69.3415C104.917 68.9952 104.608 68.7571 104.071 68.9154C103.727 69.02 103.442 69.2715 103.295 69.458L103.017 69.0807C103.192 68.8461 103.58 68.5522 104.044 68.4123C104.892 68.16 105.432 68.5465 105.589 69.0694C105.723 69.5195 105.563 69.971 105.091 70.3293L105.096 70.3413C105.655 70.2826 106.204 70.5511 106.385 71.1531C106.59 71.8428 106.226 72.6073 105.2 72.9139C104.716 73.0588 104.247 73.0333 103.992 72.95L104.019 72.4596Z" fill="#0A0C32"/>
<path d="M77.5734 40.2988C77.5734 42.4948 75.7935 44.2754 73.5968 44.2754C71.4014 44.2754 69.6201 42.4948 69.6201 40.2988C69.6201 38.1027 71.4014 36.3221 73.5968 36.3221C75.7935 36.3221 77.5734 38.1027 77.5734 40.2988Z" fill="#0A0C32"/>
<path d="M76.8132 38.8377C76.9319 39.1917 76.999 39.5698 76.999 39.9633C76.999 41.9156 75.417 43.4984 73.4647 43.4984C72.0346 43.4984 70.8058 42.6469 70.249 41.4267C70.7196 42.825 72.0402 43.834 73.5968 43.834C75.5491 43.834 77.1318 42.2512 77.1318 40.299C77.1318 39.7775 77.016 39.2836 76.8132 38.8377Z" fill="white"/>
<path d="M72.5599 37.8568C72.5599 38.1169 72.3387 38.3281 72.0631 38.3281C71.7883 38.3281 71.5664 38.1169 71.5664 37.8568C71.5664 37.5954 71.7883 37.3841 72.0631 37.3841C72.3387 37.3841 72.5599 37.5954 72.5599 37.8568Z" fill="white"/>
<path d="M71.469 38.5809C71.469 38.7222 71.3552 38.8359 71.2146 38.8359C71.074 38.8359 70.9609 38.7222 70.9609 38.5809C70.9609 38.441 71.074 38.3272 71.2146 38.3272C71.3552 38.3272 71.469 38.441 71.469 38.5809Z" fill="white"/>
<path d="M69.6204 40.2988C69.6204 42.4948 67.8412 44.2754 65.6445 44.2754C63.4484 44.2754 61.6675 42.4948 61.6675 40.2988C61.6675 38.1027 63.4484 36.3221 65.6445 36.3221C67.8412 36.3221 69.6204 38.1027 69.6204 40.2988Z" fill="#0A0C32"/>
<path d="M68.8598 38.8377C68.9799 39.1917 69.0471 39.5698 69.0471 39.9633C69.0471 41.9156 67.4643 43.4984 65.512 43.4984C64.0812 43.4984 62.8532 42.6469 62.2964 41.4267C62.767 42.825 64.0869 43.834 65.6449 43.834C67.5972 43.834 69.1799 42.2512 69.1799 40.299C69.1799 39.7775 69.0633 39.2836 68.8598 38.8377Z" fill="white"/>
<path d="M64.6081 37.8568C64.6081 38.1169 64.3856 38.3281 64.11 38.3281C63.8359 38.3281 63.6133 38.1169 63.6133 37.8568C63.6133 37.5954 63.8359 37.3841 64.11 37.3841C64.3856 37.3841 64.6081 37.5954 64.6081 37.8568Z" fill="white"/>
<path d="M63.5161 38.5809C63.5161 38.7222 63.4023 38.8359 63.2624 38.8359C63.1218 38.8359 63.0073 38.7222 63.0073 38.5809C63.0073 38.441 63.1218 38.3272 63.2624 38.3272C63.4023 38.3272 63.5161 38.441 63.5161 38.5809Z" fill="white"/>
<path d="M61.6676 40.2988C61.6676 42.4948 59.8873 44.2754 57.6908 44.2754C55.4952 44.2754 53.7144 42.4948 53.7144 40.2988C53.7144 38.1027 55.4952 36.3221 57.6908 36.3221C59.8873 36.3221 61.6676 38.1027 61.6676 40.2988Z" fill="#0A0C32"/>
<path d="M60.9073 38.8377C61.0257 39.1917 61.0933 39.5698 61.0933 39.9633C61.0933 41.9156 59.5104 43.4984 57.5584 43.4984C56.129 43.4984 54.8997 42.6469 54.3433 41.4267C54.8144 42.825 56.1334 43.834 57.6909 43.834C59.6428 43.834 61.2271 42.2512 61.2271 40.299C61.2271 39.7775 61.1101 39.2836 60.9073 38.8377Z" fill="white"/>
<path d="M56.6546 37.8568C56.6546 38.1169 56.4316 38.3281 56.157 38.3281C55.8824 38.3281 55.6602 38.1169 55.6602 37.8568C55.6602 37.5954 55.8824 37.3841 56.157 37.3841C56.4316 37.3841 56.6546 37.5954 56.6546 37.8568Z" fill="white"/>
<path d="M55.5629 38.5809C55.5629 38.7222 55.4489 38.8359 55.3087 38.8359C55.1682 38.8359 55.0542 38.7222 55.0542 38.5809C55.0542 38.441 55.1682 38.3272 55.3087 38.3272C55.4489 38.3272 55.5629 38.441 55.5629 38.5809Z" fill="white"/>
<path d="M85.5277 40.2988C85.5277 42.4948 83.7471 44.2754 81.5497 44.2754C79.3543 44.2754 77.5737 42.4948 77.5737 40.2988C77.5737 38.1027 79.3543 36.3221 81.5497 36.3221C83.7471 36.3221 85.5277 38.1027 85.5277 40.2988Z" fill="#0A0C32"/>
<path d="M84.767 38.8377C84.8857 39.1917 84.9528 39.5698 84.9528 39.9633C84.9528 41.9156 83.3708 43.4984 81.4185 43.4984C79.9877 43.4984 78.7596 42.6469 78.2021 41.4267C78.6741 42.825 79.9926 43.834 81.5499 43.834C83.5029 43.834 85.0864 42.2512 85.0864 40.299C85.0864 39.7775 84.9698 39.2836 84.767 38.8377Z" fill="white"/>
<path d="M80.5132 37.8568C80.5132 38.1169 80.2906 38.3281 80.0165 38.3281C79.7423 38.3281 79.519 38.1169 79.519 37.8568C79.519 37.5954 79.7423 37.3841 80.0165 37.3841C80.2906 37.3841 80.5132 37.5954 80.5132 37.8568Z" fill="white"/>
<path d="M79.4216 38.5809C79.4216 38.7222 79.3086 38.8359 79.1679 38.8359C79.0273 38.8359 78.9136 38.7222 78.9136 38.5809C78.9136 38.441 79.0273 38.3272 79.1679 38.3272C79.3086 38.3272 79.4216 38.441 79.4216 38.5809Z" fill="white"/>
<path d="M93.4804 40.2988C93.4804 42.4948 91.7005 44.2754 89.5038 44.2754C87.3084 44.2754 85.5278 42.4948 85.5278 40.2988C85.5278 38.1027 87.3084 36.3221 89.5038 36.3221C91.7005 36.3221 93.4804 38.1027 93.4804 40.2988Z" fill="#0A0C32"/>
<path d="M92.7204 38.8377C92.8384 39.1917 92.9062 39.5698 92.9062 39.9633C92.9062 41.9156 91.3242 43.4984 89.3712 43.4984C87.9411 43.4984 86.7123 42.6469 86.1562 41.4267C86.6275 42.825 87.946 43.834 89.504 43.834C91.4563 43.834 93.0384 42.2512 93.0384 40.299C93.0384 39.7775 92.9232 39.2836 92.7204 38.8377Z" fill="white"/>
<path d="M88.467 37.8568C88.467 38.1169 88.2438 38.3281 87.9703 38.3281C87.6947 38.3281 87.4722 38.1169 87.4722 37.8568C87.4722 37.5954 87.6947 37.3841 87.9703 37.3841C88.2438 37.3841 88.467 37.5954 88.467 37.8568Z" fill="white"/>
<path d="M87.3752 38.5809C87.3752 38.7222 87.2615 38.8359 87.1209 38.8359C86.981 38.8359 86.8672 38.7222 86.8672 38.5809C86.8672 38.441 86.981 38.3272 87.1209 38.3272C87.2615 38.3272 87.3752 38.441 87.3752 38.5809Z" fill="white"/>
<path d="M69.6204 48.4336C67.331 48.4336 65.4678 46.5703 65.4678 44.2796C65.4678 41.9896 67.331 40.1263 69.6204 40.1263C71.9104 40.1263 73.7744 41.9896 73.7744 44.2796C73.7744 46.5703 71.9104 48.4336 69.6204 48.4336Z" fill="white"/>
<path d="M69.6205 39.9495C67.2329 39.9495 65.2905 41.8912 65.2905 44.2794C65.2905 46.6677 67.2329 48.6094 69.6205 48.6094C72.0087 48.6094 73.9504 46.6677 73.9504 44.2794C73.9504 41.8912 72.0087 39.9495 69.6205 39.9495Z" fill="white"/>
<path d="M61.668 48.4336C59.3774 48.4336 57.5151 46.5703 57.5151 44.2796C57.5151 41.9896 59.3774 40.1263 61.668 40.1263C63.9584 40.1263 65.8223 41.9896 65.8223 44.2796C65.8223 46.5703 63.9584 48.4336 61.668 48.4336Z" fill="white"/>
<path d="M61.6675 39.9495C59.28 39.9495 57.3374 41.8912 57.3374 44.2794C57.3374 46.6677 59.28 48.6094 61.6675 48.6094C64.0554 48.6094 65.9978 46.6677 65.9978 44.2794C65.9978 41.8912 64.0554 39.9495 61.6675 39.9495Z" fill="white"/>
<path d="M77.574 48.4336C75.2839 48.4336 73.4214 46.5703 73.4214 44.2796C73.4214 41.9896 75.2839 40.1263 77.574 40.1263C79.8647 40.1263 81.7273 41.9896 81.7273 44.2796C81.7273 46.5703 79.8647 48.4336 77.574 48.4336Z" fill="white"/>
<path d="M77.5736 39.9495C75.1868 39.9495 73.2437 41.8912 73.2437 44.2794C73.2437 46.6677 75.1868 48.6094 77.5736 48.6094C79.9611 48.6094 81.9042 46.6677 81.9042 44.2794C81.9042 41.8912 79.9611 39.9495 77.5736 39.9495Z" fill="white"/>
<path d="M85.5273 48.4336C83.2366 48.4336 81.374 46.5703 81.374 44.2796C81.374 41.9896 83.2366 40.1263 85.5273 40.1263C87.8173 40.1263 89.6799 41.9896 89.6799 44.2796C89.6799 46.5703 87.8173 48.4336 85.5273 48.4336Z" fill="white"/>
<path d="M85.5279 39.9495C83.1397 39.9495 81.1973 41.8912 81.1973 44.2794C81.1973 46.6677 83.1397 48.6094 85.5279 48.6094C87.9154 48.6094 89.8578 46.6677 89.8578 44.2794C89.8578 41.8912 87.9154 39.9495 85.5279 39.9495Z" fill="white"/>
<path d="M73.5966 44.2766C73.5966 46.4719 71.8167 48.2539 69.62 48.2539C67.4246 48.2539 65.644 46.4719 65.644 44.2766C65.644 42.0798 67.4246 40.2999 69.62 40.2999C71.8167 40.2999 73.5966 42.0798 73.5966 44.2766Z" fill="#0A0C32"/>
<path d="M72.8374 42.817C72.9568 43.171 73.0225 43.5483 73.0225 43.9418C73.0225 45.8948 71.4405 47.4769 69.4889 47.4769C68.058 47.4769 66.8307 46.6254 66.2739 45.4045C66.7445 46.8035 68.0644 47.8125 69.621 47.8125C71.574 47.8125 73.156 46.2298 73.156 44.2775C73.156 43.7567 73.0402 43.2614 72.8374 42.817Z" fill="white"/>
<path d="M68.5845 41.8354C68.5845 42.0954 68.3612 42.3066 68.0864 42.3066C67.8115 42.3066 67.5903 42.0954 67.5903 41.8354C67.5903 41.5746 67.8115 41.3619 68.0864 41.3619C68.3612 41.3619 68.5845 41.5746 68.5845 41.8354Z" fill="white"/>
<path d="M67.4921 42.5613C67.4921 42.7019 67.3784 42.8164 67.2385 42.8164C67.0972 42.8164 66.9834 42.7019 66.9834 42.5613C66.9834 42.4207 67.0972 42.307 67.2385 42.307C67.3784 42.307 67.4921 42.4207 67.4921 42.5613Z" fill="white"/>
<path d="M65.6447 44.2766C65.6447 46.4719 63.8641 48.2539 61.6677 48.2539C59.472 48.2539 57.6909 46.4719 57.6909 44.2766C57.6909 42.0798 59.472 40.2999 61.6677 40.2999C63.8641 40.2999 65.6447 42.0798 65.6447 44.2766Z" fill="#0A0C32"/>
<path d="M64.8835 42.817C65.0022 43.171 65.0693 43.5483 65.0693 43.9418C65.0693 45.8948 63.4873 47.4769 61.535 47.4769C60.1052 47.4769 58.8767 46.6254 58.3203 45.4045C58.7909 46.8035 60.1097 47.8125 61.6675 47.8125C63.6201 47.8125 65.2028 46.2298 65.2028 44.2775C65.2028 43.7567 65.087 43.2614 64.8835 42.817Z" fill="white"/>
<path d="M60.6307 41.8354C60.6307 42.0954 60.4074 42.3066 60.1336 42.3066C59.8589 42.3066 59.6367 42.0954 59.6367 41.8354C59.6367 41.5746 59.8589 41.3619 60.1336 41.3619C60.4074 41.3619 60.6307 41.5746 60.6307 41.8354Z" fill="white"/>
<path d="M59.5393 42.5613C59.5393 42.7019 59.4258 42.8164 59.2842 42.8164C59.144 42.8164 59.0303 42.7019 59.0303 42.5613C59.0303 42.4207 59.144 42.307 59.2842 42.307C59.4258 42.307 59.5393 42.4207 59.5393 42.5613Z" fill="white"/>
<path d="M81.5497 44.2766C81.5497 46.4719 79.7713 48.2539 77.5738 48.2539C75.3778 48.2539 73.5972 46.4719 73.5972 44.2766C73.5972 42.0798 75.3778 40.2999 77.5738 40.2999C79.7713 40.2999 81.5497 42.0798 81.5497 44.2766Z" fill="#0A0C32"/>
<path d="M80.7902 42.817C80.9082 43.171 80.976 43.5483 80.976 43.9418C80.976 45.8948 79.3933 47.4769 77.4424 47.4769C76.0116 47.4769 74.7829 46.6254 74.2261 45.4045C74.6967 46.8035 76.0166 47.8125 77.5739 47.8125C79.5261 47.8125 81.1089 46.2298 81.1089 44.2775C81.1089 43.7567 80.993 43.2614 80.7902 42.817Z" fill="white"/>
<path d="M76.5364 41.8354C76.5364 42.0954 76.3138 42.3066 76.0404 42.3066C75.7655 42.3066 75.543 42.0954 75.543 41.8354C75.543 41.5746 75.7655 41.3619 76.0404 41.3619C76.3138 41.3619 76.5364 41.5746 76.5364 41.8354Z" fill="white"/>
<path d="M75.4446 42.5613C75.4446 42.7019 75.3315 42.8164 75.1909 42.8164C75.051 42.8164 74.9365 42.7019 74.9365 42.5613C74.9365 42.4207 75.051 42.307 75.1909 42.307C75.3315 42.307 75.4446 42.4207 75.4446 42.5613Z" fill="white"/>
<path d="M89.5041 44.2766C89.5041 46.4719 87.7235 48.2539 85.5281 48.2539C83.3321 48.2539 81.5508 46.4719 81.5508 44.2766C81.5508 42.0798 83.3321 40.2999 85.5281 40.2999C87.7235 40.2999 89.5041 42.0798 89.5041 44.2766Z" fill="#0A0C32"/>
<path d="M88.7438 42.817C88.8618 43.171 88.9304 43.5483 88.9304 43.9418C88.9304 45.8948 87.3476 47.4769 85.396 47.4769C83.9652 47.4769 82.7358 46.6254 82.1797 45.4045C82.651 46.8035 83.9695 47.8125 85.5282 47.8125C87.4798 47.8125 89.0625 46.2298 89.0625 44.2775C89.0625 43.7567 88.9466 43.2614 88.7438 42.817Z" fill="white"/>
<path d="M84.4896 41.8354C84.4896 42.0954 84.2677 42.3066 83.9935 42.3066C83.7187 42.3066 83.4961 42.0954 83.4961 41.8354C83.4961 41.5746 83.7187 41.3619 83.9935 41.3619C84.2677 41.3619 84.4896 41.5746 84.4896 41.8354Z" fill="white"/>
<path d="M83.3984 42.5613C83.3984 42.7019 83.2853 42.8164 83.1447 42.8164C83.0048 42.8164 82.8896 42.7019 82.8896 42.5613C82.8896 42.4207 83.0048 42.307 83.1447 42.307C83.2853 42.307 83.3984 42.4207 83.3984 42.5613Z" fill="white"/>
<path d="M73.5974 52.4102C71.3081 52.4102 69.4448 50.5462 69.4448 48.2569C69.4448 45.9661 71.3081 44.1029 73.5974 44.1029C75.8881 44.1029 77.7507 45.9661 77.7507 48.2569C77.7507 50.5462 75.8881 52.4102 73.5974 52.4102Z" fill="white"/>
<path d="M73.597 43.9247C71.2095 43.9247 69.2671 45.8678 69.2671 48.256C69.2671 50.6428 71.2095 52.5859 73.597 52.5859C75.9853 52.5859 77.927 50.6428 77.927 48.256C77.927 45.8678 75.9853 43.9247 73.597 43.9247Z" fill="white"/>
<path d="M65.6443 52.4102C63.3542 52.4102 61.4917 50.5462 61.4917 48.2569C61.4917 45.9661 63.3542 44.1029 65.6443 44.1029C67.9343 44.1029 69.7976 45.9661 69.7976 48.2569C69.7976 50.5462 67.9343 52.4102 65.6443 52.4102Z" fill="white"/>
<path d="M65.6443 43.9247C63.256 43.9247 61.314 45.8678 61.314 48.256C61.314 50.6428 63.256 52.5859 65.6443 52.5859C68.0311 52.5859 69.9735 50.6428 69.9735 48.256C69.9735 45.8678 68.0311 43.9247 65.6443 43.9247Z" fill="white"/>
<path d="M81.5493 52.4102C79.2593 52.4102 77.3975 50.5462 77.3975 48.2569C77.3975 45.9661 79.2593 44.1029 81.5493 44.1029C83.8408 44.1029 85.704 45.9661 85.704 48.2569C85.704 50.5462 83.8408 52.4102 81.5493 52.4102Z" fill="white"/>
<path d="M81.5499 43.9247C79.1638 43.9247 77.2207 45.8678 77.2207 48.256C77.2207 50.6428 79.1638 52.5859 81.5499 52.5859C83.9389 52.5859 85.8806 50.6428 85.8806 48.256C85.8806 45.8678 83.9389 43.9247 81.5499 43.9247Z" fill="white"/>
<path d="M77.5734 48.2545C77.5734 50.4499 75.7935 52.2305 73.5968 52.2305C71.4014 52.2305 69.6201 50.4499 69.6201 48.2545C69.6201 46.0578 71.4014 44.2772 73.5968 44.2772C75.7935 44.2772 77.5734 46.0578 77.5734 48.2545Z" fill="#0A0C32"/>
<path d="M76.8132 46.7948C76.9319 47.1488 76.999 47.5275 76.999 47.9204C76.999 49.8741 75.417 51.4554 73.4647 51.4554C72.0346 51.4554 70.8058 50.604 70.249 49.383C70.7196 50.7813 72.0402 51.791 73.5968 51.791C75.5491 51.791 77.1318 50.209 77.1318 48.2567C77.1318 47.7345 77.016 47.2399 76.8132 46.7948Z" fill="white"/>
<path d="M72.5599 45.8112C72.5599 46.0712 72.3387 46.2832 72.0631 46.2832C71.7883 46.2832 71.5664 46.0712 71.5664 45.8112C71.5664 45.5505 71.7883 45.3385 72.0631 45.3385C72.3387 45.3385 72.5599 45.5505 72.5599 45.8112Z" fill="white"/>
<path d="M71.469 46.5366C71.469 46.6758 71.3552 46.791 71.2146 46.791C71.074 46.791 70.9609 46.6758 70.9609 46.5366C70.9609 46.396 71.074 46.283 71.2146 46.283C71.3552 46.283 71.469 46.396 71.469 46.5366Z" fill="white"/>
<path d="M69.6204 48.2545C69.6204 50.4499 67.8398 52.2305 65.6445 52.2305C63.4484 52.2305 61.6675 50.4499 61.6675 48.2545C61.6675 46.0578 63.4484 44.2772 65.6445 44.2772C67.8398 44.2772 69.6204 46.0578 69.6204 48.2545Z" fill="#0A0C32"/>
<path d="M68.8598 46.7948C68.9799 47.1488 69.0471 47.5275 69.0471 47.9204C69.0471 49.8741 67.4643 51.4554 65.512 51.4554C64.0812 51.4554 62.8532 50.604 62.2964 49.383C62.767 50.7813 64.0869 51.791 65.6449 51.791C67.5972 51.791 69.1799 50.209 69.1799 48.2567C69.1799 47.7345 69.0633 47.2399 68.8598 46.7948Z" fill="white"/>
<path d="M64.6072 45.8112C64.6072 46.0712 64.3853 46.2832 64.1097 46.2832C63.8349 46.2832 63.6123 46.0712 63.6123 45.8112C63.6123 45.5505 63.8349 45.3385 64.1097 45.3385C64.3853 45.3385 64.6072 45.5505 64.6072 45.8112Z" fill="white"/>
<path d="M63.5161 46.5366C63.5161 46.6758 63.4023 46.791 63.2624 46.791C63.1218 46.791 63.0073 46.6758 63.0073 46.5366C63.0073 46.396 63.1218 46.283 63.2624 46.283C63.4023 46.283 63.5161 46.396 63.5161 46.5366Z" fill="white"/>
<path d="M85.5277 48.2545C85.5277 50.4499 83.7471 52.2305 81.5497 52.2305C79.3543 52.2305 77.5737 50.4499 77.5737 48.2545C77.5737 46.0578 79.3543 44.2772 81.5497 44.2772C83.7471 44.2772 85.5277 46.0578 85.5277 48.2545Z" fill="#0A0C32"/>
<path d="M84.7666 46.7948C84.8853 47.1488 84.9524 47.5275 84.9524 47.9204C84.9524 49.8741 83.3704 51.4554 81.4181 51.4554C79.9872 51.4554 78.7592 50.604 78.2031 49.383C78.6737 50.7813 79.9936 51.791 81.5495 51.791C83.5025 51.791 85.0859 50.209 85.0859 48.2567C85.0859 47.7345 84.9694 47.2399 84.7666 46.7948Z" fill="white"/>
<path d="M80.513 45.8112C80.513 46.0712 80.2904 46.2832 80.0163 46.2832C79.7421 46.2832 79.5195 46.0712 79.5195 45.8112C79.5195 45.5505 79.7421 45.3385 80.0163 45.3385C80.2904 45.3385 80.513 45.5505 80.513 45.8112Z" fill="white"/>
<path d="M79.4216 46.5366C79.4216 46.6758 79.3086 46.791 79.1679 46.791C79.0273 46.791 78.9136 46.6758 78.9136 46.5366C78.9136 46.396 79.0273 46.283 79.1679 46.283C79.3086 46.283 79.4216 46.396 79.4216 46.5366Z" fill="white"/>
<path d="M77.5738 47.9026C75.7939 47.9026 74.2613 48.983 73.5971 50.5205C72.9329 48.983 71.4003 47.9026 69.6205 47.9026C67.2329 47.9026 65.2905 49.845 65.2905 52.2326C65.2905 54.6208 67.2329 56.5625 69.6205 56.5625C71.4003 56.5625 72.9329 55.4828 73.5971 53.9446C74.2613 55.4828 75.7939 56.5625 77.5738 56.5625C79.9613 56.5625 81.9044 54.6208 81.9044 52.2326C81.9044 49.845 79.9613 47.9026 77.5738 47.9026Z" fill="white"/>
<path d="M73.5966 52.2323C73.5966 54.4291 71.8167 56.209 69.62 56.209C67.4246 56.209 65.644 54.4291 65.644 52.2323C65.644 50.0356 67.4246 48.2564 69.62 48.2564C71.8167 48.2564 73.5966 50.0356 73.5966 52.2323Z" fill="#0A0C32"/>
<path d="M72.8374 50.7706C72.9568 51.1239 73.0225 51.5034 73.0225 51.8969C73.0225 53.8492 71.4405 55.4312 69.4889 55.4312C68.058 55.4312 66.8307 54.5805 66.2739 53.3595C66.7445 54.7572 68.0644 55.7676 69.621 55.7676C71.574 55.7676 73.156 54.1841 73.156 52.2318C73.156 51.7111 73.0402 51.2151 72.8374 50.7706Z" fill="white"/>
<path d="M68.5845 49.7904C68.5845 50.0497 68.3612 50.2617 68.0864 50.2617C67.8115 50.2617 67.5903 50.0497 67.5903 49.7904C67.5903 49.529 67.8115 49.3177 68.0864 49.3177C68.3612 49.3177 68.5845 49.529 68.5845 49.7904Z" fill="white"/>
<path d="M67.4921 50.5145C67.4921 50.6544 67.3784 50.7695 67.2385 50.7695C67.0972 50.7695 66.9834 50.6544 66.9834 50.5145C66.9834 50.3753 67.0972 50.2608 67.2385 50.2608C67.3784 50.2608 67.4921 50.3753 67.4921 50.5145Z" fill="white"/>
<path d="M81.5497 52.2323C81.5497 54.4291 79.7713 56.209 77.5738 56.209C75.3778 56.209 73.5972 54.4291 73.5972 52.2323C73.5972 50.0356 75.3778 48.2564 77.5738 48.2564C79.7713 48.2564 81.5497 50.0356 81.5497 52.2323Z" fill="#0A0C32"/>
<path d="M80.7902 50.7706C80.9082 51.1239 80.976 51.5034 80.976 51.8969C80.976 53.8492 79.3933 55.4312 77.4424 55.4312C76.0116 55.4312 74.7829 54.5805 74.2261 53.3595C74.6967 54.7572 76.0166 55.7676 77.5739 55.7676C79.5261 55.7676 81.1089 54.1841 81.1089 52.2318C81.1089 51.7111 80.993 51.2151 80.7902 50.7706Z" fill="white"/>
<path d="M76.5364 49.7904C76.5364 50.0497 76.3138 50.2617 76.0404 50.2617C75.7655 50.2617 75.543 50.0497 75.543 49.7904C75.543 49.529 75.7655 49.3177 76.0404 49.3177C76.3138 49.3177 76.5364 49.529 76.5364 49.7904Z" fill="white"/>
<path d="M75.4446 50.5145C75.4446 50.6544 75.3315 50.7695 75.1909 50.7695C75.051 50.7695 74.9365 50.6544 74.9365 50.5145C74.9365 50.3753 75.051 50.2608 75.1909 50.2608C75.3315 50.2608 75.4446 50.3753 75.4446 50.5145Z" fill="white"/>
<path d="M73.5974 59.8711C71.3081 59.8711 69.4448 58.0078 69.4448 55.7178C69.4448 53.4285 71.3081 51.5652 73.5974 51.5652C75.8881 51.5652 77.7507 53.4285 77.7507 55.7178C77.7507 58.0078 75.8881 59.8711 73.5974 59.8711Z" fill="white"/>
<path d="M73.597 51.3877C71.2095 51.3877 69.2671 53.3294 69.2671 55.7169C69.2671 58.1052 71.2095 60.0469 73.597 60.0469C75.9853 60.0469 77.927 58.1052 77.927 55.7169C77.927 53.3294 75.9853 51.3877 73.597 51.3877Z" fill="white"/>
<path d="M77.5734 55.7167C77.5734 57.9135 75.7935 59.6934 73.5968 59.6934C71.4014 59.6934 69.6201 57.9135 69.6201 55.7167C69.6201 53.5207 71.4014 51.7408 73.5968 51.7408C75.7935 51.7408 77.5734 53.5207 77.5734 55.7167Z" fill="#0A0C32"/>
<path d="M76.8132 54.257C76.9319 54.6117 76.999 54.989 76.999 55.384C76.999 57.3369 75.417 58.919 73.4647 58.919C72.0346 58.919 70.8058 58.0683 70.249 56.8452C70.7196 58.2449 72.0402 59.2539 73.5968 59.2539C75.5491 59.2539 77.1318 57.6705 77.1318 55.7189C77.1318 55.1967 77.016 54.7035 76.8132 54.257Z" fill="white"/>
<path d="M72.5599 53.2753C72.5599 53.5368 72.3387 53.748 72.0631 53.748C71.7883 53.748 71.5664 53.5368 71.5664 53.2753C71.5664 53.0153 71.7883 52.8033 72.0631 52.8033C72.3387 52.8033 72.5599 53.0153 72.5599 53.2753Z" fill="white"/>
<path d="M71.469 54.0022C71.469 54.1421 71.3552 54.2559 71.2146 54.2559C71.074 54.2559 70.9609 54.1421 70.9609 54.0022C70.9609 53.8623 71.074 53.7478 71.2146 53.7478C71.3552 53.7478 71.469 53.8623 71.469 54.0022Z" fill="white"/>
<path d="M41.8546 108.936C51.6584 98.7992 61.5197 88.7199 71.2773 78.5388C81.4506 67.9253 91.5279 57.2191 101.734 46.6381C109.795 38.2809 117.878 29.9414 126.005 21.6493C126.016 21.6415 126.03 21.6401 126.04 21.6302C126.256 21.4125 126.191 20.9977 125.893 20.6995C125.598 20.4027 125.181 20.337 124.964 20.5539C124.964 20.5539 124.38 21.1263 124.278 21.2274C122.781 22.6937 121.286 24.1636 119.79 25.63C116.298 29.0574 112.764 32.4402 109.255 35.8457C98.8785 45.9137 88.4076 55.8807 77.9453 65.8575C67.3098 75.9983 56.7533 86.2167 46.2079 96.4489C38.1158 104.304 30.0357 112.169 21.9873 120.07C23.5012 121.584 25.0159 123.097 26.529 124.613C31.6468 119.397 36.7756 114.19 41.8546 108.936Z" fill="white"/>
<path d="M22.5916 120.074L26.5265 124.009L28.6586 121.836C32.8948 117.522 37.275 113.061 41.549 108.641C45.0739 104.998 48.6052 101.362 52.137 97.7255C58.3232 91.3538 64.7225 84.7662 70.9701 78.2444C75.2788 73.752 79.5678 69.2413 83.8582 64.7299C89.6027 58.6899 95.5429 52.4457 101.428 46.3429C110.715 36.7158 118.428 28.7749 125.702 21.3541C125.714 21.3414 125.728 21.3287 125.744 21.3174C125.751 21.2672 125.725 21.1322 125.594 21.0008C125.448 20.8545 125.296 20.8382 125.262 20.8573L120.087 25.9355C117.823 28.1559 115.541 30.3614 113.26 32.5648C112.022 33.7598 110.785 34.9548 109.551 36.1526C100.111 45.3111 90.435 54.5382 81.0756 63.4607L78.2387 66.1666C67.2923 76.6035 56.5187 87.0361 46.5042 96.7557C37.1821 105.802 29.5733 113.222 22.5916 120.074ZM26.2289 124.913L21.6877 120.372C21.6072 120.292 21.5622 120.182 21.563 120.069C21.563 119.956 21.6099 119.847 21.69 119.767C28.7563 112.833 36.4531 105.326 45.9133 96.1451C55.9277 86.4241 66.7045 75.9901 77.6515 65.5511L80.4892 62.8452C89.8464 53.9241 99.5224 44.6977 108.959 35.5428C110.193 34.3435 111.432 33.1492 112.669 31.9535C114.949 29.7508 117.23 27.5481 119.493 25.3292L124.667 20.251C125.052 19.8651 125.725 19.9301 126.196 20.4001C126.666 20.8707 126.73 21.5435 126.341 21.9307C126.321 21.9519 126.293 21.9732 126.264 21.9922C119.025 29.3805 111.317 37.3151 102.041 46.9344C96.1569 53.0337 90.2181 59.2779 84.4743 65.3157C80.1839 69.8279 75.8929 74.3386 71.5841 78.8337C65.3323 85.3569 58.9343 91.9462 52.747 98.3181C49.2157 101.953 45.6839 105.589 42.1604 109.232C37.8839 113.654 33.502 118.117 29.2645 122.432L26.8325 124.911C26.7533 124.992 26.6452 125.039 26.532 125.039C26.4186 125.039 26.3097 124.993 26.2289 124.913Z" fill="#0A0C32"/>
<path d="M26.5293 124.615C25.2574 125.886 23.2094 125.901 21.955 124.647C20.7008 123.393 20.7157 121.345 21.9876 120.072C23.2602 118.8 25.3085 118.785 26.5629 120.039C27.8169 121.293 27.8022 123.341 26.5293 124.615Z" fill="#0A0C32"/>
<path d="M26.2615 120.338C25.176 119.252 23.3935 119.267 22.2894 120.372C21.1838 121.477 21.1691 123.26 22.256 124.347C23.3419 125.433 25.1249 125.417 26.2289 124.311C27.3338 123.208 27.3484 121.425 26.2615 120.338ZM21.6549 124.946C20.2365 123.528 20.2511 121.207 21.6877 119.771C23.1238 118.334 25.4456 118.32 26.8631 119.737C28.281 121.156 28.2664 123.477 26.8298 124.912C25.394 126.35 23.0711 126.364 21.6549 124.946Z" fill="#0A0C32"/>
<path d="M27.2463 122.355C27.1773 123.025 26.8856 123.677 26.3697 124.193C25.1914 125.371 23.2969 125.385 22.1363 124.224C21.5592 123.646 21.2721 122.888 21.2754 122.125C21.1877 122.982 21.4689 123.865 22.122 124.518C23.2815 125.677 25.1762 125.664 26.354 124.488C26.9452 123.897 27.2427 123.123 27.2463 122.355Z" fill="white"/>
<path d="M71.4843 78.3228C71.1734 76.7553 69.8486 75.426 68.2835 75.1116C60.9042 82.2023 53.5525 89.3199 46.2079 96.4476C43.532 99.0452 40.8621 101.646 38.189 104.246C40.4269 104.122 42.4845 106.188 42.3492 108.426C51.9883 98.4608 61.6842 88.5475 71.2773 78.5375C71.3472 78.4655 71.4144 78.3934 71.4843 78.3228Z" fill="#0A0C32"/>
<path d="M33.7598 108.72C33.2837 109.185 32.8072 109.647 32.3301 110.11C34.5671 109.987 36.6239 112.053 36.4895 114.291C36.9513 113.812 37.4163 113.334 37.8798 112.857C37.9844 110.649 35.9678 108.624 33.7598 108.72Z" fill="#0A0C32"/>
<path d="M36.7172 105.762C36.2405 106.225 35.7634 106.688 35.2866 107.153C37.5239 107.028 39.5811 109.094 39.445 111.332C39.9084 110.853 40.3727 110.375 40.8366 109.896C40.9423 107.689 38.923 105.665 36.7172 105.762Z" fill="#0A0C32"/>
<path d="M28.6499 120.619C28.6499 120.619 28.8351 120.401 29.1599 120.02C29.4948 119.645 29.954 119.094 30.5353 118.463C31.1174 117.832 31.7834 117.083 32.5198 116.303C33.2523 115.518 34.05 114.697 34.8451 113.873C35.6494 113.06 36.4513 112.245 37.2185 111.493C37.9795 110.738 38.7145 110.055 39.3328 109.459C39.9497 108.863 40.4904 108.392 40.8555 108.048C41.2312 107.715 41.4453 107.524 41.4453 107.524C41.4453 107.524 41.2598 107.744 40.935 108.125C40.6005 108.499 40.1418 109.051 39.5605 109.681C38.977 110.314 38.3129 111.063 37.576 111.841C36.8429 112.626 36.0456 113.447 35.2495 114.271C34.4458 115.084 33.6435 115.901 32.8772 116.65C32.1141 117.404 31.3801 118.088 30.7627 118.685C30.1445 119.282 29.6054 119.754 29.2394 120.096C28.8638 120.43 28.6499 120.619 28.6499 120.619Z" fill="#0A0C32"/>
<path d="M70.4009 77.1276L107.001 39.8568L70.8072 77.5234L70.4009 77.1276Z" fill="#0A0C32"/>
<path d="M68.8599 79.132C68.8599 79.132 68.4939 79.5424 67.8509 80.2596C67.2015 80.9676 66.2872 81.9959 65.1623 83.2016C64.0353 84.4044 62.738 85.8255 61.3152 87.3186C59.8945 88.8112 58.3779 90.4039 56.8612 91.9954C55.3277 93.5708 53.7929 95.145 52.354 96.6213C50.916 98.099 49.5442 99.4472 48.3833 100.618C47.2214 101.79 46.2266 102.74 45.5435 103.417C44.8516 104.084 44.4541 104.467 44.4541 104.467C44.4541 104.467 44.8215 104.057 45.4645 103.34C46.1153 102.632 47.0273 101.603 48.154 100.398C49.2809 99.1935 50.5768 97.771 52.0001 96.2807C53.4216 94.7876 54.9383 93.1953 56.4546 91.6031C57.989 90.028 59.523 88.4537 60.9624 86.9774C62.401 85.5003 63.7718 84.1526 64.9327 82.9811C66.0964 81.8107 67.0892 80.8603 67.7724 80.1833C68.4663 79.514 68.8599 79.132 68.8599 79.132Z" fill="white"/>
<path d="M124.614 23.0781C125.078 22.604 125.54 22.1257 126.005 21.6515C126.016 21.6438 126.03 21.6424 126.04 21.6325C126.256 21.4148 126.191 21.0001 125.893 20.7019C125.598 20.4051 125.181 20.3394 124.964 20.5563C124.964 20.5563 124.38 21.1287 124.278 21.2297C124.023 21.4791 123.768 21.7286 123.515 21.978L124.614 23.0781Z" fill="#0A0C32"/>
<path d="M105.34 108.936C95.5376 98.7992 85.6751 88.7199 75.9172 78.5388C65.7439 67.9253 55.6671 57.2191 45.4611 46.6381C37.3997 38.2809 29.3174 29.9414 21.1895 21.6493C21.1784 21.6415 21.1646 21.6401 21.1547 21.6302C20.9389 21.4125 21.0037 20.9977 21.3013 20.6995C21.5965 20.4027 22.0139 20.337 22.2311 20.5539C22.2311 20.5539 22.8151 21.1263 22.917 21.2274C24.4135 22.6937 25.9087 24.1636 27.4051 25.63C30.8967 29.0574 34.4307 32.4402 37.9401 35.8457C48.3164 45.9137 58.7871 55.8807 69.2492 65.8575C79.8847 75.9983 90.4424 86.2167 100.987 96.4489C109.08 104.304 117.159 112.169 125.208 120.07C123.693 121.584 122.179 123.097 120.666 124.613C115.548 119.397 110.42 114.19 105.34 108.936Z" fill="white"/>
<path d="M124.604 120.074L120.669 124.009L118.537 121.836C114.301 117.522 109.921 113.061 105.646 108.641C102.121 104.998 98.5909 101.362 95.0587 97.7255C88.8719 91.3538 82.4738 84.7662 76.2248 78.2444C71.9175 73.752 67.6271 69.2413 63.3367 64.7299C57.5924 58.6899 51.6524 52.4457 45.7671 46.3429C36.4806 36.7158 28.7672 28.7749 21.493 21.3541C21.4812 21.3414 21.4673 21.3287 21.4513 21.3174C21.4436 21.2672 21.4701 21.1322 21.6009 21.0008C21.7469 20.8545 21.8992 20.8382 21.9335 20.8573L27.1075 25.9355C29.3722 28.1559 31.654 30.3614 33.9357 32.5648C35.1737 33.7598 36.4102 34.9548 37.6447 36.1526C47.0842 45.3111 56.7602 54.5382 66.12 63.4607L68.9562 66.1666C79.9026 76.6035 90.6765 87.0361 100.692 96.7557C110.014 105.802 117.622 113.222 124.604 120.074ZM120.966 124.913L125.507 120.372C125.588 120.292 125.633 120.182 125.633 120.069C125.633 119.956 125.586 119.847 125.505 119.767C118.439 112.833 110.743 105.326 101.282 96.1451C91.2679 86.4241 80.4911 75.9901 69.5441 65.5511L66.7071 62.8452C57.3487 53.9241 47.673 44.6977 38.2368 35.5428C37.0022 34.3435 35.7643 33.1492 34.5261 31.9535C32.2463 29.7508 29.9654 27.5481 27.7029 25.3292L22.5283 20.251C22.1433 19.8651 21.4701 19.9301 20.9995 20.4001C20.5297 20.8707 20.4654 21.5435 20.8541 21.9307C20.8742 21.9519 20.9026 21.9732 20.9313 21.9922C28.1707 29.3805 35.8785 37.3151 45.1546 46.9344C51.0383 53.0337 56.9769 59.2779 62.7206 65.3157C67.0131 69.8279 71.3035 74.3386 75.6108 78.8337C81.8626 85.3569 88.2614 91.9462 94.449 98.3181C97.9812 101.953 101.511 105.589 105.035 109.232C109.312 113.654 113.693 118.117 117.931 122.432L120.363 124.911C120.442 124.992 120.55 125.039 120.664 125.039C120.778 125.039 120.886 124.993 120.966 124.913Z" fill="#0A0C32"/>
<path d="M120.666 124.615C121.938 125.886 123.987 125.901 125.241 124.647C126.495 123.393 126.48 121.345 125.208 120.072C123.935 118.8 121.887 118.785 120.633 120.039C119.379 121.293 119.394 123.341 120.666 124.615Z" fill="#0A0C32"/>
<path d="M120.934 120.338C122.02 119.252 123.802 119.267 124.906 120.372C126.011 121.477 126.026 123.26 124.939 124.347C123.854 125.433 122.071 125.417 120.966 124.311C119.861 123.208 119.847 121.425 120.934 120.338ZM125.541 124.946C126.959 123.528 126.944 121.207 125.507 119.771C124.072 118.334 121.75 118.32 120.332 119.737C118.914 121.156 118.929 123.477 120.366 124.912C121.801 126.35 124.124 126.364 125.541 124.946Z" fill="#0A0C32"/>
<path d="M119.95 122.355C120.018 123.025 120.31 123.677 120.826 124.193C122.004 125.371 123.898 125.385 125.059 124.224C125.637 123.646 125.923 122.888 125.92 122.125C126.008 122.982 125.727 123.865 125.073 124.518C123.913 125.677 122.019 125.664 120.841 124.488C120.25 123.897 119.953 123.123 119.95 122.355Z" fill="white"/>
<path d="M75.7104 78.3228C76.0213 76.7553 77.3462 75.426 78.912 75.1116C86.2908 82.2023 93.6442 89.3199 100.987 96.4476C103.664 99.0452 106.334 101.646 109.006 104.246C106.769 104.122 104.711 106.188 104.847 108.426C95.2065 98.4608 85.5114 88.5475 75.9175 78.5375C75.8489 78.4655 75.7811 78.3934 75.7104 78.3228Z" fill="#0A0C32"/>
<path d="M113.435 108.72C113.912 109.185 114.389 109.647 114.865 110.11C112.628 109.987 110.571 112.053 110.707 114.291C110.244 113.812 109.779 113.334 109.316 112.857C109.211 110.649 111.228 108.624 113.435 108.72Z" fill="#0A0C32"/>
<path d="M110.479 105.762C110.956 106.225 111.433 106.688 111.909 107.153C109.673 107.028 107.616 109.094 107.751 111.332C107.288 110.853 106.824 110.375 106.359 109.896C106.253 107.689 108.273 105.665 110.479 105.762Z" fill="#0A0C32"/>
<path d="M118.546 120.619C118.546 120.619 118.361 120.401 118.037 120.02C117.701 119.645 117.242 119.094 116.661 118.463C116.078 117.832 115.412 117.083 114.676 116.303C113.943 115.518 113.145 114.697 112.351 113.873C111.547 113.06 110.744 112.245 109.977 111.493C109.216 110.738 108.481 110.055 107.864 109.459C107.246 108.863 106.706 108.392 106.34 108.048C105.964 107.715 105.751 107.524 105.751 107.524C105.751 107.524 105.936 107.744 106.26 108.125C106.595 108.499 107.055 109.051 107.636 109.681C108.218 110.314 108.883 111.063 109.62 111.841C110.354 112.626 111.15 113.447 111.946 114.271C112.75 115.084 113.552 115.901 114.319 116.65C115.081 117.404 115.816 118.088 116.433 118.685C117.051 119.282 117.59 119.754 117.958 120.096C118.332 120.43 118.546 120.619 118.546 120.619Z" fill="#0A0C32"/>
<path d="M76.7949 77.1276L40.1943 39.8568L76.3886 77.5234L76.7949 77.1276Z" fill="#0A0C32"/>
<path d="M78.3359 79.132C78.3359 79.132 78.7019 79.5424 79.3449 80.2596C79.995 80.9676 80.9086 81.9959 82.0349 83.2016C83.1619 84.4044 84.4592 85.8255 85.8808 87.3186C87.3025 88.8112 88.8188 90.4039 90.3351 91.9954C91.8698 93.5708 93.4045 95.145 94.8438 96.6213C96.2803 98.099 97.6525 99.4472 98.8127 100.618C99.9757 101.79 100.97 102.74 101.652 103.417C102.346 104.084 102.742 104.467 102.742 104.467C102.742 104.467 102.375 104.057 101.732 103.34C101.082 102.632 100.169 101.603 99.043 100.398C97.916 99.1935 96.6195 97.771 95.1971 96.2807C93.7748 94.7876 92.2584 93.1953 90.7421 91.6031C89.2081 90.028 87.6734 88.4537 86.2334 86.9774C84.7955 85.5003 83.4247 84.1526 82.2638 82.9811C81.1008 81.8107 80.1073 80.8603 79.4241 80.1833C78.7309 79.514 78.3359 79.132 78.3359 79.132Z" fill="white"/>
<path d="M22.5803 23.0781C22.1163 22.604 21.6546 22.1257 21.1895 21.6515C21.1784 21.6438 21.1646 21.6424 21.1547 21.6325C20.9389 21.4148 21.0037 21.0001 21.3013 20.7019C21.5965 20.4051 22.0139 20.3394 22.2311 20.5563C22.2311 20.5563 22.8151 21.1287 22.917 21.2297C23.1712 21.4791 23.4265 21.7286 23.6802 21.978L22.5803 23.0781Z" fill="#0A0C32"/>
<rect x="0.700195" y="0.5" width="145.4" height="145.4" rx="11.5" stroke="url(#paint2_linear_3858_32726)"/>
<rect x="0.700195" y="0.5" width="145.4" height="145.4" rx="11.5" stroke="url(#paint3_linear_3858_32726)"/>
<defs>
<linearGradient id="paint0_linear_3858_32726" x1="70.2146" y1="113.173" x2="70.2146" y2="80.5183" gradientUnits="userSpaceOnUse">
<stop stop-color="#E00A14"/>
<stop offset="0.999999" stop-color="#F97F4E"/>
<stop offset="1" stop-color="#F97F4E"/>
</linearGradient>
<linearGradient id="paint1_linear_3858_32726" x1="73.1001" y1="126.012" x2="73.1001" y2="72.071" gradientUnits="userSpaceOnUse">
<stop stop-color="#E00A14"/>
<stop offset="0.999999" stop-color="#F97F4E"/>
<stop offset="1" stop-color="#F97F4E"/>
</linearGradient>
<linearGradient id="paint2_linear_3858_32726" x1="146.6" y1="154.048" x2="106.76" y2="143.236" gradientUnits="userSpaceOnUse">
<stop stop-color="#F97F4E"/>
<stop offset="0.963951" stop-color="#F97F4E" stop-opacity="0"/>
</linearGradient>
<linearGradient id="paint3_linear_3858_32726" x1="0.2002" y1="-10" x2="62.562" y2="45.6478" gradientUnits="userSpaceOnUse">
<stop offset="0.207631" stop-color="#F97F4E"/>
<stop offset="1" stop-color="#F97F4E" stop-opacity="0"/>
</linearGradient>
</defs>
</svg>
