<svg width="147" height="147" viewBox="0 0 147 147" fill="none" xmlns="http://www.w3.org/2000/svg">
<g opacity="0.4">
<path d="M58.6616 84.6938C58.6616 91.3866 64.0131 96.8125 70.6141 96.8125C77.2156 96.8125 82.5674 91.3866 82.5674 84.6938C82.5674 78.0011 77.2156 72.576 70.6141 72.576C64.0131 72.576 58.6616 78.0011 58.6616 84.6938Z" fill="url(#paint0_linear_3858_32694)"/>
<path d="M61.8137 36.0344C59.2517 39.9066 55.5133 42.7872 51.9323 45.7131C45.876 50.6601 40.0282 55.9968 35.5408 62.4362C31.0531 68.8756 27.9773 76.5375 28.0001 84.4218C28.0272 93.6739 32.3592 102.568 38.6402 109.279C48.2442 119.541 62.5743 125.053 76.4754 123.832C90.3765 122.612 103.558 114.683 111.278 102.9C113.714 99.1827 115.59 95.1062 116.882 90.8447C119.688 81.5965 119.746 71.4762 116.816 62.2598C116.711 66.1737 114.328 70.0282 110.748 71.497C108.1 72.5836 104.893 72.2387 102.57 70.5463C94.6729 64.7928 102.994 53.7596 99.1672 46.3538C95.9062 40.0448 86.7157 40.3061 81.3681 35.6867C78.2532 32.9965 76.6893 28.5799 77.4054 24.4955C73.4411 30.0581 72.491 37.436 73.7786 44.1736C75.0666 50.9111 78.4016 57.0869 82.3542 62.6578C86.2825 68.1944 91.0325 73.6486 91.909 80.4105C92.5088 85.0354 91.1496 89.7785 88.7406 93.7525C85.3564 99.3339 79.7667 103.608 73.4291 104.888C65.7954 106.431 57.4972 103.396 52.3759 97.4542C47.2539 91.5117 45.3858 82.9333 47.2833 75.2804C49.6957 65.5514 57.3469 58.2423 63.0404 50.0378C65.9275 45.8781 68.4054 41.2406 68.9545 36.1848C69.3792 32.2796 68.2133 24.514 63.8809 23C64.5996 27.8347 64.6709 31.7163 61.8137 36.0344" fill="url(#paint1_linear_3858_32694)"/>
</g>
<path d="M65.2086 49.2441C65.1852 48.8842 65.1571 48.4761 65.1945 48.0761C65.2741 47.2688 65.1555 46.7004 64.8365 46.3381C64.4645 45.9148 63.9434 45.9148 63.633 45.9148C63.1439 45.9148 62.7165 46.298 62.484 46.5569L45.643 42.6905C45.583 42.5726 45.5214 42.454 45.4574 42.3338C45.3934 42.2135 45.3373 42.1077 45.2952 42.0211C44.92 41.2507 43.6829 41.0142 42.977 40.9413C42.8265 40.9268 42.7032 40.9108 42.5964 40.8972C42.0465 40.8282 41.8678 40.8202 41.0824 41.0399C40.7935 41.1241 40.5242 41.2675 40.2907 41.4615L29.2116 38.9195C29.2428 38.7351 29.2552 38.5539 29.2248 38.3623C29.1882 38.1322 29.0782 37.5342 26.4652 37.5903C26.4597 37.571 26.4621 37.5478 26.4558 37.5286C26.3396 37.1718 26.0814 36.9746 25.7273 36.9746C25.5463 36.9746 25.3654 37.0243 25.1743 37.0772C25.0487 37.1117 24.9145 37.1494 24.7741 37.1702C24.647 37.1874 24.5192 37.2 24.3912 37.2079C23.899 37.2464 23.2859 37.2937 22.7368 37.7787C22.2446 38.2124 22.0574 38.7719 21.8406 39.4213C21.7563 39.6738 21.6643 39.9488 21.5442 40.2462C21.19 41.12 21.2173 41.5874 21.2462 42.0828C21.2548 42.2247 21.2634 42.3738 21.2634 42.547C21.2634 42.826 21.2134 43.4657 21.1604 44.1415C21.0668 45.3336 20.9607 46.6836 21.0145 47.3009C21.0411 47.5967 21.0411 48.0609 21.0411 48.5523C21.0411 49.8959 21.0606 50.8867 21.3055 51.391C21.5863 51.969 21.8242 52.0948 22.2532 52.284C22.4131 52.3538 22.6159 52.4428 22.8873 52.5951C23.8233 53.1202 26.3115 54.0605 27.3747 54.4245C28.0408 54.653 28.7615 54.7083 29.2677 54.7123C29.2552 55.1965 29.2194 55.9982 29.1148 56.5337L29.0142 57.058C28.8551 57.8885 28.6383 59.0253 28.3668 60.2077C28.1835 61.011 27.8185 62.1309 27.4659 63.2148C27.1921 64.0581 26.9332 64.8534 26.7842 65.4282C26.6196 66.0615 26.4184 67.0099 26.2234 67.9262C26.0198 68.8858 25.8271 69.7924 25.7031 70.2189C25.4091 71.2282 25.6376 73.2011 25.8622 74.2802C25.9691 74.7924 26.0284 75.4073 26.0916 76.0599C26.1727 76.8944 26.2561 77.7562 26.4504 78.5033C26.6126 79.1278 26.5791 80.376 26.5463 81.5817C26.5151 82.7386 26.4862 83.8336 26.6103 84.5583C26.7483 85.3616 26.8107 86.9746 26.8661 88.3959C26.9098 89.5198 26.9503 90.5837 27.0244 91.225C27.2101 92.8468 27.7202 96.0518 28.2958 97.745C28.8567 99.3924 29.0212 102.942 28.9432 103.664C28.9136 103.997 28.781 105.686 29.0571 106.35C29.2779 106.88 29.7513 107.003 30.4346 106.902C30.5875 106.878 30.7513 106.852 30.9221 106.852C31.5851 106.852 32.401 106.773 33.6482 106.591C34.0234 106.538 34.4812 106.53 34.9204 106.53L35.6216 106.531C36.478 106.531 37.0919 106.494 37.5076 106.304C37.9093 106.121 38.2923 105.919 38.5887 105.592C38.5053 106.237 38.4592 106.896 38.545 107.379C38.7252 108.397 39.0489 108.971 40.2322 109.082C40.5138 109.108 40.7283 109.125 40.9038 109.125C41.4615 109.125 41.7438 108.934 42.133 108.535C42.6003 108.056 43.0378 107.221 43.4778 105.984C43.7679 105.165 43.874 103.152 43.952 101.683C43.9684 101.354 43.984 101.057 44.0004 100.812C44.0284 100.369 44.0791 99.9776 44.122 99.6257C44.2078 98.941 44.2812 98.351 44.1587 97.781C43.9668 96.896 43.4177 96.3284 42.8842 95.7817C42.4365 95.3215 42.4365 95.3215 42.4957 94.8301C42.587 94.0789 42.3249 91.6218 42.1603 90.5155C41.9817 89.3299 41.548 87.5766 41.2321 86.435C41.1392 86.1056 41.0412 85.7776 40.9381 85.4514C40.7665 84.9023 40.6627 84.5728 40.6627 84.2305C40.6627 83.8529 40.5504 82.7297 40.4311 81.5401C40.3539 80.7705 40.279 80.0201 40.2447 79.5688C40.2088 79.0813 40.1136 78.4873 40.0138 77.8604C39.882 77.0347 39.7455 76.1793 39.7455 75.5692C39.7455 74.4702 39.435 73.0151 39.1441 72.0219C38.9241 71.2699 38.8266 67.9542 38.8266 66.8207C38.8266 65.9581 39.2166 63.8818 39.6308 62.8596C40.1285 61.605 40.6039 60.3411 41.0566 59.0685C41.2984 58.3863 42.0675 56.8511 42.6299 55.7312C42.8249 55.3432 42.9988 54.9961 43.1252 54.7371C43.5363 53.8914 43.3717 53.3695 43.2274 52.9101C43.165 52.7081 43.1041 52.5181 43.0815 52.2848C43.0651 52.1133 43.0347 51.9113 43.0027 51.694C42.9052 51.0294 42.7422 49.9175 43.0909 49.6482C43.6533 49.2145 43.8225 48.8064 43.9598 48.4793C44.0066 48.3719 44.0472 48.2661 44.1096 48.1603C44.1564 48.0809 44.1993 47.9991 44.2422 47.919C44.3092 47.7923 44.4216 47.5815 44.4582 47.5566C44.5651 47.5999 44.7219 47.7185 44.8607 47.822C45.1056 48.0071 45.2998 48.153 45.5229 48.153C45.7538 48.153 46.0018 47.9831 46.0018 47.6087C46.0018 47.2512 45.8224 46.876 45.6633 46.5449C45.6007 46.422 45.5435 46.2963 45.4917 46.1681C45.498 46.0896 45.6282 45.8579 45.7148 45.7048C45.87 45.4282 46.0635 45.0843 46.1563 44.7059C46.1976 44.5351 46.2007 44.3531 46.1758 44.1616L62.0839 47.6825C62.1237 48.3783 62.25 49.9648 62.6104 50.7056C62.8475 51.1922 63.2367 51.4599 63.7079 51.4599C64.1181 51.4599 64.569 51.2499 64.9114 50.8972C65.2975 50.5035 65.2546 49.8919 65.2086 49.2441V49.2441ZM42.4996 41.7028C42.612 41.7165 42.7414 41.7333 42.8998 41.7493C43.9029 41.8528 44.4723 42.143 44.5885 42.3851L44.6275 42.4572L41.5558 41.7525C42.0231 41.6355 42.1549 41.6587 42.4996 41.7028V41.7028ZM42.2469 49.4998C42.2144 49.458 42.1745 49.4229 42.1291 49.3964C41.1666 48.8465 39.4717 48.2492 38.9748 48.0793C38.7788 48.0123 38.5768 47.9651 38.3719 47.9382L38.4265 47.8636C38.6012 47.628 38.7611 47.3923 38.8687 47.1013C39.2665 47.3843 40.2158 47.8091 40.6869 48.2933C41.0816 48.699 41.9217 49.0221 42.4333 49.192C42.3568 49.2846 42.294 49.3883 42.2469 49.4998V49.4998ZM38.1114 43.7687C37.7409 44.3018 37.9101 44.9841 38.0591 45.5853C38.134 45.8883 38.205 46.1737 38.205 46.407C38.205 46.8223 38.0607 47.0179 37.7978 47.3738C37.6831 47.5302 37.5568 47.7001 37.4312 47.9077C37.4023 47.955 37.3797 47.9815 37.3532 48.0208C37.2751 48.049 37.1999 48.085 37.1286 48.1282C37.0833 48.1597 37.0452 48.2009 37.0168 48.2489C36.9885 48.2969 36.9704 48.3506 36.964 48.4064C36.8454 48.4705 36.7066 48.5218 36.4944 48.59L36.2214 48.6805C36.0753 48.7321 35.9359 48.8021 35.8065 48.889C35.4687 48.5884 33.2707 46.6259 32.3565 45.7649C31.9267 45.36 31.3534 44.6907 30.7996 44.0437C30.0384 43.1547 29.3808 42.3867 28.9612 42.1173C28.6266 41.9025 28.4058 41.4511 28.2935 41.2162C28.416 41.0639 28.5291 40.8763 28.6195 40.6342C28.664 40.5156 28.7061 40.4057 28.7467 40.3015L39.2151 42.6191L39.141 42.6793C38.7915 42.9631 38.5154 43.1875 38.1114 43.7687ZM26.2288 39.6762C26.3396 39.281 26.455 38.8321 26.5026 38.4024C27.3645 38.392 28.2007 38.4689 28.4557 38.5868C28.4674 38.8369 28.3621 39.1167 28.1352 39.6899C28.0611 39.879 27.976 40.0931 27.8832 40.3416C27.6609 40.9364 27.2912 40.9861 26.9324 41.0351C26.7561 41.0591 26.59 41.0815 26.4465 41.1794L26.8567 41.8696C26.884 41.86 26.9714 41.8479 27.0354 41.8391C27.1984 41.8167 27.4176 41.7854 27.6461 41.694C27.8052 42.0163 28.0798 42.5061 28.5423 42.8035C28.8637 43.0104 29.5774 43.8433 30.2068 44.5784C30.7747 45.2414 31.3612 45.9268 31.823 46.3613C32.3947 46.9 33.4618 47.8628 34.2706 48.5884C34.095 48.5731 33.9188 48.5664 33.7426 48.5683L33.0921 48.5723C32.3971 48.5723 31.8051 48.703 31.1772 48.8417C31.0461 48.8713 30.9081 48.8994 30.7716 48.9283C30.3215 48.432 28.5587 46.4896 28.1133 46.0318C27.8216 45.7312 27.2272 44.463 26.7936 43.5371C26.5977 43.1083 26.3925 42.6841 26.1781 42.2648C25.8996 41.7404 25.6608 41.1947 25.4637 40.6326C25.7733 40.4354 26.0916 40.1684 26.2288 39.6762V39.6762ZM27.0829 49.002C26.3895 49.002 25.6665 49.0421 25.2702 49.0678C25.1384 48.6733 24.9067 47.9655 24.7952 47.5085C24.7 47.1181 24.6603 45.7489 24.6275 44.6482C24.6064 43.9403 24.5869 43.2757 24.5557 42.8588C24.4762 41.7982 24.6478 41.3228 24.7936 41.1128C24.9356 41.4968 25.1587 42.0403 25.4847 42.6544C25.6438 42.9542 25.8537 43.4032 26.0822 43.8906C26.7179 45.2478 27.196 46.2371 27.5556 46.6066C27.9082 46.969 29.1577 48.3406 29.8426 49.0942C29.2084 49.1776 28.6702 49.1399 28.1398 49.0774C27.8154 49.0405 27.4823 49.002 27.0829 49.002ZM22.5644 51.5377C22.2204 51.3862 22.1767 51.3669 22.0122 51.0278C21.8312 50.6559 21.8312 49.4397 21.8312 48.5523C21.8312 48.0416 21.8312 47.5598 21.8016 47.2271C21.7532 46.6796 21.8608 45.3087 21.9482 44.2064C22.0051 43.4825 22.0543 42.858 22.0543 42.5462C22.0543 42.3554 22.0449 42.1895 22.0356 42.0331C22.0083 41.5666 21.9895 41.2579 22.2742 40.5581C22.4022 40.243 22.4997 39.952 22.5886 39.6842C22.7828 39.103 22.9224 38.6838 23.2524 38.3936C23.6057 38.0825 23.998 38.052 24.452 38.0168C24.6002 38.0056 24.7461 37.9935 24.8872 37.9727C25.0536 37.9452 25.2182 37.9074 25.3802 37.8596C25.5136 37.8228 25.6516 37.7851 25.7086 37.7851C25.831 38.1619 25.6142 38.9379 25.4527 39.5183C25.388 39.75 25.1251 39.9047 24.8459 40.0698C24.654 40.1829 24.4559 40.2999 24.3015 40.4587C23.8545 40.918 23.6806 41.7229 23.7695 42.9206C23.7999 43.3278 23.8186 43.9796 23.8389 44.673C23.8756 45.93 23.9146 47.2303 24.03 47.7057C24.2001 48.404 24.608 49.5816 24.6259 49.6313C24.6549 49.7153 24.7101 49.7871 24.7829 49.8356C24.8557 49.884 24.942 49.9063 25.0284 49.8991C25.5815 49.8576 26.1354 49.8306 26.6898 49.8181C26.6937 50.7553 26.7117 52.4404 26.7928 53.3567C25.5869 52.9133 23.9427 52.2616 23.2664 51.8824C23.0383 51.7552 22.804 51.6402 22.5644 51.5377V51.5377ZM38.3727 104.016C38.304 105.002 37.8774 105.245 37.1871 105.561C36.8407 105.719 36.0475 105.719 35.6216 105.719L34.9204 105.717C34.4524 105.717 33.961 105.726 33.5367 105.787C32.3277 105.965 31.5453 106.04 30.9213 106.04C30.7107 106.04 30.5071 106.068 30.3184 106.098C30.1897 106.116 30.0703 106.137 29.9619 106.137C29.8379 106.137 29.8207 106.12 29.7825 106.029C29.6632 105.741 29.6601 104.88 29.6998 104.175C29.7442 104.193 29.7902 104.206 29.8371 104.214C30.3379 104.299 32.6748 103.699 33.759 103.27C34.1575 103.113 34.351 102.932 34.4399 102.753C34.5756 102.988 34.7332 103.196 34.9594 103.351C35.3174 103.597 35.9617 103.658 36.8322 103.721C37.1527 103.742 37.5919 103.773 37.7026 103.819C37.7582 103.843 37.8182 103.852 37.8781 103.848C37.9379 103.843 37.9959 103.824 38.0474 103.793C38.0903 103.768 38.2377 103.699 38.343 103.686C38.3422 103.689 38.3906 103.763 38.3727 104.016V104.016ZM38.9842 103.216C38.9647 103.187 38.9436 103.163 38.9218 103.135C38.8468 103.054 38.7561 102.991 38.6556 102.948C38.5551 102.905 38.447 102.885 38.3383 102.888C38.1348 102.888 37.9413 102.953 37.8095 103.009C37.5958 102.962 37.297 102.94 36.8852 102.911C36.4071 102.876 35.6068 102.822 35.3962 102.676C35.0405 102.433 34.897 101.991 34.645 100.785C34.3908 99.5679 34.0647 96.7348 33.9852 95.3568C33.9009 93.8857 33.4875 90.7248 33.312 89.7315C33.1365 88.739 32.6592 84.2641 32.7325 83.5891C32.7559 83.3719 32.7925 82.6993 32.8339 81.8343C32.8549 81.8976 32.8791 81.9561 32.9049 82.0114C33.0047 82.2231 33.1545 83.4568 33.2644 84.3587C33.4009 85.4803 33.5413 86.6427 33.7098 87.3321C33.8627 87.9598 34.099 89.6529 34.3276 91.2891C34.6045 93.27 34.865 95.1411 35.0506 95.7592C35.2152 96.3092 36.7776 101.325 37.1855 101.955C37.4562 102.372 37.9819 102.372 38.155 102.372C38.3812 102.372 38.6269 102.341 38.85 102.311C38.9475 102.298 39.0388 102.286 39.1308 102.278C39.1191 102.522 39.0364 102.949 38.9842 103.216V103.216ZM43.3397 99.5206C43.2921 99.8902 43.2422 100.297 43.2126 100.759C43.1962 101.005 43.1806 101.306 43.1634 101.64C43.0924 102.979 42.9848 105.001 42.7352 105.709C42.3421 106.817 41.9529 107.573 41.5753 107.962C41.2641 108.281 41.1697 108.314 40.9038 108.314C40.7033 108.309 40.5032 108.296 40.3039 108.273C39.6136 108.209 39.467 108.054 39.3211 107.232C39.201 106.553 39.4327 105.241 39.57 104.455C39.6082 104.238 39.6394 104.056 39.6573 103.931C39.6776 103.782 39.715 103.596 39.7533 103.399C39.8835 102.734 39.9904 102.18 39.8539 101.827C39.9436 101.429 40.194 100.343 40.3874 99.8125C40.4056 99.7626 40.4141 99.7095 40.4124 99.6563C40.4107 99.6031 40.3988 99.5507 40.3774 99.5022C40.356 99.4537 40.3255 99.4101 40.2877 99.3737C40.2499 99.3373 40.2054 99.3089 40.1569 99.2902C40.1084 99.2714 40.0568 99.2627 40.005 99.2645C39.9532 99.2662 39.9023 99.2784 39.8551 99.3004C39.8079 99.3224 39.7654 99.3538 39.73 99.3927C39.6946 99.4315 39.667 99.4772 39.6487 99.5271C39.4631 100.038 39.2416 100.963 39.1261 101.465C39.0005 101.476 38.8751 101.489 38.7502 101.506C38.5534 101.536 38.3548 101.554 38.1558 101.559C37.9 101.559 37.8438 101.505 37.8438 101.505C37.7931 101.426 37.7034 101.215 37.5903 100.916C37.8407 100.7 38.3454 100.196 38.7673 99.329C39.3516 98.1281 39.8523 98.557 41.0208 97.3561C41.598 96.7637 42.0722 96.5272 42.4053 96.4382C42.8475 96.8952 43.2555 97.3393 43.3888 97.9582C43.4817 98.3863 43.4193 98.8865 43.3397 99.5206ZM42.4201 54.3732C42.2953 54.6305 42.1229 54.9736 41.9295 55.3584C41.3257 56.5617 40.5746 58.0592 40.3164 58.7904C39.8677 60.0513 39.3965 61.3037 38.9031 62.547C38.4834 63.5827 38.0396 65.7729 38.0388 66.8142C37.5108 66.803 36.5654 66.7669 35.9297 66.6483C35.0116 66.4775 33.4259 66.5625 32.0071 66.391C30.8379 66.2499 28.4253 66.1665 27.4246 66.1416C27.4675 65.9581 27.5088 65.7881 27.5478 65.6382C27.6906 65.0875 27.9456 64.3034 28.2163 63.4729C28.5743 62.3714 28.9448 61.233 29.1367 60.3945C29.4112 59.1968 29.6296 58.0512 29.7895 57.2143L29.8902 56.6924C30.0625 55.8058 30.0649 54.3579 30.0649 54.297C30.0648 54.2414 30.0536 54.1865 30.032 54.1355C30.0104 54.0846 29.9788 54.0387 29.9392 54.0009C29.8997 53.963 29.8529 53.9338 29.802 53.9153C29.751 53.8967 29.6969 53.8891 29.6429 53.893C29.6226 53.8946 28.5696 53.9788 27.6258 53.6557V53.6549C27.5408 53.3807 27.4885 51.569 27.4807 49.8309C27.6742 49.8446 27.8622 49.863 28.0517 49.8846C28.6055 49.948 29.249 49.9953 29.9728 49.8967C30.433 49.8296 30.8902 49.743 31.3433 49.6369C31.954 49.5023 32.4813 49.386 33.0921 49.386L33.7426 49.382C34.4563 49.382 34.6209 49.4606 34.7519 49.6963C34.8104 49.8021 34.9898 50.1235 35.3416 50.1235C35.5881 50.1235 35.762 49.9656 35.9305 49.8125C36.0763 49.6794 36.2409 49.5295 36.471 49.4509L36.7331 49.3636C37.1816 49.2169 37.4928 49.1118 37.815 48.7351C38.0068 48.7054 38.3001 48.7046 38.7252 48.8505C39.7143 49.1888 41.0278 49.6971 41.7462 50.1067C41.8046 50.14 41.8704 50.1574 41.9373 50.1572C41.9966 50.155 42.0547 50.1391 42.1073 50.1107C42.0574 50.6518 42.1424 51.2683 42.2227 51.8143C42.2516 52.0171 42.2797 52.2047 42.2961 52.365C42.3265 52.6849 42.406 52.9366 42.4755 53.1587C42.6073 53.5739 42.6861 53.8248 42.4201 54.3732V54.3732ZM45.3934 44.5063C45.3279 44.774 45.1719 45.0514 45.0346 45.2967C44.8233 45.6695 44.6431 45.9926 44.7258 46.3325C44.7687 46.5072 44.8599 46.6988 44.9574 46.9016L44.959 46.9065C44.8936 46.8661 44.8253 46.8309 44.7546 46.8014C44.658 46.761 44.5548 46.7397 44.4504 46.7389C44.239 46.7389 44.0823 46.8311 43.9512 46.9546C43.6751 46.8808 43.1416 46.7854 42.6034 46.5778C41.9357 46.3204 41.768 46.1489 40.5169 45.2911C39.7174 44.7428 39.2603 44.1976 39.0333 43.8738C39.2275 43.6461 39.3968 43.5042 39.6285 43.3158L39.7618 43.2068C39.8921 43.1001 40.0052 42.9631 40.1191 42.8196L41.0855 43.0336C41.0062 43.0281 40.9266 43.0379 40.8507 43.0625C40.35 43.234 40.183 43.8345 40.183 43.8345C40.35 44.1776 40.4334 44.5199 40.9342 44.778C41.4349 45.0362 41.6019 45.8932 42.1861 45.55C42.7695 45.2069 42.853 44.6065 42.4357 44.006C42.1557 43.6036 41.7641 43.2444 41.3842 43.1001L45.3279 43.9732C45.3942 44.18 45.427 44.3708 45.3934 44.5063V44.5063ZM64.3576 50.3216C64.1688 50.5164 63.9099 50.647 63.7133 50.647C63.5994 50.647 63.4528 50.6126 63.3218 50.3416C63.016 49.7147 62.8889 48.0168 62.8631 47.369L62.9497 47.2504C63.0823 47.0676 63.4208 46.7269 63.6345 46.7269C63.9083 46.7269 64.1259 46.7389 64.2531 46.8832C64.4075 47.0588 64.4644 47.454 64.4114 47.9959C64.3646 48.4657 64.395 48.9098 64.4231 49.3018C64.4535 49.7395 64.4839 50.1917 64.3576 50.3216V50.3216Z" fill="url(#paint2_linear_3858_32694)"/>
<path d="M63.3598 103.75H62.7998V104.746H63.3598V103.75Z" fill="url(#paint3_linear_3858_32694)"/>
<path d="M65.7737 100.324C65.7334 100.829 65.4557 101.303 64.997 101.649C64.5383 101.996 63.9329 102.188 63.304 102.188H62.8916C62.2626 102.188 61.6573 101.996 61.1986 101.649C60.7398 101.303 60.4621 100.829 60.4219 100.324H65.7737Z" fill="url(#paint4_linear_3858_32694)"/>
<path d="M64.5414 101.922H61.6543V102.852H64.5414V101.922Z" fill="url(#paint5_linear_3858_32694)"/>
<path d="M63.9227 102.854H62.2729V103.849H63.9227V102.854Z" fill="url(#paint6_linear_3858_32694)"/>
<path d="M65.0379 100.324H60.4219C60.4504 100.684 60.6005 101.03 60.856 101.327C61.2717 101.563 61.7685 101.691 62.2778 101.69H62.6903C63.2103 101.69 63.7171 101.558 64.1385 101.313C64.5599 101.067 64.8746 100.722 65.0379 100.324Z" fill="url(#paint7_linear_3858_32694)"/>
<path d="M61.6543 102.621H63.3453C63.4471 102.621 63.5472 102.6 63.6355 102.559C63.7237 102.518 63.7968 102.459 63.8474 102.388C63.898 102.317 63.9242 102.236 63.9234 102.154C63.9225 102.073 63.8946 101.992 63.8425 101.922H61.6543V102.621Z" fill="url(#paint8_linear_3858_32694)"/>
<path d="M63.304 102.854H62.2729V103.849H63.304V102.854Z" fill="url(#paint9_linear_3858_32694)"/>
<path d="M69 70.5C69 71.8807 67.8807 73 66.5 73C65.1193 73 64 71.8807 64 70.5C64 69.1193 65.1193 68 66.5 68C67.8807 68 69 69.1193 69 70.5Z" fill="url(#paint10_linear_3858_32694)"/>
<g clip-path="url(#clip0_3858_32694)">
<path d="M117.631 75.6457C117.631 77.2084 114.339 78.4746 110.276 78.4746C106.214 78.4746 102.921 77.2084 102.921 75.6457C102.921 74.083 106.214 72.8167 110.276 72.8167C114.339 72.8167 117.631 74.083 117.631 75.6457Z" fill="url(#paint11_linear_3858_32694)"/>
<path d="M107.447 45.659V75.0801C107.447 75.7059 107.954 76.0352 108.579 76.0352C109.203 76.0352 109.71 75.7059 109.71 75.0801V45.659H107.447Z" fill="url(#paint12_linear_3858_32694)"/>
<path d="M107.447 44.5282C107.447 42.0387 107.5 40.0019 107.5 40.0019L122.421 45.3497C127.589 47.244 127.137 46.7913 122.421 48.3948L111.71 52.2207C109.365 53.058 107.447 51.7058 107.447 49.2163V44.5282Z" fill="url(#paint13_linear_3858_32694)"/>
</g>
<rect x="1.1001" y="0.5" width="145.4" height="145.4" rx="11.5" stroke="url(#paint14_linear_3858_32694)"/>
<rect x="1.1001" y="0.5" width="145.4" height="145.4" rx="11.5" stroke="url(#paint15_linear_3858_32694)"/>
<defs>
<linearGradient id="paint0_linear_3858_32694" x1="70.6145" y1="113.173" x2="70.6145" y2="80.5183" gradientUnits="userSpaceOnUse">
<stop stop-color="#E00A14"/>
<stop offset="0.999999" stop-color="#F97F4E"/>
<stop offset="1" stop-color="#F97F4E"/>
</linearGradient>
<linearGradient id="paint1_linear_3858_32694" x1="73.5" y1="126.012" x2="73.5" y2="72.071" gradientUnits="userSpaceOnUse">
<stop stop-color="#E00A14"/>
<stop offset="0.999999" stop-color="#F97F4E"/>
<stop offset="1" stop-color="#F97F4E"/>
</linearGradient>
<linearGradient id="paint2_linear_3858_32694" x1="43.1189" y1="36.9746" x2="43.1189" y2="109.125" gradientUnits="userSpaceOnUse">
<stop stop-color="#F47F4F"/>
<stop offset="1" stop-color="#3E00FF"/>
</linearGradient>
<linearGradient id="paint3_linear_3858_32694" x1="63.0798" y1="103.75" x2="63.0798" y2="104.746" gradientUnits="userSpaceOnUse">
<stop stop-color="#F47F4F"/>
<stop offset="1" stop-color="#3E00FF"/>
</linearGradient>
<linearGradient id="paint4_linear_3858_32694" x1="63.0978" y1="100.324" x2="63.0978" y2="102.188" gradientUnits="userSpaceOnUse">
<stop stop-color="#F47F4F"/>
<stop offset="1" stop-color="#3E00FF"/>
</linearGradient>
<linearGradient id="paint5_linear_3858_32694" x1="63.0978" y1="101.922" x2="63.0978" y2="102.852" gradientUnits="userSpaceOnUse">
<stop stop-color="#F47F4F"/>
<stop offset="1" stop-color="#3E00FF"/>
</linearGradient>
<linearGradient id="paint6_linear_3858_32694" x1="63.0978" y1="102.854" x2="63.0978" y2="103.849" gradientUnits="userSpaceOnUse">
<stop stop-color="#F47F4F"/>
<stop offset="1" stop-color="#3E00FF"/>
</linearGradient>
<linearGradient id="paint7_linear_3858_32694" x1="62.7299" y1="100.324" x2="62.7299" y2="101.69" gradientUnits="userSpaceOnUse">
<stop stop-color="#F47F4F"/>
<stop offset="1" stop-color="#3E00FF"/>
</linearGradient>
<linearGradient id="paint8_linear_3858_32694" x1="62.7888" y1="101.922" x2="62.7888" y2="102.621" gradientUnits="userSpaceOnUse">
<stop stop-color="#F47F4F"/>
<stop offset="1" stop-color="#3E00FF"/>
</linearGradient>
<linearGradient id="paint9_linear_3858_32694" x1="62.7885" y1="102.854" x2="62.7885" y2="103.849" gradientUnits="userSpaceOnUse">
<stop stop-color="#F47F4F"/>
<stop offset="1" stop-color="#3E00FF"/>
</linearGradient>
<linearGradient id="paint10_linear_3858_32694" x1="66.5" y1="68" x2="66.5" y2="73" gradientUnits="userSpaceOnUse">
<stop stop-color="#F97F4E"/>
<stop offset="1" stop-color="#000080"/>
</linearGradient>
<linearGradient id="paint11_linear_3858_32694" x1="110.276" y1="78.4746" x2="110.276" y2="72.8167" gradientUnits="userSpaceOnUse">
<stop stop-color="#F47F4F"/>
<stop offset="1" stop-color="#3E00FF"/>
</linearGradient>
<linearGradient id="paint12_linear_3858_32694" x1="108.579" y1="76.0352" x2="108.579" y2="45.659" gradientUnits="userSpaceOnUse">
<stop stop-color="#F47F4F"/>
<stop offset="1" stop-color="#3E00FF"/>
</linearGradient>
<linearGradient id="paint13_linear_3858_32694" x1="115.814" y1="52.4687" x2="115.814" y2="41.2758" gradientUnits="userSpaceOnUse">
<stop stop-color="#3E00FF"/>
<stop offset="1" stop-color="#F47F4F"/>
</linearGradient>
<linearGradient id="paint14_linear_3858_32694" x1="147" y1="154.048" x2="107.16" y2="143.236" gradientUnits="userSpaceOnUse">
<stop stop-color="#F97F4E"/>
<stop offset="0.963951" stop-color="#F97F4E" stop-opacity="0"/>
</linearGradient>
<linearGradient id="paint15_linear_3858_32694" x1="0.600102" y1="-10" x2="62.9619" y2="45.6478" gradientUnits="userSpaceOnUse">
<stop offset="0.207631" stop-color="#F97F4E"/>
<stop offset="1" stop-color="#F97F4E" stop-opacity="0"/>
</linearGradient>
<clipPath id="clip0_3858_32694">
<rect width="25" height="39" fill="white" transform="translate(102 40)"/>
</clipPath>
</defs>
</svg>
