<svg width="20" height="20" viewBox="0 0 20 20" fill="none" xmlns="http://www.w3.org/2000/svg">
<path d="M10 20C4.477 20 0 15.523 0 10C0 4.477 4.477 0 10 0C15.523 0 20 4.477 20 10C20 15.523 15.523 20 10 20ZM10 18C12.1217 18 14.1566 17.1571 15.6569 15.6569C17.1571 14.1566 18 12.1217 18 10C18 7.87827 17.1571 5.84344 15.6569 4.34315C14.1566 2.84285 12.1217 2 10 2C7.87827 2 5.84344 2.84285 4.34315 4.34315C2.84285 5.84344 2 7.87827 2 10C2 12.1217 2.84285 14.1566 4.34315 15.6569C5.84344 17.1571 7.87827 18 10 18V18ZM9 14H6V6H9V4H11V6H12C12.4643 6 12.9194 6.12929 13.3143 6.37337C13.7093 6.61746 14.0284 6.9667 14.2361 7.38197C14.4437 7.79723 14.5316 8.26211 14.4899 8.72451C14.4482 9.18692 14.2786 9.62858 14 10C14.2786 10.3714 14.4482 10.8131 14.4899 11.2755C14.5316 11.7379 14.4437 12.2028 14.2361 12.618C14.0284 13.0333 13.7093 13.3825 13.3143 13.6266C12.9194 13.8707 12.4643 14 12 14H11V16H9V14ZM8 11V12H12C12.1326 12 12.2598 11.9473 12.3536 11.8536C12.4473 11.7598 12.5 11.6326 12.5 11.5C12.5 11.3674 12.4473 11.2402 12.3536 11.1464C12.2598 11.0527 12.1326 11 12 11H8ZM8 8V9H12C12.1326 9 12.2598 8.94732 12.3536 8.85355C12.4473 8.75979 12.5 8.63261 12.5 8.5C12.5 8.36739 12.4473 8.24021 12.3536 8.14645C12.2598 8.05268 12.1326 8 12 8H8Z" fill="#FB6D3A"/>
</svg>
