<svg width="15" height="15" viewBox="0 0 15 15" fill="none" xmlns="http://www.w3.org/2000/svg">
<path d="M10.9375 1.5625H4.0625C3.97962 1.5625 3.90013 1.59542 3.84153 1.65403C3.78292 1.71263 3.75 1.79212 3.75 1.875C3.75 1.95788 3.78292 2.03737 3.84153 2.09597C3.90013 2.15458 3.97962 2.1875 4.0625 2.1875H10.9375C11.0204 2.1875 11.0999 2.15458 11.1585 2.09597C11.2171 2.03737 11.25 1.95788 11.25 1.875C11.25 1.79212 11.2171 1.71263 11.1585 1.65403C11.0999 1.59542 11.0204 1.5625 10.9375 1.5625Z" fill="#C52229"/>
<path fill-rule="evenodd" clip-rule="evenodd" d="M4.0625 1.25H10.9375C11.1033 1.25 11.2622 1.31585 11.3794 1.43306C11.4967 1.55027 11.5625 1.70924 11.5625 1.875C11.5625 2.04076 11.4967 2.19973 11.3794 2.31694C11.2622 2.43415 11.1033 2.5 10.9375 2.5H4.0625C3.89674 2.5 3.73777 2.43415 3.62056 2.31694C3.50335 2.19973 3.4375 2.04076 3.4375 1.875C3.4375 1.70924 3.50335 1.55027 3.62056 1.43306C3.73777 1.31585 3.89674 1.25 4.0625 1.25ZM4.0625 1.5625H10.9375C11.0204 1.5625 11.0999 1.59542 11.1585 1.65403C11.2171 1.71263 11.25 1.79212 11.25 1.875C11.25 1.95788 11.2171 2.03737 11.1585 2.09597C11.0999 2.15458 11.0204 2.1875 10.9375 2.1875H4.0625C3.97962 2.1875 3.90013 2.15458 3.84153 2.09597C3.78292 2.03737 3.75 1.95788 3.75 1.875C3.75 1.79212 3.78292 1.71263 3.84153 1.65403C3.90013 1.59542 3.97962 1.5625 4.0625 1.5625Z" fill="#9B0F15"/>
<path fill-rule="evenodd" clip-rule="evenodd" d="M3.90625 1.71875C3.90625 1.67731 3.92271 1.63757 3.95201 1.60826C3.98132 1.57896 4.02106 1.5625 4.0625 1.5625H5.54688C5.58832 1.5625 5.62806 1.57896 5.65736 1.60826C5.68666 1.63757 5.70312 1.67731 5.70312 1.71875C5.70312 1.76019 5.68666 1.79993 5.65736 1.82924C5.62806 1.85854 5.58832 1.875 5.54688 1.875H4.0625C4.02106 1.875 3.98132 1.85854 3.95201 1.82924C3.92271 1.79993 3.90625 1.76019 3.90625 1.71875Z" fill="#DF3840"/>
<path d="M9.84375 1.25H5.15625C5.11481 1.25 5.07507 1.26646 5.04576 1.29576C5.01646 1.32507 5 1.36481 5 1.40625V9.21875C5 9.26019 5.01646 9.29993 5.04576 9.32924C5.07507 9.35854 5.11481 9.375 5.15625 9.375H9.84375C9.88519 9.375 9.92493 9.35854 9.95424 9.32924C9.98354 9.29993 10 9.26019 10 9.21875V1.40625C10 1.36481 9.98354 1.32507 9.95424 1.29576C9.92493 1.26646 9.88519 1.25 9.84375 1.25Z" fill="#F1333B"/>
<path fill-rule="evenodd" clip-rule="evenodd" d="M5.15625 0.9375H9.84375C9.96807 0.9375 10.0873 0.986886 10.1752 1.07479C10.2631 1.1627 10.3125 1.28193 10.3125 1.40625V9.21875C10.3125 9.34307 10.2631 9.4623 10.1752 9.55021C10.0873 9.63811 9.96807 9.6875 9.84375 9.6875H5.15625C5.03193 9.6875 4.9127 9.63811 4.82479 9.55021C4.73689 9.4623 4.6875 9.34307 4.6875 9.21875V1.40625C4.6875 1.28193 4.73689 1.1627 4.82479 1.07479C4.9127 0.986886 5.03193 0.9375 5.15625 0.9375ZM5.15625 1.25H9.84375C9.88519 1.25 9.92493 1.26646 9.95424 1.29576C9.98354 1.32507 10 1.36481 10 1.40625V9.21875C10 9.26019 9.98354 9.29993 9.95424 9.32924C9.92493 9.35854 9.88519 9.375 9.84375 9.375H5.15625C5.11481 9.375 5.07507 9.35854 5.04576 9.32924C5.01646 9.29993 5 9.26019 5 9.21875V1.40625C5 1.36481 5.01646 1.32507 5.04576 1.29576C5.07507 1.26646 5.11481 1.25 5.15625 1.25Z" fill="#9B0F15"/>
<path fill-rule="evenodd" clip-rule="evenodd" d="M5.29297 1.42578C5.33441 1.42578 5.37415 1.44224 5.40345 1.47155C5.43276 1.50085 5.44922 1.54059 5.44922 1.58203V8.82813H9.45312C9.49457 8.82813 9.53431 8.84459 9.56361 8.87389C9.59291 8.90319 9.60938 8.94294 9.60938 8.98438C9.60938 9.02582 9.59291 9.06556 9.56361 9.09486C9.53431 9.12416 9.49457 9.14063 9.45312 9.14063H5.29297C5.25153 9.14063 5.21179 9.12416 5.18248 9.09486C5.15318 9.06556 5.13672 9.02582 5.13672 8.98438V1.58203C5.13672 1.54059 5.15318 1.50085 5.18248 1.47155C5.21179 1.44224 5.25153 1.42578 5.29297 1.42578Z" fill="#FE666D"/>
<path d="M8.90109 6.14891C9.54891 6.05375 10.1117 6.17672 10.4831 6.54813C10.8545 6.91953 10.9775 7.4825 10.8823 8.13016C11.4078 8.52109 11.7188 9.00594 11.7188 9.53125C11.7188 10.0566 11.4078 10.5414 10.8823 10.9322C10.9775 11.5802 10.8545 12.143 10.4831 12.5144C10.1117 12.8858 9.54875 13.0088 8.90094 12.9136C8.51031 13.4391 8.02531 13.75 7.5 13.75C6.97469 13.75 6.48984 13.4391 6.09906 12.9136C5.45125 13.0089 4.88828 12.8858 4.51688 12.5144C4.14547 12.143 4.0225 11.58 4.11766 10.9322C3.59219 10.5416 3.28125 10.0566 3.28125 9.53125C3.28125 9.00594 3.59219 8.52109 4.11766 8.13016C4.0225 7.4825 4.14547 6.91953 4.51688 6.54813C4.88828 6.17672 5.45125 6.05375 6.09891 6.14891C6.48984 5.62359 6.97469 5.3125 7.5 5.3125C8.02531 5.3125 8.51016 5.62344 8.90109 6.14891Z" fill="#FFBB0D"/>
<path fill-rule="evenodd" clip-rule="evenodd" d="M9.03813 5.81813C9.67656 5.76031 10.2787 5.90172 10.7041 6.32719C11.1295 6.75266 11.2708 7.35469 11.2133 7.99312C11.7055 8.40406 12.0312 8.92969 12.0312 9.53125C12.0312 10.133 11.7055 10.6586 11.2133 11.0694C11.2709 11.7078 11.1295 12.31 10.7041 12.7353C10.2786 13.1608 9.67656 13.3022 9.03797 13.2445C8.62734 13.7367 8.10187 14.0625 7.5 14.0625C6.89844 14.0625 6.37266 13.7367 5.96203 13.2445C5.32344 13.3022 4.72141 13.1608 4.29594 12.7353C3.87047 12.3098 3.72906 11.7078 3.78672 11.0694C3.29453 10.6584 2.96875 10.1328 2.96875 9.53125C2.96875 8.92953 3.29453 8.40391 3.78672 7.99312C3.72922 7.35469 3.87047 6.75266 4.29594 6.32719C4.72141 5.90172 5.32344 5.76047 5.96187 5.81813C6.37266 5.32578 6.89844 5 7.5 5C8.10172 5 8.62734 5.32578 9.03813 5.81813ZM8.90109 6.14891C8.51016 5.62359 8.02531 5.3125 7.5 5.3125C6.97469 5.3125 6.48984 5.62344 6.09891 6.14891C5.45109 6.05375 4.88828 6.17672 4.51688 6.54813C4.14547 6.91953 4.0225 7.4825 4.11766 8.13016C3.59219 8.52109 3.28125 9.00594 3.28125 9.53125C3.28125 10.0566 3.59219 10.5414 4.11766 10.9322C4.0225 11.5802 4.14547 12.143 4.51688 12.5144C4.88828 12.8858 5.45125 13.0088 6.09906 12.9136C6.48969 13.4391 6.97469 13.75 7.5 13.75C8.02531 13.75 8.51016 13.4391 8.90094 12.9136C9.54891 13.0089 10.1117 12.8858 10.4831 12.5144C10.8545 12.143 10.9775 11.58 10.8823 10.9322C11.4078 10.5416 11.7188 10.0566 11.7188 9.53125C11.7188 9.00594 11.4078 8.52109 10.8823 8.13016C10.9775 7.4825 10.8545 6.91953 10.4831 6.54813C10.1117 6.17672 9.54875 6.05375 8.90109 6.14891Z" fill="#E89B05"/>
<path fill-rule="evenodd" clip-rule="evenodd" d="M11.4062 9.375C11.4477 9.375 11.4874 9.39146 11.5167 9.42076C11.546 9.45007 11.5625 9.48981 11.5625 9.53125C11.5625 10.0573 11.2661 10.5266 10.7984 10.8975C10.8669 11.4903 10.7447 12.0319 10.3727 12.4038C10.0006 12.7759 9.45906 12.8981 8.86625 12.8297C8.49531 13.2973 8.02609 13.5938 7.5 13.5938C7.45856 13.5938 7.41882 13.5773 7.38951 13.548C7.36021 13.5187 7.34375 13.4789 7.34375 13.4375C7.34375 13.3961 7.36021 13.3563 7.38951 13.327C7.41882 13.2977 7.45856 13.2812 7.5 13.2812C7.91969 13.2812 8.32734 13.033 8.67188 12.5698C8.6887 12.5472 8.71134 12.5295 8.73739 12.5187C8.76344 12.5079 8.79193 12.5044 8.81984 12.5084C9.39109 12.5923 9.85484 12.4797 10.1517 12.183C10.4484 11.8861 10.5611 11.4223 10.4772 10.8512C10.4731 10.8233 10.4766 10.7948 10.4874 10.7687C10.4983 10.7426 10.5159 10.72 10.5386 10.7031C11.0016 10.3586 11.25 9.95094 11.25 9.53125C11.25 9.48981 11.2665 9.45007 11.2958 9.42076C11.3251 9.39146 11.3648 9.375 11.4062 9.375Z" fill="#EEAD04"/>
<path d="M8.53781 7.02578C9.01766 6.95547 9.43469 7.04641 9.70969 7.32156C9.98484 7.59656 10.0759 8.01375 10.0055 8.49344C10.3945 8.78297 10.625 9.14219 10.625 9.53125C10.625 9.92031 10.3945 10.2797 10.0055 10.5691C10.0758 11.0489 9.98484 11.4659 9.70969 11.7409C9.43469 12.0161 9.01766 12.1072 8.53781 12.0367C8.24828 12.4258 7.88906 12.6562 7.5 12.6562C7.11094 12.6562 6.75172 12.4258 6.46219 12.0367C5.98234 12.1072 5.56531 12.0161 5.29031 11.7409C5.01516 11.4659 4.92406 11.0489 4.99453 10.5691C4.60547 10.2795 4.375 9.92031 4.375 9.53125C4.375 9.14219 4.60547 8.78281 4.99453 8.49344C4.92422 8.01359 5.01516 7.59656 5.29031 7.32156C5.56531 7.04656 5.98234 6.95531 6.46219 7.02578C6.75172 6.63672 7.11094 6.40625 7.5 6.40625C7.88906 6.40625 8.24844 6.63672 8.53781 7.02578Z" fill="#FFDD28"/>
<path fill-rule="evenodd" clip-rule="evenodd" d="M5.29031 11.7409C5.01516 11.4659 4.92406 11.0489 4.99453 10.5691C4.60547 10.2795 4.375 9.92031 4.375 9.53125C4.375 9.14219 4.60547 8.78281 4.99453 8.49344C4.92422 8.01359 5.01516 7.59656 5.29031 7.32156C5.56531 7.04656 5.98234 6.95531 6.46219 7.02578C6.75172 6.63672 7.11094 6.40625 7.5 6.40625C7.88906 6.40625 8.24844 6.63672 8.53781 7.02578C9.01766 6.95547 9.43469 7.04641 9.70969 7.32156C9.98484 7.59656 10.0759 8.01375 10.0055 8.49344C10.3945 8.78297 10.625 9.14219 10.625 9.53125C10.625 9.92031 10.3945 10.2797 10.0055 10.5691C10.0758 11.0489 9.98484 11.4659 9.70969 11.7409C9.43469 12.0161 9.01766 12.1072 8.53781 12.0367C8.24828 12.4258 7.88906 12.6562 7.5 12.6562C7.11094 12.6562 6.75172 12.4258 6.46219 12.0367C5.98234 12.1072 5.56531 12.0161 5.29031 11.7409ZM6.32594 12.3659C5.85219 12.4003 5.39703 12.2897 5.06938 11.962C4.74156 11.6342 4.63109 11.1791 4.66531 10.7053C4.30625 10.3947 4.0625 9.99469 4.0625 9.53125C4.0625 9.06781 4.30625 8.66781 4.66531 8.35703C4.63109 7.88359 4.74156 7.42828 5.06938 7.10063C5.39703 6.77281 5.85219 6.66234 6.32578 6.69656C6.63656 6.3375 7.03656 6.09375 7.5 6.09375C7.96359 6.09375 8.36344 6.3375 8.67422 6.69656C9.14766 6.66234 9.60297 6.77281 9.93062 7.10063C10.2584 7.42828 10.3689 7.88344 10.3347 8.35703C10.6937 8.66781 10.9375 9.06797 10.9375 9.53125C10.9375 9.99469 10.6937 10.3947 10.3347 10.7053C10.3689 11.1791 10.2584 11.6342 9.93062 11.962C9.60297 12.2897 9.14781 12.4002 8.67406 12.3659C8.36344 12.725 7.96344 12.9688 7.5 12.9688C7.03656 12.9688 6.63656 12.725 6.32594 12.3659Z" fill="#E89B05"/>
<path fill-rule="evenodd" clip-rule="evenodd" d="M10.3125 9.375C10.3539 9.375 10.3937 9.39146 10.423 9.42076C10.4523 9.45007 10.4688 9.48981 10.4688 9.53125C10.4688 9.92031 10.2534 10.2641 9.92094 10.5341C9.96516 10.96 9.87438 11.3553 9.59922 11.6305C9.32406 11.9056 8.92891 11.9964 8.50281 11.9523C8.23281 12.2845 7.88906 12.5 7.5 12.5C7.45856 12.5 7.41882 12.4835 7.38951 12.4542C7.36021 12.4249 7.34375 12.3852 7.34375 12.3438C7.34375 12.3023 7.36021 12.2626 7.38951 12.2333C7.41882 12.204 7.45856 12.1875 7.5 12.1875C7.78344 12.1875 8.06547 12.0198 8.30859 11.693C8.32543 11.6703 8.3481 11.6526 8.37418 11.6418C8.40026 11.631 8.42878 11.6275 8.45672 11.6316C8.85984 11.6908 9.17781 11.61 9.37828 11.4095C9.57875 11.2091 9.65953 10.8911 9.60031 10.488C9.59619 10.46 9.59971 10.4315 9.6105 10.4055C9.62128 10.3794 9.63893 10.3567 9.66156 10.3398C9.98859 10.0969 10.1562 9.81484 10.1562 9.53125C10.1562 9.48981 10.1727 9.45007 10.202 9.42076C10.2313 9.39146 10.2711 9.375 10.3125 9.375Z" fill="#ECC704"/>
<path d="M7.08959 8.24036L6.47409 9.00474H7.06125V10.5822H6.38692V11.1987H8.61313V10.5821L7.96927 10.5822V8.24023L7.08959 8.24036Z" fill="#FFEF9C"/>
<path d="M8.6131 11.3139H6.38689C6.31123 11.3139 6.25 11.2623 6.25 11.1987V10.5822C6.25 10.5185 6.31123 10.467 6.38689 10.467H6.92433V9.11989H6.47406C6.42326 9.11989 6.37673 9.09639 6.3532 9.05871C6.34154 9.04023 6.33607 9.01944 6.33739 8.99855C6.33871 8.97766 6.34677 8.95747 6.36069 8.94014L6.9762 8.17574C6.98872 8.16013 7.00561 8.14735 7.02538 8.13853C7.04515 8.1297 7.06719 8.1251 7.08957 8.12512L7.96925 8.125C8.00562 8.125 8.04037 8.13716 8.06604 8.15876C8.07875 8.16945 8.08884 8.18215 8.09573 8.19612C8.10261 8.21009 8.10615 8.22507 8.10615 8.24019V10.467L8.6131 10.4669C8.63108 10.4669 8.64888 10.4699 8.66549 10.4757C8.6821 10.4815 8.69719 10.4899 8.70991 10.5006C8.72262 10.5113 8.7327 10.524 8.73958 10.538C8.74646 10.552 8.75 10.567 8.75 10.5821V11.1987C8.75 11.2623 8.68878 11.3139 8.6131 11.3139ZM6.5238 11.0835H8.4762V10.6973L7.96926 10.6974C7.93288 10.6974 7.89813 10.6852 7.87245 10.6636C7.85974 10.6529 7.84965 10.6402 7.84277 10.6263C7.83589 10.6123 7.83235 10.5973 7.83235 10.5822V8.35538L7.1623 8.35549L6.73209 8.8895H7.06123C7.13689 8.8895 7.19814 8.94103 7.19814 9.00469V10.5822C7.19814 10.6459 7.13689 10.6974 7.06123 10.6974H6.5238V11.0835Z" fill="#E89B05"/>
</svg>
