<!-- width="335" height="275" -->

<svg preserveAspectRatio="none" viewBox="0 0 335 275" fill="none" xmlns="http://www.w3.org/2000/svg">
<path fill-rule="evenodd" clip-rule="evenodd" d="M335 17.2305V6.68923H228.761L225.146 0H136.511L132.897 6.68923H26.2212L0 55.212V67.3686L2.17111 71.3863V125.811L0 129.829V161.212V164V173.369L2.17111 177.386V184.015L0 188.018V200.132L2.17111 204.136V231.811L0 235.829V262.373V270V275H79.5701L81.383 273.505H145.162V275H321.5L335 248.072V221.477V220.047V193.353L332.829 189.336V154.174L335 150.17V139.666H332.829V127.248L335 123.23V115.477V112.689V87.3535L332.829 83.3358V21.2481L335 17.2305Z" fill="url(#paint0_linear_3694_19816)"/>
<path fill-rule="evenodd" clip-rule="evenodd" d="M8 56.1591L23.5962 25.61H137.97L150.5 10H327V112.862L326.93 113H327V149V215.862V244.268L315.5 269H8V262V191.751V159.159L8.08123 159H8V56.1591Z" fill="#130229"/>
<defs>
<linearGradient id="paint0_linear_3694_19816" x1="335" y1="137.5" x2="-1.13173e-06" y2="137.5" gradientUnits="userSpaceOnUse">
<stop stop-color="#E00A14"/>
<stop offset="0.999999" stop-color="#F97F4E"/>
<stop offset="1" stop-color="#F97F4E"/>
</linearGradient>
</defs>
</svg>
