<?xml version="1.0" encoding="UTF-8"?>
<svg id="Layer_1" data-name="Layer 1" xmlns="http://www.w3.org/2000/svg" xmlns:xlink="http://www.w3.org/1999/xlink" viewBox="0 0 360 360">
  <defs>
    <style>
      .cls-1 {
        fill: #fff;
      }

      .cls-2 {
        fill: #751113;
      }

      .cls-3 {
        fill: url(#linear-gradient);
      }

      .cls-4 {
        fill: #ed1f24;
      }

      .cls-5 {
        fill: #121231;
      }
    </style>
    <linearGradient id="linear-gradient" x1="215.01" y1="278.87" x2="215.01" y2="53.68" gradientUnits="userSpaceOnUse">
      <stop offset="0" stop-color="#fff"/>
      <stop offset="1" stop-color="#000" stop-opacity="0"/>
    </linearGradient>
  </defs>
  <rect class="cls-5" width="360" height="360"/>
  <polygon class="cls-2" points="121.34 163.08 121.34 270.75 148.26 237.03 148.26 237.95 288.4 241.35 288.4 133.69 149.5 130.32 149.5 127.81 121.34 163.08"/>
  <polygon class="cls-3" points="244.72 244.07 185.3 244.07 138.88 58.27 291.14 58.27 244.72 244.07"/>
  <path class="cls-1" d="m216.43,84.27c-24.01,0-43.54,19.53-43.54,43.54s19.53,43.54,43.54,43.54,43.54-19.53,43.54-43.54-19.53-43.54-43.54-43.54Zm-40.48,43.54c0-10.62,4.12-20.3,10.84-27.53l57.17,57.17c-7.23,6.72-16.9,10.84-27.53,10.84-22.32,0-40.48-18.16-40.48-40.48Zm70.13,27.53l-57.17-57.17c7.23-6.72,16.9-10.84,27.53-10.84,22.32,0,40.48,18.16,40.48,40.48,0,10.62-4.12,20.3-10.84,27.53Z"/>
  <polygon class="cls-4" points="288.4 240.14 288.4 132.47 261.49 166.19 261.49 165.27 121.34 161.86 121.34 269.53 260.25 272.9 260.25 275.4 288.4 240.14"/>
  <polygon class="cls-2" points="110.85 166.04 57.13 259.94 123.98 235.65 123.98 159.08 110.85 166.04"/>
  <path class="cls-1" d="m249.84,83.49l-.16-2.11c-.49-4.37.97-9.15,5.02-14.01,3.65-4.29,5.67-7.45,5.67-11.09,0-4.13-2.59-6.88-7.69-6.97-2.92,0-6.16.97-8.18,2.51l-1.94-5.1c2.67-1.94,7.29-3.24,11.58-3.24,9.31,0,13.52,5.75,13.52,11.9,0,5.51-3.08,9.47-6.96,14.09-3.56,4.21-4.86,7.77-4.62,11.9l.08,2.11h-6.32Zm-1.78,11.34c0-3,2.02-5.1,4.86-5.1s4.78,2.11,4.78,5.1c0,2.83-1.86,5.02-4.86,5.02-2.83,0-4.78-2.19-4.78-5.02Z"/>
  <path class="cls-1" d="m213.91,100.48c1.68,0,3.36,0,5.04,0,.23.06.46.15.69.19,11.38,1.75,19.01,8.07,22.81,18.92.64,1.82.87,3.79,1.29,5.69v5.04c-.06.23-.16.46-.18.69-1.48,13.04-12.4,23.35-25.51,24.08-13.55.76-25.52-8.4-28.36-21.71-.22-1.02-.4-2.04-.59-3.06,0-1.68,0-3.36,0-5.04.07-.23.16-.45.19-.68,1.31-11.49,9.96-21.03,21.33-23.5,1.08-.24,2.18-.42,3.27-.62Zm-9.79,16.78c-2.38,0-4.28,1.87-4.29,4.23,0,2.35,1.92,4.26,4.27,4.25,2.31,0,4.21-1.88,4.23-4.19.03-2.36-1.87-4.29-4.22-4.3Zm24.67,8.48c2.37-.02,4.26-1.92,4.24-4.28-.02-2.36-1.94-4.23-4.32-4.2-2.33.03-4.17,1.89-4.18,4.23-.02,2.35,1.9,4.27,4.26,4.25Zm-22.95,8.32c-.16.13-.82.37-.93.76-.22.83.5,1.01,1.17,1.08.21.02.42.05.62.08,4.02.48,8.05.95,12.07,1.43,2.67.31,5.34.61,8.01.92.59.07,1.09-.06,1.18-.72.1-.72-.37-.98-1-1.05-.69-.08-1.39-.18-2.08-.26-6.21-.73-12.42-1.46-19.05-2.24Z"/>
  <g>
    <polygon class="cls-4" points="180 135.88 159.57 114.22 108.51 136.68 107.82 135.88 106.73 137.46 106.73 137.46 106.73 137.46 37.41 238.9 57.13 259.94 132.76 164.96 120.78 150.99 132.76 162.53 180 135.88"/>
    <path class="cls-4" d="m69.7,132.86c-2.53,4.55-3.08,16.49-2.81,29.34.18-6.44.82-11.78,2.21-14.29,5.11-9.19,15-2.42,12.26,24.61-2.34,23.07-9.61,29.99-11.69,31.53.03.24.04.37.04.37,0,0,12.05-6.17,15.52-40.39,3.47-34.23-9.05-42.81-15.52-31.17Z"/>
    <path class="cls-4" d="m43.56,150.61c4.79-1.83,16.71-.99,29.44.72-6.42-.56-11.79-.58-14.43.43-9.67,3.7-3.99,13.65,23.15,14.17,23.17.45,30.82-5.52,32.56-7.27.24.05.37.08.37.08,0,0-7.4,10.48-41.78,9.82-34.37-.66-41.57-13.26-29.32-17.94Z"/>
    <path class="cls-4" d="m82.54,132.78c-4.04,3.29-8.98,14.17-13.49,26.2,2.56-5.91,5.13-10.64,7.35-12.45,8.15-6.64,14.82,3.32,2.25,27.4-10.73,20.56-20.05,24.29-22.55,24.94-.07.24-.1.36-.1.36,0,0,13.47-1.26,29.39-31.76,15.92-30.5,7.47-43.11-2.85-34.7Z"/>
    <path class="cls-4" d="m51.68,139.57c5.13.08,15.88,5.28,27.08,11.59-5.75-2.9-10.74-4.91-13.56-4.95-10.35-.16-8.77,11.19,16.25,21.75,21.35,9.01,30.67,6.31,32.94,5.32.2.14.31.21.31.21,0,0-10.76,6.99-42.44-6.38-31.68-13.36-33.68-27.73-20.57-27.54Z"/>
    <path class="cls-4" d="m54.45,144.5c.52,5.18,6.88,15.3,14.43,25.7-3.52-5.39-6.05-10.14-6.34-12.99-1.05-10.46,10.94-10.54,24.11,13.22,11.24,20.28,9.22,30.11,8.39,32.56.16.19.24.28.24.28,0,0,6.37-11.94-10.31-42.03-16.68-30.09-31.86-29.99-30.53-16.74Z"/>
    <path class="cls-4" d="m43.11,173.99c2.89-4.24,13.16-10.35,24.59-16.21-5.59,3.2-10.01,6.25-11.6,8.59-5.83,8.56,4.51,13.48,27.1-1.58,19.28-12.86,22.16-22.12,22.59-24.55.23-.09.34-.14.34-.14,0,0-.1,12.83-28.7,31.91-28.6,19.07-41.7,12.83-34.32,2Z"/>
    <path class="cls-4" d="m57,154.07c2.04,4.79,11.13,12.54,21.45,20.21-4.97-4.1-8.81-7.87-9.93-10.51-4.13-9.67,7.29-13.33,26.96,5.41,16.79,16,17.8,25.99,17.73,28.57.21.13.32.2.32.2,0,0,2.52-13.3-22.39-37.03-24.91-23.73-39.36-19.1-34.13-6.85Z"/>
    <path class="cls-4" d="m54.99,185.6c1.49-4.91,9.47-13.8,18.63-22.82-4.38,4.73-7.69,8.96-8.51,11.66-3.01,9.91,8.33,11.52,25.39-9.6,14.56-18.03,14.54-27.73,14.22-30.18.19-.16.29-.24.29-.24,0,0,3.74,12.28-17.86,39.02-21.6,26.75-35.97,24.7-32.15,12.15Z"/>
  </g>
  <rect class="cls-1" x="187.3" y="163.65" width="12.54" height="107.68"/>
  <polygon class="cls-1" points="283.97 245.89 273.85 259.94 273.85 151.27 283.97 137.22 283.97 245.89"/>
</svg>