<?xml version="1.0" encoding="UTF-8"?>
<svg id="Layer_1" data-name="Layer 1" xmlns="http://www.w3.org/2000/svg" viewBox="0 0 360 360">
  <defs>
    <style>
      .cls-1 {
        fill: #fff;
      }

      .cls-2 {
        fill: #e8ab74;
      }

      .cls-3 {
        fill: #ed1f24;
      }

      .cls-4 {
        fill: #121231;
      }

      .cls-5 {
        fill: #fed9a2;
      }
    </style>
  </defs>
  <path class="cls-3" d="m243.7,107.42c-16.24,0-29.45,13.21-29.45,29.45s13.21,29.45,29.45,29.45,29.45-13.21,29.45-29.45-13.21-29.45-29.45-29.45Zm-27.38,29.45c0-7.19,2.79-13.73,7.33-18.62l38.67,38.67c-4.89,4.54-11.43,7.33-18.62,7.33-15.1,0-27.38-12.28-27.38-27.38Zm47.44,18.62l-38.67-38.67c4.89-4.54,11.43-7.33,18.62-7.33,15.1,0,27.38,12.28,27.38,27.38,0,7.19-2.79,13.73-7.33,18.62Z"/>
  <rect class="cls-3" x="106.02" y="113.45" width="90.18" height="143.74" rx="14.3" ry="14.3" transform="translate(-87.86 176.88) rotate(-48.78)"/>
  <rect class="cls-1" x="92.2" y="162.34" width="16.43" height="25.71" rx="3.91" ry="3.91" transform="translate(-95.83 127.6) rotate(-46.55)"/>
  <rect class="cls-4" x="123.79" y="108.2" width="90.18" height="143.74" rx="14.3" ry="14.3" transform="translate(-67.41 108.57) rotate(-30)"/>
  <path class="cls-5" d="m288.06,300.24c-4.32-6.4-8.8-22.56-10.4-32.48-1.6-9.92-13.6-36.96-17.44-38.88-3.84-1.92-12.64-6.24-24.8-8.96-.76-.17-1.57-.34-2.42-.5-2.48,2.34-5.09,4.55-7.34,5.9-6.72,4.05-24-1.28-28.27-1.49-4.27-.21-10.45,2.13-14.51,8.99-4.05,6.86,1.56,13.36,1.56,13.36,0,0-8.23-3.19-14.87-5.66-.52,1.9-3.34,12.92-.72,20.35,2.88,8.16,4,17.44,7.68,20,3.68,2.56,10.24.8,11.84,0,1.6-.8,2.56-1.76,3.2,0,.64,1.76,3.2,6.4,5.76,8.96s4.64,4,5.76,3.68,3.04-3.75,5.6.04c2.56,3.8,8.64,17.26,10.4,18.29s79.52,0,79.52,0c0,0-6.24-5.21-10.56-11.61Z"/>
  <path class="cls-2" d="m172.88,232.83s22.4,25.17,26.99,33.28c4.59,8.11,6.72,14.4,9.6,22.08,2.88,7.68,11.63,20.16,12.27,20.48s3.93,3.29,3.93,3.29h-6.1s-11.38-19.85-12.45-19.93-1.28-.68-2.34-.09-1.73,2.19-3.1,1.64c-.29-.12-5.29-2.23-8.11-7.44-2.82-5.22-3.08-6.37-3.19-6.69,0,0-1.22,1.37-4.28,2.02-3.07.65-10.24,2.28-12.28-2.76s-4.09-10.4-4.45-12.59-4.87-11.09-2.43-18.24,2.65-9.73,3.21-11.22,2.75-3.82,2.75-3.82Z"/>
  <path class="cls-5" d="m170.2,246.66s.43,6.51,2.56,14.61c2.13,8.11,1.07,16.32,5.44,16.53,4.37.21,8.21,1.6,9.81-3.09,1.6-4.69,2.67-9.17,1.92-11.63s0-5.65-5.01-7.36-11.95-5.87-13.23-8c0,0-.43-.64-.64-1.07"/>
  <path class="cls-5" d="m193.77,265.54s-3.41,12.27.53,17.49c3.95,5.23,9.92,7.36,9.92,7.36,0,0,2.45-4.37-1.28-10.67-3.73-6.29-9.17-14.19-9.17-14.19Z"/>
  <path class="cls-1" d="m185.88,233.64s-3.2,3.09,0,9.07,5.05,10.03,6.52,10.03,1.16.96,2.86-.64,4.16-7.18,6.4-8.76,5.12-2.01,5.97-3.4-1.71-8-3.84-9.28-2.39-2.88-5.09-2.99-7.71-.53-9.95,1.6-2.88,4.37-2.88,4.37Z"/>
  <path class="cls-2" d="m220.54,237.7s13.44,13.87,15.89,13.87,6.4-4.91,6.4-4.91v4.48s-5.33,2.13-2.13,6.93c3.2,4.8,7.89,7.47,8.64,10.77s1.17,6.61,1.17,6.61c0,0-14.29-12.91-19.73-18.03s-6.93-3.84-9.07-9.71c-2.13-5.87-2.67-7.43-2.67-7.43l1.49-2.6Z"/>
  <rect class="cls-1" x="115.93" y="136.3" width="16.43" height="25.71" rx="3.91" ry="3.91" transform="translate(-55.19 75.01) rotate(-27.77)"/>
</svg>