<svg width="228" height="234" viewBox="0 0 228 234" fill="none" xmlns="http://www.w3.org/2000/svg">
<g opacity="0.5" clip-path="url(#clip0_3542_20527)">
<path d="M124.925 234C107.891 234 91.1114 230.738 76.7094 224.297C65.3311 219.209 60.9423 216.596 45.8086 203.835C30.675 191.074 18.1606 168.516 18.1606 168.516C11.5904 156.678 6.65547 143.979 3.5639 131.09C2.62354 127.17 1.85013 123.211 1.25878 119.223C0.423043 113.585 0.0011271 107.888 1.98561e-06 102.201C-0.00517352 74.3256 10.1071 46.7053 31.218 27.5758C31.3255 27.4788 31.4329 27.3818 31.5406 27.2847C46.443 13.9129 63.7994 6.94686 81.0258 6.94686C98.1393 6.94686 115.124 13.8216 129.45 28.1211C132.154 30.8215 135.238 32.9408 138.588 34.6325C144.052 36.4339 152.032 39.2961 155.247 39.9149C158.462 40.5337 165.02 41.4597 165.02 41.4597C165.02 41.4597 168.387 42.0263 169.384 42.0263C169.384 42.0263 182.251 43.1475 190.066 45.6238C238.217 60.8823 226.825 169.513 226.825 169.513C226.825 169.513 217.654 188.317 211.928 195.893C192.569 221.507 158.26 234 124.925 234Z" fill="#D9F1DD"/>
<path d="M91.9226 142.321C89.4495 138.245 77.5773 138.312 76.5024 140.123C76.5024 140.123 82.3849 159.11 88.9406 157.141C95.4964 155.173 91.9226 142.321 91.9226 142.321Z" fill="#F97F4E"/>
<path d="M91.9227 142.32L92.267 142.112C91.4348 140.756 89.7818 139.896 87.8723 139.335C85.9588 138.779 83.7647 138.538 81.7963 138.537C80.4513 138.538 79.2144 138.649 78.2362 138.862C77.746 138.968 77.321 139.099 76.9711 139.263C76.6227 139.429 76.3364 139.62 76.1558 139.917C76.0978 140.014 76.0832 140.133 76.1171 140.241C76.1211 140.252 77.4533 144.555 79.5684 148.88C80.6271 151.042 81.8794 153.211 83.2785 154.863C83.9792 155.688 84.717 156.386 85.4984 156.886C86.2789 157.385 87.1111 157.687 87.9772 157.687C88.3352 157.687 88.6964 157.635 89.0561 157.526C90.7518 157.022 91.8412 155.811 92.4646 154.344C93.0935 152.874 93.2967 151.137 93.2984 149.443C93.2967 145.748 92.3154 142.232 92.3114 142.213L92.267 142.112L91.9227 142.32L91.534 142.428C91.534 142.428 91.5477 142.478 91.5743 142.579C91.7566 143.279 92.4928 146.331 92.492 149.443C92.4928 151.071 92.288 152.714 91.7235 154.027C91.1534 155.343 90.2656 156.319 88.8246 156.756C88.5384 156.841 88.257 156.881 87.9772 156.881C87.303 156.881 86.6224 156.647 85.933 156.207C84.7283 155.441 83.5308 154.043 82.4447 152.375C80.8118 149.873 79.4168 146.773 78.4362 144.304C77.946 143.07 77.5581 141.992 77.2928 141.225C77.1606 140.841 77.059 140.535 76.9904 140.325C76.9219 140.115 76.888 140.003 76.8872 140.003L76.5026 140.122L76.8493 140.327C76.8864 140.256 77.0404 140.116 77.313 139.992C77.7186 139.8 78.3588 139.631 79.1337 139.518C79.9095 139.404 80.8223 139.342 81.7963 139.342C83.6978 139.341 85.8322 139.579 87.6465 140.108C89.4657 140.633 90.9413 141.463 91.5776 142.529L91.9227 142.32Z" fill="#1D2A30"/>
<path d="M77.7578 151.982C77.7578 151.982 76.5015 153.414 76.5015 155.564C76.5015 157.335 79.885 192.707 90.3274 205.02C92.5159 207.605 95.0164 209.172 97.8629 209.206C106.702 209.301 110.982 202.299 116.609 186.059C117.308 184.037 118.035 181.866 118.789 179.546C124.258 162.782 130.978 127.817 130.978 127.817C130.978 127.817 119.054 130.578 111.982 137.58C108.89 140.639 105.669 149.323 103.611 155.7C102.599 158.834 101.865 161.405 101.558 162.49C101.464 162.85 101.409 163.047 101.409 163.047C101.138 161.996 100.689 160.923 100.159 159.879L100.146 159.852L100.105 159.77C97.9718 155.68 94.4996 152.07 94.4996 152.07L91.9248 142.321C91.9248 142.321 91.0144 144.099 86.8963 144.729C82.7726 145.361 76.5015 140.123 76.5015 140.123L77.7578 151.982Z" fill="#F97F4E"/>
<mask id="mask0_3542_20527" style="mask-type:luminance" maskUnits="userSpaceOnUse" x="76" y="127" width="55" height="83">
<path d="M77.7578 151.982C77.7578 151.982 76.5015 153.414 76.5015 155.564C76.5015 157.335 79.885 192.707 90.3274 205.02C92.5159 207.605 95.0164 209.172 97.8629 209.206C106.702 209.301 110.982 202.299 116.609 186.059C117.308 184.037 118.035 181.866 118.789 179.546C124.258 162.782 130.978 127.817 130.978 127.817C130.978 127.817 119.054 130.578 111.982 137.58C108.89 140.639 105.669 149.323 103.611 155.7C102.599 158.834 101.865 161.405 101.558 162.49C101.464 162.85 101.409 163.047 101.409 163.047C101.138 161.996 100.689 160.923 100.159 159.879L100.146 159.852L100.105 159.77C97.9718 155.68 94.4996 152.07 94.4996 152.07L91.9248 142.321C91.9248 142.321 91.0144 144.099 86.8963 144.729C82.7726 145.361 76.5015 140.123 76.5015 140.123L77.7578 151.982Z" fill="white"/>
</mask>
<g mask="url(#mask0_3542_20527)">
<mask id="mask1_3542_20527" style="mask-type:luminance" maskUnits="userSpaceOnUse" x="90" y="151" width="19" height="58">
<path d="M98.0397 208.805L97.8672 208.804H97.868C95.2255 208.772 92.8717 207.348 90.7534 204.898C95.2247 203.554 100.28 200.173 103.407 192.212C108.207 179.988 104.337 168.491 101.826 163.056C101.851 162.964 101.893 162.808 101.948 162.595C102.255 161.51 102.986 158.946 103.995 155.824C104.07 155.591 104.146 155.355 104.225 155.115C105.671 153.777 107.126 152.69 108.505 151.81C107.571 163.376 107.223 180.09 107.223 196.286C107.223 199.074 107.233 201.846 107.252 204.573C106.125 205.849 104.937 206.817 103.645 207.504C101.994 208.38 100.167 208.804 98.0397 208.805Z" fill="white"/>
</mask>
<g mask="url(#mask1_3542_20527)">
<path d="M90.7534 208.805H108.505V151.81H90.7534V208.805Z" fill="#BC6441"/>
</g>
</g>
<path d="M77.7581 151.982L77.4549 151.716C77.4275 151.753 76.1043 153.251 76.0986 155.564C76.0994 155.827 76.1527 156.561 76.2664 157.731C76.6631 161.808 77.7952 170.958 79.9748 180.453C82.1609 189.95 85.367 199.782 90.0206 205.28H90.0197C92.2477 207.915 94.8571 209.572 97.8584 209.608L97.8592 209.609L98.0399 209.609C100.273 209.61 102.248 209.158 104.024 208.214C106.689 206.797 108.881 204.302 110.929 200.67C112.977 197.034 114.89 192.249 116.99 186.19C117.69 184.166 118.418 181.992 119.173 179.67C124.657 162.857 131.372 127.902 131.374 127.893C131.4 127.759 131.356 127.621 131.258 127.527C131.16 127.433 131.02 127.394 130.887 127.425C130.858 127.439 118.897 130.184 111.698 137.294C110.076 138.906 108.501 141.865 107.039 145.236C105.582 148.605 104.259 152.38 103.227 155.576C102.213 158.717 101.477 161.294 101.171 162.381L101.169 162.388C101.075 162.746 101.022 162.939 101.021 162.939L101.41 163.047L101.801 162.946C101.519 161.856 101.058 160.758 100.519 159.697L100.16 159.879L100.522 159.703L100.509 159.675L100.506 159.67L100.465 159.589L100.463 159.584C98.2915 155.426 94.8031 151.807 94.791 151.791L94.4999 152.07L94.8894 151.968L92.3147 142.219C92.2719 142.058 92.134 141.939 91.9679 141.921C91.8026 141.903 91.6421 141.99 91.5655 142.138L91.5647 142.139C91.5018 142.235 90.5995 143.749 86.8362 144.332C86.6241 144.365 86.4032 144.38 86.175 144.38C84.2776 144.388 81.8883 143.262 80.0135 142.109C79.0733 141.535 78.2581 140.96 77.6783 140.529C77.3888 140.313 77.1582 140.134 77.0001 140.009C76.8429 139.883 76.7607 139.815 76.7607 139.815C76.6341 139.709 76.4567 139.691 76.3123 139.768C76.1672 139.845 76.0833 140.002 76.1011 140.166L77.3574 152.024L77.7581 151.982L78.1597 151.939L76.9026 140.081L76.5018 140.123L76.243 140.432C76.2527 140.44 77.659 141.615 79.5926 142.796C81.5303 143.974 83.9776 145.177 86.175 145.185C86.4395 145.185 86.7015 145.167 86.958 145.128C91.1801 144.489 92.2389 142.611 92.284 142.505L91.9252 142.321L91.5349 142.424L94.1104 152.173L94.2088 152.349C94.2096 152.349 94.2604 152.402 94.358 152.507C95.0394 153.239 97.9141 156.437 99.7477 159.956L100.105 159.77L99.7453 159.952L99.7848 160.03L99.7969 160.055L99.8001 160.061C100.321 161.088 100.758 162.136 101.019 163.147C101.065 163.324 101.224 163.448 101.406 163.449C101.589 163.451 101.75 163.33 101.798 163.154C101.799 163.153 101.854 162.954 101.949 162.592L101.559 162.49L101.947 162.6C102.252 161.517 102.985 158.951 103.995 155.824C105.021 152.642 106.338 148.887 107.779 145.555C109.215 142.226 110.797 139.312 112.266 137.865C115.74 134.424 120.447 131.998 124.284 130.446C126.202 129.669 127.902 129.109 129.121 128.744C129.73 128.561 130.219 128.427 130.555 128.339C130.89 128.251 131.069 128.21 131.069 128.209L130.978 127.817L130.582 127.741C130.582 127.743 130.478 128.287 130.283 129.274C128.925 136.188 123.178 164.799 118.406 179.421C117.652 181.74 116.927 183.908 116.227 185.927C113.44 193.981 110.98 199.739 108.177 203.439C106.776 205.291 105.296 206.626 103.645 207.503C101.994 208.379 100.167 208.803 98.0399 208.804L97.8673 208.803H97.8681C95.1764 208.771 92.7848 207.295 90.6358 204.761V204.76C88.0772 201.746 85.9178 197.263 84.1421 192.213C81.4771 184.638 79.6636 175.792 78.521 168.68C77.9492 165.124 77.5444 162.001 77.2832 159.685C77.1525 158.527 77.0574 157.572 76.9953 156.866C76.9332 156.164 76.9042 155.695 76.905 155.564C76.9042 154.568 77.1969 153.733 77.4904 153.146C77.6372 152.854 77.7839 152.625 77.892 152.47C77.946 152.394 77.9904 152.336 78.0202 152.298L78.0541 152.257L78.0613 152.247C78.1355 152.163 78.171 152.051 78.1597 151.939L77.7581 151.982Z" fill="#1D2A30"/>
<path d="M105.474 174.645C105.721 175.942 105.874 177.278 105.874 178.603C105.874 180.613 105.524 182.592 104.633 184.381C104.533 184.58 104.615 184.822 104.814 184.921C105.013 185.02 105.256 184.938 105.355 184.74C106.314 182.812 106.68 180.705 106.68 178.603C106.68 177.216 106.521 175.831 106.265 174.494C106.224 174.276 106.012 174.132 105.794 174.174C105.575 174.216 105.432 174.427 105.474 174.645Z" fill="#1D2A30"/>
<path d="M101.063 163.25C102.789 166.16 104.135 169.368 105.01 172.632C105.067 172.847 105.288 172.974 105.503 172.917C105.719 172.86 105.846 172.638 105.789 172.424C104.895 169.088 103.522 165.816 101.757 162.84C101.643 162.649 101.396 162.586 101.205 162.699C101.013 162.812 100.949 163.059 101.063 163.25Z" fill="#1D2A30"/>
<path d="M107.423 167.083C107.413 167.058 107.089 166.171 106.321 165.173C105.555 164.178 104.329 163.061 102.529 162.653C102.312 162.604 102.096 162.74 102.047 162.956C101.997 163.173 102.134 163.389 102.351 163.438C103.91 163.79 104.987 164.761 105.683 165.663C106.029 166.113 106.278 166.543 106.437 166.857C106.517 167.014 106.575 167.143 106.613 167.23L106.653 167.329L106.665 167.358C106.741 167.567 106.972 167.675 107.182 167.599C107.39 167.523 107.498 167.292 107.423 167.083Z" fill="#1D2A30"/>
<path d="M90.076 155.096C90.9146 154.645 91.6952 154.089 92.404 153.461C92.5709 153.314 92.5862 153.059 92.4378 152.893C92.2903 152.727 92.0355 152.711 91.8693 152.859C91.2033 153.449 90.4727 153.968 89.693 154.388C89.497 154.493 89.4236 154.737 89.5293 154.933C89.6349 155.128 89.88 155.202 90.076 155.096Z" fill="#1D2A30"/>
<path d="M77.462 152.258C79.5916 154.527 82.6453 156.191 85.8216 156.195C86.6949 156.195 87.5754 156.068 88.4423 155.79C88.6544 155.723 88.7713 155.496 88.7035 155.285C88.6358 155.073 88.4092 154.956 88.1971 155.024C87.4126 155.274 86.6167 155.39 85.8216 155.39C82.9364 155.394 80.0512 153.847 78.0514 151.708C77.899 151.546 77.6442 151.537 77.4814 151.689C77.3185 151.841 77.3104 152.095 77.462 152.258Z" fill="#1D2A30"/>
<path d="M100.098 159.776L100.146 159.852L100.105 159.77L100.098 159.776Z" fill="#F97F4E"/>
<path d="M100.098 159.777L99.7589 159.994L99.8065 160.069C99.9226 160.249 100.16 160.307 100.346 160.201C100.532 160.095 100.602 159.86 100.506 159.67L100.465 159.589C100.409 159.477 100.303 159.398 100.181 159.375C100.057 159.352 99.9307 159.386 99.8371 159.469L99.8299 159.476C99.6815 159.608 99.6517 159.827 99.7589 159.994L100.098 159.777L100.366 160.078L100.373 160.071L100.105 159.77L99.7452 159.951L99.7863 160.033L100.146 159.852L100.485 159.634L100.437 159.559L100.098 159.777Z" fill="#1D2A30"/>
<path d="M177.977 231.888C177.977 231.888 179.48 220.037 180.396 216.168C184.525 198.746 199.065 158.383 196.72 146.438C194.31 134.164 179.572 123.424 155.786 122.243C133.725 121.144 115.536 128.952 111.187 138.029C107.037 146.693 107.206 206.485 108.26 233.465C108.26 233.465 153.711 233.465 168.862 233.465C173.646 233.465 177.977 231.888 177.977 231.888Z" fill="#F97F4E"/>
<mask id="mask2_3542_20527" style="mask-type:luminance" maskUnits="userSpaceOnUse" x="107" y="122" width="90" height="112">
<path d="M177.977 231.888C177.977 231.888 179.48 220.037 180.396 216.168C184.525 198.746 199.065 158.383 196.72 146.438C194.31 134.164 179.572 123.424 155.786 122.243C133.725 121.144 115.536 128.952 111.187 138.029C107.037 146.693 107.206 206.485 108.26 233.465C131.927 233.465 145.196 233.465 168.862 233.465L177.977 231.888Z" fill="white"/>
</mask>
<g mask="url(#mask2_3542_20527)">
<path d="M142.344 233.062C136.528 230.148 131.428 224.666 131.428 224.666C131.428 224.666 131.618 221.991 127.367 216.167C123.115 210.345 115.322 156.554 115.322 156.554L149.354 198.904C149.354 198.904 161.812 175.498 173.239 159.858L189.546 173.976C182.79 201.951 162.956 226.555 153.564 233.062C153.377 233.062 153.189 233.062 153.001 233.062C149.591 233.062 145.978 233.062 142.344 233.062Z" fill="#BC6441"/>
</g>
<path d="M177.977 231.887L178.377 231.937C178.377 231.936 178.471 231.198 178.626 230.027C179.09 226.521 180.111 219.118 180.789 216.26C182.694 208.221 186.838 195.23 190.507 182.417C194.175 169.596 197.373 156.975 197.378 149.528C197.378 148.338 197.295 147.278 197.116 146.361C195.884 140.089 191.513 134.25 184.484 129.839C177.452 125.428 167.756 122.434 155.806 121.841C154.401 121.771 153.011 121.737 151.639 121.737C141.506 121.737 132.364 123.591 125.225 126.523C118.088 129.461 112.937 133.461 110.824 137.855C110.112 139.354 109.564 142.097 109.099 145.837C107.715 157.034 107.223 177.027 107.223 196.286C107.223 210.312 107.485 223.942 107.857 233.481C107.865 233.696 108.044 233.867 108.26 233.867C108.262 233.867 108.97 233.867 110.242 233.867C119.15 233.867 155.605 233.867 168.862 233.867C173.733 233.866 178.091 232.272 178.115 232.265C178.256 232.213 178.358 232.086 178.377 231.937L177.977 231.887L177.839 231.509C177.839 231.509 177.776 231.531 177.652 231.573C176.781 231.869 172.972 233.064 168.862 233.062C161.286 233.062 146.136 233.062 132.88 233.062C126.251 233.062 120.096 233.062 115.598 233.062C113.349 233.062 111.515 233.062 110.242 233.062C108.97 233.062 108.262 233.062 108.26 233.062V233.465L108.663 233.449C108.291 223.925 108.029 210.301 108.029 196.286C108.029 183.457 108.248 170.299 108.803 159.655C109.08 154.333 109.441 149.639 109.899 145.936C110.353 142.237 110.921 139.506 111.551 138.203C113.511 134.097 118.502 130.151 125.532 127.268C132.559 124.381 141.605 122.541 151.639 122.542C152.997 122.542 154.374 122.576 155.766 122.645C167.603 123.232 177.168 126.199 184.055 130.521C190.944 134.845 195.146 140.512 196.324 146.515C196.491 147.362 196.571 148.376 196.571 149.528C196.576 156.772 193.397 169.403 189.732 182.196C186.067 194.996 181.923 207.979 180.004 216.075C179.538 218.044 178.935 221.969 178.444 225.422C177.953 228.871 177.577 231.835 177.577 231.837L177.977 231.887Z" fill="#1D2A30"/>
<path d="M165.391 124.635C165.391 124.635 153.529 129.716 140.692 125.505C140.692 125.505 142.345 121.495 142.353 118.185C142.362 116.527 141.942 115.038 140.692 114.329C140.692 114.329 141.272 113.693 142.257 112.686H142.264C147.128 107.743 161.891 93.8456 166.697 102.131C166.697 102.131 161.665 102.606 165.391 124.635Z" fill="white"/>
<path d="M165.391 124.634L165.232 124.265L165.169 124.291C164.519 124.559 158.881 126.773 151.45 126.772C148.166 126.772 144.532 126.34 140.817 125.122L140.692 125.505L141.065 125.658C141.07 125.634 142.741 121.617 142.756 118.186V118.187V118.135C142.755 117.282 142.647 116.458 142.362 115.733C142.077 115.009 141.6 114.379 140.891 113.978L140.692 114.328L140.99 114.6C140.99 114.599 141.132 114.444 141.399 114.16C141.666 113.877 142.055 113.468 142.545 112.967L142.257 112.686V113.088H142.264C142.372 113.088 142.477 113.045 142.552 112.968C144.437 111.051 147.823 107.778 151.521 104.997C153.37 103.605 155.297 102.337 157.145 101.423C158.991 100.507 160.759 99.9524 162.265 99.954C163.121 99.9548 163.89 100.129 164.57 100.506C165.249 100.885 165.847 101.469 166.349 102.332L166.697 102.13L166.659 101.73C166.55 101.732 165.727 101.891 165.008 103.142C164.284 104.391 163.615 106.694 163.613 111.084C163.614 114.336 163.984 118.734 164.993 124.702L165.391 124.634L165.788 124.567C164.784 118.632 164.42 114.274 164.42 111.084C164.418 106.774 165.09 104.601 165.706 103.547C166.013 103.019 166.303 102.768 166.495 102.646C166.591 102.584 166.665 102.555 166.707 102.541L166.747 102.53H166.748L166.711 102.28L166.735 102.531L166.748 102.53L166.711 102.28L166.735 102.531C166.872 102.518 166.993 102.437 167.056 102.315C167.119 102.193 167.115 102.047 167.046 101.929C166.485 100.96 165.778 100.256 164.962 99.8026C164.146 99.3485 163.23 99.1488 162.265 99.1488C160.563 99.1512 158.699 99.7567 156.787 100.702C151.058 103.542 144.835 109.502 141.977 112.404L142.264 112.686V112.283H142.257C142.147 112.283 142.045 112.327 141.968 112.405C140.98 113.415 140.397 114.055 140.394 114.057C140.311 114.148 140.275 114.271 140.293 114.392C140.313 114.513 140.386 114.618 140.492 114.679C141.021 114.98 141.375 115.434 141.611 116.028C141.846 116.621 141.95 117.35 141.95 118.135V118.183V118.184C141.947 119.774 141.542 121.578 141.132 122.972C140.928 123.671 140.724 124.268 140.572 124.689C140.495 124.899 140.431 125.066 140.387 125.179C140.343 125.293 140.319 125.351 140.319 125.351C140.276 125.455 140.279 125.571 140.326 125.673C140.372 125.774 140.459 125.852 140.566 125.887C144.375 127.136 148.096 127.577 151.45 127.577C159.547 127.576 165.519 125.017 165.55 125.005C165.721 124.931 165.82 124.751 165.788 124.567L165.391 124.634Z" fill="#1D2A30"/>
<path d="M151.981 109.289C151.981 109.289 150.03 116.431 142.353 118.186C142.362 116.527 141.942 115.038 140.692 114.329C140.692 114.329 141.272 113.693 142.257 112.686H142.264C146.966 110.843 151.981 109.289 151.981 109.289Z" fill="#1D2A30"/>
<path d="M170.038 90.4701C175.131 70.1995 164.158 63.2615 157.245 60.6053C146.168 56.3501 132.191 61.1907 128.916 72.4524C125.641 83.7132 128.592 86.2776 128.44 90.8847C128.332 94.1158 126.187 95.7068 128.552 103.815C130.113 109.165 133.012 115.301 136.392 115.497C145.542 116.028 154.203 110.826 153.722 108.384L170.038 90.4701Z" fill="white"/>
<path d="M170.429 90.5689C171.345 86.924 171.747 83.6977 171.747 80.8402C171.751 74.2637 169.604 69.6357 166.726 66.4063C163.849 63.1752 160.264 61.3354 157.389 60.2299C154.654 59.1792 151.748 58.6744 148.867 58.6744C144.369 58.6744 139.929 59.9047 136.287 62.2267C132.644 64.5488 129.799 67.9739 128.529 72.341C127.341 76.4248 126.961 79.3934 126.962 81.7388C126.961 83.738 127.239 85.2807 127.509 86.6478C127.782 88.0174 128.043 89.2042 128.042 90.5351C128.042 90.6462 128.041 90.7589 128.037 90.8716C128.005 91.8604 127.768 92.7001 127.526 93.6905C127.283 94.6784 127.042 95.808 127.043 97.3169C127.043 98.9594 127.325 101.046 128.165 103.929C128.954 106.628 130.075 109.524 131.445 111.797C132.131 112.934 132.877 113.917 133.693 114.643C134.506 115.367 135.402 115.843 136.369 115.9C136.817 115.926 137.262 115.938 137.705 115.938C141.981 115.937 146.041 114.782 149.052 113.319C150.558 112.586 151.802 111.777 152.688 110.979C153.131 110.579 153.485 110.182 153.737 109.786C153.988 109.392 154.143 108.993 154.145 108.585C154.145 108.492 154.136 108.399 154.118 108.306C154.075 108.089 153.863 107.947 153.645 107.989C153.426 108.032 153.284 108.244 153.327 108.462L153.338 108.585C153.34 108.775 153.257 109.042 153.057 109.354C152.365 110.461 150.321 111.955 147.561 113.11C144.8 114.273 141.318 115.133 137.705 115.133C137.277 115.133 136.847 115.121 136.416 115.096C135.693 115.055 134.959 114.69 134.23 114.042C133.136 113.072 132.092 111.48 131.19 109.635C130.287 107.79 129.52 105.691 128.94 103.703C128.114 100.873 127.849 98.8652 127.849 97.3169C127.85 95.8918 128.071 94.8523 128.309 93.8813C128.545 92.9127 128.806 92.0037 128.843 90.899C128.847 90.7758 128.849 90.6551 128.849 90.5351C128.849 89.0963 128.569 87.8475 128.3 86.4916C128.032 85.1349 127.768 83.6639 127.768 81.7388C127.768 79.482 128.132 76.5947 129.304 72.5657C130.515 68.403 133.219 65.1398 136.721 62.9055C140.22 60.6728 144.516 59.4787 148.867 59.4795C151.654 59.4795 154.462 59.9683 157.1 60.982C159.905 62.0592 163.369 63.8459 166.123 66.9417C168.875 70.0383 170.938 74.4369 170.941 80.8402C170.941 83.622 170.549 86.7823 169.647 90.3733C169.593 90.5882 169.724 90.8072 169.94 90.8612C170.156 90.9151 170.375 90.7847 170.429 90.5689Z" fill="#1D2A30"/>
<path d="M141.421 80.9185L141.438 80.9136C141.541 80.8806 142.072 80.7277 142.788 80.7285C143.433 80.7285 144.223 80.8508 145.004 81.284C145.785 81.718 146.57 82.4611 147.21 83.7623C147.308 83.9619 147.549 84.0449 147.749 83.9475C147.949 83.8492 148.032 83.6085 147.935 83.4088C147.235 81.9797 146.324 81.0932 145.395 80.5795C144.467 80.065 143.533 79.9225 142.788 79.9233C141.84 79.9233 141.185 80.1487 141.157 80.1576C140.947 80.2309 140.835 80.4595 140.908 80.6697C140.98 80.8798 141.21 80.9917 141.421 80.9185Z" fill="#1D2A30"/>
<path d="M127.628 80.1791L127.633 80.175C127.717 80.1034 128.66 79.3836 129.891 79.3892C130.82 79.3948 131.945 79.762 133.155 81.2008C133.298 81.3715 133.553 81.3949 133.724 81.2523C133.895 81.1098 133.917 80.8562 133.774 80.6847C132.456 79.0978 131.055 78.5784 129.891 78.5841C128.246 78.5913 127.142 79.5406 127.106 79.5655C126.936 79.7097 126.916 79.9633 127.06 80.1332C127.203 80.3023 127.458 80.3232 127.628 80.1791Z" fill="#1D2A30"/>
<path d="M142.103 89.122C142.103 90.064 142.559 90.8281 143.119 90.8281C143.68 90.8281 144.135 90.064 144.135 89.122C144.135 88.18 143.68 87.4159 143.119 87.4159C142.559 87.4159 142.103 88.18 142.103 89.122Z" fill="#1D2A30"/>
<path d="M130.413 88.1884C130.413 89.1304 130.868 89.8945 131.428 89.8945C131.99 89.8945 132.444 89.1304 132.444 88.1884C132.444 87.2456 131.99 86.4823 131.428 86.4823C130.868 86.4823 130.413 87.2456 130.413 88.1884Z" fill="#1D2A30"/>
<path d="M133.465 84.2824C133.465 84.2824 134.096 88.9756 133.815 89.8943C133.534 90.8122 130.352 93.6786 130.228 94.9523C130.102 96.2269 132.888 97.5127 132.888 97.5127" fill="white"/>
<path d="M133.066 84.336C133.066 84.3376 133.171 85.1154 133.276 86.1001C133.381 87.084 133.485 88.2764 133.484 89.0679C133.487 89.4149 133.457 89.6983 133.43 89.7764C133.418 89.8207 133.355 89.9471 133.252 90.0977C132.886 90.6403 132.071 91.5276 131.338 92.4052C130.97 92.8465 130.621 93.2885 130.349 93.7056C130.079 94.1258 129.873 94.5075 129.827 94.9141L129.821 95.0373C129.825 95.497 130.054 95.8827 130.334 96.212C130.762 96.7056 131.349 97.1081 131.836 97.4028C132.323 97.6967 132.709 97.8746 132.719 97.8787C132.92 97.9721 133.16 97.8843 133.253 97.6822C133.347 97.4809 133.259 97.2418 133.057 97.1484L132.952 97.0977C132.711 96.9785 132.09 96.6524 131.553 96.2418C131.283 96.0373 131.036 95.811 130.87 95.5944C130.701 95.3762 130.625 95.1798 130.628 95.0373L130.629 94.9922C130.638 94.8183 130.825 94.4189 131.133 93.9833C131.591 93.3207 132.286 92.5324 132.895 91.8247C133.2 91.4704 133.484 91.1355 133.711 90.8368C133.939 90.5325 134.112 90.2861 134.201 90.0123C134.276 89.7555 134.288 89.4535 134.29 89.0679C134.289 87.3674 133.865 84.2386 133.865 84.2289C133.835 84.0091 133.633 83.8545 133.412 83.8835C133.191 83.9133 133.036 84.1162 133.066 84.336Z" fill="#1D2A30"/>
<path d="M131.428 100.209C131.428 100.209 137.78 101.801 143.119 100.209C143.119 100.209 140.604 108.075 135.632 107.274C132.339 106.742 133.177 101.588 133.177 101.588L131.428 100.209Z" fill="#1D2A30"/>
<path d="M148.94 69.1789C148.94 69.1789 146.314 67.3745 142.66 68.224C139.005 69.0734 138.431 76.7457 138.431 76.7457C138.431 76.7457 136.479 75.0186 136.134 72.8955L134.986 76.1869L131.939 73.3198L130.919 76.7457L129.709 74.2755L127.365 78.8359C127.365 78.8359 123.842 74.3021 124.387 70.798C125.875 61.2425 133.47 53.3914 149.354 54.2352C157.35 54.6595 160.335 60.133 160.335 60.133C160.335 60.133 168.156 59.0766 171.624 63.1273C183.434 76.9204 176.028 91.8979 164.811 106.088L160.966 92.5637L157.245 92.1394C157.245 92.1394 157.383 90.0959 157.268 87.9719C157.152 85.8488 155.889 82.7417 155.889 82.7417L154.51 83.3592L155.085 80.7691L151.937 82.381C151.937 82.381 153.268 71.7272 151.937 69.922C150.605 68.1177 148.94 69.1789 148.94 69.1789Z" fill="#1D2A30"/>
<path d="M158.627 94.0181C158.627 94.0181 162.35 87.0922 166.241 88.7814C170.131 90.4698 167.425 98.7475 164.041 101.45C160.657 104.153 158.627 101.45 158.627 101.45" fill="white"/>
<path d="M158.983 94.2085L159.013 94.1521C159.174 93.8647 159.948 92.5241 161.056 91.2761C161.609 90.6529 162.245 90.0531 162.918 89.6191C163.59 89.1835 164.29 88.9178 164.982 88.9186C165.343 88.9186 165.706 88.9886 166.079 89.1505C166.67 89.4089 167.071 89.8228 167.345 90.3832C167.619 90.9428 167.753 91.6537 167.752 92.4516C167.754 93.9339 167.291 95.702 166.557 97.297C165.825 98.8928 164.817 100.319 163.789 101.137C162.714 101.993 161.832 102.248 161.134 102.25C160.435 102.25 159.891 101.989 159.512 101.722C159.323 101.589 159.178 101.456 159.083 101.358L158.977 101.242L158.954 101.214L158.95 101.208L158.882 101.26L158.95 101.209V101.208L158.882 101.26L158.95 101.209C158.817 101.031 158.563 100.995 158.385 101.129C158.208 101.262 158.171 101.514 158.304 101.692C158.322 101.715 158.572 102.045 159.046 102.38C159.52 102.714 160.228 103.055 161.134 103.055C162.039 103.055 163.113 102.71 164.293 101.766C165.466 100.825 166.514 99.3147 167.29 97.6328C168.062 95.9492 168.557 94.0965 168.558 92.4516C168.558 91.5667 168.415 90.7383 168.071 90.0313C167.729 89.3244 167.172 88.7447 166.401 88.4122C165.929 88.2069 165.45 88.1135 164.982 88.1135C164.021 88.1143 163.125 88.4991 162.328 89.0434C159.946 90.6819 158.291 93.8051 158.272 93.8276C158.167 94.0233 158.241 94.268 158.437 94.3727C158.633 94.4782 158.877 94.4041 158.983 94.2085Z" fill="#1D2A30"/>
<path d="M138.44 70.6152C138.435 70.6152 138.431 70.6152 138.427 70.6144C138.205 70.608 138.03 70.4228 138.036 70.2006C138.094 68.4172 138.924 66.3383 140.305 64.666C141.684 63.0001 143.649 61.7328 145.977 61.732C146.116 61.732 146.257 61.7368 146.398 61.7457C148.792 61.9003 150.386 63.0138 151.35 64.0798C152.319 65.1466 152.683 66.1627 152.695 66.1941C152.77 66.4035 152.661 66.6338 152.451 66.7086C152.407 66.7247 152.361 66.732 152.315 66.732C152.15 66.732 151.994 66.6297 151.936 66.4647L151.934 66.4599L151.924 66.4333L151.878 66.3238C151.835 66.2263 151.768 66.0838 151.674 65.9107C151.485 65.5645 151.186 65.0959 150.753 64.6209C149.885 63.6708 148.508 62.6933 146.345 62.5492C146.222 62.5412 146.099 62.5371 145.977 62.5371C145.976 62.5371 145.975 62.5371 145.973 62.5371C143.955 62.5371 142.203 63.641 140.926 65.1796C139.651 66.7127 138.885 68.6732 138.843 70.2247C138.836 70.4429 138.657 70.6152 138.44 70.6152Z" fill="#45555C"/>
<path d="M160.856 80.3682C160.823 80.3682 160.789 80.3641 160.755 80.3553C160.539 80.2997 160.41 80.0799 160.466 79.8641C160.466 79.8641 160.48 79.8094 160.507 79.7007C160.533 79.592 160.571 79.431 160.617 79.2256C160.708 78.8158 160.83 78.2281 160.951 77.5227C161.196 76.1105 161.438 74.2232 161.438 72.3408C161.443 70.0646 161.071 67.8054 160.008 66.4165C159.472 65.7208 158.881 65.5211 158.246 65.5139C158.244 65.5139 158.241 65.5139 158.239 65.5139C157.648 65.5139 157.031 65.7232 156.549 65.9551C156.065 66.1878 155.717 66.4366 155.653 66.4849L155.642 66.493C155.569 66.5485 155.483 66.5759 155.397 66.5759C155.276 66.5759 155.156 66.5219 155.077 66.4181C154.942 66.2418 154.975 65.9889 155.151 65.8537C155.165 65.844 155.529 65.5646 156.092 65.2828C156.655 65.0018 157.416 64.7104 158.246 64.7087C158.255 64.7087 158.264 64.7087 158.273 64.7087C159.092 64.7087 159.987 65.0429 160.651 65.9302C161.894 67.5831 162.24 69.9857 162.245 72.3408C162.243 76.2401 161.25 80.0493 161.247 80.067C161.2 80.2482 161.036 80.3682 160.856 80.3682Z" fill="#45555C"/>
<path d="M168.155 78.7568C168.151 78.7568 168.147 78.756 168.143 78.756C167.92 78.7488 167.745 78.5628 167.752 78.3406C167.752 78.3398 167.762 78.0515 167.762 77.5459C167.762 76.3824 167.71 74.0934 167.378 71.7182C167.049 69.3446 166.42 66.8808 165.348 65.4106C164.037 63.6143 162.717 63.219 161.68 63.2109C161.677 63.2109 161.675 63.2109 161.671 63.2109C160.668 63.2109 159.918 63.6296 159.858 63.6666L159.856 63.6683C159.789 63.7085 159.717 63.727 159.645 63.727C159.51 63.727 159.377 63.6594 159.301 63.5354C159.185 63.3462 159.243 63.0982 159.433 62.9823C159.469 62.9621 160.368 62.409 161.68 62.4058C161.689 62.4058 161.698 62.4058 161.707 62.4058C162.969 62.4058 164.591 62.9766 166.002 64.9388C167.216 66.6256 167.831 69.1723 168.176 71.6071C168.517 74.0402 168.568 76.3583 168.568 77.5459C168.568 78.0612 168.559 78.3631 168.559 78.3671C168.551 78.5845 168.372 78.7568 168.155 78.7568Z" fill="#45555C"/>
<path d="M174.79 76.8877C174.573 76.8877 174.393 76.7146 174.387 76.4964C174.23 70.9932 172.81 67.68 171.437 65.7315C170.062 63.7846 168.724 63.1937 168.69 63.1784C168.485 63.0922 168.389 62.8563 168.476 62.6518C168.541 62.498 168.69 62.4054 168.848 62.4054C168.899 62.4054 168.953 62.4151 169.003 62.4368C169.055 62.4577 170.529 63.093 172.026 65.1695C173.524 67.2452 175.033 70.7532 175.193 76.4738C175.199 76.6961 175.024 76.8813 174.801 76.8869C174.798 76.8877 174.794 76.8877 174.79 76.8877Z" fill="#45555C"/>
<path d="M132.476 71.5117C132.456 71.5117 132.437 71.5101 132.417 71.5077C132.197 71.4755 132.044 71.2702 132.077 71.0504C132.082 71.0198 132.439 68.5866 134.001 65.903C135.557 63.2227 138.355 60.2814 143.171 59.3628C144.537 59.1011 145.776 58.9884 146.899 58.9884C146.902 58.9884 146.904 58.9884 146.906 58.9884C150.261 58.9884 152.569 60.0028 154.027 61.0286C155.488 62.056 156.102 63.0858 156.123 63.1204C156.236 63.312 156.172 63.5592 155.981 63.6719C155.916 63.7098 155.846 63.7275 155.776 63.7275C155.639 63.7275 155.504 63.6574 155.429 63.5294L155.426 63.5254L155.41 63.4988L155.335 63.3893C155.265 63.2911 155.156 63.1478 155.006 62.9739C154.704 62.6269 154.233 62.1583 153.563 61.6872C152.223 60.7476 150.095 59.7951 146.899 59.7935C145.83 59.7935 144.641 59.9014 143.323 60.1534C139.057 60.9731 136.52 63.4256 134.989 65.8289C133.464 68.2299 132.978 70.5753 132.89 71.0721L132.875 71.1679C132.845 71.3676 132.672 71.5117 132.476 71.5117Z" fill="#45555C"/>
<path d="M127.962 73.751C127.781 73.751 127.616 73.6278 127.571 73.4442C127.446 72.9297 127.384 72.3685 127.384 71.7727C127.388 69.094 128.616 65.6938 131.158 62.8138C133.699 59.9354 137.574 57.594 142.834 57.1165C143.888 57.0199 144.879 56.9764 145.81 56.9764C145.818 56.9764 145.824 56.9764 145.832 56.9764C155.127 56.9764 158.387 61.3863 158.433 61.4635C158.563 61.6439 158.522 61.8959 158.341 62.0255C158.271 62.0771 158.188 62.102 158.106 62.102C157.981 62.102 157.858 62.0432 157.779 61.9346L157.775 61.9289L157.753 61.8999L157.65 61.7776C157.556 61.6697 157.408 61.511 157.2 61.3186C156.787 60.9338 156.136 60.4128 155.203 59.8903C153.336 58.8444 150.337 57.7824 145.81 57.7816C144.905 57.7816 143.938 57.8243 142.908 57.9185C137.851 58.3806 134.184 60.6101 131.762 63.346C129.341 66.0803 128.187 69.3371 128.191 71.7727C128.191 72.313 128.246 72.8122 128.354 73.2534C128.407 73.4692 128.275 73.6874 128.058 73.7397C128.026 73.7478 127.994 73.751 127.962 73.751Z" fill="#45555C"/>
<path d="M64.165 128.722C64.165 128.722 77.7999 118.243 83.742 117.181C89.6849 116.12 110.135 120.579 110.135 120.579V144.76C110.135 144.76 97.3405 146.162 91.5984 150.358C85.8571 154.554 66.0785 155.228 66.0785 155.228L64.165 128.722Z" fill="#6F7172"/>
<path d="M64.1651 128.722L64.4111 129.041C64.4119 129.04 64.6215 128.879 65.0045 128.592C66.3455 127.585 69.7847 125.05 73.5295 122.655C75.401 121.458 77.35 120.296 79.145 119.38C80.9383 118.464 82.5866 117.795 83.813 117.577C84.4089 117.471 85.1855 117.42 86.0886 117.42C89.8906 117.42 95.8997 118.306 100.935 119.195C103.455 119.639 105.734 120.084 107.383 120.417C109.032 120.75 110.047 120.972 110.049 120.972L110.135 120.579H109.732V144.76H110.135L110.091 144.36C110.081 144.361 106.871 144.713 102.932 145.593C98.9905 146.477 94.3281 147.871 91.3606 150.033C90.01 151.025 87.7296 151.854 85.0927 152.498C81.1359 153.47 76.3711 154.054 72.6037 154.392C70.7193 154.562 69.0832 154.67 67.9188 154.736C66.7544 154.802 66.0665 154.825 66.0649 154.825L66.0786 155.228L66.481 155.199L64.5675 128.693L64.1651 128.722L63.7628 128.751L65.6763 155.256C65.6924 155.472 65.8762 155.637 66.0923 155.63C66.0996 155.63 71.0523 155.461 76.7348 154.766C79.5764 154.418 82.5995 153.939 85.2855 153.28C87.9723 152.618 90.3172 151.789 91.8372 150.683C94.6119 148.649 99.217 147.244 103.109 146.378C105.055 145.943 106.825 145.639 108.107 145.442C108.748 145.345 109.268 145.274 109.626 145.227C109.984 145.181 110.179 145.16 110.179 145.16C110.384 145.138 110.538 144.965 110.538 144.76V120.579C110.538 120.389 110.406 120.226 110.221 120.185C110.217 120.184 106.131 119.294 101.075 118.402C96.0166 117.51 90.0027 116.617 86.0886 116.615C85.1557 116.616 84.3404 116.666 83.6711 116.785C82.1027 117.068 80.1199 117.937 77.9862 119.077C71.5982 122.499 63.9281 128.397 63.9192 128.403C63.8119 128.485 63.7531 128.617 63.7628 128.751L64.1651 128.722Z" fill="#1D2A30"/>
<path d="M76.9619 121.231C76.9619 121.231 77.2748 118.152 77.7562 116.453C78.2384 114.754 81.5348 114.936 82.2791 115.535C83.0234 116.135 83.7418 117.181 83.7418 117.181C83.7418 117.181 82.5976 117.515 82.2791 117.621C81.9598 117.727 81.6413 123.885 76.9619 121.231Z" fill="white"/>
<path d="M76.9619 121.231L77.3627 121.271C77.3635 121.271 77.382 121.083 77.4191 120.769C77.5272 119.835 77.7965 117.785 78.1449 116.563C78.2449 116.212 78.5077 115.964 78.927 115.778C79.3423 115.596 79.8906 115.511 80.4156 115.512C80.7881 115.512 81.1502 115.554 81.4421 115.621C81.7332 115.685 81.9582 115.789 82.0259 115.848C82.3597 116.116 82.7137 116.512 82.9758 116.835C83.1072 116.998 83.2169 117.143 83.2927 117.246L83.3806 117.368L83.4096 117.409L83.7418 117.181L83.629 116.794C83.6257 116.796 82.4904 117.126 82.1517 117.239C82.0291 117.282 81.9743 117.348 81.9372 117.391C81.8711 117.48 81.8525 117.538 81.8259 117.603C81.7437 117.833 81.6751 118.164 81.5598 118.579C81.3929 119.195 81.1357 119.959 80.7317 120.534C80.5309 120.823 80.297 121.063 80.0269 121.228C79.7552 121.393 79.4479 121.491 79.0609 121.492C78.5738 121.493 77.9481 121.327 77.1611 120.881L76.9619 121.231L76.7627 121.581C77.6328 122.074 78.39 122.296 79.0609 122.297C79.8415 122.3 80.4809 121.98 80.9438 121.528C81.6413 120.848 82.0041 119.902 82.2412 119.128C82.3589 118.74 82.442 118.393 82.5057 118.149C82.5371 118.028 82.5645 117.931 82.5823 117.883L82.592 117.859L82.3831 117.746L82.5597 117.903L82.592 117.859L82.3831 117.746L82.5597 117.903L82.2952 117.668L82.4065 118.002C82.4952 117.972 82.5371 117.927 82.5597 117.903L82.2952 117.668L82.4065 118.002C82.5525 117.954 82.921 117.843 83.2451 117.747C83.5693 117.65 83.8547 117.567 83.8547 117.567C83.9789 117.531 84.0781 117.438 84.1216 117.316C84.1652 117.195 84.1474 117.06 84.0749 116.953C84.062 116.939 83.3459 115.882 82.5323 115.221C82.2904 115.032 81.9864 114.923 81.6235 114.836C81.2631 114.753 80.8478 114.707 80.4156 114.707C79.8076 114.707 79.1665 114.798 78.6061 115.039C78.0505 115.277 77.5498 115.7 77.3683 116.344C76.8708 118.107 76.5636 121.178 76.5612 121.19C76.545 121.348 76.6241 121.502 76.7627 121.581L76.9619 121.231Z" fill="#1D2A30"/>
<path d="M113.878 91.0265L100.292 130.353L80.7886 123.635L94.3742 84.3091L113.878 91.0265Z" fill="#F97F4E"/>
<mask id="mask3_3542_20527" style="mask-type:luminance" maskUnits="userSpaceOnUse" x="80" y="84" width="34" height="47">
<path d="M113.878 91.0265L100.292 130.353L80.7886 123.635L94.3742 84.3091L113.878 91.0265Z" fill="white"/>
</mask>
<g mask="url(#mask3_3542_20527)">
<path d="M100.292 130.353L80.7886 123.635L94.3742 84.3091L113.878 91.0265L104.222 118.977L103.956 119.747L100.292 130.353ZM95.3733 86.3566L82.8384 122.638L99.2931 128.305L111.827 92.0241L95.3733 86.3566Z" fill="#B95730"/>
<path d="M94.608 94.9883C94.4951 94.9883 94.3806 94.9698 94.2677 94.9311C93.7226 94.7435 93.4339 94.1509 93.6218 93.6075L95.2991 88.7508C95.4482 88.3192 95.853 88.0487 96.2852 88.0487C96.3981 88.0487 96.5126 88.0672 96.6255 88.1058C97.1698 88.2934 97.4585 88.886 97.2714 89.4295L95.5934 94.2862C95.4442 94.7178 95.0402 94.9883 94.608 94.9883Z" fill="#B95730"/>
<path d="M98.3809 126.612C98.268 126.612 98.1527 126.594 98.0406 126.555C97.4963 126.368 97.2068 125.775 97.3947 125.231L99.0727 120.375C99.2219 119.944 99.6259 119.673 100.059 119.673C100.172 119.673 100.286 119.691 100.398 119.73C100.943 119.917 101.232 120.51 101.044 121.054L99.3662 125.91C99.2171 126.342 98.8131 126.612 98.3809 126.612Z" fill="#B95730"/>
<path d="M97.3338 113.786C96.6346 113.786 95.9234 113.673 95.2251 113.432C91.8513 112.27 90.0595 108.596 91.2239 105.227C92.1472 102.554 94.6526 100.876 97.333 100.876C98.0321 100.876 98.7433 100.991 99.4408 101.231C102.815 102.392 104.607 106.066 103.444 109.436C102.52 112.108 100.014 113.786 97.3338 113.786ZM98.3062 108.3L97.9667 109.282L98.4207 109.438C98.703 109.535 98.9667 109.584 99.2078 109.584C99.7335 109.584 100.154 109.351 100.434 108.875L100.917 109.041L101.21 108.191L100.729 108.025C100.832 107.237 100.389 106.652 99.4908 106.342C99.2408 106.256 99.007 106.211 98.7691 106.211C98.2861 106.211 97.7918 106.398 97.1386 106.81C96.583 107.162 96.2226 107.305 95.8952 107.305C95.7525 107.305 95.6154 107.278 95.471 107.228C94.9977 107.066 94.884 106.815 94.9977 106.485C95.0784 106.252 95.2243 106.119 95.4694 106.119C95.5718 106.119 95.6904 106.142 95.8299 106.19L96.1041 106.285L96.4427 105.303L96.2347 105.231C95.9533 105.134 95.6912 105.086 95.4517 105.086C94.9284 105.086 94.5123 105.318 94.2341 105.789L93.7422 105.619L93.4479 106.468L93.9406 106.638C93.8494 107.421 94.2897 107.983 95.1783 108.289C95.4291 108.376 95.6654 108.421 95.9049 108.421C96.3887 108.421 96.8846 108.235 97.5305 107.822C98.078 107.468 98.4401 107.326 98.7691 107.326C98.9142 107.326 99.0529 107.353 99.1973 107.403C99.6706 107.566 99.769 107.832 99.6553 108.162C99.5722 108.401 99.4231 108.545 99.1682 108.545C99.0707 108.545 98.957 108.524 98.8255 108.479L98.3062 108.3Z" fill="#B95730"/>
</g>
<path d="M113.878 91.0263L113.497 90.895L100.042 129.84L81.3012 123.385L94.6232 84.8209L113.746 91.4071L113.878 91.0263L114.009 90.6462L94.5055 83.928C94.295 83.8556 94.0652 83.9675 93.9926 84.1776L80.4078 123.504C80.3344 123.714 80.4465 123.943 80.6569 124.015L100.161 130.733C100.261 130.768 100.373 130.761 100.469 130.715C100.564 130.668 100.638 130.584 100.673 130.484L114.259 91.1575C114.294 91.0577 114.286 90.9457 114.24 90.8499C114.194 90.7549 114.11 90.6808 114.009 90.6462L113.878 91.0263Z" fill="#1D2A30"/>
<path d="M75.7338 67.1826L65.0317 26.9789L84.9716 21.6874L95.672 61.8912L75.7338 67.1826Z" fill="#F97F4E"/>
<mask id="mask4_3542_20527" style="mask-type:luminance" maskUnits="userSpaceOnUse" x="65" y="21" width="31" height="47">
<path d="M75.7338 67.1826L65.0317 26.9789L84.9716 21.6874L95.672 61.8912L75.7338 67.1826Z" fill="white"/>
</mask>
<g mask="url(#mask4_3542_20527)">
<path d="M75.7338 67.1826L65.0317 26.9789L84.9716 21.6874L95.672 61.8912L75.7338 67.1826ZM83.8273 23.6568L67.0049 28.1214L76.8781 65.2132L93.6997 60.7486L83.8273 23.6568Z" fill="#B95730"/>
<path d="M91.4142 60.0293C90.953 60.0293 90.5312 59.7217 90.4071 59.2555L89.0854 54.2902C88.9379 53.7346 89.2685 53.1646 89.8249 53.0164C89.9144 52.9931 90.0047 52.981 90.0934 52.981C90.5546 52.981 90.9764 53.2894 91.1005 53.7556L92.4222 58.7209C92.5697 59.2765 92.2383 59.8465 91.6827 59.9947C91.5932 60.018 91.5029 60.0293 91.4142 60.0293Z" fill="#B95730"/>
<path d="M70.61 35.8887C70.1495 35.8887 69.727 35.5803 69.6036 35.1141L68.2812 30.1488C68.1336 29.594 68.465 29.0231 69.0214 28.8758C69.1117 28.8516 69.2021 28.8404 69.2908 28.8404C69.752 28.8404 70.1729 29.1479 70.2971 29.6141L71.6187 34.5795C71.7671 35.135 71.4357 35.7051 70.8785 35.8532C70.789 35.8774 70.6987 35.8887 70.61 35.8887Z" fill="#B95730"/>
<path d="M80.3477 50.8906C77.4892 50.8906 74.8741 48.9824 74.1057 46.0927C73.1888 42.6483 75.2418 39.1137 78.6923 38.1982C79.2478 38.0509 79.8067 37.9808 80.3566 37.9808C83.2152 37.9808 85.8294 39.889 86.5979 42.7779C87.5155 46.2223 85.4617 49.757 82.0121 50.6724C81.4557 50.8198 80.8969 50.8906 80.3477 50.8906ZM77.1473 45.7505C77.4118 46.2827 77.8666 46.5501 78.4625 46.5501C78.664 46.5501 78.8826 46.5203 79.1148 46.4583C79.8881 46.2529 80.3405 45.8125 80.805 44.7602C81.1848 43.8947 81.4718 43.6112 81.9548 43.4832C82.0726 43.4518 82.1758 43.4365 82.2653 43.4365C82.5443 43.4365 82.6951 43.5815 82.7628 43.8367C82.8531 44.1749 82.7209 44.4164 82.2379 44.5444L81.9572 44.6193L82.2241 45.6225L82.437 45.567C83.3555 45.3222 83.8329 44.7827 83.7869 43.9897L84.2893 43.856L84.0578 42.9873L83.5555 43.1201C83.2869 42.6024 82.8442 42.3464 82.2637 42.3464C82.0605 42.3464 81.8403 42.3777 81.6049 42.4397C80.8316 42.6451 80.3703 43.0879 79.9147 44.1378C79.5446 45.0009 79.2479 45.2868 78.764 45.4148C78.6544 45.4438 78.5568 45.4575 78.4713 45.4575C78.1834 45.4575 78.0302 45.2996 77.9609 45.0388C77.8714 44.7014 77.9891 44.443 78.4721 44.3141L79.0027 44.1732L78.7358 43.17L78.2721 43.2932C77.3537 43.5364 76.8675 44.079 76.915 44.8826L76.4223 45.013L76.6538 45.8818L77.1473 45.7505Z" fill="#B95730"/>
</g>
<path d="M75.7338 67.1825L76.1233 67.0794L65.5252 27.2646L84.6853 22.18L95.1794 61.6052L75.6298 66.7936L75.7338 67.1825L75.837 67.5713L95.7761 62.2807C95.8785 62.2533 95.968 62.1849 96.0212 62.0931C96.0744 62.0013 96.0889 61.8902 96.0615 61.7879L85.361 21.5842C85.3336 21.482 85.2651 21.3926 85.174 21.3395C85.082 21.2863 84.9699 21.271 84.8675 21.2984L64.9285 26.5899C64.8253 26.6164 64.7366 26.6849 64.6834 26.7767C64.6302 26.8684 64.6148 26.9796 64.6423 27.0818L75.3436 67.2855C75.4008 67.5005 75.6217 67.6285 75.837 67.5713L75.7338 67.1825Z" fill="#1D2A30"/>
<path d="M64.165 128.722C64.165 128.722 83.9428 122.065 89.26 121.11C94.5763 120.154 110.135 120.579 110.135 120.579V144.76C110.135 144.76 93.8925 149.68 91.3863 151.649C88.8802 153.617 66.0785 155.228 66.0785 155.228L64.165 128.722Z" fill="#969796"/>
<path d="M64.1651 128.722L64.2941 129.103C64.2974 129.102 65.5287 128.688 67.4647 128.049C70.3693 127.091 74.8511 125.632 79.1022 124.323C83.3494 123.014 87.3828 121.855 89.3318 121.506C92.0791 121.01 97.7744 120.886 102.49 120.887C104.587 120.887 106.497 120.911 107.881 120.934C109.265 120.958 110.122 120.981 110.124 120.981L110.135 120.579H109.732V144.76H110.135L110.018 144.374C110.016 144.375 105.953 145.606 101.572 147.085C99.3807 147.824 97.1108 148.626 95.2255 149.368C94.2821 149.739 93.4354 150.095 92.7395 150.424C92.0412 150.754 91.4993 151.05 91.1372 151.333C90.926 151.507 90.3148 151.758 89.4745 151.979C86.5119 152.779 80.6319 153.498 75.5228 154.007C72.9658 154.262 70.5975 154.468 68.8678 154.608C67.139 154.749 66.0528 154.826 66.0504 154.826L66.0786 155.228L66.481 155.199L64.5675 128.693L64.1651 128.722L63.7627 128.751L65.6762 155.257C65.6924 155.478 65.8851 155.645 66.1068 155.629C66.1101 155.629 71.8135 155.226 77.8362 154.576C80.848 154.252 83.9388 153.866 86.4434 153.436C87.6957 153.22 88.8012 152.994 89.6842 152.757C90.5704 152.514 91.2203 152.283 91.6356 151.965C91.8992 151.756 92.4137 151.467 93.0838 151.152C95.4392 150.039 99.746 148.53 103.446 147.308C105.296 146.697 106.998 146.156 108.238 145.768C109.477 145.38 110.25 145.146 110.252 145.145C110.422 145.093 110.538 144.937 110.538 144.76V120.579C110.538 120.36 110.365 120.182 110.146 120.176C110.144 120.176 106.697 120.082 102.49 120.082C97.7494 120.084 92.071 120.198 89.1883 120.713C86.4748 121.203 80.215 123.105 74.5963 124.89C68.9831 126.676 64.0377 128.34 64.0361 128.341C63.8619 128.399 63.7498 128.568 63.7627 128.751L64.1651 128.722Z" fill="#1D2A30"/>
<path d="M90.7591 131.528C90.231 134.375 90.1592 137.652 89.7544 140.768C89.352 143.886 88.6158 146.821 86.837 148.991C86.6967 149.164 86.7225 149.417 86.895 149.558C87.0676 149.698 87.3216 149.672 87.4619 149.501C89.3956 147.131 90.1415 144.041 90.5535 140.871C90.964 137.7 91.0382 134.426 91.5518 131.675C91.5929 131.457 91.4478 131.247 91.2293 131.205C91.0099 131.165 90.7995 131.309 90.7591 131.528Z" fill="#1D2A30"/>
<path d="M92.4839 123.041C92.0807 124.871 91.7001 126.705 91.334 128.542C91.2905 128.76 91.4324 128.972 91.6509 129.016C91.8695 129.058 92.0815 128.918 92.1251 128.699C92.4904 126.867 92.8702 125.037 93.2717 123.213C93.3193 122.996 93.1814 122.782 92.9645 122.734C92.7468 122.686 92.5315 122.823 92.4839 123.041Z" fill="#1D2A30"/>
<path d="M112.563 42.9007C112.563 45.3435 110.58 47.3242 108.133 47.3242C105.686 47.3242 103.702 45.3435 103.702 42.9007C103.702 40.4571 105.686 38.4764 108.133 38.4764C110.58 38.4764 112.563 40.4571 112.563 42.9007Z" fill="#C0BFBD"/>
<path d="M112.563 42.9015H112.16C112.16 44.0126 111.71 45.0158 110.981 45.7445C110.251 46.4731 109.247 46.9224 108.133 46.9224C107.019 46.9224 106.015 46.4731 105.285 45.7445C104.555 45.0158 104.105 44.0126 104.105 42.9015C104.105 41.7895 104.555 40.7863 105.285 40.0577C106.015 39.3298 107.019 38.8797 108.133 38.8797C109.247 38.8797 110.251 39.3298 110.981 40.0577C111.71 40.7863 112.16 41.7895 112.16 42.9015H112.563H112.966C112.966 40.2356 110.803 38.0746 108.133 38.0746C105.463 38.0746 103.299 40.2356 103.299 42.9015C103.299 45.5673 105.463 47.7275 108.133 47.7275C110.803 47.7275 112.966 45.5673 112.966 42.9015H112.563Z" fill="#1D2A30"/>
<path d="M108.134 46.6016C107.118 46.6016 106.105 46.1861 105.373 45.3713C104.007 43.8495 104.134 41.5098 105.658 40.145C106.366 39.5122 107.25 39.1998 108.131 39.1998C109.148 39.1998 110.16 39.6153 110.892 40.4301C112.258 41.9518 112.131 44.2916 110.608 45.6563C109.9 46.29 109.015 46.6016 108.134 46.6016ZM109.255 44.5372L109.455 44.7586L109.839 44.4148L109.639 44.1926C109.904 43.8262 109.84 43.4212 109.48 43.0202C109.213 42.7215 108.913 42.5919 108.403 42.5919C108.33 42.5919 108.253 42.5951 108.171 42.6C108.087 42.6056 108.011 42.6088 107.941 42.6088C107.565 42.6088 107.38 42.5259 107.219 42.3463C107.027 42.133 107.052 41.9719 107.202 41.8383C107.269 41.7771 107.34 41.7425 107.415 41.7425C107.504 41.7425 107.601 41.7932 107.706 41.9099L107.916 42.1451L108.36 41.7473L108.176 41.542C107.94 41.2795 107.686 41.1418 107.429 41.1418C107.29 41.1418 107.149 41.1821 107.01 41.2634L106.815 41.046L106.43 41.3906L106.625 41.608C106.353 41.9743 106.412 42.3906 106.776 42.7964C107.046 43.0967 107.344 43.2231 107.865 43.2231C107.935 43.2231 108.007 43.2207 108.085 43.2159C108.165 43.2119 108.238 43.2095 108.305 43.2095C108.691 43.2095 108.874 43.2892 109.037 43.4703C109.229 43.6837 109.216 43.8415 109.068 43.9752C109.002 44.0331 108.935 44.0653 108.865 44.0653C108.773 44.0653 108.676 44.0114 108.568 43.8914L108.457 43.7674L108.013 44.1652L108.097 44.2586C108.333 44.5219 108.585 44.6571 108.839 44.6571C108.977 44.6571 109.117 44.6177 109.255 44.5372Z" fill="#77797A"/>
<path d="M91.5801 7.94564C91.5801 10.3885 89.5964 12.3691 87.1499 12.3691C84.7034 12.3691 82.7197 10.3885 82.7197 7.94564C82.7197 5.5028 84.7034 3.52211 87.1499 3.52211C89.5964 3.52211 91.5801 5.5028 91.5801 7.94564Z" fill="#C0BFBD"/>
<path d="M91.5799 7.94638H91.1767C91.1767 9.0583 90.7268 10.0607 89.997 10.7894C89.2673 11.518 88.2625 11.9673 87.1498 11.9673C86.0362 11.9673 85.0322 11.518 84.3025 10.7894C83.5727 10.0607 83.1228 9.0583 83.1228 7.94638C83.1228 6.83446 83.5727 5.83204 84.3025 5.10257C85.0322 4.37471 86.0362 3.92543 87.1498 3.92543C88.2625 3.92543 89.2673 4.37471 89.997 5.10257C90.7268 5.83204 91.1767 6.83446 91.1767 7.94638H91.5799H91.9831C91.9831 5.28052 89.8188 3.12028 87.1498 3.12028C84.4799 3.12028 82.3164 5.28052 82.3164 7.94638C82.3164 10.6122 84.4799 12.7725 87.1498 12.7725C89.8188 12.7725 91.9831 10.6122 91.9831 7.94638H91.5799Z" fill="#1D2A30"/>
<path d="M87.1515 11.6465C86.1347 11.6465 85.1227 11.2318 84.3905 10.417C83.0245 8.89447 83.1519 6.55468 84.6751 5.19075C85.3831 4.5571 86.2669 4.2447 87.1482 4.2447C88.1651 4.2447 89.1779 4.66016 89.9101 5.47578C91.276 6.99672 91.1486 9.3365 89.6238 10.7012C88.9166 11.3349 88.032 11.6465 87.1515 11.6465ZM88.2723 9.58206L88.4715 9.80348L88.8561 9.45968L88.657 9.23826C88.9206 8.87111 88.8569 8.46613 88.4973 8.06517C88.2288 7.76726 87.9304 7.63762 87.42 7.63762C87.3474 7.63762 87.27 7.64003 87.1886 7.64566C87.1047 7.6513 87.0281 7.65372 86.9587 7.65372C86.5814 7.65372 86.3967 7.57079 86.2354 7.39124C86.0443 7.17788 86.0693 7.01684 86.2185 6.88319C86.2862 6.8228 86.3564 6.78818 86.4314 6.78818C86.5209 6.78818 86.6177 6.83891 86.7225 6.95486L86.933 7.18915L87.3765 6.79221L87.1934 6.5877C86.9571 6.32442 86.7039 6.18674 86.4459 6.18674C86.3072 6.18674 86.1669 6.227 86.0266 6.30912L85.8314 6.09173L85.4468 6.43554L85.6428 6.65292C85.371 7.02007 85.4291 7.43634 85.7927 7.84133C86.0629 8.14165 86.3612 8.26807 86.8805 8.26807C86.9499 8.26807 87.0233 8.26564 87.1015 8.26081C87.1813 8.25598 87.2539 8.25436 87.3208 8.25436C87.7079 8.25436 87.8917 8.33407 88.0546 8.51604C88.2457 8.72941 88.2336 8.88641 88.0836 9.02007C88.0183 9.07884 87.9522 9.11025 87.8812 9.11025C87.7901 9.11025 87.6925 9.05629 87.5845 8.93633L87.474 8.81235L87.0297 9.21009L87.1144 9.30429C87.3498 9.56677 87.6014 9.70283 87.857 9.70283C87.9949 9.70283 88.1344 9.66258 88.2723 9.58206Z" fill="#77797A"/>
<path d="M71.013 93.4181C68.6374 92.8352 67.1843 90.439 67.7681 88.0662C68.352 85.6943 70.7517 84.2426 73.1273 84.8263C75.5036 85.4092 76.9567 87.8054 76.3729 90.1773C75.7891 92.5501 73.3893 94.001 71.013 93.4181Z" fill="#C0BFBD"/>
<path d="M71.0128 93.4178L71.1088 93.0265C69.2719 92.5772 68.0422 90.9315 68.0422 89.1247C68.0422 88.8075 68.0801 88.4846 68.1591 88.1618C68.6099 86.3276 70.2573 85.0998 72.0668 85.0998C72.3845 85.0998 72.7078 85.1376 73.0312 85.2165C74.8689 85.6666 76.0986 87.3115 76.0986 89.1175C76.0986 89.4355 76.0607 89.7576 75.9809 90.0813C75.5309 91.9154 73.8835 93.1441 72.074 93.1441C71.7555 93.1441 71.433 93.1062 71.1088 93.0265L71.0128 93.4178L70.9169 93.8091C71.3031 93.9033 71.6918 93.9492 72.074 93.9492C74.2488 93.9492 76.222 92.475 76.7639 90.2729C76.859 89.8872 76.905 89.4991 76.905 89.1175C76.905 86.9468 75.4285 84.9766 73.2231 84.4347C72.8369 84.3397 72.449 84.2946 72.0668 84.2946C69.892 84.2938 67.9196 85.7689 67.3761 87.9702C67.281 88.3558 67.2358 88.7431 67.2358 89.1247C67.2358 91.2962 68.7123 93.2664 70.9169 93.8091L71.0128 93.4178Z" fill="#1D2A30"/>
<path d="M72.073 92.8232C70.749 92.8232 69.4668 92.1115 68.8 90.8635C67.8372 89.06 68.5193 86.8184 70.3264 85.8563C70.8812 85.56 71.4787 85.4199 72.0674 85.4199C73.3914 85.4199 74.6735 86.1308 75.3404 87.3796C76.304 89.1831 75.621 91.4247 73.8147 92.3869C73.2592 92.6823 72.6617 92.8232 72.073 92.8232ZM70.4546 90.2741C70.6207 90.469 70.8247 90.5648 71.0562 90.5648C71.2336 90.5648 71.4263 90.5092 71.6327 90.3989C72.0375 90.1839 72.2375 89.8764 72.3528 89.2298C72.4463 88.7 72.5754 88.502 72.8278 88.3675C72.9221 88.3176 73.0011 88.2943 73.0697 88.2943C73.185 88.2943 73.2664 88.3603 73.3261 88.4714C73.4204 88.6485 73.3882 88.8079 73.1358 88.9432L72.8576 89.0914L73.1382 89.6171L73.3817 89.4875C73.8615 89.2315 74.0623 88.8651 73.9301 88.4223L74.1889 88.2854L73.9454 87.8305L73.6874 87.9682C73.5196 87.7661 73.31 87.6662 73.0713 87.6662C72.8939 87.6662 72.7004 87.721 72.4955 87.8305C72.0907 88.0463 71.8964 88.3506 71.7747 88.9996C71.6763 89.5326 71.5529 89.7274 71.3005 89.8627C71.2021 89.915 71.1191 89.9392 71.0489 89.9392C70.9393 89.9392 70.8602 89.8788 70.8022 89.7709C70.7078 89.5938 70.7506 89.4416 71.003 89.3071L71.1497 89.2282L70.8691 88.7033L70.7578 88.7621C70.2772 89.0189 70.0821 89.382 70.2111 89.8192L69.9482 89.9601L70.1909 90.4142L70.4546 90.2741Z" fill="#77797A"/>
<path d="M124.131 132.733C123.003 130.691 119.777 131.675 116.014 137.58C112.251 143.484 110.714 150.37 111.623 152.877C112.533 155.385 124.704 158.424 124.704 158.424L127.213 152.072L124.131 132.733Z" fill="#F97F4E"/>
<mask id="mask5_3542_20527" style="mask-type:luminance" maskUnits="userSpaceOnUse" x="111" y="131" width="17" height="28">
<path d="M124.131 132.733C123.003 130.691 119.777 131.675 116.014 137.58C112.251 143.484 110.714 150.37 111.623 152.877C112.533 155.385 124.704 158.424 124.704 158.424L127.213 152.072L124.131 132.733Z" fill="white"/>
</mask>
<g mask="url(#mask5_3542_20527)">
<path d="M124.704 158.424C124.704 158.424 112.533 155.385 111.623 152.877C111.453 152.407 111.369 151.783 111.369 151.041C111.369 147.822 112.957 142.377 116.014 137.58C118.619 133.492 120.967 131.763 122.539 131.763C123.238 131.763 123.783 132.105 124.131 132.733L127.213 152.072L124.704 158.424Z" fill="#B95730"/>
</g>
<path d="M124.13 132.733L124.484 132.539C124.282 132.173 124.011 131.874 123.677 131.669C123.344 131.464 122.953 131.359 122.539 131.36C121.601 131.365 120.553 131.856 119.402 132.832C118.25 133.812 116.992 135.295 115.673 137.363C112.578 142.23 110.971 147.703 110.965 151.04C110.966 151.814 111.05 152.477 111.244 153.014C111.407 153.45 111.752 153.805 112.2 154.154C112.989 154.759 114.143 155.333 115.446 155.878C119.35 157.504 124.596 158.812 124.606 158.814C124.802 158.863 125.004 158.759 125.079 158.572L127.588 152.22L127.611 152.009L124.529 132.67L124.484 132.539L124.13 132.733L123.732 132.796L126.797 152.027L124.329 158.276L124.704 158.424L124.801 158.033C124.801 158.033 124.614 157.986 124.282 157.899C123.118 157.593 120.186 156.791 117.459 155.796C116.097 155.3 114.786 154.754 113.785 154.209C113.284 153.936 112.861 153.663 112.553 153.405C112.244 153.15 112.06 152.907 112.003 152.74C111.855 152.337 111.77 151.752 111.771 151.04C111.765 147.941 113.334 142.523 116.354 137.796C117.64 135.776 118.858 134.351 119.924 133.444C120.99 132.534 121.903 132.16 122.539 132.165C122.822 132.166 123.054 132.232 123.255 132.355C123.456 132.478 123.631 132.663 123.777 132.928L124.13 132.733Z" fill="#1D2A30"/>
<path d="M129.278 145.093L122.297 129.839C122.297 129.839 117.748 123.338 116.852 120.86C115.955 118.381 105.948 116.453 103.689 116.453C101.43 116.453 99.0386 120.484 99.0386 120.484L103.74 120.488C103.74 120.488 105.493 122.328 105.713 123.43C105.935 124.531 99.4983 130.009 98.579 130.529C97.6597 131.049 95.2334 131.856 92.6772 133.748C90.1202 135.639 84.3596 137.114 83.2871 138.809C82.2146 140.505 82.9718 140.825 83.7419 141.216C84.512 141.606 85.7997 141.698 85.7997 141.698C85.7997 141.698 85.3401 143.625 85.7997 144.635C86.2593 145.645 88.9389 145.553 88.9389 145.553C88.9389 145.553 89.0647 146.955 90.3742 147.172C91.6838 147.389 92.6772 147.782 92.6772 147.782C92.6772 147.782 98.2113 148.716 100.694 148.191C103.176 147.665 110.708 143.658 112.55 143.826C114.393 143.992 119.482 155.792 119.482 155.792C119.482 155.792 128.175 154.322 129.278 145.093Z" fill="white"/>
<path d="M129.278 145.093L129.645 144.925L122.664 129.671L122.627 129.608C122.626 129.607 122.344 129.204 121.906 128.558C121.247 127.589 120.237 126.076 119.312 124.578C118.387 123.084 117.542 121.587 117.231 120.723C117.079 120.307 116.77 119.961 116.373 119.644C115.676 119.091 114.677 118.611 113.524 118.177C111.797 117.53 109.729 117.002 107.9 116.632C106.065 116.263 104.492 116.052 103.689 116.05C103 116.053 102.359 116.349 101.778 116.752C100.046 117.971 98.7096 120.26 98.6919 120.279C98.6177 120.405 98.6161 120.558 98.6887 120.684C98.7605 120.81 98.8927 120.887 99.0386 120.887L103.74 120.89V120.487L103.448 120.764L103.519 120.841C103.683 121.018 104.101 121.484 104.495 122.015C104.891 122.539 105.255 123.155 105.318 123.508L105.416 123.489H105.315L105.318 123.508L105.416 123.489H105.315L105.311 123.516C105.292 123.599 105.183 123.814 104.999 124.066C104.351 124.968 102.859 126.421 101.453 127.671C100.748 128.298 100.063 128.88 99.508 129.33C99.2306 129.554 98.9862 129.746 98.7903 129.893C98.5959 130.039 98.4427 130.144 98.3798 130.178C97.9686 130.413 97.1179 130.754 96.0664 131.262C95.0117 131.772 93.7424 132.458 92.4377 133.424C91.2322 134.32 89.1631 135.166 87.2657 135.982C86.315 136.392 85.4054 136.798 84.6507 137.217C83.8975 137.64 83.2911 138.06 82.946 138.594C82.5468 139.23 82.3557 139.713 82.3517 140.162C82.3453 140.57 82.5525 140.913 82.7992 141.116C83.0444 141.326 83.3169 141.45 83.5596 141.574C84.0128 141.802 84.5523 141.923 84.9918 142C85.4296 142.074 85.7618 142.099 85.7707 142.099L85.7997 141.698L85.4078 141.604C85.4046 141.621 85.1933 142.494 85.1925 143.425C85.1941 143.892 85.2409 144.376 85.4328 144.801C85.586 145.134 85.865 145.348 86.1602 145.498C86.6085 145.723 87.1351 145.827 87.6165 145.888C88.0971 145.948 88.5293 145.958 88.7655 145.958C88.8801 145.958 88.9486 145.955 88.9526 145.955L88.9389 145.553L88.5373 145.589C88.5406 145.619 88.5752 146.013 88.8067 146.466C89.0325 146.915 89.5074 147.441 90.3081 147.569C90.9403 147.674 91.5007 147.822 91.8999 147.943C92.0991 148.004 92.2587 148.058 92.3668 148.096L92.4901 148.141L92.5289 148.156L92.6103 148.178C92.6216 148.179 95.9954 148.752 98.708 148.753C99.4733 148.753 100.186 148.709 100.777 148.584C101.441 148.442 102.356 148.099 103.422 147.662C105.016 147.008 106.926 146.14 108.622 145.439C109.468 145.089 110.262 144.781 110.929 144.562C111.591 144.343 112.14 144.22 112.43 144.223L112.513 144.227H112.514C112.525 144.226 112.598 144.246 112.703 144.318C112.899 144.452 113.182 144.747 113.489 145.15C114.574 146.569 115.996 149.287 117.126 151.628C117.692 152.801 118.19 153.882 118.545 154.67C118.9 155.458 119.112 155.95 119.112 155.951C119.187 156.122 119.366 156.219 119.55 156.189C119.583 156.182 121.805 155.806 124.188 154.239C126.571 152.677 129.116 149.882 129.678 145.14C129.687 145.066 129.676 144.993 129.645 144.925L129.278 145.093L128.877 145.045C128.337 149.533 125.984 152.086 123.745 153.566C122.626 154.304 121.535 154.763 120.728 155.037C120.325 155.173 119.993 155.264 119.763 155.319C119.649 155.347 119.559 155.367 119.5 155.379L119.416 155.395L119.482 155.792L119.853 155.632C119.851 155.628 118.577 152.673 117.067 149.69C116.312 148.197 115.499 146.698 114.748 145.546C114.373 144.97 114.014 144.48 113.672 144.113C113.501 143.929 113.334 143.777 113.161 143.657C112.987 143.538 112.805 143.446 112.586 143.425L112.43 143.418C111.807 143.424 110.97 143.68 109.944 144.053C108.415 144.615 106.521 145.46 104.781 146.212C103.048 146.963 101.446 147.623 100.61 147.797C100.111 147.903 99.4394 147.949 98.708 147.948C97.4058 147.949 95.9091 147.808 94.7439 147.666C94.1609 147.596 93.6602 147.525 93.3054 147.472C92.9506 147.419 92.745 147.384 92.745 147.384L92.6772 147.781L92.8256 147.407C92.8087 147.401 91.7943 147 90.4404 146.775C89.9316 146.686 89.6888 146.402 89.5235 146.096C89.4453 145.945 89.3969 145.793 89.3711 145.682L89.3453 145.552L89.3405 145.52L89.3397 145.515L89.2147 145.529L89.3405 145.517L89.3397 145.515L89.2147 145.529L89.3405 145.517C89.3211 145.304 89.1389 145.144 88.9252 145.151C88.9244 145.151 88.8696 145.153 88.7655 145.153C88.4809 145.153 87.8551 145.136 87.2826 145.02C86.9964 144.964 86.7254 144.882 86.5255 144.781C86.3223 144.678 86.2078 144.563 86.1666 144.468C86.0513 144.222 85.9965 143.828 85.9989 143.425C85.9981 143.02 86.0465 142.607 86.0957 142.297C86.1199 142.143 86.1449 142.014 86.1626 141.925C86.1811 141.836 86.1924 141.791 86.1916 141.791C86.219 141.676 86.1949 141.554 86.1247 141.459C86.0554 141.364 85.9465 141.305 85.8287 141.296C85.8279 141.296 85.757 141.291 85.6312 141.277C85.2554 141.239 84.4031 141.104 83.9249 140.856C83.6709 140.73 83.45 140.616 83.3266 140.507C83.2032 140.391 83.1653 140.333 83.1581 140.162C83.1548 139.97 83.2637 139.595 83.6282 139.024C83.8185 138.71 84.3354 138.31 85.0433 137.921C86.1045 137.33 87.5778 136.73 89.026 136.103C90.4767 135.472 91.9023 134.819 92.9175 134.071C94.169 133.145 95.3906 132.483 96.418 131.987C97.4485 131.487 98.2694 131.165 98.7774 130.879C98.9282 130.793 99.1249 130.651 99.3902 130.449C100.308 129.748 101.954 128.354 103.385 126.987C104.101 126.303 104.761 125.629 105.253 125.045C105.499 124.752 105.703 124.483 105.855 124.235C106.002 123.983 106.115 123.769 106.122 123.489L106.109 123.351C106.036 122.997 105.865 122.649 105.658 122.299C105.036 121.259 104.041 120.222 104.032 120.21C103.956 120.13 103.851 120.085 103.74 120.085L99.0386 120.082V120.484L99.3854 120.69C99.3854 120.69 99.4193 120.632 99.4862 120.526C99.7216 120.153 100.354 119.206 101.151 118.37C101.549 117.952 101.988 117.563 102.428 117.288C102.868 117.011 103.302 116.854 103.689 116.855C104.203 116.854 105.249 116.971 106.504 117.19C108.39 117.515 110.778 118.064 112.756 118.756C113.744 119.1 114.631 119.482 115.291 119.877C115.955 120.268 116.371 120.688 116.473 120.996C116.714 121.661 117.173 122.54 117.731 123.508C119.403 126.407 121.963 130.064 121.966 130.069L122.297 129.839L121.93 130.006L128.911 145.26L129.278 145.093Z" fill="#1D2A30"/>
<path d="M85.8854 142.092C85.887 142.091 87.6965 141.7 89.5697 141.24C90.5067 141.009 91.459 140.761 92.2162 140.534C92.5944 140.42 92.9234 140.312 93.1846 140.21C93.3153 140.158 93.4281 140.109 93.5281 140.057C93.6281 140.001 93.7128 139.956 93.8104 139.85V139.849L93.7813 139.824L93.8079 139.852L93.8104 139.849L93.7813 139.824L93.8079 139.852C93.82 139.836 93.9474 139.751 94.1232 139.665C94.7514 139.348 96.0271 138.885 97.1245 138.514C97.6753 138.327 98.1841 138.161 98.555 138.042C98.9259 137.922 99.1582 137.851 99.1582 137.851C99.3711 137.785 99.4896 137.559 99.4235 137.347C99.3573 137.134 99.1316 137.016 98.9195 137.082C98.9163 137.083 97.6503 137.476 96.3182 137.939C95.6521 138.172 94.9699 138.421 94.4167 138.651C94.1393 138.766 93.8942 138.876 93.6942 138.98C93.491 139.09 93.3419 139.169 93.2007 139.323L93.3161 139.422L93.2169 139.306L93.2007 139.323L93.3161 139.422L93.2169 139.306L93.212 139.309C93.1717 139.34 92.9822 139.431 92.7306 139.52C91.8331 139.845 90.064 140.298 88.5383 140.661C87.7739 140.843 87.0675 141.004 86.5531 141.119C86.0378 141.235 85.7152 141.304 85.7144 141.304C85.4967 141.352 85.3588 141.566 85.4056 141.783C85.4532 142 85.6677 142.138 85.8854 142.092Z" fill="#1D2A30"/>
<path d="M89.019 145.948C89.0214 145.948 90.0318 145.742 91.2204 145.513C92.4074 145.284 93.7782 145.031 94.4612 144.943C94.891 144.884 95.5151 144.678 96.2715 144.399C98.5204 143.564 101.777 142.065 101.781 142.064C101.984 141.971 102.072 141.732 101.98 141.53C101.886 141.328 101.647 141.239 101.444 141.333C101.443 141.333 101.085 141.498 100.521 141.75C99.6768 142.127 98.3753 142.698 97.1576 143.189C96.5496 143.436 95.9618 143.661 95.4667 143.833C94.974 144.004 94.5612 144.12 94.3571 144.145C92.9089 144.333 88.865 145.158 88.8585 145.159C88.64 145.204 88.4989 145.416 88.5441 145.634C88.5884 145.852 88.8013 145.993 89.019 145.948Z" fill="#1D2A30"/>
<path d="M92.7121 148.183C92.7145 148.183 94.1474 148.061 95.7343 147.871C96.5278 147.776 97.36 147.663 98.076 147.538C98.7961 147.41 99.3799 147.284 99.7597 147.113C100.321 146.853 101.496 146.437 102.512 146.096C103.53 145.753 104.399 145.479 104.401 145.479C104.613 145.412 104.731 145.185 104.664 144.974C104.597 144.762 104.371 144.644 104.158 144.711C104.157 144.711 103.281 144.987 102.255 145.333C101.225 145.68 100.056 146.09 99.4218 146.382C99.2041 146.486 98.6252 146.627 97.9373 146.745C96.8979 146.926 95.5698 147.086 94.507 147.2C93.4435 147.313 92.6451 147.381 92.6435 147.381C92.4218 147.4 92.2573 147.594 92.2758 147.816C92.2944 148.037 92.4895 148.202 92.7121 148.183Z" fill="#1D2A30"/>
<path d="M177.157 138.371C168.673 143.954 163.549 157.439 163.549 157.439L150.306 182.035C150.306 182.035 139.17 154.659 136.015 154.308L124.131 132.732C124.131 132.732 125.536 145.377 120.583 150.745C115.63 156.112 111.623 152.877 111.623 152.877L115.322 163.075L116.244 167.921C116.244 167.921 131.864 214.716 136.971 217.612C142.079 220.509 153.698 221.808 163.549 214.604C173.401 207.401 190.256 180.159 191.852 171.248" fill="#F97F4E"/>
<path d="M176.936 138.036C172.603 140.891 169.182 145.702 166.822 149.799C164.465 153.895 163.177 157.284 163.172 157.296L163.549 157.44L163.194 157.249L149.951 181.845L150.306 182.036L150.68 181.883C150.679 181.88 147.893 175.033 144.71 168.135C143.118 164.685 141.427 161.224 139.93 158.59C139.18 157.272 138.48 156.163 137.854 155.354C137.54 154.949 137.245 154.62 136.959 154.373C136.671 154.129 136.396 153.951 136.06 153.908L136.015 154.308L136.369 154.114L124.484 132.539C124.391 132.37 124.193 132.291 124.009 132.349C123.826 132.407 123.709 132.586 123.73 132.777C123.73 132.778 123.741 132.875 123.758 133.065C123.809 133.633 123.912 134.998 123.912 136.76C123.912 138.829 123.769 141.445 123.24 143.952C122.712 146.458 121.791 148.846 120.287 150.473C118.094 152.842 116.169 153.437 114.716 153.441C113.837 153.441 113.121 153.217 112.625 152.994C112.377 152.882 112.185 152.771 112.058 152.689L111.916 152.593L111.883 152.569L111.877 152.564C111.736 152.45 111.538 152.444 111.389 152.549C111.242 152.654 111.183 152.844 111.244 153.014L114.933 163.182L115.848 167.996L115.861 168.048C115.862 168.052 119.768 179.753 124.315 191.822C126.589 197.858 129.022 203.984 131.211 208.793C132.306 211.198 133.339 213.273 134.267 214.85C134.731 215.639 135.168 216.303 135.58 216.826C135.994 217.349 136.374 217.734 136.772 217.963C139.186 219.329 142.926 220.325 147.246 220.326C152.389 220.327 158.355 218.902 163.787 214.929C166.301 213.089 169.213 210.019 172.218 206.297C176.72 200.716 181.417 193.675 185.143 187.184C188.869 180.684 191.624 174.771 192.249 171.319C192.288 171.1 192.142 170.891 191.924 170.852C191.704 170.812 191.495 170.958 191.455 171.177C191.073 173.326 189.732 176.69 187.781 180.589C184.856 186.445 180.562 193.541 176.084 199.837C171.61 206.132 166.933 211.635 163.311 214.279C158.034 218.139 152.243 219.521 147.246 219.522C143.054 219.523 139.419 218.541 137.17 217.263C136.931 217.13 136.59 216.809 136.214 216.329C134.785 214.519 132.809 210.54 130.697 205.64C127.523 198.283 124.004 188.818 121.279 181.197C119.917 177.385 118.754 174.034 117.931 171.636C117.519 170.437 117.194 169.476 116.97 168.816C116.747 168.155 116.627 167.795 116.626 167.794L116.244 167.921L116.64 167.846L115.719 163L115.701 162.938L112.003 152.74L111.623 152.877L111.37 153.19C111.409 153.219 112.679 154.243 114.716 154.246C116.405 154.25 118.581 153.515 120.879 151.018C122.535 149.221 123.481 146.703 124.028 144.118C124.575 141.531 124.718 138.866 124.719 136.76C124.719 134.37 124.532 132.699 124.532 132.688L124.131 132.733L123.778 132.927L135.662 154.503C135.725 154.617 135.841 154.694 135.971 154.709C136.029 154.71 136.21 154.787 136.432 154.982C136.854 155.344 137.419 156.061 138.04 157.019C140.229 160.38 143.214 166.688 145.637 172.136C146.849 174.862 147.923 177.374 148.694 179.206C149.08 180.122 149.389 180.867 149.603 181.383C149.816 181.9 149.932 182.186 149.933 182.187C149.992 182.332 150.128 182.428 150.284 182.437C150.441 182.445 150.587 182.364 150.661 182.226L163.904 157.63L163.926 157.582C163.927 157.581 164.003 157.379 164.159 157.003C164.701 155.688 166.181 152.306 168.442 148.657C170.702 145.007 173.748 141.094 177.379 138.707C177.565 138.585 177.616 138.335 177.494 138.15C177.371 137.964 177.121 137.913 176.936 138.036Z" fill="#1D2A30"/>
<path d="M131.569 157.769C132.005 157.117 132.407 156.441 132.775 155.75C132.88 155.554 132.805 155.31 132.609 155.205C132.412 155.101 132.168 155.176 132.063 155.372C131.707 156.04 131.319 156.692 130.898 157.322C130.775 157.507 130.825 157.757 131.01 157.88C131.195 158.004 131.445 157.954 131.569 157.769Z" fill="#1D2A30"/>
<path d="M121.264 164.341C124.779 163.969 128.031 162.143 130.292 159.466C130.435 159.296 130.413 159.043 130.243 158.899C130.073 158.756 129.819 158.778 129.676 158.948C127.544 161.472 124.468 163.194 121.18 163.541C120.958 163.565 120.798 163.763 120.822 163.984C120.845 164.205 121.043 164.365 121.264 164.341Z" fill="#1D2A30"/>
<path d="M115.165 163.447C116.529 164.02 117.989 164.345 119.467 164.403C119.69 164.411 119.877 164.239 119.886 164.017C119.895 163.794 119.721 163.607 119.499 163.598C118.118 163.545 116.753 163.24 115.478 162.705C115.273 162.619 115.037 162.715 114.95 162.92C114.864 163.124 114.96 163.36 115.165 163.447Z" fill="#1D2A30"/>
<path d="M153.378 192.9C153.389 193.127 153.395 193.355 153.395 193.582C153.395 194.447 153.311 195.309 153.117 196.145C153.066 196.361 153.202 196.577 153.419 196.627C153.636 196.678 153.853 196.542 153.903 196.326C154.112 195.422 154.201 194.5 154.201 193.582C154.201 193.341 154.195 193.1 154.183 192.861C154.173 192.638 153.983 192.467 153.761 192.478C153.538 192.489 153.367 192.678 153.378 192.9Z" fill="#1D2A30"/>
<path d="M149.956 182.235C151.489 184.903 152.641 187.899 153.157 190.92C153.194 191.139 153.402 191.286 153.621 191.249C153.841 191.211 153.989 191.004 153.951 190.785C153.417 187.655 152.231 184.577 150.656 181.835C150.545 181.641 150.299 181.574 150.105 181.686C149.913 181.796 149.846 182.042 149.956 182.235Z" fill="#1D2A30"/>
<path d="M157.946 186.189C157.925 186.171 155.518 183.134 152.66 181.677C152.462 181.576 152.219 181.655 152.118 181.853C152.017 182.051 152.096 182.294 152.295 182.394C153.607 183.058 154.873 184.137 155.801 185.047C156.265 185.503 156.646 185.916 156.909 186.214C157.041 186.364 157.143 186.484 157.212 186.566C157.281 186.649 157.315 186.691 157.315 186.691C157.455 186.865 157.708 186.893 157.882 186.755C158.056 186.616 158.084 186.363 157.946 186.189Z" fill="#1D2A30"/>
<path d="M178.618 150.344C178.604 150.342 178.205 150.289 177.525 150.289C175.208 150.287 169.573 150.907 164.896 156.289C164.75 156.458 164.769 156.712 164.937 156.858C165.105 157.003 165.359 156.985 165.505 156.817C169.98 151.668 175.336 151.097 177.525 151.094C177.844 151.094 178.094 151.106 178.263 151.119C178.347 151.125 178.412 151.131 178.454 151.135L178.512 151.142C178.732 151.171 178.935 151.016 178.965 150.797C178.994 150.576 178.839 150.373 178.618 150.344Z" fill="#1D2A30"/>
<path d="M186.389 171.152C186.068 171.197 185.744 171.219 185.422 171.219C184.392 171.219 183.375 170.987 182.453 170.516C182.255 170.414 182.012 170.493 181.911 170.69C181.809 170.888 181.887 171.131 182.086 171.232C183.126 171.764 184.27 172.024 185.422 172.024C185.782 172.024 186.143 171.999 186.501 171.949C186.722 171.918 186.876 171.714 186.845 171.494C186.813 171.274 186.609 171.12 186.389 171.152Z" fill="#1D2A30"/>
<path d="M194.997 161.493C193.845 167.023 190.786 169.755 188.175 170.703C187.966 170.779 187.858 171.01 187.933 171.219C188.009 171.428 188.241 171.536 188.449 171.46C191.339 170.418 194.593 167.419 195.787 161.657C195.832 161.439 195.691 161.226 195.474 161.181C195.255 161.136 195.042 161.275 194.997 161.493Z" fill="#1D2A30"/>
<path d="M160.173 129.087C160.173 129.087 160.118 129.099 160.007 129.123C159.232 129.289 155.837 129.961 151.883 129.96C148.26 129.964 144.178 129.389 141.227 127.413C141.041 127.29 140.791 127.339 140.667 127.524C140.544 127.708 140.594 127.959 140.779 128.082C143.961 130.2 148.179 130.762 151.883 130.766C156.504 130.765 160.338 129.874 160.356 129.871C160.572 129.82 160.707 129.604 160.657 129.387C160.606 129.171 160.39 129.036 160.173 129.087Z" fill="#1D2A30"/>
<path d="M115.525 205.19C115.533 205.212 117.227 209.99 120.893 215.191C124.558 220.386 130.208 226.028 138.152 227.672C138.37 227.717 138.583 227.578 138.628 227.36C138.673 227.142 138.533 226.929 138.315 226.884C130.669 225.308 125.155 219.838 121.553 214.728C119.753 212.175 118.433 209.718 117.565 207.902C117.131 206.993 116.81 206.246 116.598 205.726C116.492 205.467 116.414 205.264 116.361 205.127C116.31 204.99 116.285 204.922 116.285 204.921C116.21 204.712 115.98 204.602 115.77 204.676C115.56 204.75 115.45 204.981 115.525 205.19Z" fill="#1D2A30"/>
<path d="M160.716 231.072C159.928 231.665 159.097 232.212 158.25 232.735C158.06 232.852 158.001 233.1 158.118 233.289C158.235 233.479 158.483 233.537 158.673 233.42C159.534 232.889 160.386 232.329 161.201 231.715C161.379 231.581 161.414 231.329 161.28 231.151C161.146 230.974 160.893 230.938 160.716 231.072Z" fill="#1D2A30"/>
<path d="M74.5425 1.27182V17.9763C74.5425 18.1994 74.7231 18.3789 74.9457 18.3789C75.1682 18.3789 75.3488 18.1994 75.3488 17.9763V1.27182C75.3488 1.0496 75.1682 0.869247 74.9457 0.869247C74.7231 0.869247 74.5425 1.0496 74.5425 1.27182Z" fill="#1D2A30"/>
<path d="M71.4717 16.2771L74.6318 20.1813C74.7092 20.2763 74.8229 20.3311 74.9455 20.3311C75.0681 20.3311 75.1826 20.2763 75.2592 20.1813L78.4185 16.2771C78.5588 16.104 78.5314 15.8504 78.358 15.7111C78.1847 15.571 77.9315 15.5976 77.7912 15.7707L74.9455 19.2884L72.099 15.7707C71.9587 15.5976 71.7055 15.571 71.5322 15.7111C71.3588 15.8504 71.3322 16.104 71.4717 16.2771Z" fill="#1D2A30"/>
<path d="M82.9053 84.9183V101.623C82.9053 101.846 83.0859 102.025 83.3085 102.025C83.531 102.025 83.7116 101.846 83.7116 101.623V84.9183C83.7116 84.6961 83.531 84.5157 83.3085 84.5157C83.0859 84.5157 82.9053 84.6961 82.9053 84.9183Z" fill="#1D2A30"/>
<path d="M82.9053 74.895V81.5769C82.9053 81.7991 83.0859 81.9795 83.3085 81.9795C83.531 81.9795 83.7116 81.7991 83.7116 81.5769V74.895C83.7116 74.6727 83.531 74.4924 83.3085 74.4924C83.0859 74.4924 82.9053 74.6727 82.9053 74.895Z" fill="#1D2A30"/>
<path d="M82.9053 68.6513V72.2254C82.9053 72.4476 83.0859 72.6279 83.3085 72.6279C83.531 72.6279 83.7116 72.4476 83.7116 72.2254V68.6513C83.7116 68.4291 83.531 68.2487 83.3085 68.2487C83.0859 68.2487 82.9053 68.4291 82.9053 68.6513Z" fill="#1D2A30"/>
<path d="M79.8354 99.9236L82.9948 103.828C83.0722 103.924 83.1859 103.978 83.3085 103.978C83.431 103.978 83.5455 103.924 83.6221 103.828L86.7815 99.9236C86.9218 99.7505 86.8944 99.4969 86.721 99.3576C86.5484 99.2175 86.2944 99.2448 86.1541 99.4171L83.3085 102.935L80.4628 99.4171C80.3233 99.2448 80.0693 99.2175 79.8959 99.3576C79.7226 99.4969 79.6959 99.7505 79.8354 99.9236Z" fill="#1D2A30"/>
<path d="M99.4316 34.6449V51.3494C99.4316 51.5724 99.6123 51.752 99.8348 51.752C100.057 51.752 100.238 51.5724 100.238 51.3494V34.6449C100.238 34.4226 100.057 34.2423 99.8348 34.2423C99.6123 34.2423 99.4316 34.4226 99.4316 34.6449Z" fill="#1D2A30"/>
<path d="M99.4316 24.6225V31.3045C99.4316 31.5267 99.6123 31.707 99.8348 31.707C100.057 31.707 100.238 31.5267 100.238 31.3045V24.6225C100.238 24.4003 100.057 24.2199 99.8348 24.2199C99.6123 24.2199 99.4316 24.4003 99.4316 24.6225Z" fill="#1D2A30"/>
<path d="M99.4316 18.3788V21.9529C99.4316 22.1759 99.6123 22.3555 99.8348 22.3555C100.057 22.3555 100.238 22.1759 100.238 21.9529V18.3788C100.238 18.1566 100.057 17.9762 99.8348 17.9762C99.6123 17.9762 99.4316 18.1566 99.4316 18.3788Z" fill="#1D2A30"/>
<path d="M96.3608 49.6503L99.521 53.5553C99.5984 53.6503 99.7121 53.7051 99.8347 53.7051C99.9572 53.7051 100.072 53.6503 100.148 53.5553L103.308 49.6503C103.448 49.4772 103.421 49.2236 103.247 49.0843C103.075 48.9442 102.821 48.9716 102.68 49.1447L99.8347 52.6616L96.9882 49.1439C96.8487 48.9708 96.5947 48.9442 96.4213 49.0843C96.2479 49.2236 96.2213 49.4772 96.3608 49.6503Z" fill="#1D2A30"/>
</g>
<defs>
<clipPath id="clip0_3542_20527">
<rect width="228" height="234" fill="white"/>
</clipPath>
</defs>
</svg>
