<svg width="46" height="32" viewBox="0 0 46 32" fill="none" xmlns="http://www.w3.org/2000/svg">
<path d="M31.1451 31.8961C32.1995 31.8961 33.0543 30.4066 33.0543 28.5692C33.0543 26.7317 32.1995 25.2422 31.1451 25.2422C30.0906 25.2422 29.2358 26.7317 29.2358 28.5692C29.2358 30.4066 30.0906 31.8961 31.1451 31.8961Z" stroke="#FF5061" stroke-width="0.0970145" stroke-linecap="round" stroke-linejoin="round"/>
<path d="M32.7821 30.0313C33.0538 29.401 32.8481 29.0147 32.8481 28.5678C32.8481 27.6283 32.5357 26.5638 31.975 25.8965C31.8249 26.3743 31.7448 26.8716 31.7373 27.3726C31.7412 28.3132 32.2253 29.3669 32.7821 30.0313Z" fill="#FF5061"/>
<path d="M34.0826 30.7067C35.137 30.7067 35.9918 29.2171 35.9918 27.3797C35.9918 25.5423 35.137 24.0527 34.0826 24.0527C33.0281 24.0527 32.1733 25.5423 32.1733 27.3797C32.1733 29.2171 33.0281 30.7067 34.0826 30.7067Z" fill="white"/>
<path d="M29.3965 28.6728C29.3965 29.0435 29.2461 29.3401 29.4508 29.8436C30.324 29.1401 30.9875 27.9596 30.9875 26.743C30.9759 26.3143 30.9137 25.8885 30.8022 25.4746C29.9233 26.1702 29.3965 27.4562 29.3965 28.6728Z" fill="#FF5061"/>
<path d="M28.7349 29.8766C29.7894 29.8766 30.6442 28.3871 30.6442 26.5496C30.6442 24.7122 29.7894 23.2227 28.7349 23.2227C27.6805 23.2227 26.8257 24.7122 26.8257 26.5496C26.8257 28.3871 27.6805 29.8766 28.7349 29.8766Z" fill="white"/>
<path d="M31.1447 31.8957V26.9062M31.1447 28.8605L30.3715 27.9717M31.1447 29.922L30.03 28.641M31.1447 31.0157L29.9941 29.6927M31.1447 28.8624L32.0819 27.7843M31.1447 29.9239L32.2953 28.601M31.1447 31.0176L32.2953 29.6947" stroke="#FF5061" stroke-width="0.0970145" stroke-linecap="round" stroke-linejoin="round"/>
<path d="M28.7349 29.8766C29.7894 29.8766 30.6442 28.3871 30.6442 26.5496C30.6442 24.7122 29.7894 23.2227 28.7349 23.2227C27.6805 23.2227 26.8257 24.7122 26.8257 26.5496C26.8257 28.3871 27.6805 29.8766 28.7349 29.8766Z" stroke="#439916" stroke-width="0.0970145" stroke-linecap="round" stroke-linejoin="round"/>
<path d="M28.7351 24.8906V31.9104M28.7351 26.8448L27.7989 25.7687M28.7351 27.9064L27.5845 26.5834M28.7351 29.0001L27.5845 27.6771M28.7351 26.8468L29.6732 25.7687M28.7351 27.9083L29.8857 26.5853M28.7351 29.002L29.8857 27.679" stroke="#439916" stroke-width="0.0970145" stroke-linecap="round" stroke-linejoin="round"/>
<path d="M34.0826 30.7067C35.137 30.7067 35.9918 29.2171 35.9918 27.3797C35.9918 25.5423 35.137 24.0527 34.0826 24.0527C33.0281 24.0527 32.1733 25.5423 32.1733 27.3797C32.1733 29.2171 33.0281 30.7067 34.0826 30.7067Z" stroke="#FFCD52" stroke-width="0.0970145" stroke-linecap="round" stroke-linejoin="round"/>
<path d="M34.0822 25.7188V31.9092M34.0822 27.673L33.146 26.5968M34.0822 28.7345L32.9316 27.4115M34.0822 29.8282L32.9316 28.5052M34.0822 27.6749L35.0194 26.5968M34.0822 28.7364L35.2328 27.4135M34.0822 29.8311L35.2328 28.5072" stroke="#FFCD52" stroke-width="0.0970145" stroke-linecap="round" stroke-linejoin="round"/>
<path d="M30.1731 17.4434H13.3828V19.0278H14.545L14.9583 21.3733L15.2717 23.1519L15.6898 25.5208L16.073 27.6945L16.4077 29.5931L16.7715 31.6566V31.6576L16.8006 31.8215H26.7553L27.2986 28.7384V28.7375L27.4237 28.0301L28.0077 24.7168L28.0514 24.4671L28.5937 21.3908V21.3899L28.6975 20.8015L29.0109 19.0278H30.1731V17.4434Z" fill="#F4F4F4"/>
<path d="M43.7357 7.01795L38.861 2.1156C38.3685 1.62029 37.57 1.62029 37.0774 2.1156L32.1314 7.0897C31.6389 7.58502 31.6389 8.38809 32.1314 8.88341L37.0061 13.7857C37.4986 14.2811 38.2972 14.2811 38.7897 13.7857L43.7357 8.81166C44.2282 8.31634 44.2282 7.51327 43.7357 7.01795Z" fill="#C1E3F7"/>
<path d="M44.8856 7.05237L38.8252 0.961048C38.3325 0.465872 37.5337 0.465872 37.0411 0.961048L30.9806 7.05237C30.4879 7.54755 30.4879 8.35039 30.9806 8.84556L37.0411 14.9369C37.5337 15.4321 38.3325 15.4321 38.8252 14.9369L44.8856 8.84556C45.3783 8.35039 45.3783 7.54755 44.8856 7.05237Z" stroke="#008EF8" stroke-width="0.0970145" stroke-linecap="round" stroke-linejoin="round"/>
<path d="M29.009 19.0137V19.0282C29.0095 19.0234 29.0095 19.0185 29.009 19.0137ZM14.5422 19.0137C14.5413 19.0185 14.5413 19.0234 14.5422 19.0282V19.0137Z" fill="#439916"/>
<path d="M22.4683 24.8008L27.0339 27.0066L25.7147 29.768L21.1491 27.5622L22.4683 24.8008Z" fill="#008EF8"/>
<path d="M22.4678 24.7988L24.0908 27.2828L27.0333 27.0048L22.4678 24.7988Z" fill="#C1E3F7"/>
<path d="M24.2103 27.2007C24.3004 27.2007 24.3733 27.1273 24.3733 27.0369C24.3733 26.9464 24.3004 26.873 24.2103 26.873C24.1203 26.873 24.0474 26.9464 24.0474 27.0369C24.0474 27.1273 24.1203 27.2007 24.2103 27.2007Z" fill="#008EF8"/>
<path d="M22.6509 10.4102L25.7574 14.4335L23.3514 16.3124L20.2448 12.2891L22.6509 10.4102Z" fill="#008EF8"/>
<path d="M22.6504 10.4102L22.9996 13.3615L25.7568 14.4337L22.6504 10.4102Z" fill="#C1E3F7"/>
<path d="M23.2177 13.353C23.3077 13.353 23.3807 13.2797 23.3807 13.1892C23.3807 13.0987 23.3077 13.0254 23.2177 13.0254C23.1277 13.0254 23.0547 13.0987 23.0547 13.1892C23.0547 13.2797 23.1277 13.353 23.2177 13.353Z" fill="#489EE0"/>
<path d="M21.8509 20.7656L22.627 26.2527C22.9608 28.603 21.004 28.4293 18.6669 28.764L17.6191 21.3725L21.8509 20.7656Z" fill="#C1E3F7"/>
<path d="M16.6553 27.1816L18.4109 26.9297L18.6713 28.7649C18.2056 28.8317 17.7327 28.7097 17.3565 28.4259C16.9803 28.142 16.7316 27.7195 16.6651 27.2512L16.6553 27.1816Z" fill="#008EF8"/>
<path d="M21.8509 20.7642L17.6211 21.371C17.8516 21.3379 18.0863 21.3508 18.3118 21.409C18.5373 21.4671 18.7492 21.5694 18.9354 21.7099C19.1217 21.8504 19.2785 22.0265 19.3971 22.228C19.5156 22.4295 19.5936 22.6525 19.6264 22.8843L19.6361 22.9496L22.1109 22.5945L23.8669 22.3408L23.8582 22.2755C23.7912 21.8074 23.5421 21.3853 23.1657 21.1019C22.7893 20.8185 22.3164 20.697 21.8509 20.7642Z" fill="#008EF8"/>
<path d="M18.6118 24.2281L21.6833 23.7363M18.7166 24.8622L21.7881 24.3705M18.8621 25.3549L21.9336 24.8622M18.9649 25.8203L22.0355 25.3286M19.0697 26.273L22.1412 25.7803M19.1299 26.7794L22.2014 26.2867M19.1978 27.2867L22.2693 26.795" stroke="#489EE0" stroke-width="0.0970145" stroke-linecap="round" stroke-linejoin="round"/>
<path d="M29.0122 19.0137L28.6969 20.802L28.5931 21.3904V21.3913L28.0508 24.4675L28.0071 24.7173L27.4231 28.0306L27.2979 28.738V28.7389L26.7547 31.822H16.8L16.7709 31.6581V31.6571L16.4071 29.5936L16.0724 27.695L15.6892 25.5212L15.2711 23.1524L14.9577 21.3738L14.5415 19.0137H29.0122Z" stroke="#F46534" stroke-width="0.194029" stroke-linecap="round" stroke-linejoin="round"/>
<path d="M15.9516 18.9805L18.1732 31.822M17.3185 18.9805L19.5411 31.822M18.7233 18.9805L20.9459 31.822M20.0786 18.9805L22.3002 31.822M21.4455 18.9805L23.6681 31.822M22.8503 18.9805L25.0729 31.822M24.2424 18.9805L26.465 31.822M27.2984 28.7389L27.2227 28.3018L26.8424 26.1076L26.4524 23.849L26.0702 21.6411L25.7054 19.5317L25.6161 19.0136L25.6093 18.9805M27.0141 18.9805L27.0199 19.0136L27.2081 20.0976L27.5894 22.3055L27.9804 24.5631L28.0075 24.7173M28.1831 19.0136L28.5314 21.0284L28.5935 21.3903M18.3206 19.0136L17.5135 20.1093L16.4066 21.6118L15.2715 23.1523M20.4841 19.0136L20.161 19.4527L19.0628 20.9425L17.9248 22.487L16.8179 23.9885L15.6896 25.5212M22.469 19.0136L21.6453 20.1317L20.5374 21.6342L19.4402 23.1231L18.3032 24.6685L17.1953 26.171L16.0728 27.695M24.2026 19.0136L23.1122 20.4937L21.9752 22.0382L20.8673 23.5407L19.771 25.0295L18.6321 26.5739L17.5251 28.0764L16.4075 29.5936" stroke="#F46534" stroke-width="0.0970145" stroke-linecap="round" stroke-linejoin="round"/>
<path d="M26.0868 19.0137L25.7055 19.5317L24.5986 21.0352L23.4703 22.565L22.3333 24.1095L21.2264 25.612L20.1292 27.1008L18.9912 28.6463L17.8833 30.1478L16.7715 31.6571V31.6581M18.5692 31.822L19.3559 30.7546L20.4939 29.2102L21.5912 27.7213L22.6981 26.2188L23.8361 24.6744L24.9634 23.1436L26.0703 21.6411L27.2083 20.0976L28.0067 19.0137M28.6975 20.802L28.5316 21.0284L27.5896 22.3055L26.4526 23.849L25.3456 25.3525L24.2183 26.8833L23.0803 28.4267L21.9734 29.9292L20.8762 31.419L20.5783 31.822M28.0514 24.4675L27.9805 24.5632L26.8426 26.1076L25.7366 27.6101L24.6093 29.1409L23.4713 30.6844V30.6854L22.6331 31.822M24.6297 31.822L24.9886 31.3351L26.1159 29.8053L27.2229 28.3018L27.4237 28.0306" stroke="#F46534" stroke-width="0.0970145" stroke-linecap="round" stroke-linejoin="round"/>
<path d="M36.8329 16.4364C36.6379 16.4829 36.4403 16.5171 36.2411 16.5388C36.0422 16.5622 35.8443 16.5787 35.6454 16.5885C35.4465 16.5982 35.2477 16.5992 35.0488 16.5943C34.8481 16.5911 34.6478 16.5748 34.4492 16.5456C34.6444 16.4983 34.8424 16.4638 35.042 16.4422C35.2399 16.4188 35.4381 16.4026 35.6367 16.3935C35.8356 16.3837 36.0344 16.3828 36.2333 16.3876C36.434 16.3908 36.6343 16.4071 36.8329 16.4364Z" fill="#439916"/>
<path d="M35.6961 17.6901C35.649 17.4942 35.6147 17.2954 35.5932 17.095C35.57 16.895 35.5535 16.696 35.5447 16.4959C35.536 16.2959 35.5341 16.0969 35.5389 15.8959C35.5417 15.6941 35.5579 15.4926 35.5874 15.293C35.634 15.4893 35.6683 15.6884 35.6903 15.8891C35.7126 16.0842 35.73 16.2872 35.7388 16.4872C35.7475 16.6872 35.7494 16.8872 35.7446 17.0872C35.741 17.289 35.7248 17.4904 35.6961 17.6901ZM33.2426 16.9174C33.2904 17.0867 33.3261 17.2592 33.3493 17.4335C33.3736 17.6062 33.391 17.7789 33.4017 17.9526C33.4124 18.1263 33.4153 18.3009 33.4114 18.4746C33.4095 18.6507 33.3945 18.8265 33.3668 19.0004C33.3186 18.8313 33.2829 18.6588 33.26 18.4843C33.2358 18.3116 33.2174 18.138 33.2077 17.9643C33.198 17.7906 33.195 17.617 33.1989 17.4423C33.201 17.2665 33.2156 17.0911 33.2426 16.9174Z" fill="#439916"/>
<path d="M34.3444 17.8934C34.1759 17.942 34.004 17.9778 33.8302 18.0007C33.6585 18.0251 33.4868 18.0437 33.3141 18.0534C33.1414 18.0632 32.9687 18.0671 32.7951 18.0632C32.6202 18.0613 32.4458 18.0463 32.2732 18.0183C32.4413 17.9698 32.6129 17.9339 32.7864 17.911C32.9581 17.8866 33.1298 17.869 33.3025 17.8583C33.4752 17.8476 33.6478 17.8456 33.8215 17.8495C33.9966 17.8516 34.1714 17.8663 34.3444 17.8934ZM12.3968 20.1813C12.2017 20.2286 12.0037 20.2632 11.8041 20.2847C11.6062 20.3081 11.4079 20.3244 11.2094 20.3335C11.0153 20.3433 10.8116 20.3442 10.6127 20.3394C10.412 20.3367 10.2117 20.3204 10.0132 20.2906C10.208 20.2433 10.4057 20.2087 10.605 20.1872C10.799 20.1637 11.0018 20.1472 11.2006 20.1384C11.3995 20.1296 11.5984 20.1277 11.7973 20.1325C11.9979 20.1363 12.1982 20.1525 12.3968 20.1813Z" fill="#439916"/>
<path d="M11.255 21.4362C11.2088 21.2399 11.1747 21.0408 11.1531 20.8401C11.1299 20.6411 11.1134 20.4417 11.1037 20.242C11.094 20.0469 11.093 19.842 11.0978 19.642C11.101 19.4402 11.1172 19.2388 11.1464 19.0391C11.1934 19.235 11.2277 19.4338 11.2492 19.6342C11.2725 19.8332 11.2886 20.0329 11.2977 20.2333C11.3074 20.4284 11.3084 20.6323 11.3035 20.8333C11.3003 21.0351 11.2841 21.2365 11.255 21.4362ZM8.80637 20.6625C8.85423 20.8317 8.88957 21.0042 8.91211 21.1787C8.93734 21.3514 8.9548 21.525 8.9645 21.6987C8.9742 21.8723 8.97808 22.046 8.9742 22.2207C8.97227 22.3965 8.95735 22.5719 8.92958 22.7456C8.88162 22.5764 8.84627 22.4039 8.82383 22.2294C8.79861 22.0567 8.78114 21.8841 8.77144 21.7104C8.76174 21.5367 8.75786 21.3621 8.76174 21.1874C8.76372 21.0116 8.77863 20.8362 8.80637 20.6625Z" fill="#439916"/>
<path d="M9.90378 21.6437C9.73558 21.692 9.56403 21.7275 9.39057 21.7501C9.21886 21.7755 9.04617 21.793 8.87445 21.8028C8.70274 21.8125 8.52811 21.8164 8.35543 21.8125C8.18026 21.8106 8.00548 21.7956 7.83252 21.7676C8.0004 21.7192 8.17161 21.6834 8.34476 21.6603C8.51647 21.6359 8.68916 21.6174 8.86184 21.6076C9.03453 21.5979 9.20721 21.594 9.38087 21.5979C9.55606 21.6001 9.73085 21.6154 9.90378 21.6437ZM15.5917 1.14438C15.3966 1.19168 15.1986 1.22623 14.999 1.24779C14.8049 1.27121 14.6022 1.2878 14.4043 1.29658C14.2064 1.30536 14.0065 1.30828 13.8067 1.30341C13.6063 1.29972 13.4064 1.28343 13.2081 1.25462C13.4029 1.20724 13.6006 1.17269 13.7999 1.1512C13.9939 1.12779 14.1967 1.11023 14.3946 1.10242C14.5925 1.09462 14.7923 1.09071 14.9922 1.09657C15.1929 1.09948 15.3931 1.11544 15.5917 1.14438Z" fill="#439916"/>
<path d="M14.4562 2.39717C14.4099 2.20079 14.3759 2.00169 14.3543 1.80105C14.331 1.60592 14.3136 1.40298 14.3048 1.20298C14.2961 1.00297 14.2942 0.802959 14.299 0.602951C14.3022 0.401124 14.3184 0.199717 14.3475 0C14.3945 0.196266 14.4289 0.39539 14.4503 0.596122C14.4736 0.795154 14.4898 0.994512 14.4989 1.19419C14.5079 1.39388 14.5098 1.59389 14.5047 1.79422C14.501 1.99602 14.4848 2.1974 14.4562 2.39717ZM12.0007 1.62348C12.0487 1.79297 12.084 1.96581 12.1065 2.14057C12.1307 2.31326 12.1492 2.48595 12.1589 2.65962C12.1686 2.83328 12.1724 3.00695 12.1686 3.18159C12.168 3.35766 12.1544 3.53344 12.1278 3.70747C12.08 3.53822 12.0443 3.36573 12.0211 3.19135C11.9968 3.01866 11.9794 2.84597 11.9697 2.6723C11.96 2.49864 11.9561 2.32497 11.96 2.15033C11.9606 1.97394 11.9742 1.79784 12.0007 1.62348Z" fill="#439916"/>
<path d="M13.0981 2.60299C12.9298 2.65094 12.7583 2.68678 12.5849 2.71025C12.4132 2.73463 12.2405 2.75218 12.0678 2.7629C11.8951 2.77363 11.7224 2.77655 11.5488 2.77265C11.3739 2.77071 11.1995 2.75571 11.0269 2.7278C11.1949 2.67881 11.3665 2.64295 11.5401 2.62054C11.7118 2.59616 11.8835 2.57764 12.0562 2.56789C12.2289 2.55814 12.4025 2.55423 12.5762 2.55814C12.751 2.56012 12.9255 2.57511 13.0981 2.60299Z" fill="#439916"/>
<path d="M0.0198514 14.9707L2.27641 18.8733C2.13599 18.8102 1.99988 18.7379 1.86895 18.6567L0.00141865 15.4322C-0.00306812 15.2781 0.00309095 15.1239 0.0198514 14.9707ZM0.106194 16.2254L1.23932 18.1855C0.673921 17.6618 0.278967 16.9786 0.106194 16.2254ZM0.165373 14.2263L2.99432 19.1182C2.87938 19.0922 2.76601 19.0596 2.65476 19.0206L0.0790302 14.5639C0.0999125 14.4495 0.128765 14.3367 0.165373 14.2263ZM0.407909 13.6126L3.64237 19.208C3.54225 19.206 3.44239 19.1969 3.34357 19.1806L0.283731 13.8877C0.319011 13.7934 0.360495 13.7015 0.407909 13.6126ZM0.709624 13.1043L4.23125 19.1963C4.14103 19.206 4.0508 19.2109 3.95767 19.2119L0.562162 13.3336C0.567731 13.3217 0.574219 13.3103 0.581565 13.2994C0.620371 13.2331 0.664028 13.1726 0.709624 13.1043ZM1.05015 12.6848L4.76095 19.1045C4.67752 19.125 4.59408 19.1426 4.50871 19.1563L0.8794 12.8799C0.93212 12.8113 0.989152 12.7461 1.05015 12.6848ZM1.42365 12.3345L5.24893 18.9514C5.17035 18.9826 5.09371 19.0109 5.01416 19.0343L1.23641 12.4974C1.29539 12.4393 1.35792 12.3848 1.42365 12.3345ZM1.84469 12.033L5.71751 18.7338C5.64707 18.7753 5.57417 18.8125 5.49923 18.845L1.64096 12.1677C1.70693 12.1199 1.77581 12.074 1.84469 12.033ZM2.30551 11.7921L6.15408 18.4499C6.08965 18.5003 6.02262 18.5472 5.95326 18.5904L2.08529 11.9043C2.15633 11.8623 2.22988 11.8249 2.30551 11.7921ZM2.80611 11.6116L6.55863 18.1026C6.50042 18.163 6.43639 18.2196 6.3743 18.2733L2.56648 11.6857C2.64506 11.6594 2.72461 11.633 2.80611 11.6116ZM3.33775 11.4994L6.91758 17.6918C6.86635 17.7628 6.81129 17.8308 6.75266 17.8957L3.08066 11.5442C3.16542 11.5243 3.25126 11.5093 3.33775 11.4994ZM3.91692 11.4642L7.23385 17.202C7.20086 17.2645 7.16788 17.323 7.13683 17.3806C7.12422 17.402 7.1087 17.4255 7.09512 17.445L3.63655 11.4691C3.72968 11.4633 3.82088 11.4613 3.91692 11.4642ZM4.53393 11.5247L7.48803 16.6362C7.45541 16.736 7.41685 16.8337 7.37258 16.9288L4.22543 11.4847C4.3291 11.4905 4.43221 11.5038 4.53393 11.5247ZM5.21983 11.715L7.66556 15.9425C7.64832 16.0636 7.62337 16.1836 7.59086 16.3015L4.87446 11.5979C4.99168 11.6303 5.10699 11.6694 5.21983 11.715ZM6.07744 12.1716L7.68982 14.96C7.70976 15.1322 7.7156 15.3058 7.70728 15.479L5.63893 11.9043C5.72042 11.9482 5.80482 11.995 5.88438 12.0457C5.96393 12.0965 6.01632 12.1277 6.07744 12.1716ZM7.5084 14.1082L6.71967 12.7423C7.07388 13.1377 7.34247 13.6029 7.5084 14.1082Z" fill="#FFEDC5"/>
<path d="M10.6211 11.5801L4.0178 15.4404L1.31475 10.7642L7.91804 6.90379L10.6211 11.5801Z" stroke="#008EF8" stroke-width="0.0970145" stroke-linecap="round" stroke-linejoin="round"/>
<path d="M8.73766 17.1068C10.6242 17.1068 12.1535 15.5688 12.1535 13.6716C12.1535 11.7743 10.6242 10.2363 8.73766 10.2363C6.85112 10.2363 5.32178 11.7743 5.32178 13.6716C5.32178 15.5688 6.85112 17.1068 8.73766 17.1068Z" fill="#C1E3F7"/>
<path d="M13.3828 17.4434H30.1731V19.0132H13.3828V17.4434Z" stroke="#F46534" stroke-width="0.194029" stroke-linecap="round" stroke-linejoin="round"/>
<path d="M27.14 14.9738C27.3341 14.5836 27.5281 14.205 27.7318 13.8235C27.9356 13.4421 28.1412 13.0655 28.3459 12.6859C28.5506 12.3064 28.765 11.9327 28.9794 11.5591L29.3035 11C29.4141 10.8146 29.5227 10.6283 29.6362 10.4449C29.5392 10.64 29.4422 10.8351 29.3452 11.0224L29.0444 11.5952C28.8436 11.9766 28.635 12.3542 28.4303 12.7328C28.2256 13.1113 28.0112 13.486 27.7968 13.8596C27.5824 14.2333 27.3651 14.606 27.14 14.9738ZM22.9995 7.74036C23.0645 7.31401 23.1401 6.88862 23.2168 6.46422C23.2934 6.03981 23.3788 5.61638 23.4593 5.19587C23.5398 4.77537 23.631 4.34998 23.7232 3.92753L23.8668 3.29336C23.9172 3.08359 23.9638 2.87285 24.0171 2.66406C23.9851 2.87773 23.9473 3.09042 23.9133 3.30311L23.7998 3.94021C23.7232 4.36462 23.6388 4.78805 23.5573 5.20856C23.4758 5.62906 23.3856 6.05444 23.2934 6.4769C23.2012 6.89936 23.1042 7.32181 22.9995 7.74036ZM19.1975 15.8909C18.9248 15.5563 18.6619 15.2158 18.4 14.8743C18.1381 14.5328 17.8819 14.1865 17.6239 13.8421C17.3658 13.4977 17.1146 13.1474 16.8652 12.7962L16.4917 12.2693C16.3705 12.0908 16.2463 11.9152 16.127 11.7347C16.2637 11.9015 16.3957 12.0722 16.5296 12.2401L16.9244 12.7513C17.1864 13.0938 17.4425 13.4401 17.7005 13.7835C17.9586 14.127 18.2099 14.4782 18.4592 14.8294C18.7085 15.1807 18.9578 15.5329 19.1975 15.8909Z" fill="#D8D8D8"/>
<path d="M18.9472 10.1338C19.0827 9.91809 19.1326 9.65898 19.0869 9.40796C19.0248 9.08307 18.8143 8.84989 18.5407 8.5533C18.1643 8.14645 18.0314 8.15328 17.5706 7.70058C17.1961 7.33471 16.9885 7.13373 16.9041 6.83615C16.7877 6.43614 16.8808 6.18247 16.9846 6.02344L14.6019 6.24881C14.5122 6.37672 14.4514 6.52281 14.4237 6.67686C14.3961 6.83091 14.4023 6.98917 14.4419 7.14056C14.5282 7.43325 14.7329 7.63814 15.1083 8.00401C15.5721 8.45768 15.704 8.45085 16.0785 8.8577C16.3521 9.15039 16.5636 9.3865 16.6256 9.71237C16.6718 9.96395 16.6212 10.2238 16.484 10.4392L18.9472 10.1338Z" fill="#FFCD52"/>
<path d="M15.5059 13.8094C15.7368 14.0748 15.9589 14.347 16.185 14.6202C16.411 14.8934 16.6235 15.1704 16.8388 15.4475C17.0542 15.7246 17.2667 16.0056 17.4753 16.2885L17.7867 16.7139C17.8837 16.8583 17.9914 17.0008 18.0903 17.1461C17.9749 17.0134 17.8633 16.8778 17.7498 16.7442L17.4161 16.3354C17.1939 16.0622 16.9785 15.7851 16.7622 15.508C16.5459 15.2309 16.3344 14.9499 16.1268 14.666C15.9191 14.3821 15.7047 14.1001 15.5059 13.8094ZM29.3964 13.8133C29.2994 14.0426 29.1849 14.267 29.0733 14.4904C28.9618 14.7138 28.8444 14.9343 28.727 15.1548C28.6096 15.3753 28.4883 15.5929 28.3612 15.8085L28.1721 16.1315C28.1051 16.2368 28.0421 16.3451 27.9732 16.4495C28.0227 16.3344 28.078 16.2222 28.1304 16.108L28.2962 15.7724C28.4068 15.549 28.5242 15.3285 28.6416 15.108C28.759 14.8875 28.8812 14.6699 29.0083 14.4543C29.1354 14.2387 29.2557 14.024 29.3964 13.8133ZM21.9331 4.24609C21.9127 4.69197 21.8807 5.13784 21.8477 5.58273C21.8147 6.02763 21.774 6.47252 21.7371 6.91645C21.7002 7.36037 21.6527 7.80526 21.6042 8.24918L21.5305 8.91458C21.5014 9.13605 21.4771 9.35752 21.4451 9.57899C21.4548 9.35557 21.4703 9.13312 21.4829 8.9097L21.5305 8.24235C21.5634 7.79648 21.6042 7.35256 21.6411 6.90766C21.6779 6.46277 21.7255 6.01982 21.774 5.5759C21.8225 5.13198 21.8719 4.68904 21.9331 4.24609Z" fill="#D8D8D8"/>
<path d="M14.959 21.0821L16.3996 19.0273" stroke="#F46534" stroke-width="0.0970145" stroke-linecap="round" stroke-linejoin="round"/>
<path d="M12.1939 31.8961C13.2484 31.8961 14.1032 30.4066 14.1032 28.5692C14.1032 26.7317 13.2484 25.2422 12.1939 25.2422C11.1395 25.2422 10.2847 26.7317 10.2847 28.5692C10.2847 30.4066 11.1395 31.8961 12.1939 31.8961Z" stroke="#FF5061" stroke-width="0.0970145" stroke-linecap="round" stroke-linejoin="round"/>
<path d="M13.832 30.0313C14.1036 29.401 13.8979 29.0147 13.8979 28.5678C13.8979 27.6283 13.5855 26.5638 13.0248 25.8965C12.8747 26.3743 12.7946 26.8716 12.7871 27.3726C12.791 28.3132 13.2751 29.3669 13.832 30.0313Z" fill="#FF5061"/>
<path d="M15.1319 30.7067C16.1863 30.7067 17.0411 29.2171 17.0411 27.3797C17.0411 25.5423 16.1863 24.0527 15.1319 24.0527C14.0775 24.0527 13.2227 25.5423 13.2227 27.3797C13.2227 29.2171 14.0775 30.7067 15.1319 30.7067Z" fill="white"/>
<path d="M10.4439 28.6728C10.4439 29.0435 10.2935 29.3401 10.4982 29.8436C11.3713 29.1401 12.0349 27.9596 12.0349 26.743C12.0232 26.3143 11.961 25.8885 11.8496 25.4746C10.9726 26.1702 10.4439 27.4562 10.4439 28.6728Z" fill="#FF5061"/>
<path d="M9.78424 29.8766C10.8387 29.8766 11.6935 28.3871 11.6935 26.5496C11.6935 24.7122 10.8387 23.2227 9.78424 23.2227C8.7298 23.2227 7.875 24.7122 7.875 26.5496C7.875 28.3871 8.7298 29.8766 9.78424 29.8766Z" fill="white"/>
<path d="M12.194 31.8957V26.9062M12.194 28.8605L11.4208 27.9717M12.194 29.922L11.0794 28.641M12.194 31.0157L11.0435 29.6927M12.194 28.8624L13.1312 27.7843M12.194 29.9239L13.3446 28.601M12.194 31.0176L13.3446 29.6947" stroke="#FF5061" stroke-width="0.0970145" stroke-linecap="round" stroke-linejoin="round"/>
<path d="M9.78424 29.8766C10.8387 29.8766 11.6935 28.3871 11.6935 26.5496C11.6935 24.7122 10.8387 23.2227 9.78424 23.2227C8.7298 23.2227 7.875 24.7122 7.875 26.5496C7.875 28.3871 8.7298 29.8766 9.78424 29.8766Z" stroke="#008EF8" stroke-width="0.0970145" stroke-miterlimit="10"/>
<path d="M9.78438 24.8906V31.9104M9.78438 26.8448L8.84819 25.7687M9.78438 27.9064L8.63379 26.5834M9.78438 29.0001L8.63379 27.6771M9.78438 26.8468L10.7225 25.7687M9.78438 27.9083L10.935 26.5853M9.78438 29.002L10.935 27.679" stroke="#008EF8" stroke-width="0.0970145" stroke-linecap="round" stroke-linejoin="round"/>
<path d="M15.1319 30.7067C16.1863 30.7067 17.0411 29.2171 17.0411 27.3797C17.0411 25.5423 16.1863 24.0527 15.1319 24.0527C14.0775 24.0527 13.2227 25.5423 13.2227 27.3797C13.2227 29.2171 14.0775 30.7067 15.1319 30.7067Z" stroke="#439916" stroke-width="0.0970145" stroke-linecap="round" stroke-linejoin="round"/>
<path d="M15.1315 25.7188V31.9092M15.1315 27.673L14.1954 26.5968M15.1315 28.7345L13.981 27.4115M15.1315 29.8282L13.981 28.5052M15.1315 27.6749L16.0687 26.5968M15.1315 28.7364L16.2821 27.4135M15.1315 29.8311L16.2821 28.5072" stroke="#439916" stroke-width="0.0970145" stroke-linecap="round" stroke-linejoin="round"/>
<path d="M3.02393 31.9102H40.8421" stroke="#545454" stroke-width="0.0970145" stroke-linecap="round" stroke-linejoin="round"/>
</svg>
