<?xml version="1.0" encoding="UTF-8"?>
<svg id="Layer_1" data-name="Layer 1" xmlns="http://www.w3.org/2000/svg" xmlns:xlink="http://www.w3.org/1999/xlink" viewBox="0 0 481 512">
  <defs>
    <style>
      .cls-1, .cls-2 {
        fill: #409cff;
      }

      .cls-3 {
        fill: #006fd3;
      }

      .cls-3, .cls-4, .cls-5, .cls-6, .cls-7, .cls-8, .cls-9, .cls-2, .cls-10 {
        fill-rule: evenodd;
      }

      .cls-4, .cls-11 {
        fill: #e6f2ff;
      }

      .cls-5 {
        fill: #001f40;
      }

      .cls-6 {
        fill: #001226;
      }

      .cls-7 {
        fill: #bfdeff;
      }

      .cls-8 {
        fill: #e6e6e6;
      }

      .cls-8, .cls-9 {
        opacity: .5;
      }

      .cls-8, .cls-10 {
        isolation: isolate;
      }

      .cls-12 {
        clip-path: url(#clippath);
      }

      .cls-13 {
        fill: none;
      }

      .cls-10 {
        opacity: .11;
      }
    </style>
    <clipPath id="clippath">
      <rect class="cls-13" x="-.09" y="0" width="481.17" height="512"/>
    </clipPath>
  </defs>
  <g class="cls-12">
    <rect class="cls-1" x="-.09" y="0" width="481.17" height="512"/>
    <rect class="cls-13" x="3.73" y="19.23" width="473.53" height="473.53"/>
    <path class="cls-4" d="m181.92,315.61l121.88,1.03v109.91l-121.88-1.03v-109.91Z"/>
    <path class="cls-6" d="m449.51,502.81c-22.12,23.74-78.64-5.11-110.3-1.02-29.77,12.93-57.93,6.16-90.38,6.13-9.83,0-26.5.7-36.26-.51-29.91-4.29-31.66-1.53-87.01-1.53-25.84-3.06-70.28,5.78-87.63-13.28l37.26-101.02,106.7-47.6c0,34.75,10.04,76.78,57,77.49,58,.87,64.9-41.95,64.9-77.77l98,48.13,47.71,110.98Z"/>
    <path class="cls-10" d="m303.84,316.36v27.43c-.02,3.03-.28,6.05-.76,9.04-.6,3.69-1.62,7.3-3.03,10.77-41.18,31.91-106.81,5.73-117.28-48.77l121.07,1.53Z"/>
    <polygon class="cls-9" points="474.67 720.6 245.13 365.68 246.05 55.74 546.66 276.98 474.67 720.6"/>
    <path class="cls-4" d="m242.26,93.79c163.06,0,99.52,260.28,0,260.28-93.99,0-163.06-260.28,0-260.28h0Z"/>
    <path class="cls-7" d="m144.45,203.48c-23.52,10.26-3.52,58.89,11.28,58.68-6.14-19.03-9.93-38.74-11.28-58.69h0Zm197.5,0c23.52,10.26,3.52,58.9-11.27,58.68,6.14-19.03,9.92-38.73,11.27-58.68Z"/>
    <path class="cls-3" d="m181.92,332.55c-.86,57.43,44.13,108.88,77.05,154.63,1,1.38-.97-1.37,0,0-4.39-.25-5.98,3.37-10.57,2.64-40.79-6.46-87.22-30.38-99.46-49.57-2.32-3.63,25.59-29.97,24.14-33.98-.78-2.18-24.31.74-37.68,4.96-.98.31-1.09-1.82-1.31-2.83-6.2-28.44,4.54-60.35,47.84-75.86h0Z"/>
    <path class="cls-5" d="m134.25,216.78c.7-3.4,2.23-6.57,4.46-9.23-.19,19.53,5.76,38.63,17.01,54.6-12.07-114.36,11.7-134.44,11.7-134.44,0,0,71.4,53.87,150.71-.15,0,0,25.12,20.22,13.06,134.58,12.07-17.82,14.79-33,15.66-55.13,2.96,2.89,4.89,6.68,5.49,10.77,0,0,12.32-62.99-12.47-102.16-2.4-3.79-1.71-8.79,1.59-11.83,5.26-4.85,12.46-10.2,15.34-10,3.11.21-7.87-4.68-24.6-5.68-7.04-.42-9.31-9.77-3.24-13.36,1.5-.88,3.02-1.72,4.57-2.52-7.89-1.53-15.87-2.47-23.88-2.83-5.49-.24-7.12-7.6-2.27-10.18,3.09-1.64,13.79-1.35,17.02-2.73-11.42-3.46-30.76-7.02-42.58-7.07-10.36-.04-14.16-13.74-5.22-18.97.11-.06.21-.12.32-.19,0,0-56.58,3.13-95.95,40.96-6.41,6.16-16.91-.41-14.02-8.82.03-.08.06-.17.09-.25,0,0-47.99,45.05-32.79,154.6h0Zm139.73,136.97c-17.45,15.66-43.76,15.94-61.39.49-27.71-24.3-40.36-54.32-40.36-54.32.45,3.55,43.64,26.76,45.92,29.53,2.28,2.76,5.29,4.82,8.7,5.94.04-.08.07-.15.11-.23,6.18-13.2,24.84-13.54,31.82-.74.18.32.35.65.52.97,3.4-1.12,6.42-3.18,8.7-5.94,2.28-2.76,49.83-32.44,50.28-35.99,0,0-15.15,34.16-44.29,60.31Z"/>
    <path class="cls-2" d="m163.78,204.98l.48-.12c54.49-13.54,67.14.2,70.09,7.23,5.74-1.71,11.85-1.68,17.58.08,2.88-7,15.42-20.9,70.13-7.3l.47.12,8.46,2.24c.7.2,1.3.66,1.66,1.3.36.64.45,1.39.26,2.1-.19.71-.66,1.31-1.3,1.67-.64.36-1.39.46-2.1.26l-4.93-1.33c.15,11.14-2.42,42.4-35.78,44.79-35.55,2.54-37.81-29.74-37.79-38.32-5.08-1.76-10.61-1.8-15.72-.11.04,8.42-2.1,40.97-37.8,38.43-33.36-2.39-35.94-33.64-35.78-44.79l-4.92,1.33c-.35.1-.72.12-1.08.08-.36-.04-.71-.16-1.02-.34-.32-.18-.59-.42-.82-.7-.22-.29-.39-.61-.49-.96-.1-.35-.12-.72-.08-1.08.04-.36.16-.71.34-1.03.18-.32.42-.59.7-.82.29-.22.61-.39.96-.49l8.46-2.24Z"/>
    <path class="cls-8" d="m280.56,202.23c6.19-.74,12.45-.79,18.65-.15l-22.23,49.9c-5.63-1.56-10.68-4.73-14.53-9.12l18.11-40.64h0Zm-88.7-2.45c6.79-.81,13.65-.86,20.46-.16l-24.39,54.72c-6.17-1.71-11.7-5.18-15.92-9.99l19.85-44.56h0Zm27.51,1.17l-24.87,54.75c.97.13,1.97.23,3,.31.63.04,1.25.08,1.85.1l24.38-53.65c-1.42-.59-2.88-1.09-4.37-1.49h0Zm86.28,2.34l-22.68,49.92c.88.12,1.8.21,2.74.28.57.04,1.14.08,1.69.09l22.24-48.92c-1.3-.54-2.63-1-3.99-1.36h0Z"/>
    <path class="cls-5" d="m163.78,204.98c.16-.05.32-.09.48-.12,54.49-13.54,67.14.2,70.09,7.23,5.74-1.71,11.85-1.68,17.58.08,2.88-7,15.42-20.9,70.13-7.3.16.02.32.06.47.12,2.72.68,5.53,1.43,8.46,2.24.7.2,1.3.66,1.66,1.3.36.64.45,1.39.26,2.1-.19.71-.66,1.31-1.3,1.67-.64.36-1.39.46-2.1.26-1.69-.47-3.32-.91-4.93-1.33.15,11.14-2.42,42.4-35.78,44.79-35.55,2.54-37.81-29.74-37.79-38.32-5.08-1.76-10.61-1.8-15.72-.11.04,8.42-2.1,40.97-37.8,38.43-33.36-2.39-35.94-33.64-35.78-44.79-1.61.42-3.24.87-4.92,1.33-.35.1-.72.12-1.08.08-.36-.04-.71-.16-1.02-.34-.32-.18-.59-.42-.82-.7-.22-.29-.39-.61-.49-.96-.1-.35-.12-.72-.08-1.08.04-.36.16-.71.34-1.03.18-.32.42-.59.7-.82.29-.22.61-.39.96-.49,2.93-.82,5.74-1.56,8.46-2.24h0Zm124.64,45.49c30.32-2.17,30.96-32.69,30.6-40.67-59.87-14.67-62.31,4.4-62.41,5.94v.18c-.01.11-2.72,37.02,31.8,34.56h0Zm-124.15-45.61h.7c-.23-.04-.47-.04-.7,0h0Zm3.03,4.94c-.36,7.98.28,38.51,30.6,40.68,34.52,2.46,31.82-34.45,31.81-34.56v-.18c-.11-1.54-2.55-20.61-62.41-5.94h0Z"/>
    <circle class="cls-11" cx="318.96" cy="429.96" r="6.81"/>
  </g>
</svg>