<?xml version="1.0" encoding="UTF-8"?>
<svg id="Layer_1" data-name="Layer 1" xmlns="http://www.w3.org/2000/svg" xmlns:xlink="http://www.w3.org/1999/xlink" viewBox="0 0 481 512">
  <defs>
    <style>
      .cls-1 {
        fill: #fff;
      }

      .cls-2, .cls-3 {
        opacity: .5;
      }

      .cls-4 {
        clip-path: url(#clippath-2);
      }

      .cls-5, .cls-6 {
        fill: #a30a0a;
      }

      .cls-7 {
        fill: #f7778a;
      }

      .cls-7, .cls-8, .cls-3, .cls-6, .cls-9 {
        fill-rule: evenodd;
      }

      .cls-10 {
        clip-path: url(#clippath-1);
      }

      .cls-11 {
        fill: #a89498;
      }

      .cls-8 {
        fill: #e56873;
      }

      .cls-12 {
        clip-path: url(#clippath);
      }

      .cls-13 {
        clip-rule: evenodd;
      }

      .cls-13, .cls-14 {
        fill: none;
      }

      .cls-9 {
        isolation: isolate;
        opacity: .11;
      }

      .cls-15 {
        fill: #21080a;
      }
    </style>
    <clipPath id="clippath">
      <rect class="cls-14" x="-15.4" y="-620.43" width="481.17" height="512"/>
    </clipPath>
    <clipPath id="clippath-1">
      <rect class="cls-14" x="-.09" y="0" width="481.17" height="512"/>
    </clipPath>
    <clipPath id="clippath-2">
      <path class="cls-13" d="m407.2,421.97c-20.68-47.86-67.85-52.47-115.12-74.83,0,41.22-98.45,37.9-98.45-2.01-42.39,19.18-103.76,28.32-122,74.61,21.74,22.43,47.74,40.31,76.47,52.58,28.73,12.27,59.61,18.7,90.85,18.91,31.24.21,62.21-5.81,91.1-17.7,28.89-11.89,55.12-29.42,77.16-51.56h0Z"/>
    </clipPath>
  </defs>
  <polygon class="cls-1" points="246.95 468.94 246.45 489.7 245.95 468.94 246.95 468.94 246.95 468.94"/>
  <rect class="cls-11" x="-.09" y="0" width="481.17" height="512"/>
  <rect class="cls-14" x="5.27" y="20.77" width="470.47" height="470.47"/>
  <g class="cls-12">
    <polygon class="cls-3" points="459.35 100.17 229.81 -254.74 230.73 -564.68 531.34 -343.44 459.35 100.17"/>
  </g>
  <polygon class="cls-6" points="41.51 492.6 74.19 414.98 102.79 402.21 202.36 471.15 289.68 468.6 386.19 398.13 407.2 421.97 422.45 514.55 42.53 514.04 41.51 492.6"/>
  <g class="cls-10">
    <path class="cls-7" d="m193.64,315.23l98.44.92v98.34l-98.44-.92v-98.34Z"/>
    <path class="cls-9" d="m292.09,315.97v27.25c0,2.26-.01.86-.01,3.91.29,2.16,0,4.37-.85,6.38-33.26,31.7-88.45,15.09-96.91-39.06l97.78,1.52Z"/>
    <path class="cls-6" d="m407.2,421.97c-20.68-47.86-67.85-52.47-115.12-74.83,0,41.22-98.45,37.9-98.45-2.01-42.39,19.18-103.76,28.32-122,74.61,21.74,22.43,47.74,40.31,76.47,52.58,28.73,12.27,59.61,18.7,90.85,18.91,31.24.21,62.21-5.81,91.1-17.7,28.89-11.89,55.12-29.42,77.16-51.56h0Z"/>
    <path class="cls-5" d="m292.08,347.13c0,41.22-98.45,37.9-98.45-2.01-2.65,1.2-5.38,2.36-8.17,3.49,3.74,26.98,26.89,47.76,54.9,47.76s51.16-20.78,54.9-47.77c-1.06-.49-2.13-.98-3.19-1.48Z"/>
    <polygon class="cls-3" points="448.49 698.89 218.94 343.98 219.86 34.04 520.48 255.28 448.49 698.89"/>
    <g class="cls-4">
      <g class="cls-2">
        <path class="cls-1" d="m240.5,458.66c-36.19,0-70.3-11.09-96.05-31.22-26.4-20.65-40.95-48.3-40.95-77.86s14.54-57.21,40.95-77.86c25.75-20.14,59.86-31.22,96.05-31.22s70.3,11.09,96.05,31.22c26.4,20.65,40.95,48.3,40.95,77.86s-14.54,57.21-40.95,77.86c-25.75,20.14-59.86,31.22-96.05,31.22Zm0-200.17c-65.62,0-119,40.86-119,91.08s53.38,91.08,119,91.08,119-40.86,119-91.08-53.38-91.08-119-91.08Z"/>
        <path class="cls-1" d="m240.5,421.16c-71.41,0-129.5-45.57-129.5-101.58s58.09-101.58,129.5-101.58,129.5,45.57,129.5,101.58-58.09,101.58-129.5,101.58Zm0-200.17c-69.75,0-126.5,44.22-126.5,98.58s56.75,98.58,126.5,98.58,126.5-44.22,126.5-98.58-56.75-98.58-126.5-98.58Z"/>
      </g>
    </g>
    <path class="cls-15" d="m293.77,251.06s.09.67.29,1.91c1.52,9.29,9.23,50.45,30.85,79.28,24.51,32.68,11.23,86.3,11.23,86.3,0,0-4.6-46.47-22.98-60.77-18.38-14.3-43.91-81.7-43.91-100.09"/>
    <path class="cls-7" d="m238.85,86.74c66.4,0,94.22,47.2,95.93,101.76,2.34,74.68-43.2,163.14-95.92,163.14-49.94,0-96.73-91.49-93.89-166.93,1.98-52.93,29.03-97.97,93.88-97.97h0Z"/>
    <path class="cls-8" d="m335.59,215.2c22.53,9.82.95,49.75-9.92,45.87-17.52-6.26,8.86-27.28,9.92-45.88h0Z"/>
    <path class="cls-15" d="m323.06,262.47c8.98-27.45,16.62-57.21,11.88-85.11-1.24-7.29-.85-10.89-2.38-18.04-.18-.83-2.96-7.34-2.89-8.17,1.89-25.33,5.59-51.69-13.77-72.34-9.95-10.61-37.96-25.34-53.45-30.98-2.36-.86-6.31-1.72-8.85-2.04-14.39-1.81-31.51,1.78-45.62,4.77-15.83,3.34-35.38,13.2-46.3,22.81-23.48,20.66-22.7,50.3-17.93,77.82.36,2.06,3.11,4.1,2.93,6.18-.59,6.96-4.22,13.98-4.55,20.95-.94,19.74,2.26,24.24,4.81,58.87,1.64,22.2,12.38,42.83,25.77,62.48.37.54.83,1.04,1.67,2.09-2.16-5.9-4.32-11.1-5.94-16.39-1.67-5.45-3.03-10.97-4.18-16.5-3.96-19.01-5.66-38.17-6.23-57.4-.69-23.16-.86-46.32.67-69.47.12-1.86.74-3.78,1.66-5.51,6.83-12.92,16.2-24.68,27.6-35.5.6-.57,1.26-1.1,2.04-1.72.63-.5,1.53-.46,2.11.09,1,.96,1.93,1.85,2.84,2.76,13.57,13.55,28.27,26.3,45.34,37.31,11.08,7.14,22.79,13.59,36.09,18.11.01,0,.03,0,.04.01,1.51.52,2.8-1.18,1.84-2.46-2.38-3.15-4.72-6.23-6.88-9.37-2.81-4.1-5.4-8.3-6.69-13.32,1.01.39,1.34.45,1.55.61.44.33.84.7,1.24,1.07,11.93,10.78,25.27,20.35,40.82,27.98,2.14,1.05,2.73,2.34,2.87,4.14.66,8.94,1.64,17.86,2.13,26.8,1,18.34,10.72,51.51,9.36,70.29.08.01.14.03.19.05.08-.29.15-.57.24-.86Z"/>
  </g>
</svg>