<?xml version="1.0" encoding="UTF-8"?>
<svg id="Layer_1" data-name="Layer 1" xmlns="http://www.w3.org/2000/svg" xmlns:xlink="http://www.w3.org/1999/xlink" viewBox="0 0 481 512">
  <defs>
    <style>
      .cls-1 {
        fill: #bd5e0e;
      }

      .cls-1, .cls-2, .cls-3, .cls-4, .cls-5, .cls-6, .cls-7 {
        fill-rule: evenodd;
      }

      .cls-8, .cls-2, .cls-9 {
        fill: #fff;
      }

      .cls-9 {
        opacity: .3;
      }

      .cls-10 {
        clip-path: url(#clippath-1);
      }

      .cls-3 {
        fill: #fc7d13;
      }

      .cls-11 {
        fill: #fe9d4e;
      }

      .cls-12 {
        clip-path: url(#clippath);
      }

      .cls-4 {
        opacity: .5;
      }

      .cls-13 {
        fill: none;
      }

      .cls-5 {
        fill: #fd7e14;
      }

      .cls-6 {
        fill: #3e2004;
      }

      .cls-7 {
        isolation: isolate;
        opacity: .11;
      }
    </style>
    <clipPath id="clippath">
      <rect class="cls-13" x="-15.4" y="-588.77" width="481.17" height="512"/>
    </clipPath>
    <clipPath id="clippath-1">
      <rect class="cls-13" x="-.09" y="0" width="481.17" height="512"/>
    </clipPath>
  </defs>
  <rect class="cls-11" x="-.09" y="0" width="481.17" height="512"/>
  <g class="cls-12">
    <polygon class="cls-4" points="450.67 119.83 221.13 -235.08 222.05 -545.02 522.66 -323.78 450.67 119.83"/>
  </g>
  <g class="cls-10">
    <rect class="cls-13" x=".67" y="16.17" width="479.66" height="479.66"/>
    <polygon class="cls-6" points="149.94 365.45 164.23 326.64 317.43 326.64 334.28 370.04 301.09 402.72 172.4 402.72 149.94 365.45"/>
    <path class="cls-3" d="m181.16,316.37l123.46.94v100.26l-123.46-.94v-100.26Z"/>
    <path class="cls-2" d="m415.74,419.69c-22.41,24.05-49.54,43.22-79.69,56.31-30.15,13.1-62.68,19.84-95.55,19.8-24.29-.05-48.43-3.72-71.64-10.88-40.59-12.81-77.07-36.11-105.76-67.55l9.96-24.06,75.32-33.6c14.51-6.47,31.28.44,37.5,15.06,6.97,16.42,22.78,25.36,54.63,25.84,35.67.53,51.66-6.78,58.72-20.72,8.53-16.86,29.39-23.3,46.34-14.97l58.32,28.64,11.85,26.12Z"/>
    <path class="cls-7" d="m304.66,317.13v27.78c0,2.3-.03,6.22-.22,9.88-32.25,43.15-111.07,19.77-122.41-39.22l122.63,1.55Z"/>
    <path class="cls-1" d="m143.21,202.78c-23.83,10.4-3.57,59.66,11.42,59.43-6.22-19.27-10.06-39.23-11.42-59.43h0Z"/>
    <path class="cls-6" d="m117.99,373.27l25.64-11.44v113.61c-8.78-3.96-17.34-8.37-25.64-13.24v-88.93Z"/>
    <path class="cls-6" d="m364.94,374.44l-25.64-12.61v112.74c8.81-4,17.37-8.52,25.64-13.54v-86.59Z"/>
    <path class="cls-6" d="m274.79,399.4h-57.65c2.05.68,17.5,16.75,24.93,24.56l-15.37,15.37,20.76,97.43,16.68-100.8-14.84-11.07,25.49-25.49Z"/>
    <polygon class="cls-8" points="275.13 404.51 275.38 376.94 318.02 367.23 295.81 399.66 275.13 404.51"/>
    <polygon class="cls-4" points="470.59 710.38 241.04 355.47 246.28 61.62 558.79 245.45 470.59 710.38"/>
    <path class="cls-5" d="m242.28,81.61c165.17,0,100.81,273.7,0,273.7-95.2,0-165.17-273.7,0-273.7h0Z"/>
    <polygon class="cls-8" points="216.02 404.51 215.77 376.94 173.13 367.23 195.34 399.66 216.02 404.51"/>
    <path class="cls-6" d="m205.81,60.72h73.76c17.49.05,34.25,7.02,46.62,19.39,12.37,12.37,19.34,29.12,19.39,46.61v51.14h-205.77v-51.14c.05-17.49,7.02-34.25,19.39-46.61,12.37-12.37,29.13-19.34,46.62-19.39h0Z"/>
    <path class="cls-8" d="m139.81,164.26h205.78v5.8h-205.78v-5.8Z"/>
    <path class="cls-1" d="m343.26,202.78c23.83,10.39,3.57,59.66-11.42,59.43,6.21-19.27,10.05-39.23,11.42-59.43h0Z"/>
    <path class="cls-9" d="m139.81,161.03v5.97l205.12-49.3c-.27-1.92-.63-3.83-1.07-5.71l-204.05,49.04Z"/>
    <path class="cls-6" d="m354.28,200.26c-.44,13.4-55.91,17.62-114.47,7.85-56.89-9.49-103.37-17.42-102.47-28.66.9-11.25,100.99-13.64,158.48-9.06,57.49,4.59,59.17,8.37,58.47,29.87Z"/>
    <path class="cls-13" d="m240.5,495.8c132.45,0,239.83-107.37,239.83-239.82S372.95,16.17,240.5,16.17.67,123.54.67,255.99s107.38,239.82,239.83,239.82Z"/>
  </g>
</svg>