<?xml version="1.0" encoding="UTF-8"?>
<svg id="Layer_1" data-name="Layer 1" xmlns="http://www.w3.org/2000/svg" xmlns:xlink="http://www.w3.org/1999/xlink" viewBox="0 0 481 512">
  <defs>
    <style>
      .cls-1 {
        fill: #fff;
      }

      .cls-1, .cls-2, .cls-3, .cls-4, .cls-5, .cls-6, .cls-7, .cls-8, .cls-9, .cls-10, .cls-11 {
        fill-rule: evenodd;
      }

      .cls-12 {
        fill: #e83d8b;
      }

      .cls-2 {
        fill: #741f46;
      }

      .cls-13 {
        clip-path: url(#clippath-1);
      }

      .cls-14, .cls-3 {
        fill: #230915;
      }

      .cls-4 {
        fill: #3a1022;
      }

      .cls-5 {
        stroke: #05365b;
        stroke-miterlimit: 10;
        stroke-width: 3px;
      }

      .cls-5, .cls-15 {
        fill: none;
      }

      .cls-6 {
        fill: #ffe8be;
      }

      .cls-16 {
        clip-path: url(#clippath);
      }

      .cls-7 {
        fill: #f8cee2;
      }

      .cls-8 {
        opacity: .5;
      }

      .cls-9 {
        fill: #f9cfe1;
      }

      .cls-10 {
        fill: #f4c6dc;
      }

      .cls-11 {
        isolation: isolate;
        opacity: .11;
      }
    </style>
    <clipPath id="clippath">
      <rect class="cls-15" x="-4.68" y="-598.47" width="481.17" height="512"/>
    </clipPath>
    <clipPath id="clippath-1">
      <rect class="cls-15" x="-.09" y="0" width="481.17" height="512"/>
    </clipPath>
  </defs>
  <rect class="cls-12" x="-.09" y="0" width="481.17" height="512"/>
  <g class="cls-16">
    <polygon class="cls-8" points="469.06 101.45 239.51 -253.47 240.43 -563.4 541.04 -342.17 469.06 101.45"/>
  </g>
  <g class="cls-13">
    <path class="cls-15" d="m3.73,19.23h66.31c10.02,0,20.92,0,32.06-.6,11.99.6,24.23.6,37.36-2.27,12.31,2.87,25.52,2.87,39.01,2.87h298.79v215.9c0,13.88,0,27.85,6.47,39.91-6.47,15.7-6.47,29.48-4.42,44.38-2.04,12.09-2.04,25.3-2.04,38.02v135.32H3.73v-135.32c0-12.72,0-25.93-.66-39.28.66-6.88.66-13.7-.13-20.7.58-6.75.37-13.68-.06-20.66.86-13.81.86-27.78.86-41.66V19.23Z"/>
    <path class="cls-6" d="m242.26,83.84c163.06,0,99.51,270.22,0,270.22-50.61,0-93.99-78.35-97.8-150.67-.54-10.33-.28-20.54,5.36-26.29-3.31-13.93-1.24-23.4,10.38-32.26-5.5-8.86-1.44-17.1,4.39-24.81,4.47-7.04,10.71-13.56,18.14-18.97,14.85-10.82,34.44-17.22,59.53-17.22h0Z"/>
    <g>
      <path class="cls-14" d="m382.88,293.76c3.65-3.62,4.56-7.99,4.06-12.11-.49-4.12-2.38-7.99-4.99-11.68-2.95-6.56-8.77-12.39-15.74-16.47-6.97-4.08-15.09-6.42-23.75-6.42-25.99,0-47.06,21.07-47.06,47.06s21.07,47.06,47.06,47.06c4.33,0,8.53-.59,12.08-1.68,4.41-1.1,8.18-2.7,7.26-5.19,7.9-1.59,11.1-4.07,6.25-9.47,10.52-.27,12.98-3.47,7.86-12.3,9.21,1.86,10.83-1.92,7.36-10.88,4.18,1.17,3.27-2.85-.38-7.9Z"/>
      <path class="cls-14" d="m102.98,284.11c-5.89,1.36-8.66,1.36-8.68.19-.09-1.3,2.56-3.78,7.92-6.71-7.95-.02-6.34-3.85,2.09-6.21-4.35-4.61-1.87-7.75,5.96-7.13-2.15-6.23,1.05-8.71,8.03-8.9-.01-3.89,3.76-5.5,8.14-6.46,3.59-1.23,7.78-1.81,12.11-1.81,25.99,0,47.06,21.07,47.06,47.06,0,17.33-9.36,32.46-23.31,40.63-6.97,4.08-15.09,6.42-21.59,7.19-5.41-.38-10.15-1.16-13.57-1.97-3.44-.82-5.57-1.69-5.17-1.91-3.98-2.1-6.89-3.79-6.57-3.96-5.29-3.24-7.36-4.97-3.8-4.29-8.74-6.22-10.8-10.39-1.91-14.34-12.98-3.03-15-5.83-2.66-9.85-13.2-1.55-14.33-4.42-3.85-12.27-10.54,2-9.47-.98-.19-9.25Z"/>
    </g>
    <path class="cls-3" d="m301.31,175.88l-119.82.65c-8.65.05-16.89,1.66-24.03,4.86-7.89,2.56-14.68,6.7-19.97,12.76-3.08,2.1-5.79,4.68-8.14,7.57-2.35,2.9-4.34,6.12-5.01,9.15-2.63,3.76-3.94,7.33-.73,10.27-5.05,4.45-5.59,8.29-.2,12.55-5.59,2.98-5.71,6.36-1.34,11.05-4.69,2.15-4.88,5.62-2.55,10.42-2.8,2.17-3.07,5.68-2.78,9.6-.9,3.02-1.23,6.45-1.29,9.52-.88,4.71-.9,9.03,1.68,11.68-.76,4.66,1.08,7.67,5.71,9-1.86,6.34-.93,11,3,14.78.82,3.91,4.64,6.95,10.04,9.52.79,6.69,7.9,11.53,16.06,14.91,7.93,3.35,16.9,5.23,26.42,5.23h128.41c9.7,0,18.83-1.95,27-5.41,8.16-3.47,15.36-8.45,21.18-14.53,5.82-6.08,10.27-13.25,12.94-21.09,2.67-7.84,3.56-16.34,2.27-25.08-1.75-11.85-3.33-26.07-4.63-43.21-2.33-30.65-30.43-54.39-64.21-54.2Z"/>
    <path class="cls-1" d="m142.69,368.63l55.21-24.42,88.5-2.3,56.85,29.86-41.05,85.93-58.33,31.32-60.34-33.33-40.85-87.07h0Z"/>
    <path class="cls-9" d="m193.33,315.61l99.08.64v68.57l-99.08-.65v-68.56Z"/>
    <path class="cls-11" d="m292.43,316.37v27.43c.11,3.14,0,6.27-.31,9.39-.46,3.46-1.27,6.87-2.4,10.17-33.48,31.91-87.19,5.98-95.7-48.53l98.41,1.53Z"/>
    <path class="cls-2" d="m408.28,423.05c-22.18,22.28-48.58,39.93-77.66,51.89-29.08,11.97-60.25,18.03-91.69,17.82-31.44-.21-62.53-6.68-91.44-19.03-28.92-12.35-55.08-30.34-76.96-52.92l9.36-23.74s4.36-1.97,10.9-4.94c6.54-2.96,15.26-6.91,23.98-10.86,8.72-3.95,17.44-7.9,23.98-10.86,6.54-2.96,10.9-4.94,10.9-4.94,24.99,45.82,52.18,88.3,94.38,118.42,38.2-31.79,69.14-71.4,90.74-116.16,0,0,6.93,3.28,16.18,7.65,9.24,4.37,20.8,9.84,30.04,14.23,9.25,4.36,16.19,7.64,16.19,7.64l11.13,25.78Z"/>
    <path class="cls-10" d="m150.16,204.53c-22.67,9.88-3.39,56.78,10.88,56.57-5.92-18.34-9.57-37.34-10.88-56.57Z"/>
    <polygon class="cls-8" points="465.99 708.6 236.44 353.68 237.37 43.74 537.98 264.98 465.99 708.6"/>
    <path class="cls-10" d="m337.1,204.52c22.68,9.9,3.39,56.79-10.87,56.58,5.92-18.34,9.57-37.35,10.87-56.58h0Z"/>
    <path class="cls-7" d="m242.14,85.64c66.83,0,94.84,47.51,96.55,102.42,2.35,75.17-43.48,164.2-96.55,164.2-43.98,0-85.54-70.5-93.32-139-1.11-9.79-1.54-19.53-.05-27.68-.79-10.22.24-18.87,9.25-24.44-5.42-10.97-2.87-18.84,5.11-27.18-1.24-6.27,2.96-13.01,8.03-19.01,15.22-17.99,38.34-29.32,70.97-29.32h0Z"/>
    <path class="cls-5" d="m172.03,214.73c.14-.05.29-.08.43-.1,49.01-12.18,60.38.18,63.03,6.5,5.16-1.53,10.66-1.51,15.81.07,2.59-6.3,13.86-18.79,63.07-6.57.14.02.29.06.43.1,2.45.61,4.98,1.28,7.61,2.02.63.18,1.17.6,1.5,1.17.32.57.41,1.25.23,1.89-.17.64-.59,1.17-1.17,1.5-.57.33-1.25.41-1.89.24-1.52-.42-2.98-.82-4.43-1.2.14,10.02-2.18,38.13-32.18,40.28-31.97,2.28-34.01-26.75-33.99-34.46-4.57-1.59-9.54-1.62-14.13-.1.03,7.57-1.89,36.85-33.99,34.56-30-2.15-32.32-30.26-32.18-40.28-1.45.38-2.91.78-4.42,1.2-.31.09-.64.11-.97.07-.32-.04-.64-.14-.92-.3-.28-.16-.53-.38-.74-.63-.2-.26-.35-.55-.44-.87-.09-.32-.11-.64-.07-.97.04-.32.14-.64.3-.92.16-.28.38-.53.63-.74.26-.2.55-.35.87-.44,2.63-.74,5.16-1.41,7.61-2.01h0Z"/>
    <path class="cls-3" d="m140.81,215.45c0-4.89,7.54-6.79,12.24,22.55,3.8-11.98,6.26-24.35,7.33-36.88,8.9,1.72,17.45,21.82,14.77,39.45,24.26-5.95,86.61-43.58,106.88-94.43,51.89,29.89,51.61,92.67,51.61,92.67,0,0,2.74-14.56,4.28-26.94.5-4.12,2.24-5.62,6.11-1.63,2.34-4.84,4.17-9.9,5.53-15.1,1.35-5.2,2.22-10.55,2.13-15.73.7-2.95.78-5.68-.42-8.04,1.12-3.1.95-5.83-.88-8.31,1.25-4.45.62-8.58-2.35-11.99.86-4.42-.63-8.12-3.96-10.97.63-5.21-.59-9.59-3.7-13.47-1.11-4.01-4.12-7.53-8.31-10.64-.66-8.6-6.06-15.57-12.28-21.86-18.65-18.88-44.63-31.7-76.24-32.21-19.29-.31-35.78,2.91-49.73,8.63-6.98,2.86-13.32,6.35-16.8,11.35-6.57,1.98-10.54,5.24-11.54,11.23-6.27.97-9.57,4.67-11.32,10.9-4.28,1.54-7.01,5.63-8.12,9.62-1.45,2.66-1.28,5.22,1.45,6.1-12.8,15.67-15.35,24.64-4.42,39.87-14.02,2.33-14.55,10.92-10.94,26.53-2.9.34-1.65,7.7.4,14.04,2.01,6.26,4.82,11.51,8.29,15.27h0Z"/>
    <path class="cls-2" d="m193.49,344.36c12.11,18.04,29.36,32.02,49.52,40.12l-32.24,47.08-45.34-74.94,28.06-12.26Z"/>
    <path class="cls-2" d="m289.4,344.36c-12.11,18.04-29.36,32.02-49.52,40.12l32.25,47.08,45.61-74.08-28.34-13.12Z"/>
    <path class="cls-4" d="m325.53,208.78c13.67,5.46,13.17,12.11,10.47,14.11-2.57,2.12-4.63,4.8-6.02,7.83-.6,5.54-2.1,10.94-4.46,15.98v-37.92h0Zm-164.5,34.32c-1.5-3.99-2.49-8.14-2.94-12.37-1.32-3.04-3.34-5.73-5.9-7.84-2.58-1.91-3.16-8.12,8.84-13.44v33.65Z"/>
    <rect class="cls-14" x="196.23" y="36.6" width="84.26" height="62.81" rx="31.4" ry="31.4"/>
    <path class="cls-15" d="m240.5,492.77c130.76,0,236.77-106,236.77-236.77S371.26,19.23,240.5,19.23,3.73,125.24,3.73,256s106,236.77,236.77,236.77Z"/>
    <path class="cls-15" d="m240.5,491.79c130.76,0,236.77-106,236.77-236.77S371.26,18.26,240.5,18.26,3.73,124.26,3.73,255.02s106,236.77,236.77,236.77Z"/>
  </g>
</svg>