<?xml version="1.0" encoding="UTF-8"?>
<svg id="Layer_1" data-name="Layer 1" xmlns="http://www.w3.org/2000/svg" xmlns:xlink="http://www.w3.org/1999/xlink" viewBox="0 0 481 512">
  <defs>
    <style>
      .cls-1 {
        fill: #fff;
      }

      .cls-1, .cls-2, .cls-3, .cls-4, .cls-5, .cls-6, .cls-7, .cls-8, .cls-9 {
        fill-rule: evenodd;
      }

      .cls-10, .cls-2 {
        fill: #100a1d;
      }

      .cls-3 {
        fill: #0c0223;
      }

      .cls-4 {
        fill: #4d2f89;
      }

      .cls-5 {
        fill: #9370d0;
      }

      .cls-6 {
        fill: #11091c;
      }

      .cls-11 {
        clip-path: url(#clippath);
      }

      .cls-7 {
        opacity: .5;
      }

      .cls-12 {
        fill: none;
      }

      .cls-8 {
        fill: #b7a1e0;
      }

      .cls-13 {
        fill: #6e41c0;
      }

      .cls-9 {
        isolation: isolate;
        opacity: .11;
      }
    </style>
    <clipPath id="clippath">
      <rect class="cls-12" x="-.09" y="0" width="481.17" height="512"/>
    </clipPath>
  </defs>
  <g class="cls-11">
    <rect class="cls-13" x="-.09" y="0" width="481.17" height="512"/>
    <rect class="cls-12" y="6" width="480.97" height="512"/>
    <path class="cls-13" d="m240.49,479.39c130.9,0,237.02-105.2,237.02-234.98S371.39,9.44,240.49,9.44,3.47,114.64,3.47,244.42s106.12,234.98,237.02,234.98Z"/>
    <path class="cls-8" d="m180.99,304.45l123.8.93v99.67l-123.8-.93v-99.67Z"/>
    <path class="cls-9" d="m304.81,305.2v27.62c-.02,3.05-.28,6.09-.76,9.1-.61,3.72-1.64,7.35-3.07,10.84-41.83,32.13-108.48,5.77-119.12-49.11l122.96,1.54Z"/>
    <path class="cls-5" d="m142.93,191.53c-23.89,10.33-3.58,59.3,11.46,59.09-6.24-19.16-10.08-39.01-11.46-59.1h0Z"/>
    <path class="cls-6" d="m416.03,407.39c-22.44,23.9-49.61,42.96-79.81,55.98-30.2,13.02-62.79,19.72-95.73,19.69-9.97,0-19.93-.61-29.83-1.83-30.35-4.32-59.71-13.83-86.78-28.12-22.85-12.62-43.48-28.84-61.09-48.03l9.98-23.92,108.26-47.93c4.86,28.73,60.75,63.08,60.75,63.08,0,0,56.14-26.33,62.94-63.35l99.44,48.46,11.88,25.97Z"/>
    <path class="cls-4" d="m109.83,364.75l53.03-23.47,79.45,107.85,80.38-107.54,46.3,21.84v154.57H109.83v-153.25h0Z"/>
    <g>
      <polygon class="cls-3" points="331.93 347.68 303.11 333.13 243.21 455.52 313.87 381.81 368.83 402.76 331.93 347.68"/>
      <polygon class="cls-3" points="153.79 347.92 116.28 403.92 172.15 382.62 243.98 457.55 183.08 333.13 153.79 347.92"/>
    </g>
    <g>
      <polygon class="cls-1" points="331.93 344.68 303.11 330.13 243.21 452.52 313.87 378.81 368.83 399.76 331.93 344.68"/>
      <polygon class="cls-1" points="153.79 344.92 116.28 400.92 172.15 379.62 243.98 454.55 183.08 330.13 153.79 344.92"/>
    </g>
    <polygon class="cls-7" points="473.65 699.91 244.1 345 245.02 35.06 545.64 256.3 473.65 699.91"/>
    <path class="cls-8" d="m242.27,71.06c165.62,0,101.07,272.1,0,272.1-95.46,0-165.62-272.1,0-272.1h0Z"/>
    <path class="cls-2" d="m145.09,196.32s-61.95-90.93,20.51-126.03c-7.67-19.91-.8-37.87,17.18-45.1,17.98-7.23,64.14.27,82.99,4.82,34.42,6.94,52.47,21.43,59.2,28.06,4.98,4.9,10.26,9.47,15.88,13.62,15.61,11.52,41.56,38.42,66.95,38.94-14.25,9.94-29.92,5.09-47.3,3.93,5.23,12.96,1.17,52.75-15.48,83.75-33.99-22.13-96.2-72.87-96.2-72.87,0,0,26.2,32.59,32.24,44.96-22.41-4.21-43.51-13.54-61.65-27.24-19.78-15.71-30.3-33.15-41.33-33.38-25.34-.53-32.79,75.15-33,86.54h0Z"/>
    <path class="cls-10" d="m330.19,192.22c-.62-1.48-1.53-2.82-2.67-3.95v-.02c-1.14-1.13-2.5-2.03-3.99-2.65-1.49-.61-3.09-.93-4.71-.93h-49.93c-3.26,0-6.39,1.3-8.69,3.59l-1.28.6-2.6,6.22h-25.31c-.05,0-.1-.03-.12-.08l-1.16-2.78c-.62-1.48-1.53-2.82-2.67-3.95v-.02c-1.14-1.13-2.5-2.04-3.99-2.65-1.49-.61-3.1-.93-4.71-.93h-49.93c-1.61,0-3.21.32-4.7.93s-2.84,1.51-3.98,2.65l-.02.02c-1.14,1.13-2.05,2.47-2.67,3.95-.62,1.48-.94,3.07-.94,4.67v22.32c0,1.6.32,3.19.94,4.67.62,1.48,1.53,2.83,2.67,3.96h.02c1.14,1.13,2.49,2.03,3.98,2.65,1.49.62,3.09.93,4.7.94h49.93c3.27,0,6.4-1.29,8.71-3.58,2.31-2.29,3.61-5.39,3.61-8.63v-8.89c0-4.68,3.79-8.47,8.47-8.47h8.96c4.68,0,8.47,3.79,8.47,8.47v8.89c0,3.23,1.31,6.33,3.62,8.61v.02c1.15,1.14,2.5,2.04,3.99,2.65,1.49.62,3.09.93,4.71.94h49.93c3.27,0,6.4-1.29,8.71-3.58,2.31-2.29,3.61-5.39,3.61-8.63v-22.32c0-1.6-.32-3.19-.94-4.67Zm-106.16,26.99c0,1.5-.61,2.93-1.67,3.99-1.07,1.06-2.51,1.65-4.02,1.66h-49.93c-1.51,0-2.95-.6-4.02-1.66-.53-.52-.95-1.14-1.24-1.83-.29-.68-.43-1.42-.44-2.16v-22.32c0-1.49.6-2.93,1.67-3.99v-.02c1.08-1.05,2.52-1.65,4.03-1.65h49.93c.75,0,1.49.15,2.18.43.69.29,1.32.7,1.85,1.23,1.07,1.06,1.67,2.5,1.67,4v22.32Zm100.48,0c0,1.5-.61,2.93-1.67,3.99-1.07,1.06-2.51,1.65-4.02,1.66h-49.93c-.75,0-1.49-.14-2.18-.43-.69-.28-1.32-.7-1.85-1.22h0c-.53-.53-.95-1.15-1.23-1.84-.29-.68-.43-1.42-.43-2.16v-22.32c0-.74.15-1.48.43-2.16.29-.68.71-1.31,1.23-1.83v-.02c.54-.52,1.16-.94,1.85-1.22.69-.28,1.43-.43,2.18-.43h49.93c.75,0,1.49.15,2.18.43.69.28,1.32.7,1.85,1.23h1.67v26.32Z"/>
    <path class="cls-12" d="m240.49,482.83c132.82,0,240.49-106.74,240.49-238.42S373.3,6,240.49,6,0,112.74,0,244.42s107.67,238.42,240.49,238.42Z"/>
    <path class="cls-12" d="m240.49,482.83c132.82,0,240.49-106.74,240.49-238.42S373.3,6,240.49,6,0,112.74,0,244.42s107.67,238.42,240.49,238.42Z"/>
    <path class="cls-12" d="m240.49,482.83c132.82,0,240.49-106.74,240.49-238.42S373.3,6,240.49,6,0,112.74,0,244.42s107.67,238.42,240.49,238.42Z"/>
    <path class="cls-5" d="m343.49,191.53c23.89,10.33,3.62,59.3-11.41,59.08,6.22-19.16,10.05-39,11.41-59.08h0Z"/>
    <path class="cls-12" d="m240.49,482.83c132.82,0,240.49-106.74,240.49-238.42S373.3,6,240.49,6,0,112.74,0,244.42s107.67,238.42,240.49,238.42Z"/>
    <path class="cls-12" d="m241.49,479.39c130.9,0,237.02-105.2,237.02-234.98S372.39,9.44,241.49,9.44,4.47,114.64,4.47,244.42s106.12,234.98,237.02,234.98Z"/>
    <path class="cls-12" d="m240.5,484.98c130.9,0,237.02-105.2,237.02-234.98S371.4,15.02,240.5,15.02,3.48,120.23,3.48,250s106.12,234.98,237.02,234.98Z"/>
  </g>
</svg>