<?xml version="1.0" encoding="UTF-8"?>
<svg id="Layer_1" data-name="Layer 1" xmlns="http://www.w3.org/2000/svg" xmlns:xlink="http://www.w3.org/1999/xlink" viewBox="0 0 481 512">
  <defs>
    <style>
      .cls-1 {
        fill: #ffefc1;
      }

      .cls-1, .cls-2, .cls-3, .cls-4, .cls-5, .cls-6, .cls-7, .cls-8, .cls-9 {
        fill-rule: evenodd;
      }

      .cls-2 {
        fill: #ffc107;
      }

      .cls-3 {
        fill: #806104;
      }

      .cls-4 {
        fill: #fff0c0;
      }

      .cls-5 {
        fill: #261d01;
      }

      .cls-10 {
        clip-path: url(#clippath-1);
      }

      .cls-6 {
        fill: #e6e6e6;
      }

      .cls-11 {
        fill: #dbb35d;
      }

      .cls-7 {
        fill: #fff0c1;
      }

      .cls-12 {
        clip-path: url(#clippath);
      }

      .cls-8 {
        opacity: .5;
      }

      .cls-13 {
        fill: none;
      }

      .cls-9 {
        isolation: isolate;
        opacity: .11;
      }
    </style>
    <clipPath id="clippath">
      <rect class="cls-13" x="-20.51" y="-586.72" width="481.17" height="512"/>
    </clipPath>
    <clipPath id="clippath-1">
      <rect class="cls-13" x="-.09" y="0" width="481.17" height="512"/>
    </clipPath>
  </defs>
  <g class="cls-12">
    <polygon class="cls-8" points="428.06 112.17 198.52 -242.74 199.44 -552.68 500.05 -331.44 428.06 112.17"/>
  </g>
  <path class="cls-6" d="m290.3,510.14c-2.99.82-5.99,1.55-9.01,2.2v-102.44c.11-1.72.64-3.29,1.48-4.4.84-1.11,1.92-1.65,3.02-1.51,1.09-.14,2.18.4,3.02,1.51.84,1.11,1.38,2.69,1.49,4.4v100.24Zm-71.51,1.9c-3.02-.68-6.02-1.44-9.01-2.29v-99.85c.11-1.72.64-3.29,1.48-4.4.84-1.11,1.92-1.65,3.02-1.51,1.09-.14,2.18.4,3.02,1.51.84,1.11,1.38,2.69,1.49,4.41v102.14Z"/>
  <g class="cls-10">
    <rect class="cls-11" x="-.09" y="0" width="481.17" height="512"/>
    <rect class="cls-13" x="25.69" y="24.85" width="450.04" height="450.04"/>
    <path class="cls-11" d="m250.71,474.89c124.28,0,225.02-100.75,225.02-225.02S374.99,24.85,250.71,24.85,25.69,125.6,25.69,249.87s100.75,225.02,225.02,225.02Z"/>
    <path class="cls-3" d="m408.64,410.14c-42.46,41.86-99.81,65.14-159.44,64.75-59.62-.4-116.65-24.45-158.56-66.87,5.36-14.82,15.77-27.28,29.4-35.19,9.19-6.79,19.15-12.47,29.68-16.91-16.01-55,27.5-82.04,44.15-89.83,0,25.39,23.78,8.54,53.28,8.86,24.29.27,72.33,24.72,72.33-7.54,26.73,7.91,55.85,58.84,35.81,90.13,8.22,4.02,15.99,8.91,23.16,14.58,14.03,8.93,24.66,22.32,30.18,38.01h0Z"/>
    <path class="cls-4" d="m200.7,306.53l108.65.65v25.03l-.05.39c-.08,1.13-.25,2.26-.51,3.36l-.36,2.48-.22.52c-7.03,36.95-37.82,51.23-56.82,61.18-20.03-10.91-48.34-30.56-50.59-65.34l-.09-.43v-1.46c-.02-.5-.03-1.01-.03-1.51,0,.26.02.51.03.77v-25.66Z"/>
    <path class="cls-9" d="m309.36,306.07v29.16c-.02,2.7-.25,5.4-.69,8.07-.55,3.3-1.48,6.53-2.77,9.62-37.75,28.51-97.9,5.13-107.51-43.57l110.97-3.28Z"/>
    <polygon class="cls-8" points="477.74 731.06 248.19 376.15 249.11 66.21 549.73 287.45 477.74 731.06"/>
    <path class="cls-3" d="m69.09,510.72l21.56-102.7,51.97-33.64,80.43,61.28,55.15,3.83,85.79-58.21s40.6-22.21,51.32,58.21-4.6,104.94-4.6,104.94l-341.62-8.43v-25.28Z"/>
    <path class="cls-1" d="m157.53,208.62c-35.97,9.25-5.39,53.09,17.24,52.9-9.12-16.35-14.98-34.31-17.24-52.9h0Zm187.39,0c35.97,9.25,5.39,53.09-17.24,52.89,9.13-16.34,14.98-34.31,17.24-52.89h0Z"/>
    <path class="cls-7" d="m249.5,107.58c149.45,0,91.21,236.28,0,236.28-86.15,0-149.45-236.28,0-236.28h0Z"/>
    <path class="cls-2" d="m178.96,185.82c1.27,1.4,2.22,3.06,2.77,4.87.55,1.81.68,3.72.39,5.59-.29,1.87-.99,3.65-2.06,5.21-1.07,1.56-2.47,2.86-4.11,3.81-10.56,8.69-10.95,38.98-10.95,38.98-4.08-4.05-3.98-25.74-12.82-38.27-8.84-12.53-14.8-100.23,34.64-132.11-3.04,3.57-5.23,7.79-6.4,12.33-1.18,4.54-1.31,9.29-.39,13.89,0,0,34.34-49.25,91.32-47.83-4.52,2.46-8.46,5.85-11.58,9.94-3.12,4.09-5.34,8.79-6.53,13.8,0,0,49.81-20.55,91.32,3.9-10.79,2.98-21,7.78-30.18,14.18,20.16.55,39.64,4.3,54.33,17.36-3.16,1.01-6.09,2.65-8.6,4.82-2.52,2.16-4.58,4.81-6.05,7.79-1.48,2.97-2.34,6.21-2.55,9.53-.2,3.31.26,6.63,1.36,9.77,6.23,25.51,6.82,49.24.78,62-6.04,12.76-8.88,4.52-12.66,31.28-.19,1.81-.79,3.55-1.76,5.08-.97,1.53-2.29,2.82-3.85,3.76-.15,1.94,2.78-27.35-4.77-35.15-7.54-7.79-2.8-17.37.21-23.03,21.05-39.52-41.98-57.43-76.43-57.38-29.88.04-101.95,13.62-75.4,55.91h0Z"/>
    <path class="cls-5" d="m169.81,382.86c.22.28,75.87,98.19,164.8-1.46-10.74,29.51-57.07,52.94-83.57,52.87-50.61-.15-78.62-40.78-81.23-51.41h0Z"/>
  </g>
</svg>