<svg width="14" height="18" viewBox="0 0 14 18" fill="none" xmlns="http://www.w3.org/2000/svg">
<path d="M1.01571 2.99029C2.44652 2.94706 3.32747 2.79484 4.14682 2.42794C4.77336 2.14738 5.35698 1.74053 6.11209 1.21412C6.30558 1.07923 6.51034 0.936495 6.72995 0.786021C6.89244 0.67469 7.10725 0.674727 7.26973 0.786141C7.48807 0.935856 7.6917 1.0779 7.88419 1.21216C8.6411 1.74013 9.22557 2.14782 9.85322 2.42871C10.6726 2.79543 11.5536 2.94724 12.9843 2.99033C13.2775 2.99916 13.5 3.23307 13.5 3.50391V10.5039C13.5 11.5328 12.7698 12.4059 11.5629 13.4168C11.2324 13.6937 10.8667 13.9798 10.4852 14.2781C9.54438 15.014 8.50738 15.8251 7.6642 16.7599C7.516 16.9242 7.2728 17.026 7 17.026C6.72719 17.026 6.484 16.9242 6.3358 16.7599C5.49262 15.8251 4.45562 15.014 3.51478 14.2781C3.13329 13.9798 2.7676 13.6937 2.43706 13.4168C1.2302 12.4059 0.5 11.5328 0.5 10.5039V3.50391C0.5 3.23308 0.72248 2.99915 1.01571 2.99029Z" stroke="white"/>
</svg>
