<svg width="20" height="24" viewBox="0 0 20 24" fill="none" xmlns="http://www.w3.org/2000/svg">
<path d="M1.67864 3.82899C3.76309 3.786 4.98245 3.59221 6.09997 3.0975C6.93069 2.72976 7.70033 2.19338 8.72168 1.48157C9.03066 1.26623 9.36268 1.03483 9.7264 0.787191C9.8901 0.675735 10.1098 0.675776 10.2734 0.787316C10.6353 1.03391 10.9658 1.26437 11.2734 1.4789C12.2973 2.19287 13.0681 2.73035 13.9002 3.09852C15.0178 3.59296 16.2372 3.78618 18.3216 3.82902C18.6099 3.83495 18.8334 4.0666 18.8334 4.33854V14.0052C18.8334 15.5344 17.6905 16.7892 15.9612 18.145C15.453 18.5434 14.924 18.9291 14.3793 19.3262C14.0011 19.6019 13.6153 19.8832 13.2237 20.178C12.2873 20.8831 11.3556 21.6392 10.568 22.4876C10.28 22.7978 9.71936 22.7979 9.4313 22.488C8.64368 21.6405 7.71212 20.8848 6.77578 20.1799C6.38596 19.8864 6.0018 19.6062 5.6251 19.3315C5.07875 18.9331 4.54811 18.5461 4.0387 18.1465C2.3096 16.7902 1.16675 15.5343 1.16675 14.0052V4.33854C1.16675 4.06661 1.39024 3.83493 1.67864 3.82899Z" stroke="white"/>
<path d="M6 11.3333L8.66667 14L14.6667 8" stroke="#34E887" stroke-width="2" stroke-linecap="round"/>
</svg>
