<?xml version="1.0" encoding="UTF-8"?>
<svg id="Layer_1" data-name="Layer 1" xmlns="http://www.w3.org/2000/svg" xmlns:xlink="http://www.w3.org/1999/xlink" viewBox="0 0 576 864">
  <defs>
    <style>
      .cls-1, .cls-2, .cls-3 {
        fill: #cfd4db;
      }

      .cls-4 {
        fill: #3063ae;
      }

      .cls-5, .cls-6 {
        fill: #fff;
      }

      .cls-7 {
        filter: url(#drop-shadow-4);
      }

      .cls-7, .cls-8 {
        fill: #efccc0;
      }

      .cls-6 {
        filter: url(#drop-shadow-3);
      }

      .cls-9 {
        fill: #0c1928;
      }

      .cls-10 {
        fill: #191f4a;
      }

      .cls-2 {
        filter: url(#drop-shadow-6);
      }

      .cls-11 {
        fill: #e6aa6a;
      }

      .cls-3 {
        filter: url(#drop-shadow-5);
      }

      .cls-12 {
        clip-path: url(#clippath);
      }

      .cls-13 {
        fill: none;
      }

      .cls-14 {
        fill: url(#linear-gradient);
      }

      .cls-15 {
        fill: #d0693a;
      }
    </style>
    <clipPath id="clippath">
      <path class="cls-13" d="m319.77,117.27s.89,6.7,2.38,14.75c2.09,11.25,25.5,38.01,25.5,38.01,0,0,4.12-2.72,5.14-3.06,1.02-.34,11.23,1.02,17.7,1.02s13.62-3.4,13.96-5.11,1.7-4.77,1.7-4.77c0,0,5.45-5.79,4.43,1.7s-3.49,10.55.13,15.66,8.38,19.74,10.09,23.83,12.26,25.87,12.26,34.04-2.28,26.21-5.73,30.13-10.27,14.47-12.65,19.57-5.11,11.57-6.47,12.43-1.7,2.55-5.11,3.57c-3.4,1.02-.34,0-3.4,1.02-3.06,1.02-30.3,11.72-30.3,11.72,0,0-9.19,25.05-11.57,26.75-2.38,1.7-6.81,4.43-8.51,5.45-1.7,1.02-4.6,17.73-9.02,19.23-4.43,1.5-95.49-10.04-110.47-13.79-14.98-3.74-22.81-9.87-28.6-11.23-5.79-1.36-10.1-5.91-10.1-5.91,0,0-3.52-21.33,1.93-36.82s9.87-27.57,11.91-31.06,13.28-23.23,13.28-23.23c0,0,6.81-20.03,10.89-28.4,4.09-8.37,8.17-15.86,8.17-15.86,0,0,1.36-4.77,3.06-8.85s10.55-13.62,10.89-19.06,3.06-13.96,3.06-13.96c0,0-6.81-11.23-6.13-16s-.68-5.79,3.06-7.15,8.51-4.43,11.23-2.72c2.72,1.7,5.79,1.02,5.79,1.02,0,0-1.7-11.57,4.77-18.04,6.47-6.47,9.53-10.55,13.28-10.89,3.74-.34,11.91.34,14.64,0,2.72-.34,3.74-4.28,9.53-.1,5.79,4.18,7.49,6.57,10.89,6.91,3.4.34,9.19,2.38,11.91,3.4,2.72,1.02,6.47,4.09,6.47,4.09"/>
    </clipPath>
    <linearGradient id="linear-gradient" x1="121.15" y1="249.69" x2="446.51" y2="249.69" gradientUnits="userSpaceOnUse">
      <stop offset="0" stop-color="#df1f26"/>
      <stop offset="1" stop-color="#f47f50"/>
      <stop offset="1" stop-color="#f47f50"/>
    </linearGradient>
    <filter id="drop-shadow-3" filterUnits="userSpaceOnUse">
      <feOffset dx=".65" dy=".65"/>
      <feGaussianBlur result="blur" stdDeviation="1.8"/>
      <feFlood flood-color="#231f20" flood-opacity=".75"/>
      <feComposite in2="blur" operator="in"/>
      <feComposite in="SourceGraphic"/>
    </filter>
    <filter id="drop-shadow-4" filterUnits="userSpaceOnUse">
      <feOffset dx="0" dy="2.09"/>
      <feGaussianBlur result="blur-2" stdDeviation="2.09"/>
      <feFlood flood-color="#231f20" flood-opacity=".75"/>
      <feComposite in2="blur-2" operator="in"/>
      <feComposite in="SourceGraphic"/>
    </filter>
    <filter id="drop-shadow-5" filterUnits="userSpaceOnUse">
      <feOffset dx="0" dy="2.09"/>
      <feGaussianBlur result="blur-3" stdDeviation="2.09"/>
      <feFlood flood-color="#231f20" flood-opacity=".75"/>
      <feComposite in2="blur-3" operator="in"/>
      <feComposite in="SourceGraphic"/>
    </filter>
    <filter id="drop-shadow-6" filterUnits="userSpaceOnUse">
      <feOffset dx="0" dy="2.09"/>
      <feGaussianBlur result="blur-4" stdDeviation="2.09"/>
      <feFlood flood-color="#231f20" flood-opacity=".75"/>
      <feComposite in2="blur-4" operator="in"/>
      <feComposite in="SourceGraphic"/>
    </filter>
  </defs>
  <path class="cls-8" d="m309.76,129.61l13.84-17.36s.77-15.32,2.81-19.91,7.4-12,8.17-12.51,16.09-18.38,16.09-18.38c0,0,12.77-1.79,19.15,1.28,6.38,3.06,33.45,15.06,36.51,16.85s10.98,3.57,13.53,13.79-6.47,29.9-6.81,31.8-10.55,9.4-12.34,14.59-5.87,7.74-10.98,11.57-3.32,3.32-6.13,5.87c-2.81,2.55-2.9,8.48-6.13,9.47-3.23.99-9.3,5.33-12.44,10.44-3.13,5.11-7.73,9.45-10.28,9.7s-8.17,4.34-14.3,0c-6.13-4.34-25.79-10.21-25.79-17.87s-1.53-13.81-1.79-15.97-.88-7.52-3.12-11.1c-2.24-3.57-1.99-12-1.99-12l1.99-.26Z"/>
  <path class="cls-10" d="m319.77,117.27s.89,6.7,2.38,14.75c2.09,11.25,25.5,38.01,25.5,38.01,0,0,4.12-2.72,5.14-3.06,1.02-.34,11.23,1.02,17.7,1.02s13.62-3.4,13.96-5.11,1.7-4.77,1.7-4.77c0,0,5.45-5.79,4.43,1.7s-3.49,10.55.13,15.66,8.38,19.74,10.09,23.83,12.26,25.87,12.26,34.04-2.28,26.21-5.73,30.13-10.27,14.47-12.65,19.57-5.11,11.57-6.47,12.43-1.7,2.55-5.11,3.57c-3.4,1.02-.34,0-3.4,1.02-3.06,1.02-30.3,11.72-30.3,11.72,0,0-9.19,25.05-11.57,26.75-2.38,1.7-6.81,4.43-8.51,5.45-1.7,1.02-4.6,17.73-9.02,19.23-4.43,1.5-95.49-10.04-110.47-13.79-14.98-3.74-22.81-9.87-28.6-11.23-5.79-1.36-10.1-5.91-10.1-5.91,0,0-3.52-21.33,1.93-36.82s9.87-27.57,11.91-31.06,13.28-23.23,13.28-23.23c0,0,6.81-20.03,10.89-28.4,4.09-8.37,8.17-15.86,8.17-15.86,0,0,1.36-4.77,3.06-8.85s10.55-13.62,10.89-19.06,3.06-13.96,3.06-13.96c0,0-6.81-11.23-6.13-16s-.68-5.79,3.06-7.15,8.51-4.43,11.23-2.72c2.72,1.7,5.79,1.02,5.79,1.02,0,0-1.7-11.57,4.77-18.04,6.47-6.47,9.53-10.55,13.28-10.89,3.74-.34,11.91.34,14.64,0,2.72-.34,3.74-4.28,9.53-.1,5.79,4.18,7.49,6.57,10.89,6.91,3.4.34,9.19,2.38,11.91,3.4,2.72,1.02,6.47,4.09,6.47,4.09"/>
  <path class="cls-10" d="m319.77,117.27s.89,6.7,2.38,14.75c2.09,11.25,25.5,38.01,25.5,38.01,0,0,4.12-2.72,5.14-3.06,1.02-.34,11.23,1.02,17.7,1.02s13.62-3.4,13.96-5.11,1.7-4.77,1.7-4.77c0,0,5.45-5.79,4.43,1.7s-3.49,10.55.13,15.66,8.38,19.74,10.09,23.83,12.26,25.87,12.26,34.04-2.28,26.21-5.73,30.13-10.27,14.47-12.65,19.57-5.11,11.57-6.47,12.43-1.7,2.55-5.11,3.57c-3.4,1.02-.34,0-3.4,1.02-3.06,1.02-30.3,11.72-30.3,11.72,0,0-9.19,25.05-11.57,26.75-2.38,1.7-6.81,4.43-8.51,5.45-1.7,1.02-4.6,17.73-9.02,19.23-4.43,1.5-95.49-10.04-110.47-13.79-14.98-3.74-22.81-9.87-28.6-11.23-5.79-1.36-10.1-5.91-10.1-5.91,0,0-3.52-21.33,1.93-36.82s9.87-27.57,11.91-31.06,13.28-23.23,13.28-23.23c0,0,6.81-20.03,10.89-28.4,4.09-8.37,8.17-15.86,8.17-15.86,0,0,1.36-4.77,3.06-8.85s10.55-13.62,10.89-19.06,3.06-13.96,3.06-13.96c0,0-6.81-11.23-6.13-16s-.68-5.79,3.06-7.15,8.51-4.43,11.23-2.72c2.72,1.7,5.79,1.02,5.79,1.02,0,0-1.7-11.57,4.77-18.04,6.47-6.47,9.53-10.55,13.28-10.89,3.74-.34,11.91.34,14.64,0,2.72-.34,3.74-4.28,9.53-.1,5.79,4.18,7.49,6.57,10.89,6.91,3.4.34,9.19,2.38,11.91,3.4,2.72,1.02,6.47,4.09,6.47,4.09"/>
  <path class="cls-1" d="m219.18,695.55s-11.91-3.13-16.17-.92c-4.26,2.21-16.51,9.7-13.45,20.43s.68,12.6,8.51,23.15c7.83,10.55,16,19.91,16,29.96s.68,33.7,8.85,41.36c8.17,7.66,10.72,9.87,17.02,12.09,6.3,2.21,26.89,5.79,29.45,3.23s-6.47-18.89-8.85-30.47,5.45-29.79-4.43-53.62c-9.87-23.83-8.85-25.02-16-32.34-7.15-7.32-20.94-12.87-20.94-12.87Z"/>
  <g class="cls-12">
    <path class="cls-14" d="m314.3,139.74l-18.41-7.32-39.09,54.13-62.64,145.02,7.15,21.45,79.15,12.77,47.74-95.23,56.43-53.87-14.13-48.68.34-8.51s56.34-24,58.3-17.36,18.81,33.7,17.28,75.06-8.94,69.84-20.43,90.72c-11.49,20.88-2.55,12.43-29.11,43.06-26.55,30.64-40.35,48-74.56,51.57-34.21,3.57-110.06,17.1-142.46-11.74-32.41-28.84-58.21-29.11-58.21-88.34s-4.09-66.89,11.23-94.98c15.32-28.09,26.55-44.43,44.43-65.36s14.81-28.6,43.91-36.26c29.11-7.66,92.7-15.32,93.08-15.32s1.69,6.53,4.63,13.28c2.94,6.74,0,32.56,0,32.56l-4.63,3.36Z"/>
  </g>
  <path class="cls-10" d="m166.58,343.82s-28.94,26.04-30.64,31.83c-1.7,5.79.34,18.72,3.4,27.91s7.15,28.26,6.81,36.43-2.72,15.32,1.02,22.47,3.4,16.85,4.43,28.53-.68,19.13,4.77,29.69,7.49,18.38,16.34,33.36c8.85,14.98,12.94,18.04,18.04,24.17s11.91,8.99,13.96,23.49c2.04,14.5,9.53,29.27,9.53,29.27,0,0,72.17-58.55,62.47-81.36-9.7-22.81-1.19,78.98-1.19,78.98l53.13-43.18s3.72.94,4.06-3.98,0-8.33,0-14.46-2.04-6.13-1.36-13.62,2.72-11.57,3.74-17.36.51-15.23,1.53-21.36-2.98-44.09-4.34-53.62c-1.36-9.53-.77-16.3-1.96-21.36-.91-3.88,2.63-3.74,5.06-9.87,2.43-6.13,11.62-27.57,6.51-33.36-5.11-5.79-7.15-7.83-8.51-13.62-1.36-5.79-3.4-10.21-4.77-14.64-1.36-4.43-1.7-6.13-2.38-10.21l-1.02-6.13s9.19-4.77-9.53-.34c-18.72,4.43-21.45,7.15-40.17,5.45-18.72-1.7-25.19-2.04-44.26-6.47-19.06-4.43-29.96-6.13-36.09-9.53-6.13-3.4-11.23-6.81-14.98-9.19-3.74-2.38-6.47-4.09-6.47-4.09,0,0-3.74,6.13-5.11,10.21s-2.04,5.96-2.04,5.96Z"/>
  <path class="cls-4" d="m201.99,752.5s3.06-14.64,8.17-24.17c5.11-9.53,14.13-24.41,14.13-24.41,0,0,60.14-85.19,60.85-88.27s2.3-9.53,2.99-11.57-1.02-6.47,0-8.51-1.19-12.26-1.19-12.26c0,0,3.57-4.09,25.02,0,21.45,4.09,39.49,1.02,39.49,7.49s-2.55,12.43-3.23,16.17-2.38,7.49-2.38,12.26-3.23,16.51-5.11,20.09-4.6,7.15-4.6,8.85-.85,5.96-4.77,9.36-10.38,9.19-11.57,11.91-20.09,41.36-20.09,41.36l-52.26,70.98s-5.28-.68-9.19,0-6.64-10.21-5.62-12.77-1.87-.68-6.64.34c-4.77,1.02-12.77,4.09-15.32,1.19-2.55-2.89-6.98-9.53-7.32-10.89s-1.36-7.15-1.36-7.15Z"/>
  <g>
    <rect class="cls-5" x="309.97" y="585.85" width="11.31" height="68.88" rx="2.86" ry="2.86" transform="translate(-361.63 780.6) rotate(-76.35)"/>
    <rect class="cls-5" x="303.16" y="607.83" width="11.31" height="68.88" rx="2.86" ry="2.86" transform="translate(-388.2 790.77) rotate(-76.35)"/>
    <rect class="cls-5" x="304.84" y="593.19" width="13.56" height="75.55" rx="3.73" ry="3.73" transform="translate(-375.06 784.86) rotate(-76.35)"/>
  </g>
  <path class="cls-4" d="m246.58,784.5c0-.68-5.96-26.04-6.47-39.15s-12.09-35.57-17.53-44.26-15.83-25.7-16.17-38.98,1.53-43.91-.34-52.43c-1.87-8.51-5.28-21.45-5.96-24.17s-12.43-18.04-12.77-18.55,2.55-22.98,4.09-31.49,13.96-35.23,24.68-40.34c10.72-5.11,38.81-5.96,44.26,0s12.26,29.62,14.98,38.64c2.72,9.02,6.47,14.3,6.47,19.06s-2.72,3.23,0,6.47,4.94,1.36,4.09,6.47-.31,8.17.18,11.57,1.35,3.91.84,5.96-1.56.34.16,4.26-.35,8.17,0,11.06-2.55,4.77-1.95,9.7,8.26,42.72,8.94,52.77,14.47,73.87,16.17,89.02c1.7,15.15,8.68,33.02,8.68,33.02,0,0-9.02-2.89-13.62-8.17s-16.17-10.38-21.11-5.79-13.96,17.02-22.3,18.89c-8.34,1.87-12.94.68-14.13-.85-1.19-1.53-1.19-2.72-1.19-2.72Z"/>
  <g>
    <rect class="cls-5" x="233.87" y="535.59" width="11.31" height="68.88" rx="2.86" ry="2.86" transform="translate(-288.83 891.2) rotate(-98.5)"/>
    <rect class="cls-6" x="235.85" y="558.52" width="11.31" height="68.88" rx="2.86" ry="2.86" transform="translate(-309.23 919.48) rotate(-98.5)"/>
    <rect class="cls-5" x="233.06" y="543.65" width="13.56" height="75.55" rx="3.73" ry="3.73" transform="translate(-299.74 904.6) rotate(-98.5)"/>
  </g>
  <g>
    <path class="cls-7" d="m248.28,144.5s.34,18.72,6.81,30.64c6.47,11.91,9.53,27.91,12.94,33.36,3.4,5.45,19.78,22.13,19.78,22.13l37.19,13.35s-3.7-20.16-7.53-28.33c-3.83-8.17-7.18-19.4-7.72-24.51s-3.94-18.38-5.65-19.4c-1.7-1.02-1.02-3.74-2.38-6.81-1.36-3.06-2.51-8.17-5.85-11.23-3.34-3.06-15.94-8.17-22.75-12.26-6.81-4.09-4.77-4.09-6.81-4.09s-2.04-.68-9.87,1.7c-7.83,2.38-8.17,5.45-8.17,5.45Z"/>
    <g>
      <path class="cls-15" d="m314.3,280.23c1.74,1.15,3.26,2.58,4.57,4.22,3.41.14,6.75.91,9.85,2.4,5.65,2.71,9.4,8.03,11.19,14.41,8.83,6.27,15.65,15.6,21.96,24.69,7.94,11.44,17.72,20.48,26.96,30.5,6.16-3.28,12.32-6.55,18.48-9.84-13.98-12.84-65.52-69.81-74.58-77.58-7.55-6.47-15.22,5.26-18.44,11.2Z"/>
      <g>
        <path class="cls-3" d="m283.26,274.63s-9.7,2.3-8.43-6.89,5.87-27.32,8.43-32.43c2.55-5.11,6.89-14.3,7.66-15.57s5.87-3.57,7.4-4.6c1.53-1.02,3.06-1.79,4.85-1.79s5.11-1.28,7.66,0,3.83,1.28,6.64,2.3c2.81,1.02,6.13,3.83,8.43,4.6,2.3.77,4.34,3.57,5.87,3.57s2.3,1.79,5.36,2.04c3.06.26,10.79-3.32,6.29,4.6-4.5,7.91-8.07,17.11-8.07,21.45s1.53,4.09.26,7.4-1.28,5.11-2.55,7.4c-1.28,2.3-1.53,4.34-2.55,5.11s-5.11,1.79-6.13,3.06-10.33,1.53-14.61,6.13c-4.28,4.6-7.35,8.43-10.41,9.45-3.06,1.02-7.91-2.04-7.91-3.32s-3.06-1.02-4.34-2.04c-1.28-1.02-4.85-3.32-4.34-6.89l.51-3.57Z"/>
        <path class="cls-2" d="m301.9,318.8s-5.11-9.96-3.32-18.13,3.83-16.34,5.87-21.7c2.04-5.36,18.64-8.43,23.74-8.43s10.47,1.53,13.53,4.09,6.13,4.85,6.13,4.85c0,0,1.53,1.79,3.06.77,1.53-1.02,2.3-3.32,7.4-4.6,5.11-1.28,19.66-1.02,20.43,4.34s3.06,5.52,0,10.67-5.36,8.22-6.64,10.01-3.06,3.83-3.06,3.83c0,0-4.6-1.02-7.4-4.09-2.81-3.06-2.81-2.81-2.81-4.6s4.6-5.16,4.6-5.16c0,0-3.57,1.53-7.66,1.84-4.09.31-7.91-1.79-7.91-4.34s-3.06,1.28-3.06,1.28c0,0,5.87,2.04,6.13,5.23s-.26,12.64-.26,20.81-1.02,12-3.83,14.3c-2.81,2.3.26,3.57-6.13,3.57h-7.91s-1.02,1.02-4.34,1.02-7.91-.26-8.68-2.04l-.77-1.79s-13.53-5.87-14.04-7.4-3.06-4.34-3.06-4.34Z"/>
      </g>
      <g>
        <path class="cls-15" d="m493.18,472.56s11.23,6.64,18.89,0,14.3-15.83,15.32-19.4,4.09-9.19,3.06-11.23-3.06-5.11-3.06-5.11l-19.91,4.6-14.3,31.15Z"/>
        <polygon class="cls-11" points="352.25 322.43 369.87 306.6 385.44 300.98 527.4 436.81 493.18 472.56 347.65 331.88 352.25 322.43"/>
      </g>
      <polygon points="285.13 272.16 290.02 256.51 290.97 256.84 285.13 272.16 285.13 272.16"/>
      <polygon points="293.56 280.84 297.72 263.35 298.69 263.61 293.56 280.84 293.56 280.84"/>
      <path d="m290.75,237.18c6.23,3.66,12.59,7.18,19.21,10.1,2.48,1.06,5.01,2.12,7.66,2.62,4.48.51,9.05.43,13.56.3-4.52.23-9.1.42-13.61,0-6.25-1.24-12-4.3-17.7-7.04-3.25-1.63-6.45-3.34-9.62-5.13l.51-.86h0Z"/>
      <polygon points="341.9 283.05 331.73 290.84 331.82 290.67 331.25 307.93 330.25 307.88 331.39 290.65 331.4 290.55 331.48 290.49 341.9 283.05 341.9 283.05"/>
      <polygon points="333.82 280.84 319.95 287.76 320.07 287.6 316.69 307.57 315.71 307.39 319.65 287.53 319.67 287.42 319.76 287.37 333.82 280.84 333.82 280.84"/>
    </g>
  </g>
  <path d="m236.71,402.54c5.53,19.98,14.65,51.98,19.57,71.79.36,1.64.79,3.18,1.01,4.97h-1c-.18-1.5-.58-3.16-.93-4.76-4.64-19.75-13.42-52.11-18.66-72.01h0Z"/>
  <path class="cls-4" d="m386.05,150s-5.98,14.57-9,19.18c-3.02,4.61-2.98,7.51-2.98,7.51,0,0,9.95-4.26,12.26-1.81l2.31,2.45s1.99-12.15,2.05-16.88c.06-4.73-4.64-10.45-4.64-10.45Z"/>
  <path class="cls-4" d="m321.86,110.57s-1.27,18.39-.41,23.78l.86,5.39s-6.71-7.6-9.48-6.17l-2.77,1.43s2.65-12.01,4.27-16.43,7.52-8.01,7.52-8.01Z"/>
  <path d="m324.11,93.41c-.15.42-.02.88.33,1.16,1.56,1.26,5.71,4.82,5.29,6.69,0,.02-.01.05-.02.07-.27,1.27,1.55,1.81,2.02.6,2.93-7.59,7.01-17.89,8.72-20.84,2.81-4.85,10.47-15.57,14.3-16.09,3.42-.46,8.13-.1,9.11-.02.12.01.23.04.34.09,2.98,1.38,45.7,21.25,45.7,24.95v3.65c0,.12.02.23.06.34.48,1.38,3.84,11.46,3.09,21.54-.57,7.74-1.5,9.12,0,10.02.53.31-.54,3.3-.28,2.74,1.98-4.19,15.35-23.9,16.02-34.21s.15-16.07.02-17.16c-.02-.13-.05-.25-.12-.37-.83-1.53-7.01-12.97-8.39-14.64-1.21-1.46-2.62-3.61-3.1-4.34-.11-.17-.26-.3-.45-.38l-5.67-2.6c-.11-.05-.22-.12-.31-.21l-1.56-1.56c-.06-.06-.14-.12-.21-.17l-2.7-1.57c-.16-.09-.35-.14-.53-.14h-1.12c-.24,0-.48-.08-.66-.24-.67-.55-2.45-1.91-4.06-2.32-1.71-.43-4.31-1.03-5.12-1.22-.16-.04-.32-.03-.48,0-.83.21-3.65.8-5.38-.06-1.67-.84-4.2-1.5-5.06-1.72-.19-.05-.38-.04-.57.02-.85.27-3.43.98-4.07-.09-.77-1.28-1.7-1.79-5.19-1.79s-9.94-.26-10.04,0c-.09.24-2.96,1.14-3.37,1.26-.03.01-.07.02-.1.03l-2.5.5s-4.85,1.02-5.62,1.79-5.36,2.3-5.36,2.3c0,0-1.79.51-2.55,2.04-.57,1.14-1.71,2.42-2.25,3-.19.2-.44.31-.71.33-.75.04-2.34.18-2.91.75-.77.77-2.81,1.02-3.06,1.79-.21.62-1.93,2.58-2.57,3.3-.15.17-.24.37-.26.59-.04.42-.15,1.22-.49,2.23-.51,1.53-.26,1.53-1.02,3.32s-1.28,2.81-2.04,5.11-.77,1.28-1.28,4.09-.26,3.06-.77,4.6-.51,2.44-.77,4.79c-.2,1.87-1.7,6.3-2.3,8.03Z"/>
  <path class="cls-1" d="m256.11,817.52s15.32,12.09,24.68,12.09,50.38,2.89,57.87,0c7.49-2.89,14.13-3.91,15.83-7.32s.85-9.19-1.7-12.94c-2.55-3.74-3.4-5.11-9.36-7.15s-8-1.19-11.4-3.4-3.74-2.89-4.77-5.28c-1.02-2.38-5.62-4.26-6.13-5.28s-2.07-4.01-3.08-5.41c-1.01-1.4-5.94-4.46-7.48-6.51s-3.74-4.94-6.64-6.3-9.87-4.77-11.4-4.77-8.85-2.38-11.06,0-6.42,9.7-11.63,12.6c-5.22,2.89-14.58,7.32-21.05,8.17-6.47.85-2.89-10.21-2.89-10.21,0,0-10.7.29-11.39,2.96s6.29,25.13,11.05,29.9,10.55,8.85,10.55,8.85Z"/>
  <path class="cls-9" d="m300.52,830.34s27.25-3.97,32.7-7.03,18.72-4.77,19.74-4.77h2.42s.46,4.27-3,5.9-10.17,6.37-12.36,5.9-3.75.17-6.81.29c-3.06.11-32.7-.29-32.7-.29Z"/>
  <path class="cls-9" d="m275.69,800.67l-22.57-3.12-8.24-2.84s10.89,11.57,18.21,18.72c7.32,7.15,24.34,11.16,24.34,11.16h11.4l26.72-12.86-49.87-11.06Z"/>
  <g>
    <polygon class="cls-9" points="297 788.85 299.2 790.75 306.59 789.3 297 788.85"/>
    <polygon class="cls-9" points="302.63 793.33 307.77 795.31 311.63 790.98 302.63 793.33"/>
    <polygon class="cls-9" points="310.32 797.02 314.92 798.59 318.32 794.02 310.32 797.02"/>
  </g>
  <g>
    <path class="cls-10" d="m326.37,132.17c-.46-2.18-.87-4.37-1.42-6.53-.17-.66-.58-1.42-1.12-1.8-2.09-1.47-3.44-3.2-3.22-5.94.14-1.68-.05-3.38.17-5.11.32,1,.6,2.02.96,3.01.23.65.13,1.58,1.27,1.62.17,0,.57.91.43,1.19-.57,1.17.14,1.7,1.04,2.4.38-.85.75-1.62,1.06-2.42.36-.92.93-1.48,1.91-1.82.63-.21,1.08-.93,1.61-1.42-.51-.53-.93-1.25-1.56-1.54-1.59-.72-3.28-1.22-4.92-1.85-1.97-.75-2.14-1.08-1.91-3.27.02-.22,0-.45,0-.38,1.71-.08,3.41,0,5.04-.28,1.07-.18,1.89-.09,2.69.59.91.77,1.86,1.5,2.83,2.27-1.66-2.29-3.71-4.34-4.78-6.82-1.03-2.4-1.05-5.23-1.58-8.21-1.43-.84-3.33-1.95-5.21-3.08-.11-.07-.09-.35-.16-.66,2.14-.05,1.98-1.51,1.95-2.96-.03-1.55.08-3.1.04-4.64-.03-.96-.22-1.92-.37-3.13,2.32.18,4.29.32,6.26.47,0,.17.01.33.02.5-1.3.09-2.6.17-4.4.29-.09.57-.4,1.67-.41,2.76-.03,1.9.21,3.8.18,5.7-.02,1.37.74,1.63,1.8,1.62,2.61-.05,5.21-.16,7.82-.18.44,0,.93.28,1.31.55.7.5,1.34,1.1,2.01,1.65.13-.07.27-.14.4-.21-1.52-3.14-3.04-6.29-4.34-8.97l.82-3.19c1.64-.24,3.57,1.06,5.69.1-5.62-.53-11.04-1.09-16.47-1.53-1.34-.11-1.47-.72-1.11-1.71.68-1.88,1.4-3.75,2.14-5.6.41-1.02,1.16-1.44,2.31-1.35,2.09.16,4.18.21,6.2.3,0-.34-.09-.7.02-.98,3.59-8.84,7.65-17.4,14.16-24.56,3.83-4.21,8.29-7.52,13.33-10.09,1.04-.53,2.07-1.09,3.09-1.66,2.94-1.63,6.25-1.58,9.44-1.95,5.94-.68,11.85.09,17.75.67,3.85.38,7.39,1.77,10.71,3.63,4.5,2.52,8.8,5.39,13.36,7.79,5.08,2.67,7.82,7.37,10.6,11.91,3.19,5.2,5.06,11.07,5.23,17.19.18,6.51-.25,13.04-.41,19.57,0,.33-.01.67-.02,1.15,1.1.11,2.15.25,3.21.31,1.32.07,2.02.82,1.99,2.05-.05,2.14-.2,4.28-.41,6.41-.12,1.2-.86,1.8-2.13,1.63-.51-.07-1.03-.05-1.68.22.85.57,1.71,1.12,2.55,1.7,1.04.72,2.22,1.33,3.05,2.25.81.89,1.44,2.06,1.8,3.21.39,1.26-.53,2.31-1.86,2.37-1.21.06-2.42-.02-3.63-.11-.97-.07-1.38.23-1.08,1.41.61-.25,1.16-.48,1.7-.71.08.09.16.17.24.26-.62.65-1.24,1.3-1.96,2.06.26.2.54.35.74.58.23.26.57.62.53.88-.04.28-.48.48-.73.74-.33.33-.82.63-.93,1.02-1.15,4.13-2.26,8.28-3.31,12.44-.22.87-.18,1.75.71,2.44.93.72.28,1.54-.42,1.62-2.03.24-2.74,1.71-3.53,3.21-.45.86-.9,1.74-1.48,2.51-.22.3-.81.32-1.23.46-.63.2-1.37.26-1.87.63-.77.57-1.32,1.45-2.08,2.05-2.83,2.22-2.77,5.03-1.87,8.12.28.96.16,2.03.23,3.11,0-.01.14-.22.38-.62.23,1.61-.4,2.38-1.49,2.79-.58.22-1.28.46-1.85.33-2.02-.45-2.62.75-3.32,2.3-3.38,7.62-9.22,12.41-17.26,14.49-2.02.52-4.11.81-6.16,1.23-.37.08-.85.13-1.07.38-1.03,1.19-2.06.69-3.12.11-.25-.13-.5-.3-.77-.35-3.87-.77-7.73-1.53-11.6-2.28-1.04-.2-2.11-.32-3.15-.53-.47-.09-.96-.24-1.37-.49-3.07-1.83-6.17-3.61-9.16-5.57-10.93-7.13-18.8-16.85-24.01-28.76-.49-1.12-.97-2.24-1.51-3.33-.23-.46-.54-.98-.96-1.23-1.74-1.03-2.41-2.6-2.5-4.51.45.79.91,1.58,1.36,2.37l.09-.11c-.55-1.98-1.1-3.96-1.64-5.94-.04,0-.08.01-.12.02.14,1.24.28,2.48.41,3.72Zm98.86-5.96l-.65-1.86c-.13-.03-.27-.06-.4-.09-.17.41-.43.8-.48,1.23-.21,1.77-.35,3.55-.5,5.16,1.15-.84,1.48-2.48,1.94-4.05.26,2.41-.16,4.49-3.03,5.47,1.04.72,1.81,1.26,2.75,1.92,1.24-4.83,2.42-9.44,3.67-14.32-1.46.23-2.67.42-3.72.58.12,1.17.23,1.97.28,2.76.07,1.06.1,2.13.14,3.19Zm-91.15-12.53c24.69,8.94,50.03,15.34,76.09,20.46-.08-2.78-.04-5.2-.25-7.61-.36-3.98-.94-7.94-1.31-11.91-.07-.8.29-1.67.58-2.46.16-.44.61-.77.93-1.15-.48-.33-.91-.84-1.44-.96-7.54-1.78-15.1-3.53-22.66-5.24-13.95-3.17-27.75-6.81-40.72-13.03-1.24-.59-2.61-.91-4.08-1.41,0,.58.02.86,0,1.14-.31,2.64-.59,5.28-.99,7.91-.06.42-.67,1.01-1.09,1.07-1.27.19-1.84.88-2.09,2.06-.22,1.05-.61,2.06-.88,3.1-.68,2.58-1.33,5.17-2.07,8.04Zm46.45,39.26c.08-.94.17-1.46.17-1.98.05-6.38.05-12.77.18-19.15.03-1.35-.48-1.69-1.64-1.99-13.55-3.48-27.08-7.04-40.21-11.92-1.67-.62-3.38-1.14-4.9-1.66-1.35,5.27-2.77,10.33-3.9,15.46-.43,1.94.19,3.71,2.3,4.86,9.31,5.09,18.91,9.48,29.21,12.12,6.13,1.57,12.34,2.81,18.79,4.26Zm-47.52-14.24c-.15.17-.3.34-.44.51,1.73,3.42,3.18,7.02,5.24,10.22,6.6,10.28,15.35,18.2,26.56,23.27.96.43,1.47.21,2.08-.55,3.68-4.6,7.41-9.17,11.11-13.76.89-1.1,1.7-2.26,2.79-3.71-16.99-2.6-32.84-7.28-47.33-15.98Zm49.89-8.04c-.11,7.53-.22,14.63-.28,21.73,0,.34.44.9.76.98,5.21,1.24,10.44,2.4,15.66,3.6.99.23,1.57-.06,2.14-.94,2.59-4.01,5.14-8.05,7.96-11.89,1.48-2.02,2.02-3.93,1.32-6.32-.26-.88-.57-1.26-1.47-1.44-7.39-1.54-14.77-3.13-22.15-4.72-1.23-.26-2.43-.62-3.94-1Zm-15.5,43.29c5.35,2.04,10.47,3.01,15.79,2.89.44-.01.97-.43,1.29-.8,4.35-5,8.67-10.02,12.99-15.05.49-.57.91-1.21,1.33-1.77-.14-.18-.16-.25-.19-.26-5.16-1.22-10.33-2.45-15.5-3.64-.29-.07-.77.12-.96.35-3.62,4.46-7.21,8.95-10.81,13.43-1.24,1.54-2.5,3.07-3.94,4.84Zm19.13,2.52c9.91-.56,19.25-7.76,21.26-15.98-1.78-.28-3.56-.52-5.31-.87-.88-.17-1.41.05-1.99.74-2.89,3.42-5.84,6.79-8.78,10.18-1.65,1.9-3.31,3.79-5.18,5.94Zm16.11-18.81c1.4.24,2.69.39,3.94.69,1.61.39,2.46-.05,2.89-1.77.53-2.07,1.13-4.2,2.2-6.02,1.05-1.78,1.26-3.51,1.01-5.41-.06-.46-.34-.9-.53-1.35-.36.27-.82.48-1.05.83-2.69,4-5.36,8.01-8.02,12.03-.15.23-.24.51-.45.99Zm-70.54-58.03c.42,2.64.81,5.08,1.2,7.52.11,0,.21,0,.32,0,.66-2.07,1.31-4.14,2.01-6.35-1.18-.39-2.27-.75-3.54-1.17Zm6.71-12.9c-.17.01-.33.03-.5.04.02.59-.07,1.21.08,1.77.23.82.82,1.58.92,2.4.23,1.9.25,3.83.37,6.1,1.31-3.83,1.33-7.18-.87-10.31Zm71.64,72.12c1.11-.1,1.92-.04,2.63-.28.37-.13.83-.84.76-1.19-.26-1.3-.73-2.55-1.12-3.83-.1,0-.2,0-.3,0-.62,1.66-1.23,3.33-1.97,5.3Zm-50.24-35.68l.12-.58c-4.35-1.28-8.7-2.56-13.05-3.84-.05.16-.09.32-.14.47,4.36,1.31,8.71,2.63,13.07,3.94Zm-32.19,8.77c.13,0,.26,0,.39,0,.3-1.89.6-3.78.94-5.93-.83.36-1.38.61-2,.88.23,1.74.45,3.39.67,5.05Zm89.64-19.09c-.02-.16-.05-.33-.07-.49-1.9-.49-3.79-.97-5.69-1.46l-.28.31c.22.3.45.88.65.87,1.82-.07,3.56,1.01,5.39.77Zm-3.07,33.81c1.3-1.35,2.36-2.44,3.41-3.52-.09-.13-.18-.26-.27-.38-1.09.4-2.19.81-3.31,1.22.05.84.1,1.59.17,2.69Zm-25.24-16.36l-.06.22c3.3.85,6.61,1.69,9.91,2.54.02-.07.03-.15.05-.22l-9.9-2.54Zm-31.2,18.32c.07-.17.14-.34.2-.51-2.88-.93-5.76-1.86-8.64-2.8-.05.14-.1.29-.14.43,2.86.96,5.72,1.91,8.58,2.87Zm9.17,26c1.28,1.08,6.3,2.48,7.96,2.04-2.85-.73-5.39-1.38-7.96-2.04Zm-26.41-99.79c.66-1.37.41-2.18-.64-2.22-2.46-.1-4.92-.08-7.38-.12,2.02.32,4.05.55,6.07.49,1.37-.04,2.17.18,1.95,1.85Zm47.32,80.67c.03-.08.07-.16.1-.24-1.78-.46-3.55-.91-5.33-1.37-.02.08-.04.17-.06.25,1.76.45,3.52.9,5.29,1.36Z"/>
    <path class="cls-10" d="m318.14,99.14c1.51,1.36,2.67,2.37,3.8,3.42,1.17,1.08.83,3.08-.66,4.02-2.24,1.41-2.49,1.29-2.71-1.4-.15-1.91-.28-3.82-.44-6.03Z"/>
    <path class="cls-10" d="m324.35,98.72c-.76-.47-1.41-.87-2.18-1.35,1.46-.66,1.92-.36,2.18,1.35Z"/>
  </g>
</svg>