<?xml version="1.0" encoding="UTF-8"?>
<svg id="Layer_1" data-name="Layer 1" xmlns="http://www.w3.org/2000/svg" xmlns:xlink="http://www.w3.org/1999/xlink" viewBox="0 0 1307.23 881">
  <defs>
    <style>
      .cls-1 {
        fill: #cfcfce;
      }

      .cls-2 {
        fill: url(#linear-gradient-2);
      }

      .cls-3 {
        fill: none;
        stroke: #000;
        stroke-miterlimit: 10;
      }

      .cls-4 {
        fill: #020404;
      }

      .cls-5 {
        fill: url(#linear-gradient-6);
      }

      .cls-6 {
        fill: #191f4a;
      }

      .cls-7 {
        fill: url(#linear-gradient-5);
      }

      .cls-8 {
        fill: #261616;
      }

      .cls-9 {
        fill: url(#linear-gradient-7);
      }

      .cls-10 {
        fill: url(#linear-gradient-3);
      }

      .cls-11 {
        fill: url(#linear-gradient);
      }

      .cls-12 {
        fill: url(#linear-gradient-4);
      }

      .cls-13, .cls-14 {
        fill: #efccc0;
      }

      .cls-14 {
        filter: url(#drop-shadow-2);
      }

      .cls-15 {
        fill: url(#linear-gradient-8);
      }
    </style>
    <filter id="drop-shadow-2" filterUnits="userSpaceOnUse">
      <feOffset dx="0" dy="2.09"/>
      <feGaussianBlur result="blur" stdDeviation="2.09"/>
      <feFlood flood-color="#231f20" flood-opacity=".75"/>
      <feComposite in2="blur" operator="in"/>
      <feComposite in="SourceGraphic"/>
    </filter>
    <linearGradient id="linear-gradient" x1="623.49" y1="412.27" x2="688.57" y2="412.27" gradientUnits="userSpaceOnUse">
      <stop offset="0" stop-color="#df1f26"/>
      <stop offset="1" stop-color="#f47f50"/>
      <stop offset="1" stop-color="#f47f50"/>
    </linearGradient>
    <linearGradient id="linear-gradient-2" x1="702.29" x2="762.79" xlink:href="#linear-gradient"/>
    <linearGradient id="linear-gradient-3" x1="856.37" y1="455.83" x2="909.73" y2="455.83" xlink:href="#linear-gradient"/>
    <linearGradient id="linear-gradient-4" x1="919.7" y1="431.44" x2="968.25" y2="431.44" xlink:href="#linear-gradient"/>
    <linearGradient id="linear-gradient-5" x1="1038.13" y1="385.34" x2="1085.48" y2="385.34" xlink:href="#linear-gradient"/>
    <linearGradient id="linear-gradient-6" x1="1093.32" y1="376.9" x2="1140.47" y2="376.9" xlink:href="#linear-gradient"/>
    <linearGradient id="linear-gradient-7" x1="347.92" y1="452.99" x2="403.94" y2="452.99" xlink:href="#linear-gradient"/>
    <linearGradient id="linear-gradient-8" x1="413.85" y1="452.99" x2="465.43" y2="452.99" xlink:href="#linear-gradient"/>
  </defs>
  <path class="cls-13" d="m616.6,237.85s17.62,1.28,27.32,2.81c9.7,1.53,18.89,3.06,18.89,3.06,0,0,6.64,9.19,4.09,14.3-2.55,5.11-3.57,9.7-7.66,12.26s-8.17-2.64-22.98-4.13c-14.81-1.49-26.01-6.51-26.01-6.51l-4.12-16.42,10.47-5.36Z"/>
  <path class="cls-8" d="m533.87,211.81c-1.53-9.19,2.3-9.19,0-16.09-2.3-6.89-9.19-7.66-20.68-18.38-11.49-10.72-6.89-3.83-25.28-8.43-18.39-4.6-19.14,2.3-21.44,4.31-.89.78-2.12,3.4-3.43,6.68l-1.17-6.68-57.45,10.24-13.02,30.64,3.83,40.6,37.9,19.53,26.59-30.17c2.71,5.04,5.85,9.79,8.28,10.35,5.36,1.24,32.17-2.77,49.02-9.83,16.85-7.06,11.49-6.73,17.61-14.26,6.12-7.53.78-9.32-.75-18.51Z"/>
  <g>
    <path d="m551.49,230.32c-1.53-3.7,1.68-8.21,0-15.19-1.68-6.99-3.57,0-3.57,0,0,0-74.55-6.64-78.64-9.19-4.09-2.55-11.32-1.42-11.74-4.6-.42-3.18-4.09-3.57-8.96-7.66-4.87-4.08-29.15,4.29-29.15,4.29,0,0-7.34,4.39-23.87,6.38-16.53,1.99-6.45,4.65-7.47,14.35-1.02,9.69-2.04,15.33,0,24.01,2.04,8.68,8.68,14.3,13.79,20.05,5.11,5.75,16.85,8.55,20.43,8.22,3.57-.33,17.36,1.86,24,3.26,6.64,1.4,20.43-6,36.77-14.17,16.34-8.17,26.04-6.13,59.4-17.36,33.36-11.23,10.56-8.68,9.03-12.38Z"/>
    <path d="m894.78,216.04c-7.11-5.77-12.4-22.05-31.8-23.48-19.4-1.43-43.4,5.4-43.4,5.4,0,0-23.49,14.11-23.49,39.89s-3.57,32.51,0,36.55c3.57,4.04,2.44,7.89,13.99,14.39,11.55,6.5,91.72,14.17,91.72,14.17,0,0,.51-39.64,0-52.51-.51-12.87.1-28.66-7.01-34.43Z"/>
    <polygon points="965.62 263.18 927.57 267.52 925.28 266.15 922.39 293.11 971.23 328.83 991.15 335.64 994.72 283.74 965.62 263.18"/>
    <path d="m259.91,230.94c1.53.02,29.62-12.01,29.62-12.01v-20.97s-17.87,2.76-22.98,6.39c-5.11,3.63-8.17,26.57-6.64,26.59Z"/>
    <path d="m749.11,197.97c-1.02.31-73.02,0-73.02,0l-9.77,6.38s4.15,26.1,6.19,38.35c2.04,12.26,4.84,8.68,6.25,12,1.41,3.32,34.11,15.43,36.4,16.27,2.29.84,7.91,2.23,11.48,0,3.57-2.23,19.4-12.95,22.47-21.12,3.06-8.17,6.36-8.41,6.38-19.53.02-11.12,1.28-17.24,0-22.34-1.28-5.11-5.36-10.31-6.38-10.01Z"/>
  </g>
  <path class="cls-14" d="m940.6,341.77s-9.7-1.28-9.7-10.21,1.28-13.53,0-19.91-3.32-18.38-3.32-18.38c0,0,9.7-6.89,13.02,0,3.32,6.89,5.62,12.26,5.62,13.79s1.28,3.32,3.83,2.04c2.55-1.28,15.57-4.34,17.36-3.32s0,2.04,4.09,4.85c4.09,2.81,10.72.77,11.49,5.36s1.02,5.62,1.79,8.94.77,6.38,2.04,10.98,2.3,8.43,2.3,12v14.04s-7.4-16.09-17.11-20.17c-9.7-4.09-16.34-6.13-21.45-2.81-5.11,3.32-10.21,4.34-10.21,4.34"/>
  <path class="cls-6" d="m762.6,241.02s7.95.34,10.51,3.56c2.55,3.23,2.77,5.78,6.49,6.29,3.72.51,9.44-.57,12.78,0,3.34.57-1.1-2.94,3.34.57,4.44,3.51,4.66-1.08,4.81,5.55.15,6.64,3.96,13.5,3.97,15.17,0,1.67-1.26-3.6,4.35,6.95,5.62,10.55,8.17,10.45,9.19,17.91,1.02,7.46,11.23,8.48,0,15.63-11.23,7.15-5.73,13.28-23.55,7.15-17.82-6.13-38.75-14.75-42.33-20.4-3.57-5.65-11.23-11.26-11.23-17.13v-16.13c0-3.53-2.1-2.62,2.53-8.44,4.62-5.82,15.86-13.13,15.86-13.13"/>
  <path class="cls-6" d="m505.53,292.59c3.06,2.71,36,13.09,42.13,36.24,6.13,23.15,12.26,52.26,12.26,52.26,0,0,10.98-58.21,22.72-68.94,11.74-10.72,50.81-17.62,59.23-26.04,8.43-8.43,17.36-15.83,17.36-15.83,0,0,18.21-34.88,50.04-32.62,31.84,2.26,39.57,38.49,46.21,44.62,6.64,6.13,23.49,8.83,36.89,14.76,13.4,5.92,42.45.66,46.34,12.29,3.89,11.63,22.98-7.89,22.98-7.89h29.11l13.69-8.84,23.08.66,7.44,3.78,10.18,18.38,42.97,25.65s8.35-21.63,6.05-25.65c-2.3-4.03,3.1-13.58.4-18.38-2.7-4.8-4.49-17.99-5.51-17.91-1.02.09-6.24-4.9-6.24-4.9,0,0,48.12-34.85,58.84-36.38,10.72-1.53,45.19-.3,45.19-.3v16.86s34.47,14.67,50.55,24.72c16.09,10.04,36.77,49.11,36.77,56.77s-16.09,21.45-23.74,32.94c-7.66,11.49-11.49,44.43-8.43,58.98,3.06,14.55,6.89,27.06,6.89,31.91s-1.53,113.62,5.36,136.6c6.89,22.98,27.84,36,15.07,85.02-12.77,49.02-43.41,122.28-43.41,122.28l-149.36-3.56-184.21,3.56H94.21s6.13-42.62,5.36-57.17c-.77-14.55-10.72-109.53-5.36-125.62s16.85-22.98,19.15-30.64c2.3-7.66,6.89-30.28,6.89-30.28,0,0-22.21-7.82-22.21-27.45s.77-60.99.77-60.99l2.3-9.19s-27.57-14.55-21.45-34.47c6.13-19.91,45.19-71.23,45.19-71.23,0,0,11.49-26.38,11.49-27.74s14.3-20.43,14.3-20.43l39.59-26.89,57.17-7.28,72.77-19.82,84.26,9.14,17.56-1.95,47.55-.51,28.57,13.15,7.43,18.36Z"/>
  <path class="cls-13" d="m394.47,349.68s-3.43-3.27-7.12-7.43c-4.5-5.06-9.38-11.42-8.96-14.78.77-6.13,8.03-10.72,8.03-10.72l15.71-19.15s11.23-5.11,13.53-6.38,8.94-5.11,11.23-5.36c2.3-.26,20.17-4.34,21.45-5.11s6.13-1.28,7.4-1.28,4.34.77,5.11,0,16.6,0,16.6,0c0,0,2.55.77,1.53,2.04-1.02,1.28,6.89,1.02,7.66,1.79s1.79,3.57,0,5.87c-1.79,2.3,3.83,2.3-.26,5.62s-5.11,4.34-8.94,5.87c-3.83,1.53-8.17,4.6-8.17,4.6,0,0,.26,3.83-3.83,5.11s-22.21,9.19-23.74,10.21c-1.53,1.02-4.85,3.83-4.85,3.83,0,0,0,7.15-7.91,12.51s-11.74,7.66-14.81,9.96c-3.06,2.3-6.38,4.09-8.43,4.6s-9.7,0-9.7,0"/>
  <path class="cls-13" d="m805.11,282.87s-2.04-16.34,1.36-17.36c3.4-1.02,11.91.34,33.36,12.26,21.45,11.91,29.62,14.98,40.17,16.68,10.55,1.7,15.32,1.36,17.02,0,1.7-1.36,5.45-16.68,5.45-16.68,0,0,2.72-5.59,2.72,2.65s-2.38,23.56,0,26.28c2.38,2.72-4.77,2.04-12.26,2.04s-25.87-2.72-32.34,3.4c-6.47,6.13-15.32,16.68-15.32,16.68,0,0-2.04-11.91-12.26-20.77-10.21-8.85-20.43-13.28-20.09-14.64.34-1.36-7.83-10.55-7.83-10.55Z"/>
  <path class="cls-13" d="m866.3,552.66l35.23-19.15,16.85-13.02,41.36-30.64,33.7-31.4v-9.96l6.13-17.62s22.98-6.89,32.94,0c9.96,6.89,24.51,9.63,24.51,9.63,0,0-7.66,47.05-9.96,49.73-2.3,2.68-75.06,52.47-102.64,62.43-27.57,9.96-34.47,14.55-34.47,14.55l-30.64,16.09s-10.72,16.09-20.68,23.74c-9.96,7.66-13.02,9.79-15.06,9.79s-5.11-2.04-5.45-3.74c-.34-1.7.51-3.4-2.47-5.45-2.98-2.04-6.72-4.77-6.72-4.77,0,0-2.38-3.06-2.72-5.11s-.68-2.38-1.7-4.77-3.06-5.79-3.06-5.79c0,0-4.77-4.09-5.11-5.11s0,.34-2.04-3.4c-2.04-3.74-1.36-20.77,0-24.17s3.06-6.13,5.45-6.81,6.13-1.02,7.49-2.38,3.4-4.09,5.11-4.77,5.79-4.43,11.23-.68c5.45,3.74,7.15,7.15,10.55,8.51s12.17,4.26,12.17,4.26Z"/>
  <path class="cls-13" d="m1077.45,459.72l-28.53,24.6-2.61,12.68s31.66,34.72,40.34,39.83,17.36,10.21,27.06,11.23c9.7,1.02,18.38,3.06,19.91,7.66,1.53,4.6,5.11,11.23,10.72,17.87,5.62,6.64,10.72,18.38,10.72,18.38,0,0,3.06,2.55,6.64,0s7.15-15.32,7.15-19.91-1.53-29.62,0-37.28c1.53-7.66-.51-17.87-4.09-28.6-3.57-10.72-7.66-16.85-11.74-25.53-4.09-8.68-5.62-12.26-5.62-12.26l-9.19,2.55s4.6,2.55,0,18.38c-4.6,15.83,1.53,20.94,1.53,20.94,0,0-1.53,0-4.09.51-2.55.51-10.21-15.32-19.4-19.4-9.19-4.09-29.11-15.32-31.66-18.38-2.55-3.06-7.15-13.28-7.15-13.28Z"/>
  <path class="cls-13" d="m1077.45,250.87s8.85,19.91,5.28,25.02c-3.57,5.11-2.55,5.11-10.72,6.64-8.17,1.53-22.64,1.19-26.89,1.53-4.26.34-10.21,4.09-12.94,5.11-2.72,1.02-3.91.85-6.64,1.02-2.72.17-2.38.51-4.94,0-2.55-.51-10.38-2.21-10.55-5.28-.17-3.06-.85-4.6,0-8.34.85-3.74.85-4.6,2.89-8,2.04-3.4,1.53-3.4,4.26-8,2.72-4.6.51-4.94,3.91-6.64,3.4-1.7,4.94-2.72,10.72-3.06,5.79-.34,11.06,1.36,18.04,0,6.98-1.36,8.68-1.36,11.74-2.72,3.06-1.36,3.06-5.45,6.98-2.55,3.91,2.89,2.04,4.26,5.45,4.77l3.4.51Z"/>
  <path class="cls-13" d="m280.51,242.7l-3.74,31.32s39.49,21.11,46.3,26.89c6.81,5.79,13.96,7.49,13.96,7.49l29.62-12.26s14.64-7.83,19.4-8.85c4.77-1.02,16-4.43,16-4.43v-5.11s-3.4-2.72,0-2.21c3.4.51,2.04,4.26,3.4.51,1.36-3.74,3.06-9.62,3.06-9.92v-13.23l-3.4-3.4s-1.02-5.79-1.02-9.53.68-14.3.68-14.3c0,0-25.53-4.43-28.6-6.13-3.06-1.7-4.09-.68-9.19,1.36s-39.83,7.45-50.72,10.02c-10.89,2.58-23.83,2.92-23.83,2.92l-10.21-2.92-1.7,11.77Z"/>
  <path class="cls-13" d="m240,279.13l-15.66-5.45,4.43-17.7v-16c0-4.43,6.13-13.62,8.51-13.96,2.38-.34,4.09,0,4.09,0,0,0,2.04-3.58,3.4-3.49,1.36.09,4.09-4.69,5.11-3.83,1.02.86,10.97-.86,12.98,0,2,.86,15.28,0,15.28,0,0,0-.68,4.94,0,10.73.68,5.79.68,9.19,0,16-.68,6.81-.34,13.88-1.36,17.32-1.02,3.44-1.02,7.87-5.11,7.53-4.09-.34-9.87-2.13-16-4.13-6.13-2-8.51-6.94-10.21-2.6s-2.04,13.88-2.04,13.88l-3.4,1.7Z"/>
  <path class="cls-13" d="m132.77,344.83s-22.47-10.72-21.45-23.49c1.02-12.77,10.69-21.45,10.71-22.47s16.87-5.62,28.61-5.62h37.28s17.02,1.87,14.98,5.28-4.43,8.17-4.43,8.17c0,0-4.77,5.84-6.81,8.71-2.04,2.87-2.38,5.93-4.43,7.29s2.04,2.38-4.09,1.7c-6.13-.68-9.87,1.7-10.89-2.38-1.02-4.09-1.36-7.66-9.19-2.98-7.83,4.68-30.3,25.79-30.3,25.79Z"/>
  <path class="cls-13" d="m113.36,390.79s39.49-14.64,45.28-21.11c5.79-6.47,26.89-20.43,28.26-24.85s9.87-29.28,10.89-30.98c1.02-1.7,32.68-16,32.68-16,0,0,21.45-7.49,26.21-4.6,4.77,2.89,7.15,6.64,5.79,6.98-1.36.34.42.68.38,3.06-.04,2.38-4.47,6.47-5.49,6.47s5.11-.62-1.36,5.65c-6.47,6.27-10.55,10.01-14.64,12.4-4.09,2.38-5.45,1.7-7.15,6.47-1.7,4.77,1.36,1.7-4.09,8.85-5.45,7.15-19.4,26.21-21.79,28.6-2.38,2.38-4.77,4.43-8.17,6.13s-30.64,21.11-39.83,38.13c-9.19,17.02-14.64,25.19-18.72,27.91s-28.26,4.77-28.26,4.77v-57.87Z"/>
  <path class="cls-13" d="m552.51,183.47s3.27,16.49,3.63,23.38c.36,6.89-.73,11.99,0,16.49.73,4.5-.73,7.19,4.72,13.19,5.45,5.99,26.16,27.43,29.06,28.55s9.08,2.63,11.99-2.92c2.91-5.55,7.63-10.05,9.45-13.94,1.82-3.9.73-13.49,1.82-15.29,1.09-1.8,3.63-2.7,4.72-4.2,1.09-1.5,5.81-18.28,5.81-21.88s1.96-5.54-.22-7.04c-2.18-1.5-13.95-4.35-13.95-4.35,0,0-5.81,0-9.08-1.8-3.27-1.8-3.39-.3-11.87-3.6-8.48-3.3-36.09-6.59-36.09-6.59Z"/>
  <path class="cls-13" d="m553,226.98c-6.47-9.81-12.22-.36-12.22-.36,0,0-19.05-1.82-23.36-1.82s-53.9,14.54-55.34,14.54-11.14-15.99-11.14-15.99l-3.23,8.72-3.95,27.62-1.55.24c.04.1.07.19.11.29l2.87-.35s17.52,3.27,19.13,3.82c1.39.47,11.5,2.34,19.62,4.58,1.35.37,2.64.75,3.83,1.14,8.35,2.73,6.2,9.54,7.28,13.54,1.08,4,2.7,6.63,8.35,9.63,5.66,3,8.09,4.91,12.94,8.18,4.85,3.27,12.94,5.45,13.74,6.81.81,1.36,6.2.82,8.62,0,2.43-.82,2.43-2.45,9.43-4.63,7.01-2.18,2.96-3.27,2.96-3.27,0,0,.81-12.36,1.89-14.54,1.08-2.18,2.87-11.27,3.59-17.01.72-5.74,6.47-16.42,6.47-24.06s-3.59-7.27-10.06-17.08Z"/>
  <g>
    <path class="cls-13" d="m831.83,453.09c-3.83-3.83-26.81-12.59-26.81-12.59,0,0,0,6.46-12.64,23.31-12.64,16.85-11.11,10.72-22.6,13.02-11.49,2.3-20.68,3.83-20.68,3.83l26.04,47.49,36.77-7.66s23.74-32.17,23.74-43.66,0-19.91-3.83-23.74Z"/>
    <path class="cls-13" d="m635.74,542.96c-21.96-4.08-25.53-4.6-34.72-6.64-9.19-2.04-14.3-2.04-14.3-2.04,0,0-1.02-4.09-4.09,0-3.06,4.09-4.6,2.04-5.11,7.15-.51,5.11-6.64,1.53,0,9.19,6.64,7.66-4.09,10.72,9.19,8.68,13.28-2.04,24-7.15,29.62-7.15s22.47-3.06,22.47-3.06c0,0,18.89-2.04-3.06-6.13Z"/>
  </g>
  <g>
    <path class="cls-6" d="m755.49,155.38c-12.51-16.85-37.53-13.28-49.79-13.28s-23.49,5.11-34.72,14.3c-11.23,9.19-10.21,49.53-10.21,49.53l-.02,5.25,5.57.37,4.66,7.14h5.62s16.85.52,18.38,0c1.53-.52,55.66-.5,60.51-4.59,4.85-4.08,8.51-5.78,9.45-8.17.94-2.39,5.11-16.34,4.6-22.98-.51-6.64-1.53-10.72-14.04-27.57Z"/>
    <path class="cls-6" d="m1068.94,156.4c-6.3-13.79-38.98-30.64-53.79-27.57-14.81,3.06-28.6,9.7-38.3,15.32-9.7,5.62-14.81,13.28-22.47,13.28h-35.21c.03-.3.06-.59.1-.9.13-1.19.26-2.43.39-3.7,1.53-14.3-3.06-23.49-22.98-37.79-19.92-14.3-59.23-5.62-68.94,3.57-9.7,9.19-18.89,35.23-18.89,35.23l-4.35,13.51,12.52,5.86s34.72-18.36,38.06-18.87c3.33-.51,5.35,2.55,7.14,8.17,1.79,5.62,7.91,15.32,9.44,17.82,1.53,2.51,32.68,5.15,38.3,5.15s7.18-8.57,7.18-8.57c0,0,.45-4.52,1.22-11.88,2.28,7.51,5.62,18.18,6.91,20.44,2.04,3.57,5.62,5.99,5.62,5.99h-3.32c8.94,6.78,26.81,12.85,26.81,12.85,0,0,63.32-13.73,69.45-10.67,6.13,3.06,26.04,18.32,33.19,25.24,7.15,6.93,11.23,12.03,17.87,2.84,6.64-9.19,8.68-25.3,11.23-30.27s-10.89-21.31-17.19-35.09Z"/>
    <path class="cls-6" d="m958.34,218.92c.38-13.56-7.53-3.8-7.53-3.8l-12.77,6.64-5.11,9.17s-7.15,6.15-10.55,8.7c-3.4,2.55-6.3,18.38-6.3,21.96,0,2.35-6.19,1.61-10.43.82-2.2-.41-3.87-.82-3.87-.82l3.87,9.38c.3,4.78,4.81,4.41,10.43,10.03,5.62,5.62,4.6,1.02,24.51,0,19.91-1.02,6.13-1.53,17.74-5.1,11.62-3.57,4.72-6.64,7.28-12.71,2.55-6.07-5.11-10.78-7.26-15.89-2.16-5.11-.4-14.81-.01-28.37Z"/>
    <path class="cls-6" d="m618.38,195.72c-.51-2.04-3.57-14.3-12.26-35.74-8.68-21.45-29.62-18.89-51.57-18.19-21.96.7-21.45,18.7-21.45,18.7,0,0-3.57-3.06-19.4-2.04-15.83,1.02-36.77,12.77-39.83,14.78-3.06,2.01-11.74,13.3-13.79,18.27s-2.55,20.23-2.55,20.23c0,0,18.38,2.38,30.38,3.4,11.99,1.02,12.52,1.53,20.18,3.32,7.66,1.79,13.28.48,13.28.48,0,0,9.7-.73,11.74-.48,2.04.25,9.7-1.79,14.81,0,5.01,1.75,11,10.14,17.5,18.9-.84-.11-1.63-.2-2.35-.26-9.28-.76-19.23,26.47-19.23,26.47l-17.62,18.73s20.68,18.38,33.7,22.98c13.02,4.6,26.04,1.7,35.23,3.15,9.19,1.45,13.18,13.46,20.68,0,7.5-13.46,10.6-11.29,10.66-17.94.06-6.65,0-16.23,0-16.23,0,0-6.07-6.12-9.13-9-3.06-2.87-11.57-19.28-18.04-20.65-3.44-.73-10.85-2.59-18.43-4.28-1.43-2.88-3.12-6.37-4.38-10.62-3.32-11.23,0-14.04-5.11-25.33-5.11-11.29-11.23-12.85-11.23-12.85,0,0,16.85,3.2,22.47,5.66,5.62,2.45,21.45,8.78,31.4,8.78s0,0,9.96-3.32c9.96-3.32-5.11-4.85-5.62-6.89Z"/>
    <path class="cls-6" d="m398.3,180.36c-4.6-9.24-17.36-18.34-29.62-23.95-12.26-5.62-51.57-2.55-58.21,0-3.25,1.25-6.14,4.72-9.43,10.36-1.55.1-3.33.21-5.38.34-15.83.99-27.06-2.02-44.17,0-17.11,2.02-24.26,19.43-30.89,37.25-6.64,17.82,8.17,38.35,8.17,38.35,0,0,8.68-8.17,16.34-12.38,7.66-4.21,22.47-11.25,33.53-19.28.97-.7,2.03-1.46,3.15-2.27-3.58,12.21-3.66,20.65-3.66,20.65,0,0,7.83,6.13,20.6,7.66,12.77,1.53,70.57-17.13,70.57-17.13,0,0,6.88-.4,18.67,2.57,11.79,2.97,35.36,3.83,45.17-3.6,9.81-7.44,17.25-14.58,17.25-14.58l-41.87-8.62s-5.62-6.13-10.21-15.37Z"/>
  </g>
  <path class="cls-13" d="m818.72,167.47l2.38,13.96s-12.26,1.02-12.26,5.11,3.74,13.28,4.09,14.3,9.19-.68,11.57-1.36c2.38-.68,30.3-6.47,39.83-2.72,9.53,3.74,34.38,19.06,34.72,25.53.34,6.47-1.02,13.28,1.7,10.21,2.72-3.06,11.23-9.87,11.23-9.87,0,0-3.06-7.49,0-10.89,3.06-3.4,6.81-8.51,7.15-9.87.34-1.36,2.04-5.11,2.72-7.83.68-2.72,1.36-17.36-2.72-17.36s-4.09,3.06-8.85-.34c-4.77-3.4,1.36-5.11-6.13-4.77-7.49.34-13.96,2.72-19.06.34-5.11-2.38-17.7-22.81-35.06-22.13-17.36.68-33.36,17.36-33.36,17.36"/>
  <path class="cls-13" d="m946.04,201.51v13.96l-5.45,9.87,5.45,4.43s4.77-6.13,3.06,1.36c-1.7,7.49-.63,11.57.37,11.91.99.34,2.7-3.39,2.02,1.54s.65,3.57.16,7.65c-.5,4.09,3.67,15.66,6.69,19.06s7.79,6.47,12.21,6.47,16.34-4.15,23.15-10.24c6.81-6.1,13.96-12.9,26.21-17.67,12.26-4.77,49.02-12.6,49.02-12.6v-11.57c0-3.06-4.09-8.17-8.17-11.23-4.09-3.06,1.36,0-5.79-4.43-7.15-4.43-13.96-5.79-16.68-11.57-2.72-5.79-3.74-17.7-5.79-20.09s-16-8.17-19.74-2.72c-3.74,5.45-12.94,3.06-17.02,1.7-4.09-1.36-14.64-4.87-19.74-3.97s-12.17.56-17.66,3.29-10.26,12.6-10.26,12.6l-1.7,9.87"/>
  <path class="cls-13" d="m655.17,205.94s-4.62,17.36,3.55,34.72c8.17,17.36,9.7,15.83,13.28,10.21,3.57-5.62,9.19,0,5.62-10.72-3.57-10.72-7.51-17.36-10.14-21.45-2.63-4.09-12.31-12.77-12.31-12.77Z"/>
  <path class="cls-13" d="m757.28,216.66l-19.4,27.92,11.23,26.39s4.6-9.38,5.62-13.46,3.06-11.05,4.6-12.93,2.55-.86,4.6-6.73c2.04-5.87,9.19-19.66,9.19-23.23s-3.06-8.68-3.06-8.68c0,0-4.6-3.57-5.11,0s-7.66,10.72-7.66,10.72Z"/>
  <path class="cls-1" d="m624.68,471.47l-42.04,62.81s69.96,7.66,77.62,16.09c7.66,8.43,8.43,25.28,26.04,25.28s26.81,3.83,35.23,0l8.43-3.83s3.57-.77,7.91-1.53,9.7-3.06,11.23-5.36c1.53-2.3,9.96-3.87,15.32-5l5.36-1.13s2.81-1.53,3.32-7.66c.51-6.13,10.98-9.96,0-9.96h-35.23l35.23-3.83v-4.88s10.25-7.61,4.99-8.06c-5.25-.45-4.99-12.34-4.99-12.34h-17.62s6.32-8.25,2.2-15.75c-1.03-1.88-2.78-4.37-4.83-7.05-7.34-9.59-21.12-11.36-30.69-3.99-7.56,5.83-16.64,11.59-24.38,13-16.85,3.06-23.09-3.06-30.31-10.72s-42.8-16.09-42.8-16.09Z"/>
  <path class="cls-1" d="m127.15,489.09s-9.19,15.32-9.19,21.45-1.53,8.26,0,11.79c1.53,3.53,7.66,16.55,9.19,18.85,1.53,2.3,16.85,12.26,25.28,13.02s10.72,2.3,20.68-3.83c9.96-6.13,19.15-12.26,19.15-12.26,0,0,15.49-4.4,10.81-5.65-4.68-1.25-33.02-2.01-36.09-18.87-3.06-16.85-9.19-19.15-3.06-24.51s12.26-4.76,12.26-4.76l11.94-9.79-11.17-9.96-19.76-7.66s-26.96,22.65-28.49,27.41"/>
  <polygon points="672.31 803.62 674.81 707.38 677.31 803.62 672.31 803.62 672.31 803.62"/>
  <polygon points="375.86 803.62 378.36 707.38 380.86 803.62 375.86 803.62 375.86 803.62"/>
  <polygon points="918.95 803.62 921.45 728.83 923.95 803.62 918.95 803.62 918.95 803.62"/>
  <path d="m817.84,149.29c13.72-5.61,31.5-11.74,46.34-8.63,6.51,1.93,16.1,5.25,22.65,7.33,0,0,22.62,7.39,22.62,7.39l-22.69-7.15c-6.59-2.01-16.17-5.22-22.7-7.08-14.71-2.91-32.29,3.36-45.81,9.05,0,0-.41-.91-.41-.91h0Z"/>
  <path class="cls-4" d="m113.32,589.95c10.96-3.38,22.13-5.95,33.34-8.27,0,0,.29-.06.29-.06l.33.03c2.99.45,13.28.63,12.5,5.24-.14.77-.64,1.43-1.28,1.86-.03.02-.13.09-.11.08.06-.04.12-.08.17-.13,1.17-1.03.62-3.06-.67-3.42,14.85.65,29.95-.12,44.66-2.45,2.44-.33,4.3-1.26,6.42-2.44,2.34-1.34,5.59-1.34,8.04-.83,4.88.84,9.32,2.87,14.03,4.16,6.09,1.76,12.21,2.73,18.54,3.33.74.11,1.99.16,2.82.52,1.27.53,2.12,1.88,1.66,3.43.03-.08.12-.44.12-.67.08-1.13-.83-2.24-1.6-2.47-.16-.07-.34-.11-.51-.13-.02,0,0,0,.02,0,.07,0,.23,0,.4-.01,3.69-.35,7.6-.64,11.32,0,3.22.42,11.03,1.36,14.3,1.75,6.28.77,13.13,1.67,19.09,2.59,3.06.23,6.13.48,9.19.81v.5c-3.09.32-6.18.59-9.27.8-11.34-.08-22.62-.4-33.93-1.35-3.73-.52-7.39.07-11.17.28-.44,0-.95-.06-1.39-.23-1.25-.4-2.2-2.03-1.7-3.48-.3.87,0,1.88.41,2.35.31.4.78.74,1.14.83-.06-.02-.23-.05-.39-.07l-1.12-.15c-6.48-.74-13.09-2.13-19.3-4.24-4.7-1.5-8.85-3.74-13.43-5.07-2.21-.64-4.07-.94-6.14-.11-2.21.99-4.88,1.84-7.3,1.95-12.96.77-25.64,2.67-38.51,4.35-2.32.21-4.68.53-7.08.3-.92-.13-1.87-.56-2.22-1.61-.32-.83-.03-1.83.55-2.39,0,0,.14-.12.14-.12.09-.08.19-.16.29-.23.06-.05,0,0,.01-.01-.03.01-.05.03-.07.05-.65.57-.65,1.74-.09,2.37.03.04.15.14.15.15,0,0-.1-.05-.1-.05l-.16-.07c-2.75-.88-5.96-1.27-8.85-1.66,0,0,.62-.03.62-.03-2.81.51-5.64.96-8.46,1.39-8.49,1.32-17.01,2.47-25.6,3.1,0,0-.09-.49-.09-.49h0Z"/>
  <path class="cls-4" d="m329.36,593.11l49-15.77,14.39-7.32,4.02-2.04h13.28s32.17,15.32,34.21,15.32,25.53-2.45,25.53-2.45l9.19-3.5s29.11,17.19,33.7,24.34c4.6,7.15,7.66,17.87,7.66,17.87,0,0-5.11-4.09-7.66-6.64-2.55-2.55-14.3-16.85-19.4-19.15-5.11-2.3-12.77-6.79-12.77-6.79,0,0-6.64-.4-13.28,0-6.64.4-19.4-.92-21.96,0-2.55.92.51,7.26-12.26,0-12.77-7.26-24-11.85-24-11.85,0,0-32.68,7.36-46.98,11.85-14.3,4.49-32.68,6.13-32.68,6.13Z"/>
  <polygon class="cls-4" points="898.23 409.85 914.44 420.29 914.82 420.53 914.78 420.97 910.6 466.37 910.59 466.44 910.54 466.47 902.01 471.47 910.4 466.25 910.34 466.35 913.3 420.86 913.65 421.54 897.17 411.55 898.23 409.85 898.23 409.85"/>
  <path d="m568.34,448.66s-5.7-15.23-7.83-37.96c-2.13-22.72-.6-29.62-.6-29.62,0,0,9.7-.77,14.04,18.38,4.34,19.15,15.06,63.57,15.83,65.87.77,2.3-21.45-16.68-21.45-16.68Z"/>
  <path d="m1094.55,283.74s1.48-15.34,0-20.99c-1.48-5.65-16.09-18.17-16.09-18.17,0,0-4.26,7.85,0,19.58,4.26,11.73-2.3,13.38,1.53,19.58,3.83,6.2,12.26,6.45,12.26,6.45l2.3-6.45Z"/>
  <path d="m314.04,611.64c-.74,24.79-.49,49.7,2.55,74.33,1.08,8.15,2.47,16.34,4.99,24.16,1.08,3.4,3.26,8.13,4.64,11.47,4.43,11.66,7.37,23.85,9.93,36.03,3.29,16.28,5.82,32.67,7.71,49.18l-2.99.29c-2.84-26.6-6.46-53.41-14.23-79.07-1.07-3.4-2.9-8.21-4.32-11.54-2.48-5.76-3.94-11.92-5.06-18.06-4.79-28.63-4.4-57.89-3.23-86.79h0Z"/>
  <path d="m794.5,611.64c-.47,56.53-2.16,136.27-1.11,191.97,0,0-2,.01-2,.01-.47-55.44,2.06-135.78,3.11-191.99h0Z"/>
  <path d="m969.47,800.99c4.28-21.18,8.59-42.35,13.03-63.5,4.4-21.14,10.06-42.01,11.8-63.62,0,0,.04-.39.04-.39h.38s5.62.03,5.62.03l-.34.2c2.01-3.88,4.8-8.32,4.61-12.77-2.71-7.91-7.72-14.97-9.94-23.09-.26-.92-.25-1.9-.07-2.84-.24-7.64-2.39-17.27-3.54-24.89-.97-6.39-3.02-15.74-3.31-22.15.34,6.37,2.48,15.7,3.5,22.11,1.23,7.71,3.47,17.22,3.77,24.95-.15.92-.18,1.8.09,2.71,1.53,5.36,4.34,10.28,6.75,15.31,1.4,3.35,4.27,6.9,3.26,10.67-.9,3.7-2.6,7.07-4.42,10.38,0,0-.11.2-.11.2h-.23s-5.62.03-5.62.03l.42-.38c-1.04,10.78-2.34,21.52-4.49,32.14-2.48,10.53-4.61,21.09-6.75,31.69-4.25,21.18-8.38,42.38-12.46,63.6l-1.96-.39h0Z"/>
  <path d="m809.35,526.42c0,.06-.05,10.42-.05,10.47,0-.02-3.12,12.75-3.12,12.75-2.3,8.45-3.67,16.97-4.71,25.67-.46,2.15-1.08,4.21-1.34,6.39-2.94,19.37-5.38,38.87-7.92,58.29,2.37-19.44,4.64-38.97,7.42-58.37.23-2.18.84-4.29,1.28-6.4.6-4.29.98-8.66,1.73-12.96,1.28-7.51,4.08-18,5.76-25.52-.02.48-.05-10.39-.06-10.31,0,0,1,0,1,0h0Z"/>
  <path d="m674.9,282.74s68.99,7.24,68.49,7.3c0,0,12.09-7.77,12.09-7.77l-11.9,8.06-.05.03h-.06s-68.76-5.63-68.76-5.63l.19-1.99h0Z"/>
  <path class="cls-3" d="m1160.96,611.64s18.63,44.61,8.41,82.94c-10.22,38.33-39.8,100.23-39.8,100.23"/>
  <path d="m1005.01,593.11s55.41-17.13,63.93-15.77c8.51,1.36,43.23-4.77,43.23-4.77l-53.58,10.62-53.58,9.91Z"/>
  <path d="m145,616.77c1.69,23.1,6.13,46.11,13.49,68.09,7.39,22.05,15.67,43.82,24.5,65.33.11.12-10.4,32.62-10.39,32.76,0,0,10.02-32.74,10.02-32.74-4.42-10-8.96-21.57-13.16-32.21-10.67-27.09-20.57-54.71-24.46-83.71-.85-5.78-1.57-11.56-2-17.42,0,0,2-.11,2-.11h0Z"/>
  <polygon points="214.47 520.35 289.53 488.83 322.72 440.5 302.3 456.91 289.53 482.13 214.47 520.35"/>
  <polyline class="cls-3" points="238.98 370.63 238.98 423.31 209.87 456.91"/>
  <line class="cls-3" x1="329.36" y1="418.36" x2="391.4" y2="366.28"/>
  <path d="m813.01,381.08c-.08,3.24.19,6.54-.48,9.68,0,0-.39,1.87-.39,1.87-.49,2.33-3.35,16.1-3.9,18.75-1.43,6.92-4.06,19.45-5.44,26.26,0,0-1.4,3.62-1.4,3.62l-.98-1.05c1.53.07,3.07.16,4.6.29-1.79.64-3.61,1.22-5.41,1.79l.06-1.38.16-3.88.8-3.75c.99-4.74,3.66-17.59,4.68-22.5.56-2.7,3.4-16.33,3.9-18.75l.39-1.88c.64-3.15,2.2-6.07,3.42-9.07h0Z"/>
  <polyline class="cls-3" points="487.91 413.77 505.82 500.06 563.06 532.46"/>
  <path class="cls-3" d="m550.47,616.83s-16.76,78.3-12.97,96.68c3.78,18.38,6.21,69.45,6.21,69.45"/>
  <path class="cls-11" d="m688.57,411.13c0,36-12.1,55.87-33.35,55.87-18.74,0-31.43-19.38-31.73-54.4,0-35.51,13.87-55.06,33.35-55.06s31.73,19.87,31.73,53.59Zm-52.09,1.63c0,27.53,7.67,43.17,19.48,43.17,13.28,0,19.63-17.1,19.63-44.14s-6.05-43.17-19.48-43.17c-11.36,0-19.63,15.31-19.63,44.14Z"/>
  <path class="cls-2" d="m762.79,359.33v9.45l-41.76,96.43h-13.43l41.61-93.66v-.33h-46.93v-11.89h60.5Z"/>
  <path class="cls-10" d="m909.72,444.82c.4,26.54-9.3,45.01-26.72,51.7-15.36,5.9-25.98-4.4-26.61-30.13-.39-26.18,10.76-44.96,26.73-51.1,16.57-6.37,26.23,4.66,26.6,29.53Zm-42.69,17.6c.3,20.3,6.77,29.41,16.45,25.69,10.89-4.18,15.9-18.79,15.6-38.73-.29-19.22-5.44-29.92-16.45-25.69-9.31,3.58-15.92,17.47-15.6,38.73Z"/>
  <path class="cls-12" d="m966.01,393.73l-30,11.52-2.72,21.22c1.81-.94,3.5-1.83,6.4-2.94,6.05-2.32,12.12-3.33,17-2.3,6.22,1.11,11.4,5.89,11.55,15.74.23,15.25-11.82,31.36-28.88,37.91-8.59,3.3-15.88,3.68-19.67,2.72l2.54-9.07c3.3.67,9.74.61,16.88-2.13,10.04-3.86,18.53-13.64,18.38-24.09-.27-10.04-7.15-14.65-22.88-8.61-4.48,1.72-7.98,3.55-10.87,5.02l4.52-39.42,37.62-14.45.13,8.89Z"/>
  <path class="cls-7" d="m1085.48,380.83c0,28.26-8.81,45.2-24.27,47.57-13.64,2.09-22.87-11.71-23.09-39.17,0-27.87,10.09-44.76,24.27-46.93,14.71-2.25,23.09,12.06,23.09,38.53Zm-37.91,7.08c0,21.61,5.58,33.03,14.18,31.71,9.67-1.48,14.28-15.61,14.28-36.84s-4.4-33.21-14.18-31.71c-8.27,1.27-14.28,14.21-14.28,36.84Z"/>
  <path class="cls-5" d="m1093.32,400.98c0-10.48,5.26-18.71,13.85-24.37l-.11-.37c-7.73-3.16-11.06-9.81-11.06-16.97,0-13.17,9.34-23.55,21.59-25.42,13.53-2.07,20.3,6.99,20.3,17.35,0,7.03-2.9,15.02-11.49,21.19v.38c8.7,2.76,14.07,9.23,14.07,19.33,0,14.45-10.42,25.76-23.73,27.8-14.6,2.24-23.41-6.77-23.41-18.92Zm37.59-6.27c0-10.1-5.91-14.06-15.36-15.81-8.16,4.06-12.56,11.13-12.56,19.06-.32,8.49,5.05,15.08,13.96,13.72,8.48-1.3,13.96-8.4,13.96-16.97Zm-25.99-37.58c0,8.31,5.26,11.98,13.32,13.31,6.01-3.35,10.63-9.17,10.63-16.71,0-6.65-3.33-13.04-11.81-11.75-7.84,1.2-12.13,8-12.13,15.15Z"/>
  <path class="cls-9" d="m403.94,451.85c0,36-10.42,55.87-28.71,55.87-16.13,0-27.06-19.38-27.32-54.4,0-35.51,11.94-55.06,28.71-55.06s27.31,19.87,27.31,53.59Zm-44.85,1.63c0,27.53,6.61,43.17,16.77,43.17,11.43,0,16.9-17.1,16.9-44.14s-5.21-43.17-16.77-43.17c-9.78,0-16.9,15.31-16.9,44.14Z"/>
  <path class="cls-15" d="m416.9,489.48c3.18,2.61,10.54,6.68,18.29,6.68,14.36,0,18.8-11.73,18.67-20.52-.13-14.82-10.54-21.18-21.34-21.18h-6.23v-10.75h6.23c8.13,0,18.42-5.38,18.42-17.92,0-8.47-4.19-15.96-14.48-15.96-6.61,0-12.96,3.75-16.52,7l-2.92-10.42c4.32-4.07,12.71-8.14,21.6-8.14,16.26,0,23.63,12.38,23.63,25.25,0,10.91-5.08,20.2-15.25,24.92v.33c10.16,2.61,18.42,12.38,18.42,27.2,0,16.94-10.29,31.76-30.11,31.76-9.27,0-17.41-3.75-21.47-7.17l3.05-11.08Z"/>
</svg>