<svg width="180" height="163" viewBox="0 0 180 163" fill="none" xmlns="http://www.w3.org/2000/svg">
<path d="M0 120.888V126.713H6.53032H13.0606V144.855V162.996H19.1012H25.1417L25.207 144.921L25.305 126.88L31.77 126.78L38.2024 126.713V120.888V115.063H19.1012H0V120.888Z" fill="white"/>
<path d="M53.2236 139.033V163H59.2642H65.3047V139.033V115.067H59.2642H53.2236V139.033Z" fill="white"/>
<path d="M97.3762 116.798C95.2865 122.523 81.181 161.935 81.0504 162.401C80.9198 162.967 81.3769 163 87.091 163H93.2621L94.5682 158.739L95.8416 154.512H103.319H110.796L112.167 158.673L113.539 162.834L119.612 162.933C122.975 162.967 125.718 162.9 125.718 162.767C125.718 162.601 121.996 151.849 117.424 138.867L109.163 115.233L103.613 115.133L98.0293 115.067L97.3762 116.798ZM107.759 143.427C107.759 143.594 105.8 143.693 103.384 143.693H98.9762L101.099 137.269C102.241 133.774 103.286 130.645 103.384 130.379C103.515 129.979 107.759 142.562 107.759 143.427Z" fill="white"/>
<path d="M141.373 139V163H147.414H153.454V155.178V147.322L155.805 147.422L158.123 147.521L162.139 155.178L166.123 162.834L173.045 162.933L180 163L179.51 162.268C178.89 161.236 170.106 145.924 170.009 145.657C169.976 145.524 170.89 144.792 172.066 143.96C174.645 142.162 176.669 139.266 177.649 136.004C178.661 132.609 178.433 127.416 177.192 124.587C175.2 120.193 172.261 117.497 167.854 115.999C165.829 115.333 164.948 115.266 153.552 115.133L141.373 115V139ZM164.164 127.216C166.384 129.114 166.711 132.709 164.85 134.872C163.543 136.37 162.27 136.703 157.47 136.703H153.454V131.544V126.384H158.319C163.054 126.384 163.217 126.417 164.164 127.216Z" fill="white"/>
<path d="M76.3135 59.2519C76.3135 65.6796 81.4297 70.8906 87.7406 70.8906C94.0518 70.8906 99.1684 65.6796 99.1684 59.2519C99.1684 52.8242 94.0518 47.614 87.7406 47.614C81.4297 47.614 76.3135 52.8242 76.3135 59.2519Z" fill="url(#paint0_linear_96_2857)"/>
<path d="M79.3274 12.5181C76.878 16.237 73.3039 19.0036 69.8803 21.8136C64.0902 26.5647 58.4995 31.69 54.2093 37.8744C49.9189 44.0587 46.9783 51.4172 47.0001 58.9892C47.0261 67.8749 51.1676 76.4165 57.1725 82.8624C66.3544 92.7177 80.0546 98.0117 93.3446 96.8391C106.635 95.6665 119.237 88.0522 126.618 76.7357C128.946 73.1655 130.74 69.2505 131.975 65.1578C134.657 56.2758 134.713 46.5563 131.912 37.705C131.812 41.4638 129.533 45.1657 126.11 46.5763C123.579 47.6199 120.513 47.2886 118.292 45.6633C110.742 40.1377 118.698 29.5414 115.039 22.4289C111.921 16.3698 103.135 16.6207 98.0222 12.1843C95.0442 9.60065 93.5491 5.35889 94.2337 1.4363C90.4437 6.77859 89.5353 13.8643 90.7663 20.335C91.9977 26.8057 95.1861 32.737 98.965 38.0872C102.721 43.4045 107.262 48.6427 108.1 55.1368C108.673 59.5785 107.374 64.1338 105.071 67.9504C101.835 73.3108 96.4912 77.4152 90.4322 78.6451C83.1341 80.1267 75.2006 77.2122 70.3044 71.5055C65.4075 65.7984 63.6216 57.5597 65.4357 50.2099C67.7421 40.8662 75.0569 33.8465 80.5002 25.967C83.2604 21.972 85.6294 17.5182 86.1543 12.6627C86.5603 8.91211 85.4456 1.45404 81.3037 0C81.9909 4.64319 82.059 8.37108 79.3274 12.5181Z" fill="url(#paint1_linear_96_2857)"/>
<defs>
<linearGradient id="paint0_linear_96_2857" x1="87.7409" y1="86.6035" x2="87.7409" y2="55.2418" gradientUnits="userSpaceOnUse">
<stop stop-color="#E00A14"/>
<stop offset="0.999999" stop-color="#F97F4E"/>
<stop offset="1" stop-color="#F97F4E"/>
</linearGradient>
<linearGradient id="paint1_linear_96_2857" x1="90.5" y1="98.9325" x2="90.5" y2="47.1276" gradientUnits="userSpaceOnUse">
<stop stop-color="#E00A14"/>
<stop offset="0.999999" stop-color="#F97F4E"/>
<stop offset="1" stop-color="#F97F4E"/>
</linearGradient>
</defs>
</svg>
