<svg width="213" height="72" viewBox="0 0 213 72" fill="none" xmlns="http://www.w3.org/2000/svg">
<path d="M79.4556 21.343V25.6566H84.3005H89.1454V39.0905V52.5244H93.627H98.1085L98.1569 39.1398L98.2296 25.7798L103.026 25.7059L107.798 25.6566V21.343V17.0293H93.627H79.4556V21.343Z" fill="white"/>
<path d="M118.943 34.7818V52.5293H123.425H127.906V34.7818V17.0342H123.425H118.943V34.7818Z" fill="white"/>
<path d="M151.701 18.316C150.151 22.5557 139.686 51.7405 139.589 52.0856C139.492 52.5046 139.831 52.5293 144.07 52.5293H148.649L149.618 49.3742L150.563 46.2437H156.11H161.657L162.675 49.3249L163.692 52.4061L168.198 52.48C170.693 52.5046 172.728 52.4553 172.728 52.3568C172.728 52.2335 169.966 44.2718 166.575 34.6585L160.446 17.1575L156.328 17.0835L152.186 17.0342L151.701 18.316ZM159.405 38.0355C159.405 38.1587 157.951 38.2327 156.158 38.2327H152.888L154.463 33.4753C155.311 30.8872 156.086 28.5701 156.158 28.3729C156.255 28.0771 159.405 37.3946 159.405 38.0355Z" fill="white"/>
<path d="M184.342 34.7571V52.5293H188.824H193.305V46.7367V40.9194L195.05 40.9934L196.77 41.0673L199.749 46.7367L202.705 52.4061L207.84 52.48L213 52.5293L212.637 51.987C212.176 51.2229 205.66 39.8842 205.587 39.687C205.563 39.5884 206.241 39.0461 207.113 38.4299C209.027 37.0988 210.529 34.9543 211.256 32.5387C212.007 30.0244 211.837 26.1791 210.917 24.0839C209.439 20.8302 207.259 18.8336 203.988 17.7244C202.487 17.2314 201.832 17.1821 193.378 17.0835L184.342 16.9849V34.7571ZM201.251 26.0312C202.898 27.4362 203.141 30.0984 201.76 31.7006C200.791 32.8098 199.846 33.0563 196.285 33.0563H193.305V29.2356V25.415H196.915C200.427 25.415 200.549 25.4396 201.251 26.0312Z" fill="white"/>
<path d="M21.7148 43.854C21.7148 48.6114 25.505 52.4683 30.1801 52.4683C34.8555 52.4683 38.6459 48.6114 38.6459 43.854C38.6459 39.0966 34.8555 35.2403 30.1801 35.2403C25.505 35.2403 21.7148 39.0966 21.7148 43.854Z" fill="url(#paint0_linear_1811_8453)"/>
<path d="M23.9483 9.26519C22.1338 12.0177 19.4861 14.0653 16.9498 16.1451C12.6605 19.6616 8.51886 23.455 5.34072 28.0323C2.1623 32.6096 -0.0161016 38.0559 8.96513e-05 43.6602C0.0192996 50.2369 3.0874 56.5589 7.53587 61.3297C14.3378 68.6239 24.487 72.5422 34.3323 71.6744C44.1777 70.8065 53.5134 65.1709 58.9811 56.7951C60.7062 54.1526 62.0347 51.255 62.9502 48.2258C64.937 41.6519 64.9785 34.4582 62.9035 27.9069C62.8289 30.689 61.1409 33.4289 58.6054 34.473C56.7303 35.2453 54.4591 35.0002 52.8136 33.7972C47.2205 29.7075 53.1141 21.8648 50.4036 16.6005C48.094 12.116 41.5849 12.3016 37.7975 9.01807C35.5914 7.10584 34.4838 3.96635 34.991 1.0631C32.1833 5.01713 31.5104 10.2615 32.4223 15.0508C33.3345 19.84 35.6965 24.2299 38.4959 28.1898C41.2781 32.1254 44.6423 36.0024 45.263 40.8089C45.6879 44.0964 44.7252 47.4679 43.019 50.2927C40.6222 54.2602 36.6633 57.298 32.1748 58.2083C26.7683 59.3049 20.8911 57.1478 17.264 52.924C13.6364 48.6999 12.3134 42.6022 13.6572 37.1623C15.3658 30.2467 20.7847 25.0512 24.8171 19.2192C26.8619 16.2624 28.6168 12.966 29.0057 9.37215C29.3065 6.59623 28.4807 1.07623 25.4123 3.67697e-05C25.9214 3.43664 25.9719 6.19579 23.9483 9.26519" fill="url(#paint1_linear_1811_8453)"/>
<defs>
<linearGradient id="paint0_linear_1811_8453" x1="30.1804" y1="64.098" x2="30.1804" y2="40.8859" gradientUnits="userSpaceOnUse">
<stop stop-color="#E00A14"/>
<stop offset="0.999999" stop-color="#F97F4E"/>
<stop offset="1" stop-color="#F97F4E"/>
</linearGradient>
<linearGradient id="paint1_linear_1811_8453" x1="32.225" y1="73.2237" x2="32.225" y2="34.881" gradientUnits="userSpaceOnUse">
<stop stop-color="#E00A14"/>
<stop offset="0.999999" stop-color="#F97F4E"/>
<stop offset="1" stop-color="#F97F4E"/>
</linearGradient>
</defs>
</svg>
