<svg width="294" height="390" viewBox="0 0 294 390" fill="none" xmlns="http://www.w3.org/2000/svg">
<g opacity="0.2">
<path d="M42.6954 257.885C42.6954 285.861 64.9833 308.541 92.4756 308.541C119.969 308.541 142.259 285.861 142.259 257.885C142.259 229.909 119.969 207.232 92.4756 207.232C64.9833 207.232 42.6954 229.909 42.6954 257.885Z" fill="url(#paint0_linear_31_2536)"/>
<path d="M55.8284 54.4839C45.1581 70.6699 29.5884 82.7112 14.6739 94.9414C-10.5495 115.62 -34.9046 137.928 -53.5938 164.845C-72.2845 191.761 -85.0947 223.788 -84.9995 256.745C-84.8865 295.419 -66.8445 332.596 -40.6851 360.65C-0.68605 403.545 58.9963 426.586 116.892 421.483C174.788 416.379 229.687 383.239 261.84 333.985C271.984 318.446 279.797 301.406 285.18 283.593C296.864 244.935 297.108 202.632 284.906 164.107C284.467 180.467 274.54 196.579 259.631 202.719C248.604 207.261 235.248 205.819 225.572 198.745C192.682 174.695 227.339 128.576 211.4 97.6196C197.818 71.2479 159.541 72.3399 137.269 53.0308C124.296 41.7858 117.783 23.324 120.765 6.25131C104.255 29.5031 100.298 60.3429 105.66 88.5061C111.024 116.669 124.914 142.484 141.376 165.771C157.737 188.914 177.52 211.713 181.171 239.978C183.669 259.31 178.008 279.136 167.975 295.747C153.88 319.078 130.6 336.942 104.205 342.295C72.4116 348.744 37.8509 336.059 16.5216 311.221C-4.81087 286.381 -12.5909 250.523 -4.68822 218.534C5.35916 177.866 37.2248 147.314 60.9377 113.019C72.9619 95.6311 83.282 76.2464 85.5687 55.1129C87.3374 38.7891 82.4816 6.32852 64.438 -3.05176e-05C67.4315 20.209 67.7284 36.4343 55.8284 54.4839Z" fill="url(#paint1_linear_31_2536)"/>
</g>
<defs>
<linearGradient id="paint0_linear_31_2536" x1="92.4771" y1="376.93" x2="92.4771" y2="240.431" gradientUnits="userSpaceOnUse">
<stop stop-color="#E00A14"/>
<stop offset="0.999999" stop-color="#F97F4E"/>
<stop offset="1" stop-color="#F97F4E"/>
</linearGradient>
<linearGradient id="paint1_linear_31_2536" x1="104.5" y1="430.594" x2="104.5" y2="205.118" gradientUnits="userSpaceOnUse">
<stop stop-color="#E00A14"/>
<stop offset="0.999999" stop-color="#F97F4E"/>
<stop offset="1" stop-color="#F97F4E"/>
</linearGradient>
</defs>
</svg>
