<svg width="119" height="131" viewBox="0 0 119 131" fill="none" xmlns="http://www.w3.org/2000/svg">
<path d="M39.8979 79.894C39.8979 88.5614 46.8613 95.5881 55.4506 95.5881C64.0405 95.5881 71.0043 88.5614 71.0043 79.894C71.0043 71.2265 64.0405 64.2008 55.4506 64.2008C46.8613 64.2008 39.8979 71.2265 39.8979 79.894Z" fill="white"/>
<path d="M43.9986 16.88C40.6649 21.8946 35.8005 25.6252 31.1408 29.4143C23.2604 35.8209 15.6512 42.7322 9.81217 51.0714C3.97266 59.4107 -0.0295824 69.3332 0.000164711 79.5437C0.0354579 91.5255 5.67228 103.043 13.8452 111.735C26.342 125.025 44.9884 132.163 63.0766 130.582C81.1648 129.001 98.3168 118.734 108.362 103.474C111.532 98.6596 113.972 93.3804 115.654 87.8616C119.305 75.8848 119.381 62.7786 115.569 50.843C115.431 55.9116 112.33 60.9034 107.672 62.8056C104.227 64.2127 100.054 63.7661 97.0311 61.5744C86.7553 54.1234 97.5832 39.8349 92.6034 30.2441C88.3601 22.0737 76.4013 22.412 69.443 16.4297C65.3898 12.9459 63.3549 7.22611 64.2867 1.93672C59.1283 9.1405 57.892 18.6952 59.5674 27.4206C61.2434 36.146 65.5829 44.1439 70.7261 51.3584C75.8376 58.5286 82.0184 65.5919 83.1589 74.3489C83.9394 80.3383 82.1707 86.4809 79.0362 91.6273C74.6326 98.8555 67.3592 104.39 59.1127 106.049C49.1797 108.046 38.382 104.116 31.7181 96.4211C25.0533 88.7254 22.6226 77.616 25.0916 67.7053C28.2307 55.1058 38.1864 45.6401 45.5949 35.0151C49.3516 29.628 52.5759 23.6223 53.2903 17.0748C53.8429 12.0174 52.3258 1.96064 46.6885 -4.81409e-05C47.6237 6.26103 47.7165 11.2879 43.9986 16.88" fill="white"/>
</svg>
