<svg width="40" height="44" viewBox="0 0 40 44" fill="none" xmlns="http://www.w3.org/2000/svg">
<path d="M13.4775 26.8759C13.4775 29.7915 15.8298 32.1553 18.7314 32.1553C21.6331 32.1553 23.9856 29.7915 23.9856 26.8759C23.9856 23.9602 21.6331 21.5968 18.7314 21.5968C15.8298 21.5968 13.4775 23.9602 13.4775 26.8759Z" fill="url(#paint0_linear_0_1)"/>
<path d="M14.8634 5.67834C13.7372 7.36524 12.094 8.62019 10.5199 9.89482C7.85782 12.05 5.28736 14.3749 3.31489 17.1801C1.34225 19.9854 -0.00974907 23.3233 0.000299781 26.758C0.0122221 30.7886 1.9164 34.6632 4.67727 37.5871C8.89881 42.0575 15.1977 44.4589 21.3081 43.927C27.4185 43.3951 33.2126 39.9412 36.6061 34.808C37.6767 33.1885 38.5012 31.4126 39.0694 29.5561C40.3025 25.5272 40.3282 21.1183 39.0404 17.1033C38.9941 18.8083 37.9465 20.4875 36.3729 21.1274C35.2091 21.6008 33.7995 21.4505 32.7783 20.7133C29.307 18.2068 32.9648 13.4002 31.2825 10.1739C29.8491 7.42548 25.8093 7.53929 23.4587 5.52689C22.0895 4.35494 21.4021 2.43084 21.7169 0.651527C19.9744 3.07483 19.5567 6.28896 20.1227 9.22414C20.6888 12.1593 22.1548 14.8498 23.8922 17.2767C25.6189 19.6887 27.7069 22.0647 28.0921 25.0105C28.3558 27.0253 27.7583 29.0916 26.6994 30.8229C25.2118 33.2544 22.7548 35.1162 19.9691 35.6741C16.6136 36.3461 12.966 35.0241 10.7149 32.4355C8.46348 29.8467 7.64237 26.1096 8.47642 22.7756C9.53683 18.5373 12.9 15.3531 15.4026 11.7789C16.6717 9.9667 17.7609 7.94643 18.0022 5.74389C18.1889 4.04261 17.6764 0.659573 15.7721 7.62939e-06C16.088 2.1062 16.1193 3.7972 14.8634 5.67834Z" fill="url(#paint1_linear_0_1)"/>
<defs>
<linearGradient id="paint0_linear_0_1" x1="18.7315" y1="39.2828" x2="18.7315" y2="25.0568" gradientUnits="userSpaceOnUse">
<stop stop-color="#E00A14"/>
<stop offset="0.999999" stop-color="#F97F4E"/>
<stop offset="1" stop-color="#F97F4E"/>
</linearGradient>
<linearGradient id="paint1_linear_0_1" x1="20.0002" y1="44.8766" x2="20.0002" y2="21.3775" gradientUnits="userSpaceOnUse">
<stop stop-color="#E00A14"/>
<stop offset="0.999999" stop-color="#F97F4E"/>
<stop offset="1" stop-color="#F97F4E"/>
</linearGradient>
</defs>
</svg>
