<svg width="16" height="16" viewBox="0 0 16 16" fill="none" xmlns="http://www.w3.org/2000/svg">
<path d="M11.3332 7.99935C9.49317 7.99935 7.99984 9.49268 7.99984 11.3327C7.99984 13.1727 9.49317 14.666 11.3332 14.666C13.1732 14.666 14.6665 13.1727 14.6665 11.3327C14.6665 9.49268 13.1732 7.99935 11.3332 7.99935ZM12.4332 12.8993L10.9998 11.466V9.33268H11.6665V11.1927L12.8998 12.426L12.4332 12.8993ZM11.9998 1.99935H9.87984C9.59984 1.22602 8.8665 0.666016 7.99984 0.666016C7.13317 0.666016 6.39984 1.22602 6.11984 1.99935H3.99984C3.2665 1.99935 2.6665 2.59935 2.6665 3.33268V13.3327C2.6665 14.066 3.2665 14.666 3.99984 14.666H8.07317C7.67875 14.2832 7.35789 13.8313 7.1265 13.3327H3.99984V3.33268H5.33317V5.33268H10.6665V3.33268H11.9998V6.71935C12.4732 6.78602 12.9198 6.92602 13.3332 7.11935V3.33268C13.3332 2.59935 12.7332 1.99935 11.9998 1.99935ZM7.99984 3.33268C7.63317 3.33268 7.33317 3.03268 7.33317 2.66602C7.33317 2.29935 7.63317 1.99935 7.99984 1.99935C8.3665 1.99935 8.6665 2.29935 8.6665 2.66602C8.6665 3.03268 8.3665 3.33268 7.99984 3.33268Z" fill="#FF9F43"/>
</svg>
