<svg width="16" height="16" viewBox="0 0 16 16" fill="none" xmlns="http://www.w3.org/2000/svg">
<path d="M11.3334 7.99935C9.49341 7.99935 8.00008 9.49268 8.00008 11.3327C8.00008 13.1727 9.49341 14.666 11.3334 14.666C13.1734 14.666 14.6667 13.1727 14.6667 11.3327C14.6667 9.49268 13.1734 7.99935 11.3334 7.99935ZM12.4334 12.8993L11.0001 11.466V9.33268H11.6667V11.1927L12.9001 12.426L12.4334 12.8993ZM12.0001 1.99935H9.88008C9.60008 1.22602 8.86675 0.666016 8.00008 0.666016C7.13341 0.666016 6.40008 1.22602 6.12008 1.99935H4.00008C3.26675 1.99935 2.66675 2.59935 2.66675 3.33268V13.3327C2.66675 14.066 3.26675 14.666 4.00008 14.666H8.07341C7.679 14.2832 7.35813 13.8313 7.12675 13.3327H4.00008V3.33268H5.33341V5.33268H10.6667V3.33268H12.0001V6.71935C12.4734 6.78602 12.9201 6.92602 13.3334 7.11935V3.33268C13.3334 2.59935 12.7334 1.99935 12.0001 1.99935ZM8.00008 3.33268C7.63341 3.33268 7.33342 3.03268 7.33342 2.66602C7.33342 2.29935 7.63341 1.99935 8.00008 1.99935C8.36675 1.99935 8.66675 2.29935 8.66675 2.66602C8.66675 3.03268 8.36675 3.33268 8.00008 3.33268Z" fill="#428BC1"/>
</svg>
