<svg width="21" height="19" viewBox="0 0 21 19" fill="none" xmlns="http://www.w3.org/2000/svg">
<path d="M17 12C17.5523 12 18 11.5523 18 11C18 10.4477 17.5523 10 17 10C16.4477 10 16 10.4477 16 11C16 11.5523 16.4477 12 17 12Z" fill="white"/>
<path d="M19.3368 7.33333H18.6702V3.33333C18.6702 3.15652 18.5999 2.98695 18.4749 2.86193C18.3499 2.7369 18.1803 2.66667 18.0035 2.66667H2.00351C1.84565 2.66924 1.692 2.61571 1.56992 2.5156C1.44783 2.41549 1.36524 2.27531 1.33684 2.12V1.88C1.36524 1.7247 1.44783 1.58451 1.56992 1.4844C1.692 1.38429 1.84565 1.33076 2.00351 1.33333H17.7235C17.9003 1.33333 18.0699 1.2631 18.1949 1.13807C18.3199 1.01305 18.3902 0.843478 18.3902 0.666667C18.3902 0.489856 18.3199 0.320287 18.1949 0.195262C18.0699 0.070238 17.9003 0 17.7235 0H2.00351C1.47308 0 0.964369 0.210714 0.589296 0.585787C0.214223 0.960859 0.00350949 1.46957 0.00350949 2C-0.00116983 2.07993 -0.00116983 2.16007 0.00350949 2.24V15.9533C0.00612634 16.3123 0.0794203 16.6672 0.219206 16.9978C0.358992 17.3284 0.562533 17.6283 0.818205 17.8803C1.07388 18.1322 1.37668 18.3313 1.70931 18.4663C2.04194 18.6012 2.39789 18.6693 2.75684 18.6667H18.0035C18.1803 18.6667 18.3499 18.5964 18.4749 18.4714C18.5999 18.3464 18.6702 18.1768 18.6702 18V14H19.3368C19.5137 14 19.6832 13.9298 19.8082 13.8047C19.9333 13.6797 20.0035 13.5101 20.0035 13.3333V8C20.0035 7.82319 19.9333 7.65362 19.8082 7.5286C19.6832 7.40357 19.5137 7.33333 19.3368 7.33333ZM17.3368 17.3333H2.75684C2.38604 17.3369 2.02883 17.1939 1.7629 16.9355C1.49698 16.6771 1.34386 16.3241 1.33684 15.9533V3.92C1.55324 3.98271 1.77842 4.00973 2.00351 4H17.3368V7.33333H12.6702C11.7861 7.33333 10.9383 7.68452 10.3132 8.30964C9.68803 8.93477 9.33684 9.78261 9.33684 10.6667C9.33684 11.5507 9.68803 12.3986 10.3132 13.0237C10.9383 13.6488 11.7861 14 12.6702 14H17.3368V17.3333ZM18.6702 12.6667H12.6702C12.1397 12.6667 11.631 12.456 11.256 12.0809C10.8809 11.7058 10.6702 11.1971 10.6702 10.6667C10.6702 10.1362 10.8809 9.62753 11.256 9.25245C11.631 8.87738 12.1397 8.66667 12.6702 8.66667H18.6702V12.6667Z" fill="white"/>
</svg>
