<svg width="24" height="21" viewBox="0 0 24 21" fill="none" xmlns="http://www.w3.org/2000/svg">
<path d="M1.93613 0.0657597C1.04082 0.281385 0.281445 1.04545 0.0705078 1.9267C-0.0326172 2.38138 -0.0326172 15.6189 0.0705078 16.0736C0.23457 16.7673 0.764258 17.4236 1.40645 17.7329C1.59863 17.822 1.88457 17.9251 2.03926 17.9533C2.24082 17.9908 3.68457 18.0001 7.01738 17.9908L11.7096 17.9767L11.8314 17.8642C11.9955 17.7095 12.0377 17.4658 11.9299 17.2689C11.883 17.1845 11.8127 17.1001 11.7705 17.0767C11.7283 17.0579 9.55332 17.0298 6.9377 17.0158L2.17988 16.9923L1.86582 16.8376C1.50957 16.6642 1.30332 16.4533 1.12988 16.0783L1.00801 15.8204V14.4142V13.0079L4.54707 12.9845L8.08613 12.9611L8.35332 12.8533C9.14082 12.5345 9.7127 11.9017 9.91426 11.1329C10.0174 10.7251 10.0174 7.27513 9.91426 6.86732C9.7127 6.09857 9.14082 5.46576 8.35332 5.14701L8.08613 5.0392L4.54707 5.01576L1.00801 4.99232V3.58607V2.17982L1.12988 1.92201C1.30332 1.54701 1.50957 1.33607 1.86582 1.16264L2.17988 1.00795H12.0002H21.8205L22.0783 1.12982C22.4533 1.30326 22.6643 1.50951 22.8377 1.86576L22.9924 2.17982L23.0158 7.46732L23.0393 12.7595L23.1705 12.872C23.3955 13.0642 23.7705 13.0079 23.9205 12.7501C23.9955 12.6283 24.0002 12.1876 24.0002 7.43451C24.0002 3.85795 23.9861 2.17982 23.9486 2.00638C23.808 1.31732 23.2596 0.595448 22.6502 0.286072C22.0502 -0.0186157 22.7486 0.000135422 11.9768 0.00482178C4.2377 0.00951004 2.12832 0.0188847 1.93613 0.0657597ZM8.19395 6.18295C8.52207 6.36107 8.6627 6.50638 8.8502 6.86263L8.97676 7.1017V9.00014V10.8986L8.8502 11.1376C8.6627 11.4939 8.52207 11.6392 8.19395 11.8173L7.89863 11.9767L4.46738 11.9908L1.03145 12.0048V9.00014V5.99545L4.46738 6.00951L7.89863 6.02357L8.19395 6.18295Z" fill="white"/>
<path d="M4.59354 7.05025C4.19979 7.13463 3.8951 7.30338 3.5951 7.59869C2.99042 8.20338 2.84042 9.07056 3.20604 9.86744C3.35604 10.2003 3.78729 10.6315 4.12948 10.7956C4.88885 11.1518 5.74666 11.0206 6.35135 10.4487C6.7826 10.0409 6.98416 9.5815 6.98416 9.00025C6.98416 8.42369 6.7826 7.95963 6.36073 7.5565C6.05604 7.27056 5.80291 7.13931 5.3951 7.05025C5.02948 6.97525 4.93573 6.97525 4.59354 7.05025ZM5.42791 8.10494C6.07479 8.43775 6.19198 9.26744 5.6576 9.73619C5.01541 10.2987 4.0076 9.84869 4.01229 9.00025C4.01229 8.59244 4.2326 8.24556 4.59354 8.09088C4.82791 7.98775 5.21698 7.99713 5.42791 8.10494Z" fill="white"/>
<path d="M16.5426 9.13119C16.3597 9.22494 16.2519 9.32337 16.1488 9.49212L16.0082 9.71712L15.9941 12.3609L15.9801 14.9999H14.691C13.6129 14.9999 13.3785 15.014 13.2613 15.0749C13.0926 15.1593 12.966 15.4218 13.0082 15.6046C13.0269 15.689 13.8754 16.5702 15.6472 18.3421C18.5254 21.2202 18.4176 21.1265 18.7597 20.9156C18.9894 20.7702 23.9394 15.7921 23.9769 15.6656C24.0285 15.4921 23.9629 15.2624 23.8316 15.1359L23.7097 15.0234L22.3551 15.0093L21.0004 14.9952V12.4359C21.0004 10.5468 20.9863 9.82962 20.9441 9.68431C20.8691 9.43587 20.5644 9.13119 20.316 9.05619C20.1801 9.01869 19.641 8.99994 18.4551 8.99994H16.791L16.5426 9.13119ZM20.016 12.8812L20.0394 15.7593L20.1707 15.8718C20.3019 15.9843 20.3113 15.9843 21.2957 15.9843H22.2894L20.391 17.8827L18.4926 19.7812L16.6035 17.8968L14.7191 16.0077L15.7176 15.9843C16.5144 15.9656 16.7394 15.9468 16.8051 15.8906C17.0113 15.7171 17.016 15.6656 17.016 12.7499V9.98431L18.5066 9.99369L19.9926 10.0077L20.016 12.8812Z" fill="white"/>
</svg>
