<svg width="36" height="36" viewBox="0 0 36 36" fill="none" xmlns="http://www.w3.org/2000/svg">
<g clip-path="url(#clip0_271_3185)">
<path d="M32.94 13.9999H31V8.99989C31 8.73468 30.8946 8.48032 30.7071 8.29279C30.5196 8.10525 30.2652 7.99989 30 7.99989H6C5.73478 7.99989 5.48043 7.89454 5.29289 7.707C5.10536 7.51946 5 7.26511 5 6.99989C5 6.73468 5.10536 6.48032 5.29289 6.29279C5.48043 6.10525 5.73478 5.99989 6 5.99989H29.6C29.8652 5.99989 30.1196 5.89454 30.3071 5.707C30.4946 5.51946 30.6 5.26511 30.6 4.99989C30.6 4.73468 30.4946 4.48032 30.3071 4.29279C30.1196 4.10525 29.8652 3.99989 29.6 3.99989H6C5.61389 3.99193 5.23 4.06012 4.87025 4.20056C4.5105 4.341 4.18195 4.55094 3.90336 4.81839C3.62476 5.08584 3.40159 5.40555 3.24659 5.75927C3.09159 6.11299 3.0078 6.49378 3 6.87989V27.8799C3.00131 28.4231 3.10976 28.9607 3.31915 29.4619C3.52854 29.9632 3.83475 30.4182 4.22025 30.8009C4.60575 31.1836 5.06295 31.4865 5.56568 31.6922C6.06842 31.898 6.6068 32.0025 7.15 31.9999H30C30.2652 31.9999 30.5196 31.8945 30.7071 31.707C30.8946 31.5195 31 31.2651 31 30.9999V25.9999H32.94C33.0662 26.0094 33.1931 25.9931 33.3128 25.9519C33.4324 25.9108 33.5425 25.8456 33.6361 25.7604C33.7297 25.6752 33.805 25.5718 33.8572 25.4565C33.9095 25.3412 33.9376 25.2164 33.94 25.0899V15.0899C33.9433 14.8151 33.8417 14.5493 33.6559 14.3468C33.4701 14.1443 33.2141 14.0202 32.94 13.9999ZM32 23.9999H23.42C22.3952 23.9634 21.4267 23.5216 20.7274 22.7717C20.028 22.0217 19.6549 21.0248 19.69 19.9999C19.6549 18.975 20.028 17.9781 20.7274 17.2281C21.4267 16.4781 22.3952 16.0364 23.42 15.9999H32V23.9999Z" fill="#FB6D3A"/>
<path d="M24.04 21.4199C24.8685 21.4199 25.54 20.7483 25.54 19.9199C25.54 19.0915 24.8685 18.4199 24.04 18.4199C23.2116 18.4199 22.54 19.0915 22.54 19.9199C22.54 20.7483 23.2116 21.4199 24.04 21.4199Z" fill="#FB6D3A"/>
</g>
<defs>
<clipPath id="clip0_271_3185">
<rect width="36" height="36" fill="white"/>
</clipPath>
</defs>
</svg>
