<svg width="24" height="21" viewBox="0 0 24 21" fill="none" xmlns="http://www.w3.org/2000/svg">
<path d="M1.93613 0.0652771C1.04082 0.280903 0.281445 1.04496 0.0705078 1.92621C-0.0326172 2.3809 -0.0326172 15.6184 0.0705078 16.0731C0.23457 16.7668 0.764258 17.4278 1.40645 17.7278C1.59863 17.8215 1.87051 17.92 2.00645 17.9481C2.17988 17.9856 3.99395 17.9997 7.92676 17.9997C14.2268 17.9997 13.8143 18.0231 13.9502 17.6856C14.0346 17.4934 13.9783 17.2684 13.8236 17.1278C13.7299 17.0434 13.5096 17.0387 7.95019 17.0153L2.17988 16.9918L1.86582 16.8372C1.50957 16.6637 1.30332 16.4528 1.12988 16.0778L1.00801 15.82V14.4137V13.0075L4.54707 12.984C4.54707 12.984 6.17011 12.9606 8.08613 12.9606C10.0022 12.9606 9.91426 11.1325 9.91426 11.1325C9.91426 11.1325 10.0174 7.27465 9.91426 6.86684C9.91426 6.02309 9.10567 5.03871 8.08613 5.03871L4.54707 5.01528L1.00801 4.99184V3.58559V2.17934L1.12988 1.92153C1.30332 1.54653 1.50957 1.33559 1.86582 1.16215L2.17988 1.00746H12.0002H21.8205L22.0783 1.12934C22.4533 1.30278 22.6643 1.50903 22.8377 1.86528L22.9924 2.17934L23.0158 6.93715C23.0299 9.55278 23.058 11.7278 23.0768 11.77C23.1002 11.8122 23.1846 11.8825 23.2689 11.9293C23.4658 12.0372 23.7096 11.995 23.8643 11.8309L23.9768 11.709L23.9908 7.01684C24.0002 3.68403 23.9908 2.24028 23.9533 2.03871C23.7752 1.10122 23.0018 0.290277 22.0689 0.0699654C21.8111 0.00902748 20.4564 -0.000347137 11.9768 0.00433922C4.2377 0.00902748 2.12832 0.0184021 1.93613 0.0652771ZM7.89863 6.02309C8.73653 6.02309 8.97676 6.43909 8.97676 7.10121L8.97676 8.99965V10.8981C8.97676 11.5192 8.8502 11.9762 7.89863 11.9762L4.46738 11.9903L1.03145 12.0043V8.99965V5.99496L4.46738 6.00903L7.89863 6.02309Z" fill="white"/>
<path d="M4.59354 7.05025C4.19979 7.13463 3.8951 7.30338 3.5951 7.59869C2.99042 8.20338 2.84042 9.07056 3.20604 9.86744C3.35604 10.2003 3.78729 10.6315 4.12948 10.7956C4.88885 11.1518 5.74666 11.0206 6.35135 10.4487C6.7826 10.0409 6.98416 9.5815 6.98416 9.00025C6.98416 8.42369 6.7826 7.95963 6.36073 7.5565C6.05604 7.27056 5.80291 7.13931 5.3951 7.05025C5.02948 6.97525 4.93573 6.97525 4.59354 7.05025ZM5.42791 8.10494C6.07479 8.43775 6.19198 9.26744 5.6576 9.73619C5.01541 10.2987 4.0076 9.84869 4.01229 9.00025C4.01229 8.59244 4.2326 8.24556 4.59354 8.09088C4.82791 7.98775 5.21698 7.99713 5.42791 8.10494Z" fill="white"/>
<path d="M18.3285 9.03281C18.291 9.04688 17.0816 10.2281 15.6472 11.6625C13.8754 13.4344 13.0269 14.3109 13.0082 14.3953C12.966 14.5781 13.0926 14.8406 13.2613 14.925C13.3785 14.9859 13.6129 15 14.691 15H15.9801L15.9941 17.6391L16.0082 20.2828L16.1488 20.5078C16.2519 20.6766 16.3597 20.775 16.5426 20.8688L16.791 21H18.4551C19.641 21 20.1801 20.9813 20.316 20.9438C20.5644 20.8688 20.8691 20.5641 20.9441 20.3156C20.9863 20.1703 21.0004 19.4531 21.0004 17.5641V15.0047L22.3551 14.9906L23.7097 14.9766L23.8316 14.8641C23.9629 14.7375 24.0285 14.5078 23.9769 14.3344C23.9394 14.2172 19.1301 9.36094 18.8254 9.13594C18.6519 9.00938 18.4926 8.97656 18.3285 9.03281ZM21.2582 14.0156C20.2879 14.0391 20.2504 14.0438 20.1472 14.1469L20.0394 14.2547L20.016 17.1234L19.9926 19.9922L18.5066 20.0063L17.016 20.0156V17.25C17.016 14.2734 17.016 14.2594 16.7769 14.0906C16.6832 14.025 16.5144 14.0156 15.6801 14.0156H14.6957L16.5941 12.1172L18.4926 10.2188L20.3816 12.1031L22.266 13.9922L21.2582 14.0156Z" fill="white"/>
</svg>
