<svg width="171" height="166" viewBox="0 0 171 166" fill="none" xmlns="http://www.w3.org/2000/svg">
<g clip-path="url(#clip0_2098_13237)">
<path d="M0 7C0 3.13401 3.13401 0 7 0H164C167.866 0 171 3.13401 171 7V166H0V7Z" fill="black"/>
<g filter="url(#filter0_d_2098_13237)">
<path d="M71.9082 44.9023L71.9088 44.9022L71.9089 44.9019L71.9082 44.9023Z" fill="black"/>
</g>
<g filter="url(#filter1_d_2098_13237)">
<path d="M35.8604 115.259L35.8613 115.259L35.8626 115.256L35.8604 115.259Z" fill="black"/>
</g>
<g filter="url(#filter2_d_2098_13237)">
<path d="M31.0806 156.502L31.0812 156.501L31.0816 156.5L31.0806 156.502Z" fill="black"/>
</g>
<g filter="url(#filter3_d_2098_13237)">
<path d="M72.3928 44.6812L72.3934 44.6811V44.681L72.3928 44.6812Z" fill="black"/>
</g>
<g filter="url(#filter4_d_2098_13237)">
<path d="M49.6984 101.957C49.4777 102.043 49.2569 102.129 49.0363 102.215C48.9987 102.277 48.981 102.344 48.9831 102.416C49.1475 102.344 49.3119 102.272 49.4764 102.2C49.5504 102.119 49.6244 102.038 49.6984 101.957Z" fill="black"/>
</g>
<g filter="url(#filter5_d_2098_13237)">
<path d="M133.014 119.394C133.014 119.242 133.015 119.09 133.015 118.939C132.949 118.914 132.88 118.904 132.808 118.906C132.877 119.069 132.945 119.231 133.014 119.394Z" fill="black"/>
</g>
<g filter="url(#filter6_d_2098_13237)">
<path d="M63.9816 82.7291C63.9176 82.5698 63.8536 82.4104 63.7896 82.251L63.8055 82.6973C63.8632 82.7127 63.9219 82.7233 63.9816 82.7291Z" fill="black"/>
</g>
<g filter="url(#filter7_d_2098_13237)">
<path d="M40.5668 110.407C40.4351 110.423 40.3033 110.439 40.1716 110.455C40.1726 110.533 40.1735 110.611 40.1744 110.689C40.3501 110.619 40.5258 110.548 40.7011 110.477C40.6553 110.455 40.6106 110.432 40.5668 110.407Z" fill="black"/>
</g>
<g filter="url(#filter8_d_2098_13237)">
<path d="M69.5328 45.8309C69.5144 45.8868 69.504 45.9443 69.5012 46.0031C69.5951 45.947 69.689 45.891 69.7828 45.835C69.6995 45.8337 69.6163 45.8324 69.5328 45.8309Z" fill="black"/>
</g>
<g filter="url(#filter9_d_2098_13237)">
<path d="M148.658 146.84C148.483 146.396 148.307 145.952 148.132 145.508C148.132 145.508 148.131 145.507 148.131 145.507C147.974 145.201 147.816 144.895 147.659 144.589L147.658 144.589C147.583 144.355 147.508 144.122 147.432 143.889C147.356 143.878 147.28 143.876 147.204 143.883L147.202 143.88H147.202C147.112 143.736 147.022 143.593 146.932 143.45L146.929 143.454C146.804 143.198 146.679 142.942 146.555 142.685C146.518 142.714 146.481 142.743 146.445 142.773C146.481 142.743 146.518 142.714 146.555 142.685C146.514 142.562 146.473 142.439 146.432 142.316C146.277 142.247 146.122 142.177 145.967 142.108C145.898 142.074 145.826 142.062 145.749 142.072L145.749 142.066L145.527 141.822H145.531C145.432 141.754 145.333 141.686 145.234 141.618C145.171 141.535 145.107 141.453 145.044 141.37C145.107 141.453 145.171 141.535 145.234 141.618C145.333 141.686 145.432 141.754 145.531 141.822C145.506 141.681 145.481 141.54 145.457 141.4C145.151 141.172 144.845 140.944 144.54 140.716C144.475 140.704 144.41 140.691 144.346 140.677L143.637 140.206C143.149 140.212 142.661 140.219 142.173 140.226C142.106 140.244 142.038 140.261 141.971 140.277C141.849 140.401 141.727 140.524 141.605 140.648C141.651 140.669 141.698 140.688 141.746 140.706C141.698 140.688 141.651 140.669 141.605 140.648C141.482 140.667 141.36 140.686 141.238 140.705L141.242 140.716C140.992 140.563 140.741 140.41 140.491 140.257C140.414 140.331 140.338 140.405 140.261 140.479C140.141 140.389 139.945 140.32 139.91 140.206C139.45 138.685 139.012 137.158 138.569 135.632C138.622 135.597 138.674 135.562 138.726 135.528C138.668 135.499 138.61 135.471 138.551 135.442L138.381 135.182C137.409 134.041 136.437 132.901 135.465 131.76C135.474 131.604 135.482 131.447 135.491 131.291C135.412 131.298 135.333 131.297 135.255 131.288C135.181 131.053 135.108 130.818 135.035 130.583C134.806 130.06 134.577 129.536 134.348 129.013C134.008 128.477 133.669 127.941 133.329 127.405C133.271 127.403 133.215 127.39 133.164 127.363L133.164 127.363C133.141 126.99 133.118 126.616 133.095 126.242C133.104 126.174 133.115 126.107 133.128 126.041C133.195 126.028 133.262 126.018 133.33 126.009C133.346 125.934 133.362 125.858 133.378 125.783C133.354 124.493 133.33 123.202 133.306 121.912C133.242 121.9 133.179 121.893 133.114 121.889C133.098 121.821 133.087 121.753 133.081 121.684H133.081C133.088 121.372 133.096 121.06 133.104 120.748C133.088 120.681 133.074 120.613 133.061 120.545C133.008 120.535 132.959 120.515 132.914 120.485C132.898 120.191 132.882 119.897 132.865 119.603C132.865 119.603 132.865 119.603 132.865 119.603C132.795 119.605 132.725 119.6 132.656 119.589C132.64 119.524 132.624 119.458 132.607 119.394L132.402 118.906C132.402 118.906 132.39 118.913 132.39 118.913L132.402 118.906C132.473 118.904 132.543 118.914 132.609 118.939C132.621 118.844 132.633 118.75 132.645 118.655C132.489 118.199 132.333 117.743 132.177 117.286C131.998 116.997 131.82 116.707 131.642 116.417C131.565 116.188 131.488 115.96 131.41 115.731C131.257 115.419 131.103 115.107 130.949 114.795L130.955 114.79C130.87 114.719 130.785 114.649 130.701 114.578L130.67 114.15C130.534 114.051 130.398 113.951 130.262 113.851C129.849 113.104 129.436 112.356 129.022 111.609C128.962 111.519 128.901 111.429 128.841 111.339C128.521 111.029 128.2 110.719 127.88 110.409C127.797 110.26 127.714 110.111 127.632 109.962C127.14 109.288 126.648 108.613 126.156 107.939C126.081 107.781 126.006 107.624 125.93 107.466L125.93 107.467C125.852 107.313 125.773 107.159 125.694 107.006L125.695 107.006C125.613 106.854 125.531 106.703 125.45 106.552L125.443 106.558L125.251 106.294C125.23 106.233 125.21 106.172 125.192 106.11C125.133 106.018 125.073 105.927 125.013 105.836C124.69 105.46 124.367 105.084 124.044 104.708C123.238 104.031 122.433 103.354 121.628 102.677C121.554 102.646 121.478 102.638 121.399 102.652L121.397 102.651C121.402 102.582 121.386 102.517 121.349 102.457C121.146 102.43 120.943 102.404 120.74 102.377C120.406 102.229 120.073 102.082 119.739 101.934C119.731 101.876 119.724 101.818 119.717 101.76C119.572 101.74 119.427 101.72 119.282 101.699C119.112 101.635 118.942 101.57 118.772 101.505L118.772 101.506C118.702 101.42 118.632 101.335 118.562 101.249C118.47 101.26 118.377 101.27 118.285 101.281C118.134 101.192 117.982 101.103 117.831 101.014H117.831C117.822 100.954 117.814 100.894 117.809 100.833C117.646 100.89 117.482 100.946 117.319 101.002C117.241 100.948 117.162 100.893 117.083 100.839C116.863 100.737 116.644 100.635 116.424 100.534C116.328 100.554 116.231 100.574 116.134 100.595L115.449 100.31C115.358 100.254 115.268 100.199 115.177 100.144C115.184 100.072 115.18 99.9999 115.166 99.9286C114.937 99.918 114.708 99.9074 114.479 99.8968L114.478 99.8976C114.234 99.8353 113.989 99.7729 113.745 99.7106C113.592 99.6956 113.439 99.6805 113.286 99.6654C113.21 99.588 113.133 99.5105 113.057 99.4331C112.888 99.3697 112.719 99.3062 112.55 99.2428C112.623 99.3174 112.695 99.392 112.767 99.4664C112.94 99.533 113.114 99.5995 113.287 99.6659C113.114 99.5995 112.94 99.533 112.767 99.4666C112.695 99.392 112.623 99.3174 112.55 99.2428C112.005 98.9212 111.46 98.5996 110.915 98.2781L110.369 97.8741C110.067 97.7091 109.765 97.5442 109.463 97.3793C109.383 97.3797 109.302 97.3802 109.222 97.3806C109.06 97.307 108.899 97.2333 108.737 97.1597L108.742 97.1545C108.577 97.084 108.412 97.0135 108.247 96.943C108.086 96.868 107.925 96.7929 107.763 96.7179C107.767 96.6383 107.771 96.5588 107.775 96.4792C107.697 96.4802 107.619 96.4878 107.541 96.5024C107.551 96.5607 107.556 96.6193 107.556 96.6781C107.556 96.6193 107.551 96.5607 107.541 96.5026C107.441 96.4233 107.342 96.344 107.242 96.2647C107.018 96.1095 106.794 95.9544 106.57 95.7993C106.49 95.7176 106.409 95.6358 106.328 95.554C106.346 95.0595 106.442 94.553 106.361 94.0736C106.277 93.5675 106.025 93.0873 105.845 92.5958L104.465 91.6361C104.303 91.5601 104.142 91.4841 103.981 91.408L103.987 91.4034L102.562 91.2171C102.551 91.2785 102.528 91.3351 102.491 91.3865C102.527 91.4104 102.564 91.4346 102.601 91.4588C102.564 91.4345 102.527 91.4104 102.491 91.3863C102.353 91.4014 102.215 91.4166 102.077 91.4319C102.078 91.4319 102.083 91.4442 102.083 91.4442C102.078 91.5027 102.057 91.5553 102.019 91.6017C102.019 91.6016 102.038 91.6216 102.058 91.6415L102.019 91.6015C101.87 91.6101 101.721 91.6187 101.572 91.6273C101.503 91.6294 101.435 91.6244 101.368 91.6122C101.272 91.6301 101.176 91.648 101.079 91.6661C101.308 91.669 101.538 91.6719 101.767 91.6747C101.538 91.6719 101.308 91.6691 101.079 91.6662C101.014 91.6504 100.949 91.6384 100.883 91.6302C100.704 91.5753 100.525 91.5204 100.345 91.4654C100.215 91.3629 100.085 91.2604 99.9548 91.1579C100.085 91.2604 100.215 91.3629 100.345 91.4654L100.883 91.6302C100.859 91.5709 100.846 91.5092 100.845 91.4454L100.849 91.4452C100.709 91.4235 100.569 91.4017 100.43 91.38L100.43 91.38C100.391 91.3225 100.377 91.2599 100.387 91.1924C100.387 91.1924 100.382 91.1994 100.382 91.1995C100.296 91.0515 100.21 90.9034 100.123 90.7555C99.9688 90.8112 99.8146 90.8667 99.6604 90.9222L99.6604 90.9222C99.4334 90.7758 99.2065 90.6294 98.9795 90.4831C98.822 90.4024 98.6647 90.3218 98.5072 90.2411C98.4266 90.1685 98.3459 90.0959 98.2653 90.0233C98.1766 89.9553 98.0881 89.8873 97.9994 89.8193L97.9987 89.8187C97.8496 89.7311 97.7005 89.6434 97.5514 89.5558C97.2174 88.7338 96.8834 87.9118 96.5495 87.0898C96.5497 86.936 96.5499 86.7823 96.5501 86.6285C96.3957 86.5463 96.2413 86.4641 96.0868 86.3819L96.0871 86.382L95.8349 85.94C95.8349 85.9401 95.8325 85.9368 95.8325 85.9368C95.6789 85.6264 95.5253 85.316 95.3718 85.0057L95.3725 85.0067C95.2235 84.5392 95.0744 84.0718 94.9254 83.6043C94.9029 83.467 94.8805 83.3297 94.8581 83.1924C94.6443 82.5697 94.4306 81.947 94.2169 81.3243C94.2019 81.1768 94.1869 81.0293 94.1719 80.8818C94.0938 80.7313 94.0158 80.5808 93.9377 80.4302C93.9471 79.5908 93.9565 78.7514 93.9659 77.912C93.9545 77.8249 93.9431 77.7376 93.9317 77.6504C93.8691 77.6635 93.8064 77.6762 93.7437 77.6885C93.8064 77.6762 93.8691 77.6635 93.9316 77.6503C93.9598 77.5252 93.9881 77.4001 94.0164 77.2752C93.981 77.2433 93.9454 77.2113 93.9099 77.1793C93.9454 77.2113 93.981 77.2433 94.0166 77.2753C94.0698 77.2409 94.1285 77.2241 94.1927 77.2249L94.1895 77.2138C94.2142 77.0808 94.2389 76.9479 94.2638 76.815L94.2639 76.8151C94.3433 76.6629 94.4226 76.5108 94.5019 76.3587C94.5662 76.2669 94.6307 76.1751 94.6952 76.0834C94.6782 75.9949 94.661 75.9064 94.6439 75.8178C94.5579 75.9662 94.4719 76.1146 94.386 76.263C94.306 76.4155 94.2261 76.5681 94.1463 76.7207C94.2261 76.5681 94.306 76.4155 94.3859 76.2629L94.6439 75.8178C94.661 75.9064 94.6782 75.9949 94.6953 76.0836C94.7585 76.0735 94.8217 76.0648 94.8852 76.0574C94.8942 75.9112 94.9033 75.7649 94.9123 75.6186L94.9108 75.616C94.9862 75.4597 95.0616 75.3034 95.137 75.1471L95.1528 75.16C95.2274 75.0032 95.3021 74.8464 95.3768 74.6896L95.3768 74.6897C95.4632 74.4608 95.5497 74.2319 95.6361 74.0029C95.6558 73.919 95.6754 73.8349 95.6951 73.7509C95.6952 73.7509 95.6347 73.7271 95.6347 73.7271L95.5982 73.7791C95.7468 72.784 95.8955 71.789 96.0443 70.7939C96.2165 70.4051 96.3887 70.0162 96.561 69.6274C96.5812 69.5547 96.5682 69.4879 96.5221 69.427C96.5938 69.2771 96.6655 69.1272 96.7372 68.9773C96.7621 68.8961 96.787 68.815 96.8119 68.7338C96.8139 66.8229 96.8158 64.9119 96.8178 63.001C96.7367 62.9243 96.6554 62.8476 96.5742 62.7709C96.4944 62.6178 96.4147 62.4646 96.335 62.3116C96.3401 61.9282 96.3452 61.5448 96.3503 61.1615L96.311 61.1838C96.0008 60.72 95.6905 60.2563 95.3803 59.7925L95.3806 59.7921C95.2881 59.4999 95.1955 59.2077 95.1031 58.9155C95.0502 58.7557 94.9974 58.596 94.9445 58.4362C94.9171 58.0586 94.8896 57.681 94.8621 57.3033C94.787 57.0734 94.7119 56.8435 94.6368 56.6135C94.5608 56.3788 94.4848 56.1441 94.4087 55.9094L94.4099 55.911C94.3235 55.7623 94.2371 55.6136 94.1507 55.4649C94.0984 55.3831 94.0461 55.3014 93.9938 55.2197C93.8955 54.9912 93.7972 54.7628 93.6989 54.5344C93.6311 54.3762 93.5634 54.2181 93.4957 54.0599C93.4745 53.9159 93.4534 53.7718 93.4323 53.6277L92.7989 52.698C92.7689 52.5508 92.7389 52.4037 92.7089 52.2565C92.3925 51.7979 92.0762 51.3394 91.76 50.8808C91.6936 50.7193 91.6273 50.5578 91.561 50.3964L91.5578 50.3991C91.4852 50.1641 91.4126 49.929 91.34 49.6939C91.2614 49.5532 91.1828 49.4126 91.1043 49.2719C91.0153 48.9614 90.9263 48.6509 90.8373 48.3405L90.8373 48.3403C90.7602 48.2618 90.683 48.1831 90.6059 48.1045L90.606 48.1046C90.6169 48.0307 90.6086 47.9588 90.5814 47.889C90.2689 47.5812 89.9564 47.2735 89.644 46.9656L89.6438 46.9655C89.4848 46.8889 89.3258 46.8122 89.1668 46.7356C89.0911 46.6544 89.0153 46.5732 88.9395 46.492C88.6911 46.4287 88.4426 46.3656 88.1941 46.3024C87.008 45.9756 85.8218 45.6489 84.6356 45.3221C83.3568 45.0371 82.0779 44.7521 80.7991 44.467L80.835 44.4097C80.8159 44.2811 80.7968 44.1525 80.7779 44.0238C79.116 44.0139 77.4536 43.9822 75.7923 44.0134C75.4677 44.0195 75.148 44.2696 74.8259 44.4072C74.507 44.4923 74.1881 44.5773 73.8691 44.6624C73.7229 44.6516 73.5767 44.6407 73.4305 44.6299C73.4231 44.5605 73.4167 44.4911 73.4113 44.4216C73.1751 44.4347 72.9388 44.4475 72.7026 44.4603C72.6964 44.5152 72.6838 44.5687 72.6644 44.6205C72.6644 44.6205 72.6643 44.6205 72.6643 44.6205C72.4386 44.6407 72.2129 44.6608 71.9873 44.6811C71.9943 44.7477 71.9857 44.8124 71.9614 44.8752C71.8085 44.8842 71.6555 44.8932 71.5026 44.9022C71.4999 44.9709 71.4788 45.0338 71.4389 45.0909C71.2379 45.1181 71.0368 45.1454 70.8357 45.1726C70.8055 45.2263 70.781 45.2822 70.762 45.3404C70.5387 45.4331 70.3153 45.5257 70.092 45.6183C69.9292 45.6138 69.7663 45.6094 69.6034 45.6048C69.5883 45.6618 69.5788 45.7197 69.5748 45.7784C69.5088 45.7972 69.4428 45.8161 69.3769 45.835C69.283 45.891 69.1891 45.947 69.0953 46.0031C68.9484 46.0277 68.8016 46.0523 68.6548 46.077C68.2415 46.2875 67.8281 46.498 67.4148 46.7084C67.2691 46.7239 67.1234 46.7394 66.9777 46.7548C66.964 46.81 66.9537 46.8658 66.947 46.9222C66.8808 46.9408 66.8147 46.9598 66.7487 46.9791C66.656 46.968 66.5634 46.957 66.4707 46.9459C66.3895 47.0197 66.3084 47.0936 66.2272 47.1674C66.0811 47.2598 65.9351 47.3521 65.789 47.4444L65.313 47.4543C65.3003 47.5128 65.2785 47.5677 65.2473 47.6196H65.2471C65.0997 47.625 64.9523 47.6306 64.8048 47.6361C64.8048 47.636 64.8124 47.647 64.8124 47.647C64.4911 47.7893 64.1698 47.9317 63.8485 48.0741C63.5222 48.3791 63.1958 48.6841 62.8695 48.9891C62.8855 49.0053 62.9016 49.0214 62.9177 49.0375C62.9016 49.0214 62.8856 49.0054 62.8695 48.9892C62.7169 49.0725 62.5641 49.1559 62.4114 49.2392C62.4191 49.3087 62.4083 49.3753 62.3793 49.4394C62.3354 49.4752 62.2851 49.4976 62.2284 49.5067C62.2057 49.5699 62.1871 49.6342 62.1728 49.6997C62.19 49.7822 62.2072 49.8647 62.2247 49.9473C62.2808 49.9434 62.3368 49.9407 62.3929 49.9393C62.4158 49.7976 62.4386 49.6559 62.4614 49.5141C62.603 49.4202 62.7445 49.3263 62.8861 49.2323C62.9792 49.1728 63.0724 49.1133 63.1655 49.0537C63.2461 48.9775 63.3265 48.9013 63.407 48.825C63.3266 48.9013 63.2461 48.9775 63.1655 49.0538C63.0724 49.1133 62.9792 49.1728 62.8861 49.2323C62.7445 49.3263 62.603 49.4202 62.4615 49.5142C62.4386 49.6559 62.4158 49.7976 62.3929 49.9393C62.3368 49.9407 62.2808 49.9434 62.2249 49.9474C62.1849 50.1632 62.1449 50.3791 62.1046 50.5949C62.1403 50.6153 62.1783 50.631 62.2185 50.6419C62.1783 50.631 62.1403 50.6153 62.1044 50.5948C62.0627 50.619 62.0176 50.6337 61.9693 50.639C61.8916 50.8725 61.814 51.1062 61.7362 51.3398C61.2396 52.0888 60.743 52.8377 60.2464 53.5867C60.1057 53.9017 59.9651 54.2167 59.8244 54.5317C59.7994 54.5936 59.7867 54.6578 59.7862 54.7242L59.5589 55.6678L59.5558 55.6652C59.4881 55.9018 59.4204 56.1384 59.3527 56.3749C59.3346 56.439 59.318 56.5032 59.3027 56.5679C59.2395 56.5782 59.1796 56.5976 59.1228 56.6262C59.0878 56.9033 59.0528 57.1803 59.0175 57.4573C59.0175 57.4572 59.0175 57.4573 59.0174 57.4572C58.9797 57.493 58.9349 57.5162 58.883 57.5268C58.8748 57.5964 58.8627 57.6654 58.8468 57.7337C58.8528 58.0464 58.8589 58.3592 58.865 58.6719C58.8455 58.8135 58.8259 58.9551 58.8064 59.0967C58.75 59.1034 58.6938 59.1115 58.6377 59.1211C58.6244 59.2659 58.611 59.4107 58.5977 59.5555C58.611 59.8748 58.6244 60.194 58.6378 60.5134C58.7015 60.4953 58.7656 60.4797 58.8304 60.4667C58.7656 60.4797 58.7015 60.4953 58.638 60.5135L58.578 60.9287C58.5185 60.9343 58.4594 60.9422 58.4006 60.9525C58.4668 62.479 58.533 64.0055 58.5991 65.5319C58.6168 65.5992 58.633 65.6667 58.6476 65.7346C58.6473 66.2065 58.6469 66.6783 58.6466 67.1501C58.7105 66.6872 58.7744 66.2243 58.8383 65.7613V65.7614L58.6466 67.1501C58.7048 67.3051 58.7631 67.4599 58.8214 67.6149C58.904 67.9176 58.9866 68.2204 59.0693 68.5232C59.1456 68.6758 59.2219 68.8284 59.2981 68.9811L59.3411 68.9515C59.3426 69.1759 59.3441 69.4002 59.3456 69.6246C59.4072 70.0239 59.4687 70.4232 59.5302 70.8225C59.6938 71.125 59.8574 71.4276 60.021 71.7301L60.2657 71.9549C60.1995 71.7899 60.1333 71.625 60.067 71.4601C59.9705 71.243 59.8738 71.0261 59.7773 70.8091C59.8738 71.0261 59.9705 71.243 60.067 71.46C60.1333 71.625 60.1995 71.7899 60.2657 71.9549C60.2802 72.0943 60.2947 72.2338 60.3092 72.3733C60.3692 72.5399 60.4293 72.7065 60.4893 72.873C60.6554 73.1052 60.8215 73.3375 60.9876 73.5697C60.9857 73.6374 60.9714 73.7025 60.9447 73.7653C60.9744 73.8393 61.0041 73.9135 61.0338 73.9876C61.0904 74.1526 61.1471 74.3176 61.2038 74.4826C61.381 75.0044 61.5581 75.5263 61.7352 76.048C61.8223 77.2662 61.9093 78.4844 61.9963 79.7026C62.057 79.7305 62.1208 79.7404 62.1876 79.7323C62.2581 79.8927 62.3286 80.0532 62.3991 80.2136C62.4145 80.2771 62.4305 80.3404 62.4472 80.4035L62.6618 80.8806L62.662 80.8808L63.182 81.5445C63.2437 81.633 63.3053 81.7216 63.3669 81.8101C63.3053 81.7216 63.2437 81.633 63.1819 81.5446C63.0087 81.3233 62.8353 81.1021 62.662 80.8808C62.8051 81.2003 62.9483 81.5198 63.0915 81.8394L63.0916 81.8393C63.1882 81.9772 63.2848 82.1151 63.3813 82.253L63.3838 82.251C63.4478 82.4104 63.5118 82.5698 63.5758 82.7291C63.5935 82.7941 63.6136 82.8584 63.636 82.922C63.643 83.0645 63.6501 83.2069 63.6572 83.3494C63.7148 83.3776 63.775 83.3996 63.8374 83.4156C63.9246 83.5602 64.0117 83.7049 64.0989 83.8495C64.2593 84.0032 64.4198 84.1569 64.5802 84.3105L64.5806 84.311C64.5952 84.3868 64.6097 84.4625 64.6241 84.5382C64.6 84.6089 64.5992 84.68 64.6218 84.7513C64.6879 84.834 64.7539 84.9168 64.8199 84.9995C64.8796 85.0206 64.9412 85.0289 65.0046 85.0247C65.0094 85.1725 65.0141 85.3204 65.0188 85.4682C65.103 85.5511 65.1872 85.6339 65.2714 85.7167C65.3602 85.8586 65.4489 86.0006 65.5376 86.1425L65.5375 86.1423C65.5441 86.2949 65.5505 86.4475 65.5571 86.6001C65.633 86.8268 65.7088 87.0535 65.7848 87.2801L65.7867 87.2836C65.8626 87.438 65.9384 87.5925 66.0144 87.747L66.0148 87.7476C66.1828 87.9634 66.3508 88.1793 66.5188 88.3951C66.5844 88.4296 66.6543 88.4429 66.7286 88.4351C66.6588 88.2752 66.589 88.1153 66.5191 87.9554C66.2809 87.5041 66.0425 87.0528 65.8042 86.6016C66.0425 87.0528 66.2809 87.5041 66.5192 87.9553C66.589 88.1153 66.6588 88.2752 66.7286 88.4351C66.7286 88.4351 66.7296 88.4361 66.7296 88.4361C66.7412 88.5188 66.7529 88.6015 66.7645 88.6841C67.1488 89.0647 67.5331 89.4453 67.9173 89.8258C67.9326 89.9037 67.9479 89.9815 67.9632 90.0594L68.4139 90.7301L68.3543 90.6848L68.2939 90.7292L68.4115 91.1802C68.462 91.1963 68.5085 91.2198 68.5509 91.2507C68.5823 91.3788 68.6136 91.5069 68.645 91.6349C68.709 91.6442 68.7648 91.67 68.8121 91.7123C68.8416 91.6827 68.8707 91.6525 68.8993 91.6218C68.8707 91.6525 68.8416 91.6827 68.812 91.7125C68.8231 91.9155 68.8343 92.1187 68.8452 92.3217H68.8451C68.2893 92.3136 67.7336 92.3055 67.1777 92.2973C65.5711 92.3696 64.4465 92.9469 64.4199 94.0484C64.3915 95.227 64.0737 96.2035 63.3621 97.1108L62.6778 97.5566C62.444 97.658 62.2103 97.7594 61.9765 97.8607C61.9573 97.9225 61.9351 97.9832 61.9101 98.0429C61.44 97.9789 60.97 97.9148 60.5 97.8508C60.4258 97.8432 60.3515 97.8382 60.277 97.8359C60.1085 97.8543 59.9399 97.8728 59.7714 97.8913C59.7714 97.8912 59.7713 97.8911 59.7713 97.891C59.9398 97.8728 60.1084 97.8543 60.277 97.8359C60.1155 97.7485 59.954 97.6613 59.7925 97.5739C59.1549 97.6573 58.5172 97.7408 57.8796 97.8241C57.815 97.8491 57.748 97.865 57.6788 97.8721C57.5144 97.8494 57.3501 97.8268 57.1858 97.8043C57.1091 97.9009 57.0325 97.9974 56.9559 98.0939C55.2052 99.004 53.4546 99.9141 51.7039 100.824C51.6914 100.89 51.6736 100.954 51.6506 101.017C51.5182 101.04 51.3858 101.062 51.2536 101.084C51.1627 101.164 51.0717 101.243 50.9808 101.322C50.8968 101.382 50.8129 101.442 50.7289 101.502L50.7302 101.504C50.5843 101.586 50.4384 101.669 50.2926 101.752C50.1138 101.81 49.935 101.868 49.7562 101.926C49.935 101.868 50.1138 101.81 50.2924 101.752C50.4384 101.669 50.5843 101.586 50.7302 101.504C50.4867 101.578 50.2432 101.651 49.9998 101.725C49.9285 101.731 49.8578 101.741 49.7877 101.755C49.6228 101.822 49.4579 101.889 49.293 101.956L49.2922 101.957C49.2182 102.038 49.1442 102.119 49.0703 102.2C48.9058 102.272 48.7413 102.344 48.5769 102.416L48.5801 102.419C48.4139 102.489 48.2478 102.559 48.0817 102.63C47.5417 102.795 47.0018 102.96 46.4619 103.126C46.3722 103.196 46.2825 103.266 46.1927 103.336L46.2054 103.351C46.0445 103.425 45.8835 103.499 45.7226 103.573L45.7224 103.573C45.4688 103.642 45.2152 103.71 44.9616 103.779C44.7314 103.858 44.5012 103.938 44.2711 104.017C44.2 104.026 44.1288 104.033 44.0573 104.038C44.0359 104.096 44.0207 104.156 44.0115 104.217H44.0115C43.9467 104.235 43.882 104.252 43.8171 104.269C43.6541 104.34 43.4913 104.411 43.3283 104.482V104.482L42.8854 104.507C42.8576 104.57 42.8391 104.634 42.83 104.702C42.9285 104.71 43.0268 104.719 43.1248 104.727L43.1248 104.727C43.0265 104.719 42.9283 104.71 42.83 104.702C42.4363 105.084 42.0425 105.467 41.6488 105.849V105.849C41.5841 106.013 41.5194 106.177 41.4547 106.341C41.4422 106.405 41.4246 106.467 41.4018 106.528C41.3171 106.679 41.2325 106.83 41.1479 106.98C41.0844 107.144 41.0209 107.307 40.9575 107.471C41.0261 107.469 41.0937 107.46 41.1602 107.443C41.1919 107.313 41.2237 107.183 41.2555 107.053C41.2237 107.183 41.1919 107.313 41.1603 107.443C41.0937 107.46 41.0261 107.469 40.9575 107.471L40.9363 107.457C40.9285 108.07 40.9206 108.684 40.9128 109.297C40.9174 109.447 40.9221 109.596 40.9268 109.746C40.8552 109.829 40.7836 109.913 40.7119 109.996L40.266 110.238C40.2483 110.304 40.2134 110.361 40.1611 110.408C40.2047 110.432 40.2493 110.455 40.2952 110.477C40.8264 110.471 41.0416 110.271 41.1343 109.995C41.0416 110.271 40.8266 110.471 40.2955 110.477C40.1198 110.548 39.9442 110.619 39.7685 110.689C38.7931 111.247 37.7992 111.722 37.3301 112.875C37.0436 113.579 36.395 114.147 35.9091 114.776C35.8473 114.79 35.7895 114.814 35.7358 114.847C35.7113 114.97 35.6868 115.093 35.6623 115.216C35.5961 115.243 35.5272 115.257 35.4554 115.259C35.3757 115.412 35.296 115.564 35.2163 115.717L35.217 115.714C35.1427 115.872 35.0685 116.031 34.9942 116.189L34.9719 116.168C34.9792 116.4 34.9864 116.632 34.9937 116.864L34.9506 116.839C34.8899 116.853 34.8341 116.877 34.7833 116.911C34.7672 117.199 34.751 117.487 34.7348 117.774C34.7192 117.841 34.7091 117.909 34.7044 117.977V117.978C34.642 117.988 34.5802 118.002 34.5193 118.019C34.4979 118.313 34.4765 118.607 34.4551 118.9C34.3991 120.347 34.3432 121.794 34.2873 123.241C34.3488 123.26 34.4114 123.276 34.4749 123.289C34.4874 123.124 34.5 122.96 34.5125 122.796C34.5 122.96 34.4874 123.124 34.4752 123.288C34.4892 123.43 34.5028 123.571 34.5159 123.713C34.585 123.722 34.655 123.729 34.7253 123.733C34.729 123.501 34.7326 123.27 34.736 123.038H34.7362C34.7326 123.27 34.729 123.501 34.7253 123.733C34.7251 123.886 34.7251 124.039 34.725 124.192L34.7325 124.186C34.8121 124.491 34.8915 124.797 34.9711 125.102L34.9713 125.102C35.0598 125.395 35.1483 125.688 35.2368 125.981C35.2887 126.008 35.3391 126.038 35.3875 126.071C35.3391 126.038 35.2887 126.008 35.2367 125.981C35.1483 125.688 35.0598 125.395 34.9713 125.102C34.9801 125.478 34.9889 125.854 34.9976 126.23C35.0563 126.247 35.1127 126.269 35.1667 126.297C35.2545 126.514 35.3421 126.731 35.43 126.948C35.4299 126.948 35.4306 126.953 35.4306 126.953C35.4324 127.178 35.4342 127.404 35.436 127.63C35.5914 127.863 35.7469 128.097 35.9022 128.33L36.1919 129.659C36.2514 129.979 36.311 130.299 36.3705 130.619C36.3875 130.834 36.4046 131.05 36.4216 131.265C36.4962 131.426 36.5708 131.586 36.6454 131.746L36.6597 131.733C36.6668 131.81 36.6739 131.887 36.681 131.964C36.7501 132.039 36.8192 132.113 36.8883 132.187C36.8883 132.187 36.9999 132.215 36.9999 132.215L37.115 132.21L37.1152 132.21C37.1267 132.351 37.1382 132.491 37.1498 132.632C37.2739 133 37.398 133.369 37.522 133.737C37.5572 133.772 37.5921 133.808 37.6265 133.844C37.5921 133.808 37.5572 133.772 37.5218 133.737C37.4406 133.892 37.3594 134.046 37.278 134.201L37.2779 134.201C37.1962 134.358 37.1146 134.515 37.0328 134.671C37.0783 134.702 37.1236 134.734 37.1684 134.766C37.0866 134.919 37.0049 135.071 36.9231 135.224C36.8346 135.371 36.7462 135.518 36.6578 135.666C36.5594 135.959 36.4609 136.252 36.3625 136.546C36.3056 136.637 36.2487 136.729 36.1919 136.821C36.1092 136.896 36.0266 136.972 35.9439 137.048C35.9558 137.342 35.9676 137.636 35.9794 137.93C35.9569 138.004 35.9344 138.077 35.9119 138.151C35.8257 139.081 35.7395 140.011 35.6532 140.941L35.7197 140.889C35.7761 140.906 35.8259 140.933 35.869 140.971L35.8688 140.971C35.8898 141.181 35.9108 141.39 35.9317 141.6C35.9347 141.679 35.9376 141.759 35.9406 141.838C35.8615 142.069 35.7824 142.3 35.7034 142.531L35.701 142.534C35.687 142.742 35.673 142.95 35.6591 143.158C35.6591 143.158 35.659 143.158 35.659 143.158C35.5964 143.19 35.5302 143.214 35.4606 143.228C35.4435 143.368 35.4263 143.507 35.4093 143.647C35.3503 143.813 35.2913 143.979 35.2323 144.145C34.5129 146.258 33.7997 148.373 33.0678 150.483C32.9506 150.82 32.7493 151.131 32.587 151.454C32.512 151.615 32.4371 151.776 32.3622 151.938C32.3493 152.004 32.3303 152.068 32.3052 152.131C32.2394 152.289 32.1737 152.448 32.108 152.606L32.1026 152.601C32.0285 152.761 31.9544 152.921 31.8803 153.08C31.7083 153.604 31.5363 154.127 31.3643 154.651C31.2993 154.966 31.2345 155.282 31.1695 155.597C31.1557 155.661 31.142 155.725 31.1287 155.789C31.0641 155.803 31.0018 155.822 30.9416 155.849C30.9183 156.048 30.895 156.247 30.8718 156.446C30.8117 156.482 30.746 156.5 30.6752 156.501C30.5953 156.73 30.5155 156.959 30.4355 157.188L30.4379 157.188C30.2756 157.644 30.1133 158.1 29.9511 158.556L29.9506 158.557C29.8746 158.789 29.7986 159.021 29.7226 159.253L29.7299 159.259L29.5161 160.409C29.4957 160.776 29.4753 161.143 29.4549 161.51C29.3952 162.061 29.3356 162.612 29.2759 163.164C29.2588 163.306 29.2416 163.447 29.2245 163.589C29.1497 164.433 29.0748 165.278 29 166.122H110.181C110.191 165.833 110.202 165.544 110.213 165.255C110.273 165.218 110.338 165.197 110.409 165.193L110.41 165.201L110.45 164.066C110.509 164.058 110.568 164.049 110.626 164.039C110.715 163.663 110.805 163.287 110.894 162.911L110.897 162.914C110.973 162.757 111.048 162.601 111.124 162.444L111.128 162.452C111.204 162.295 111.28 162.138 111.356 161.982C111.356 161.982 111.368 161.991 111.368 161.991C111.392 161.849 111.417 161.707 111.441 161.564C111.496 161.548 111.552 161.539 111.609 161.537C111.622 161.474 111.638 161.411 111.655 161.348C111.976 161.036 112.297 160.724 112.617 160.412C112.587 160.318 112.557 160.224 112.527 160.131C112.532 159.986 112.538 159.841 112.544 159.696C112.708 158.528 113.555 157.854 114.477 157.235C114.549 157.2 114.623 157.197 114.699 157.225L114.699 157.225C114.709 157.288 114.715 157.352 114.715 157.416C114.806 157.404 114.896 157.393 114.986 157.382C115.585 157.863 116.187 158.341 116.783 158.825C117.524 159.428 118.261 160.035 118.999 160.64L119.496 160.847L119.497 160.847C119.498 160.919 119.509 160.989 119.531 161.058C119.669 161.076 119.807 161.093 119.945 161.111C119.963 161.167 119.978 161.224 119.99 161.281L120.468 161.525C120.534 161.531 120.6 161.543 120.664 161.561C120.75 161.63 120.835 161.699 120.921 161.769C121.485 162.448 122.05 163.127 122.615 163.806C122.681 163.825 122.748 163.843 122.815 163.86C122.889 163.934 122.964 164.009 123.038 164.083C123.054 164.145 123.07 164.206 123.085 164.268C123.079 164.354 123.074 164.44 123.068 164.526C123.544 164.988 124.02 165.45 124.496 165.912C124.503 165.982 124.506 166.052 124.507 166.122H135.013C135.011 166.047 135.013 165.972 135.016 165.897C135.011 165.811 135.006 165.725 135.001 165.639C134.945 165.758 134.889 165.876 134.834 165.995C134.889 165.876 134.945 165.758 135.001 165.639C135.079 165.562 135.157 165.486 135.235 165.41C135.313 165.337 135.391 165.264 135.47 165.191C135.651 165.055 135.832 164.919 136.013 164.782L136.441 164.743L136.434 164.734C136.678 164.588 136.923 164.442 137.167 164.296L137.168 164.295C137.324 164.215 137.479 164.135 137.635 164.055L137.633 164.054C137.878 163.911 138.124 163.769 138.37 163.626L138.344 163.582C139.554 163.387 142.222 160.072 143.148 159.272L144.058 158.519C144.151 158.461 144.244 158.402 144.336 158.344C144.336 158.344 144.338 158.343 144.338 158.343C144.477 158.25 144.616 158.157 144.754 158.064C144.861 157.857 144.968 157.65 145.075 157.442C144.813 157.649 144.55 157.857 144.288 158.064C144.207 158.12 144.125 158.175 144.044 158.231C144.125 158.175 144.207 158.12 144.288 158.064C144.55 157.857 144.813 157.649 145.075 157.442L145.306 157.206C145.377 157.047 145.449 156.888 145.521 156.729C145.594 156.735 145.664 156.722 145.731 156.691C145.816 156.549 145.902 156.406 145.988 156.263C145.984 156.264 145.981 156.267 145.977 156.267C145.981 156.267 145.984 156.264 145.988 156.263C146.076 156.043 146.164 155.823 146.252 155.603C146.315 154.918 146.378 154.232 146.441 153.547C146.375 153.535 146.311 153.516 146.25 153.487C146.25 153.487 146.25 153.487 146.25 153.487C146.261 153.206 146.272 152.925 146.283 152.643L146.284 152.643C146.334 152.608 146.391 152.584 146.452 152.573C146.614 152.276 146.776 151.98 146.939 151.684C147.421 151.074 147.904 150.464 148.387 149.855L148.426 149.884C148.475 149.186 148.524 148.488 148.573 147.791C148.601 147.717 148.628 147.643 148.656 147.57C148.632 147.429 148.609 147.287 148.585 147.146C148.609 147.044 148.634 146.942 148.658 146.84ZM58.8452 60.3636C58.8619 60.247 58.8787 60.1305 58.8953 60.014C58.8954 60.0143 58.8954 60.0145 58.8954 60.0148C58.8787 60.1311 58.8619 60.2473 58.8452 60.3636ZM34.7469 118.699C34.7352 118.767 34.7279 118.835 34.7243 118.903C34.7279 118.835 34.7352 118.767 34.7468 118.699C34.8016 118.694 34.8563 118.69 34.9111 118.687C34.8564 118.69 34.8016 118.694 34.7469 118.699ZM34.9636 120.142C34.9644 119.656 34.9651 119.169 34.9658 118.683H34.9659L34.9636 120.142ZM35.4884 125.987C35.3723 125.343 35.2562 124.7 35.1401 124.056C35.2563 124.699 35.3724 125.343 35.4886 125.987C35.5435 126.314 35.5985 126.641 35.6534 126.967C35.5985 126.641 35.5435 126.314 35.4884 125.987ZM29.7374 161.324C29.727 161.417 29.7165 161.511 29.7061 161.604C29.7165 161.511 29.7269 161.417 29.7371 161.324C29.8077 161.315 29.8782 161.308 29.9488 161.303C29.8782 161.308 29.8077 161.315 29.7374 161.324ZM29.9954 159.283C29.9746 159.497 29.9538 159.711 29.9332 159.926C29.8734 159.934 29.8137 159.942 29.754 159.95C29.7316 160.091 29.7091 160.233 29.6867 160.374C29.7091 160.233 29.7316 160.091 29.7539 159.95C29.8137 159.942 29.8734 159.934 29.9332 159.926C29.9538 159.711 29.9746 159.497 29.9952 159.283C30.0589 159.04 30.1225 158.797 30.186 158.554C30.1225 158.797 30.0589 159.04 29.9954 159.283ZM41.6824 106.775C41.5985 106.854 41.5146 106.933 41.4307 107.012L41.4315 107.016C41.3586 107.251 41.2856 107.485 41.2129 107.72C41.2856 107.485 41.3586 107.251 41.4315 107.016C41.4315 107.016 41.4307 107.012 41.4306 107.012C41.5146 106.933 41.5985 106.854 41.6823 106.775C41.7522 106.773 41.8218 106.772 41.8916 106.771C41.8218 106.772 41.7522 106.773 41.6824 106.775ZM44.5812 104.055C44.5504 104.114 44.5246 104.174 44.5035 104.237C44.1986 104.402 43.8938 104.568 43.5891 104.733C43.8937 104.568 44.1984 104.402 44.503 104.237H44.5035C44.5246 104.174 44.5504 104.114 44.581 104.054C44.8166 103.974 45.0521 103.894 45.2875 103.814C45.0521 103.894 44.8166 103.974 44.5812 104.055ZM90.3528 47.8895L90.1611 47.6337C90.225 47.719 90.2889 47.8042 90.3528 47.8895L90.3528 47.8895ZM103.715 91.6671C103.533 91.6611 103.351 91.6551 103.169 91.649C103.351 91.655 103.533 91.661 103.715 91.6669C104.178 91.982 104.616 92.308 104.964 92.6811C104.616 92.308 104.178 91.9821 103.715 91.6671ZM106.098 93.2778L105.924 93.0067C105.982 93.0971 106.04 93.1874 106.098 93.2778C106.117 94.0297 106.136 94.7816 106.155 95.5335C106.136 94.7816 106.117 94.0297 106.098 93.2778ZM132.856 121.441C132.784 121.13 132.712 120.819 132.64 120.508L132.856 121.441C132.859 121.454 132.86 121.466 132.862 121.479C132.86 121.466 132.859 121.454 132.856 121.441ZM132.878 125.796H132.878C132.88 125.103 132.882 124.411 132.884 123.718C132.882 124.411 132.88 125.103 132.878 125.796ZM132.984 125.784C133.005 125.781 133.027 125.78 133.048 125.776C133.066 124.739 133.083 123.701 133.101 122.664C133.083 123.701 133.066 124.739 133.048 125.776C133.027 125.78 133.006 125.781 132.984 125.784ZM140.776 141.099C140.8 141.105 140.863 141.12 140.863 141.12L140.776 141.099ZM145.226 141.958C145.411 142.14 145.595 142.321 145.779 142.502C145.779 142.502 145.779 142.502 145.779 142.502C145.595 142.321 145.411 142.14 145.226 141.958ZM146.024 153.719C146.016 153.644 145.992 153.573 145.951 153.508C145.801 154.35 145.652 155.192 145.502 156.034C145.571 156.036 145.641 156.037 145.711 156.036C145.776 155.891 145.841 155.746 145.906 155.601C145.841 155.746 145.776 155.891 145.711 156.036C145.641 156.037 145.571 156.036 145.502 156.034C145.652 155.192 145.801 154.35 145.951 153.508C146.032 153.195 146.112 152.881 146.192 152.567C146.112 152.881 146.032 153.195 145.951 153.508C145.992 153.573 146.016 153.644 146.024 153.719C146.092 153.729 146.157 153.751 146.217 153.785C146.157 153.751 146.092 153.729 146.024 153.719Z" fill="black"/>
</g>
<g filter="url(#filter10_d_2098_13237)">
<path d="M96.4692 85.9431C96.3933 85.9256 96.3173 85.9246 96.241 85.94C96.325 86.0873 96.4091 86.2347 96.4933 86.382C96.4852 86.2357 96.4772 86.0894 96.4692 85.9431Z" fill="black"/>
</g>
<g filter="url(#filter11_d_2098_13237)">
<path d="M37.5745 134.766C37.5297 134.734 37.4844 134.702 37.4387 134.671L37.2121 135.127C37.1468 135.219 37.0815 135.311 37.0161 135.403C37.0319 135.49 37.0479 135.578 37.0639 135.666C37.1523 135.518 37.2407 135.371 37.3291 135.224C37.411 135.071 37.4927 134.919 37.5745 134.766Z" fill="black"/>
</g>
<g filter="url(#filter12_d_2098_13237)">
<path d="M34.9219 123.713C34.9223 123.862 34.9223 124.011 34.9222 124.16C34.9895 124.185 35.0591 124.196 35.131 124.192C35.1311 124.039 35.1311 123.886 35.1312 123.733C35.061 123.729 34.991 123.722 34.9219 123.713Z" fill="black"/>
</g>
<path d="M79.7044 135.107L79.5777 133.525C79.1973 130.241 80.3381 126.653 83.5071 123.003C86.3598 119.78 87.9441 117.408 87.9441 114.671C87.9441 111.569 85.9158 109.502 81.9229 109.441C79.6413 109.441 77.1055 110.171 75.5212 111.326L74 107.494C76.0913 106.034 79.7044 105.061 83.0642 105.061C90.3528 105.061 93.6485 109.38 93.6485 114.002C93.6485 118.138 91.2398 121.118 88.1974 124.584C85.4093 127.747 84.3951 130.423 84.5848 133.525L84.6484 135.107H79.7044ZM78.3098 143.622C78.3098 141.37 79.8946 139.789 82.1131 139.789C84.3316 139.789 85.8522 141.37 85.8522 143.622C85.8522 145.75 84.3951 147.392 82.0495 147.392C79.831 147.392 78.3098 145.75 78.3098 143.622Z" fill="white"/>
</g>
<defs>
<filter id="filter0_d_2098_13237" x="35.9082" y="8.90186" width="72.0007" height="72.0004" filterUnits="userSpaceOnUse" color-interpolation-filters="sRGB">
<feFlood flood-opacity="0" result="BackgroundImageFix"/>
<feColorMatrix in="SourceAlpha" type="matrix" values="0 0 0 0 0 0 0 0 0 0 0 0 0 0 0 0 0 0 127 0" result="hardAlpha"/>
<feOffset/>
<feGaussianBlur stdDeviation="18"/>
<feColorMatrix type="matrix" values="0 0 0 0 0.717647 0 0 0 0 0.717647 0 0 0 0 0.717647 0 0 0 0.8 0"/>
<feBlend mode="normal" in2="BackgroundImageFix" result="effect1_dropShadow_2098_13237"/>
<feBlend mode="normal" in="SourceGraphic" in2="effect1_dropShadow_2098_13237" result="shape"/>
</filter>
<filter id="filter1_d_2098_13237" x="-0.139648" y="79.2564" width="72.0022" height="72.0028" filterUnits="userSpaceOnUse" color-interpolation-filters="sRGB">
<feFlood flood-opacity="0" result="BackgroundImageFix"/>
<feColorMatrix in="SourceAlpha" type="matrix" values="0 0 0 0 0 0 0 0 0 0 0 0 0 0 0 0 0 0 127 0" result="hardAlpha"/>
<feOffset/>
<feGaussianBlur stdDeviation="18"/>
<feColorMatrix type="matrix" values="0 0 0 0 0.717647 0 0 0 0 0.717647 0 0 0 0 0.717647 0 0 0 0.8 0"/>
<feBlend mode="normal" in2="BackgroundImageFix" result="effect1_dropShadow_2098_13237"/>
<feBlend mode="normal" in="SourceGraphic" in2="effect1_dropShadow_2098_13237" result="shape"/>
</filter>
<filter id="filter2_d_2098_13237" x="-4.91943" y="120.5" width="72.001" height="72.0014" filterUnits="userSpaceOnUse" color-interpolation-filters="sRGB">
<feFlood flood-opacity="0" result="BackgroundImageFix"/>
<feColorMatrix in="SourceAlpha" type="matrix" values="0 0 0 0 0 0 0 0 0 0 0 0 0 0 0 0 0 0 127 0" result="hardAlpha"/>
<feOffset/>
<feGaussianBlur stdDeviation="18"/>
<feColorMatrix type="matrix" values="0 0 0 0 0.717647 0 0 0 0 0.717647 0 0 0 0 0.717647 0 0 0 0.8 0"/>
<feBlend mode="normal" in2="BackgroundImageFix" result="effect1_dropShadow_2098_13237"/>
<feBlend mode="normal" in="SourceGraphic" in2="effect1_dropShadow_2098_13237" result="shape"/>
</filter>
<filter id="filter3_d_2098_13237" x="36.3928" y="8.68103" width="72.0005" height="72.0001" filterUnits="userSpaceOnUse" color-interpolation-filters="sRGB">
<feFlood flood-opacity="0" result="BackgroundImageFix"/>
<feColorMatrix in="SourceAlpha" type="matrix" values="0 0 0 0 0 0 0 0 0 0 0 0 0 0 0 0 0 0 127 0" result="hardAlpha"/>
<feOffset/>
<feGaussianBlur stdDeviation="18"/>
<feColorMatrix type="matrix" values="0 0 0 0 0.717647 0 0 0 0 0.717647 0 0 0 0 0.717647 0 0 0 0.8 0"/>
<feBlend mode="normal" in2="BackgroundImageFix" result="effect1_dropShadow_2098_13237"/>
<feBlend mode="normal" in="SourceGraphic" in2="effect1_dropShadow_2098_13237" result="shape"/>
</filter>
<filter id="filter4_d_2098_13237" x="12.9829" y="65.9567" width="72.7156" height="72.459" filterUnits="userSpaceOnUse" color-interpolation-filters="sRGB">
<feFlood flood-opacity="0" result="BackgroundImageFix"/>
<feColorMatrix in="SourceAlpha" type="matrix" values="0 0 0 0 0 0 0 0 0 0 0 0 0 0 0 0 0 0 127 0" result="hardAlpha"/>
<feOffset/>
<feGaussianBlur stdDeviation="18"/>
<feColorMatrix type="matrix" values="0 0 0 0 0.717647 0 0 0 0 0.717647 0 0 0 0 0.717647 0 0 0 0.8 0"/>
<feBlend mode="normal" in2="BackgroundImageFix" result="effect1_dropShadow_2098_13237"/>
<feBlend mode="normal" in="SourceGraphic" in2="effect1_dropShadow_2098_13237" result="shape"/>
</filter>
<filter id="filter5_d_2098_13237" x="96.8083" y="82.9059" width="72.207" height="72.4876" filterUnits="userSpaceOnUse" color-interpolation-filters="sRGB">
<feFlood flood-opacity="0" result="BackgroundImageFix"/>
<feColorMatrix in="SourceAlpha" type="matrix" values="0 0 0 0 0 0 0 0 0 0 0 0 0 0 0 0 0 0 127 0" result="hardAlpha"/>
<feOffset/>
<feGaussianBlur stdDeviation="18"/>
<feColorMatrix type="matrix" values="0 0 0 0 0.717647 0 0 0 0 0.717647 0 0 0 0 0.717647 0 0 0 0.8 0"/>
<feBlend mode="normal" in2="BackgroundImageFix" result="effect1_dropShadow_2098_13237"/>
<feBlend mode="normal" in="SourceGraphic" in2="effect1_dropShadow_2098_13237" result="shape"/>
</filter>
<filter id="filter6_d_2098_13237" x="27.7896" y="46.251" width="72.1919" height="72.4781" filterUnits="userSpaceOnUse" color-interpolation-filters="sRGB">
<feFlood flood-opacity="0" result="BackgroundImageFix"/>
<feColorMatrix in="SourceAlpha" type="matrix" values="0 0 0 0 0 0 0 0 0 0 0 0 0 0 0 0 0 0 127 0" result="hardAlpha"/>
<feOffset/>
<feGaussianBlur stdDeviation="18"/>
<feColorMatrix type="matrix" values="0 0 0 0 0.717647 0 0 0 0 0.717647 0 0 0 0 0.717647 0 0 0 0.8 0"/>
<feBlend mode="normal" in2="BackgroundImageFix" result="effect1_dropShadow_2098_13237"/>
<feBlend mode="normal" in="SourceGraphic" in2="effect1_dropShadow_2098_13237" result="shape"/>
</filter>
<filter id="filter7_d_2098_13237" x="4.17163" y="74.4075" width="72.5295" height="72.2819" filterUnits="userSpaceOnUse" color-interpolation-filters="sRGB">
<feFlood flood-opacity="0" result="BackgroundImageFix"/>
<feColorMatrix in="SourceAlpha" type="matrix" values="0 0 0 0 0 0 0 0 0 0 0 0 0 0 0 0 0 0 127 0" result="hardAlpha"/>
<feOffset/>
<feGaussianBlur stdDeviation="18"/>
<feColorMatrix type="matrix" values="0 0 0 0 0.717647 0 0 0 0 0.717647 0 0 0 0 0.717647 0 0 0 0.8 0"/>
<feBlend mode="normal" in2="BackgroundImageFix" result="effect1_dropShadow_2098_13237"/>
<feBlend mode="normal" in="SourceGraphic" in2="effect1_dropShadow_2098_13237" result="shape"/>
</filter>
<filter id="filter8_d_2098_13237" x="33.5012" y="9.83087" width="72.2815" height="72.1722" filterUnits="userSpaceOnUse" color-interpolation-filters="sRGB">
<feFlood flood-opacity="0" result="BackgroundImageFix"/>
<feColorMatrix in="SourceAlpha" type="matrix" values="0 0 0 0 0 0 0 0 0 0 0 0 0 0 0 0 0 0 127 0" result="hardAlpha"/>
<feOffset/>
<feGaussianBlur stdDeviation="18"/>
<feColorMatrix type="matrix" values="0 0 0 0 0.717647 0 0 0 0 0.717647 0 0 0 0 0.717647 0 0 0 0.8 0"/>
<feBlend mode="normal" in2="BackgroundImageFix" result="effect1_dropShadow_2098_13237"/>
<feBlend mode="normal" in="SourceGraphic" in2="effect1_dropShadow_2098_13237" result="shape"/>
</filter>
<filter id="filter9_d_2098_13237" x="1" y="16" width="175.658" height="178.122" filterUnits="userSpaceOnUse" color-interpolation-filters="sRGB">
<feFlood flood-opacity="0" result="BackgroundImageFix"/>
<feColorMatrix in="SourceAlpha" type="matrix" values="0 0 0 0 0 0 0 0 0 0 0 0 0 0 0 0 0 0 127 0" result="hardAlpha"/>
<feOffset/>
<feGaussianBlur stdDeviation="14"/>
<feColorMatrix type="matrix" values="0 0 0 0 0.976471 0 0 0 0 0.498039 0 0 0 0 0.305882 0 0 0 1 0"/>
<feBlend mode="normal" in2="BackgroundImageFix" result="effect1_dropShadow_2098_13237"/>
<feBlend mode="normal" in="SourceGraphic" in2="effect1_dropShadow_2098_13237" result="shape"/>
</filter>
<filter id="filter10_d_2098_13237" x="60.241" y="49.9292" width="72.2522" height="72.4528" filterUnits="userSpaceOnUse" color-interpolation-filters="sRGB">
<feFlood flood-opacity="0" result="BackgroundImageFix"/>
<feColorMatrix in="SourceAlpha" type="matrix" values="0 0 0 0 0 0 0 0 0 0 0 0 0 0 0 0 0 0 127 0" result="hardAlpha"/>
<feOffset/>
<feGaussianBlur stdDeviation="18"/>
<feColorMatrix type="matrix" values="0 0 0 0 0.717647 0 0 0 0 0.717647 0 0 0 0 0.717647 0 0 0 0.8 0"/>
<feBlend mode="normal" in2="BackgroundImageFix" result="effect1_dropShadow_2098_13237"/>
<feBlend mode="normal" in="SourceGraphic" in2="effect1_dropShadow_2098_13237" result="shape"/>
</filter>
<filter id="filter11_d_2098_13237" x="1.01611" y="98.6712" width="72.5583" height="72.9945" filterUnits="userSpaceOnUse" color-interpolation-filters="sRGB">
<feFlood flood-opacity="0" result="BackgroundImageFix"/>
<feColorMatrix in="SourceAlpha" type="matrix" values="0 0 0 0 0 0 0 0 0 0 0 0 0 0 0 0 0 0 127 0" result="hardAlpha"/>
<feOffset/>
<feGaussianBlur stdDeviation="18"/>
<feColorMatrix type="matrix" values="0 0 0 0 0.717647 0 0 0 0 0.717647 0 0 0 0 0.717647 0 0 0 0.8 0"/>
<feBlend mode="normal" in2="BackgroundImageFix" result="effect1_dropShadow_2098_13237"/>
<feBlend mode="normal" in="SourceGraphic" in2="effect1_dropShadow_2098_13237" result="shape"/>
</filter>
<filter id="filter12_d_2098_13237" x="-1.07812" y="87.7129" width="72.2092" height="72.4798" filterUnits="userSpaceOnUse" color-interpolation-filters="sRGB">
<feFlood flood-opacity="0" result="BackgroundImageFix"/>
<feColorMatrix in="SourceAlpha" type="matrix" values="0 0 0 0 0 0 0 0 0 0 0 0 0 0 0 0 0 0 127 0" result="hardAlpha"/>
<feOffset/>
<feGaussianBlur stdDeviation="18"/>
<feColorMatrix type="matrix" values="0 0 0 0 0.717647 0 0 0 0 0.717647 0 0 0 0 0.717647 0 0 0 0.8 0"/>
<feBlend mode="normal" in2="BackgroundImageFix" result="effect1_dropShadow_2098_13237"/>
<feBlend mode="normal" in="SourceGraphic" in2="effect1_dropShadow_2098_13237" result="shape"/>
</filter>
<clipPath id="clip0_2098_13237">
<path d="M0 7C0 3.13401 3.13401 0 7 0H164C167.866 0 171 3.13401 171 7V166H0V7Z" fill="white"/>
</clipPath>
</defs>
</svg>
