<!-- width="333" height="557" -->

<svg preserveAspectRatio="none" viewBox="0 0 333 557" fill="none" xmlns="http://www.w3.org/2000/svg">
<rect x="8" y="9" width="318" height="532" fill="#15143D"/>
<path d="M130.85 551.072H54.2181L26 541H150.641L130.85 551.072Z" fill="#FF4800"/>
<path d="M8 128.382L0 115.345V22.0364L8 9.00006V128.382Z" fill="url(#paint0_linear_2643_13240)"/>
<path opacity="0.5" d="M8 215.309L16 205.124V132.194L8 122V215.309Z" fill="url(#paint1_linear_2643_13240)"/>
<path d="M326 196L330 186.718V120.282L326 111V196Z" fill="url(#paint2_linear_2643_13240)"/>
<path d="M326.145 122.288L323.145 117.807V85.7963L326.145 81.324V122.288Z" fill="url(#paint3_linear_2643_13240)"/>
<path d="M302.286 0.266299V5.06758L315.205 22.667H326.038V35.8646H323.382L324.324 55.4614L326.038 57.0592V88.7883H330.781V37.5956L332.286 34.4V5.60017L327.91 0L302.286 0.266299Z" fill="url(#paint4_linear_2643_13240)"/>
<path d="M326.102 540.35L274.042 541.384V546.33H313.184V553.766H324.916L332.203 544.27V526.109L326.102 518.165V540.35Z" fill="url(#paint5_linear_2643_13240)"/>
<path d="M268.35 543.203H266.866V548.917H262.484V550.84H266.866V556.546H268.35V550.84H272.732V548.917H268.35V543.203Z" fill="url(#paint6_linear_2643_13240)"/>
<path d="M277.952 548.779H274.781V550.978H277.952V548.779Z" fill="url(#paint7_linear_2643_13240)"/>
<path d="M282.925 548.779H279.753V550.978H282.925V548.779Z" fill="url(#paint8_linear_2643_13240)"/>
<path d="M288.511 548.779H285.339V550.978H288.511V548.779Z" fill="url(#paint9_linear_2643_13240)"/>
<path d="M294.104 548.779H290.932V550.978H294.104V548.779Z" fill="url(#paint10_linear_2643_13240)"/>
<path d="M300.317 548.779H297.145V550.978H300.317V548.779Z" fill="url(#paint11_linear_2643_13240)"/>
<path d="M305.289 548.779H302.117V550.978H305.289V548.779Z" fill="url(#paint12_linear_2643_13240)"/>
<path d="M311.496 548.779H308.324V550.978H311.496V548.779Z" fill="url(#paint13_linear_2643_13240)"/>
<path d="M267.611 537.19H322.75V534.304H234.794C234.285 532.761 233.106 531.686 231.734 531.686C229.89 531.686 228.401 533.633 228.401 536.026C228.401 538.418 229.897 540.366 231.734 540.366C233.106 540.366 234.285 539.283 234.794 537.747H247.842V536.923H267.611V537.198V537.19Z" fill="url(#paint14_linear_2643_13240)"/>
<path d="M326.495 465.546L325.697 466.784L331.594 473.225L332.392 471.986L326.495 465.546Z" fill="url(#paint15_linear_2643_13240)"/>
<path d="M326.499 471.969L325.701 473.208L331.598 479.648L332.396 478.41L326.499 471.969Z" fill="url(#paint16_linear_2643_13240)"/>
<path d="M326.497 476.823L325.699 478.062L331.596 484.502L332.394 483.264L326.497 476.823Z" fill="url(#paint17_linear_2643_13240)"/>
<path d="M326.504 482.485L325.706 483.723L331.603 490.164L332.401 488.925L326.504 482.485Z" fill="url(#paint18_linear_2643_13240)"/>
<path d="M326.493 488.189L325.695 489.428L331.592 495.868L332.39 494.63L326.493 488.189Z" fill="url(#paint19_linear_2643_13240)"/>
<path d="M326.5 493.811L325.702 495.049L331.599 501.49L332.397 500.251L326.5 493.811Z" fill="url(#paint20_linear_2643_13240)"/>
<path d="M326.498 498.665L325.7 499.903L331.597 506.344L332.395 505.105L326.498 498.665Z" fill="url(#paint21_linear_2643_13240)"/>
<path d="M326.498 504.326L325.701 505.564L331.598 512.005L332.396 510.766L326.498 504.326Z" fill="url(#paint22_linear_2643_13240)"/>
<path d="M326.497 509.18L325.699 510.418L331.596 516.859L332.394 515.62L326.497 509.18Z" fill="url(#paint23_linear_2643_13240)"/>
<path d="M326.493 514.079L325.695 515.318L331.592 521.758L332.39 520.52L326.493 514.079Z" fill="url(#paint24_linear_2643_13240)"/>
<path d="M55.8097 0.273721L56.7664 1.31769L51.7914 9.03417L50.8348 7.9902L55.8097 0.273721Z" fill="url(#paint25_linear_2643_13240)"/>
<path d="M60.8085 0.288186L61.7651 1.33215L56.7902 9.04863L55.8336 8.00467L60.8085 0.288186Z" fill="url(#paint26_linear_2643_13240)"/>
<path d="M64.5585 0.284951L65.5151 1.32892L60.5402 9.0454L59.5836 8.00143L64.5585 0.284951Z" fill="url(#paint27_linear_2643_13240)"/>
<path d="M68.9291 0.288919L69.8857 1.33289L64.9108 9.04937L63.9542 8.0054L68.9291 0.288919Z" fill="url(#paint28_linear_2643_13240)"/>
<path d="M73.3014 0.279702L74.2581 1.32367L69.2831 9.04015L68.3265 7.99618L73.3014 0.279702Z" fill="url(#paint29_linear_2643_13240)"/>
<path d="M77.6779 0.29197L78.6345 1.33594L73.6596 9.05242L72.703 8.00845L77.6779 0.29197Z" fill="url(#paint30_linear_2643_13240)"/>
<path d="M81.4279 0.288552L82.3845 1.33252L77.4096 9.049L76.453 8.00503L81.4279 0.288552Z" fill="url(#paint31_linear_2643_13240)"/>
<path d="M85.7985 0.284463L86.7551 1.32843L81.7802 9.04491L80.8236 8.00094L85.7985 0.284463Z" fill="url(#paint32_linear_2643_13240)"/>
<path d="M89.5488 0.289287L90.5054 1.33325L85.5304 9.04973L84.5738 8.00577L89.5488 0.289287Z" fill="url(#paint33_linear_2643_13240)"/>
<path d="M93.2912 0.282998L94.2478 1.32697L89.2728 9.04345L88.3162 7.99948L93.2912 0.282998Z" fill="url(#paint34_linear_2643_13240)"/>
<path d="M13.9516 0.293992L14.9084 1.33752L9.93556 9.05626L8.97867 8.01273L13.9516 0.293992Z" fill="url(#paint35_linear_2643_13240)"/>
<path d="M18.9443 0.282998L19.9009 1.32697L14.9259 9.04345L13.9693 7.99948L18.9443 0.282998Z" fill="url(#paint36_linear_2643_13240)"/>
<path d="M22.6991 0.284951L23.6558 1.32892L18.6808 9.0454L17.7242 8.00143L22.6991 0.284951Z" fill="url(#paint37_linear_2643_13240)"/>
<path d="M27.0712 0.283853L28.0278 1.32782L23.0529 9.0443L22.0963 8.00033L27.0712 0.283853Z" fill="url(#paint38_linear_2643_13240)"/>
<path d="M31.4418 0.271646L32.3984 1.31561L27.4235 9.03209L26.4669 7.98813L31.4418 0.271646Z" fill="url(#paint39_linear_2643_13240)"/>
<path d="M35.8136 0.28666L36.7703 1.33063L31.7953 9.04711L30.8387 8.00314L35.8136 0.28666Z" fill="url(#paint40_linear_2643_13240)"/>
<path d="M39.5685 0.288552L40.5251 1.33252L35.5502 9.049L34.5936 8.00503L39.5685 0.288552Z" fill="url(#paint41_linear_2643_13240)"/>
<path d="M43.9343 0.287515L44.8909 1.33148L39.9159 9.04796L38.9593 8.00399L43.9343 0.287515Z" fill="url(#paint42_linear_2643_13240)"/>
<path d="M47.6891 0.289285L48.6458 1.33325L43.6708 9.04973L42.7142 8.00576L47.6891 0.289285Z" fill="url(#paint43_linear_2643_13240)"/>
<path d="M51.4333 0.269815L52.3899 1.31378L47.4149 9.03026L46.4583 7.98629L51.4333 0.269815Z" fill="url(#paint44_linear_2643_13240)"/>
<path d="M14.2515 344.013V271.862H12.0227V335.598V344.013V369.882V374.999V386.955C10.8303 387.621 10 389.165 10 390.96C10 393.372 11.5046 395.321 13.3525 395.321C15.2004 395.321 16.7049 393.364 16.7049 390.96C16.7049 389.165 15.8684 387.621 14.6822 386.955V369.882H14.0454V344.013H14.2577H14.2515Z" fill="url(#paint45_linear_2643_13240)"/>
<path d="M6.95543 462.153L1.02441 468.625L1.82683 469.87L7.75784 463.397L6.95543 462.153Z" fill="url(#paint46_linear_2643_13240)"/>
<path d="M6.93102 468.675L1 475.147L1.80241 476.392L7.73343 469.919L6.93102 468.675Z" fill="url(#paint47_linear_2643_13240)"/>
<path d="M6.93907 473.56L1.00806 480.032L1.81047 481.277L7.74148 474.804L6.93907 473.56Z" fill="url(#paint48_linear_2643_13240)"/>
<path d="M6.9315 479.24L1.00049 485.713L1.8029 486.957L7.73392 480.485L6.9315 479.24Z" fill="url(#paint49_linear_2643_13240)"/>
<path d="M6.96007 484.91L1.02905 491.382L1.83146 492.627L7.76248 486.154L6.96007 484.91Z" fill="url(#paint50_linear_2643_13240)"/>
<path d="M6.93419 490.622L1.00317 497.095L1.80559 498.34L7.7366 491.867L6.93419 490.622Z" fill="url(#paint51_linear_2643_13240)"/>
<path d="M6.93565 495.499L1.00464 501.972L1.80705 503.217L7.73807 496.744L6.93565 495.499Z" fill="url(#paint52_linear_2643_13240)"/>
<path d="M6.93468 501.187L1.00366 507.66L1.80607 508.905L7.73709 502.432L6.93468 501.187Z" fill="url(#paint53_linear_2643_13240)"/>
<path d="M6.93614 506.073L1.00513 512.545L1.80754 513.79L7.73855 507.317L6.93614 506.073Z" fill="url(#paint54_linear_2643_13240)"/>
<path d="M6.9586 510.919L1.02759 517.392L1.83 518.636L7.76102 512.164L6.9586 510.919Z" fill="url(#paint55_linear_2643_13240)"/>
<defs>
<linearGradient id="paint0_linear_2643_13240" x1="0" y1="68.6909" x2="8" y2="68.6909" gradientUnits="userSpaceOnUse">
<stop stop-color="#F16A23"/>
<stop offset="0.19" stop-color="#F06223"/>
<stop offset="1" stop-color="#ED3725"/>
</linearGradient>
<linearGradient id="paint1_linear_2643_13240" x1="8" y1="168.655" x2="16" y2="168.655" gradientUnits="userSpaceOnUse">
<stop stop-color="#F16A23"/>
<stop offset="0.19" stop-color="#F06223"/>
<stop offset="1" stop-color="#ED3725"/>
</linearGradient>
<linearGradient id="paint2_linear_2643_13240" x1="326" y1="153.504" x2="330" y2="153.504" gradientUnits="userSpaceOnUse">
<stop stop-color="#F16A23"/>
<stop offset="0.53" stop-color="#EF5023"/>
<stop offset="1" stop-color="#ED3725"/>
</linearGradient>
<linearGradient id="paint3_linear_2643_13240" x1="323.145" y1="101.806" x2="326.145" y2="101.806" gradientUnits="userSpaceOnUse">
<stop stop-color="#F16A23"/>
<stop offset="0.53" stop-color="#EF5023"/>
<stop offset="1" stop-color="#ED3725"/>
</linearGradient>
<linearGradient id="paint4_linear_2643_13240" x1="302.286" y1="44.3942" x2="332.286" y2="44.3942" gradientUnits="userSpaceOnUse">
<stop stop-color="#F16A23"/>
<stop offset="0.53" stop-color="#EF5023"/>
<stop offset="1" stop-color="#ED3725"/>
</linearGradient>
<linearGradient id="paint5_linear_2643_13240" x1="274.042" y1="535.961" x2="332.203" y2="535.961" gradientUnits="userSpaceOnUse">
<stop stop-color="#F16A23"/>
<stop offset="0.19" stop-color="#F06223"/>
<stop offset="1" stop-color="#ED3725"/>
</linearGradient>
<linearGradient id="paint6_linear_2643_13240" x1="262.484" y1="549.878" x2="272.732" y2="549.878" gradientUnits="userSpaceOnUse">
<stop stop-color="#F16A23"/>
<stop offset="0.19" stop-color="#F06223"/>
<stop offset="1" stop-color="#ED3725"/>
</linearGradient>
<linearGradient id="paint7_linear_2643_13240" x1="274.781" y1="549.878" x2="277.952" y2="549.878" gradientUnits="userSpaceOnUse">
<stop stop-color="#F16A23"/>
<stop offset="0.19" stop-color="#F06223"/>
<stop offset="1" stop-color="#ED3725"/>
</linearGradient>
<linearGradient id="paint8_linear_2643_13240" x1="279.753" y1="549.878" x2="282.918" y2="549.878" gradientUnits="userSpaceOnUse">
<stop stop-color="#F16A23"/>
<stop offset="0.19" stop-color="#F06223"/>
<stop offset="1" stop-color="#ED3725"/>
</linearGradient>
<linearGradient id="paint9_linear_2643_13240" x1="285.339" y1="549.878" x2="288.511" y2="549.878" gradientUnits="userSpaceOnUse">
<stop stop-color="#F16A23"/>
<stop offset="0.19" stop-color="#F06223"/>
<stop offset="1" stop-color="#ED3725"/>
</linearGradient>
<linearGradient id="paint10_linear_2643_13240" x1="290.932" y1="549.878" x2="294.104" y2="549.878" gradientUnits="userSpaceOnUse">
<stop stop-color="#F16A23"/>
<stop offset="0.19" stop-color="#F06223"/>
<stop offset="1" stop-color="#ED3725"/>
</linearGradient>
<linearGradient id="paint11_linear_2643_13240" x1="297.145" y1="549.878" x2="300.317" y2="549.878" gradientUnits="userSpaceOnUse">
<stop stop-color="#F16A23"/>
<stop offset="0.19" stop-color="#F06223"/>
<stop offset="1" stop-color="#ED3725"/>
</linearGradient>
<linearGradient id="paint12_linear_2643_13240" x1="302.117" y1="549.878" x2="305.283" y2="549.878" gradientUnits="userSpaceOnUse">
<stop stop-color="#F16A23"/>
<stop offset="0.19" stop-color="#F06223"/>
<stop offset="1" stop-color="#ED3725"/>
</linearGradient>
<linearGradient id="paint13_linear_2643_13240" x1="308.324" y1="549.878" x2="311.496" y2="549.878" gradientUnits="userSpaceOnUse">
<stop stop-color="#F16A23"/>
<stop offset="0.19" stop-color="#F06223"/>
<stop offset="1" stop-color="#ED3725"/>
</linearGradient>
<linearGradient id="paint14_linear_2643_13240" x1="228.401" y1="536.018" x2="322.75" y2="536.018" gradientUnits="userSpaceOnUse">
<stop stop-color="#F16A23"/>
<stop offset="0.19" stop-color="#F06223"/>
<stop offset="1" stop-color="#ED3725"/>
</linearGradient>
<linearGradient id="paint15_linear_2643_13240" x1="325.728" y1="469.359" x2="332.425" y2="469.359" gradientUnits="userSpaceOnUse">
<stop stop-color="#F16A23"/>
<stop offset="0.19" stop-color="#F06223"/>
<stop offset="1" stop-color="#ED3725"/>
</linearGradient>
<linearGradient id="paint16_linear_2643_13240" x1="325.699" y1="475.798" x2="332.396" y2="475.798" gradientUnits="userSpaceOnUse">
<stop stop-color="#F16A23"/>
<stop offset="0.19" stop-color="#F06223"/>
<stop offset="1" stop-color="#ED3725"/>
</linearGradient>
<linearGradient id="paint17_linear_2643_13240" x1="325.701" y1="480.661" x2="332.398" y2="480.661" gradientUnits="userSpaceOnUse">
<stop stop-color="#F16A23"/>
<stop offset="0.19" stop-color="#F06223"/>
<stop offset="1" stop-color="#ED3725"/>
</linearGradient>
<linearGradient id="paint18_linear_2643_13240" x1="325.705" y1="486.321" x2="332.402" y2="486.321" gradientUnits="userSpaceOnUse">
<stop stop-color="#F16A23"/>
<stop offset="0.19" stop-color="#F06223"/>
<stop offset="1" stop-color="#ED3725"/>
</linearGradient>
<linearGradient id="paint19_linear_2643_13240" x1="325.726" y1="492" x2="332.423" y2="492" gradientUnits="userSpaceOnUse">
<stop stop-color="#F16A23"/>
<stop offset="0.19" stop-color="#F06223"/>
<stop offset="1" stop-color="#ED3725"/>
</linearGradient>
<linearGradient id="paint20_linear_2643_13240" x1="325.701" y1="497.651" x2="332.399" y2="497.651" gradientUnits="userSpaceOnUse">
<stop stop-color="#F16A23"/>
<stop offset="0.19" stop-color="#F06223"/>
<stop offset="1" stop-color="#ED3725"/>
</linearGradient>
<linearGradient id="paint21_linear_2643_13240" x1="325.703" y1="502.506" x2="332.401" y2="502.506" gradientUnits="userSpaceOnUse">
<stop stop-color="#F16A23"/>
<stop offset="0.19" stop-color="#F06223"/>
<stop offset="1" stop-color="#ED3725"/>
</linearGradient>
<linearGradient id="paint22_linear_2643_13240" x1="325.701" y1="508.165" x2="332.399" y2="508.165" gradientUnits="userSpaceOnUse">
<stop stop-color="#F16A23"/>
<stop offset="0.19" stop-color="#F06223"/>
<stop offset="1" stop-color="#ED3725"/>
</linearGradient>
<linearGradient id="paint23_linear_2643_13240" x1="325.698" y1="513.015" x2="332.396" y2="513.015" gradientUnits="userSpaceOnUse">
<stop stop-color="#F16A23"/>
<stop offset="0.19" stop-color="#F06223"/>
<stop offset="1" stop-color="#ED3725"/>
</linearGradient>
<linearGradient id="paint24_linear_2643_13240" x1="325.728" y1="517.892" x2="332.425" y2="517.892" gradientUnits="userSpaceOnUse">
<stop stop-color="#F16A23"/>
<stop offset="0.19" stop-color="#F06223"/>
<stop offset="1" stop-color="#ED3725"/>
</linearGradient>
<linearGradient id="paint25_linear_2643_13240" x1="56.7804" y1="4.65131" x2="50.8496" y2="4.6513" gradientUnits="userSpaceOnUse">
<stop stop-color="#F16A23"/>
<stop offset="0.19" stop-color="#F06223"/>
<stop offset="1" stop-color="#ED3725"/>
</linearGradient>
<linearGradient id="paint26_linear_2643_13240" x1="61.772" y1="4.6604" x2="55.8412" y2="4.6604" gradientUnits="userSpaceOnUse">
<stop stop-color="#F16A23"/>
<stop offset="0.19" stop-color="#F06223"/>
<stop offset="1" stop-color="#ED3725"/>
</linearGradient>
<linearGradient id="paint27_linear_2643_13240" x1="65.5189" y1="4.6581" x2="59.5881" y2="4.6581" gradientUnits="userSpaceOnUse">
<stop stop-color="#F16A23"/>
<stop offset="0.19" stop-color="#F06223"/>
<stop offset="1" stop-color="#ED3725"/>
</linearGradient>
<linearGradient id="paint28_linear_2643_13240" x1="69.8919" y1="4.65935" x2="63.9611" y2="4.65935" gradientUnits="userSpaceOnUse">
<stop stop-color="#F16A23"/>
<stop offset="0.19" stop-color="#F06223"/>
<stop offset="1" stop-color="#ED3725"/>
</linearGradient>
<linearGradient id="paint29_linear_2643_13240" x1="74.2699" y1="4.65786" x2="68.3391" y2="4.65785" gradientUnits="userSpaceOnUse">
<stop stop-color="#F16A23"/>
<stop offset="0.19" stop-color="#F06223"/>
<stop offset="1" stop-color="#ED3725"/>
</linearGradient>
<linearGradient id="paint30_linear_2643_13240" x1="78.6352" y1="4.66319" x2="72.7044" y2="4.66319" gradientUnits="userSpaceOnUse">
<stop stop-color="#F16A23"/>
<stop offset="0.19" stop-color="#F06223"/>
<stop offset="1" stop-color="#ED3725"/>
</linearGradient>
<linearGradient id="paint31_linear_2643_13240" x1="82.3869" y1="4.66593" x2="76.456" y2="4.66593" gradientUnits="userSpaceOnUse">
<stop stop-color="#F16A23"/>
<stop offset="0.19" stop-color="#F06223"/>
<stop offset="1" stop-color="#ED3725"/>
</linearGradient>
<linearGradient id="paint32_linear_2643_13240" x1="86.7598" y1="4.65912" x2="80.829" y2="4.65912" gradientUnits="userSpaceOnUse">
<stop stop-color="#F16A23"/>
<stop offset="0.19" stop-color="#F06223"/>
<stop offset="1" stop-color="#ED3725"/>
</linearGradient>
<linearGradient id="paint33_linear_2643_13240" x1="90.507" y1="4.66488" x2="84.5762" y2="4.66488" gradientUnits="userSpaceOnUse">
<stop stop-color="#F16A23"/>
<stop offset="0.19" stop-color="#F06223"/>
<stop offset="1" stop-color="#ED3725"/>
</linearGradient>
<linearGradient id="paint34_linear_2643_13240" x1="94.2613" y1="4.65853" x2="88.3305" y2="4.65853" gradientUnits="userSpaceOnUse">
<stop stop-color="#F16A23"/>
<stop offset="0.19" stop-color="#F06223"/>
<stop offset="1" stop-color="#ED3725"/>
</linearGradient>
<linearGradient id="paint35_linear_2643_13240" x1="14.9121" y1="4.66772" x2="8.98133" y2="4.66771" gradientUnits="userSpaceOnUse">
<stop stop-color="#F16A23"/>
<stop offset="0.19" stop-color="#F06223"/>
<stop offset="1" stop-color="#ED3725"/>
</linearGradient>
<linearGradient id="paint36_linear_2643_13240" x1="19.906" y1="4.65998" x2="13.9751" y2="4.65997" gradientUnits="userSpaceOnUse">
<stop stop-color="#F16A23"/>
<stop offset="0.19" stop-color="#F06223"/>
<stop offset="1" stop-color="#ED3725"/>
</linearGradient>
<linearGradient id="paint37_linear_2643_13240" x1="23.6592" y1="4.65765" x2="17.7284" y2="4.65765" gradientUnits="userSpaceOnUse">
<stop stop-color="#F16A23"/>
<stop offset="0.19" stop-color="#F06223"/>
<stop offset="1" stop-color="#ED3725"/>
</linearGradient>
<linearGradient id="paint38_linear_2643_13240" x1="28.0322" y1="4.65905" x2="22.1014" y2="4.65905" gradientUnits="userSpaceOnUse">
<stop stop-color="#F16A23"/>
<stop offset="0.19" stop-color="#F06223"/>
<stop offset="1" stop-color="#ED3725"/>
</linearGradient>
<linearGradient id="paint39_linear_2643_13240" x1="32.4099" y1="4.64935" x2="26.4791" y2="4.64935" gradientUnits="userSpaceOnUse">
<stop stop-color="#F16A23"/>
<stop offset="0.19" stop-color="#F06223"/>
<stop offset="1" stop-color="#ED3725"/>
</linearGradient>
<linearGradient id="paint40_linear_2643_13240" x1="36.7739" y1="4.66787" x2="30.8431" y2="4.66786" gradientUnits="userSpaceOnUse">
<stop stop-color="#F16A23"/>
<stop offset="0.19" stop-color="#F06223"/>
<stop offset="1" stop-color="#ED3725"/>
</linearGradient>
<linearGradient id="paint41_linear_2643_13240" x1="40.5271" y1="4.66548" x2="34.5963" y2="4.66548" gradientUnits="userSpaceOnUse">
<stop stop-color="#F16A23"/>
<stop offset="0.19" stop-color="#F06223"/>
<stop offset="1" stop-color="#ED3725"/>
</linearGradient>
<linearGradient id="paint42_linear_2643_13240" x1="44.8938" y1="4.66694" x2="38.9629" y2="4.66694" gradientUnits="userSpaceOnUse">
<stop stop-color="#F16A23"/>
<stop offset="0.19" stop-color="#F06223"/>
<stop offset="1" stop-color="#ED3725"/>
</linearGradient>
<linearGradient id="paint43_linear_2643_13240" x1="48.647" y1="4.66443" x2="42.7162" y2="4.66443" gradientUnits="userSpaceOnUse">
<stop stop-color="#F16A23"/>
<stop offset="0.19" stop-color="#F06223"/>
<stop offset="1" stop-color="#ED3725"/>
</linearGradient>
<linearGradient id="paint44_linear_2643_13240" x1="52.4016" y1="4.65012" x2="46.4708" y2="4.65012" gradientUnits="userSpaceOnUse">
<stop stop-color="#F16A23"/>
<stop offset="0.19" stop-color="#F06223"/>
<stop offset="1" stop-color="#ED3725"/>
</linearGradient>
<linearGradient id="paint45_linear_2643_13240" x1="13.3525" y1="395.321" x2="13.3525" y2="271.862" gradientUnits="userSpaceOnUse">
<stop stop-color="#F16A23"/>
<stop offset="0.19" stop-color="#F06223"/>
<stop offset="1" stop-color="#ED3725"/>
</linearGradient>
<linearGradient id="paint46_linear_2643_13240" x1="7.71819" y1="465.821" x2="0.988293" y2="465.821" gradientUnits="userSpaceOnUse">
<stop stop-color="#F16A23"/>
<stop offset="0.19" stop-color="#F06223"/>
<stop offset="1" stop-color="#ED3725"/>
</linearGradient>
<linearGradient id="paint47_linear_2643_13240" x1="7.72206" y1="472.502" x2="0.992159" y2="472.502" gradientUnits="userSpaceOnUse">
<stop stop-color="#F16A23"/>
<stop offset="0.19" stop-color="#F06223"/>
<stop offset="1" stop-color="#ED3725"/>
</linearGradient>
<linearGradient id="paint48_linear_2643_13240" x1="7.73084" y1="477.391" x2="1.00094" y2="477.391" gradientUnits="userSpaceOnUse">
<stop stop-color="#F16A23"/>
<stop offset="0.19" stop-color="#F06223"/>
<stop offset="1" stop-color="#ED3725"/>
</linearGradient>
<linearGradient id="paint49_linear_2643_13240" x1="7.72519" y1="483.073" x2="0.995292" y2="483.073" gradientUnits="userSpaceOnUse">
<stop stop-color="#F16A23"/>
<stop offset="0.19" stop-color="#F06223"/>
<stop offset="1" stop-color="#ED3725"/>
</linearGradient>
<linearGradient id="paint50_linear_2643_13240" x1="7.72327" y1="488.575" x2="0.993369" y2="488.575" gradientUnits="userSpaceOnUse">
<stop stop-color="#F16A23"/>
<stop offset="0.19" stop-color="#F06223"/>
<stop offset="1" stop-color="#ED3725"/>
</linearGradient>
<linearGradient id="paint51_linear_2643_13240" x1="7.72848" y1="494.448" x2="0.998582" y2="494.448" gradientUnits="userSpaceOnUse">
<stop stop-color="#F16A23"/>
<stop offset="0.19" stop-color="#F06223"/>
<stop offset="1" stop-color="#ED3725"/>
</linearGradient>
<linearGradient id="paint52_linear_2643_13240" x1="7.73067" y1="499.329" x2="1.00077" y2="499.329" gradientUnits="userSpaceOnUse">
<stop stop-color="#F16A23"/>
<stop offset="0.19" stop-color="#F06223"/>
<stop offset="1" stop-color="#ED3725"/>
</linearGradient>
<linearGradient id="paint53_linear_2643_13240" x1="7.73162" y1="505.018" x2="1.00172" y2="505.018" gradientUnits="userSpaceOnUse">
<stop stop-color="#F16A23"/>
<stop offset="0.19" stop-color="#F06223"/>
<stop offset="1" stop-color="#ED3725"/>
</linearGradient>
<linearGradient id="paint54_linear_2643_13240" x1="7.72979" y1="509.901" x2="0.99989" y2="509.901" gradientUnits="userSpaceOnUse">
<stop stop-color="#F16A23"/>
<stop offset="0.19" stop-color="#F06223"/>
<stop offset="1" stop-color="#ED3725"/>
</linearGradient>
<linearGradient id="paint55_linear_2643_13240" x1="7.7238" y1="514.585" x2="0.993904" y2="514.585" gradientUnits="userSpaceOnUse">
<stop stop-color="#F16A23"/>
<stop offset="0.19" stop-color="#F06223"/>
<stop offset="1" stop-color="#ED3725"/>
</linearGradient>
</defs>
</svg>
