<svg width="50" height="50" viewBox="0 0 50 50" fill="none" xmlns="http://www.w3.org/2000/svg">
<g clip-path="url(#clip0_687_4236)">
<path d="M49.2505 31.0509C45.9135 44.4424 32.346 52.5929 18.9505 49.2509C5.55495 45.9089 -2.5918 32.3481 0.750451 18.9554C4.0927 5.56263 17.6535 -2.59161 31.046 0.750886C44.4385 4.09339 52.5927 17.6549 49.2505 31.0509Z" fill="#434343"/>
<g clip-path="url(#clip1_687_4236)">
<path d="M25.1876 29.696L17.4896 26.0339L25.1876 39.4868L32.8859 26.0339L25.1876 29.696Z" fill="white"/>
<path d="M32.0476 23.3049L25.1877 11.3905L18.3201 23.3187L25.1877 20.0609L32.0476 23.3049Z" fill="white"/>
<path d="M18.9153 24.8644L25.1877 27.8354L31.4705 24.8595L25.1877 21.8887L18.9153 24.8644Z" fill="white"/>
</g>
</g>
<defs>
<clipPath id="clip0_687_4236">
<rect width="50" height="50" fill="white"/>
</clipPath>
<clipPath id="clip1_687_4236">
<rect width="28.0963" height="28.0963" fill="white" transform="translate(11.124 11.3905)"/>
</clipPath>
</defs>
</svg>
