<svg width="29" height="32" viewBox="0 0 29 32" fill="none" xmlns="http://www.w3.org/2000/svg">
<path d="M9.77124 19.5462C9.77124 21.6667 11.4766 23.3857 13.5803 23.3857C15.684 23.3857 17.3896 21.6667 17.3896 19.5462C17.3896 17.4257 15.684 15.7068 13.5803 15.7068C11.4766 15.7068 9.77124 17.4257 9.77124 19.5462Z" fill="url(#paint0_linear_2162_10517)"/>
<path d="M10.776 4.1297C9.95957 5.35654 8.76822 6.26923 7.62701 7.19623C5.69699 8.7636 3.8334 10.4544 2.40336 12.4946C0.973196 14.5348 -0.00700094 16.9624 0.00028448 19.4604C0.0089282 22.3917 1.38945 25.2096 3.39109 27.336C6.45171 30.5873 11.0184 32.3337 15.4485 31.9469C19.8785 31.5601 24.0792 29.0482 26.5395 25.3149C27.3157 24.1371 27.9134 22.8455 28.3254 21.4953C29.2194 18.5652 29.238 15.3588 28.3044 12.4388C28.2708 13.6788 27.5113 14.9 26.3704 15.3654C25.5267 15.7097 24.5047 15.6004 23.7643 15.0642C21.2477 13.2413 23.8995 9.74562 22.6799 7.39923C21.6407 5.40035 18.7118 5.48312 17.0077 4.01955C16.015 3.16723 15.5166 1.76789 15.7448 0.473839C14.4815 2.23624 14.1787 4.57379 14.589 6.70846C14.9995 8.84314 16.0623 10.7998 17.3219 12.5648C18.5738 14.319 20.0875 16.0471 20.3669 18.1895C20.558 19.6548 20.1248 21.1576 19.3571 22.4166C18.2787 24.185 16.4973 25.539 14.4776 25.9448C12.0449 26.4336 9.40045 25.4721 7.76839 23.5894C6.13609 21.7067 5.54078 18.9888 6.14547 16.5641C6.91427 13.4816 9.35254 11.1659 11.167 8.56645C12.087 7.24851 12.8767 5.77922 13.0517 4.17737C13.187 2.94008 12.8155 0.479689 11.4348 5.72205e-06C11.6639 1.53178 11.6866 2.7616 10.776 4.1297Z" fill="url(#paint1_linear_2162_10517)"/>
<defs>
<linearGradient id="paint0_linear_2162_10517" x1="13.5804" y1="28.5694" x2="13.5804" y2="18.2232" gradientUnits="userSpaceOnUse">
<stop stop-color="#E00A14"/>
<stop offset="0.999999" stop-color="#F97F4E"/>
<stop offset="1" stop-color="#F97F4E"/>
</linearGradient>
<linearGradient id="paint1_linear_2162_10517" x1="14.5002" y1="32.6375" x2="14.5002" y2="15.5473" gradientUnits="userSpaceOnUse">
<stop stop-color="#E00A14"/>
<stop offset="0.999999" stop-color="#F97F4E"/>
<stop offset="1" stop-color="#F97F4E"/>
</linearGradient>
</defs>
</svg>
