<svg version="1.2" baseProfile="tiny-ps" xmlns="http://www.w3.org/2000/svg" viewBox="0 0 136 136" width="136" height="136">
	<title>Hell's Bay Branding_06112021-06-svg</title>
	<defs>
		<linearGradient id="grd1" gradientUnits="userSpaceOnUse"  x1="66.566" y1="117.665" x2="66.566" y2="75.851">
			<stop offset="0" stop-color="#e00a14"  />
			<stop offset="1" stop-color="#f97f4e"  />
		</linearGradient>
		<linearGradient id="grd2" gradientUnits="userSpaceOnUse"  x1="70.311" y1="134.105" x2="70.311" y2="65.034">
			<stop offset="0" stop-color="#e00a14"  />
			<stop offset="1" stop-color="#f97f4e"  />
		</linearGradient>
	</defs>
	<style>
		tspan { white-space:pre }
		.shp0 { fill: url(#grd1) } 
		.shp1 { fill: url(#grd2) } 
		.shp2 { fill: #f97f4e } 
	</style>
	<g id="Layer">
		<g id="Layer">
			<g id="Layer">
				<g id="Layer">
					<path id="Layer" class="shp0" d="M66.57 96.72C57.99 96.72 51.05 89.78 51.05 81.2C51.05 72.62 57.99 65.68 66.57 65.68C75.15 65.68 82.09 72.62 82.09 81.2C82.09 89.78 75.15 96.72 66.57 96.72Z" />
					<path id="Layer" class="shp1" d="M126.63 89.07C124.95 94.53 122.52 99.75 119.35 104.51C109.33 119.6 92.22 129.75 74.17 131.31C56.12 132.87 37.52 125.82 25.05 112.67C16.9 104.08 11.27 92.69 11.24 80.84C11.21 70.74 15.2 60.93 21.03 52.69C26.86 44.45 34.45 37.61 42.31 31.28C46.96 27.53 51.81 23.85 55.14 18.89C58.85 13.36 58.76 8.39 57.82 2.2C63.44 4.14 64.96 14.08 64.41 19.08C63.7 25.55 60.48 31.49 56.73 36.82C49.34 47.33 39.41 56.68 36.27 69.14C33.81 78.94 36.23 89.92 42.88 97.53C49.53 105.14 60.3 109.02 70.21 107.05C78.44 105.41 85.69 99.94 90.09 92.79C93.22 87.7 94.98 81.63 94.2 75.71C93.06 67.05 86.9 60.07 81.8 52.98C76.67 45.85 72.34 37.94 70.67 29.31C69 20.68 70.23 11.24 75.38 4.11C74.45 9.34 76.48 15 80.52 18.44C87.46 24.35 99.39 24.02 103.63 32.1C108.6 41.58 97.8 55.71 108.05 63.08C111.07 65.25 115.23 65.69 118.67 64.3C123.32 62.42 126.41 57.48 126.55 52.47C130.35 64.27 130.27 77.23 126.63 89.07Z" />
					<path id="Layer" class="shp2" d="M126.74 52.27C126.72 52.22 126.71 52.15 126.69 52.1" />
				</g>
			</g>
		</g>
	</g>
</svg>